####
#
#	OBJ File Generated by LightWave3D
#	LightWave3D OBJ Export v2.2
#
####
#	Object: Dorfhaus_2L-FormK.lwo
#
#	                Vertices: 1147
#	                  Points: 0
#	                   Lines: 0
#	                   Faces: 2252
#	               Materials: 1
#
####

o Dorfhaus_2L-FormK.lwo

#	             Vertex list

v 1.5 0.596 -3.802
v 1.5 0.596 -4.002
v 1.5 -0.004 -4.002
v 3.494 3.492 -3.802
v 3.494 3.492 -4.002
v 3.494 2.892 -4.002
v 1.5 -0.004 -3.802
v 3.5 3.5 -1.498
v 3.5 3.5 -3.498
v 3.5 -0.002 -3.498
v 3.8 -0.002 -1.498
v 3.5 -0.002 -1.498
v 3.8 3.5 -1.498
v 1.496 3.5 -3.802
v 3.496 -0.002 -3.802
v 1.496 -0.002 -3.802
v 3.496 3.5 -3.802
v 1 3.5 -3.5
v 1 3.5 -4.002
v 1 -0.002 -4.002
v 1.5 3.5 -3.5
v 1.5 3.5 -4.002
v 1.5 -0.002 -4.002
v 1 -0.002 -3.5
v 3.494 2.892 -3.802
v 4 3.5 -3.498
v 3.5 3.5 -3.998
v 4 3.5 -3.998
v 3.8 2.892 -3.498
v 4 -0.004 -1.498
v 3.8 -0.004 -1.498
v 4 -0.002 -3.998
v 4 -0.002 -3.498
v 3.8 3.492 -3.498
v 4 2.892 -3.498
v 4 3.492 -3.498
v 4 0.596 -1.498
v 3.8 -0.002 -3.498
v 3.5 -0.002 -3.998
v 3.8 3.5 -3.498
v 4 3.5 -1.502
v 4 3.5 -1
v 4 -0.002 -1
v 3.5 3.5 -1.502
v 4 -0.002 -1.502
v 3.5 -0.002 -1.502
v 3.5 3.5 -1
v 3.5 -0.002 -1
v 4 2.892 0.994
v 3.8 2.892 0.994
v 4 -0.004 -1
v 3.8 0.596 -1
v 3.8 -0.004 -1
v 3.8 3.492 0.994
v 3.8 3.5 0.996
v 3.8 3.5 -1.004
v 3.5 3.5 0.996
v 3.8 -0.002 0.996
v 3.5 -0.002 0.996
v 3.5 3.5 -1.004
v 3.8 -0.002 -1.004
v 3.5 -0.002 -1.004
v 3.496 3.5 -3.5
v 3.496 -0.002 -3.5
v 1.496 -0.002 -3.5
v 1.496 3.5 -3.5
v 1.5 -0.002 -3.5
v 4 0.596 -1
v 4 3.492 0.994
v 0.48 5.048 -3.802
v -0.49 5.048 -3.802
v 0.48 4.998 -3.852
v 0.48 4.998 -4.4
v 0.53 5.048 -3.852
v 0.53 5.048 -4.4
v -0.49 5.57 -3.802
v 0.48 5.57 -3.802
v -0.49 4.998 -3.852
v 0.48 5.57 -4.45
v 0.48 5.62 -4.4
v 0.53 5.57 -4.4
v 0.48 5.62 -3.852
v 0.53 5.57 -3.852
v 0.48 5.048 -4.45
v -0.542 5.048 -3.852
v -0.49 4.998 -4.4
v -0.49 5.048 -4.45
v -0.49 5.62 -3.852
v -0.542 5.57 -3.852
v -0.49 5.62 -4.4
v -0.49 5.57 -4.45
v -0.49 6.24 -3.852
v -0.542 6.19 -3.852
v -0.49 6.19 -3.802
v -0.542 5.668 -3.852
v -0.49 5.668 -3.802
v -0.49 6.24 -4.4
v -0.49 6.19 -4.45
v -0.542 6.19 -4.4
v -0.49 5.668 -4.45
v 0.48 5.668 -4.45
v 0.48 6.19 -4.45
v -0.542 5.668 -4.4
v -0.542 5.57 -4.4
v 1.002 -0.002 -3.502
v 0.244 0.424 -3.502
v 0.002 -0.002 -3.502
v 0.724 0.424 -3.502
v 0.724 0.484 -3.502
v -0.702 0.52 -3.502
v -0.998 1.748 -3.502
v -0.998 -0.002 -3.502
v -0.702 0.424 -3.502
v -0.27 0.424 -3.502
v -0.498 2.624 -3.502
v -0.702 1.748 -3.502
v 0.002 1.748 -3.502
v -3.5 0.198 0.998
v 0 0.198 -1.25
v -3.5 0.198 -3.5
v -0.702 1.228 -3.502
v 0.502 2.624 -3.502
v 0.284 4.998 -3.962
v -0.352 4.998 -3.962
v 0.724 1.264 -3.502
v 0.724 1.748 -3.502
v -0.542 5.048 -4.4
v -0.702 0.424 -4.7
v 0 0.198 -3.5
v 0.724 0.424 -4.7
v -0.702 1.748 -4.7
v 0.724 1.748 -4.7
v 0 -0.002 -1.25
v 3.5 -0.002 0.998
v 0 -0.002 0.998
v 3.5 -0.002 -3.5
v -0.998 2 -5
v -0.232 2.562 -4.726
v 0.002 2 -5
v -0.544 3.124 -4.45
v 0.536 3.124 -4.45
v 1.002 2 -5
v 0.582 3.012 -3.802
v 0.642 2.87 -3.802
v -0.998 -0.002 -5
v 0.002 0.998 -5
v 0.002 -0.002 -5
v -0.998 0.998 -5
v 1.002 -0.002 -5
v -0.544 3.124 -3.802
v -0.59 3.012 -3.802
v -0.998 2.002 -3.802
v -0.998 2 -3.966
v -0.998 2 -3.802
v -0.998 2 -4.002
v 0.536 3.124 -3.802
v 0.382 3.012 -3.802
v 0.482 3.012 -3.802
v -0.482 3.012 -3.802
v -0.644 2.878 -3.802
v 0.53 4.328 -3.852
v 0.48 4.328 -3.802
v 0.53 3.798 -3.852
v 0.48 3.798 -3.802
v 0.53 4.948 -3.852
v 0.48 4.948 -3.802
v 0.53 4.428 -3.852
v 0.48 3.748 -3.852
v -0.49 3.748 -3.852
v 0.48 3.698 -3.802
v -0.49 3.698 -3.802
v 0.53 3.698 -3.852
v 0.48 3.5 -3.802
v 0.53 3.178 -3.852
v 0.48 3.178 -3.802
v 0.48 3.128 -3.852
v -0.49 3.178 -3.802
v -0.49 3.128 -3.852
v 0.48 4.428 -3.802
v -0.49 4.328 -3.802
v -0.542 4.328 -3.852
v -0.542 3.798 -3.852
v -0.49 3.798 -3.802
v -0.49 4.948 -3.802
v -0.542 4.428 -3.852
v -0.49 4.428 -3.802
v 1.002 0.998 -5
v -0.49 3.202 -3.802
v -0.49 3.5 -3.802
v -0.542 3.178 -3.852
v -0.542 3.698 -3.852
v -0.542 4.948 -3.852
v 0.28 3.012 -3.802
v -1.374 0.874 -4.002
v -1.124 0.874 -4.002
v -0.998 -0.002 -4.002
v -1.498 3.5 -4.002
v -0.998 3.5 -4.002
v -1.124 2.624 -4.002
v -1.498 1.748 -4.002
v -1.498 -0.002 -4.002
v -0.998 3.5 -3.802
v -0.45 3.178 -3.802
v 0.184 3.178 -3.802
v -0.164 3.012 -3.802
v -1.248 1.748 -4.002
v -0.998 1.748 -4.002
v -1.374 2.624 -4.002
v -0.998 0.998 -4.002
v -0.998 0.332 -4.002
v -0.998 1.666 -4.002
v -0.998 2.098 -3.802
v -0.998 3.032 -3.802
v -0.998 2.624 -3.802
v -0.118 3.5 -3.802
v 0.002 3.5 -3.802
v 1.002 3.5 -3.802
v -0.542 3.798 -4.402
v -0.49 3.748 -4.402
v -0.49 4.378 -4.402
v -0.49 4.328 -4.45
v -0.542 4.328 -4.402
v 0.48 4.328 -4.45
v 0.53 3.798 -4.402
v 0.48 3.748 -4.402
v -0.49 3.798 -4.45
v 0.48 3.798 -4.45
v 0.48 4.378 -4.402
v 0.53 4.328 -4.402
v 0.48 4.378 -3.852
v -0.49 4.378 -3.852
v -0.49 4.998 -4.402
v -0.49 4.948 -4.45
v -0.542 4.948 -4.402
v 0.48 4.998 -4.402
v 0.48 4.948 -4.45
v -0.542 4.428 -4.402
v -0.49 4.428 -4.45
v 0.48 4.428 -4.45
v 0.53 4.948 -4.402
v 0.53 4.428 -4.402
v 0.53 3.698 -4.402
v 0.53 3.178 -4.402
v 0.48 3.128 -4.402
v -0.49 3.128 -4.402
v -0.542 3.178 -4.402
v -0.542 3.698 -4.402
v -0.49 3.698 -4.45
v -0.49 3.178 -4.45
v 0.48 3.178 -4.45
v 0.48 3.698 -4.45
v 0.48 8.1 -4.4
v 0.34 8.1 -4.282
v 0.34 8.1 -3.962
v -0.49 8.1 -4.4
v -0.352 8.1 -4.282
v -0.49 7.48 -3.852
v -0.352 7.48 -3.962
v 0.48 7.48 -3.852
v 0.34 7.48 -3.962
v 0.48 8.1 -3.852
v -0.352 8.1 -3.962
v -0.49 8.1 -3.852
v -0.352 0.274 -4.282
v -0.352 0.274 -3.962
v 0.34 0.274 -3.962
v 0.34 0.274 -4.282
v -0.352 7.48 -4.282
v 0.48 7.48 -4.4
v -0.49 7.48 -4.4
v 0.34 7.48 -4.282
v -0.352 0.424 -3.962
v -0.352 6.86 -3.962
v 0.34 6.86 -3.962
v -0.352 6.24 -3.962
v 0.34 6.24 -3.962
v 0.34 5.62 -3.962
v 0.34 3.124 -3.962
v 0.34 3.124 -4.282
v 0.34 1.748 -4.282
v 0.34 1.748 -3.962
v 0.34 4.998 -3.962
v 0.34 0.424 -3.962
v 0.34 0.424 -4.282
v -0.352 3.124 -3.962
v 0.27 3.124 -3.962
v -0.352 1.748 -3.962
v 0.284 3.128 -3.962
v -0.352 5.62 -3.962
v 0.48 6.24 -4.4
v 0.48 6.24 -3.852
v 0.34 6.24 -4.282
v -0.352 5.62 -4.282
v -0.352 6.24 -4.282
v 0.34 5.62 -4.282
v 0.48 6.86 -4.4
v 0.48 6.86 -3.852
v 0.34 6.86 -4.282
v -0.49 6.86 -4.4
v -0.352 6.86 -4.282
v -0.49 6.86 -3.852
v -3.5 -0.002 0.998
v 1 -0.002 0.998
v 1 0.198 0.998
v -3.5 -0.002 5.998
v -3.5 0.198 5.998
v 1 0.198 5.998
v 1 -0.002 5.998
v 1 -0.002 3.498
v 3.5 0.198 0.998
v 0 0.198 0.998
v 0 0.098 -3.5
v 0 -0.002 -3.5
v -3.5 -0.002 -3.5
v -3.5 0.198 3.498
v -1.25 0.198 3.498
v 1 0.198 3.498
v 3.5 0.198 -3.5
v -1.25 -0.002 3.498
v -3.5 -0.002 3.498
v -0.262 3.124 -4.282
v 0.34 4.998 -4.282
v -0.28 3.128 -4.282
v -0.352 4.998 -4.282
v -0.352 3.124 -4.282
v -0.352 0.424 -4.282
v -0.352 1.748 -4.282
v -0.28 4.998 -4.282
v -0.542 6.91 -4.4
v -0.49 6.91 -4.45
v -0.542 7.43 -4.4
v -0.49 7.43 -4.45
v -0.542 7.43 -3.852
v -0.542 6.91 -3.852
v -0.49 7.43 -3.802
v -0.49 6.91 -3.802
v 0.53 6.81 -4.4
v 0.53 6.81 -3.852
v 0.48 6.81 -3.802
v 0.48 6.29 -4.45
v 0.53 6.29 -4.4
v 0.48 6.81 -4.45
v 0.53 6.29 -3.852
v 0.48 6.29 -3.802
v 0.48 6.91 -4.45
v 0.53 7.43 -4.4
v 0.53 6.91 -4.4
v 0.48 7.43 -4.45
v 0.53 6.91 -3.852
v 0.48 7.43 -3.802
v 0.48 6.91 -3.802
v 0.53 7.43 -3.852
v 0.53 6.19 -3.852
v 0.48 6.19 -3.802
v 0.53 5.668 -3.852
v 0.48 5.668 -3.802
v 0.53 6.19 -4.4
v -0.542 6.81 -3.852
v -0.542 6.29 -4.4
v -0.542 6.29 -3.852
v -0.542 6.81 -4.4
v 0.53 5.668 -4.4
v -0.49 6.81 -3.802
v -0.49 6.29 -4.45
v -0.49 6.81 -4.45
v -0.49 6.29 -3.802
v -0.49 7.53 -3.802
v -0.542 7.53 -3.852
v -0.49 7.53 -4.45
v 0.48 7.53 -4.45
v -0.542 8.05 -3.852
v -0.49 8.05 -3.802
v 0.48 8.05 -4.45
v 0.48 8.05 -3.802
v -0.49 8.05 -4.45
v -0.542 8.05 -4.4
v -0.542 7.53 -4.4
v 0.48 7.53 -3.802
v 0.53 7.53 -4.4
v 0.53 8.05 -3.852
v 0.53 7.53 -3.852
v 0.53 8.05 -4.4
v -2.014 1.748 6.3
v -1.812 2.998 6.3
v -1.812 1.748 6.3
v -2.014 2.998 6.3
v -1.812 1.748 6.4
v -3.192 1.748 6.4
v -3.192 1.748 6.3
v -2.988 1.748 6.4
v -2.988 2.998 6.4
v -3.192 2.998 6.4
v -2.014 1.748 6.4
v -2.014 2.998 6.4
v -1.812 2.998 6.4
v -2.988 2.998 6.3
v -2.988 1.748 6.3
v -3.192 2.998 6.3
v -3.498 2.998 6.498
v -3.498 2.998 6.3
v -1.5 2.998 6.498
v -1.5 3.25 6.498
v -3.498 3.25 6.498
v -3.498 -0.002 6.3
v -3.498 -0.002 5.998
v -1.5 -0.002 6.3
v -1.5 1.748 5.998
v -1.5 -0.002 5.998
v -3.498 1.748 5.998
v -2.4 2.998 5.998
v -2.6 2.998 5.998
v -2.4 2.998 6.148
v -2.6 2.998 6.148
v -1.5 1.748 6.3
v -3.498 1.748 6.3
v -2.6 1.748 6.148
v -2.6 1.748 5.998
v -2.4 1.748 6.148
v -2.4 1.748 5.998
v -1.5 2.998 6.3
v -1 3.5 5.998
v -1.5 3.5 5.998
v -1 3.5 6.5
v -1.5 3.5 6.5
v -3.498 1.498 6.3
v -1.5 1.498 6.3
v -1.5 -0.002 6.5
v -1 -0.002 5.998
v -1 -0.002 6.5
v -1.5 1.748 6.5
v -3.498 1.748 6.5
v -3.498 1.498 6.5
v -1.5 1.498 6.5
v -3.8 3.5 3.996
v -3.8 -0.002 3.996
v -3.8 -0.002 5.996
v -3.8 3.5 5.996
v -4 0.596 3.996
v -4 -0.004 3.996
v -3.8 3.492 5.996
v -4 3.492 5.996
v -1.5 1.15 6.5
v -3.498 0.348 6.5
v -1.5 3.25 6.3
v -3.498 3.25 6.3
v -1.5 1.15 6.3
v -3.498 -0.002 6.5
v -3.498 0.348 6.3
v -0.654 2.998 6.3
v -0.654 2.998 6.4
v -0.654 -0.002 6.4
v -0.856 2.998 6.3
v -0.856 2.998 6.4
v -0.856 -0.002 6.3
v -0.654 -0.002 6.3
v -0.856 -0.002 6.4
v 1 3.25 6.3
v 1 3.25 6.498
v 1 2.998 6.498
v -0.998 3.25 6.3
v -0.998 3.25 6.498
v 1 2.998 6.3
v -0.998 2.998 6.3
v -0.998 2.998 6.498
v 0.848 2.998 6.3
v 0.848 -0.002 6.3
v 0.646 -0.002 6.3
v 1 3.5 5.998
v -0.998 3.5 5.998
v 1 3.5 6.3
v -0.998 3.5 6.3
v -0.998 2.998 5.998
v -0.998 2.998 6.3
v 1 2.998 5.998
v 0.646 -0.002 5.998
v 0.646 2.998 6.3
v 0.848 2.998 6.4
v 0.646 2.998 6.4
v 0.646 -0.002 6.4
v 0.848 -0.002 6.4
v 1.5 3.5 6.5
v 1 3.5 6.5
v -2.014 2.998 5.998
v -1.5 2.998 5.998
v -2.014 1.748 5.998
v -1.5 3.5 6.3
v -3.498 2.998 6.3
v -3.498 3.5 6.3
v -3.498 3.5 5.998
v -3.498 2.998 5.998
v 1.5 3.5 5.998
v 1.5 -0.002 5.998
v 1 -0.002 6.5
v 1.5 -0.002 6.5
v -2.988 2.998 5.998
v -2.988 1.748 5.998
v -3.8 -0.004 3.996
v -4 0.348 1.502
v -4 1.498 3.498
v -3.8 0.348 1.502
v -4 -0.002 1.502
v -3.8 -0.002 1.502
v -3.8 1.498 3.498
v -4 1.15 3.498
v -3.8 1.15 3.498
v -3.8 2.998 1.502
v -3.8 3.25 3.498
v -3.8 2.998 3.498
v -3.8 3.25 1.502
v -3.8 1.748 1.502
v -4 1.748 1.502
v -4 1.748 3.498
v -4 1.498 1.502
v -3.8 1.498 1.502
v -3.8 1.748 3.498
v -4 2.998 3.498
v -3.9 1.748 1.808
v -3.8 2.998 1.808
v -3.8 1.748 1.808
v -3.9 2.998 1.808
v -3.9 1.748 2.012
v -3.8 1.748 2.012
v -3.8 2.998 2.012
v -3.9 2.998 2.012
v -3.8 1.748 2.986
v -3.8 2.998 3.19
v -3.8 1.748 3.19
v -3.8 2.998 2.986
v -3.9 1.748 3.19
v -4 2.998 1.502
v -4 3.25 1.502
v -4 3.25 3.498
v -4 3.5 0.998
v -3.5 3.5 0.998
v -4 -0.002 0.998
v -4 3.5 1.5
v -4 -0.002 1.5
v -3.5 3.5 1.5
v -3.5 -0.002 1.5
v -4 -0.004 0.998
v -3.8 2.892 -0.996
v -3.8 -0.004 0.998
v -4 2.892 -0.996
v -3.5 3.5 1.002
v -3.8 3.5 1.002
v -3.8 -0.002 1.002
v -3.5 3.5 -0.998
v -3.8 3.5 -0.998
v -3.5 -0.002 -0.998
v -3.5 -0.002 1.002
v -3.8 -0.002 -0.998
v -3.8 0.596 0.998
v -4 -0.002 3.498
v -3.5 3.5 3.498
v -4 3.5 3.498
v -4 3.5 4
v -4 -0.002 4
v -3.5 3.5 4
v -3.5 -0.002 4
v -4 3.492 -0.996
v -4 0.596 0.998
v -3.8 3.492 -0.996
v -3.5 2.998 2.012
v -3.5 1.748 2.012
v -3.5 2.998 1.502
v -3.8 2.998 1.502
v -3.5 3.5 3.996
v -3.5 -0.002 3.996
v -3.5 3.5 5.996
v -3.5 -0.002 5.996
v -3.5 1.748 2.986
v -3.5 1.748 3.498
v -3.5 2.998 2.986
v -3.5 1.748 1.502
v -4 3.5 5.996
v -4 3.5 6.496
v -3.5 3.5 6.496
v -3.8 2.892 5.996
v -4 2.892 5.996
v -4 -0.002 5.996
v -3.5 -0.002 6.496
v -4 -0.002 6.496
v -3.5 2.998 3.498
v -3.65 2.998 2.6
v -3.65 1.748 2.398
v -3.65 1.748 2.6
v -3.65 2.998 2.398
v -3.5 2.998 2.6
v -3.5 1.748 2.6
v -3.5 2.998 2.398
v -3.5 1.748 2.398
v -3.8 -0.002 3.498
v -3.5 -0.002 1.502
v -3.9 1.748 2.986
v -3.9 2.998 2.986
v -3.9 2.998 3.19
v -3.8 3.5 1.502
v -3.5 3.5 1.502
v -3.8 3.5 3.498
v 1.502 3.5 0.998
v 3.5 3.5 0.998
v 1.502 2.998 0.998
v 3.5 2.998 0.998
v 3.5 2.998 1.3
v 3.5 3.5 1.3
v 3.5 1.748 0.998
v 1.502 1.748 0.998
v 3.5 1.748 1.3
v 1.502 1.748 1.3
v 1.502 3.5 1.3
v 1.502 2.998 1.3
v 1.502 -0.002 0.998
v 3.5 -0.002 1.3
v 1.502 -0.002 1.3
v 2.6 2.998 0.998
v 2.4 2.998 0.998
v 2.6 2.998 1.148
v 2.4 2.998 1.148
v 2.012 2.998 0.998
v 2.012 1.748 0.998
v 2.986 2.998 1.3
v 2.986 1.748 1.3
v 2.012 1.748 1.3
v 2.012 2.998 1.3
v 2.986 2.998 0.998
v 2.986 1.748 0.998
v 2.6 1.748 1.148
v 3.5 3.25 1.498
v 1.502 3.25 1.498
v 1.502 2.998 1.498
v 1.808 1.748 1.3
v 1.808 2.998 1.3
v 1.502 2.998 1.3
v 3.5 2.998 1.498
v 2.012 2.998 1.4
v 1.808 2.998 1.4
v 1.808 1.748 1.4
v 2.012 1.748 1.4
v 3.5 1.15 1.5
v 3.5 1.498 1.5
v 1.502 0.348 1.5
v 3.5 3.25 1.3
v 1.502 3.25 1.3
v 3.5 1.15 1.3
v 1.502 -0.002 1.5
v 2.4 1.748 0.998
v 2.6 1.748 0.998
v 2.4 1.748 1.148
v 3.188 1.748 1.4
v 2.986 1.748 1.4
v 3.188 2.998 1.4
v 2.986 2.998 1.4
v 3.188 2.998 1.3
v 3.188 1.748 1.3
v -0.998 0.998 -4.402
v 0.002 -0.002 -3.652
v -0.998 -0.002 -3.802
v -0.998 2.624 -3.876
v 0.002 -0.002 -4.402
v 0.002 -0.002 -3.802
v 1.002 -0.002 -3.802
v -1.498 -0.002 -3.502
v -1.498 1.748 -3.502
v -1.498 2.624 -3.876
v -1.498 0.874 -3.876
v -1.498 3.5 -3.502
v -1.374 2.624 -3.502
v -1.124 2.624 -3.502
v -0.998 3.5 -3.502
v -1.124 0.874 -3.502
v -1.374 0.874 -3.502
v -1.248 1.748 -3.502
v 1.002 0.998 -4.402
v 1.002 3.5 -3.502
v 0.002 3.5 -3.502
v 0.002 3.5 -3.652
v 1.502 0.348 1.3
v -3.498 3.5 -3.5
v -3.498 -0.002 -3.802
v -3.498 -0.002 -3.5
v -3.498 3.5 -3.802
v -1.498 -0.002 -3.802
v -1.498 -0.002 -3.5
v -1.498 3.5 -3.802
v -1.498 3.5 -3.5
v -3.998 -0.002 -3.5
v -3.998 3.5 -3.5
v -3.998 -0.002 -4.002
v -3.498 -0.002 -4.002
v 1.3 0.596 4
v 1.5 -0.004 4
v 1.3 -0.004 4
v 1.5 0.596 4
v 1.3 3.492 5.994
v 1.5 3.492 5.994
v 1.5 2.892 5.994
v 1.3 -0.002 3.996
v 1.3 3.5 3.996
v 1.3 -0.002 5.996
v 1.3 3.5 5.996
v -3.998 3.5 -4.002
v -1.498 0.596 -4.002
v -1.498 0.596 -3.802
v -1.498 -0.004 -4.002
v -3.498 3.492 -3.802
v -3.498 3.492 -4.002
v -3.498 2.892 -4.002
v -1.498 -0.004 -3.802
v 1 3.5 3.502
v 1 3.5 1.502
v 1 -0.002 1.502
v 1.3 -0.002 3.502
v 1 -0.002 3.502
v 1.3 3.5 3.502
v -3.498 3.5 -4.002
v -3.498 2.892 -3.802
v 1.3 2.892 5.994
v -0.998 -0.002 5.998
v -0.998 -0.002 6.3
v -0.654 2.998 5.998
v -0.654 -0.002 5.998
v 1 3.5 3.996
v 1 -0.002 3.996
v 1 -0.002 5.996
v 0.646 2.998 5.998
v 1 -0.002 6.3
v 1 3.5 5.996
v 1.5 3.5 3.498
v 1.5 3.5 4
v 1.5 -0.002 4
v 1 3.5 3.498
v 1.5 -0.002 3.498
v 1 3.5 4
v 1 -0.002 4
v -4 3.492 -1.504
v -3.8 3.492 -1.504
v -4 0.596 -3.504
v -3.8 3.5 -3.504
v -3.8 -0.002 -3.504
v -3.8 -0.002 -1.504
v -3.8 3.5 -1.504
v -4 -0.004 -3.504
v -3.8 -0.004 -3.504
v 4 3.5 0.998
v 3.5 -0.002 1.5
v 3.5 3.5 1.5
v 4 -0.002 0.998
v 4 -0.002 1.5
v -4 3.5 -1.504
v -4 3.5 -1.004
v -3.5 3.5 -1.004
v -3.8 2.892 -1.504
v -4 2.892 -1.504
v -4 -0.002 -1.504
v -3.5 3.5 -1.504
v -3.5 -0.002 -1.504
v 4 3.5 1.5
v 3.5 1.748 1.5
v 1.502 1.498 1.5
v 1.502 1.748 1.5
v 3.5 1.498 1.3
v 1.502 1.498 1.3
v -4 -0.002 -1.004
v 1.5 3.5 1.502
v 1.5 -0.002 1.502
v 1 3.5 1.002
v 1.5 3.5 1.002
v 1.5 -0.002 1.002
v 1.3 3.492 1.502
v 1.3 2.892 1.502
v 1.5 2.892 1.502
v 1.5 3.492 1.502
v 1.5 -0.004 3.502
v 1.3 -0.004 3.502
v 1.3 3.5 1.502
v 1.3 -0.002 1.502
v 1 -0.002 1.002
v 1.5 0.596 3.502
v -3.5 -0.002 -3.504
v -3.5 -0.002 -1.004
v -3.5 3.5 -3.504
v -3.5 0.198 5.996
v -3.5 3.494 4
v -3.5 3.48 3.996
v -3.5 0.198 5.882
v -3.5 0.198 3.996
v -3.5 0.198 4
v -3.5 0.198 3.528
v -3.5 0.198 1.502
v -3.5 0.198 1.73
v -3.5 0.178 1.502
v -3.5 0.178 1.5
v -3.5 0.198 1.5
v -3.5 0.02 1.502
v -3.5 0.018 1.5
v -3.5 3.494 0.998
v -3.5 0.198 1.002
v -3.5 0.198 1.028
v -3.5 0.11 -1.004
v -3.5 0.198 -1.004
v -3.5 0.198 -1.504
v -3.5 0.11 -0.998
v -3.5 0.198 -0.998
v -3.5 0.198 -1.032
v -3.5 0.198 -0.884
v -3.5 3.5 -3.5
v -3.5 3.494 -3.5
v -3.5 3.482 -3.5
v -3.5 0.198 -1.618
v -3.5 3.496 3.998
v 1 0.198 1.002
v 1 0.198 1.002
v 1 0 1.002
v -3.504 -0.002 1.002
v -3.504 3.5 1.002
v 1.002 3.5 3.996
v 1.298 3.5 4
v 1.3 3.5 4
v 1.3 3.5 3.498
v 1.298 3.5 3.498
v -3.8 3.5 4
v -3.8 3.5 4
v -3.8 3.5 0.998
v -3.8 3.5 0.998
v 3.8 3.5 -1
v 3.502 3.5 -1.004
v 3.8 3.5 -1.502
v 3.798 3.5 -1
v 3.798 3.5 -1.502
v 1 3.5 -3.502
v 1.5 3.5 -3.802
v 1.5 3.5 -3.8
v 1.496 3.5 -3.504
v 1 3.5 -3.802
v 1 3.5 -3.8
v 1 3.5 -3.502
v -3.8 3.5 -3.5
v -3.8 3.5 -3.5
v 1.002 -0.002 3.996
v 1.3 -0.002 4
v 1.3 -0.002 4
v 1.298 -0.002 4
v 1.498 -0.002 4
v 1.496 -0.002 3.502
v 1.3 -0.002 3.498
v 1.3 -0.002 3.5
v 1.498 -0.002 3.5
v 1.498 -0.002 3.502
v 1.5 -0.002 3.502
v 1.5 -0.002 3.5
v 1.498 -0.002 3.5
v 1.298 -0.002 3.498
v -3.8 -0.002 3.998
v -4 -0.002 3.998
v -3.8 -0.002 4
v -3.8 -0.002 4
v -4 -0.002 3.996
v -4 -0.002 3.998
v -4 -0.002 3.998
v -3.998 -0.002 3.996
v -4 -0.002 3.996
v -4 -0.002 0.998
v -3.8 -0.002 0.998
v -3.8 -0.002 0.998
v 3.996 -0.002 -1.498
v 3.8 -0.002 -1.502
v 3.8 -0.002 -1
v 3.998 -0.002 -1.498
v 4 -0.002 -1.498
v 3.998 -0.002 -1
v 3.502 -0.002 -1.004
v 3.8 -0.002 -1
v 3.798 -0.002 -1
v 3.798 -0.002 -1.502
v 3.8 -0.002 -1.5
v 3.998 -0.002 -1.5
v 4 -0.002 -1.5
v 3.998 -0.002 -1.5
v 1 -0.002 -3.502
v 1.002 -0.002 -4.002
v 1.002 -0.002 -3.998
v 1.496 -0.002 -3.504
v 1.5 -0.002 -3.802
v 1.5 -0.002 -3.8
v 1.5 -0.002 -3.802
v 1.5 -0.002 -4
v 1 -0.002 -3.8
v 1 -0.002 -3.502
v 1 -0.002 -3.802
v 1 -0.002 -3.802
v -3.8 -0.002 0.998
v -1.498 -0.002 -4
v -1.498 -0.002 -4.002
v -3.8 -0.002 -3.502
v -3.998 -0.002 -3.502
v -3.998 -0.002 -3.502
v -3.998 -0.002 -3.504
v -3.996 -0.002 -3.504
v -3.8 -0.002 -3.5
v -3.8 -0.002 -3.5
v -1.5 -0.002 -3.802
v 1.502 0.056 0.998
v 1.502 0.198 0.998
v 1.73 0.198 0.998
v 1.502 0.142 0.998
v 1 0.07 0.998
v 1 0.128 0.998
v -3.916 0.596 0.998
v -3.8 1.398 0.998
v -3.8 3.494 0.998
v -4 0.6 4
v -4 0.6 4
v -4 0 4
v -3.8 1.582 -0.094
v -3.8 1.398 5.996
v -3.8 0.6 4
v -3.8 0 4
v -3.8 1.582 5.092
v -3.8 3.494 4
v -3.8 1.91 4.904
v -3.8 1.398 4
v -3.8 2.244 3.19
v -3.8 3.25 2.5
v -3.8 3 1.502
v -3.8 2.502 1.808
v -3.8 1.498 3.214
v -3.8 1.02 2.666
v -3.8 1.398 -1.504
v -3.8 1.91 0.094
v -3.8 1.582 -2.408
v -3.8 1.91 -2.596
v -3.8 3.494 -3.5
v -3.8 1.382 -3.5
v -3.8 0.6 -3.5
v -3.8 0 -3.5
v 1.3 3.494 3.498
v 1.5 0.6 3.498
v 1.5 0.6 3.498
v 1.3 1.398 3.498
v 1.498 0.6 3.498
v 1.414 0.6 3.498
v 1.5 0 3.498
v 1.498 0 3.498
v 1.3 0.6 3.498
v 1.3 0 3.498
v 1.498 0 3.498
v 1 3.494 3.498
v -3.836 1.15 3.498
v 1 3.494 4
v 1.3 3.494 4
v 1.3 1.398 4
v 1.414 0.596 4
v 1 0.198 4
v -4 0 4
v -4 0 4
v -4 0.6 4
v -3.916 0.6 4
v 2.012 1.748 1.35
v 2.4 1.748 1.134
v 2.5 1.748 1.148
v 2.986 1.748 1.222
v 2.012 1.748 1.076
v 1.808 1.748 1.33
v -2.988 1.748 6.076
v -2.014 1.748 6.222
v -2.5 1.748 6.148
v -2.6 1.748 6.134
v -3.192 1.748 6.33
v -2.988 1.748 6.35
v -3.636 1.748 2.398
v -3.65 1.748 2.5
v -3.724 1.748 2.986
v -3.578 1.748 2.012
v -3.852 1.748 2.012
v -3.832 1.748 1.808
v 1.3 1.398 1.502
v 1 0.198 1.502
v 3.214 1.498 1.3
v -1.786 1.498 6.3
v 2.5 3.25 1.3
v 0 3.25 6.3
v -2.5 3.25 6.3
v 0.646 2.998 6.246
v 2.012 2.998 1.35
v 2.4 2.998 1.134
v 2.5 2.998 1.148
v 2.986 2.998 1.222
v 2.012 2.998 1.076
v 1.808 2.998 1.33
v -0.654 2.998 6.05
v -0.856 2.998 6.314
v -0.654 2.998 6.334
v -2.988 2.998 6.076
v -2.014 2.998 6.222
v -2.6 2.998 6.134
v -2.5 2.998 6.148
v -2.988 2.998 6.35
v -3.192 2.998 6.33
v -3.636 2.998 2.398
v -3.65 2.998 2.5
v -3.724 2.998 2.986
v -3.578 2.998 2.012
v -3.852 2.998 2.012
v -3.832 2.998 1.808
v 1 0.198 3.996
v 1 0.198 5.996
v 1 0.198 5.996
v 1 0 5.996
v 0.646 0.014 5.998
v 0.646 0.198 5.998
v 0.67 0.198 5.998
v -0.654 0.072 5.998
v -0.998 0.088 5.998
v -0.998 0.198 5.998
v -0.976 0.198 5.998
v -0.654 0.198 5.998
v -1 0.088 5.998
v -1 0.198 5.998
v -1.5 0.198 5.998
v -1.472 0.198 5.998
v -3.498 0.198 5.998
v -3.498 0.198 5.998
v -3.27 0.198 5.998
v -1.5 1.15 6.334
v 1 1.398 6.3
v 0.848 1.722 6.3
v -0.998 3 6.3
v -0.856 1.238 6.3
v -1.812 2.242 6.3
v -3.498 3 6.3
v -2.334 1.02 6.3
v -3.192 2.502 6.3
v -3.498 0.198 -3.5
v -3.498 1.398 -3.802
v 1 0.198 5.882
v 1 3.48 3.502
v 1 0.198 3.502
v 1 0.198 3.97
v 1 0.198 1.616
v 1 0.198 1.03
v 1 3.494 -3.502
v 1 3.498 -3.502
v 1 3.494 -3.802
v 1 1.754 -3.502
v 1 1.744 -3.502
v 1 1.748 -3.502
v 1 0.198 -3.5
v 1 0.128 -3.5
v 1 0.07 -3.5
v 1 1.738 -3.502
v 1 0.004 -3.502
v 1 0.002 -3.502
v 1 0 -3.502
v 1 2.004 -3.802
v 1 2.004 -3.802
v 1 2.004 -4.002
v 1 3.496 3.5
v 1.5 0.198 -3.5
v 1.5 3.494 -3.5
v 1.5 3.494 -3.802
v 1.5 1.398 -3.802
v 1.5 0.596 -3.916
v 1.3 1.582 5.092
v 1.3 1.91 4.904
v 1.3 1.91 2.594
v 1.3 1.582 2.406
v 3.496 0.198 -3.5
v 3.496 0.198 -3.5
v 3.496 -0.002 -3.5
v 1.496 0.198 -3.5
v 3.382 0.198 -3.5
v 1.47 0.198 -3.5
v -1.498 0.142 -3.5
v -1.498 0.198 -3.5
v -1.498 0.056 -3.5
v -3.998 0 -3.5
v -3.998 0 -3.5
v -3.998 0.6 -3.5
v -3.912 0.6 -3.5
v -3.384 0.198 -3.5
v -1.498 2.624 -3.802
v -1.498 3.032 -3.802
v -1.498 3.498 -3.502
v -1.498 1.748 -3.802
v -1.498 2.098 -3.802
v -1.498 0 -4.002
v -1.498 0.596 -3.916
v -1.498 0.698 -3.802
v -1.498 0.874 -3.802
v -1.498 1.4 -3.802
v -3.998 0.596 -3.504
v -3.998 0.004 -3.504
v 1.002 2 -4.002
v 1 2.002 -4.002
v 1.002 0.332 -4.002
v 1.002 0.998 -4.002
v 1.002 1.666 -4.002
v 1.002 1.498 -4.002
v -2.594 1.582 -3.802
v 2.592 1.582 -3.802
v 2.404 1.91 -3.802
v -2.406 1.91 -3.802
v 3.5 0.198 -1.004
v 3.5 1.15 1.334
v 3.5 0.198 0.996
v 3.5 0.198 0.996
v 3.5 0.198 0.882
v 3.5 0.198 -1.03
v 3.5 0.198 -1
v 3.5 0.198 -1.502
v 3.5 3.494 -1
v 3.5 3.494 -1.502
v 3.5 0.198 -1.498
v 3.5 3.48 -1.498
v 3.5 0.198 -3.498
v 3.5 0.198 -3.384
v 3.5 3.496 -1.5
v 4 0.6 -1.502
v 4 0.6 -1.502
v 4 0 -1.502
v 3.188 2.242 1.3
v 1.502 3 1.3
v 1.808 2.502 1.3
v 2.666 1.02 1.3
v 3.8 3.494 -1
v 3.8 1.398 -1
v 3.914 0.596 -1
v 3.8 3.494 -1.502
v 3.8 1.398 -1.502
v 3.998 0.6 -1.502
v 3.914 0.6 -1.502
v 3.8 0.6 -1.502
v 3.8 0 -1.502
v 3.998 0 -1.502
v 3.998 0 -1.502
v 3.8 1.582 0.092
v 3.8 1.91 -0.096
v 3.8 1.91 -2.406
v 3.8 1.398 -3.498
v 3.8 1.582 -2.594
v 0.478 4.998 -4.4
v 0.476 4.998 -4.4
v -0.49 4.998 -4.4
v -0.49 4.998 -4.4
v -1 1.998 -3.886
v -0.352 3.124 -4.122
v 0.34 3.124 -4.122

#	    Point/Line/Face list

f 751 800 755
f 544 797 796
f 571 583 572
f 554 565 598
f 591 588 589
f 786 784 787
f 583 571 573
f 564 790 574
f 591 790 564
f 589 790 591
f 571 790 589
f 572 790 571
f 588 591 590
f 567 784 554
f 563 574 565
f 577 581 569
f 573 554 583
f 588 554 573
f 590 554 588
f 563 554 590
f 565 554 563
f 574 563 564
f 558 782 783
f 569 782 558
f 784 567 810
f 569 581 306
f 785 783 782
f 583 788 572
f 784 788 583
f 558 810 567
f 793 792 791
f 789 793 791
f 806 801 807
f 755 801 806
f 802 799 549
f 544 796 534
f 558 783 810
f 794 795 593
f 782 569 306
f 539 593 795
f 780 549 799
f 305 306 581
f 783 787 784
f 787 783 785
f 315 572 788
f 788 784 786
f 534 796 547
f 789 574 790
f 790 572 315
f 538 798 544
f 118 796 797
f 797 544 798
f 798 538 793
f 803 800 802
f 807 809 808
f 801 755 804
f 804 755 800
f 803 796 805
f 803 547 796
f 805 796 118
f 809 807 801
f 120 808 809
f 799 802 800
f 795 794 791
f 795 791 792
f 583 554 784
f 784 810 783
f 767 768 766
f 811 766 768
f 813 811 768
f 777 813 768
f 198 666 202
f 701 687 715
f 710 820 775
f 775 766 710
f 764 766 775
f 766 764 767
f 597 599 598
f 700 818 727
f 733 727 817
f 820 710 731
f 829 9 44
f 548 823 547
f 534 547 823
f 751 749 750
f 827 40 829
f 9 829 40
f 601 757 744
f 781 681 738
f 806 681 781
f 678 681 806
f 605 600 610
f 741 751 755
f 749 751 741
f 437 577 569
f 575 577 437
f 544 534 815
f 837 738 687
f 709 722 714
f 817 727 818
f 56 41 826
f 825 41 56
f 42 41 825
f 816 733 698
f 197 684 198
f 202 676 189
f 40 27 9
f 26 27 40
f 715 738 681
f 715 687 738
f 681 678 684
f 669 202 666
f 216 676 173
f 189 676 215
f 14 832 831
f 215 676 216
f 757 605 746
f 757 601 605
f 830 835 676
f 675 676 669
f 558 567 821
f 173 835 834
f 173 676 835
f 202 669 676
f 21 833 66
f 666 198 684
f 27 26 28
f 684 678 666
f 600 605 601
f 599 556 554
f 555 556 599
f 554 598 599
f 815 534 545
f 577 575 576
f 819 714 728
f 217 674 833
f 722 733 816
f 567 554 434
f 820 714 819
f 434 821 567
f 538 544 536
f 685 666 678
f 815 536 544
f 468 481 491
f 60 41 13
f 826 41 60
f 481 470 482
f 481 468 470
f 489 486 422
f 470 469 471
f 486 489 488
f 533 545 823
f 545 536 815
f 533 536 545
f 422 423 421
f 828 56 47
f 825 56 828
f 469 470 468
f 423 486 424
f 423 422 486
f 676 675 830
f 830 217 835
f 674 217 830
f 18 833 674
f 66 833 18
f 63 832 21
f 55 825 57
f 217 19 834
f 833 19 217
f 826 47 56
f 827 13 41
f 14 833 832
f 19 14 22
f 19 833 14
f 755 837 741
f 831 22 14
f 44 8 829
f 821 434 556
f 60 47 826
f 738 837 781
f 8 60 13
f 722 728 714
f 816 728 722
f 817 698 733
f 831 832 17
f 698 728 816
f 818 728 698
f 729 728 818
f 834 835 217
f 818 698 817
f 714 820 709
f 731 709 820
f 821 569 558
f 806 781 837
f 823 545 534
f 13 829 8
f 47 57 828
f 828 57 825
f 829 13 827
f 63 17 832
f 830 18 674
f 21 832 833
f 819 775 820
f 837 755 806
f 569 821 437
f 554 556 434
f 551 548 547
f 802 549 551
f 803 802 551
f 547 803 551
f 780 763 754
f 881 16 882
f 740 756 780
f 754 740 780
f 697 839 849
f 840 697 849
f 843 840 849
f 730 843 849
f 899 894 779
f 661 882 105
f 777 768 765
f 711 776 852
f 592 320 857
f 553 592 857
f 776 711 777
f 765 776 777
f 748 745 613
f 748 613 134
f 882 661 881
f 842 734 697
f 612 134 613
f 135 302 133
f 699 724 840
f 134 747 748
f 852 309 711
f 20 881 889
f 734 842 724
f 777 711 319
f 303 777 319
f 405 305 319
f 408 405 319
f 428 408 319
f 718 428 319
f 721 718 319
f 475 721 319
f 308 475 319
f 466 467 475
f 726 466 475
f 842 840 724
f 871 62 865
f 475 308 726
f 454 719 718
f 455 454 718
f 718 721 455
f 570 436 855
f 660 657 659
f 435 860 320
f 568 435 320
f 683 680 662
f 901 682 680
f 679 901 680
f 868 869 871
f 865 868 871
f 898 897 689
f 303 135 133
f 612 303 133
f 134 612 133
f 112 662 657
f 20 659 149
f 880 20 149
f 10 38 874
f 145 659 196
f 147 149 659
f 889 661 887
f 874 46 10
f 196 657 662
f 689 679 898
f 739 779 894
f 814 546 302
f 145 147 659
f 657 660 656
f 660 889 887
f 660 887 656
f 657 196 659
f 657 656 112
f 107 112 656
f 879 887 661
f 105 879 661
f 613 614 612
f 892 201 196
f 682 892 196
f 662 682 196
f 502 593 592
f 320 592 593
f 723 839 734
f 845 852 776
f 581 582 580
f 852 845 846
f 852 846 712
f 436 570 305
f 580 436 305
f 580 305 581
f 454 455 451
f 308 492 494
f 845 732 846
f 860 857 320
f 549 780 133
f 302 549 133
f 551 549 863
f 319 309 713
f 319 713 723
f 319 723 734
f 319 734 724
f 319 724 308
f 494 493 726
f 494 726 308
f 863 302 546
f 712 844 723
f 713 712 723
f 480 479 467
f 451 456 454
f 429 427 406
f 429 406 408
f 467 466 480
f 406 404 405
f 133 756 314
f 539 537 550
f 408 428 429
f 405 408 406
f 895 894 686
f 866 874 38
f 302 863 549
f 854 853 557
f 559 568 319
f 570 559 319
f 305 570 319
f 135 303 319
f 302 135 319
f 682 662 680
f 739 898 679
f 779 739 679
f 314 779 679
f 680 314 679
f 320 319 568
f 319 320 593
f 319 593 539
f 319 539 550
f 319 550 302
f 16 884 882
f 880 23 886
f 880 886 881
f 67 882 884
f 883 15 884
f 61 871 869
f 867 61 869
f 870 867 869
f 43 870 869
f 11 865 62
f 12 11 62
f 62 133 12
f 873 48 61
f 39 32 33
f 877 876 45
f 58 59 867
f 656 879 107
f 24 105 882
f 65 24 882
f 64 136 133
f 67 64 133
f 65 67 133
f 24 65 133
f 313 24 133
f 873 867 59
f 46 874 12
f 38 10 136
f 38 136 39
f 33 38 39
f 879 656 887
f 64 67 884
f 559 855 568
f 866 45 875
f 688 689 897
f 839 697 734
f 840 842 697
f 756 740 899
f 20 880 881
f 848 849 839
f 844 848 839
f 712 713 852
f 309 319 711
f 309 852 713
f 855 559 570
f 855 557 853
f 535 863 546
f 546 814 537
f 535 546 537
f 814 550 537
f 550 814 302
f 867 873 61
f 48 873 59
f 855 853 568
f 62 871 48
f 871 61 48
f 11 12 874
f 874 866 875
f 874 875 11
f 659 889 660
f 435 568 853
f 46 12 133
f 10 46 133
f 136 10 133
f 879 105 24
f 64 884 15
f 67 65 882
f 16 881 886
f 883 16 886
f 16 883 884
f 661 889 881
f 839 723 844
f 314 899 779
f 899 686 894
f 899 314 756
f 683 313 133
f 680 683 133
f 314 680 133
f 847 846 732
f 876 875 45
f 850 847 732
f 756 133 780
f 133 62 48
f 133 48 59
f 133 59 134
f 659 20 889
f 744 747 134
f 646 616 615
f 601 603 625
f 601 625 615
f 601 615 616
f 601 616 619
f 601 619 602
f 615 647 646
f 626 625 603
f 602 600 601
f 904 620 646
f 904 646 647
f 904 647 626
f 904 626 606
f 603 606 626
f 607 602 619
f 603 601 744
f 606 603 744
f 310 606 744
f 134 310 744
f 902 906 612
f 619 620 607
f 863 535 542
f 909 552 908
f 905 907 902
f 561 533 908
f 903 304 905
f 540 542 535
f 903 607 904
f 606 310 904
f 620 904 607
f 303 612 906
f 907 905 304
f 909 908 533
f 910 909 533
f 823 910 533
f 906 902 907
f 555 532 556
f 556 512 499
f 556 499 504
f 556 504 553
f 753 737 742
f 737 753 735
f 750 749 763
f 576 575 582
f 553 857 438
f 553 438 911
f 553 911 556
f 535 561 543
f 540 535 543
f 535 537 536
f 560 543 561
f 735 753 763
f 749 735 763
f 441 579 582
f 575 441 582
f 580 582 579
f 754 763 753
f 854 557 913
f 512 511 513
f 857 854 913
f 857 913 438
f 854 857 439
f 513 499 512
f 579 911 913
f 504 498 501
f 498 504 499
f 911 438 913
f 536 533 561
f 536 561 535
f 911 579 441
f 759 758 760
f 757 745 748
f 758 759 640
f 537 538 536
f 645 639 641
f 640 641 639
f 795 537 539
f 792 537 795
f 793 537 792
f 538 537 793
f 758 757 746
f 640 757 758
f 639 757 640
f 745 757 639
f 540 543 541
f 863 542 540
f 914 863 540
f 541 914 540
f 894 743 739
f 853 497 435
f 599 597 923
f 931 933 934
f 837 932 736
f 741 837 736
f 510 519 925
f 436 915 918
f 926 514 927
f 502 592 505
f 510 925 506
f 821 919 440
f 437 821 440
f 910 929 909
f 899 740 935
f 551 863 914
f 910 562 929
f 551 914 541
f 551 541 562
f 562 910 548
f 551 562 548
f 552 909 929
f 931 736 932
f 740 928 930
f 508 526 922
f 509 598 924
f 509 923 597
f 597 598 509
f 920 921 916
f 527 515 922
f 500 927 514
f 920 440 919
f 918 917 436
f 508 922 515
f 518 506 925
f 923 507 599
f 823 548 910
f 503 926 927
f 855 436 917
f 578 918 915
f 930 935 740
f 752 930 928
f 933 931 932
f 921 920 919
f 543 560 562
f 562 541 543
f 561 562 560
f 929 908 552
f 929 561 908
f 562 561 929
f 553 948 592
f 553 504 948
f 512 556 516
f 512 516 515
f 508 515 516
f 940 941 819
f 937 940 819
f 728 937 819
f 936 819 941
f 939 936 941
f 942 732 943
f 845 945 943
f 845 943 732
f 944 939 941
f 516 556 532
f 507 532 555
f 599 507 555
f 505 592 948
f 690 952 951
f 692 840 843
f 692 843 691
f 730 691 843
f 917 913 855
f 557 855 913
f 950 952 818
f 951 952 950
f 921 957 916
f 957 556 911
f 921 556 957
f 919 556 921
f 821 556 919
f 693 818 952
f 729 818 693
f 962 648 959
f 648 961 960
f 648 623 961
f 962 623 648
f 609 637 963
f 637 760 638
f 609 760 637
f 654 649 608
f 519 510 975
f 623 958 622
f 758 608 649
f 511 517 510
f 511 521 517
f 521 512 974
f 511 512 521
f 393 430 387
f 969 430 393
f 415 968 389
f 525 522 594
f 571 589 972
f 609 963 631
f 647 627 626
f 586 972 589
f 971 972 586
f 515 527 512
f 965 485 418
f 430 414 387
f 972 971 525
f 970 973 585
f 415 388 968
f 388 431 390
f 415 431 388
f 496 964 417
f 650 758 649
f 958 758 650
f 591 564 970
f 419 418 485
f 385 387 414
f 430 390 431
f 430 969 390
f 397 969 383
f 131 132 327
f 280 327 132
f 758 638 760
f 758 958 638
f 287 281 117
f 650 622 958
f 961 626 627
f 959 646 962
f 620 962 646
f 622 961 623
f 383 965 397
f 967 417 964
f 966 965 418
f 393 383 969
f 522 585 973
f 522 971 585
f 522 525 971
f 973 970 564
f 974 594 522
f 529 512 527
f 594 512 529
f 974 512 594
f 964 416 967
f 416 965 966
f 416 397 965
f 964 397 416
f 960 961 627
f 975 510 517
f 764 775 772
f 771 770 765
f 514 510 574
f 500 514 574
f 502 500 574
f 794 593 502
f 791 794 502
f 789 791 502
f 574 789 502
f 598 565 506
f 506 924 598
f 565 574 510
f 510 506 565
f 513 511 510
f 976 765 770
f 510 514 513
f 501 498 500
f 500 502 501
f 776 765 976
f 769 772 775
f 640 759 762
f 503 499 926
f 514 926 499
f 513 514 499
f 433 432 425
f 978 761 640
f 762 978 640
f 979 426 433
f 425 979 433
f 503 927 499
f 500 499 927
f 498 499 500
f 501 502 504
f 948 504 502
f 505 948 502
f 628 643 629
f 531 532 509
f 402 445 403
f 458 460 461
f 980 628 642
f 643 628 980
f 981 458 457
f 460 458 981
f 982 402 444
f 445 402 982
f 509 532 923
f 507 923 532
f 924 506 530
f 509 924 530
f 530 531 509
f 988 985 618
f 618 986 987
f 618 987 624
f 988 618 624
f 986 617 987
f 653 604 651
f 463 991 453
f 453 450 464
f 463 453 464
f 573 1001 588
f 508 516 526
f 463 452 991
f 611 989 636
f 636 635 630
f 611 636 630
f 634 651 604
f 590 999 563
f 396 386 997
f 624 621 984
f 449 476 992
f 615 625 617
f 1001 528 1000
f 528 595 523
f 990 983 449
f 993 995 413
f 413 996 994
f 413 994 396
f 993 413 396
f 530 506 520
f 530 520 524
f 524 1003 516
f 530 524 516
f 584 588 1001
f 1000 584 1001
f 1003 523 595
f 596 526 516
f 595 596 516
f 1003 595 516
f 386 396 994
f 652 651 634
f 984 652 634
f 1004 520 506
f 518 1004 506
f 410 483 412
f 634 630 635
f 634 635 984
f 459 477 462
f 465 462 477
f 401 395 420
f 720 725 990
f 400 998 392
f 392 391 399
f 400 392 399
f 495 411 993
f 400 398 998
f 994 412 483
f 384 420 395
f 401 399 391
f 401 391 997
f 459 464 450
f 459 450 992
f 652 984 621
f 987 617 625
f 611 632 989
f 985 988 616
f 619 616 988
f 621 624 987
f 476 449 983
f 983 990 725
f 478 992 476
f 995 993 411
f 996 412 994
f 394 997 386
f 999 587 1002
f 523 1002 587
f 523 587 1000
f 523 1000 528
f 1002 563 999
f 478 477 459
f 992 478 459
f 394 395 401
f 997 394 401
f 530 516 532
f 532 531 530
f 522 1002 523
f 522 563 1002
f 521 1003 524
f 521 523 1003
f 523 974 522
f 523 521 974
f 563 973 564
f 563 522 973
f 517 520 1004
f 517 1004 518
f 925 519 975
f 925 975 517
f 518 925 517
f 594 529 596
f 596 595 594
f 524 520 517
f 517 521 524
f 529 526 596
f 922 529 527
f 526 529 922
f 594 595 528
f 528 525 594
f 525 528 1001
f 525 1001 573
f 573 571 972
f 573 972 525
f 585 587 999
f 585 999 590
f 590 591 970
f 590 970 585
f 1000 587 585
f 584 1000 585
f 971 586 584
f 585 971 584
f 586 588 584
f 588 586 589
f 435 497 860
f 439 857 860
f 439 860 497
f 700 727 699
f 437 440 575
f 915 436 580
f 441 575 440
f 1006 699 727
f 1008 699 1006
f 724 699 1008
f 580 579 915
f 578 915 579
f 577 582 581
f 582 577 576
f 853 854 497
f 578 579 913
f 918 913 917
f 578 913 918
f 439 497 854
f 440 911 441
f 920 916 957
f 920 957 911
f 440 920 911
f 468 474 725
f 468 725 720
f 468 720 472
f 1014 472 1015
f 472 469 468
f 1010 1016 1009
f 409 490 495
f 495 496 409
f 720 1016 1015
f 491 492 308
f 1012 1009 1016
f 422 484 483
f 422 483 410
f 422 410 411
f 422 411 495
f 422 495 490
f 305 405 306
f 417 411 410
f 1009 1012 475
f 490 489 422
f 484 407 485
f 485 483 484
f 474 307 1011
f 1017 1013 1018
f 410 419 417
f 1021 409 1023
f 484 422 1020
f 407 484 1020
f 1019 407 1020
f 421 1018 1020
f 407 1019 1023
f 1014 1018 1013
f 474 468 491
f 307 474 491
f 308 307 491
f 474 1011 725
f 1010 725 1011
f 1013 1017 718
f 721 475 1012
f 720 1015 472
f 421 1020 422
f 496 1023 409
f 1021 306 405
f 428 718 1017
f 1023 496 417
f 1023 417 419
f 1023 419 485
f 1023 485 407
f 401 420 430
f 402 401 430
f 424 486 402
f 424 402 430
f 442 1024 427
f 444 402 486
f 406 427 446
f 414 430 420
f 1024 446 427
f 493 481 482
f 430 432 433
f 481 493 494
f 430 423 424
f 433 423 430
f 442 423 433
f 427 423 442
f 432 430 431
f 447 442 443
f 423 427 429
f 433 443 442
f 423 429 421
f 428 1017 429
f 1018 429 1017
f 421 429 1018
f 719 1028 463
f 486 982 444
f 1027 460 469
f 1028 719 454
f 979 425 1031
f 415 1032 400
f 488 489 445
f 982 488 445
f 486 488 982
f 1032 415 389
f 1030 445 489
f 452 463 1028
f 1025 1026 726
f 462 1026 1025
f 1031 426 979
f 446 404 406
f 398 400 1032
f 448 1031 425
f 1026 462 465
f 466 726 1026
f 470 981 457
f 1029 420 384
f 385 414 1029
f 471 469 460
f 981 471 460
f 470 471 981
f 420 1029 414
f 706 715 705
f 689 707 1034
f 490 400 489
f 415 409 425
f 409 1021 404
f 409 415 490
f 431 415 432
f 400 490 415
f 400 1030 489
f 443 448 447
f 404 447 448
f 689 1034 679
f 405 404 1021
f 425 432 415
f 448 425 409
f 404 448 409
f 716 1034 707
f 681 705 715
f 433 448 443
f 1031 433 426
f 448 433 1031
f 442 447 404
f 404 446 1024
f 404 1024 442
f 400 399 1030
f 403 445 399
f 445 1030 399
f 464 458 461
f 458 464 459
f 399 402 403
f 402 399 401
f 993 397 495
f 396 397 993
f 997 390 396
f 391 390 997
f 964 495 397
f 496 495 964
f 969 396 390
f 397 396 969
f 398 1032 388
f 998 398 388
f 392 998 388
f 968 388 1032
f 389 968 1032
f 479 477 478
f 477 479 480
f 456 450 453
f 450 456 451
f 393 395 394
f 395 393 387
f 388 391 392
f 391 388 390
f 385 1029 387
f 395 387 384
f 384 387 1029
f 383 393 386
f 994 483 383
f 386 994 383
f 394 386 393
f 965 383 483
f 485 965 483
f 995 411 416
f 413 995 416
f 967 416 411
f 417 967 411
f 412 966 418
f 412 416 966
f 416 996 413
f 416 412 996
f 419 410 418
f 412 418 410
f 18 830 1042
f 710 766 1040
f 1005 953 949
f 1005 949 722
f 724 1008 308
f 709 1057 1036
f 1039 317 947
f 1035 1006 949
f 953 1035 949
f 709 731 1057
f 303 906 813
f 1038 1005 1036
f 726 493 1025
f 457 458 470
f 977 1039 947
f 977 947 710
f 1037 1038 1036
f 947 1057 731
f 462 1025 493
f 459 462 493
f 458 459 493
f 482 470 458
f 482 458 493
f 1006 308 1008
f 307 308 1006
f 709 1036 1005
f 722 709 1005
f 733 722 949
f 317 1037 1036
f 317 1036 947
f 731 710 947
f 1057 947 1036
f 1040 977 710
f 811 1040 766
f 907 813 906
f 811 813 907
f 834 19 1043
f 879 24 1053
f 1045 1050 1047
f 1046 1045 1047
f 1044 1046 1047
f 1041 1044 1047
f 1042 1041 1047
f 18 1042 1047
f 1052 1053 24
f 1051 1052 24
f 1049 1051 24
f 1043 1056 1054
f 733 949 1006
f 727 733 1006
f 303 813 777
f 907 304 811
f 1051 1049 1048
f 1051 1048 1047
f 1051 1047 1050
f 1056 1043 19
f 492 491 494
f 3 7 886
f 764 768 767
f 696 730 693
f 696 691 730
f 768 771 765
f 768 772 771
f 768 764 772
f 730 728 693
f 772 937 771
f 849 778 730
f 481 494 491
f 729 693 728
f 693 695 696
f 883 886 7
f 886 23 3
f 732 942 850
f 849 773 850
f 937 730 778
f 728 730 937
f 778 849 942
f 850 942 849
f 942 771 937
f 831 1060 22
f 1062 1061 1
f 2 1061 1062
f 2 1060 1061
f 2 22 1060
f 942 937 778
f 463 464 1027
f 461 460 464
f 460 1027 464
f 990 455 720
f 449 455 990
f 455 449 451
f 992 451 449
f 450 451 992
f 721 1012 455
f 1016 455 1012
f 720 455 1016
f 454 456 1028
f 991 452 456
f 453 991 456
f 452 1028 456
f 466 1026 480
f 477 480 465
f 465 480 1026
f 467 479 476
f 983 725 467
f 476 983 467
f 478 476 479
f 475 467 1009
f 1010 1009 467
f 725 1010 467
f 718 719 1013
f 472 463 469
f 463 472 719
f 463 1027 469
f 1014 1013 719
f 472 1014 719
f 1063 691 717
f 840 691 1063
f 692 691 840
f 696 717 691
f 1064 950 694
f 936 1065 769
f 776 945 845
f 776 1066 945
f 819 936 775
f 944 1065 939
f 712 846 774
f 840 1063 699
f 1064 690 951
f 717 699 1063
f 694 699 717
f 818 694 950
f 700 694 818
f 700 699 694
f 936 939 1065
f 769 775 936
f 1066 776 976
f 951 950 1064
f 976 770 1066
f 695 694 696
f 717 696 694
f 695 693 694
f 1064 694 952
f 690 1064 952
f 693 952 694
f 312 129 1048
f 313 312 24
f 685 1080 1074
f 120 1033 808
f 1078 1079 687
f 318 136 1067
f 678 808 1033
f 312 313 1075
f 1067 21 1071
f 63 21 1067
f 1047 1048 129
f 1059 1071 21
f 1070 1058 66
f 21 66 1059
f 1070 18 1072
f 66 18 1070
f 1049 24 312
f 64 1067 136
f 1058 1071 1059
f 1047 1072 18
f 933 687 1079
f 932 687 933
f 837 687 932
f 1073 1074 312
f 1075 1073 312
f 683 1075 313
f 807 678 806
f 808 678 807
f 686 899 1076
f 933 1079 934
f 935 1076 899
f 1033 1080 678
f 129 312 1074
f 685 678 1080
f 1059 66 1058
f 1048 1049 312
f 665 1090 200
f 682 708 892
f 702 194 1086
f 702 1087 665
f 702 665 200
f 200 194 702
f 704 892 708
f 892 704 201
f 685 1083 666
f 200 1084 1085
f 200 1085 664
f 200 664 197
f 684 197 1082
f 1083 1074 663
f 685 1074 1083
f 662 1075 683
f 662 1073 1075
f 662 1074 1073
f 662 663 1074
f 665 1089 1090
f 1081 664 1085
f 1087 703 1088
f 1087 1088 665
f 1089 665 1088
f 1084 200 1090
f 664 1081 1082
f 664 1082 197
f 687 701 688
f 895 686 1076
f 688 897 1092
f 688 1092 1091
f 688 1091 1078
f 688 1078 687
f 688 701 715
f 201 704 707
f 1086 201 707
f 702 1086 707
f 707 689 688
f 706 707 688
f 715 706 688
f 707 706 702
f 2 23 19
f 22 2 19
f 1094 1056 1093
f 23 1093 19
f 23 2 6
f 3 23 6
f 19 1093 1056
f 5 6 2
f 1097 1093 23
f 1098 1097 23
f 1096 1098 23
f 1095 1096 23
f 880 1095 23
f 704 708 901
f 704 901 1099
f 704 1099 716
f 716 707 704
f 367 378 372
f 374 372 378
f 682 901 708
f 705 681 1102
f 336 351 335
f 339 363 344
f 366 344 363
f 679 1099 901
f 144 143 173
f 1034 716 1099
f 679 1034 1099
f 354 94 356
f 96 356 94
f 4 1101 831
f 17 15 4
f 17 4 831
f 157 193 204
f 350 335 351
f 152 212 160
f 189 215 171
f 203 159 177
f 1043 144 173
f 834 1043 173
f 175 173 158
f 143 158 173
f 205 204 193
f 151 177 159
f 1145 152 154
f 170 171 173
f 183 164 180
f 175 157 204
f 188 177 202
f 159 203 205
f 186 179 184
f 173 171 216
f 216 171 215
f 1060 831 1101
f 157 175 158
f 214 160 212
f 213 160 214
f 202 160 213
f 177 151 202
f 151 160 202
f 189 188 202
f 204 205 203
f 77 76 70
f 166 184 179
f 1043 1054 144
f 162 180 164
f 71 70 76
f 1061 1060 1101
f 1 1061 1101
f 25 4 15
f 1100 25 15
f 883 1100 15
f 1088 703 1102
f 1089 1088 1102
f 1090 1089 1102
f 1084 1090 1102
f 1085 1084 1102
f 1081 1085 1102
f 1082 1081 1102
f 684 1082 1102
f 684 1102 681
f 705 702 706
f 1087 1102 703
f 702 1102 1087
f 702 705 1102
f 849 848 773
f 774 844 712
f 774 848 844
f 774 773 848
f 774 846 847
f 774 847 773
f 942 943 770
f 771 942 770
f 850 773 847
f 1066 770 943
f 945 1066 943
f 937 769 940
f 772 769 937
f 940 769 941
f 1065 941 769
f 944 941 1065
f 1092 897 742
f 1091 1092 737
f 742 737 1092
f 742 897 898
f 742 898 743
f 739 743 898
f 752 928 753
f 735 749 736
f 928 740 754
f 741 736 749
f 754 753 928
f 763 751 750
f 799 763 780
f 800 763 799
f 751 763 800
f 742 752 753
f 742 743 895
f 894 895 743
f 1076 742 895
f 930 1076 935
f 930 742 1076
f 752 742 930
f 1078 1091 737
f 931 934 1079
f 931 1079 1078
f 931 1078 737
f 736 931 737
f 737 735 736
f 608 758 604
f 634 604 758
f 628 634 758
f 746 605 628
f 746 628 758
f 1107 1105 1111
f 642 628 605
f 9 27 39
f 59 1105 134
f 1116 1110 1112
f 310 134 1105
f 47 60 1111
f 47 1111 1105
f 57 47 1105
f 613 745 644
f 39 136 318
f 318 1115 9
f 39 318 9
f 1113 1108 1114
f 1104 644 745
f 8 44 1117
f 639 1104 745
f 8 1114 1103
f 60 8 1103
f 1103 1109 1111
f 1103 1111 60
f 1109 1107 1111
f 1108 1103 1114
f 8 1117 1114
f 44 9 1112
f 1112 1117 44
f 1117 1112 1114
f 1110 1113 1114
f 1110 1114 1112
f 1115 1116 1112
f 1115 1112 9
f 747 744 748
f 757 748 744
f 32 35 33
f 32 36 35
f 32 26 36
f 36 1118 35
f 49 43 68
f 49 51 43
f 45 1120 877
f 869 30 877
f 68 69 49
f 42 68 41
f 43 41 68
f 26 32 28
f 1118 43 37
f 41 43 1118
f 869 37 43
f 877 1120 869
f 37 869 1120
f 1120 35 1118
f 1120 1118 37
f 604 1121 608
f 610 600 643
f 980 610 643
f 605 610 980
f 609 1123 611
f 978 762 1124
f 644 614 613
f 1123 609 631
f 1124 761 978
f 632 611 1123
f 605 980 642
f 677 1124 762
f 654 608 1121
f 1121 604 653
f 1122 643 600
f 612 614 902
f 905 902 614
f 903 905 614
f 607 903 614
f 762 759 609
f 602 611 600
f 614 645 677
f 677 762 607
f 614 677 607
f 760 609 759
f 609 607 762
f 641 677 645
f 611 602 609
f 607 609 602
f 611 1122 600
f 640 677 641
f 1124 640 761
f 677 640 1124
f 639 645 614
f 614 644 1104
f 614 1104 639
f 611 630 1122
f 629 643 630
f 643 1122 630
f 628 630 634
f 630 628 629
f 984 638 624
f 635 638 984
f 988 623 619
f 624 623 988
f 958 624 638
f 623 624 958
f 962 619 623
f 620 619 962
f 963 637 1123
f 631 963 1123
f 989 632 637
f 636 989 637
f 632 1123 637
f 637 635 636
f 635 637 638
f 650 651 652
f 651 650 649
f 651 649 653
f 654 1121 649
f 653 649 1121
f 987 625 622
f 621 987 622
f 622 650 621
f 652 621 650
f 961 622 625
f 626 961 625
f 985 616 648
f 618 985 648
f 959 648 616
f 646 959 616
f 648 986 618
f 648 617 986
f 617 960 627
f 617 648 960
f 647 615 627
f 617 627 615
f 662 112 671
f 663 672 667
f 672 111 668
f 108 1052 109
f 669 122 675
f 668 666 667
f 671 670 672
f 669 668 111
f 109 1050 125
f 106 1053 108
f 669 666 668
f 1053 106 879
f 111 672 670
f 1041 122 1044
f 668 667 672
f 122 669 115
f 112 107 114
f 117 126 122
f 1041 675 122
f 1042 675 1041
f 830 675 1042
f 672 663 671
f 111 670 112
f 662 671 663
f 111 115 669
f 121 111 110
f 671 112 670
f 1052 108 1053
f 1046 122 126
f 1044 122 1046
f 125 1045 126
f 115 111 116
f 106 114 107
f 122 115 117
f 1051 109 1052
f 1050 109 1051
f 112 110 111
f 112 114 113
f 116 111 121
f 116 117 115
f 110 112 113
f 1046 126 1045
f 107 879 106
f 1045 125 1050
f 1083 667 666
f 663 667 1083
f 673 142 1097
f 673 149 187
f 673 1097 1098
f 149 1095 880
f 149 673 1095
f 187 142 673
f 673 1098 1096
f 1093 1097 142
f 1096 1095 673
f 148 655 137
f 214 212 658
f 658 213 214
f 155 198 658
f 155 137 207
f 655 148 145
f 658 198 213
f 202 213 198
f 155 658 153
f 145 210 655
f 209 655 210
f 145 196 210
f 153 658 212
f 152 1145 212
f 655 207 137
f 655 209 211
f 655 211 207
f 201 194 196
f 198 155 199
f 155 207 199
f 210 196 195
f 207 211 195
f 201 1086 194
f 199 206 208
f 200 208 206
f 207 195 206
f 211 209 195
f 209 210 195
f 206 199 207
f 194 206 195
f 200 197 208
f 206 194 200
f 194 195 196
f 199 208 197
f 198 199 197
f 193 150 205
f 151 159 150
f 205 150 159
f 157 150 193
f 158 143 156
f 156 157 158
f 156 150 157
f 150 140 151
f 137 155 152
f 155 153 152
f 153 154 152
f 152 140 137
f 151 140 160
f 160 140 152
f 141 156 143
f 142 1094 1093
f 142 1056 1094
f 142 141 1056
f 141 1054 1056
f 141 143 144
f 1054 141 144
f 137 138 139
f 140 138 137
f 138 141 139
f 141 142 139
f 140 141 138
f 187 149 146
f 146 139 142
f 147 146 149
f 145 148 146
f 142 187 146
f 139 146 137
f 146 147 145
f 148 137 146
f 188 190 177
f 190 171 191
f 185 184 192
f 171 190 189
f 180 182 183
f 189 190 188
f 184 185 186
f 182 180 181
f 169 191 171
f 169 170 168
f 170 169 171
f 172 168 170
f 374 381 380
f 381 374 378
f 354 355 353
f 355 354 356
f 350 349 352
f 349 350 351
f 339 343 338
f 343 339 344
f 170 174 172
f 174 170 173
f 174 173 175
f 166 167 165
f 167 166 179
f 162 163 161
f 163 162 164
f 77 74 83
f 74 77 70
f 174 175 176
f 204 203 176
f 175 204 176
f 203 177 176
f 178 176 177
f 177 190 178
f 191 247 246
f 246 190 191
f 237 185 192
f 192 234 237
f 181 222 218
f 218 182 181
f 169 247 191
f 247 169 219
f 168 242 225
f 242 168 172
f 380 379 382
f 379 380 381
f 352 347 346
f 347 352 349
f 353 362 357
f 362 353 355
f 338 341 337
f 341 338 343
f 165 241 240
f 241 165 167
f 161 224 229
f 172 243 242
f 243 172 174
f 224 161 163
f 83 75 81
f 75 83 74
f 174 244 243
f 244 174 176
f 246 245 190
f 178 190 245
f 221 226 222
f 237 234 238
f 246 247 249
f 233 238 234
f 218 222 226
f 248 249 247
f 219 248 247
f 248 219 251
f 225 251 219
f 251 225 242
f 229 224 227
f 242 243 250
f 250 251 242
f 240 241 239
f 227 223 229
f 239 236 240
f 250 243 244
f 250 244 249
f 245 249 244
f 246 249 245
f 373 370 375
f 369 375 370
f 342 340 365
f 364 365 340
f 330 332 345
f 348 345 332
f 249 248 250
f 251 250 248
f 238 233 239
f 236 239 233
f 226 221 227
f 223 227 221
f 100 98 101
f 102 101 98
f 87 91 84
f 79 84 91
f 231 181 180
f 180 162 231
f 230 231 162
f 161 230 162
f 163 164 168
f 164 183 168
f 169 168 183
f 183 182 169
f 222 181 231
f 231 220 222
f 230 229 228
f 229 230 161
f 163 225 224
f 225 163 168
f 182 218 219
f 219 169 182
f 220 221 222
f 228 223 220
f 221 220 223
f 223 228 229
f 227 224 225
f 219 226 225
f 227 225 226
f 218 226 219
f 78 192 184
f 78 166 72
f 166 78 184
f 165 72 166
f 167 179 230
f 231 230 186
f 179 186 230
f 186 185 231
f 78 234 192
f 234 86 232
f 234 78 86
f 73 240 235
f 72 240 73
f 240 72 165
f 167 228 241
f 228 167 230
f 237 220 185
f 231 185 220
f 232 233 234
f 233 232 236
f 235 236 232
f 236 235 240
f 239 241 228
f 220 238 228
f 239 228 238
f 237 238 220
f 55 57 58
f 1105 58 57
f 59 58 1105
f 68 825 1127
f 42 825 68
f 53 867 870
f 53 870 51
f 1125 1127 825
f 1126 1127 1125
f 43 51 870
f 52 1127 1126
f 1130 1131 827
f 1118 1130 827
f 41 1118 827
f 1132 1129 1131
f 1128 827 1131
f 1129 1128 1131
f 866 1133 1134
f 278 1147 176
f 866 1134 45
f 1120 45 1134
f 1136 51 50
f 867 51 1136
f 53 51 867
f 49 50 51
f 38 1133 866
f 38 1140 1133
f 11 875 31
f 1137 52 1126
f 1137 1125 54
f 50 58 1136
f 54 58 50
f 825 54 1125
f 55 54 825
f 55 58 54
f 867 1136 58
f 1132 1138 1129
f 1128 1138 34
f 827 1128 40
f 1128 1129 1138
f 34 40 1128
f 1140 38 1139
f 1126 1125 1137
f 1139 29 1140
f 69 54 49
f 50 49 54
f 69 68 54
f 1137 54 1127
f 52 1137 1127
f 68 1127 54
f 63 15 17
f 15 1067 64
f 15 63 1067
f 25 3 6
f 3 883 7
f 3 1100 883
f 3 25 1100
f 4 6 5
f 6 4 25
f 4 5 2
f 1062 1 1101
f 2 1062 1101
f 2 1101 4
f 869 868 30
f 31 865 11
f 31 868 865
f 31 30 868
f 26 40 36
f 1139 33 29
f 35 29 33
f 34 36 40
f 38 33 1139
f 28 32 27
f 39 27 32
f 31 875 876
f 31 876 30
f 1147 278 156
f 1120 1134 29
f 35 1120 29
f 877 30 876
f 1140 29 1134
f 1133 1140 1134
f 1118 34 1130
f 36 34 1118
f 1130 34 1131
f 1138 1131 34
f 1132 1131 1138
f 1142 235 86
f 73 235 1141
f 325 1146 178
f 153 1145 154
f 232 86 235
f 1141 235 1142
f 1067 119 318
f 1071 119 1067
f 1058 119 1071
f 1070 119 1058
f 1072 119 1070
f 1047 119 1072
f 129 119 1047
f 311 316 304
f 118 316 311
f 311 119 118
f 1021 316 306
f 1023 316 1021
f 1019 316 1023
f 1020 316 1019
f 1018 316 1020
f 1014 316 1018
f 1015 316 1014
f 1016 316 1015
f 1010 316 1016
f 1011 316 1010
f 307 316 1011
f 316 1037 317
f 316 1038 1037
f 316 1005 1038
f 316 953 1005
f 316 1035 953
f 316 1006 1035
f 316 307 1006
f 304 119 311
f 903 119 304
f 904 119 903
f 310 119 904
f 315 788 316
f 977 316 1039
f 1040 316 977
f 811 316 1040
f 304 316 811
f 786 316 788
f 787 316 786
f 785 316 787
f 782 316 785
f 306 316 782
f 800 119 804
f 803 119 800
f 805 119 803
f 118 119 805
f 119 1103 1108
f 119 1109 1103
f 119 1107 1109
f 119 1105 1107
f 119 310 1105
f 1108 1113 119
f 316 790 315
f 316 789 790
f 316 793 789
f 316 798 793
f 316 797 798
f 316 118 797
f 317 1039 316
f 1110 119 1113
f 1116 119 1110
f 1115 119 1116
f 318 119 1115
f 801 804 119
f 119 809 801
f 119 120 809
f 1074 119 129
f 1080 119 1074
f 1033 119 1080
f 120 119 1033
f 132 131 130
f 128 130 131
f 130 109 125
f 130 125 126
f 130 108 109
f 130 126 132
f 128 131 116
f 128 110 113
f 128 121 110
f 128 116 121
f 371 376 377
f 377 368 371
f 359 360 358
f 358 361 359
f 333 331 329
f 329 334 333
f 127 85 89
f 89 104 127
f 103 95 93
f 93 99 103
f 86 78 85
f 85 127 86
f 127 87 86
f 369 377 376
f 376 375 369
f 364 359 361
f 361 365 364
f 330 329 331
f 331 332 330
f 104 91 87
f 87 127 104
f 100 103 99
f 99 98 100
f 90 91 104
f 88 90 104
f 104 89 88
f 88 89 76
f 368 367 372
f 372 371 368
f 360 366 363
f 363 358 360
f 334 336 335
f 335 333 334
f 95 96 94
f 94 93 95
f 85 71 76
f 76 89 85
f 71 85 78
f 1146 325 140
f 1145 153 212
f 1142 86 87
f 1141 1142 87
f 73 1141 87
f 87 84 73
f 91 90 79
f 80 79 90
f 88 77 82
f 77 88 76
f 78 72 71
f 70 71 72
f 74 73 75
f 73 74 72
f 75 73 84
f 382 370 373
f 370 382 379
f 357 101 102
f 101 357 362
f 346 345 348
f 345 346 347
f 337 340 342
f 340 337 341
f 81 84 79
f 84 81 75
f 79 80 81
f 82 81 80
f 81 82 83
f 83 82 77
f 74 70 72
f 103 90 95
f 88 95 90
f 103 100 90
f 97 98 99
f 99 93 92
f 92 97 99
f 92 93 94
f 96 95 88
f 80 90 100
f 100 101 80
f 98 97 102
f 290 102 97
f 92 354 291
f 354 92 94
f 88 82 96
f 356 96 82
f 80 362 355
f 355 82 80
f 101 362 80
f 102 290 357
f 291 357 290
f 357 291 353
f 353 291 354
f 355 356 82
f 97 92 360
f 360 359 97
f 359 364 97
f 299 365 361
f 361 358 301
f 301 299 361
f 301 358 363
f 366 360 92
f 290 97 364
f 364 340 290
f 365 299 342
f 296 342 299
f 301 339 297
f 339 301 363
f 92 291 366
f 344 366 291
f 343 290 341
f 290 343 291
f 340 341 290
f 342 296 337
f 297 337 296
f 337 297 338
f 338 297 339
f 343 344 291
f 299 301 334
f 334 329 299
f 329 330 299
f 270 332 331
f 331 333 257
f 257 270 331
f 257 333 335
f 336 334 301
f 296 299 330
f 330 345 296
f 332 270 348
f 269 348 270
f 257 350 259
f 350 257 335
f 301 297 336
f 351 336 297
f 349 296 347
f 296 349 297
f 345 347 296
f 348 269 346
f 259 346 269
f 346 259 352
f 352 259 350
f 349 351 297
f 270 257 368
f 368 377 270
f 377 369 270
f 255 375 376
f 376 371 263
f 263 255 376
f 263 371 372
f 367 368 257
f 269 270 369
f 369 370 269
f 375 255 373
f 252 373 255
f 263 374 261
f 374 263 372
f 257 259 367
f 378 367 259
f 381 269 379
f 269 381 259
f 370 379 269
f 373 252 382
f 261 382 252
f 382 261 380
f 380 261 374
f 381 378 259
f 285 1146 140
f 140 150 285
f 279 141 321
f 156 141 279
f 321 140 325
f 285 150 286
f 279 1147 156
f 140 321 141
f 156 286 150
f 286 156 278
f 325 245 323
f 245 325 178
f 1146 285 178
f 245 244 323
f 176 178 288
f 285 288 178
f 244 279 323
f 1147 279 176
f 176 279 244
f 288 278 176
f 128 272 326
f 272 106 283
f 283 130 284
f 128 113 272
f 128 284 130
f 108 130 283
f 114 272 113
f 108 283 106
f 284 128 326
f 106 272 114
f 131 327 116
f 280 132 126
f 281 280 126
f 281 126 117
f 327 287 116
f 116 287 117
f 262 261 254
f 256 263 262
f 261 252 254
f 261 262 263
f 255 263 256
f 254 252 253
f 255 253 252
f 253 255 256
f 264 266 267
f 266 264 265
f 285 124 288
f 124 289 123
f 288 123 282
f 123 288 124
f 277 123 289
f 278 281 287
f 289 275 277
f 277 282 123
f 287 286 278
f 282 278 288
f 283 266 272
f 265 272 266
f 287 285 286
f 258 262 260
f 254 260 262
f 275 273 276
f 274 276 273
f 260 274 258
f 276 277 275
f 273 258 274
f 298 274 260
f 271 260 254
f 260 271 298
f 322 282 277
f 292 276 274
f 274 298 292
f 254 253 271
f 295 277 276
f 276 292 295
f 277 295 322
f 267 266 283
f 282 322 279
f 283 284 267
f 280 281 278
f 279 278 282
f 278 279 280
f 271 300 298
f 294 298 300
f 253 268 271
f 298 294 292
f 293 292 294
f 268 253 256
f 300 271 268
f 328 324 323
f 284 264 267
f 295 328 322
f 325 280 321
f 325 323 324
f 292 293 295
f 323 322 328
f 295 293 328
f 324 328 293
f 279 321 280
f 327 280 325
f 322 323 279
f 264 284 326
f 327 325 287
f 300 268 273
f 285 287 325
f 264 326 265
f 272 265 326
f 124 285 324
f 325 324 285
f 258 273 268
f 268 256 258
f 294 300 275
f 262 258 256
f 289 124 293
f 273 275 300
f 293 294 289
f 324 293 124
f 275 289 294

#	             End of file
