solid Untitled-5b1aeaba
facet normal -0.291785785980051 2.7882886647579e-015 0.956483693065388
  outer loop
    vertex 49.211370121716 1.7517383745583 3.37223196703725
    vertex 51.121956518128 1.93985509590412e-015 3.95507719210661
    vertex 51.121956518128 1.7517383745583 3.9550771921066
  endloop
endfacet
facet normal -0.291785785980051 2.7882886647579e-015 0.956483693065388
  outer loop
    vertex 51.121956518128 1.93985509590412e-015 3.95507719210661
    vertex 49.211370121716 1.7517383745583 3.37223196703725
    vertex 49.211370121716 9.33397876756097e-016 3.37223196703726
  endloop
endfacet
facet normal 0.0294794293562403 3.69845498669324e-015 0.999565387178263
  outer loop
    vertex 12.5944658683886 1.7517383745583 2.39217431932085
    vertex 14.8167870848056 1.56417151145198e-015 2.32663307294859
    vertex 14.8167870848056 1.7517383745583 2.32663307294859
  endloop
endfacet
facet normal 0.0294794293562403 3.69845498669324e-015 0.999565387178263
  outer loop
    vertex 14.8167870848056 1.56417151145198e-015 2.32663307294859
    vertex 12.5944658683886 1.7517383745583 2.39217431932085
    vertex 12.5944658683886 1.78545531487021e-015 2.39217431932086
  endloop
endfacet
facet normal 0.0883358132381856 3.68619550110507e-015 0.996090750935651
  outer loop
    vertex 10.3798697672472 1.7517383745583 2.58857022742931
    vertex 12.5944658683886 1.78545531487021e-015 2.39217431932086
    vertex 12.5944658683886 1.7517383745583 2.39217431932085
  endloop
endfacet
facet normal 0.0883358132381856 3.68619550110507e-015 0.996090750935651
  outer loop
    vertex 12.5944658683886 1.78545531487021e-015 2.39217431932086
    vertex 10.3798697672472 1.7517383745583 2.58857022742931
    vertex 10.3798697672472 2.49308348248761e-015 2.58857022742932
  endloop
endfacet
facet normal -0.146885128846129 3.65814818666781e-015 0.989153556796848
  outer loop
    vertex 19.253704402364 1.7517383745583 2.58857022742931
    vertex 21.452877126591 3.81760899549235e-015 2.91513809622315
    vertex 21.452877126591 1.75173837455831 2.91513809622314
  endloop
endfacet
facet normal -0.146885128846129 3.65814818666781e-015 0.989153556796848
  outer loop
    vertex 21.452877126591 3.81760899549235e-015 2.91513809622315
    vertex 19.253704402364 1.7517383745583 2.58857022742931
    vertex 19.253704402364 2.58292040973153e-015 2.58857022742932
  endloop
endfacet
facet normal -0.228264569779321 2.8159912526942e-015 0.973599140397865
  outer loop
    vertex 47.266595436388 1.7517383745583 2.91627105001889
    vertex 49.211370121716 9.33397876756097e-016 3.37223196703726
    vertex 49.211370121716 1.7517383745583 3.37223196703725
  endloop
endfacet
facet normal -0.228264569779321 2.8159912526942e-015 0.973599140397865
  outer loop
    vertex 49.211370121716 9.33397876756097e-016 3.37223196703726
    vertex 47.266595436388 1.7517383745583 2.91627105001889
    vertex 47.266595436388 2.60583980286567e-016 2.9162710500189
  endloop
endfacet
facet normal -0.354044187308147 3.10477348948631e-015 0.935228695792272
  outer loop
    vertex 51.121956518128 1.7517383745583 3.9550771921066
    vertex 52.9900858303887 3.33032680417146e-015 4.66228423902637
    vertex 52.9900858303887 1.75173837455831 4.66228423902636
  endloop
endfacet
facet normal -0.354044187308147 3.10477348948631e-015 0.935228695792272
  outer loop
    vertex 52.9900858303887 3.33032680417146e-015 4.66228423902637
    vertex 51.121956518128 1.7517383745583 3.9550771921066
    vertex 51.121956518128 1.93985509590412e-015 3.95507719210661
  endloop
endfacet
facet normal -0.0294794293562383 3.69785809899832e-015 0.999565387178263
  outer loop
    vertex 14.8167870848056 1.7517383745583 2.32663307294859
    vertex 17.0391083012225 1.83045198601431e-015 2.39217431932085
    vertex 17.0391083012225 1.7517383745583 2.39217431932085
  endloop
endfacet
facet normal -0.0294794293562383 3.69785809899832e-015 0.999565387178263
  outer loop
    vertex 17.0391083012225 1.83045198601431e-015 2.39217431932085
    vertex 14.8167870848056 1.7517383745583 2.32663307294859
    vertex 14.8167870848056 1.56417151145198e-015 2.32663307294859
  endloop
endfacet
facet normal -0.0883358132381871 3.68440691288966e-015 0.996090750935651
  outer loop
    vertex 17.0391083012225 1.7517383745583 2.39217431932085
    vertex 19.253704402364 2.58292040973153e-015 2.58857022742932
    vertex 19.253704402364 1.7517383745583 2.58857022742931
  endloop
endfacet
facet normal -0.0883358132381871 3.68440691288966e-015 0.996090750935651
  outer loop
    vertex 19.253704402364 2.58292040973153e-015 2.58857022742932
    vertex 17.0391083012225 1.7517383745583 2.39217431932085
    vertex 17.0391083012225 1.83045198601431e-015 2.39217431932085
  endloop
endfacet
facet normal -0.204923850151049 3.61917319952567e-015 0.978777919468594
  outer loop
    vertex 21.452877126591 1.75173837455831 2.91513809622314
    vertex 23.6289818261904 5.52797229051122e-015 3.37074272777818
    vertex 23.6289818261904 1.75173837455831 3.37074272777818
  endloop
endfacet
facet normal -0.204923850151049 3.61917319952567e-015 0.978777919468594
  outer loop
    vertex 23.6289818261904 5.52797229051122e-015 3.37074272777818
    vertex 21.452877126591 1.75173837455831 2.91513809622314
    vertex 21.452877126591 3.81760899549235e-015 2.91513809622315
  endloop
endfacet
facet normal 0.16375545112596 2.7257795905619e-015 0.986500964128537
  outer loop
    vertex 35.3570645636119 1.75173837455831 2.91627105001888
    vertex 37.3276107796909 2.50999238948867e-015 2.58916778675585
    vertex 37.3276107796909 1.7517383745583 2.58916778675585
  endloop
endfacet
facet normal 0.16375545112596 2.7257795905619e-015 0.986500964128537
  outer loop
    vertex 37.3276107796909 2.50999238948867e-015 2.58916778675585
    vertex 35.3570645636119 1.75173837455831 2.91627105001888
    vertex 35.3570645636119 4.0944821670753e-015 2.91627105001889
  endloop
endfacet
facet normal 0.032893325481816 2.8045225406502e-015 0.999458868157538
  outer loop
    vertex 39.3154002321748 1.7517383745583 2.39233784204603
    vertex 41.31183 5.35855176373315e-016 2.32663307294861
    vertex 41.31183 1.7517383745583 2.32663307294861
  endloop
endfacet
facet normal 0.032893325481816 2.8045225406502e-015 0.999458868157538
  outer loop
    vertex 41.31183 5.35855176373315e-016 2.32663307294861
    vertex 39.3154002321748 1.7517383745583 2.39233784204603
    vertex 39.3154002321748 1.40863099474133e-015 2.39233784204603
  endloop
endfacet
facet normal 0.0985376179666405 2.77114766766333e-015 0.99513332666807
  outer loop
    vertex 37.3276107796909 1.7517383745583 2.58916778675585
    vertex 39.3154002321748 1.40863099474133e-015 2.39233784204603
    vertex 39.3154002321748 1.7517383745583 2.39233784204603
  endloop
endfacet
facet normal 0.0985376179666405 2.77114766766333e-015 0.99513332666807
  outer loop
    vertex 39.3154002321748 1.40863099474133e-015 2.39233784204603
    vertex 37.3276107796909 1.7517383745583 2.58916778675585
    vertex 37.3276107796909 2.50999238948867e-015 2.58916778675585
  endloop
endfacet
facet normal -0.0328933254818179 2.82575976696224e-015 0.999458868157538
  outer loop
    vertex 41.31183 1.7517383745583 2.32663307294861
    vertex 43.3082597678251 2.28523700429159e-017 2.39233784204604
    vertex 43.3082597678251 1.7517383745583 2.39233784204603
  endloop
endfacet
facet normal -0.0328933254818179 2.82575976696224e-015 0.999458868157538
  outer loop
    vertex 43.3082597678251 2.28523700429159e-017 2.39233784204604
    vertex 41.31183 1.7517383745583 2.32663307294861
    vertex 41.31183 5.35855176373315e-016 2.32663307294861
  endloop
endfacet
facet normal -0.163755451125962 2.83150655870666e-015 0.986500964128537
  outer loop
    vertex 45.296049220309 1.7517383745583 2.58916778675585
    vertex 47.266595436388 2.60583980286567e-016 2.9162710500189
    vertex 47.266595436388 1.7517383745583 2.91627105001889
  endloop
endfacet
facet normal -0.163755451125962 2.83150655870666e-015 0.986500964128537
  outer loop
    vertex 47.266595436388 2.60583980286567e-016 2.9162710500189
    vertex 45.296049220309 1.7517383745583 2.58916778675585
    vertex 45.296049220309 -2.43043535016568e-018 2.58916778675586
  endloop
endfacet
facet normal 0.354044187308146 3.10831189918646e-015 0.935228695792272
  outer loop
    vertex 29.6335741696112 1.75173837455831 4.66228423902635
    vertex 31.501703481872 8.28878517558302e-015 3.9550771921066
    vertex 31.501703481872 1.75173837455831 3.95507719210659
  endloop
endfacet
facet normal 0.354044187308146 3.10831189918646e-015 0.935228695792272
  outer loop
    vertex 31.501703481872 8.28878517558302e-015 3.9550771921066
    vertex 29.6335741696112 1.75173837455831 4.66228423902635
    vertex 29.6335741696112 1.08731512572022e-014 4.66228423902636
  endloop
endfacet
facet normal -0.0985376179666423 2.83476743435926e-015 0.99513332666807
  outer loop
    vertex 43.3082597678251 1.7517383745583 2.39233784204603
    vertex 45.296049220309 -2.43043535016568e-018 2.58916778675586
    vertex 45.296049220309 1.7517383745583 2.58916778675585
  endloop
endfacet
facet normal -0.0985376179666423 2.83476743435926e-015 0.99513332666807
  outer loop
    vertex 45.296049220309 -2.43043535016568e-018 2.58916778675586
    vertex 43.3082597678251 1.7517383745583 2.39233784204603
    vertex 43.3082597678251 2.28523700429159e-017 2.39233784204604
  endloop
endfacet
facet normal 0.291785785980053 2.59990027043399e-015 0.956483693065388
  outer loop
    vertex 31.501703481872 1.75173837455831 3.95507719210659
    vertex 33.4122898782839 6.02446589458993e-015 3.37223196703724
    vertex 33.4122898782839 1.75173837455831 3.37223196703724
  endloop
endfacet
facet normal 0.291785785980053 2.59990027043399e-015 0.956483693065388
  outer loop
    vertex 33.4122898782839 6.02446589458993e-015 3.37223196703724
    vertex 31.501703481872 1.75173837455831 3.95507719210659
    vertex 31.501703481872 8.28878517558302e-015 3.9550771921066
  endloop
endfacet
facet normal 0.228264569779319 2.66861465709572e-015 0.973599140397865
  outer loop
    vertex 33.4122898782839 1.75173837455831 3.37223196703724
    vertex 35.3570645636119 4.0944821670753e-015 2.91627105001889
    vertex 35.3570645636119 1.75173837455831 2.91627105001888
  endloop
endfacet
facet normal 0.228264569779319 2.66861465709572e-015 0.973599140397865
  outer loop
    vertex 35.3570645636119 4.0944821670753e-015 2.91627105001889
    vertex 33.4122898782839 1.75173837455831 3.37223196703724
    vertex 33.4122898782839 6.02446589458993e-015 3.37223196703724
  endloop
endfacet
facet normal 0.262250226024799 1.72187976734424e-015 0.964999906191675
  outer loop
    vertex 56.8492059587061 1.75173837455831 3.95380037341185
    vertex 58.9946781738095 1.34809354922652e-015 3.37074272777821
    vertex 58.9946781738095 1.75173837455831 3.3707427277782
  endloop
endfacet
facet normal 0.262250226024799 1.72187976734424e-015 0.964999906191675
  outer loop
    vertex 58.9946781738095 1.34809354922652e-015 3.37074272777821
    vertex 56.8492059587061 1.75173837455831 3.95380037341185
    vertex 56.8492059587061 1.73125227579879e-015 3.95380037341185
  endloop
endfacet
facet normal -0.318664981556689 4.29031697482263e-015 0.947867411365891
  outer loop
    vertex 78.7645398716826 1.75173837455831 3.95380037341189
    vertex 80.8719216254417 9.836021818885e-015 4.66228423902643
    vertex 80.8719216254417 1.75173837455832 4.66228423902642
  endloop
endfacet
facet normal -0.318664981556689 4.29031697482263e-015 0.947867411365891
  outer loop
    vertex 80.8719216254417 9.836021818885e-015 4.66228423902643
    vertex 78.7645398716826 1.75173837455831 3.95380037341189
    vertex 78.7645398716826 7.98206159099219e-015 3.9538003734119
  endloop
endfacet
facet normal -0.0294794293562384 1.69706226146835e-015 0.999565387178263
  outer loop
    vertex 67.8068729151943 1.75173837455831 2.32663307294863
    vertex 70.0291941316112 2.88553175834356e-015 2.3921743193209
    vertex 70.0291941316112 1.75173837455831 2.39217431932089
  endloop
endfacet
facet normal -0.0294794293562384 1.69706226146835e-015 0.999565387178263
  outer loop
    vertex 70.0291941316112 2.88553175834356e-015 2.3921743193209
    vertex 67.8068729151943 1.75173837455831 2.32663307294863
    vertex 67.8068729151943 2.1006325433668e-015 2.32663307294864
  endloop
endfacet
facet normal -0.0883358132381909 1.67422784833367e-015 0.99609075093565
  outer loop
    vertex 70.0291941316112 1.75173837455831 2.39217431932089
    vertex 72.2437902327527 3.76765486716443e-015 2.58857022742937
    vertex 72.2437902327527 1.75173837455831 2.58857022742937
  endloop
endfacet
facet normal -0.0883358132381909 1.67422784833367e-015 0.99609075093565
  outer loop
    vertex 72.2437902327527 3.76765486716443e-015 2.58857022742937
    vertex 70.0291941316112 1.75173837455831 2.39217431932089
    vertex 70.0291941316112 2.88553175834356e-015 2.3921743193209
  endloop
endfacet
facet normal -0.262250226024804 1.57122374639245e-015 0.964999906191674
  outer loop
    vertex 76.6190676565791 1.75173837455831 3.37074272777823
    vertex 78.7645398716826 7.98206159099219e-015 3.9538003734119
    vertex 78.7645398716826 1.75173837455831 3.95380037341189
  endloop
endfacet
facet normal -0.262250226024804 1.57122374639245e-015 0.964999906191674
  outer loop
    vertex 78.7645398716826 7.98206159099219e-015 3.9538003734119
    vertex 76.6190676565791 1.75173837455831 3.37074272777823
    vertex 76.6190676565791 6.45339737773693e-015 3.37074272777824
  endloop
endfacet
facet normal 0.318664981556682 3.15250826028666e-015 0.947867411365893
  outer loop
    vertex 54.741824204947 1.75173837455831 4.66228423902636
    vertex 56.8492059587061 1.73125227579879e-015 3.95380037341185
    vertex 56.8492059587061 1.75173837455831 3.95380037341185
  endloop
endfacet
facet normal 0.318664981556682 3.15250826028666e-015 0.947867411365893
  outer loop
    vertex 56.8492059587061 1.73125227579879e-015 3.95380037341185
    vertex 54.741824204947 1.75173837455831 4.66228423902636
    vertex 54.741824204947 2.31082357233151e-015 4.66228423902637
  endloop
endfacet
facet normal 0.0294794293562367 1.71399743667891e-015 0.999565387178263
  outer loop
    vertex 65.5845516987774 1.75173837455831 2.39217431932089
    vertex 67.8068729151943 2.1006325433668e-015 2.32663307294864
    vertex 67.8068729151943 1.75173837455831 2.32663307294863
  endloop
endfacet
facet normal 0.0294794293562367 1.71399743667891e-015 0.999565387178263
  outer loop
    vertex 67.8068729151943 2.1006325433668e-015 2.32663307294864
    vertex 65.5845516987774 1.75173837455831 2.39217431932089
    vertex 65.5845516987774 1.54398823616335e-015 2.39217431932089
  endloop
endfacet
facet normal 0.204923850151049 1.72892253210084e-015 0.978777919468594
  outer loop
    vertex 58.9946781738095 1.75173837455831 3.3707427277782
    vertex 61.1707828734089 1.23764737304741e-015 2.91513809622317
    vertex 61.1707828734089 1.75173837455831 2.91513809622317
  endloop
endfacet
facet normal 0.204923850151049 1.72892253210084e-015 0.978777919468594
  outer loop
    vertex 61.1707828734089 1.23764737304741e-015 2.91513809622317
    vertex 58.9946781738095 1.75173837455831 3.3707427277782
    vertex 58.9946781738095 1.34809354922652e-015 3.37074272777821
  endloop
endfacet
facet normal 0.0883358132381816 1.72497450480651e-015 0.996090750935651
  outer loop
    vertex 63.3699555976359 1.75173837455831 2.58857022742934
    vertex 65.5845516987774 1.54398823616335e-015 2.39217431932089
    vertex 65.5845516987774 1.75173837455831 2.39217431932089
  endloop
endfacet
facet normal 0.0883358132381816 1.72497450480651e-015 0.996090750935651
  outer loop
    vertex 65.5845516987774 1.54398823616335e-015 2.39217431932089
    vertex 63.3699555976359 1.75173837455831 2.58857022742934
    vertex 63.3699555976359 1.21437892295187e-015 2.58857022742935
  endloop
endfacet
facet normal 0.146885128846127 1.72995530794849e-015 0.989153556796849
  outer loop
    vertex 61.1707828734089 1.75173837455831 2.91513809622317
    vertex 63.3699555976359 1.21437892295187e-015 2.58857022742935
    vertex 63.3699555976359 1.75173837455831 2.58857022742934
  endloop
endfacet
facet normal 0.146885128846127 1.72995530794849e-015 0.989153556796849
  outer loop
    vertex 63.3699555976359 1.21437892295187e-015 2.58857022742935
    vertex 61.1707828734089 1.75173837455831 2.91513809622317
    vertex 61.1707828734089 1.23764737304741e-015 2.91513809622317
  endloop
endfacet
facet normal -0.14688512884613 1.64557357305208e-015 0.989153556796848
  outer loop
    vertex 72.2437902327527 1.75173837455831 2.58857022742937
    vertex 74.4429629569798 5.00234345292527e-015 2.91513809622321
    vertex 74.4429629569798 1.75173837455831 2.9151380962232
  endloop
endfacet
facet normal -0.14688512884613 1.64557357305208e-015 0.989153556796848
  outer loop
    vertex 74.4429629569798 5.00234345292527e-015 2.91513809622321
    vertex 72.2437902327527 1.75173837455831 2.58857022742937
    vertex 72.2437902327527 3.76765486716443e-015 2.58857022742937
  endloop
endfacet
facet normal -0.204923850151049 1.61119904209722e-015 0.978777919468594
  outer loop
    vertex 74.4429629569798 1.75173837455831 2.9151380962232
    vertex 76.6190676565791 6.45339737773693e-015 3.37074272777824
    vertex 76.6190676565791 1.75173837455831 3.37074272777823
  endloop
endfacet
facet normal -0.204923850151049 1.61119904209722e-015 0.978777919468594
  outer loop
    vertex 76.6190676565791 6.45339737773693e-015 3.37074272777824
    vertex 74.4429629569798 1.75173837455831 2.9151380962232
    vertex 74.4429629569798 5.00234345292527e-015 2.91513809622321
  endloop
endfacet
facet normal 5.06190000929256e-018 -1.0 2.84886880219553e-015
  outer loop
    vertex 51.121956518128 1.93985509590412e-015 3.95507719210661
    vertex 54.741824204947 2.31082357233151e-015 4.66228423902637
    vertex 52.9900858303887 3.33032680417146e-015 4.66228423902637
  endloop
endfacet
facet normal 5.06190000929256e-018 -1.0 2.84886880219553e-015
  outer loop
    vertex 54.741824204947 2.31082357233151e-015 4.66228423902637
    vertex 51.121956518128 1.93985509590412e-015 3.95507719210661
    vertex 56.8492059587061 1.73125227579879e-015 3.95380037341185
  endloop
endfacet
facet normal 5.06190000929256e-018 -1.0 2.84886880219553e-015
  outer loop
    vertex 56.8492059587061 1.73125227579879e-015 3.95380037341185
    vertex 51.121956518128 1.93985509590412e-015 3.95507719210661
    vertex 49.211370121716 9.33397876756097e-016 3.37223196703726
  endloop
endfacet
facet normal 5.06190000929256e-018 -1.0 2.84886880219553e-015
  outer loop
    vertex 56.8492059587061 1.73125227579879e-015 3.95380037341185
    vertex 49.211370121716 9.33397876756097e-016 3.37223196703726
    vertex 58.9946781738095 1.34809354922652e-015 3.37074272777821
  endloop
endfacet
facet normal 5.06190000929256e-018 -1.0 2.84886880219553e-015
  outer loop
    vertex 58.9946781738095 1.34809354922652e-015 3.37074272777821
    vertex 49.211370121716 9.33397876756097e-016 3.37223196703726
    vertex 47.266595436388 2.60583980286567e-016 2.9162710500189
  endloop
endfacet
facet normal 5.06190000929256e-018 -1.0 2.84886880219553e-015
  outer loop
    vertex 58.9946781738095 1.34809354922652e-015 3.37074272777821
    vertex 47.266595436388 2.60583980286567e-016 2.9162710500189
    vertex 61.1707828734089 1.23764737304741e-015 2.91513809622317
  endloop
endfacet
facet normal 5.06190000929256e-018 -1.0 2.84886880219553e-015
  outer loop
    vertex 61.1707828734089 1.23764737304741e-015 2.91513809622317
    vertex 47.266595436388 2.60583980286567e-016 2.9162710500189
    vertex 45.296049220309 -2.43043535016568e-018 2.58916778675586
  endloop
endfacet
facet normal 5.06190000929256e-018 -1.0 2.84886880219553e-015
  outer loop
    vertex 61.1707828734089 1.23764737304741e-015 2.91513809622317
    vertex 45.296049220309 -2.43043535016568e-018 2.58916778675586
    vertex 63.3699555976359 1.21437892295187e-015 2.58857022742935
  endloop
endfacet
facet normal 5.06190000929256e-018 -1.0 2.84886880219553e-015
  outer loop
    vertex 63.3699555976359 1.21437892295187e-015 2.58857022742935
    vertex 45.296049220309 -2.43043535016568e-018 2.58916778675586
    vertex 43.3082597678251 2.28523700429159e-017 2.39233784204604
  endloop
endfacet
facet normal 5.06190000929256e-018 -1.0 2.84886880219553e-015
  outer loop
    vertex 63.3699555976359 1.21437892295187e-015 2.58857022742935
    vertex 43.3082597678251 2.28523700429159e-017 2.39233784204604
    vertex 65.5845516987774 1.54398823616335e-015 2.39217431932089
  endloop
endfacet
facet normal 5.06190000929256e-018 -1.0 2.84886880219553e-015
  outer loop
    vertex 65.5845516987774 1.54398823616335e-015 2.39217431932089
    vertex 43.3082597678251 2.28523700429159e-017 2.39233784204604
    vertex 41.31183 5.35855176373315e-016 2.32663307294861
  endloop
endfacet
facet normal 5.06190000929256e-018 -1.0 2.84886880219553e-015
  outer loop
    vertex 65.5845516987774 1.54398823616335e-015 2.39217431932089
    vertex 41.31183 5.35855176373315e-016 2.32663307294861
    vertex 67.8068729151943 2.1006325433668e-015 2.32663307294864
  endloop
endfacet
facet normal 5.06190000929256e-018 -1.0 2.84886880219553e-015
  outer loop
    vertex -3.38395977905748e-014 1.42034780613739e-014 4.66228423902632
    vertex 3.8591201283173 7.48304347140894e-015 3.95380037341183
    vertex 1.75173837455821 1.00722623870476e-014 4.66228423902635
  endloop
endfacet
facet normal 5.06190000929256e-018 -1.0 2.84886880219553e-015
  outer loop
    vertex 3.8591201283173 7.48304347140894e-015 3.95380037341183
    vertex -3.38395977905748e-014 1.42034780613739e-014 4.66228423902632
    vertex -3.38395977905748e-014 8.58556002600211e-017 7.04991620636974e-016
  endloop
endfacet
facet normal 5.06190000929256e-018 -1.0 2.84886880219553e-015
  outer loop
    vertex 3.8591201283173 7.48304347140894e-015 3.95380037341183
    vertex -3.38395977905748e-014 8.58556002600211e-017 7.04991620636974e-016
    vertex 6.00459234342075 5.34954649593797e-015 3.37074272777818
  endloop
endfacet
facet normal 5.06190000929256e-018 -1.0 2.84886880219553e-015
  outer loop
    vertex 6.00459234342075 5.34954649593797e-015 3.37074272777818
    vertex -3.38395977905748e-014 8.58556002600211e-017 7.04991620636974e-016
    vertex 8.18069704302011 3.6832440985156e-015 2.91513809622314
  endloop
endfacet
facet normal 5.06190000929256e-018 -1.0 2.84886880219553e-015
  outer loop
    vertex 8.18069704302011 3.6832440985156e-015 2.91513809622314
    vertex -3.38395977905748e-014 8.58556002600211e-017 7.04991620636974e-016
    vertex 10.3798697672472 2.49308348248761e-015 2.58857022742932
  endloop
endfacet
facet normal 5.06190000929256e-018 -1.0 2.84886880219553e-015
  outer loop
    vertex 10.3798697672472 2.49308348248761e-015 2.58857022742932
    vertex -3.38395977905748e-014 8.58556002600211e-017 7.04991620636974e-016
    vertex 12.5944658683886 1.78545531487021e-015 2.39217431932086
  endloop
endfacet
facet normal 5.06190000929256e-018 -1.0 2.84886880219553e-015
  outer loop
    vertex 12.5944658683886 1.78545531487021e-015 2.39217431932086
    vertex -3.38395977905748e-014 8.58556002600211e-017 7.04991620636974e-016
    vertex 14.8167870848056 1.56417151145198e-015 2.32663307294859
  endloop
endfacet
facet normal 5.06190000929256e-018 -1.0 2.84886880219553e-015
  outer loop
    vertex 14.8167870848056 1.56417151145198e-015 2.32663307294859
    vertex -3.38395977905748e-014 8.58556002600211e-017 7.04991620636974e-016
    vertex 41.31183 5.35855176373315e-016 2.32663307294861
  endloop
endfacet
facet normal 5.06190000929256e-018 -1.0 2.84886880219553e-015
  outer loop
    vertex 78.7645398716826 7.98206159099219e-015 3.9538003734119
    vertex 82.62366 2.70978291866532e-014 4.66228423902639
    vertex 80.8719216254417 9.836021818885e-015 4.66228423902643
  endloop
endfacet
facet normal 5.06190000929256e-018 -1.0 2.84886880219553e-015
  outer loop
    vertex 82.62366 2.70978291866532e-014 4.66228423902639
    vertex 78.7645398716826 7.98206159099219e-015 3.9538003734119
    vertex 82.62366 5.33356955593256e-016 7.40241201668823e-014
  endloop
endfacet
facet normal 5.06190000929256e-018 -1.0 2.84886880219553e-015
  outer loop
    vertex 82.62366 5.33356955593256e-016 7.40241201668823e-014
    vertex 78.7645398716826 7.98206159099219e-015 3.9538003734119
    vertex 76.6190676565791 6.45339737773693e-015 3.37074272777824
  endloop
endfacet
facet normal 5.06190000929256e-018 -1.0 2.84886880219553e-015
  outer loop
    vertex 82.62366 5.33356955593256e-016 7.40241201668823e-014
    vertex 76.6190676565791 6.45339737773693e-015 3.37074272777824
    vertex 74.4429629569798 5.00234345292527e-015 2.91513809622321
  endloop
endfacet
facet normal 5.06190000929256e-018 -1.0 2.84886880219553e-015
  outer loop
    vertex 82.62366 5.33356955593256e-016 7.40241201668823e-014
    vertex 74.4429629569798 5.00234345292527e-015 2.91513809622321
    vertex 72.2437902327527 3.76765486716443e-015 2.58857022742937
  endloop
endfacet
facet normal 5.06190000929256e-018 -1.0 2.84886880219553e-015
  outer loop
    vertex 82.62366 5.33356955593256e-016 7.40241201668823e-014
    vertex 72.2437902327527 3.76765486716443e-015 2.58857022742937
    vertex 70.0291941316112 2.88553175834356e-015 2.3921743193209
  endloop
endfacet
facet normal 5.06190000929256e-018 -1.0 2.84886880219553e-015
  outer loop
    vertex 82.62366 5.33356955593256e-016 7.40241201668823e-014
    vertex 70.0291941316112 2.88553175834356e-015 2.3921743193209
    vertex 67.8068729151943 2.1006325433668e-015 2.32663307294864
  endloop
endfacet
facet normal 5.06190000929256e-018 -1.0 2.84886880219553e-015
  outer loop
    vertex 82.62366 5.33356955593256e-016 7.40241201668823e-014
    vertex 67.8068729151943 2.1006325433668e-015 2.32663307294864
    vertex 41.31183 5.35855176373315e-016 2.32663307294861
  endloop
endfacet
facet normal 5.06190000929256e-018 -1.0 2.84886880219553e-015
  outer loop
    vertex 82.62366 5.33356955593256e-016 7.40241201668823e-014
    vertex 41.31183 5.35855176373315e-016 2.32663307294861
    vertex -3.38395977905748e-014 8.58556002600211e-017 7.04991620636974e-016
  endloop
endfacet
facet normal 5.06190000929256e-018 -1.0 2.84886880219553e-015
  outer loop
    vertex 25.7744540412939 7.70490992928446e-015 3.95380037341183
    vertex 29.6335741696112 1.08731512572022e-014 4.66228423902636
    vertex 27.8818357950529 1.03367982677989e-014 4.66228423902635
  endloop
endfacet
facet normal 5.06190000929256e-018 -1.0 2.84886880219553e-015
  outer loop
    vertex 29.6335741696112 1.08731512572022e-014 4.66228423902636
    vertex 25.7744540412939 7.70490992928446e-015 3.95380037341183
    vertex 31.501703481872 8.28878517558302e-015 3.9550771921066
  endloop
endfacet
facet normal 5.06190000929256e-018 -1.0 2.84886880219553e-015
  outer loop
    vertex 31.501703481872 8.28878517558302e-015 3.9550771921066
    vertex 25.7744540412939 7.70490992928446e-015 3.95380037341183
    vertex 33.4122898782839 6.02446589458993e-015 3.37223196703724
  endloop
endfacet
facet normal 5.06190000929256e-018 -1.0 2.84886880219553e-015
  outer loop
    vertex 33.4122898782839 6.02446589458993e-015 3.37223196703724
    vertex 25.7744540412939 7.70490992928446e-015 3.95380037341183
    vertex 23.6289818261904 5.52797229051122e-015 3.37074272777818
  endloop
endfacet
facet normal 5.06190000929256e-018 -1.0 2.84886880219553e-015
  outer loop
    vertex 33.4122898782839 6.02446589458993e-015 3.37223196703724
    vertex 23.6289818261904 5.52797229051122e-015 3.37074272777818
    vertex 35.3570645636119 4.0944821670753e-015 2.91627105001889
  endloop
endfacet
facet normal 5.06190000929256e-018 -1.0 2.84886880219553e-015
  outer loop
    vertex 35.3570645636119 4.0944821670753e-015 2.91627105001889
    vertex 23.6289818261904 5.52797229051122e-015 3.37074272777818
    vertex 21.452877126591 3.81760899549235e-015 2.91513809622315
  endloop
endfacet
facet normal 5.06190000929256e-018 -1.0 2.84886880219553e-015
  outer loop
    vertex 35.3570645636119 4.0944821670753e-015 2.91627105001889
    vertex 21.452877126591 3.81760899549235e-015 2.91513809622315
    vertex 37.3276107796909 2.50999238948867e-015 2.58916778675585
  endloop
endfacet
facet normal 5.06190000929256e-018 -1.0 2.84886880219553e-015
  outer loop
    vertex 37.3276107796909 2.50999238948867e-015 2.58916778675585
    vertex 21.452877126591 3.81760899549235e-015 2.91513809622315
    vertex 19.253704402364 2.58292040973153e-015 2.58857022742932
  endloop
endfacet
facet normal 5.06190000929256e-018 -1.0 2.84886880219553e-015
  outer loop
    vertex 37.3276107796909 2.50999238948867e-015 2.58916778675585
    vertex 19.253704402364 2.58292040973153e-015 2.58857022742932
    vertex 39.3154002321748 1.40863099474133e-015 2.39233784204603
  endloop
endfacet
facet normal 5.06190000929256e-018 -1.0 2.84886880219553e-015
  outer loop
    vertex 39.3154002321748 1.40863099474133e-015 2.39233784204603
    vertex 19.253704402364 2.58292040973153e-015 2.58857022742932
    vertex 17.0391083012225 1.83045198601431e-015 2.39217431932085
  endloop
endfacet
facet normal 5.06190000929256e-018 -1.0 2.84886880219553e-015
  outer loop
    vertex 39.3154002321748 1.40863099474133e-015 2.39233784204603
    vertex 17.0391083012225 1.83045198601431e-015 2.39217431932085
    vertex 41.31183 5.35855176373315e-016 2.32663307294861
  endloop
endfacet
facet normal 5.06190000929256e-018 -1.0 2.84886880219553e-015
  outer loop
    vertex 41.31183 5.35855176373315e-016 2.32663307294861
    vertex 17.0391083012225 1.83045198601431e-015 2.39217431932085
    vertex 14.8167870848056 1.56417151145198e-015 2.32663307294859
  endloop
endfacet
facet normal -8.88178419700125e-016 3.32926181852404e-015 1.0
  outer loop
    vertex 27.8818357950529 1.75173837455831 4.66228423902635
    vertex 29.6335741696112 1.08731512572022e-014 4.66228423902636
    vertex 29.6335741696112 1.75173837455831 4.66228423902635
  endloop
endfacet
facet normal -8.88178419700125e-016 3.32926181852404e-015 1.0
  outer loop
    vertex 29.6335741696112 1.08731512572022e-014 4.66228423902636
    vertex 27.8818357950529 1.75173837455831 4.66228423902635
    vertex 27.8818357950529 1.03367982677989e-014 4.66228423902635
  endloop
endfacet
facet normal 1.48029736616686e-015 3.32926181852404e-015 1.0
  outer loop
    vertex 52.9900858303887 1.75173837455831 4.66228423902636
    vertex 54.741824204947 2.31082357233151e-015 4.66228423902637
    vertex 54.741824204947 1.75173837455831 4.66228423902636
  endloop
endfacet
facet normal 1.48029736616686e-015 3.32926181852404e-015 1.0
  outer loop
    vertex 54.741824204947 2.31082357233151e-015 4.66228423902637
    vertex 52.9900858303887 1.75173837455831 4.66228423902636
    vertex 52.9900858303887 3.33032680417146e-015 4.66228423902637
  endloop
endfacet
facet normal -1.0 -1.55833146123481e-015 -5.60878846390029e-015
  outer loop
    vertex -1.12798659301916e-013 1.75173837455831 4.66228423902634
    vertex -3.38395977905748e-014 8.58556002600211e-017 7.04991620636974e-016
    vertex -3.38395977905748e-014 1.42034780613739e-014 4.66228423902632
  endloop
endfacet
facet normal -1.0 -1.55833146123481e-015 -5.60878846390029e-015
  outer loop
    vertex -3.38395977905748e-014 8.58556002600211e-017 7.04991620636974e-016
    vertex -1.12798659301916e-013 1.75173837455831 4.66228423902634
    vertex -1.12798659301916e-013 3.64513851356454 3.95492192544419
  endloop
endfacet
facet normal -1.0 -1.55833146123481e-015 -5.60878846390029e-015
  outer loop
    vertex -3.38395977905748e-014 8.58556002600211e-017 7.04991620636974e-016
    vertex -1.12798659301916e-013 3.64513851356454 3.95492192544419
    vertex -9.02389274415327e-014 5.58049037130928 3.3720508283832
  endloop
endfacet
facet normal -1.0 -1.55833146123481e-015 -5.60878846390029e-015
  outer loop
    vertex -3.38395977905748e-014 8.58556002600211e-017 7.04991620636974e-016
    vertex -9.02389274415327e-014 5.58049037130928 3.3720508283832
    vertex -9.02389274415327e-014 7.5496182661024 2.9161332228746
  endloop
endfacet
facet normal -1.0 -1.55833146123481e-015 -5.60878846390029e-015
  outer loop
    vertex -3.38395977905748e-014 8.58556002600211e-017 7.04991620636974e-016
    vertex -9.02389274415327e-014 7.5496182661024 2.9161332228746
    vertex -9.02389274415327e-014 9.54420383308919 2.5890950828464
  endloop
endfacet
facet normal -1.0 -1.55833146123481e-015 -5.60878846390029e-015
  outer loop
    vertex -3.38395977905748e-014 8.58556002600211e-017 7.04991620636974e-016
    vertex -9.02389274415327e-014 9.54420383308919 2.5890950828464
    vertex -1.12798659301916e-013 27.1519448056537 -1.2125855874956e-013
  endloop
endfacet
facet normal -1.0 -1.55833146123481e-015 -5.60878846390029e-015
  outer loop
    vertex -1.12798659301916e-013 27.1519448056537 -1.2125855874956e-013
    vertex -9.02389274415327e-014 9.54420383308919 2.5890950828464
    vertex -9.02389274415327e-014 11.5558211642704 2.39231794505778
  endloop
endfacet
facet normal -1.0 -1.55833146123481e-015 -5.60878846390029e-015
  outer loop
    vertex -1.12798659301916e-013 27.1519448056537 -1.2125855874956e-013
    vertex -9.02389274415327e-014 11.5558211642704 2.39231794505778
    vertex -9.02389274415327e-014 13.5759724028269 2.32663307294851
  endloop
endfacet
facet normal -1.0 -1.55833146123481e-015 -5.60878846390029e-015
  outer loop
    vertex -1.12798659301916e-013 27.1519448056537 -1.2125855874956e-013
    vertex -9.02389274415327e-014 13.5759724028269 2.32663307294851
    vertex -9.02389274415327e-014 15.5961236413833 2.39231794505776
  endloop
endfacet
facet normal -1.0 -1.55833146123481e-015 -5.60878846390029e-015
  outer loop
    vertex -1.12798659301916e-013 27.1519448056537 -1.2125855874956e-013
    vertex -9.02389274415327e-014 15.5961236413833 2.39231794505776
    vertex -9.02389274415327e-014 17.6077409725646 2.58909508284635
  endloop
endfacet
facet normal -1.0 -1.55833146123481e-015 -5.60878846390029e-015
  outer loop
    vertex -1.12798659301916e-013 27.1519448056537 -1.2125855874956e-013
    vertex -9.02389274415327e-014 17.6077409725646 2.58909508284635
    vertex -9.02389274415327e-014 19.6023265395513 2.91613322287452
  endloop
endfacet
facet normal -1.0 -1.55833146123481e-015 -5.60878846390029e-015
  outer loop
    vertex -1.12798659301916e-013 27.1519448056537 -1.2125855874956e-013
    vertex -9.02389274415327e-014 19.6023265395513 2.91613322287452
    vertex -9.02389274415327e-014 21.5714544343445 3.37205082838311
  endloop
endfacet
facet normal -1.0 -1.55833146123481e-015 -5.60878846390029e-015
  outer loop
    vertex -1.12798659301916e-013 27.1519448056537 -1.2125855874956e-013
    vertex -9.02389274415327e-014 21.5714544343445 3.37205082838311
    vertex -1.12798659301916e-013 23.5068062920892 3.95492192544408
  endloop
endfacet
facet normal -1.0 -1.55833146123481e-015 -5.60878846390029e-015
  outer loop
    vertex -1.12798659301916e-013 27.1519448056537 -1.2125855874956e-013
    vertex -1.12798659301916e-013 23.5068062920892 3.95492192544408
    vertex -1.12798659301916e-013 25.4002064310955 4.66228423902621
  endloop
endfacet
facet normal -1.0 -1.55833146123481e-015 -5.60878846390029e-015
  outer loop
    vertex -1.12798659301916e-013 27.1519448056537 -1.2125855874956e-013
    vertex -1.12798659301916e-013 25.4002064310955 4.66228423902621
    vertex -1.12798659301916e-013 27.1519448056538 4.6622842390262
  endloop
endfacet
facet normal -7.99360577730112e-015 -6.14464132494417e-015 1.0
  outer loop
    vertex 1.7517383745582 1.75173837455832 4.66228423902635
    vertex -3.38395977905748e-014 1.42034780613739e-014 4.66228423902632
    vertex 1.75173837455821 1.00722623870476e-014 4.66228423902635
  endloop
endfacet
facet normal -7.99360577730112e-015 -6.14464132494417e-015 1.0
  outer loop
    vertex -3.38395977905748e-014 1.42034780613739e-014 4.66228423902632
    vertex 1.7517383745582 1.75173837455832 4.66228423902635
    vertex -1.12798659301916e-013 1.75173837455831 4.66228423902634
  endloop
endfacet
facet normal -3.22767581100766e-015 1.0 -4.36289301622138e-015
  outer loop
    vertex 1.75173837455811 27.1519448056537 -1.19143583887649e-013
    vertex -1.12798659301916e-013 27.1519448056538 4.6622842390262
    vertex 1.75173837455811 27.1519448056538 4.6622842390262
  endloop
endfacet
facet normal -3.22767581100766e-015 1.0 -4.36289301622138e-015
  outer loop
    vertex -1.12798659301916e-013 27.1519448056538 4.6622842390262
    vertex 1.75173837455811 27.1519448056537 -1.19143583887649e-013
    vertex -1.12798659301916e-013 27.1519448056537 -1.2125855874956e-013
  endloop
endfacet
facet normal -6.7625761479368e-016 1.0 -5.66992834213751e-015
  outer loop
    vertex 82.62366 27.1519448056537 -8.03690447526151e-014
    vertex 80.8719216254417 27.1519448056538 4.66228423902627
    vertex 82.62366 27.1519448056538 4.66228423902627
  endloop
endfacet
facet normal -6.7625761479368e-016 1.0 -5.66992834213751e-015
  outer loop
    vertex 80.8719216254417 27.1519448056538 4.66228423902627
    vertex 82.62366 27.1519448056537 -8.03690447526151e-014
    vertex 80.8719216254417 27.1519448056537 -8.2484019614526e-014
  endloop
endfacet
facet normal -1.0 -7.16573595785481e-016 -9.65540246769732e-016
  outer loop
    vertex 80.8719216254417 3.64513851356455 3.95492192544426
    vertex 80.8719216254417 1.75173837455829 6.27442542366907e-014
    vertex 80.8719216254417 1.75173837455832 4.66228423902642
  endloop
endfacet
facet normal -1.0 -7.16573595785481e-016 -9.65540246769732e-016
  outer loop
    vertex 80.8719216254417 1.75173837455829 6.27442542366907e-014
    vertex 80.8719216254417 3.64513851356455 3.95492192544426
    vertex 80.8719216254417 5.58049037130928 3.37205082838327
  endloop
endfacet
facet normal -1.0 -7.16573595785481e-016 -9.65540246769732e-016
  outer loop
    vertex 80.8719216254417 1.75173837455829 6.27442542366907e-014
    vertex 80.8719216254417 5.58049037130928 3.37205082838327
    vertex 80.8719216254417 7.5496182661024 2.91613322287467
  endloop
endfacet
facet normal -1.0 -7.16573595785481e-016 -9.65540246769732e-016
  outer loop
    vertex 80.8719216254417 1.75173837455829 6.27442542366907e-014
    vertex 80.8719216254417 7.5496182661024 2.91613322287467
    vertex 80.8719216254417 9.54420383308919 2.58909508284648
  endloop
endfacet
facet normal -1.0 -7.16573595785481e-016 -9.65540246769732e-016
  outer loop
    vertex 80.8719216254417 1.75173837455829 6.27442542366907e-014
    vertex 80.8719216254417 9.54420383308919 2.58909508284648
    vertex 80.8719216254417 27.1519448056537 -8.2484019614526e-014
  endloop
endfacet
facet normal -1.0 -7.16573595785481e-016 -9.65540246769732e-016
  outer loop
    vertex 80.8719216254417 27.1519448056537 -8.2484019614526e-014
    vertex 80.8719216254417 9.54420383308919 2.58909508284648
    vertex 80.8719216254417 11.5558211642704 2.39231794505786
  endloop
endfacet
facet normal -1.0 -7.16573595785481e-016 -9.65540246769732e-016
  outer loop
    vertex 80.8719216254417 27.1519448056537 -8.2484019614526e-014
    vertex 80.8719216254417 11.5558211642704 2.39231794505786
    vertex 80.8719216254417 13.5759724028269 2.32663307294859
  endloop
endfacet
facet normal -1.0 -7.16573595785481e-016 -9.65540246769732e-016
  outer loop
    vertex 80.8719216254417 27.1519448056537 -8.2484019614526e-014
    vertex 80.8719216254417 13.5759724028269 2.32663307294859
    vertex 80.8719216254417 15.5961236413833 2.39231794505783
  endloop
endfacet
facet normal -1.0 -7.16573595785481e-016 -9.65540246769732e-016
  outer loop
    vertex 80.8719216254417 27.1519448056537 -8.2484019614526e-014
    vertex 80.8719216254417 15.5961236413833 2.39231794505783
    vertex 80.8719216254417 17.6077409725646 2.58909508284643
  endloop
endfacet
facet normal -1.0 -7.16573595785481e-016 -9.65540246769732e-016
  outer loop
    vertex 80.8719216254417 27.1519448056537 -8.2484019614526e-014
    vertex 80.8719216254417 17.6077409725646 2.58909508284643
    vertex 80.8719216254417 19.6023265395513 2.9161332228746
  endloop
endfacet
facet normal -1.0 -7.16573595785481e-016 -9.65540246769732e-016
  outer loop
    vertex 80.8719216254417 27.1519448056537 -8.2484019614526e-014
    vertex 80.8719216254417 19.6023265395513 2.9161332228746
    vertex 80.8719216254417 21.5714544343445 3.37205082838319
  endloop
endfacet
facet normal -1.0 -7.16573595785481e-016 -9.65540246769732e-016
  outer loop
    vertex 80.8719216254417 27.1519448056537 -8.2484019614526e-014
    vertex 80.8719216254417 21.5714544343445 3.37205082838319
    vertex 80.8719216254417 23.5068062920892 3.95492192544415
  endloop
endfacet
facet normal -1.0 -7.16573595785481e-016 -9.65540246769732e-016
  outer loop
    vertex 80.8719216254417 27.1519448056537 -8.2484019614526e-014
    vertex 80.8719216254417 23.5068062920892 3.95492192544415
    vertex 80.8719216254417 25.4002064310954 4.66228423902628
  endloop
endfacet
facet normal -1.0 -7.16573595785481e-016 -9.65540246769732e-016
  outer loop
    vertex 80.8719216254417 27.1519448056537 -8.2484019614526e-014
    vertex 80.8719216254417 25.4002064310954 4.66228423902628
    vertex 80.8719216254417 27.1519448056538 4.66228423902627
  endloop
endfacet
facet normal 0.318664981556686 3.54309682724425e-015 0.947867411365892
  outer loop
    vertex 1.7517383745582 1.75173837455832 4.66228423902635
    vertex 3.8591201283173 7.48304347140894e-015 3.95380037341183
    vertex 3.8591201283173 1.75173837455831 3.95380037341182
  endloop
endfacet
facet normal 0.318664981556686 3.54309682724425e-015 0.947867411365892
  outer loop
    vertex 3.8591201283173 7.48304347140894e-015 3.95380037341183
    vertex 1.7517383745582 1.75173837455832 4.66228423902635
    vertex 1.75173837455821 1.00722623870476e-014 4.66228423902635
  endloop
endfacet
facet normal 0.146885128846126 3.66112225800809e-015 0.989153556796849
  outer loop
    vertex 8.18069704302011 1.75173837455831 2.91513809622314
    vertex 10.3798697672472 2.49308348248761e-015 2.58857022742932
    vertex 10.3798697672472 1.7517383745583 2.58857022742931
  endloop
endfacet
facet normal 0.146885128846126 3.66112225800809e-015 0.989153556796849
  outer loop
    vertex 10.3798697672472 2.49308348248761e-015 2.58857022742932
    vertex 8.18069704302011 1.75173837455831 2.91513809622314
    vertex 8.18069704302011 3.6832440985156e-015 2.91513809622314
  endloop
endfacet
facet normal 0.20492385015105 3.6233224156816e-015 0.978777919468594
  outer loop
    vertex 6.00459234342075 1.75173837455831 3.37074272777817
    vertex 8.18069704302011 3.6832440985156e-015 2.91513809622314
    vertex 8.18069704302011 1.75173837455831 2.91513809622314
  endloop
endfacet
facet normal 0.20492385015105 3.6233224156816e-015 0.978777919468594
  outer loop
    vertex 8.18069704302011 3.6832440985156e-015 2.91513809622314
    vertex 6.00459234342075 1.75173837455831 3.37074272777817
    vertex 6.00459234342075 5.34954649593797e-015 3.37074272777818
  endloop
endfacet
facet normal 0.2622502260248 3.57292737193489e-015 0.964999906191675
  outer loop
    vertex 3.8591201283173 1.75173837455831 3.95380037341182
    vertex 6.00459234342075 5.34954649593797e-015 3.37074272777818
    vertex 6.00459234342075 1.75173837455831 3.37074272777817
  endloop
endfacet
facet normal 0.2622502260248 3.57292737193489e-015 0.964999906191675
  outer loop
    vertex 6.00459234342075 5.34954649593797e-015 3.37074272777818
    vertex 3.8591201283173 1.75173837455831 3.95380037341182
    vertex 3.8591201283173 7.48304347140894e-015 3.95380037341183
  endloop
endfacet
facet normal -0.2622502260248 3.56761743424868e-015 0.964999906191675
  outer loop
    vertex 23.6289818261904 1.75173837455831 3.37074272777818
    vertex 25.7744540412939 7.70490992928446e-015 3.95380037341183
    vertex 25.7744540412939 1.75173837455831 3.95380037341183
  endloop
endfacet
facet normal -0.2622502260248 3.56761743424868e-015 0.964999906191675
  outer loop
    vertex 25.7744540412939 7.70490992928446e-015 3.95380037341183
    vertex 23.6289818261904 1.75173837455831 3.37074272777818
    vertex 23.6289818261904 5.52797229051122e-015 3.37074272777818
  endloop
endfacet
facet normal 8.88178419700125e-016 -4.36289301622137e-015 -1.0
  outer loop
    vertex 82.62366 5.33356955593256e-016 7.40241201668823e-014
    vertex 80.8719216254417 1.75173837455829 6.27442542366907e-014
    vertex 82.62366 27.1519448056537 -8.03690447526151e-014
  endloop
endfacet
facet normal 8.88178419700125e-016 -4.36289301622137e-015 -1.0
  outer loop
    vertex 80.8719216254417 1.75173837455829 6.27442542366907e-014
    vertex 82.62366 5.33356955593256e-016 7.40241201668823e-014
    vertex -3.38395977905748e-014 8.58556002600211e-017 7.04991620636974e-016
  endloop
endfacet
facet normal 8.88178419700125e-016 -4.36289301622137e-015 -1.0
  outer loop
    vertex 80.8719216254417 1.75173837455829 6.27442542366907e-014
    vertex -3.38395977905748e-014 8.58556002600211e-017 7.04991620636974e-016
    vertex 1.7517383745582 1.75173837455829 -7.75490782700672e-015
  endloop
endfacet
facet normal 8.88178419700125e-016 -4.36289301622137e-015 -1.0
  outer loop
    vertex 1.7517383745582 1.75173837455829 -7.75490782700672e-015
    vertex -3.38395977905748e-014 8.58556002600211e-017 7.04991620636974e-016
    vertex 1.75173837455811 27.1519448056537 -1.19143583887649e-013
  endloop
endfacet
facet normal 8.88178419700125e-016 -4.36289301622137e-015 -1.0
  outer loop
    vertex 1.75173837455811 27.1519448056537 -1.19143583887649e-013
    vertex -3.38395977905748e-014 8.58556002600211e-017 7.04991620636974e-016
    vertex -1.12798659301916e-013 27.1519448056537 -1.2125855874956e-013
  endloop
endfacet
facet normal 8.88178419700125e-016 -4.36289301622137e-015 -1.0
  outer loop
    vertex 80.8719216254417 27.1519448056537 -8.2484019614526e-014
    vertex 82.62366 27.1519448056537 -8.03690447526151e-014
    vertex 80.8719216254417 1.75173837455829 6.27442542366907e-014
  endloop
endfacet
facet normal 1.0 3.3345934271569e-015 1.25223407649828e-015
  outer loop
    vertex 1.7517383745582 1.75173837455829 -7.75490782700672e-015
    vertex 1.75173837455811 3.64513851356454 3.9549219254442
    vertex 1.7517383745582 1.75173837455832 4.66228423902635
  endloop
endfacet
facet normal 1.0 3.3345934271569e-015 1.25223407649828e-015
  outer loop
    vertex 1.75173837455811 3.64513851356454 3.9549219254442
    vertex 1.7517383745582 1.75173837455829 -7.75490782700672e-015
    vertex 1.75173837455813 5.58049037130928 3.37205082838322
  endloop
endfacet
facet normal 1.0 3.3345934271569e-015 1.25223407649828e-015
  outer loop
    vertex 1.75173837455813 5.58049037130928 3.37205082838322
    vertex 1.7517383745582 1.75173837455829 -7.75490782700672e-015
    vertex 1.75173837455813 7.5496182661024 2.91613322287461
  endloop
endfacet
facet normal 1.0 3.3345934271569e-015 1.25223407649828e-015
  outer loop
    vertex 1.75173837455813 7.5496182661024 2.91613322287461
    vertex 1.7517383745582 1.75173837455829 -7.75490782700672e-015
    vertex 1.75173837455813 9.54420383308919 2.58909508284642
  endloop
endfacet
facet normal 1.0 3.3345934271569e-015 1.25223407649828e-015
  outer loop
    vertex 1.75173837455813 9.54420383308919 2.58909508284642
    vertex 1.7517383745582 1.75173837455829 -7.75490782700672e-015
    vertex 1.75173837455811 27.1519448056537 -1.19143583887649e-013
  endloop
endfacet
facet normal 1.0 3.3345934271569e-015 1.25223407649828e-015
  outer loop
    vertex 1.75173837455813 9.54420383308919 2.58909508284642
    vertex 1.75173837455811 27.1519448056537 -1.19143583887649e-013
    vertex 1.75173837455813 11.5558211642704 2.39231794505779
  endloop
endfacet
facet normal 1.0 3.3345934271569e-015 1.25223407649828e-015
  outer loop
    vertex 1.75173837455813 11.5558211642704 2.39231794505779
    vertex 1.75173837455811 27.1519448056537 -1.19143583887649e-013
    vertex 1.75173837455813 13.5759724028269 2.32663307294853
  endloop
endfacet
facet normal 1.0 3.3345934271569e-015 1.25223407649828e-015
  outer loop
    vertex 1.75173837455813 13.5759724028269 2.32663307294853
    vertex 1.75173837455811 27.1519448056537 -1.19143583887649e-013
    vertex 1.75173837455813 15.5961236413833 2.39231794505777
  endloop
endfacet
facet normal 1.0 3.3345934271569e-015 1.25223407649828e-015
  outer loop
    vertex 1.75173837455813 15.5961236413833 2.39231794505777
    vertex 1.75173837455811 27.1519448056537 -1.19143583887649e-013
    vertex 1.75173837455813 17.6077409725646 2.58909508284637
  endloop
endfacet
facet normal 1.0 3.3345934271569e-015 1.25223407649828e-015
  outer loop
    vertex 1.75173837455813 17.6077409725646 2.58909508284637
    vertex 1.75173837455811 27.1519448056537 -1.19143583887649e-013
    vertex 1.75173837455813 19.6023265395513 2.91613322287454
  endloop
endfacet
facet normal 1.0 3.3345934271569e-015 1.25223407649828e-015
  outer loop
    vertex 1.75173837455813 19.6023265395513 2.91613322287454
    vertex 1.75173837455811 27.1519448056537 -1.19143583887649e-013
    vertex 1.75173837455813 21.5714544343445 3.37205082838312
  endloop
endfacet
facet normal 1.0 3.3345934271569e-015 1.25223407649828e-015
  outer loop
    vertex 1.75173837455813 21.5714544343445 3.37205082838312
    vertex 1.75173837455811 27.1519448056537 -1.19143583887649e-013
    vertex 1.75173837455811 23.5068062920892 3.95492192544409
  endloop
endfacet
facet normal 1.0 3.3345934271569e-015 1.25223407649828e-015
  outer loop
    vertex 1.75173837455811 23.5068062920892 3.95492192544409
    vertex 1.75173837455811 27.1519448056537 -1.19143583887649e-013
    vertex 1.75173837455811 25.4002064310955 4.66228423902622
  endloop
endfacet
facet normal 1.0 3.3345934271569e-015 1.25223407649828e-015
  outer loop
    vertex 1.75173837455811 25.4002064310955 4.66228423902622
    vertex 1.75173837455811 27.1519448056537 -1.19143583887649e-013
    vertex 1.75173837455811 27.1519448056538 4.6622842390262
  endloop
endfacet
facet normal -8.88178419700125e-016 5.69773760439105e-015 1.0
  outer loop
    vertex 82.62366 27.1519448056538 4.66228423902627
    vertex 80.8719216254417 25.4002064310954 4.66228423902628
    vertex 82.62366 25.4002064310954 4.66228423902628
  endloop
endfacet
facet normal -8.88178419700125e-016 5.69773760439105e-015 1.0
  outer loop
    vertex 80.8719216254417 25.4002064310954 4.66228423902628
    vertex 82.62366 27.1519448056538 4.66228423902627
    vertex 80.8719216254417 27.1519448056538 4.66228423902627
  endloop
endfacet
facet normal -0.318664981556688 3.13797269543297e-015 0.947867411365891
  outer loop
    vertex 25.7744540412939 1.75173837455831 3.95380037341183
    vertex 27.8818357950529 1.03367982677989e-014 4.66228423902635
    vertex 27.8818357950529 1.75173837455831 4.66228423902635
  endloop
endfacet
facet normal -0.318664981556688 3.13797269543297e-015 0.947867411365891
  outer loop
    vertex 27.8818357950529 1.03367982677989e-014 4.66228423902635
    vertex 25.7744540412939 1.75173837455831 3.95380037341183
    vertex 25.7744540412939 7.70490992928446e-015 3.95380037341183
  endloop
endfacet
facet normal -8.91506307969448e-015 -0.28837604841548 0.95751723467532
  outer loop
    vertex 1.75173837455811 23.5068062920892 3.95492192544409
    vertex -9.02389274415327e-014 21.5714544343445 3.37205082838311
    vertex 1.75173837455813 21.5714544343445 3.37205082838312
  endloop
endfacet
facet normal -8.91506307969448e-015 -0.28837604841548 0.95751723467532
  outer loop
    vertex -9.02389274415327e-014 21.5714544343445 3.37205082838311
    vertex 1.75173837455811 23.5068062920892 3.95492192544409
    vertex -1.12798659301916e-013 23.5068062920892 3.95492192544408
  endloop
endfacet
facet normal -9.26842355101829e-015 -0.0973556824143698 0.995249652650847
  outer loop
    vertex -9.02389274415327e-014 17.6077409725646 2.58909508284635
    vertex 1.75173837455813 15.5961236413833 2.39231794505777
    vertex 1.75173837455813 17.6077409725646 2.58909508284637
  endloop
endfacet
facet normal -9.26842355101829e-015 -0.0973556824143698 0.995249652650847
  outer loop
    vertex 1.75173837455813 15.5961236413833 2.39231794505777
    vertex -9.02389274415327e-014 17.6077409725646 2.58909508284635
    vertex -9.02389274415327e-014 15.5961236413833 2.39231794505776
  endloop
endfacet
facet normal -2.10914561864569e-015 0.349968200203133 0.936761580577779
  outer loop
    vertex 82.62366 3.64513851356455 3.95492192544426
    vertex 80.8719216254417 1.75173837455832 4.66228423902642
    vertex 82.62366 1.75173837455833 4.66228423902642
  endloop
endfacet
facet normal -2.10914561864569e-015 0.349968200203133 0.936761580577779
  outer loop
    vertex 80.8719216254417 1.75173837455832 4.66228423902642
    vertex 82.62366 3.64513851356455 3.95492192544426
    vertex 80.8719216254417 3.64513851356455 3.95492192544426
  endloop
endfacet
facet normal -9.07133686433331e-015 -0.225565683634955 0.974227962217414
  outer loop
    vertex -9.02389274415327e-014 21.5714544343445 3.37205082838311
    vertex 1.75173837455813 19.6023265395513 2.91613322287454
    vertex 1.75173837455813 21.5714544343445 3.37205082838312
  endloop
endfacet
facet normal -9.07133686433331e-015 -0.225565683634955 0.974227962217414
  outer loop
    vertex 1.75173837455813 19.6023265395513 2.91613322287454
    vertex -9.02389274415327e-014 21.5714544343445 3.37205082838311
    vertex -9.02389274415327e-014 19.6023265395513 2.91613322287452
  endloop
endfacet
facet normal -5.99233397683191e-016 -0.225565683634956 0.974227962217414
  outer loop
    vertex 82.62366 21.5714544343445 3.37205082838319
    vertex 80.8719216254417 19.6023265395513 2.9161332228746
    vertex 82.62366 19.6023265395513 2.9161332228746
  endloop
endfacet
facet normal -5.99233397683191e-016 -0.225565683634956 0.974227962217414
  outer loop
    vertex 80.8719216254417 19.6023265395513 2.9161332228746
    vertex 82.62366 21.5714544343445 3.37205082838319
    vertex 80.8719216254417 21.5714544343445 3.37205082838319
  endloop
endfacet
facet normal -7.09346019158767e-016 -0.0973556824143698 0.995249652650847
  outer loop
    vertex 82.62366 17.6077409725646 2.58909508284643
    vertex 80.8719216254417 15.5961236413833 2.39231794505783
    vertex 82.62366 15.5961236413833 2.39231794505783
  endloop
endfacet
facet normal -7.09346019158767e-016 -0.0973556824143698 0.995249652650847
  outer loop
    vertex 80.8719216254417 15.5961236413833 2.39231794505783
    vertex 82.62366 17.6077409725646 2.58909508284643
    vertex 80.8719216254417 17.6077409725646 2.58909508284643
  endloop
endfacet
facet normal -9.07590402807767e-015 0.225565683634965 0.974227962217412
  outer loop
    vertex -9.02389274415327e-014 7.5496182661024 2.9161332228746
    vertex 1.75173837455813 5.58049037130928 3.37205082838322
    vertex 1.75173837455813 7.5496182661024 2.91613322287461
  endloop
endfacet
facet normal -9.07590402807767e-015 0.225565683634965 0.974227962217412
  outer loop
    vertex 1.75173837455813 5.58049037130928 3.37205082838322
    vertex -9.02389274415327e-014 7.5496182661024 2.9161332228746
    vertex -9.02389274415327e-014 5.58049037130928 3.3720508283832
  endloop
endfacet
facet normal -8.9209020025831e-015 0.288376048415491 0.957517234675317
  outer loop
    vertex -9.02389274415327e-014 5.58049037130928 3.3720508283832
    vertex 1.75173837455811 3.64513851356454 3.9549219254442
    vertex 1.75173837455813 5.58049037130928 3.37205082838322
  endloop
endfacet
facet normal -8.9209020025831e-015 0.288376048415491 0.957517234675317
  outer loop
    vertex 1.75173837455811 3.64513851356454 3.9549219254442
    vertex -9.02389274415327e-014 5.58049037130928 3.3720508283832
    vertex -1.12798659301916e-013 3.64513851356454 3.95492192544419
  endloop
endfacet
facet normal -9.30906188149118e-015 0.0324976550648292 0.999471811716212
  outer loop
    vertex -9.02389274415327e-014 13.5759724028269 2.32663307294851
    vertex 1.75173837455813 11.5558211642704 2.39231794505779
    vertex 1.75173837455813 13.5759724028269 2.32663307294853
  endloop
endfacet
facet normal -9.30906188149118e-015 0.0324976550648292 0.999471811716212
  outer loop
    vertex 1.75173837455813 11.5558211642704 2.39231794505779
    vertex -9.02389274415327e-014 13.5759724028269 2.32663307294851
    vertex -9.02389274415327e-014 11.5558211642704 2.39231794505778
  endloop
endfacet
facet normal -2.68232513621166e-017 1.0 -4.07159909759609e-015
  outer loop
    vertex 31.501703481872 1.75173837455831 3.95507719210659
    vertex 27.8818357950529 1.75173837455831 4.66228423902635
    vertex 29.6335741696112 1.75173837455831 4.66228423902635
  endloop
endfacet
facet normal -2.68232513621166e-017 1.0 -4.07159909759609e-015
  outer loop
    vertex 27.8818357950529 1.75173837455831 4.66228423902635
    vertex 31.501703481872 1.75173837455831 3.95507719210659
    vertex 25.7744540412939 1.75173837455831 3.95380037341183
  endloop
endfacet
facet normal -2.68232513621166e-017 1.0 -4.07159909759609e-015
  outer loop
    vertex 25.7744540412939 1.75173837455831 3.95380037341183
    vertex 31.501703481872 1.75173837455831 3.95507719210659
    vertex 33.4122898782839 1.75173837455831 3.37223196703724
  endloop
endfacet
facet normal -2.68232513621166e-017 1.0 -4.07159909759609e-015
  outer loop
    vertex 25.7744540412939 1.75173837455831 3.95380037341183
    vertex 33.4122898782839 1.75173837455831 3.37223196703724
    vertex 23.6289818261904 1.75173837455831 3.37074272777818
  endloop
endfacet
facet normal -2.68232513621166e-017 1.0 -4.07159909759609e-015
  outer loop
    vertex 23.6289818261904 1.75173837455831 3.37074272777818
    vertex 33.4122898782839 1.75173837455831 3.37223196703724
    vertex 35.3570645636119 1.75173837455831 2.91627105001888
  endloop
endfacet
facet normal -2.68232513621166e-017 1.0 -4.07159909759609e-015
  outer loop
    vertex 23.6289818261904 1.75173837455831 3.37074272777818
    vertex 35.3570645636119 1.75173837455831 2.91627105001888
    vertex 21.452877126591 1.75173837455831 2.91513809622314
  endloop
endfacet
facet normal -2.68232513621166e-017 1.0 -4.07159909759609e-015
  outer loop
    vertex 21.452877126591 1.75173837455831 2.91513809622314
    vertex 35.3570645636119 1.75173837455831 2.91627105001888
    vertex 37.3276107796909 1.7517383745583 2.58916778675585
  endloop
endfacet
facet normal -2.68232513621166e-017 1.0 -4.07159909759609e-015
  outer loop
    vertex 21.452877126591 1.75173837455831 2.91513809622314
    vertex 37.3276107796909 1.7517383745583 2.58916778675585
    vertex 19.253704402364 1.7517383745583 2.58857022742931
  endloop
endfacet
facet normal -2.68232513621166e-017 1.0 -4.07159909759609e-015
  outer loop
    vertex 19.253704402364 1.7517383745583 2.58857022742931
    vertex 37.3276107796909 1.7517383745583 2.58916778675585
    vertex 39.3154002321748 1.7517383745583 2.39233784204603
  endloop
endfacet
facet normal -2.68232513621166e-017 1.0 -4.07159909759609e-015
  outer loop
    vertex 19.253704402364 1.7517383745583 2.58857022742931
    vertex 39.3154002321748 1.7517383745583 2.39233784204603
    vertex 17.0391083012225 1.7517383745583 2.39217431932085
  endloop
endfacet
facet normal -2.68232513621166e-017 1.0 -4.07159909759609e-015
  outer loop
    vertex 17.0391083012225 1.7517383745583 2.39217431932085
    vertex 39.3154002321748 1.7517383745583 2.39233784204603
    vertex 41.31183 1.7517383745583 2.32663307294861
  endloop
endfacet
facet normal -2.68232513621166e-017 1.0 -4.07159909759609e-015
  outer loop
    vertex 17.0391083012225 1.7517383745583 2.39217431932085
    vertex 41.31183 1.7517383745583 2.32663307294861
    vertex 14.8167870848056 1.7517383745583 2.32663307294859
  endloop
endfacet
facet normal -2.68232513621166e-017 1.0 -4.07159909759609e-015
  outer loop
    vertex 80.8719216254417 1.75173837455829 6.27442542366907e-014
    vertex 78.7645398716826 1.75173837455831 3.95380037341189
    vertex 80.8719216254417 1.75173837455832 4.66228423902642
  endloop
endfacet
facet normal -2.68232513621166e-017 1.0 -4.07159909759609e-015
  outer loop
    vertex 78.7645398716826 1.75173837455831 3.95380037341189
    vertex 80.8719216254417 1.75173837455829 6.27442542366907e-014
    vertex 76.6190676565791 1.75173837455831 3.37074272777823
  endloop
endfacet
facet normal -2.68232513621166e-017 1.0 -4.07159909759609e-015
  outer loop
    vertex 76.6190676565791 1.75173837455831 3.37074272777823
    vertex 80.8719216254417 1.75173837455829 6.27442542366907e-014
    vertex 74.4429629569798 1.75173837455831 2.9151380962232
  endloop
endfacet
facet normal -2.68232513621166e-017 1.0 -4.07159909759609e-015
  outer loop
    vertex 74.4429629569798 1.75173837455831 2.9151380962232
    vertex 80.8719216254417 1.75173837455829 6.27442542366907e-014
    vertex 72.2437902327527 1.75173837455831 2.58857022742937
  endloop
endfacet
facet normal -2.68232513621166e-017 1.0 -4.07159909759609e-015
  outer loop
    vertex 72.2437902327527 1.75173837455831 2.58857022742937
    vertex 80.8719216254417 1.75173837455829 6.27442542366907e-014
    vertex 70.0291941316112 1.75173837455831 2.39217431932089
  endloop
endfacet
facet normal -2.68232513621166e-017 1.0 -4.07159909759609e-015
  outer loop
    vertex 70.0291941316112 1.75173837455831 2.39217431932089
    vertex 80.8719216254417 1.75173837455829 6.27442542366907e-014
    vertex 67.8068729151943 1.75173837455831 2.32663307294863
  endloop
endfacet
facet normal -2.68232513621166e-017 1.0 -4.07159909759609e-015
  outer loop
    vertex 67.8068729151943 1.75173837455831 2.32663307294863
    vertex 80.8719216254417 1.75173837455829 6.27442542366907e-014
    vertex 41.31183 1.7517383745583 2.32663307294861
  endloop
endfacet
facet normal -2.68232513621166e-017 1.0 -4.07159909759609e-015
  outer loop
    vertex 3.8591201283173 1.75173837455831 3.95380037341182
    vertex 1.7517383745582 1.75173837455829 -7.75490782700672e-015
    vertex 1.7517383745582 1.75173837455832 4.66228423902635
  endloop
endfacet
facet normal -2.68232513621166e-017 1.0 -4.07159909759609e-015
  outer loop
    vertex 1.7517383745582 1.75173837455829 -7.75490782700672e-015
    vertex 3.8591201283173 1.75173837455831 3.95380037341182
    vertex 6.00459234342075 1.75173837455831 3.37074272777817
  endloop
endfacet
facet normal -2.68232513621166e-017 1.0 -4.07159909759609e-015
  outer loop
    vertex 1.7517383745582 1.75173837455829 -7.75490782700672e-015
    vertex 6.00459234342075 1.75173837455831 3.37074272777817
    vertex 8.18069704302011 1.75173837455831 2.91513809622314
  endloop
endfacet
facet normal -2.68232513621166e-017 1.0 -4.07159909759609e-015
  outer loop
    vertex 1.7517383745582 1.75173837455829 -7.75490782700672e-015
    vertex 8.18069704302011 1.75173837455831 2.91513809622314
    vertex 10.3798697672472 1.7517383745583 2.58857022742931
  endloop
endfacet
facet normal -2.68232513621166e-017 1.0 -4.07159909759609e-015
  outer loop
    vertex 1.7517383745582 1.75173837455829 -7.75490782700672e-015
    vertex 10.3798697672472 1.7517383745583 2.58857022742931
    vertex 12.5944658683886 1.7517383745583 2.39217431932085
  endloop
endfacet
facet normal -2.68232513621166e-017 1.0 -4.07159909759609e-015
  outer loop
    vertex 1.7517383745582 1.75173837455829 -7.75490782700672e-015
    vertex 12.5944658683886 1.7517383745583 2.39217431932085
    vertex 14.8167870848056 1.7517383745583 2.32663307294859
  endloop
endfacet
facet normal -2.68232513621166e-017 1.0 -4.07159909759609e-015
  outer loop
    vertex 1.7517383745582 1.75173837455829 -7.75490782700672e-015
    vertex 14.8167870848056 1.7517383745583 2.32663307294859
    vertex 41.31183 1.7517383745583 2.32663307294861
  endloop
endfacet
facet normal -2.68232513621166e-017 1.0 -4.07159909759609e-015
  outer loop
    vertex 1.7517383745582 1.75173837455829 -7.75490782700672e-015
    vertex 41.31183 1.7517383745583 2.32663307294861
    vertex 80.8719216254417 1.75173837455829 6.27442542366907e-014
  endloop
endfacet
facet normal -2.68232513621166e-017 1.0 -4.07159909759609e-015
  outer loop
    vertex 54.741824204947 1.75173837455831 4.66228423902636
    vertex 51.121956518128 1.7517383745583 3.9550771921066
    vertex 52.9900858303887 1.75173837455831 4.66228423902636
  endloop
endfacet
facet normal -2.68232513621166e-017 1.0 -4.07159909759609e-015
  outer loop
    vertex 51.121956518128 1.7517383745583 3.9550771921066
    vertex 54.741824204947 1.75173837455831 4.66228423902636
    vertex 56.8492059587061 1.75173837455831 3.95380037341185
  endloop
endfacet
facet normal -2.68232513621166e-017 1.0 -4.07159909759609e-015
  outer loop
    vertex 51.121956518128 1.7517383745583 3.9550771921066
    vertex 56.8492059587061 1.75173837455831 3.95380037341185
    vertex 49.211370121716 1.7517383745583 3.37223196703725
  endloop
endfacet
facet normal -2.68232513621166e-017 1.0 -4.07159909759609e-015
  outer loop
    vertex 49.211370121716 1.7517383745583 3.37223196703725
    vertex 56.8492059587061 1.75173837455831 3.95380037341185
    vertex 58.9946781738095 1.75173837455831 3.3707427277782
  endloop
endfacet
facet normal -2.68232513621166e-017 1.0 -4.07159909759609e-015
  outer loop
    vertex 49.211370121716 1.7517383745583 3.37223196703725
    vertex 58.9946781738095 1.75173837455831 3.3707427277782
    vertex 47.266595436388 1.7517383745583 2.91627105001889
  endloop
endfacet
facet normal -2.68232513621166e-017 1.0 -4.07159909759609e-015
  outer loop
    vertex 47.266595436388 1.7517383745583 2.91627105001889
    vertex 58.9946781738095 1.75173837455831 3.3707427277782
    vertex 61.1707828734089 1.75173837455831 2.91513809622317
  endloop
endfacet
facet normal -2.68232513621166e-017 1.0 -4.07159909759609e-015
  outer loop
    vertex 47.266595436388 1.7517383745583 2.91627105001889
    vertex 61.1707828734089 1.75173837455831 2.91513809622317
    vertex 45.296049220309 1.7517383745583 2.58916778675585
  endloop
endfacet
facet normal -2.68232513621166e-017 1.0 -4.07159909759609e-015
  outer loop
    vertex 45.296049220309 1.7517383745583 2.58916778675585
    vertex 61.1707828734089 1.75173837455831 2.91513809622317
    vertex 63.3699555976359 1.75173837455831 2.58857022742934
  endloop
endfacet
facet normal -2.68232513621166e-017 1.0 -4.07159909759609e-015
  outer loop
    vertex 45.296049220309 1.7517383745583 2.58916778675585
    vertex 63.3699555976359 1.75173837455831 2.58857022742934
    vertex 43.3082597678251 1.7517383745583 2.39233784204603
  endloop
endfacet
facet normal -2.68232513621166e-017 1.0 -4.07159909759609e-015
  outer loop
    vertex 43.3082597678251 1.7517383745583 2.39233784204603
    vertex 63.3699555976359 1.75173837455831 2.58857022742934
    vertex 65.5845516987774 1.75173837455831 2.39217431932089
  endloop
endfacet
facet normal -2.68232513621166e-017 1.0 -4.07159909759609e-015
  outer loop
    vertex 43.3082597678251 1.7517383745583 2.39233784204603
    vertex 65.5845516987774 1.75173837455831 2.39217431932089
    vertex 41.31183 1.7517383745583 2.32663307294861
  endloop
endfacet
facet normal -2.68232513621166e-017 1.0 -4.07159909759609e-015
  outer loop
    vertex 41.31183 1.7517383745583 2.32663307294861
    vertex 65.5845516987774 1.75173837455831 2.39217431932089
    vertex 67.8068729151943 1.75173837455831 2.32663307294863
  endloop
endfacet
facet normal -9.30840388196928e-015 -0.0324976550648199 0.999471811716212
  outer loop
    vertex -9.02389274415327e-014 15.5961236413833 2.39231794505776
    vertex 1.75173837455813 13.5759724028269 2.32663307294853
    vertex 1.75173837455813 15.5961236413833 2.39231794505777
  endloop
endfacet
facet normal -9.30840388196928e-015 -0.0324976550648199 0.999471811716212
  outer loop
    vertex 1.75173837455813 13.5759724028269 2.32663307294853
    vertex -9.02389274415327e-014 15.5961236413833 2.39231794505776
    vertex -9.02389274415327e-014 13.5759724028269 2.32663307294851
  endloop
endfacet
facet normal -9.1925658922797e-015 0.161802441359713 0.986823170568079
  outer loop
    vertex -9.02389274415327e-014 9.54420383308919 2.5890950828464
    vertex 1.75173837455813 7.5496182661024 2.91613322287461
    vertex 1.75173837455813 9.54420383308919 2.58909508284642
  endloop
endfacet
facet normal -9.1925658922797e-015 0.161802441359713 0.986823170568079
  outer loop
    vertex 1.75173837455813 7.5496182661024 2.91613322287461
    vertex -9.02389274415327e-014 9.54420383308919 2.5890950828464
    vertex -9.02389274415327e-014 7.5496182661024 2.9161332228746
  endloop
endfacet
facet normal -7.48455977438917e-015 -0.349968200203123 0.936761580577783
  outer loop
    vertex -1.12798659301916e-013 25.4002064310955 4.66228423902621
    vertex 1.75173837455811 23.5068062920892 3.95492192544409
    vertex 1.75173837455811 25.4002064310955 4.66228423902622
  endloop
endfacet
facet normal -7.48455977438917e-015 -0.349968200203123 0.936761580577783
  outer loop
    vertex 1.75173837455811 23.5068062920892 3.95492192544409
    vertex -1.12798659301916e-013 25.4002064310955 4.66228423902621
    vertex -1.12798659301916e-013 23.5068062920892 3.95492192544408
  endloop
endfacet
facet normal -9.2868175081082e-016 0.225565683634961 0.974227962217413
  outer loop
    vertex 82.62366 7.5496182661024 2.91613322287468
    vertex 80.8719216254417 5.58049037130928 3.37205082838327
    vertex 82.62366 5.58049037130929 3.37205082838327
  endloop
endfacet
facet normal -9.2868175081082e-016 0.225565683634961 0.974227962217413
  outer loop
    vertex 80.8719216254417 5.58049037130928 3.37205082838327
    vertex 82.62366 7.5496182661024 2.91613322287468
    vertex 80.8719216254417 7.5496182661024 2.91613322287467
  endloop
endfacet
facet normal -6.55674621188567e-016 -0.161802441359704 0.986823170568081
  outer loop
    vertex 80.8719216254417 19.6023265395513 2.9161332228746
    vertex 82.62366 17.6077409725646 2.58909508284643
    vertex 82.62366 19.6023265395513 2.9161332228746
  endloop
endfacet
facet normal -6.55674621188567e-016 -0.161802441359704 0.986823170568081
  outer loop
    vertex 82.62366 17.6077409725646 2.58909508284643
    vertex 80.8719216254417 19.6023265395513 2.9161332228746
    vertex 80.8719216254417 17.6077409725646 2.58909508284643
  endloop
endfacet
facet normal -8.51538167903072e-016 0.0973556824143855 0.995249652650846
  outer loop
    vertex 82.62366 11.5558211642704 2.39231794505786
    vertex 80.8719216254417 9.54420383308919 2.58909508284648
    vertex 82.62366 9.54420383308919 2.58909508284648
  endloop
endfacet
facet normal -8.51538167903072e-016 0.0973556824143855 0.995249652650846
  outer loop
    vertex 80.8719216254417 9.54420383308919 2.58909508284648
    vertex 82.62366 11.5558211642704 2.39231794505786
    vertex 80.8719216254417 11.5558211642704 2.39231794505786
  endloop
endfacet
facet normal -4.83036651150229e-015 0.349968200203132 0.93676158057778
  outer loop
    vertex 1.75173837455811 3.64513851356454 3.9549219254442
    vertex -1.12798659301916e-013 1.75173837455831 4.66228423902634
    vertex 1.7517383745582 1.75173837455832 4.66228423902635
  endloop
endfacet
facet normal -4.83036651150229e-015 0.349968200203132 0.93676158057778
  outer loop
    vertex -1.12798659301916e-013 1.75173837455831 4.66228423902634
    vertex 1.75173837455811 3.64513851356454 3.9549219254442
    vertex -1.12798659301916e-013 3.64513851356454 3.95492192544419
  endloop
endfacet
facet normal 1.0 6.94441478286869e-016 8.07151449134398e-016
  outer loop
    vertex 82.62366 5.33356955593256e-016 7.40241201668823e-014
    vertex 82.62366 7.5496182661024 2.91613322287468
    vertex 82.62366 2.70978291866532e-014 4.66228423902639
  endloop
endfacet
facet normal 1.0 6.94441478286869e-016 8.07151449134398e-016
  outer loop
    vertex 82.62366 7.5496182661024 2.91613322287468
    vertex 82.62366 5.33356955593256e-016 7.40241201668823e-014
    vertex 82.62366 9.54420383308919 2.58909508284648
  endloop
endfacet
facet normal 1.0 6.94441478286869e-016 8.07151449134398e-016
  outer loop
    vertex 82.62366 9.54420383308919 2.58909508284648
    vertex 82.62366 5.33356955593256e-016 7.40241201668823e-014
    vertex 82.62366 27.1519448056537 -8.03690447526151e-014
  endloop
endfacet
facet normal 1.0 6.94441478286869e-016 8.07151449134398e-016
  outer loop
    vertex 82.62366 2.70978291866532e-014 4.66228423902639
    vertex 82.62366 7.5496182661024 2.91613322287468
    vertex 82.62366 5.58049037130929 3.37205082838327
  endloop
endfacet
facet normal 1.0 6.94441478286869e-016 8.07151449134398e-016
  outer loop
    vertex 82.62366 2.70978291866532e-014 4.66228423902639
    vertex 82.62366 5.58049037130929 3.37205082838327
    vertex 82.62366 3.64513851356455 3.95492192544426
  endloop
endfacet
facet normal 1.0 6.94441478286869e-016 8.07151449134398e-016
  outer loop
    vertex 82.62366 2.70978291866532e-014 4.66228423902639
    vertex 82.62366 3.64513851356455 3.95492192544426
    vertex 82.62366 1.75173837455833 4.66228423902642
  endloop
endfacet
facet normal 1.0 6.94441478286869e-016 8.07151449134398e-016
  outer loop
    vertex 82.62366 9.54420383308919 2.58909508284648
    vertex 82.62366 27.1519448056537 -8.03690447526151e-014
    vertex 82.62366 11.5558211642704 2.39231794505786
  endloop
endfacet
facet normal 1.0 6.94441478286869e-016 8.07151449134398e-016
  outer loop
    vertex 82.62366 11.5558211642704 2.39231794505786
    vertex 82.62366 27.1519448056537 -8.03690447526151e-014
    vertex 82.62366 13.5759724028269 2.32663307294859
  endloop
endfacet
facet normal 1.0 6.94441478286869e-016 8.07151449134398e-016
  outer loop
    vertex 82.62366 13.5759724028269 2.32663307294859
    vertex 82.62366 27.1519448056537 -8.03690447526151e-014
    vertex 82.62366 15.5961236413833 2.39231794505783
  endloop
endfacet
facet normal 1.0 6.94441478286869e-016 8.07151449134398e-016
  outer loop
    vertex 82.62366 15.5961236413833 2.39231794505783
    vertex 82.62366 27.1519448056537 -8.03690447526151e-014
    vertex 82.62366 17.6077409725646 2.58909508284643
  endloop
endfacet
facet normal 1.0 6.94441478286869e-016 8.07151449134398e-016
  outer loop
    vertex 82.62366 17.6077409725646 2.58909508284643
    vertex 82.62366 27.1519448056537 -8.03690447526151e-014
    vertex 82.62366 19.6023265395513 2.9161332228746
  endloop
endfacet
facet normal 1.0 6.94441478286869e-016 8.07151449134398e-016
  outer loop
    vertex 82.62366 19.6023265395513 2.9161332228746
    vertex 82.62366 27.1519448056537 -8.03690447526151e-014
    vertex 82.62366 21.5714544343445 3.37205082838319
  endloop
endfacet
facet normal 1.0 6.94441478286869e-016 8.07151449134398e-016
  outer loop
    vertex 82.62366 21.5714544343445 3.37205082838319
    vertex 82.62366 27.1519448056537 -8.03690447526151e-014
    vertex 82.62366 23.5068062920892 3.95492192544416
  endloop
endfacet
facet normal 1.0 6.94441478286869e-016 8.07151449134398e-016
  outer loop
    vertex 82.62366 23.5068062920892 3.95492192544416
    vertex 82.62366 27.1519448056537 -8.03690447526151e-014
    vertex 82.62366 25.4002064310954 4.66228423902628
  endloop
endfacet
facet normal 1.0 6.94441478286869e-016 8.07151449134398e-016
  outer loop
    vertex 82.62366 25.4002064310954 4.66228423902628
    vertex 82.62366 27.1519448056537 -8.03690447526151e-014
    vertex 82.62366 27.1519448056538 4.66228423902627
  endloop
endfacet
facet normal -9.18928978116201e-015 -0.161802441359703 0.986823170568081
  outer loop
    vertex -9.02389274415327e-014 19.6023265395513 2.91613322287452
    vertex 1.75173837455813 17.6077409725646 2.58909508284637
    vertex 1.75173837455813 19.6023265395513 2.91613322287454
  endloop
endfacet
facet normal -9.18928978116201e-015 -0.161802441359703 0.986823170568081
  outer loop
    vertex 1.75173837455813 17.6077409725646 2.58909508284637
    vertex -9.02389274415327e-014 19.6023265395513 2.91613322287452
    vertex -9.02389274415327e-014 17.6077409725646 2.58909508284635
  endloop
endfacet
facet normal -7.60020862658726e-016 -0.0324976550648178 0.999471811716212
  outer loop
    vertex 82.62366 15.5961236413833 2.39231794505783
    vertex 80.8719216254417 13.5759724028269 2.32663307294859
    vertex 82.62366 13.5759724028269 2.32663307294859
  endloop
endfacet
facet normal -7.60020862658726e-016 -0.0324976550648178 0.999471811716212
  outer loop
    vertex 80.8719216254417 13.5759724028269 2.32663307294859
    vertex 82.62366 15.5961236413833 2.39231794505783
    vertex 80.8719216254417 15.5961236413833 2.39231794505783
  endloop
endfacet
facet normal -9.61446362578313e-016 0.288376048415493 0.957517234675316
  outer loop
    vertex 80.8719216254417 5.58049037130928 3.37205082838327
    vertex 82.62366 3.64513851356455 3.95492192544426
    vertex 82.62366 5.58049037130929 3.37205082838327
  endloop
endfacet
facet normal -9.61446362578313e-016 0.288376048415493 0.957517234675316
  outer loop
    vertex 82.62366 3.64513851356455 3.95492192544426
    vertex 80.8719216254417 5.58049037130928 3.37205082838327
    vertex 80.8719216254417 3.64513851356455 3.95492192544426
  endloop
endfacet
facet normal 8.58572472376795e-015 -3.77616553907696e-015 1.0
  outer loop
    vertex 80.8719216254417 1.75173837455832 4.66228423902642
    vertex 82.62366 2.70978291866532e-014 4.66228423902639
    vertex 82.62366 1.75173837455833 4.66228423902642
  endloop
endfacet
facet normal 8.58572472376795e-015 -3.77616553907696e-015 1.0
  outer loop
    vertex 82.62366 2.70978291866532e-014 4.66228423902639
    vertex 80.8719216254417 1.75173837455832 4.66228423902642
    vertex 80.8719216254417 9.836021818885e-015 4.66228423902643
  endloop
endfacet
facet normal -8.04576930793517e-016 -0.349968200203122 0.936761580577784
  outer loop
    vertex 80.8719216254417 25.4002064310954 4.66228423902628
    vertex 82.62366 23.5068062920892 3.95492192544416
    vertex 82.62366 25.4002064310954 4.66228423902628
  endloop
endfacet
facet normal -8.04576930793517e-016 -0.349968200203122 0.936761580577784
  outer loop
    vertex 82.62366 23.5068062920892 3.95492192544416
    vertex 80.8719216254417 25.4002064310954 4.66228423902628
    vertex 80.8719216254417 23.5068062920892 3.95492192544415
  endloop
endfacet
facet normal -8.91994024827342e-016 0.161802441359714 0.986823170568079
  outer loop
    vertex 82.62366 9.54420383308919 2.58909508284648
    vertex 80.8719216254417 7.5496182661024 2.91613322287467
    vertex 82.62366 7.5496182661024 2.91613322287468
  endloop
endfacet
facet normal -8.91994024827342e-016 0.161802441359714 0.986823170568079
  outer loop
    vertex 80.8719216254417 7.5496182661024 2.91613322287467
    vertex 82.62366 9.54420383308919 2.58909508284648
    vertex 80.8719216254417 9.54420383308919 2.58909508284648
  endloop
endfacet
facet normal -5.4026077840193e-016 -0.28837604841548 0.95751723467532
  outer loop
    vertex 82.62366 23.5068062920892 3.95492192544416
    vertex 80.8719216254417 21.5714544343445 3.37205082838319
    vertex 82.62366 21.5714544343445 3.37205082838319
  endloop
endfacet
facet normal -5.4026077840193e-016 -0.28837604841548 0.95751723467532
  outer loop
    vertex 80.8719216254417 21.5714544343445 3.37205082838319
    vertex 82.62366 23.5068062920892 3.95492192544416
    vertex 80.8719216254417 23.5068062920892 3.95492192544415
  endloop
endfacet
facet normal -9.27039476993716e-015 0.0973556824143854 0.995249652650846
  outer loop
    vertex -9.02389274415327e-014 11.5558211642704 2.39231794505778
    vertex 1.75173837455813 9.54420383308919 2.58909508284642
    vertex 1.75173837455813 11.5558211642704 2.39231794505779
  endloop
endfacet
facet normal -9.27039476993716e-015 0.0973556824143854 0.995249652650846
  outer loop
    vertex 1.75173837455813 9.54420383308919 2.58909508284642
    vertex -9.02389274415327e-014 11.5558211642704 2.39231794505778
    vertex -9.02389274415327e-014 9.54420383308919 2.5890950828464
  endloop
endfacet
facet normal -8.07485081369149e-016 0.0324976550648292 0.999471811716212
  outer loop
    vertex 80.8719216254417 13.5759724028269 2.32663307294859
    vertex 82.62366 11.5558211642704 2.39231794505786
    vertex 82.62366 13.5759724028269 2.32663307294859
  endloop
endfacet
facet normal -8.07485081369149e-016 0.0324976550648292 0.999471811716212
  outer loop
    vertex 82.62366 11.5558211642704 2.39231794505786
    vertex 80.8719216254417 13.5759724028269 2.32663307294859
    vertex 80.8719216254417 11.5558211642704 2.39231794505786
  endloop
endfacet
facet normal -4.44089209850081e-015 9.25045128319156e-015 1.0
  outer loop
    vertex -1.12798659301916e-013 27.1519448056538 4.6622842390262
    vertex 1.75173837455811 25.4002064310955 4.66228423902622
    vertex 1.75173837455811 27.1519448056538 4.6622842390262
  endloop
endfacet
facet normal -4.44089209850081e-015 9.25045128319156e-015 1.0
  outer loop
    vertex 1.75173837455811 25.4002064310955 4.66228423902622
    vertex -1.12798659301916e-013 27.1519448056538 4.6622842390262
    vertex -1.12798659301916e-013 25.4002064310955 4.66228423902621
  endloop
endfacet
endsolid Untitled-5b1aeaba
