solid Untitled-5b1ae81a
facet normal 0.0 0.0 -1.0
  outer loop
    vertex 58.2457002439024 5.25525114982578 -9.0260903853968e-016
    vertex 52.9904490940767 3.52495810318487e-016 -9.0260903853968e-016
    vertex 52.9904490940767 5.25525114982578 -9.0260903853968e-016
  endloop
endfacet
facet normal 0.0 0.0 -1.0
  outer loop
    vertex 52.9904490940767 3.52495810318487e-016 -9.0260903853968e-016
    vertex 58.2457002439024 5.25525114982578 -9.0260903853968e-016
    vertex 58.2457002439024 8.71118106027324e-016 -9.0260903853968e-016
  endloop
endfacet
facet normal -1.0 0.0 0.0
  outer loop
    vertex 52.9904490940767 5.25525114982578 19.853171010453
    vertex 52.9904490940767 3.52495810318487e-016 -9.0260903853968e-016
    vertex 52.9904490940767 3.52495810318487e-016 19.853171010453
  endloop
endfacet
facet normal -1.0 0.0 0.0
  outer loop
    vertex 52.9904490940767 3.52495810318487e-016 -9.0260903853968e-016
    vertex 52.9904490940767 5.25525114982578 19.853171010453
    vertex 52.9904490940767 5.25525114982578 -9.0260903853968e-016
  endloop
endfacet
facet normal 0.0 1.0 0.0
  outer loop
    vertex 52.9904490940767 5.25525114982578 19.853171010453
    vertex 58.2457002439024 5.25525114982578 -9.0260903853968e-016
    vertex 52.9904490940767 5.25525114982578 -9.0260903853968e-016
  endloop
endfacet
facet normal 0.0 1.0 0.0
  outer loop
    vertex 58.2457002439024 5.25525114982578 -9.0260903853968e-016
    vertex 52.9904490940767 5.25525114982578 19.853171010453
    vertex 58.2457002439024 5.25525114982578 19.853171010453
  endloop
endfacet
facet normal 1.0 0.0 0.0
  outer loop
    vertex 58.2457002439024 5.25525114982578 -9.0260903853968e-016
    vertex 58.2457002439024 8.71118106027324e-016 19.853171010453
    vertex 58.2457002439024 8.71118106027324e-016 -9.0260903853968e-016
  endloop
endfacet
facet normal 1.0 0.0 0.0
  outer loop
    vertex 58.2457002439024 8.71118106027324e-016 19.853171010453
    vertex 58.2457002439024 5.25525114982578 -9.0260903853968e-016
    vertex 58.2457002439024 5.25525114982578 19.853171010453
  endloop
endfacet
facet normal 0.0 -1.0 0.0
  outer loop
    vertex 58.2457002439024 8.71118106027324e-016 19.853171010453
    vertex 52.9904490940767 3.52495810318487e-016 -9.0260903853968e-016
    vertex 58.2457002439024 8.71118106027324e-016 -9.0260903853968e-016
  endloop
endfacet
facet normal 0.0 -1.0 0.0
  outer loop
    vertex 52.9904490940767 3.52495810318487e-016 -9.0260903853968e-016
    vertex 58.2457002439024 8.71118106027324e-016 19.853171010453
    vertex 52.9904490940767 3.52495810318487e-016 19.853171010453
  endloop
endfacet
facet normal 0.0 0.0 -1.0
  outer loop
    vertex 52.114573902439 6.13112634146342 19.853171010453
    vertex 52.9904490940767 5.25525114982578 19.853171010453
    vertex 52.114573902439 -0.875875191637629 19.853171010453
  endloop
endfacet
facet normal 0.0 0.0 -1.0
  outer loop
    vertex 52.9904490940767 5.25525114982578 19.853171010453
    vertex 52.114573902439 6.13112634146342 19.853171010453
    vertex 59.1215754355401 6.13112634146342 19.853171010453
  endloop
endfacet
facet normal 0.0 0.0 -1.0
  outer loop
    vertex 52.9904490940767 5.25525114982578 19.853171010453
    vertex 59.1215754355401 6.13112634146342 19.853171010453
    vertex 58.2457002439024 5.25525114982578 19.853171010453
  endloop
endfacet
facet normal 0.0 0.0 -1.0
  outer loop
    vertex 58.2457002439024 5.25525114982578 19.853171010453
    vertex 59.1215754355401 6.13112634146342 19.853171010453
    vertex 58.2457002439024 8.71118106027324e-016 19.853171010453
  endloop
endfacet
facet normal 0.0 0.0 -1.0
  outer loop
    vertex 52.114573902439 -0.875875191637629 19.853171010453
    vertex 52.9904490940767 3.52495810318487e-016 19.853171010453
    vertex 59.1215754355401 -0.87587519163763 19.853171010453
  endloop
endfacet
facet normal 0.0 0.0 -1.0
  outer loop
    vertex 52.9904490940767 3.52495810318487e-016 19.853171010453
    vertex 52.114573902439 -0.875875191637629 19.853171010453
    vertex 52.9904490940767 5.25525114982578 19.853171010453
  endloop
endfacet
facet normal 0.0 0.0 -1.0
  outer loop
    vertex 59.1215754355401 -0.87587519163763 19.853171010453
    vertex 52.9904490940767 3.52495810318487e-016 19.853171010453
    vertex 58.2457002439024 8.71118106027324e-016 19.853171010453
  endloop
endfacet
facet normal 0.0 0.0 -1.0
  outer loop
    vertex 59.1215754355401 -0.87587519163763 19.853171010453
    vertex 58.2457002439024 8.71118106027324e-016 19.853171010453
    vertex 59.1215754355401 6.13112634146342 19.853171010453
  endloop
endfacet
facet normal 0.0 0.0 1.0
  outer loop
    vertex 52.114573902439 -0.875875191637629 20.7290462020906
    vertex 52.9904490940767 3.52495810318487e-016 20.7290462020906
    vertex 52.114573902439 6.13112634146342 20.7290462020906
  endloop
endfacet
facet normal 0.0 0.0 1.0
  outer loop
    vertex 52.9904490940767 3.52495810318487e-016 20.7290462020906
    vertex 52.114573902439 -0.875875191637629 20.7290462020906
    vertex 59.1215754355401 -0.87587519163763 20.7290462020906
  endloop
endfacet
facet normal 0.0 0.0 1.0
  outer loop
    vertex 52.9904490940767 3.52495810318487e-016 20.7290462020906
    vertex 59.1215754355401 -0.87587519163763 20.7290462020906
    vertex 56.676423858885 8.71118106027324e-016 20.7290462020906
  endloop
endfacet
facet normal 0.0 0.0 1.0
  outer loop
    vertex 56.676423858885 8.71118106027324e-016 20.7290462020906
    vertex 59.1215754355401 -0.87587519163763 20.7290462020906
    vertex 58.2457002439024 8.71118106027324e-016 20.7290462020906
  endloop
endfacet
facet normal 0.0 0.0 1.0
  outer loop
    vertex 58.2457002439024 8.71118106027324e-016 20.7290462020906
    vertex 59.1215754355401 -0.87587519163763 20.7290462020906
    vertex 58.2457002439024 5.25525114982578 20.7290462020906
  endloop
endfacet
facet normal 0.0 0.0 1.0
  outer loop
    vertex 52.114573902439 6.13112634146342 20.7290462020906
    vertex 52.9904490940767 5.25525114982578 20.7290462020906
    vertex 59.1215754355401 6.13112634146342 20.7290462020906
  endloop
endfacet
facet normal 0.0 0.0 1.0
  outer loop
    vertex 52.9904490940767 5.25525114982578 20.7290462020906
    vertex 52.114573902439 6.13112634146342 20.7290462020906
    vertex 52.9904490940767 3.52495810318487e-016 20.7290462020906
  endloop
endfacet
facet normal 0.0 0.0 1.0
  outer loop
    vertex 59.1215754355401 6.13112634146342 20.7290462020906
    vertex 52.9904490940767 5.25525114982578 20.7290462020906
    vertex 58.2457002439024 5.25525114982578 20.7290462020906
  endloop
endfacet
facet normal 0.0 0.0 1.0
  outer loop
    vertex 59.1215754355401 6.13112634146342 20.7290462020906
    vertex 58.2457002439024 5.25525114982578 20.7290462020906
    vertex 59.1215754355401 -0.87587519163763 20.7290462020906
  endloop
endfacet
facet normal 0.0 1.0 0.0
  outer loop
    vertex 52.114573902439 6.13112634146342 20.7290462020906
    vertex 59.1215754355401 6.13112634146342 19.853171010453
    vertex 52.114573902439 6.13112634146342 19.853171010453
  endloop
endfacet
facet normal 0.0 1.0 0.0
  outer loop
    vertex 59.1215754355401 6.13112634146342 19.853171010453
    vertex 52.114573902439 6.13112634146342 20.7290462020906
    vertex 59.1215754355401 6.13112634146342 20.7290462020906
  endloop
endfacet
facet normal -1.0 0.0 0.0
  outer loop
    vertex 52.114573902439 6.13112634146342 20.7290462020906
    vertex 52.114573902439 -0.875875191637629 19.853171010453
    vertex 52.114573902439 -0.875875191637629 20.7290462020906
  endloop
endfacet
facet normal -1.0 0.0 0.0
  outer loop
    vertex 52.114573902439 -0.875875191637629 19.853171010453
    vertex 52.114573902439 6.13112634146342 20.7290462020906
    vertex 52.114573902439 6.13112634146342 19.853171010453
  endloop
endfacet
facet normal 0.0 -1.0 0.0
  outer loop
    vertex 59.1215754355401 -0.87587519163763 20.7290462020906
    vertex 52.114573902439 -0.875875191637629 19.853171010453
    vertex 59.1215754355401 -0.87587519163763 19.853171010453
  endloop
endfacet
facet normal 0.0 -1.0 0.0
  outer loop
    vertex 52.114573902439 -0.875875191637629 19.853171010453
    vertex 59.1215754355401 -0.87587519163763 20.7290462020906
    vertex 52.114573902439 -0.875875191637629 20.7290462020906
  endloop
endfacet
facet normal 1.0 0.0 0.0
  outer loop
    vertex 59.1215754355401 6.13112634146342 19.853171010453
    vertex 59.1215754355401 -0.87587519163763 20.7290462020906
    vertex 59.1215754355401 -0.87587519163763 19.853171010453
  endloop
endfacet
facet normal 1.0 0.0 0.0
  outer loop
    vertex 59.1215754355401 -0.87587519163763 20.7290462020906
    vertex 59.1215754355401 6.13112634146342 19.853171010453
    vertex 59.1215754355401 6.13112634146342 20.7290462020906
  endloop
endfacet
facet normal 1.0 0.0 0.0
  outer loop
    vertex 52.9904490940767 5.25525114982578 19.853171010453
    vertex 52.9904490940767 3.52495810318487e-016 20.7290462020906
    vertex 52.9904490940767 3.52495810318487e-016 19.853171010453
  endloop
endfacet
facet normal 1.0 0.0 0.0
  outer loop
    vertex 52.9904490940767 3.52495810318487e-016 20.7290462020906
    vertex 52.9904490940767 5.25525114982578 19.853171010453
    vertex 52.9904490940767 5.25525114982578 20.7290462020906
  endloop
endfacet
facet normal 0.0 -1.0 0.0
  outer loop
    vertex 58.2457002439024 5.25525114982578 20.7290462020906
    vertex 52.9904490940767 5.25525114982578 19.853171010453
    vertex 58.2457002439024 5.25525114982578 19.853171010453
  endloop
endfacet
facet normal 0.0 -1.0 0.0
  outer loop
    vertex 52.9904490940767 5.25525114982578 19.853171010453
    vertex 58.2457002439024 5.25525114982578 20.7290462020906
    vertex 52.9904490940767 5.25525114982578 20.7290462020906
  endloop
endfacet
facet normal -1.0 0.0 0.0
  outer loop
    vertex 58.2457002439024 5.25525114982578 20.7290462020906
    vertex 58.2457002439024 8.71118106027324e-016 19.853171010453
    vertex 58.2457002439024 8.71118106027324e-016 20.7290462020906
  endloop
endfacet
facet normal -1.0 0.0 0.0
  outer loop
    vertex 58.2457002439024 8.71118106027324e-016 19.853171010453
    vertex 58.2457002439024 5.25525114982578 20.7290462020906
    vertex 58.2457002439024 5.25525114982578 19.853171010453
  endloop
endfacet
facet normal 0.0 1.0 0.0
  outer loop
    vertex 52.9904490940767 3.52495810318487e-016 20.7290462020906
    vertex 58.2457002439024 8.71118106027324e-016 19.853171010453
    vertex 52.9904490940767 3.52495810318487e-016 19.853171010453
  endloop
endfacet
facet normal 0.0 1.0 0.0
  outer loop
    vertex 58.2457002439024 8.71118106027324e-016 19.853171010453
    vertex 52.9904490940767 3.52495810318487e-016 20.7290462020906
    vertex 58.2457002439024 8.71118106027324e-016 20.7290462020906
  endloop
endfacet
facet normal 0.0 1.0 0.0
  outer loop
    vertex 58.2457002439024 8.71118106027324e-016 20.7290462020906
    vertex 52.9904490940767 3.52495810318487e-016 20.7290462020906
    vertex 56.676423858885 8.71118106027324e-016 20.7290462020906
  endloop
endfacet
facet normal 0.988389776155377 -7.19730657087235e-017 0.151939627456181
  outer loop
    vertex 58.2457002439024 5.25525114982578 20.7290462020906
    vertex 56.4939498606272 1.75175038327526 32.1244418483309
    vertex 58.2457002439024 8.71118106027324e-016 20.7290462020906
  endloop
endfacet
facet normal 0.988389776155377 -7.19730657087235e-017 0.151939627456181
  outer loop
    vertex 56.4939498606272 1.75175038327526 32.1244418483309
    vertex 58.2457002439024 5.25525114982578 20.7290462020906
    vertex 56.4939498606272 3.50350076655052 32.1244418483309
  endloop
endfacet
facet normal -0.988389776155377 -8.96575627544047e-018 0.151939627456181
  outer loop
    vertex 54.7421994773519 1.75175038327526 32.1244418483309
    vertex 52.9904490940767 5.25525114982578 20.7290462020906
    vertex 52.9904490940767 3.52495810318487e-016 20.7290462020906
  endloop
endfacet
facet normal -0.988389776155377 -8.96575627544047e-018 0.151939627456181
  outer loop
    vertex 52.9904490940767 5.25525114982578 20.7290462020906
    vertex 54.7421994773519 1.75175038327526 32.1244418483309
    vertex 54.7421994773519 3.50350076655052 32.1244418483309
  endloop
endfacet
facet normal -4.6891256945561e-017 -0.988389776155377 0.151939627456181
  outer loop
    vertex 56.4939498606272 1.75175038327526 32.1244418483309
    vertex 56.676423858885 8.71118106027324e-016 20.7290462020906
    vertex 58.2457002439024 8.71118106027324e-016 20.7290462020906
  endloop
endfacet
facet normal -4.6891256945561e-017 -0.988389776155377 0.151939627456181
  outer loop
    vertex 56.676423858885 8.71118106027324e-016 20.7290462020906
    vertex 56.4939498606272 1.75175038327526 32.1244418483309
    vertex 52.9904490940767 3.52495810318487e-016 20.7290462020906
  endloop
endfacet
facet normal -4.6891256945561e-017 -0.988389776155377 0.151939627456181
  outer loop
    vertex 52.9904490940767 3.52495810318487e-016 20.7290462020906
    vertex 56.4939498606272 1.75175038327526 32.1244418483309
    vertex 54.7421994773519 1.75175038327526 32.1244418483309
  endloop
endfacet
facet normal -7.19730657087235e-017 0.988389776155377 0.151939627456181
  outer loop
    vertex 54.7421994773519 3.50350076655052 32.1244418483309
    vertex 58.2457002439024 5.25525114982578 20.7290462020906
    vertex 52.9904490940767 5.25525114982578 20.7290462020906
  endloop
endfacet
facet normal -7.19730657087235e-017 0.988389776155377 0.151939627456181
  outer loop
    vertex 58.2457002439024 5.25525114982578 20.7290462020906
    vertex 54.7421994773519 3.50350076655052 32.1244418483309
    vertex 56.4939498606272 3.50350076655052 32.1244418483309
  endloop
endfacet
facet normal -2.368475785867e-015 -2.368475785867e-015 1.0
  outer loop
    vertex 54.7421994773519 1.75175038327526 32.1244418483309
    vertex 56.4939498606272 3.50350076655052 32.1244418483309
    vertex 54.7421994773519 3.50350076655052 32.1244418483309
  endloop
endfacet
facet normal -2.368475785867e-015 -2.368475785867e-015 1.0
  outer loop
    vertex 56.4939498606272 3.50350076655052 32.1244418483309
    vertex 54.7421994773519 1.75175038327526 32.1244418483309
    vertex 56.4939498606272 1.75175038327526 32.1244418483309
  endloop
endfacet
facet normal 0.0 0.0 -1.0
  outer loop
    vertex 86.1277271777004 5.25525114982578 -9.0260903853968e-016
    vertex 80.8724760278746 3.52495810318487e-016 -9.0260903853968e-016
    vertex 80.8724760278746 5.25525114982578 -9.0260903853968e-016
  endloop
endfacet
facet normal 0.0 0.0 -1.0
  outer loop
    vertex 80.8724760278746 3.52495810318487e-016 -9.0260903853968e-016
    vertex 86.1277271777004 5.25525114982578 -9.0260903853968e-016
    vertex 86.1277271777004 3.52495810318487e-016 -9.0260903853968e-016
  endloop
endfacet
facet normal 1.0 0.0 0.0
  outer loop
    vertex 86.1277271777004 5.25525114982578 -9.0260903853968e-016
    vertex 86.1277271777004 3.52495810318487e-016 19.853171010453
    vertex 86.1277271777004 3.52495810318487e-016 -9.0260903853968e-016
  endloop
endfacet
facet normal 1.0 0.0 0.0
  outer loop
    vertex 86.1277271777004 3.52495810318487e-016 19.853171010453
    vertex 86.1277271777004 5.25525114982578 -9.0260903853968e-016
    vertex 86.1277271777004 5.25525114982578 19.853171010453
  endloop
endfacet
facet normal 0.0 -1.0 0.0
  outer loop
    vertex 86.1277271777004 3.52495810318487e-016 19.853171010453
    vertex 80.8724760278746 3.52495810318487e-016 -9.0260903853968e-016
    vertex 86.1277271777004 3.52495810318487e-016 -9.0260903853968e-016
  endloop
endfacet
facet normal 0.0 -1.0 0.0
  outer loop
    vertex 80.8724760278746 3.52495810318487e-016 -9.0260903853968e-016
    vertex 86.1277271777004 3.52495810318487e-016 19.853171010453
    vertex 80.8724760278746 3.52495810318487e-016 19.853171010453
  endloop
endfacet
facet normal 0.0 1.0 0.0
  outer loop
    vertex 80.8724760278746 5.25525114982578 19.853171010453
    vertex 86.1277271777004 5.25525114982578 -9.0260903853968e-016
    vertex 80.8724760278746 5.25525114982578 -9.0260903853968e-016
  endloop
endfacet
facet normal 0.0 1.0 0.0
  outer loop
    vertex 86.1277271777004 5.25525114982578 -9.0260903853968e-016
    vertex 80.8724760278746 5.25525114982578 19.853171010453
    vertex 86.1277271777004 5.25525114982578 19.853171010453
  endloop
endfacet
facet normal -1.0 0.0 0.0
  outer loop
    vertex 80.8724760278746 5.25525114982578 19.853171010453
    vertex 80.8724760278746 3.52495810318487e-016 -9.0260903853968e-016
    vertex 80.8724760278746 3.52495810318487e-016 19.853171010453
  endloop
endfacet
facet normal -1.0 0.0 0.0
  outer loop
    vertex 80.8724760278746 3.52495810318487e-016 -9.0260903853968e-016
    vertex 80.8724760278746 5.25525114982578 19.853171010453
    vertex 80.8724760278746 5.25525114982578 -9.0260903853968e-016
  endloop
endfacet
facet normal 0.0 0.0 -1.0
  outer loop
    vertex 79.9966008362369 6.13112634146342 19.853171010453
    vertex 80.8724760278746 5.25525114982578 19.853171010453
    vertex 79.9966008362369 -0.87587519163763 19.853171010453
  endloop
endfacet
facet normal 0.0 0.0 -1.0
  outer loop
    vertex 80.8724760278746 5.25525114982578 19.853171010453
    vertex 79.9966008362369 6.13112634146342 19.853171010453
    vertex 87.003602369338 6.13112634146342 19.853171010453
  endloop
endfacet
facet normal 0.0 0.0 -1.0
  outer loop
    vertex 80.8724760278746 5.25525114982578 19.853171010453
    vertex 87.003602369338 6.13112634146342 19.853171010453
    vertex 86.1277271777004 5.25525114982578 19.853171010453
  endloop
endfacet
facet normal 0.0 0.0 -1.0
  outer loop
    vertex 86.1277271777004 5.25525114982578 19.853171010453
    vertex 87.003602369338 6.13112634146342 19.853171010453
    vertex 86.1277271777004 3.52495810318487e-016 19.853171010453
  endloop
endfacet
facet normal 0.0 0.0 -1.0
  outer loop
    vertex 79.9966008362369 -0.87587519163763 19.853171010453
    vertex 80.8724760278746 3.52495810318487e-016 19.853171010453
    vertex 87.003602369338 -0.87587519163763 19.853171010453
  endloop
endfacet
facet normal 0.0 0.0 -1.0
  outer loop
    vertex 80.8724760278746 3.52495810318487e-016 19.853171010453
    vertex 79.9966008362369 -0.87587519163763 19.853171010453
    vertex 80.8724760278746 5.25525114982578 19.853171010453
  endloop
endfacet
facet normal 0.0 0.0 -1.0
  outer loop
    vertex 87.003602369338 -0.87587519163763 19.853171010453
    vertex 80.8724760278746 3.52495810318487e-016 19.853171010453
    vertex 86.1277271777004 3.52495810318487e-016 19.853171010453
  endloop
endfacet
facet normal 0.0 0.0 -1.0
  outer loop
    vertex 87.003602369338 -0.87587519163763 19.853171010453
    vertex 86.1277271777004 3.52495810318487e-016 19.853171010453
    vertex 87.003602369338 6.13112634146342 19.853171010453
  endloop
endfacet
facet normal 0.0 0.0 1.0
  outer loop
    vertex 79.9966008362369 -0.87587519163763 20.7290462020906
    vertex 80.8724760278746 3.52495810318487e-016 20.7290462020906
    vertex 79.9966008362369 6.13112634146342 20.7290462020906
  endloop
endfacet
facet normal 0.0 0.0 1.0
  outer loop
    vertex 80.8724760278746 3.52495810318487e-016 20.7290462020906
    vertex 79.9966008362369 -0.87587519163763 20.7290462020906
    vertex 87.003602369338 -0.87587519163763 20.7290462020906
  endloop
endfacet
facet normal 0.0 0.0 1.0
  outer loop
    vertex 80.8724760278746 3.52495810318487e-016 20.7290462020906
    vertex 87.003602369338 -0.87587519163763 20.7290462020906
    vertex 84.5584507926829 3.52495810318487e-016 20.7290462020906
  endloop
endfacet
facet normal 0.0 0.0 1.0
  outer loop
    vertex 84.5584507926829 3.52495810318487e-016 20.7290462020906
    vertex 87.003602369338 -0.87587519163763 20.7290462020906
    vertex 86.1277271777004 3.52495810318487e-016 20.7290462020906
  endloop
endfacet
facet normal 0.0 0.0 1.0
  outer loop
    vertex 86.1277271777004 3.52495810318487e-016 20.7290462020906
    vertex 87.003602369338 -0.87587519163763 20.7290462020906
    vertex 86.1277271777004 5.25525114982578 20.7290462020906
  endloop
endfacet
facet normal 0.0 0.0 1.0
  outer loop
    vertex 79.9966008362369 6.13112634146342 20.7290462020906
    vertex 80.8724760278746 5.25525114982578 20.7290462020906
    vertex 87.003602369338 6.13112634146342 20.7290462020906
  endloop
endfacet
facet normal 0.0 0.0 1.0
  outer loop
    vertex 80.8724760278746 5.25525114982578 20.7290462020906
    vertex 79.9966008362369 6.13112634146342 20.7290462020906
    vertex 80.8724760278746 3.52495810318487e-016 20.7290462020906
  endloop
endfacet
facet normal 0.0 0.0 1.0
  outer loop
    vertex 87.003602369338 6.13112634146342 20.7290462020906
    vertex 80.8724760278746 5.25525114982578 20.7290462020906
    vertex 86.1277271777004 5.25525114982578 20.7290462020906
  endloop
endfacet
facet normal 0.0 0.0 1.0
  outer loop
    vertex 87.003602369338 6.13112634146342 20.7290462020906
    vertex 86.1277271777004 5.25525114982578 20.7290462020906
    vertex 87.003602369338 -0.87587519163763 20.7290462020906
  endloop
endfacet
facet normal 0.0 1.0 0.0
  outer loop
    vertex 79.9966008362369 6.13112634146342 20.7290462020906
    vertex 87.003602369338 6.13112634146342 19.853171010453
    vertex 79.9966008362369 6.13112634146342 19.853171010453
  endloop
endfacet
facet normal 0.0 1.0 0.0
  outer loop
    vertex 87.003602369338 6.13112634146342 19.853171010453
    vertex 79.9966008362369 6.13112634146342 20.7290462020906
    vertex 87.003602369338 6.13112634146342 20.7290462020906
  endloop
endfacet
facet normal -1.0 0.0 0.0
  outer loop
    vertex 79.9966008362369 6.13112634146342 20.7290462020906
    vertex 79.9966008362369 -0.87587519163763 19.853171010453
    vertex 79.9966008362369 -0.87587519163763 20.7290462020906
  endloop
endfacet
facet normal -1.0 0.0 0.0
  outer loop
    vertex 79.9966008362369 -0.87587519163763 19.853171010453
    vertex 79.9966008362369 6.13112634146342 20.7290462020906
    vertex 79.9966008362369 6.13112634146342 19.853171010453
  endloop
endfacet
facet normal 0.0 -1.0 0.0
  outer loop
    vertex 87.003602369338 -0.87587519163763 20.7290462020906
    vertex 79.9966008362369 -0.87587519163763 19.853171010453
    vertex 87.003602369338 -0.87587519163763 19.853171010453
  endloop
endfacet
facet normal 0.0 -1.0 0.0
  outer loop
    vertex 79.9966008362369 -0.87587519163763 19.853171010453
    vertex 87.003602369338 -0.87587519163763 20.7290462020906
    vertex 79.9966008362369 -0.87587519163763 20.7290462020906
  endloop
endfacet
facet normal 1.0 0.0 0.0
  outer loop
    vertex 87.003602369338 6.13112634146342 19.853171010453
    vertex 87.003602369338 -0.87587519163763 20.7290462020906
    vertex 87.003602369338 -0.87587519163763 19.853171010453
  endloop
endfacet
facet normal 1.0 0.0 0.0
  outer loop
    vertex 87.003602369338 -0.87587519163763 20.7290462020906
    vertex 87.003602369338 6.13112634146342 19.853171010453
    vertex 87.003602369338 6.13112634146342 20.7290462020906
  endloop
endfacet
facet normal 1.0 0.0 0.0
  outer loop
    vertex 80.8724760278746 5.25525114982578 19.853171010453
    vertex 80.8724760278746 3.52495810318487e-016 20.7290462020906
    vertex 80.8724760278746 3.52495810318487e-016 19.853171010453
  endloop
endfacet
facet normal 1.0 0.0 0.0
  outer loop
    vertex 80.8724760278746 3.52495810318487e-016 20.7290462020906
    vertex 80.8724760278746 5.25525114982578 19.853171010453
    vertex 80.8724760278746 5.25525114982578 20.7290462020906
  endloop
endfacet
facet normal 0.0 -1.0 0.0
  outer loop
    vertex 86.1277271777004 5.25525114982578 20.7290462020906
    vertex 80.8724760278746 5.25525114982578 19.853171010453
    vertex 86.1277271777004 5.25525114982578 19.853171010453
  endloop
endfacet
facet normal 0.0 -1.0 0.0
  outer loop
    vertex 80.8724760278746 5.25525114982578 19.853171010453
    vertex 86.1277271777004 5.25525114982578 20.7290462020906
    vertex 80.8724760278746 5.25525114982578 20.7290462020906
  endloop
endfacet
facet normal -1.0 0.0 0.0
  outer loop
    vertex 86.1277271777004 5.25525114982578 20.7290462020906
    vertex 86.1277271777004 3.52495810318487e-016 19.853171010453
    vertex 86.1277271777004 3.52495810318487e-016 20.7290462020906
  endloop
endfacet
facet normal -1.0 0.0 0.0
  outer loop
    vertex 86.1277271777004 3.52495810318487e-016 19.853171010453
    vertex 86.1277271777004 5.25525114982578 20.7290462020906
    vertex 86.1277271777004 5.25525114982578 19.853171010453
  endloop
endfacet
facet normal 0.0 1.0 0.0
  outer loop
    vertex 80.8724760278746 3.52495810318487e-016 20.7290462020906
    vertex 86.1277271777004 3.52495810318487e-016 19.853171010453
    vertex 80.8724760278746 3.52495810318487e-016 19.853171010453
  endloop
endfacet
facet normal 0.0 1.0 0.0
  outer loop
    vertex 86.1277271777004 3.52495810318487e-016 19.853171010453
    vertex 80.8724760278746 3.52495810318487e-016 20.7290462020906
    vertex 86.1277271777004 3.52495810318487e-016 20.7290462020906
  endloop
endfacet
facet normal 0.0 1.0 0.0
  outer loop
    vertex 86.1277271777004 3.52495810318487e-016 20.7290462020906
    vertex 80.8724760278746 3.52495810318487e-016 20.7290462020906
    vertex 84.5584507926829 3.52495810318487e-016 20.7290462020906
  endloop
endfacet
facet normal -0.988389776155377 1.50252656274673e-017 0.151939627456181
  outer loop
    vertex 82.6242264111498 1.75175038327526 32.1244418483308
    vertex 80.8724760278746 5.25525114982578 20.7290462020906
    vertex 80.8724760278746 3.52495810318487e-016 20.7290462020906
  endloop
endfacet
facet normal -0.988389776155377 1.50252656274673e-017 0.151939627456181
  outer loop
    vertex 80.8724760278746 5.25525114982578 20.7290462020906
    vertex 82.6242264111498 1.75175038327526 32.1244418483308
    vertex 82.6242264111498 3.50350076655052 32.1244418483308
  endloop
endfacet
facet normal 5.2101396606179e-018 -0.988389776155377 0.151939627456181
  outer loop
    vertex 84.3759767944251 1.75175038327526 32.1244418483308
    vertex 84.5584507926829 3.52495810318487e-016 20.7290462020906
    vertex 86.1277271777004 3.52495810318487e-016 20.7290462020906
  endloop
endfacet
facet normal 5.2101396606179e-018 -0.988389776155377 0.151939627456181
  outer loop
    vertex 84.5584507926829 3.52495810318487e-016 20.7290462020906
    vertex 84.3759767944251 1.75175038327526 32.1244418483308
    vertex 80.8724760278746 3.52495810318487e-016 20.7290462020906
  endloop
endfacet
facet normal 5.2101396606179e-018 -0.988389776155377 0.151939627456181
  outer loop
    vertex 80.8724760278746 3.52495810318487e-016 20.7290462020906
    vertex 84.3759767944251 1.75175038327526 32.1244418483308
    vertex 82.6242264111498 1.75175038327526 32.1244418483308
  endloop
endfacet
facet normal 0.988389776155377 -4.48287813772028e-018 0.151939627456181
  outer loop
    vertex 86.1277271777004 5.25525114982578 20.7290462020906
    vertex 84.3759767944251 1.75175038327526 32.1244418483308
    vertex 86.1277271777004 3.52495810318487e-016 20.7290462020906
  endloop
endfacet
facet normal 0.988389776155377 -4.48287813772028e-018 0.151939627456181
  outer loop
    vertex 84.3759767944251 1.75175038327526 32.1244418483308
    vertex 86.1277271777004 5.25525114982578 20.7290462020906
    vertex 84.3759767944251 3.50350076655052 32.1244418483308
  endloop
endfacet
facet normal 3.90162875303752e-017 0.988389776155377 0.151939627456181
  outer loop
    vertex 82.6242264111498 3.50350076655052 32.1244418483308
    vertex 86.1277271777004 5.25525114982578 20.7290462020906
    vertex 80.8724760278746 5.25525114982578 20.7290462020906
  endloop
endfacet
facet normal 3.90162875303752e-017 0.988389776155377 0.151939627456181
  outer loop
    vertex 86.1277271777004 5.25525114982578 20.7290462020906
    vertex 82.6242264111498 3.50350076655052 32.1244418483308
    vertex 84.3759767944251 3.50350076655052 32.1244418483308
  endloop
endfacet
facet normal 0.0 0.0 1.0
  outer loop
    vertex 84.3759767944251 1.75175038327526 32.1244418483308
    vertex 82.6242264111498 3.50350076655052 32.1244418483308
    vertex 82.6242264111498 1.75175038327526 32.1244418483308
  endloop
endfacet
facet normal 0.0 0.0 1.0
  outer loop
    vertex 82.6242264111498 3.50350076655052 32.1244418483308
    vertex 84.3759767944251 1.75175038327526 32.1244418483308
    vertex 84.3759767944251 3.50350076655052 32.1244418483308
  endloop
endfacet
facet normal 0.0 -0.0 -1.0
  outer loop
    vertex 27.8820269337979 -1.05748743095546e-014 -9.1880378285425e-016
    vertex 33.1372780836237 5.25525114982578 -9.1880378285425e-016
    vertex 33.1372780836237 -7.04991620636974e-015 -9.1880378285425e-016
  endloop
endfacet
facet normal 0.0 -0.0 -1.0
  outer loop
    vertex 33.1372780836237 5.25525114982578 -9.1880378285425e-016
    vertex 27.8820269337979 -1.05748743095546e-014 -9.1880378285425e-016
    vertex 27.8820269337979 5.25525114982577 -9.1880378285425e-016
  endloop
endfacet
facet normal 1.0 6.66133814775094e-016 0.0
  outer loop
    vertex 33.1372780836237 -7.04991620636974e-015 19.853171010453
    vertex 33.1372780836237 5.25525114982578 -9.1880378285425e-016
    vertex 33.1372780836237 5.25525114982578 19.853171010453
  endloop
endfacet
facet normal 1.0 6.66133814775094e-016 0.0
  outer loop
    vertex 33.1372780836237 5.25525114982578 -9.1880378285425e-016
    vertex 33.1372780836237 -7.04991620636974e-015 19.853171010453
    vertex 33.1372780836237 -7.04991620636974e-015 -9.1880378285425e-016
  endloop
endfacet
facet normal 6.66133814775094e-016 -1.0 0.0
  outer loop
    vertex 33.1372780836237 -7.04991620636974e-015 19.853171010453
    vertex 27.8820269337979 -1.05748743095546e-014 -9.1880378285425e-016
    vertex 33.1372780836237 -7.04991620636974e-015 -9.1880378285425e-016
  endloop
endfacet
facet normal 6.66133814775094e-016 -1.0 0.0
  outer loop
    vertex 27.8820269337979 -1.05748743095546e-014 -9.1880378285425e-016
    vertex 33.1372780836237 -7.04991620636974e-015 19.853171010453
    vertex 27.8820269337979 -1.05748743095546e-014 19.853171010453
  endloop
endfacet
facet normal -1.0 -6.66133814775094e-016 0.0
  outer loop
    vertex 27.8820269337979 -1.05748743095546e-014 -9.1880378285425e-016
    vertex 27.8820269337979 5.25525114982577 19.853171010453
    vertex 27.8820269337979 5.25525114982577 -9.1880378285425e-016
  endloop
endfacet
facet normal -1.0 -6.66133814775094e-016 0.0
  outer loop
    vertex 27.8820269337979 5.25525114982577 19.853171010453
    vertex 27.8820269337979 -1.05748743095546e-014 -9.1880378285425e-016
    vertex 27.8820269337979 -1.05748743095546e-014 19.853171010453
  endloop
endfacet
facet normal -6.66133814775094e-016 1.0 0.0
  outer loop
    vertex 27.8820269337979 5.25525114982577 19.853171010453
    vertex 33.1372780836237 5.25525114982578 -9.1880378285425e-016
    vertex 27.8820269337979 5.25525114982577 -9.1880378285425e-016
  endloop
endfacet
facet normal -6.66133814775094e-016 1.0 0.0
  outer loop
    vertex 33.1372780836237 5.25525114982578 -9.1880378285425e-016
    vertex 27.8820269337979 5.25525114982577 19.853171010453
    vertex 33.1372780836237 5.25525114982578 19.853171010453
  endloop
endfacet
facet normal 0.0 -0.0 -1.0
  outer loop
    vertex 34.0131532752613 -0.875875191637637 19.853171010453
    vertex 33.1372780836237 -7.04991620636974e-015 19.853171010453
    vertex 34.0131532752613 6.13112634146341 19.853171010453
  endloop
endfacet
facet normal 0.0 -0.0 -1.0
  outer loop
    vertex 33.1372780836237 -7.04991620636974e-015 19.853171010453
    vertex 34.0131532752613 -0.875875191637637 19.853171010453
    vertex 27.0061517421603 -0.875875191637641 19.853171010453
  endloop
endfacet
facet normal 0.0 -0.0 -1.0
  outer loop
    vertex 33.1372780836237 -7.04991620636974e-015 19.853171010453
    vertex 27.0061517421603 -0.875875191637641 19.853171010453
    vertex 27.8820269337979 -1.05748743095546e-014 19.853171010453
  endloop
endfacet
facet normal 0.0 -0.0 -1.0
  outer loop
    vertex 27.8820269337979 -1.05748743095546e-014 19.853171010453
    vertex 27.0061517421603 -0.875875191637641 19.853171010453
    vertex 27.8820269337979 5.25525114982577 19.853171010453
  endloop
endfacet
facet normal 0.0 -0.0 -1.0
  outer loop
    vertex 34.0131532752613 6.13112634146341 19.853171010453
    vertex 33.1372780836237 5.25525114982578 19.853171010453
    vertex 27.0061517421603 6.1311263414634 19.853171010453
  endloop
endfacet
facet normal 0.0 -0.0 -1.0
  outer loop
    vertex 33.1372780836237 5.25525114982578 19.853171010453
    vertex 34.0131532752613 6.13112634146341 19.853171010453
    vertex 33.1372780836237 -7.04991620636974e-015 19.853171010453
  endloop
endfacet
facet normal 0.0 -0.0 -1.0
  outer loop
    vertex 27.0061517421603 6.1311263414634 19.853171010453
    vertex 33.1372780836237 5.25525114982578 19.853171010453
    vertex 27.8820269337979 5.25525114982577 19.853171010453
  endloop
endfacet
facet normal 0.0 -0.0 -1.0
  outer loop
    vertex 27.0061517421603 6.1311263414634 19.853171010453
    vertex 27.8820269337979 5.25525114982577 19.853171010453
    vertex 27.0061517421603 -0.875875191637641 19.853171010453
  endloop
endfacet
facet normal 0.0 0.0 1.0
  outer loop
    vertex 34.0131532752613 6.13112634146341 20.7290462020906
    vertex 33.1372780836237 5.25525114982578 20.7290462020906
    vertex 34.0131532752613 -0.875875191637637 20.7290462020906
  endloop
endfacet
facet normal 0.0 0.0 1.0
  outer loop
    vertex 33.1372780836237 5.25525114982578 20.7290462020906
    vertex 34.0131532752613 6.13112634146341 20.7290462020906
    vertex 27.0061517421603 6.1311263414634 20.7290462020906
  endloop
endfacet
facet normal 0.0 0.0 1.0
  outer loop
    vertex 33.1372780836237 5.25525114982578 20.7290462020906
    vertex 27.0061517421603 6.1311263414634 20.7290462020906
    vertex 29.4513033188153 5.25525114982577 20.7290462020906
  endloop
endfacet
facet normal 0.0 0.0 1.0
  outer loop
    vertex 29.4513033188153 5.25525114982577 20.7290462020906
    vertex 27.0061517421603 6.1311263414634 20.7290462020906
    vertex 27.8820269337979 5.25525114982577 20.7290462020906
  endloop
endfacet
facet normal 0.0 0.0 1.0
  outer loop
    vertex 27.8820269337979 5.25525114982577 20.7290462020906
    vertex 27.0061517421603 6.1311263414634 20.7290462020906
    vertex 27.8820269337979 -1.05748743095546e-014 20.7290462020906
  endloop
endfacet
facet normal 0.0 0.0 1.0
  outer loop
    vertex 34.0131532752613 -0.875875191637637 20.7290462020906
    vertex 33.1372780836237 -7.04991620636974e-015 20.7290462020906
    vertex 27.0061517421603 -0.875875191637641 20.7290462020906
  endloop
endfacet
facet normal 0.0 0.0 1.0
  outer loop
    vertex 33.1372780836237 -7.04991620636974e-015 20.7290462020906
    vertex 34.0131532752613 -0.875875191637637 20.7290462020906
    vertex 33.1372780836237 5.25525114982578 20.7290462020906
  endloop
endfacet
facet normal 0.0 0.0 1.0
  outer loop
    vertex 27.0061517421603 -0.875875191637641 20.7290462020906
    vertex 33.1372780836237 -7.04991620636974e-015 20.7290462020906
    vertex 27.8820269337979 -1.05748743095546e-014 20.7290462020906
  endloop
endfacet
facet normal 0.0 0.0 1.0
  outer loop
    vertex 27.0061517421603 -0.875875191637641 20.7290462020906
    vertex 27.8820269337979 -1.05748743095546e-014 20.7290462020906
    vertex 27.0061517421603 6.1311263414634 20.7290462020906
  endloop
endfacet
facet normal 6.66133814775094e-016 -1.0 0.0
  outer loop
    vertex 34.0131532752613 -0.875875191637637 20.7290462020906
    vertex 27.0061517421603 -0.875875191637641 19.853171010453
    vertex 34.0131532752613 -0.875875191637637 19.853171010453
  endloop
endfacet
facet normal 6.66133814775094e-016 -1.0 0.0
  outer loop
    vertex 27.0061517421603 -0.875875191637641 19.853171010453
    vertex 34.0131532752613 -0.875875191637637 20.7290462020906
    vertex 27.0061517421603 -0.875875191637641 20.7290462020906
  endloop
endfacet
facet normal 1.0 6.66133814775094e-016 0.0
  outer loop
    vertex 34.0131532752613 -0.875875191637637 20.7290462020906
    vertex 34.0131532752613 6.13112634146341 19.853171010453
    vertex 34.0131532752613 6.13112634146341 20.7290462020906
  endloop
endfacet
facet normal 1.0 6.66133814775094e-016 0.0
  outer loop
    vertex 34.0131532752613 6.13112634146341 19.853171010453
    vertex 34.0131532752613 -0.875875191637637 20.7290462020906
    vertex 34.0131532752613 -0.875875191637637 19.853171010453
  endloop
endfacet
facet normal -6.66133814775094e-016 1.0 0.0
  outer loop
    vertex 27.0061517421603 6.1311263414634 20.7290462020906
    vertex 34.0131532752613 6.13112634146341 19.853171010453
    vertex 27.0061517421603 6.1311263414634 19.853171010453
  endloop
endfacet
facet normal -6.66133814775094e-016 1.0 0.0
  outer loop
    vertex 34.0131532752613 6.13112634146341 19.853171010453
    vertex 27.0061517421603 6.1311263414634 20.7290462020906
    vertex 34.0131532752613 6.13112634146341 20.7290462020906
  endloop
endfacet
facet normal -1.0 -6.66133814775094e-016 0.0
  outer loop
    vertex 27.0061517421603 -0.875875191637641 19.853171010453
    vertex 27.0061517421603 6.1311263414634 20.7290462020906
    vertex 27.0061517421603 6.1311263414634 19.853171010453
  endloop
endfacet
facet normal -1.0 -6.66133814775094e-016 0.0
  outer loop
    vertex 27.0061517421603 6.1311263414634 20.7290462020906
    vertex 27.0061517421603 -0.875875191637641 19.853171010453
    vertex 27.0061517421603 -0.875875191637641 20.7290462020906
  endloop
endfacet
facet normal -1.0 -6.66133814775094e-016 0.0
  outer loop
    vertex 33.1372780836237 -7.04991620636974e-015 19.853171010453
    vertex 33.1372780836237 5.25525114982578 20.7290462020906
    vertex 33.1372780836237 5.25525114982578 19.853171010453
  endloop
endfacet
facet normal -1.0 -6.66133814775094e-016 0.0
  outer loop
    vertex 33.1372780836237 5.25525114982578 20.7290462020906
    vertex 33.1372780836237 -7.04991620636974e-015 19.853171010453
    vertex 33.1372780836237 -7.04991620636974e-015 20.7290462020906
  endloop
endfacet
facet normal -6.66133814775094e-016 1.0 0.0
  outer loop
    vertex 27.8820269337979 -1.05748743095546e-014 20.7290462020906
    vertex 33.1372780836237 -7.04991620636974e-015 19.853171010453
    vertex 27.8820269337979 -1.05748743095546e-014 19.853171010453
  endloop
endfacet
facet normal -6.66133814775094e-016 1.0 0.0
  outer loop
    vertex 33.1372780836237 -7.04991620636974e-015 19.853171010453
    vertex 27.8820269337979 -1.05748743095546e-014 20.7290462020906
    vertex 33.1372780836237 -7.04991620636974e-015 20.7290462020906
  endloop
endfacet
facet normal 1.0 6.66133814775094e-016 0.0
  outer loop
    vertex 27.8820269337979 -1.05748743095546e-014 20.7290462020906
    vertex 27.8820269337979 5.25525114982577 19.853171010453
    vertex 27.8820269337979 5.25525114982577 20.7290462020906
  endloop
endfacet
facet normal 1.0 6.66133814775094e-016 0.0
  outer loop
    vertex 27.8820269337979 5.25525114982577 19.853171010453
    vertex 27.8820269337979 -1.05748743095546e-014 20.7290462020906
    vertex 27.8820269337979 -1.05748743095546e-014 19.853171010453
  endloop
endfacet
facet normal 6.66133814775094e-016 -1.0 0.0
  outer loop
    vertex 33.1372780836237 5.25525114982578 20.7290462020906
    vertex 27.8820269337979 5.25525114982577 19.853171010453
    vertex 33.1372780836237 5.25525114982578 19.853171010453
  endloop
endfacet
facet normal 6.66133814775094e-016 -1.0 0.0
  outer loop
    vertex 27.8820269337979 5.25525114982577 19.853171010453
    vertex 33.1372780836237 5.25525114982578 20.7290462020906
    vertex 27.8820269337979 5.25525114982577 20.7290462020906
  endloop
endfacet
facet normal 6.66133814775094e-016 -1.0 0.0
  outer loop
    vertex 27.8820269337979 5.25525114982577 20.7290462020906
    vertex 33.1372780836237 5.25525114982578 20.7290462020906
    vertex 29.4513033188153 5.25525114982577 20.7290462020906
  endloop
endfacet
facet normal -0.988389776155377 -5.86426786366359e-016 0.151939627456181
  outer loop
    vertex 27.8820269337979 -1.05748743095546e-014 20.7290462020906
    vertex 29.6337773170731 3.50350076655051 32.1244418483309
    vertex 27.8820269337979 5.25525114982577 20.7290462020906
  endloop
endfacet
facet normal -0.988389776155377 -5.86426786366359e-016 0.151939627456181
  outer loop
    vertex 29.6337773170731 3.50350076655051 32.1244418483309
    vertex 27.8820269337979 -1.05748743095546e-014 20.7290462020906
    vertex 29.6337773170731 1.75175038327525 32.1244418483309
  endloop
endfacet
facet normal 0.988389776155377 6.67365608350523e-016 0.151939627456181
  outer loop
    vertex 31.3855277003484 3.50350076655051 32.1244418483309
    vertex 33.1372780836237 -7.04991620636974e-015 20.7290462020906
    vertex 33.1372780836237 5.25525114982578 20.7290462020906
  endloop
endfacet
facet normal 0.988389776155377 6.67365608350523e-016 0.151939627456181
  outer loop
    vertex 33.1372780836237 -7.04991620636974e-015 20.7290462020906
    vertex 31.3855277003484 3.50350076655051 32.1244418483309
    vertex 31.3855277003484 1.75175038327525 32.1244418483309
  endloop
endfacet
facet normal -6.11508595129522e-016 0.988389776155377 0.151939627456181
  outer loop
    vertex 29.6337773170731 3.50350076655051 32.1244418483309
    vertex 29.4513033188153 5.25525114982577 20.7290462020906
    vertex 27.8820269337979 5.25525114982577 20.7290462020906
  endloop
endfacet
facet normal -6.11508595129522e-016 0.988389776155377 0.151939627456181
  outer loop
    vertex 29.4513033188153 5.25525114982577 20.7290462020906
    vertex 29.6337773170731 3.50350076655051 32.1244418483309
    vertex 33.1372780836237 5.25525114982578 20.7290462020906
  endloop
endfacet
facet normal -6.11508595129522e-016 0.988389776155377 0.151939627456181
  outer loop
    vertex 33.1372780836237 5.25525114982578 20.7290462020906
    vertex 29.6337773170731 3.50350076655051 32.1244418483309
    vertex 31.3855277003484 3.50350076655051 32.1244418483309
  endloop
endfacet
facet normal 7.30372917783806e-016 -0.988389776155377 0.151939627456181
  outer loop
    vertex 31.3855277003484 1.75175038327525 32.1244418483309
    vertex 27.8820269337979 -1.05748743095546e-014 20.7290462020906
    vertex 33.1372780836237 -7.04991620636974e-015 20.7290462020906
  endloop
endfacet
facet normal 7.30372917783806e-016 -0.988389776155377 0.151939627456181
  outer loop
    vertex 27.8820269337979 -1.05748743095546e-014 20.7290462020906
    vertex 31.3855277003484 1.75175038327525 32.1244418483309
    vertex 29.6337773170731 1.75175038327525 32.1244418483309
  endloop
endfacet
facet normal 2.368475785867e-015 2.368475785867e-015 1.0
  outer loop
    vertex 31.3855277003484 3.50350076655051 32.1244418483309
    vertex 29.6337773170731 1.75175038327525 32.1244418483309
    vertex 31.3855277003484 1.75175038327525 32.1244418483309
  endloop
endfacet
facet normal 2.368475785867e-015 2.368475785867e-015 1.0
  outer loop
    vertex 29.6337773170731 1.75175038327525 32.1244418483309
    vertex 31.3855277003484 3.50350076655051 32.1244418483309
    vertex 29.6337773170731 3.50350076655051 32.1244418483309
  endloop
endfacet
facet normal 1.0 0.0 0.0
  outer loop
    vertex 84.9598935888502 28.9038813240418 7.00700153310104
    vertex 84.9598935888502 5.25525114982578 8.75875191637631
    vertex 84.9598935888502 5.25525114982578 7.00700153310104
  endloop
endfacet
facet normal 1.0 0.0 0.0
  outer loop
    vertex 84.9598935888502 5.25525114982578 8.75875191637631
    vertex 84.9598935888502 28.9038813240418 7.00700153310104
    vertex 84.9598935888502 28.9038813240418 8.75875191637631
  endloop
endfacet
facet normal -3.61730847296051e-015 -1.0 9.84711750972584e-015
  outer loop
    vertex 5.25525114982579 5.25525114982578 8.75875191637631
    vertex 3.21154236933798 5.25525114982572 7.00700153310104
    vertex 5.25525114982579 5.25525114982578 7.00700153310104
  endloop
endfacet
facet normal -3.61730847296051e-015 -1.0 9.84711750972584e-015
  outer loop
    vertex 3.21154236933798 5.25525114982572 7.00700153310104
    vertex 5.25525114982579 5.25525114982578 8.75875191637631
    vertex 1.16783358885018 5.25525114982578 7.00700153310104
  endloop
endfacet
facet normal -3.61730847296051e-015 -1.0 9.84711750972584e-015
  outer loop
    vertex 1.16783358885018 5.25525114982578 7.00700153310104
    vertex 5.25525114982579 5.25525114982578 8.75875191637631
    vertex 1.16783358885018 5.25525114982578 8.75875191637631
  endloop
endfacet
facet normal 1.89318760940678e-017 1.0 9.73620771386995e-016
  outer loop
    vertex 1.16783358885018 28.9038813240418 8.75875191637631
    vertex 3.21154236933798 28.9038813240418 7.00700153310105
    vertex 1.16783358885018 28.9038813240418 7.00700153310104
  endloop
endfacet
facet normal 1.89318760940678e-017 1.0 9.73620771386995e-016
  outer loop
    vertex 3.21154236933798 28.9038813240418 7.00700153310105
    vertex 1.16783358885018 28.9038813240418 8.75875191637631
    vertex 82.9161848083624 28.9038813240418 7.00700153310105
  endloop
endfacet
facet normal 1.89318760940678e-017 1.0 9.73620771386995e-016
  outer loop
    vertex 82.9161848083624 28.9038813240418 7.00700153310105
    vertex 84.9598935888502 28.9038813240418 8.75875191637631
    vertex 84.9598935888502 28.9038813240418 7.00700153310104
  endloop
endfacet
facet normal 1.89318760940678e-017 1.0 9.73620771386995e-016
  outer loop
    vertex 84.9598935888502 28.9038813240418 8.75875191637631
    vertex 82.9161848083624 28.9038813240418 7.00700153310105
    vertex 1.16783358885018 28.9038813240418 8.75875191637631
  endloop
endfacet
facet normal 1.89318760940678e-017 1.0 9.73620771386995e-016
  outer loop
    vertex 3.21154236933798 28.9038813240418 7.00700153310105
    vertex 82.9161848083624 28.9038813240418 1.12798659301916e-014
    vertex 3.21154236933798 28.9038813240418 1.12798659301916e-014
  endloop
endfacet
facet normal 1.89318760940678e-017 1.0 9.73620771386995e-016
  outer loop
    vertex 82.9161848083624 28.9038813240418 1.12798659301916e-014
    vertex 3.21154236933798 28.9038813240418 7.00700153310105
    vertex 82.9161848083624 28.9038813240418 7.00700153310105
  endloop
endfacet
facet normal 0.0 0.0 1.0
  outer loop
    vertex 27.8820269337979 -5.63993296509579e-015 8.75875191637631
    vertex 5.25525114982579 5.25525114982578 8.75875191637631
    vertex 5.25525114982579 -5.63993296509579e-015 8.75875191637631
  endloop
endfacet
facet normal 0.0 0.0 1.0
  outer loop
    vertex 80.8724760278746 5.63993296509579e-015 8.75875191637631
    vertex 58.2457002439024 5.25525114982578 8.75875191637631
    vertex 58.2457002439024 0.0 8.75875191637631
  endloop
endfacet
facet normal 0.0 0.0 1.0
  outer loop
    vertex 5.25525114982579 5.25525114982578 8.75875191637631
    vertex 1.16783358885018 28.9038813240418 8.75875191637631
    vertex 1.16783358885018 5.25525114982578 8.75875191637631
  endloop
endfacet
facet normal 0.0 0.0 1.0
  outer loop
    vertex 1.16783358885018 28.9038813240418 8.75875191637631
    vertex 5.25525114982579 5.25525114982578 8.75875191637631
    vertex 84.9598935888502 28.9038813240418 8.75875191637631
  endloop
endfacet
facet normal 0.0 0.0 1.0
  outer loop
    vertex 84.9598935888502 28.9038813240418 8.75875191637631
    vertex 5.25525114982579 5.25525114982578 8.75875191637631
    vertex 27.8820269337979 5.25525114982578 8.75875191637631
  endloop
endfacet
facet normal 0.0 0.0 1.0
  outer loop
    vertex 27.8820269337979 5.25525114982578 8.75875191637631
    vertex 5.25525114982579 5.25525114982578 8.75875191637631
    vertex 27.8820269337979 -5.63993296509579e-015 8.75875191637631
  endloop
endfacet
facet normal 0.0 0.0 1.0
  outer loop
    vertex 84.9598935888502 28.9038813240418 8.75875191637631
    vertex 27.8820269337979 5.25525114982578 8.75875191637631
    vertex 58.2457002439024 5.25525114982578 8.75875191637631
  endloop
endfacet
facet normal 0.0 0.0 1.0
  outer loop
    vertex 84.9598935888502 28.9038813240418 8.75875191637631
    vertex 58.2457002439024 5.25525114982578 8.75875191637631
    vertex 80.8724760278746 5.25525114982578 8.75875191637631
  endloop
endfacet
facet normal 0.0 0.0 1.0
  outer loop
    vertex 80.8724760278746 5.25525114982578 8.75875191637631
    vertex 58.2457002439024 5.25525114982578 8.75875191637631
    vertex 80.8724760278746 5.63993296509579e-015 8.75875191637631
  endloop
endfacet
facet normal 0.0 0.0 1.0
  outer loop
    vertex 84.9598935888502 28.9038813240418 8.75875191637631
    vertex 80.8724760278746 5.25525114982578 8.75875191637631
    vertex 84.9598935888502 5.25525114982578 8.75875191637631
  endloop
endfacet
facet normal -1.0 0.0 0.0
  outer loop
    vertex 1.16783358885018 28.9038813240418 8.75875191637631
    vertex 1.16783358885018 5.25525114982578 7.00700153310104
    vertex 1.16783358885018 5.25525114982578 8.75875191637631
  endloop
endfacet
facet normal -1.0 0.0 0.0
  outer loop
    vertex 1.16783358885018 5.25525114982578 7.00700153310104
    vertex 1.16783358885018 28.9038813240418 8.75875191637631
    vertex 1.16783358885018 28.9038813240418 7.00700153310104
  endloop
endfacet
facet normal -5.07530525542929e-016 -1.0 -3.94745964311167e-016
  outer loop
    vertex 84.9598935888502 5.25525114982578 8.75875191637631
    vertex 82.9161848083624 5.25525114982579 7.00700153310104
    vertex 84.9598935888502 5.25525114982578 7.00700153310104
  endloop
endfacet
facet normal -5.07530525542929e-016 -1.0 -3.94745964311167e-016
  outer loop
    vertex 82.9161848083624 5.25525114982579 7.00700153310104
    vertex 84.9598935888502 5.25525114982578 8.75875191637631
    vertex 80.8724760278746 5.25525114982578 7.00700153310104
  endloop
endfacet
facet normal -5.07530525542929e-016 -1.0 -3.94745964311167e-016
  outer loop
    vertex 80.8724760278746 5.25525114982578 7.00700153310104
    vertex 84.9598935888502 5.25525114982578 8.75875191637631
    vertex 80.8724760278746 5.25525114982578 8.75875191637631
  endloop
endfacet
facet normal 6.87622002348484e-017 -1.0 2.96059473233375e-016
  outer loop
    vertex 80.8724760278746 5.63993296509579e-015 8.75875191637631
    vertex 58.2457002439024 0.0 7.00700153310104
    vertex 80.8724760278746 0.0 7.00700153310104
  endloop
endfacet
facet normal 6.87622002348484e-017 -1.0 2.96059473233375e-016
  outer loop
    vertex 58.2457002439024 0.0 7.00700153310104
    vertex 80.8724760278746 5.63993296509579e-015 8.75875191637631
    vertex 58.2457002439024 0.0 8.75875191637631
  endloop
endfacet
facet normal 1.0 0.0 0.0
  outer loop
    vertex 80.8724760278746 5.25525114982578 7.00700153310104
    vertex 80.8724760278746 5.63993296509579e-015 8.75875191637631
    vertex 80.8724760278746 0.0 7.00700153310104
  endloop
endfacet
facet normal 1.0 0.0 0.0
  outer loop
    vertex 80.8724760278746 5.63993296509579e-015 8.75875191637631
    vertex 80.8724760278746 5.25525114982578 7.00700153310104
    vertex 80.8724760278746 5.25525114982578 8.75875191637631
  endloop
endfacet
facet normal -1.0 0.0 0.0
  outer loop
    vertex 58.2457002439024 5.25525114982578 8.75875191637631
    vertex 58.2457002439024 0.0 7.00700153310104
    vertex 58.2457002439024 0.0 8.75875191637631
  endloop
endfacet
facet normal -1.0 0.0 0.0
  outer loop
    vertex 58.2457002439024 0.0 7.00700153310104
    vertex 58.2457002439024 5.25525114982578 8.75875191637631
    vertex 58.2457002439024 5.25525114982578 7.00700153310104
  endloop
endfacet
facet normal -3.73507490083759e-016 -1.0 9.95651759148722e-015
  outer loop
    vertex 58.2457002439024 5.25525114982578 8.75875191637631
    vertex 27.8820269337979 5.25525114982578 7.00700153310104
    vertex 58.2457002439024 5.25525114982578 7.00700153310104
  endloop
endfacet
facet normal -3.73507490083759e-016 -1.0 9.95651759148722e-015
  outer loop
    vertex 27.8820269337979 5.25525114982578 7.00700153310104
    vertex 58.2457002439024 5.25525114982578 8.75875191637631
    vertex 27.8820269337979 5.25525114982578 8.75875191637631
  endloop
endfacet
facet normal 0.0 -1.0 0.0
  outer loop
    vertex 27.8820269337979 -5.63993296509579e-015 8.75875191637631
    vertex 5.25525114982579 -5.63993296509579e-015 7.00700153310104
    vertex 27.8820269337979 -5.63993296509579e-015 7.00700153310104
  endloop
endfacet
facet normal 0.0 -1.0 0.0
  outer loop
    vertex 5.25525114982579 -5.63993296509579e-015 7.00700153310104
    vertex 27.8820269337979 -5.63993296509579e-015 8.75875191637631
    vertex 5.25525114982579 -5.63993296509579e-015 8.75875191637631
  endloop
endfacet
facet normal -1.0 0.0 0.0
  outer loop
    vertex 5.25525114982579 5.25525114982578 8.75875191637631
    vertex 5.25525114982579 -5.63993296509579e-015 7.00700153310104
    vertex 5.25525114982579 -5.63993296509579e-015 8.75875191637631
  endloop
endfacet
facet normal -1.0 0.0 0.0
  outer loop
    vertex 5.25525114982579 -5.63993296509579e-015 7.00700153310104
    vertex 5.25525114982579 5.25525114982578 8.75875191637631
    vertex 5.25525114982579 5.25525114982578 7.00700153310104
  endloop
endfacet
facet normal 1.0 0.0 0.0
  outer loop
    vertex 27.8820269337979 5.25525114982578 7.00700153310104
    vertex 27.8820269337979 -5.63993296509579e-015 8.75875191637631
    vertex 27.8820269337979 -5.63993296509579e-015 7.00700153310104
  endloop
endfacet
facet normal 1.0 0.0 0.0
  outer loop
    vertex 27.8820269337979 -5.63993296509579e-015 8.75875191637631
    vertex 27.8820269337979 5.25525114982578 7.00700153310104
    vertex 27.8820269337979 5.25525114982578 8.75875191637631
  endloop
endfacet
facet normal 5.13139856609048e-016 -1.0 1.81911849411767e-015
  outer loop
    vertex 82.9161848083624 5.25525114982579 7.00700153310104
    vertex 3.21154236933798 5.25525114982573 0.0
    vertex 82.9161848083624 5.25525114982579 0.0
  endloop
endfacet
facet normal 5.13139856609048e-016 -1.0 1.81911849411767e-015
  outer loop
    vertex 3.21154236933798 5.25525114982573 0.0
    vertex 82.9161848083624 5.25525114982579 7.00700153310104
    vertex 3.21154236933798 5.25525114982572 7.00700153310104
  endloop
endfacet
facet normal 5.13139856609048e-016 -1.0 1.81911849411767e-015
  outer loop
    vertex 3.21154236933798 5.25525114982572 7.00700153310104
    vertex 82.9161848083624 5.25525114982579 7.00700153310104
    vertex 80.8724760278746 5.25525114982578 7.00700153310104
  endloop
endfacet
facet normal 5.13139856609048e-016 -1.0 1.81911849411767e-015
  outer loop
    vertex 3.21154236933798 5.25525114982572 7.00700153310104
    vertex 80.8724760278746 5.25525114982578 7.00700153310104
    vertex 58.2457002439024 5.25525114982578 7.00700153310104
  endloop
endfacet
facet normal 5.13139856609048e-016 -1.0 1.81911849411767e-015
  outer loop
    vertex 3.21154236933798 5.25525114982572 7.00700153310104
    vertex 58.2457002439024 5.25525114982578 7.00700153310104
    vertex 27.8820269337979 5.25525114982578 7.00700153310104
  endloop
endfacet
facet normal 5.13139856609048e-016 -1.0 1.81911849411767e-015
  outer loop
    vertex 3.21154236933798 5.25525114982572 7.00700153310104
    vertex 27.8820269337979 5.25525114982578 7.00700153310104
    vertex 5.25525114982579 5.25525114982578 7.00700153310104
  endloop
endfacet
facet normal -2.03012210217171e-015 1.0 5.9211894646675e-016
  outer loop
    vertex 3.21154236933798 7.00700153310098 7.00700153310105
    vertex 82.9161848083624 7.00700153310105 0.0
    vertex 3.21154236933798 7.00700153310099 0.0
  endloop
endfacet
facet normal -2.03012210217171e-015 1.0 5.9211894646675e-016
  outer loop
    vertex 82.9161848083624 7.00700153310105 0.0
    vertex 3.21154236933798 7.00700153310098 7.00700153310105
    vertex 82.9161848083624 7.00700153310105 7.00700153310105
  endloop
endfacet
facet normal 0.0 5.9211894646675e-016 -1.0
  outer loop
    vertex 3.21154236933798 7.00700153310099 0.0
    vertex 82.9161848083624 5.25525114982579 0.0
    vertex 3.21154236933798 5.25525114982573 0.0
  endloop
endfacet
facet normal 0.0 5.9211894646675e-016 -1.0
  outer loop
    vertex 82.9161848083624 5.25525114982579 0.0
    vertex 3.21154236933798 7.00700153310099 0.0
    vertex 82.9161848083624 7.00700153310105 0.0
  endloop
endfacet
facet normal 1.0 2.03012210217171e-015 0.0
  outer loop
    vertex 82.9161848083624 7.00700153310105 0.0
    vertex 82.9161848083624 5.25525114982579 7.00700153310104
    vertex 82.9161848083624 5.25525114982579 0.0
  endloop
endfacet
facet normal 1.0 2.03012210217171e-015 0.0
  outer loop
    vertex 82.9161848083624 5.25525114982579 7.00700153310104
    vertex 82.9161848083624 7.00700153310105 0.0
    vertex 82.9161848083624 7.00700153310105 7.00700153310105
  endloop
endfacet
facet normal -3.19570744429399e-031 5.92118946466753e-016 -1.0
  outer loop
    vertex 3.21154236933798 7.00700153310098 7.00700153310105
    vertex 5.25525114982579 5.25525114982578 7.00700153310104
    vertex 3.21154236933798 5.25525114982572 7.00700153310104
  endloop
endfacet
facet normal -3.19570744429399e-031 5.92118946466753e-016 -1.0
  outer loop
    vertex 5.25525114982579 5.25525114982578 7.00700153310104
    vertex 3.21154236933798 7.00700153310098 7.00700153310105
    vertex 82.9161848083624 7.00700153310105 7.00700153310105
  endloop
endfacet
facet normal -3.19570744429399e-031 5.92118946466753e-016 -1.0
  outer loop
    vertex 5.25525114982579 5.25525114982578 7.00700153310104
    vertex 82.9161848083624 7.00700153310105 7.00700153310105
    vertex 27.8820269337979 5.25525114982578 7.00700153310104
  endloop
endfacet
facet normal -3.19570744429399e-031 5.92118946466753e-016 -1.0
  outer loop
    vertex 27.8820269337979 5.25525114982578 7.00700153310104
    vertex 82.9161848083624 7.00700153310105 7.00700153310105
    vertex 58.2457002439024 5.25525114982578 7.00700153310104
  endloop
endfacet
facet normal -3.19570744429399e-031 5.92118946466753e-016 -1.0
  outer loop
    vertex 58.2457002439024 5.25525114982578 7.00700153310104
    vertex 82.9161848083624 7.00700153310105 7.00700153310105
    vertex 80.8724760278746 5.25525114982578 7.00700153310104
  endloop
endfacet
facet normal -3.19570744429399e-031 5.92118946466753e-016 -1.0
  outer loop
    vertex 80.8724760278746 5.25525114982578 7.00700153310104
    vertex 82.9161848083624 7.00700153310105 7.00700153310105
    vertex 82.9161848083624 5.25525114982579 7.00700153310104
  endloop
endfacet
facet normal -1.0 0.0 0.0
  outer loop
    vertex 3.21154236933798 7.00700153310098 7.00700153310105
    vertex 3.21154236933798 5.25525114982573 0.0
    vertex 3.21154236933798 5.25525114982572 7.00700153310104
  endloop
endfacet
facet normal -1.0 0.0 0.0
  outer loop
    vertex 3.21154236933798 5.25525114982573 0.0
    vertex 3.21154236933798 7.00700153310098 7.00700153310105
    vertex 3.21154236933798 7.00700153310099 0.0
  endloop
endfacet
facet normal 0.0 0.0 -1.0
  outer loop
    vertex 80.8724760278746 5.25525114982578 7.00700153310104
    vertex 58.2457002439024 0.0 7.00700153310104
    vertex 58.2457002439024 5.25525114982578 7.00700153310104
  endloop
endfacet
facet normal 0.0 0.0 -1.0
  outer loop
    vertex 58.2457002439024 0.0 7.00700153310104
    vertex 80.8724760278746 5.25525114982578 7.00700153310104
    vertex 80.8724760278746 0.0 7.00700153310104
  endloop
endfacet
facet normal 0.0 0.0 -1.0
  outer loop
    vertex 27.8820269337979 5.25525114982578 7.00700153310104
    vertex 5.25525114982579 -5.63993296509579e-015 7.00700153310104
    vertex 5.25525114982579 5.25525114982578 7.00700153310104
  endloop
endfacet
facet normal 0.0 0.0 -1.0
  outer loop
    vertex 5.25525114982579 -5.63993296509579e-015 7.00700153310104
    vertex 27.8820269337979 5.25525114982578 7.00700153310104
    vertex 27.8820269337979 -5.63993296509579e-015 7.00700153310104
  endloop
endfacet
facet normal -3.44071830009677e-018 1.22389657229437e-017 -1.0
  outer loop
    vertex 84.9598935888502 28.9038813240418 7.00700153310104
    vertex 82.9161848083624 27.1521309407665 7.00700153310105
    vertex 82.9161848083624 28.9038813240418 7.00700153310105
  endloop
endfacet
facet normal -3.44071830009677e-018 1.22389657229437e-017 -1.0
  outer loop
    vertex 82.9161848083624 27.1521309407665 7.00700153310105
    vertex 84.9598935888502 28.9038813240418 7.00700153310104
    vertex 82.9161848083624 7.00700153310105 7.00700153310105
  endloop
endfacet
facet normal -3.44071830009677e-018 1.22389657229437e-017 -1.0
  outer loop
    vertex 82.9161848083624 7.00700153310105 7.00700153310105
    vertex 84.9598935888502 28.9038813240418 7.00700153310104
    vertex 82.9161848083624 5.25525114982579 7.00700153310104
  endloop
endfacet
facet normal -3.44071830009677e-018 1.22389657229437e-017 -1.0
  outer loop
    vertex 82.9161848083624 5.25525114982579 7.00700153310104
    vertex 84.9598935888502 28.9038813240418 7.00700153310104
    vertex 84.9598935888502 5.25525114982578 7.00700153310104
  endloop
endfacet
facet normal -3.44071830009677e-018 1.22389657229437e-017 -1.0
  outer loop
    vertex 3.21154236933798 28.9038813240418 7.00700153310105
    vertex 1.16783358885018 5.25525114982578 7.00700153310104
    vertex 1.16783358885018 28.9038813240418 7.00700153310104
  endloop
endfacet
facet normal -3.44071830009677e-018 1.22389657229437e-017 -1.0
  outer loop
    vertex 1.16783358885018 5.25525114982578 7.00700153310104
    vertex 3.21154236933798 28.9038813240418 7.00700153310105
    vertex 3.21154236933798 5.25525114982572 7.00700153310104
  endloop
endfacet
facet normal -3.44071830009677e-018 1.22389657229437e-017 -1.0
  outer loop
    vertex 3.21154236933798 5.25525114982572 7.00700153310104
    vertex 3.21154236933798 28.9038813240418 7.00700153310105
    vertex 3.21154236933798 27.1521309407665 7.00700153310105
  endloop
endfacet
facet normal -3.44071830009677e-018 1.22389657229437e-017 -1.0
  outer loop
    vertex 3.21154236933798 5.25525114982572 7.00700153310104
    vertex 3.21154236933798 27.1521309407665 7.00700153310105
    vertex 3.21154236933798 7.00700153310098 7.00700153310105
  endloop
endfacet
facet normal -3.44071830009677e-018 1.22389657229437e-017 -1.0
  outer loop
    vertex 3.21154236933798 7.00700153310098 7.00700153310105
    vertex 3.21154236933798 27.1521309407665 7.00700153310105
    vertex 82.9161848083624 27.1521309407665 7.00700153310105
  endloop
endfacet
facet normal -3.44071830009677e-018 1.22389657229437e-017 -1.0
  outer loop
    vertex 3.21154236933798 7.00700153310098 7.00700153310105
    vertex 82.9161848083624 27.1521309407665 7.00700153310105
    vertex 82.9161848083624 7.00700153310105 7.00700153310105
  endloop
endfacet
facet normal 0.0 0.0 -1.0
  outer loop
    vertex 82.9161848083624 28.9038813240418 1.12798659301916e-014
    vertex 3.21154236933798 27.1521309407665 1.12798659301916e-014
    vertex 3.21154236933798 28.9038813240418 1.12798659301916e-014
  endloop
endfacet
facet normal 0.0 0.0 -1.0
  outer loop
    vertex 3.21154236933798 27.1521309407665 1.12798659301916e-014
    vertex 82.9161848083624 28.9038813240418 1.12798659301916e-014
    vertex 82.9161848083624 27.1521309407665 1.12798659301916e-014
  endloop
endfacet
facet normal 1.0 0.0 0.0
  outer loop
    vertex 82.9161848083624 28.9038813240418 1.12798659301916e-014
    vertex 82.9161848083624 27.1521309407665 7.00700153310105
    vertex 82.9161848083624 27.1521309407665 1.12798659301916e-014
  endloop
endfacet
facet normal 1.0 0.0 0.0
  outer loop
    vertex 82.9161848083624 27.1521309407665 7.00700153310105
    vertex 82.9161848083624 28.9038813240418 1.12798659301916e-014
    vertex 82.9161848083624 28.9038813240418 7.00700153310105
  endloop
endfacet
facet normal 0.0 -1.0 0.0
  outer loop
    vertex 82.9161848083624 27.1521309407665 7.00700153310105
    vertex 3.21154236933798 27.1521309407665 1.12798659301916e-014
    vertex 82.9161848083624 27.1521309407665 1.12798659301916e-014
  endloop
endfacet
facet normal 0.0 -1.0 0.0
  outer loop
    vertex 3.21154236933798 27.1521309407665 1.12798659301916e-014
    vertex 82.9161848083624 27.1521309407665 7.00700153310105
    vertex 3.21154236933798 27.1521309407665 7.00700153310105
  endloop
endfacet
facet normal -1.0 0.0 0.0
  outer loop
    vertex 3.21154236933798 28.9038813240418 7.00700153310105
    vertex 3.21154236933798 27.1521309407665 1.12798659301916e-014
    vertex 3.21154236933798 27.1521309407665 7.00700153310105
  endloop
endfacet
facet normal -1.0 0.0 0.0
  outer loop
    vertex 3.21154236933798 27.1521309407665 1.12798659301916e-014
    vertex 3.21154236933798 28.9038813240418 7.00700153310105
    vertex 3.21154236933798 28.9038813240418 1.12798659301916e-014
  endloop
endfacet
facet normal 0.0 -0.0 -1.0
  outer loop
    vertex 5.25525114982578 -2.11497486191092e-015 0.0
    vertex 1.76247905159244e-015 5.25525114982578 0.0
    vertex 5.25525114982579 5.25525114982578 0.0
  endloop
endfacet
facet normal 0.0 -0.0 -1.0
  outer loop
    vertex 1.76247905159244e-015 5.25525114982578 0.0
    vertex 5.25525114982578 -2.11497486191092e-015 0.0
    vertex -1.33733717092998e-016 0.0 0.0
  endloop
endfacet
facet normal -3.60822483003176e-016 -1.0 0.0
  outer loop
    vertex 5.25525114982578 -2.11497486191092e-015 0.0
    vertex -1.33733717092998e-016 0.0 19.853171010453
    vertex -1.33733717092998e-016 0.0 0.0
  endloop
endfacet
facet normal -3.60822483003176e-016 -1.0 0.0
  outer loop
    vertex -1.33733717092998e-016 0.0 19.853171010453
    vertex 5.25525114982578 -2.11497486191092e-015 0.0
    vertex 5.25525114982578 -2.11497486191092e-015 19.853171010453
  endloop
endfacet
facet normal -1.0 3.60822483003176e-016 0.0
  outer loop
    vertex -1.33733717092998e-016 0.0 19.853171010453
    vertex 1.76247905159244e-015 5.25525114982578 0.0
    vertex -1.33733717092998e-016 0.0 0.0
  endloop
endfacet
facet normal -1.0 3.60822483003176e-016 0.0
  outer loop
    vertex 1.76247905159244e-015 5.25525114982578 0.0
    vertex -1.33733717092998e-016 0.0 19.853171010453
    vertex 1.76247905159244e-015 5.25525114982578 19.853171010453
  endloop
endfacet
facet normal 1.0 -3.60822483003176e-016 0.0
  outer loop
    vertex 5.25525114982579 5.25525114982578 19.853171010453
    vertex 5.25525114982578 -2.11497486191092e-015 0.0
    vertex 5.25525114982579 5.25525114982578 0.0
  endloop
endfacet
facet normal 1.0 -3.60822483003176e-016 0.0
  outer loop
    vertex 5.25525114982578 -2.11497486191092e-015 0.0
    vertex 5.25525114982579 5.25525114982578 19.853171010453
    vertex 5.25525114982578 -2.11497486191092e-015 19.853171010453
  endloop
endfacet
facet normal 3.60822483003176e-016 1.0 0.0
  outer loop
    vertex 5.25525114982579 5.25525114982578 19.853171010453
    vertex 1.76247905159244e-015 5.25525114982578 0.0
    vertex 1.76247905159244e-015 5.25525114982578 19.853171010453
  endloop
endfacet
facet normal 3.60822483003176e-016 1.0 0.0
  outer loop
    vertex 1.76247905159244e-015 5.25525114982578 0.0
    vertex 5.25525114982579 5.25525114982578 19.853171010453
    vertex 5.25525114982579 5.25525114982578 0.0
  endloop
endfacet
facet normal 0.0 -0.0 -1.0
  outer loop
    vertex 6.13112634146342 6.13112634146341 19.853171010453
    vertex 5.25525114982579 5.25525114982578 19.853171010453
    vertex -0.875875191637628 6.13112634146342 19.853171010453
  endloop
endfacet
facet normal 0.0 -0.0 -1.0
  outer loop
    vertex 5.25525114982579 5.25525114982578 19.853171010453
    vertex 6.13112634146342 6.13112634146341 19.853171010453
    vertex 6.13112634146341 -0.875875191637632 19.853171010453
  endloop
endfacet
facet normal 0.0 -0.0 -1.0
  outer loop
    vertex 5.25525114982579 5.25525114982578 19.853171010453
    vertex 6.13112634146341 -0.875875191637632 19.853171010453
    vertex 5.25525114982578 -2.11497486191092e-015 19.853171010453
  endloop
endfacet
facet normal 0.0 -0.0 -1.0
  outer loop
    vertex 5.25525114982578 -2.11497486191092e-015 19.853171010453
    vertex 6.13112634146341 -0.875875191637632 19.853171010453
    vertex -1.33733717092998e-016 0.0 19.853171010453
  endloop
endfacet
facet normal 0.0 -0.0 -1.0
  outer loop
    vertex -0.875875191637628 6.13112634146342 19.853171010453
    vertex 1.76247905159244e-015 5.25525114982578 19.853171010453
    vertex -0.875875191637631 -0.87587519163763 19.853171010453
  endloop
endfacet
facet normal 0.0 -0.0 -1.0
  outer loop
    vertex 1.76247905159244e-015 5.25525114982578 19.853171010453
    vertex -0.875875191637628 6.13112634146342 19.853171010453
    vertex 5.25525114982579 5.25525114982578 19.853171010453
  endloop
endfacet
facet normal 0.0 -0.0 -1.0
  outer loop
    vertex -0.875875191637631 -0.87587519163763 19.853171010453
    vertex 1.76247905159244e-015 5.25525114982578 19.853171010453
    vertex -1.33733717092998e-016 0.0 19.853171010453
  endloop
endfacet
facet normal 0.0 -0.0 -1.0
  outer loop
    vertex -0.875875191637631 -0.87587519163763 19.853171010453
    vertex -1.33733717092998e-016 0.0 19.853171010453
    vertex 6.13112634146341 -0.875875191637632 19.853171010453
  endloop
endfacet
facet normal 0.0 0.0 1.0
  outer loop
    vertex -0.875875191637628 6.13112634146342 20.7290462020906
    vertex 1.76247905159244e-015 5.25525114982578 20.7290462020906
    vertex 6.13112634146342 6.13112634146341 20.7290462020906
  endloop
endfacet
facet normal 0.0 0.0 1.0
  outer loop
    vertex 1.76247905159244e-015 5.25525114982578 20.7290462020906
    vertex -0.875875191637628 6.13112634146342 20.7290462020906
    vertex -0.875875191637631 -0.87587519163763 20.7290462020906
  endloop
endfacet
facet normal 0.0 0.0 1.0
  outer loop
    vertex 1.76247905159244e-015 5.25525114982578 20.7290462020906
    vertex -0.875875191637631 -0.87587519163763 20.7290462020906
    vertex 4.32496484667236e-016 1.56927638501742 20.7290462020906
  endloop
endfacet
facet normal 0.0 0.0 1.0
  outer loop
    vertex 4.32496484667236e-016 1.56927638501742 20.7290462020906
    vertex -0.875875191637631 -0.87587519163763 20.7290462020906
    vertex -1.33733717092998e-016 0.0 20.7290462020906
  endloop
endfacet
facet normal 0.0 0.0 1.0
  outer loop
    vertex -1.33733717092998e-016 0.0 20.7290462020906
    vertex -0.875875191637631 -0.87587519163763 20.7290462020906
    vertex 5.25525114982578 -2.11497486191092e-015 20.7290462020906
  endloop
endfacet
facet normal 0.0 0.0 1.0
  outer loop
    vertex 6.13112634146342 6.13112634146341 20.7290462020906
    vertex 5.25525114982579 5.25525114982578 20.7290462020906
    vertex 6.13112634146341 -0.875875191637632 20.7290462020906
  endloop
endfacet
facet normal 0.0 0.0 1.0
  outer loop
    vertex 5.25525114982579 5.25525114982578 20.7290462020906
    vertex 6.13112634146342 6.13112634146341 20.7290462020906
    vertex 1.76247905159244e-015 5.25525114982578 20.7290462020906
  endloop
endfacet
facet normal 0.0 0.0 1.0
  outer loop
    vertex 6.13112634146341 -0.875875191637632 20.7290462020906
    vertex 5.25525114982579 5.25525114982578 20.7290462020906
    vertex 5.25525114982578 -2.11497486191092e-015 20.7290462020906
  endloop
endfacet
facet normal 0.0 0.0 1.0
  outer loop
    vertex 6.13112634146341 -0.875875191637632 20.7290462020906
    vertex 5.25525114982578 -2.11497486191092e-015 20.7290462020906
    vertex -0.875875191637631 -0.87587519163763 20.7290462020906
  endloop
endfacet
facet normal 1.0 -3.60822483003176e-016 0.0
  outer loop
    vertex 6.13112634146342 6.13112634146341 20.7290462020906
    vertex 6.13112634146341 -0.875875191637632 19.853171010453
    vertex 6.13112634146342 6.13112634146341 19.853171010453
  endloop
endfacet
facet normal 1.0 -3.60822483003176e-016 0.0
  outer loop
    vertex 6.13112634146341 -0.875875191637632 19.853171010453
    vertex 6.13112634146342 6.13112634146341 20.7290462020906
    vertex 6.13112634146341 -0.875875191637632 20.7290462020906
  endloop
endfacet
facet normal 3.60822483003176e-016 1.0 0.0
  outer loop
    vertex 6.13112634146342 6.13112634146341 20.7290462020906
    vertex -0.875875191637628 6.13112634146342 19.853171010453
    vertex -0.875875191637628 6.13112634146342 20.7290462020906
  endloop
endfacet
facet normal 3.60822483003176e-016 1.0 0.0
  outer loop
    vertex -0.875875191637628 6.13112634146342 19.853171010453
    vertex 6.13112634146342 6.13112634146341 20.7290462020906
    vertex 6.13112634146342 6.13112634146341 19.853171010453
  endloop
endfacet
facet normal -1.0 3.60822483003176e-016 0.0
  outer loop
    vertex -0.875875191637631 -0.87587519163763 20.7290462020906
    vertex -0.875875191637628 6.13112634146342 19.853171010453
    vertex -0.875875191637631 -0.87587519163763 19.853171010453
  endloop
endfacet
facet normal -1.0 3.60822483003176e-016 0.0
  outer loop
    vertex -0.875875191637628 6.13112634146342 19.853171010453
    vertex -0.875875191637631 -0.87587519163763 20.7290462020906
    vertex -0.875875191637628 6.13112634146342 20.7290462020906
  endloop
endfacet
facet normal -3.60822483003176e-016 -1.0 0.0
  outer loop
    vertex 6.13112634146341 -0.875875191637632 19.853171010453
    vertex -0.875875191637631 -0.87587519163763 20.7290462020906
    vertex -0.875875191637631 -0.87587519163763 19.853171010453
  endloop
endfacet
facet normal -3.60822483003176e-016 -1.0 0.0
  outer loop
    vertex -0.875875191637631 -0.87587519163763 20.7290462020906
    vertex 6.13112634146341 -0.875875191637632 19.853171010453
    vertex 6.13112634146341 -0.875875191637632 20.7290462020906
  endloop
endfacet
facet normal -3.60822483003176e-016 -1.0 0.0
  outer loop
    vertex 5.25525114982579 5.25525114982578 19.853171010453
    vertex 1.76247905159244e-015 5.25525114982578 20.7290462020906
    vertex 1.76247905159244e-015 5.25525114982578 19.853171010453
  endloop
endfacet
facet normal -3.60822483003176e-016 -1.0 0.0
  outer loop
    vertex 1.76247905159244e-015 5.25525114982578 20.7290462020906
    vertex 5.25525114982579 5.25525114982578 19.853171010453
    vertex 5.25525114982579 5.25525114982578 20.7290462020906
  endloop
endfacet
facet normal -1.0 3.60822483003176e-016 0.0
  outer loop
    vertex 5.25525114982578 -2.11497486191092e-015 20.7290462020906
    vertex 5.25525114982579 5.25525114982578 19.853171010453
    vertex 5.25525114982578 -2.11497486191092e-015 19.853171010453
  endloop
endfacet
facet normal -1.0 3.60822483003176e-016 0.0
  outer loop
    vertex 5.25525114982579 5.25525114982578 19.853171010453
    vertex 5.25525114982578 -2.11497486191092e-015 20.7290462020906
    vertex 5.25525114982579 5.25525114982578 20.7290462020906
  endloop
endfacet
facet normal 3.60822483003176e-016 1.0 0.0
  outer loop
    vertex 5.25525114982578 -2.11497486191092e-015 20.7290462020906
    vertex -1.33733717092998e-016 0.0 19.853171010453
    vertex -1.33733717092998e-016 0.0 20.7290462020906
  endloop
endfacet
facet normal 3.60822483003176e-016 1.0 0.0
  outer loop
    vertex -1.33733717092998e-016 0.0 19.853171010453
    vertex 5.25525114982578 -2.11497486191092e-015 20.7290462020906
    vertex 5.25525114982578 -2.11497486191092e-015 19.853171010453
  endloop
endfacet
facet normal 1.0 -3.60822483003176e-016 0.0
  outer loop
    vertex 1.76247905159244e-015 5.25525114982578 20.7290462020906
    vertex -1.33733717092998e-016 0.0 19.853171010453
    vertex 1.76247905159244e-015 5.25525114982578 19.853171010453
  endloop
endfacet
facet normal 1.0 -3.60822483003176e-016 0.0
  outer loop
    vertex -1.33733717092998e-016 0.0 19.853171010453
    vertex 1.76247905159244e-015 5.25525114982578 20.7290462020906
    vertex -1.33733717092998e-016 0.0 20.7290462020906
  endloop
endfacet
facet normal 1.0 -3.60822483003176e-016 0.0
  outer loop
    vertex -1.33733717092998e-016 0.0 20.7290462020906
    vertex 1.76247905159244e-015 5.25525114982578 20.7290462020906
    vertex 4.32496484667236e-016 1.56927638501742 20.7290462020906
  endloop
endfacet
facet normal 3.71658518834804e-016 0.988389776155377 0.151939627456181
  outer loop
    vertex 1.75175038327526 3.50350076655052 32.1244418483308
    vertex 5.25525114982579 5.25525114982578 20.7290462020906
    vertex 1.76247905159244e-015 5.25525114982578 20.7290462020906
  endloop
endfacet
facet normal 3.71658518834804e-016 0.988389776155377 0.151939627456181
  outer loop
    vertex 5.25525114982579 5.25525114982578 20.7290462020906
    vertex 1.75175038327526 3.50350076655052 32.1244418483308
    vertex 3.50350076655052 3.50350076655052 32.1244418483308
  endloop
endfacet
facet normal -0.988389776155377 3.51423113546718e-016 0.151939627456181
  outer loop
    vertex 1.75175038327526 1.75175038327526 32.1244418483308
    vertex 4.32496484667236e-016 1.56927638501742 20.7290462020906
    vertex -1.33733717092998e-016 0.0 20.7290462020906
  endloop
endfacet
facet normal -0.988389776155377 3.51423113546718e-016 0.151939627456181
  outer loop
    vertex 4.32496484667236e-016 1.56927638501742 20.7290462020906
    vertex 1.75175038327526 1.75175038327526 32.1244418483308
    vertex 1.76247905159244e-015 5.25525114982578 20.7290462020906
  endloop
endfacet
facet normal -0.988389776155377 3.51423113546718e-016 0.151939627456181
  outer loop
    vertex 1.76247905159244e-015 5.25525114982578 20.7290462020906
    vertex 1.75175038327526 1.75175038327526 32.1244418483308
    vertex 1.75175038327526 3.50350076655052 32.1244418483308
  endloop
endfacet
facet normal -3.61116131345057e-016 -0.988389776155377 0.151939627456181
  outer loop
    vertex 5.25525114982578 -2.11497486191092e-015 20.7290462020906
    vertex 1.75175038327526 1.75175038327526 32.1244418483308
    vertex -1.33733717092998e-016 0.0 20.7290462020906
  endloop
endfacet
facet normal -3.61116131345057e-016 -0.988389776155377 0.151939627456181
  outer loop
    vertex 1.75175038327526 1.75175038327526 32.1244418483308
    vertex 5.25525114982578 -2.11497486191092e-015 20.7290462020906
    vertex 3.50350076655052 1.75175038327526 32.1244418483308
  endloop
endfacet
facet normal 0.988389776155377 -3.95649540737712e-016 0.151939627456181
  outer loop
    vertex 3.50350076655052 3.50350076655052 32.1244418483308
    vertex 5.25525114982578 -2.11497486191092e-015 20.7290462020906
    vertex 5.25525114982579 5.25525114982578 20.7290462020906
  endloop
endfacet
facet normal 0.988389776155377 -3.95649540737712e-016 0.151939627456181
  outer loop
    vertex 5.25525114982578 -2.11497486191092e-015 20.7290462020906
    vertex 3.50350076655052 3.50350076655052 32.1244418483308
    vertex 3.50350076655052 1.75175038327526 32.1244418483308
  endloop
endfacet
facet normal 0.0 0.0 1.0
  outer loop
    vertex 1.75175038327526 1.75175038327526 32.1244418483308
    vertex 3.50350076655052 3.50350076655052 32.1244418483308
    vertex 1.75175038327526 3.50350076655052 32.1244418483308
  endloop
endfacet
facet normal 0.0 0.0 1.0
  outer loop
    vertex 3.50350076655052 3.50350076655052 32.1244418483308
    vertex 1.75175038327526 1.75175038327526 32.1244418483308
    vertex 3.50350076655052 1.75175038327526 32.1244418483308
  endloop
endfacet
facet normal 0.0 0.0 1.0
  outer loop
    vertex 52.9904490940766 1.75175038327526 7.00700153310104
    vertex 33.1372780836237 5.25525114982574 7.00700153310104
    vertex 33.1372780836237 1.75175038327526 7.00700153310104
  endloop
endfacet
facet normal 0.0 0.0 1.0
  outer loop
    vertex 33.1372780836237 5.25525114982574 7.00700153310104
    vertex 52.9904490940766 1.75175038327526 7.00700153310104
    vertex 52.9904490940766 5.25525114982574 7.00700153310104
  endloop
endfacet
facet normal 0.0 -1.0 0.0
  outer loop
    vertex 52.9904490940766 1.75175038327526 7.00700153310104
    vertex 33.1372780836237 1.75175038327526 5.25525114982578
    vertex 52.9904490940766 1.75175038327526 5.25525114982578
  endloop
endfacet
facet normal 0.0 -1.0 0.0
  outer loop
    vertex 33.1372780836237 1.75175038327526 5.25525114982578
    vertex 52.9904490940766 1.75175038327526 7.00700153310104
    vertex 33.1372780836237 1.75175038327526 7.00700153310104
  endloop
endfacet
facet normal 1.26136262965816e-016 1.0 -9.72766840623947e-016
  outer loop
    vertex 33.1372780836237 5.25525114982574 7.00700153310104
    vertex 52.9904490940766 5.25525114982573 9.87851991826794e-017
    vertex 33.1372780836237 5.25525114982573 9.87851991826794e-017
  endloop
endfacet
facet normal 1.26136262965816e-016 1.0 -9.72766840623947e-016
  outer loop
    vertex 52.9904490940766 5.25525114982573 9.87851991826794e-017
    vertex 33.1372780836237 5.25525114982574 7.00700153310104
    vertex 52.9904490940766 5.25525114982574 7.00700153310104
  endloop
endfacet
facet normal 0.0 -1.0 0.0
  outer loop
    vertex 52.9904490940766 -1.75175038327526 5.25525114982578
    vertex 33.1372780836237 -1.75175038327526 3.50350076655052
    vertex 52.9904490940766 -1.75175038327526 3.50350076655052
  endloop
endfacet
facet normal 0.0 -1.0 0.0
  outer loop
    vertex 33.1372780836237 -1.75175038327526 3.50350076655052
    vertex 52.9904490940766 -1.75175038327526 5.25525114982578
    vertex 33.1372780836237 -1.75175038327526 5.25525114982578
  endloop
endfacet
facet normal 0.0 0.0 1.0
  outer loop
    vertex 52.9904490940766 -1.75175038327526 5.25525114982578
    vertex 33.1372780836237 1.75175038327526 5.25525114982578
    vertex 33.1372780836237 -1.75175038327526 5.25525114982578
  endloop
endfacet
facet normal 0.0 0.0 1.0
  outer loop
    vertex 33.1372780836237 1.75175038327526 5.25525114982578
    vertex 52.9904490940766 -1.75175038327526 5.25525114982578
    vertex 52.9904490940766 1.75175038327526 5.25525114982578
  endloop
endfacet
facet normal -1.0 0.0 0.0
  outer loop
    vertex 33.1372780836237 -1.75175038327526 3.50350076655052
    vertex 33.1372780836237 -5.25525114982579 1.75175038327526
    vertex 33.1372780836237 -5.25525114982579 3.50350076655052
  endloop
endfacet
facet normal -1.0 0.0 0.0
  outer loop
    vertex 33.1372780836237 1.75175038327526 5.25525114982578
    vertex 33.1372780836237 -1.75175038327526 3.50350076655052
    vertex 33.1372780836237 -1.75175038327526 5.25525114982578
  endloop
endfacet
facet normal -1.0 0.0 0.0
  outer loop
    vertex 33.1372780836237 5.25525114982574 7.00700153310104
    vertex 33.1372780836237 1.75175038327526 5.25525114982578
    vertex 33.1372780836237 1.75175038327526 7.00700153310104
  endloop
endfacet
facet normal -1.0 0.0 0.0
  outer loop
    vertex 33.1372780836237 1.75175038327526 5.25525114982578
    vertex 33.1372780836237 5.25525114982574 7.00700153310104
    vertex 33.1372780836237 5.25525114982573 9.87851991826794e-017
  endloop
endfacet
facet normal -1.0 0.0 0.0
  outer loop
    vertex 33.1372780836237 -5.25525114982579 1.75175038327526
    vertex 33.1372780836237 -8.75875191637632 -1.03724459141767e-015
    vertex 33.1372780836237 -8.75875191637632 1.75175038327526
  endloop
endfacet
facet normal -1.0 0.0 0.0
  outer loop
    vertex 33.1372780836237 -8.75875191637632 -1.03724459141767e-015
    vertex 33.1372780836237 -5.25525114982579 1.75175038327526
    vertex 33.1372780836237 5.25525114982573 9.87851991826794e-017
  endloop
endfacet
facet normal -1.0 0.0 0.0
  outer loop
    vertex 33.1372780836237 5.25525114982573 9.87851991826794e-017
    vertex 33.1372780836237 -5.25525114982579 1.75175038327526
    vertex 33.1372780836237 -1.75175038327526 3.50350076655052
  endloop
endfacet
facet normal -1.0 0.0 0.0
  outer loop
    vertex 33.1372780836237 5.25525114982573 9.87851991826794e-017
    vertex 33.1372780836237 -1.75175038327526 3.50350076655052
    vertex 33.1372780836237 1.75175038327526 5.25525114982578
  endloop
endfacet
facet normal 0.0 -1.0 0.0
  outer loop
    vertex 52.9904490940766 -8.75875191637632 1.75175038327526
    vertex 33.1372780836237 -8.75875191637632 -1.03724459141767e-015
    vertex 52.9904490940766 -8.75875191637632 -1.03724459141767e-015
  endloop
endfacet
facet normal 0.0 -1.0 0.0
  outer loop
    vertex 33.1372780836237 -8.75875191637632 -1.03724459141767e-015
    vertex 52.9904490940766 -8.75875191637632 1.75175038327526
    vertex 33.1372780836237 -8.75875191637632 1.75175038327526
  endloop
endfacet
facet normal 0.0 0.0 -1.0
  outer loop
    vertex 52.9904490940766 5.25525114982573 9.87851991826794e-017
    vertex 33.1372780836237 -8.75875191637632 -1.03724459141767e-015
    vertex 33.1372780836237 5.25525114982573 9.87851991826794e-017
  endloop
endfacet
facet normal 0.0 0.0 -1.0
  outer loop
    vertex 33.1372780836237 -8.75875191637632 -1.03724459141767e-015
    vertex 52.9904490940766 5.25525114982573 9.87851991826794e-017
    vertex 52.9904490940766 -8.75875191637632 -1.03724459141767e-015
  endloop
endfacet
facet normal 1.0 0.0 0.0
  outer loop
    vertex 52.9904490940766 5.25525114982573 9.87851991826794e-017
    vertex 52.9904490940766 -8.75875191637632 1.75175038327526
    vertex 52.9904490940766 -8.75875191637632 -1.03724459141767e-015
  endloop
endfacet
facet normal 1.0 0.0 0.0
  outer loop
    vertex 52.9904490940766 -8.75875191637632 1.75175038327526
    vertex 52.9904490940766 5.25525114982573 9.87851991826794e-017
    vertex 52.9904490940766 -5.25525114982579 1.75175038327526
  endloop
endfacet
facet normal 1.0 0.0 0.0
  outer loop
    vertex 52.9904490940766 -5.25525114982579 1.75175038327526
    vertex 52.9904490940766 5.25525114982573 9.87851991826794e-017
    vertex 52.9904490940766 -5.25525114982579 3.50350076655052
  endloop
endfacet
facet normal 1.0 0.0 0.0
  outer loop
    vertex 52.9904490940766 -5.25525114982579 3.50350076655052
    vertex 52.9904490940766 5.25525114982573 9.87851991826794e-017
    vertex 52.9904490940766 -1.75175038327526 3.50350076655052
  endloop
endfacet
facet normal 1.0 0.0 0.0
  outer loop
    vertex 52.9904490940766 -1.75175038327526 3.50350076655052
    vertex 52.9904490940766 5.25525114982573 9.87851991826794e-017
    vertex 52.9904490940766 -1.75175038327526 5.25525114982578
  endloop
endfacet
facet normal 1.0 0.0 0.0
  outer loop
    vertex 52.9904490940766 -1.75175038327526 5.25525114982578
    vertex 52.9904490940766 5.25525114982573 9.87851991826794e-017
    vertex 52.9904490940766 1.75175038327526 5.25525114982578
  endloop
endfacet
facet normal 1.0 0.0 0.0
  outer loop
    vertex 52.9904490940766 1.75175038327526 5.25525114982578
    vertex 52.9904490940766 5.25525114982573 9.87851991826794e-017
    vertex 52.9904490940766 1.75175038327526 7.00700153310104
  endloop
endfacet
facet normal 1.0 0.0 0.0
  outer loop
    vertex 52.9904490940766 1.75175038327526 7.00700153310104
    vertex 52.9904490940766 5.25525114982573 9.87851991826794e-017
    vertex 52.9904490940766 5.25525114982574 7.00700153310104
  endloop
endfacet
facet normal 0.0 0.0 1.0
  outer loop
    vertex 52.9904490940766 -8.75875191637632 1.75175038327526
    vertex 33.1372780836237 -5.25525114982579 1.75175038327526
    vertex 33.1372780836237 -8.75875191637632 1.75175038327526
  endloop
endfacet
facet normal 0.0 0.0 1.0
  outer loop
    vertex 33.1372780836237 -5.25525114982579 1.75175038327526
    vertex 52.9904490940766 -8.75875191637632 1.75175038327526
    vertex 52.9904490940766 -5.25525114982579 1.75175038327526
  endloop
endfacet
facet normal 0.0 -1.0 0.0
  outer loop
    vertex 52.9904490940766 -5.25525114982579 3.50350076655052
    vertex 33.1372780836237 -5.25525114982579 1.75175038327526
    vertex 52.9904490940766 -5.25525114982579 1.75175038327526
  endloop
endfacet
facet normal 0.0 -1.0 0.0
  outer loop
    vertex 33.1372780836237 -5.25525114982579 1.75175038327526
    vertex 52.9904490940766 -5.25525114982579 3.50350076655052
    vertex 33.1372780836237 -5.25525114982579 3.50350076655052
  endloop
endfacet
facet normal 0.0 3.65389856205748e-017 1.0
  outer loop
    vertex 52.9904490940766 -5.25525114982579 3.50350076655052
    vertex 33.1372780836237 -1.75175038327526 3.50350076655052
    vertex 33.1372780836237 -5.25525114982579 3.50350076655052
  endloop
endfacet
facet normal 0.0 3.65389856205748e-017 1.0
  outer loop
    vertex 33.1372780836237 -1.75175038327526 3.50350076655052
    vertex 52.9904490940766 -5.25525114982579 3.50350076655052
    vertex 52.9904490940766 -1.75175038327526 3.50350076655052
  endloop
endfacet
endsolid Untitled-5b1ae81a
