solid Untitled-5b0acb68
facet normal 0.374765844497923 -0.374765844497923 -0.847998304005095
  outer loop
    vertex 14.6575128117901 4.7482083756503 15.6196289772727
    vertex 12.1801867027551 5.16109606048945 14.3423228693182
    vertex 13.212405914853 6.19331527258735 14.3423228693182
  endloop
endfacet
facet normal 0.374765844497923 -0.374765844497923 -0.847998304005095
  outer loop
    vertex 12.1801867027551 5.16109606048945 14.3423228693182
    vertex 14.6575128117901 4.7482083756503 15.6196289772727
    vertex 13.6252935996922 3.71598916355241 15.6196289772727
  endloop
endfacet
facet normal 0.374765844497926 -0.37476584449791 -0.847998304005099
  outer loop
    vertex 17.134838920825 2.27088226661539 17.8092965909091
    vertex 14.6575128117901 2.68376995145451 16.5319904829546
    vertex 15.689732023888 3.71598916355241 16.5319904829546
  endloop
endfacet
facet normal 0.374765844497926 -0.37476584449791 -0.847998304005099
  outer loop
    vertex 14.6575128117901 2.68376995145451 16.5319904829546
    vertex 17.134838920825 2.27088226661539 17.8092965909091
    vertex 16.1026197087272 1.23866305451752 17.8092965909091
  endloop
endfacet
facet normal -0.707106781186548 -0.707106781186547 0.0
  outer loop
    vertex 22.502378823734 -13.8317374421118 8.75867045454546
    vertex 21.4701596116361 -12.7995182300139 17.8092965909091
    vertex 21.4701596116361 -12.7995182300139 8.75867045454546
  endloop
endfacet
facet normal -0.707106781186548 -0.707106781186547 0.0
  outer loop
    vertex 21.4701596116361 -12.7995182300139 17.8092965909091
    vertex 22.502378823734 -13.8317374421118 8.75867045454546
    vertex 22.502378823734 -13.8317374421118 17.8092965909091
  endloop
endfacet
facet normal 0.707106781186547 -0.707106781186548 0.0
  outer loop
    vertex 10.7350798058181 8.67064138162229 2.18966761363636
    vertex 9.70286059372019 7.6384221695244 12.1526552556819
    vertex 9.70286059372019 7.6384221695244 2.18966761363636
  endloop
endfacet
facet normal 0.707106781186547 -0.707106781186548 0.0
  outer loop
    vertex 9.70286059372019 7.6384221695244 12.1526552556819
    vertex 10.7350798058181 8.67064138162229 2.18966761363636
    vertex 10.7350798058181 8.67064138162229 12.1526552556819
  endloop
endfacet
facet normal 7.57910341456266e-019 -7.57910341456266e-019 -1.0
  outer loop
    vertex 27.8699187266431 -8.46419753920272 2.75380024655589e-017
    vertex 1.76247905159244e-016 3.52495810318487e-016 0.0
    vertex 9.70286059372019 9.70286059372018 0.0
  endloop
endfacet
facet normal 7.57910341456266e-019 -7.57910341456266e-019 -1.0
  outer loop
    vertex 1.76247905159244e-016 3.52495810318487e-016 0.0
    vertex 27.8699187266431 -8.46419753920272 2.75380024655589e-017
    vertex 18.1670581329229 -18.1670581329229 2.75380024655589e-017
  endloop
endfacet
facet normal -1.40680284298069e-014 -1.40680284298069e-014 1.0
  outer loop
    vertex 8.01260163390989 9.32868112933469 12.7000721590909
    vertex 9.70286059372014 9.70286059372017 12.7000721590909
    vertex 9.04482084600774 10.3609003414326 12.7000721590909
  endloop
endfacet
facet normal -1.40680284298069e-014 -1.40680284298069e-014 1.0
  outer loop
    vertex 9.70286059372014 9.70286059372017 12.7000721590909
    vertex 8.01260163390989 9.32868112933469 12.7000721590909
    vertex 8.67064138162229 8.67064138162229 12.7000721590909
  endloop
endfacet
facet normal 6.75139757234023e-016 -1.67999893079164e-015 -1.0
  outer loop
    vertex 26.8376995145452 -7.43197832710483 17.8092965909091
    vertex 23.6034126499718 -6.26212988672721 17.8092965909091
    vertex 24.6356318620697 -5.22991067462932 17.8092965909091
  endloop
endfacet
facet normal 6.75139757234023e-016 -1.67999893079164e-015 -1.0
  outer loop
    vertex 23.6034126499718 -6.26212988672721 17.8092965909091
    vertex 26.8376995145452 -7.43197832710483 17.8092965909091
    vertex 25.8054803024473 -8.4641975392027 17.8092965909091
  endloop
endfacet
facet normal -0.707106781186547 0.707106781186548 -1.16483765884768e-015
  outer loop
    vertex 9.70286059372014 9.70286059372017 11.24029375
    vertex 8.67064138162229 8.67064138162229 2.18966761363636
    vertex 8.67064138162229 8.67064138162229 11.24029375
  endloop
endfacet
facet normal -0.707106781186547 0.707106781186548 -1.16483765884768e-015
  outer loop
    vertex 8.67064138162229 8.67064138162229 2.18966761363636
    vertex 1.76247905159244e-016 3.52495810318487e-016 0.0
    vertex 1.76247905159244e-016 3.52495810318487e-016 2.18966761363636
  endloop
endfacet
facet normal -0.707106781186547 0.707106781186548 -1.16483765884768e-015
  outer loop
    vertex 1.76247905159244e-016 3.52495810318487e-016 0.0
    vertex 8.67064138162229 8.67064138162229 2.18966761363636
    vertex 9.70286059372019 9.70286059372018 0.0
  endloop
endfacet
facet normal -0.707106781186547 0.707106781186548 -1.16483765884768e-015
  outer loop
    vertex 9.70286059372019 9.70286059372018 0.0
    vertex 8.67064138162229 8.67064138162229 2.18966761363636
    vertex 9.70286059372014 9.70286059372017 11.24029375
  endloop
endfacet
facet normal -0.707106781186547 0.707106781186548 0.0
  outer loop
    vertex 12.1801867027551 7.22553448468524 13.4299613636364
    vertex 11.1479674906572 6.19331527258735 4.37933522727273
    vertex 11.1479674906572 6.19331527258735 13.4299613636364
  endloop
endfacet
facet normal -0.707106781186547 0.707106781186548 0.0
  outer loop
    vertex 11.1479674906572 6.19331527258735 4.37933522727273
    vertex 2.47732610903494 -2.47732610903494 2.18966761363636
    vertex 2.47732610903494 -2.47732610903494 4.37933522727273
  endloop
endfacet
facet normal -0.707106781186547 0.707106781186548 0.0
  outer loop
    vertex 2.47732610903494 -2.47732610903494 2.18966761363636
    vertex 11.1479674906572 6.19331527258735 4.37933522727273
    vertex 12.1801867027551 7.22553448468524 2.18966761363636
  endloop
endfacet
facet normal -0.707106781186547 0.707106781186548 0.0
  outer loop
    vertex 12.1801867027551 7.22553448468524 2.18966761363636
    vertex 11.1479674906572 6.19331527258735 4.37933522727273
    vertex 12.1801867027551 7.22553448468524 13.4299613636364
  endloop
endfacet
facet normal -3.1401849173671e-017 9.73457324383934e-016 -1.0
  outer loop
    vertex 26.8376995145452 -9.49641675130061 17.8092965909091
    vertex 22.502378823734 -11.767299017916 17.8092965909091
    vertex 25.8054803024473 -8.4641975392027 17.8092965909091
  endloop
endfacet
facet normal -3.1401849173671e-017 9.73457324383934e-016 -1.0
  outer loop
    vertex 22.502378823734 -11.767299017916 17.8092965909091
    vertex 26.8376995145452 -9.49641675130061 17.8092965909091
    vertex 23.5345980358319 -12.7995182300139 17.8092965909091
  endloop
endfacet
facet normal 0.707106781186547 -0.707106781186548 0.0
  outer loop
    vertex 18.1670581329229 1.23866305451747 8.75867045454545
    vertex 17.134838920825 0.206443842419579 17.8092965909091
    vertex 17.134838920825 0.206443842419579 8.75867045454545
  endloop
endfacet
facet normal 0.707106781186547 -0.707106781186548 0.0
  outer loop
    vertex 17.134838920825 0.206443842419579 17.8092965909091
    vertex 18.1670581329229 1.23866305451747 8.75867045454545
    vertex 18.1670581329229 1.23866305451747 17.8092965909091
  endloop
endfacet
facet normal 0.707106781186547 -0.707106781186548 5.10414010363635e-016
  outer loop
    vertex 27.8699187266431 -8.46419753920272 2.75380024655589e-017
    vertex 18.1670581329229 -18.1670581329229 8.75867045454546
    vertex 18.1670581329229 -18.1670581329229 2.75380024655589e-017
  endloop
endfacet
facet normal 0.707106781186547 -0.707106781186548 5.10414010363635e-016
  outer loop
    vertex 18.1670581329229 -18.1670581329229 8.75867045454546
    vertex 27.8699187266431 -8.46419753920272 2.75380024655589e-017
    vertex 19.1992773450208 -17.134838920825 8.75867045454546
  endloop
endfacet
facet normal 0.707106781186547 -0.707106781186548 5.10414010363635e-016
  outer loop
    vertex 18.1670581329229 -18.1670581329229 8.75867045454546
    vertex 19.1992773450208 -17.134838920825 8.75867045454546
    vertex 18.1670581329229 -18.1670581329229 19.269075
  endloop
endfacet
facet normal 0.707106781186547 -0.707106781186548 5.10414010363635e-016
  outer loop
    vertex 19.1992773450208 -17.134838920825 8.75867045454546
    vertex 27.8699187266431 -8.46419753920272 2.75380024655589e-017
    vertex 22.502378823734 -13.8317374421118 8.75867045454546
  endloop
endfacet
facet normal 0.707106781186547 -0.707106781186548 5.10414010363635e-016
  outer loop
    vertex 22.502378823734 -13.8317374421118 8.75867045454546
    vertex 27.8699187266431 -8.46419753920272 2.75380024655589e-017
    vertex 23.5345980358319 -12.7995182300139 8.75867045454546
  endloop
endfacet
facet normal 0.707106781186547 -0.707106781186548 5.10414010363635e-016
  outer loop
    vertex 22.502378823734 -13.8317374421118 8.75867045454546
    vertex 23.5345980358319 -12.7995182300139 8.75867045454546
    vertex 22.502378823734 -13.8317374421118 17.8092965909091
  endloop
endfacet
facet normal 0.707106781186547 -0.707106781186548 5.10414010363635e-016
  outer loop
    vertex 23.5345980358319 -12.7995182300139 8.75867045454546
    vertex 27.8699187266431 -8.46419753920272 2.75380024655589e-017
    vertex 26.8376995145452 -9.49641675130061 8.75867045454547
  endloop
endfacet
facet normal 0.707106781186547 -0.707106781186548 5.10414010363635e-016
  outer loop
    vertex 26.8376995145452 -9.49641675130061 8.75867045454547
    vertex 27.8699187266431 -8.46419753920272 2.75380024655589e-017
    vertex 26.8376995145452 -9.49641675130061 17.8092965909091
  endloop
endfacet
facet normal 0.707106781186547 -0.707106781186548 5.10414010363635e-016
  outer loop
    vertex 18.1670581329229 -18.1670581329229 19.269075
    vertex 19.1992773450208 -17.134838920825 17.8092965909091
    vertex 27.8699187266431 -8.46419753920268 19.269075
  endloop
endfacet
facet normal 0.707106781186547 -0.707106781186548 5.10414010363635e-016
  outer loop
    vertex 19.1992773450208 -17.134838920825 17.8092965909091
    vertex 18.1670581329229 -18.1670581329229 19.269075
    vertex 19.1992773450208 -17.134838920825 8.75867045454546
  endloop
endfacet
facet normal 0.707106781186547 -0.707106781186548 5.10414010363635e-016
  outer loop
    vertex 27.8699187266431 -8.46419753920268 19.269075
    vertex 19.1992773450208 -17.134838920825 17.8092965909091
    vertex 22.502378823734 -13.8317374421118 17.8092965909091
  endloop
endfacet
facet normal 0.707106781186547 -0.707106781186548 5.10414010363635e-016
  outer loop
    vertex 27.8699187266431 -8.46419753920268 19.269075
    vertex 22.502378823734 -13.8317374421118 17.8092965909091
    vertex 23.5345980358319 -12.7995182300139 17.8092965909091
  endloop
endfacet
facet normal 0.707106781186547 -0.707106781186548 5.10414010363635e-016
  outer loop
    vertex 23.5345980358319 -12.7995182300139 17.8092965909091
    vertex 22.502378823734 -13.8317374421118 17.8092965909091
    vertex 23.5345980358319 -12.7995182300139 8.75867045454546
  endloop
endfacet
facet normal 0.707106781186547 -0.707106781186548 5.10414010363635e-016
  outer loop
    vertex 27.8699187266431 -8.46419753920268 19.269075
    vertex 23.5345980358319 -12.7995182300139 17.8092965909091
    vertex 26.8376995145452 -9.49641675130061 17.8092965909091
  endloop
endfacet
facet normal 0.707106781186547 -0.707106781186548 5.10414010363635e-016
  outer loop
    vertex 27.8699187266431 -8.46419753920268 19.269075
    vertex 26.8376995145452 -9.49641675130061 17.8092965909091
    vertex 27.8699187266431 -8.46419753920272 2.75380024655589e-017
  endloop
endfacet
facet normal -0.707106781186548 -0.707106781186547 0.0
  outer loop
    vertex 18.1670581329229 -18.1670581329229 8.75867045454546
    vertex 17.134838920825 -17.134838920825 19.269075
    vertex 17.134838920825 -17.134838920825 8.75867045454546
  endloop
endfacet
facet normal -0.707106781186548 -0.707106781186547 0.0
  outer loop
    vertex 17.134838920825 -17.134838920825 19.269075
    vertex 18.1670581329229 -18.1670581329229 8.75867045454546
    vertex 18.1670581329229 -18.1670581329229 19.269075
  endloop
endfacet
facet normal -0.707106781186548 0.707106781186547 8.61865631569964e-016
  outer loop
    vertex 16.1026197087271 1.23866305451747 8.75867045454545
    vertex 7.43197832710482 -7.43197832710482 6.56900284090909
    vertex 7.43197832710482 -7.43197832710482 8.75867045454545
  endloop
endfacet
facet normal -0.707106781186548 0.707106781186547 8.61865631569964e-016
  outer loop
    vertex 7.43197832710482 -7.43197832710482 6.56900284090909
    vertex 16.1026197087271 1.23866305451747 8.75867045454545
    vertex 17.134838920825 2.27088226661536 6.56900284090909
  endloop
endfacet
facet normal -0.707106781186548 0.707106781186547 8.61865631569964e-016
  outer loop
    vertex 17.134838920825 2.27088226661536 6.56900284090909
    vertex 16.1026197087271 1.23866305451747 8.75867045454545
    vertex 16.1026197087272 1.23866305451752 17.8092965909091
  endloop
endfacet
facet normal -0.707106781186548 0.707106781186547 8.61865631569964e-016
  outer loop
    vertex 17.134838920825 2.27088226661536 6.56900284090909
    vertex 16.1026197087272 1.23866305451752 17.8092965909091
    vertex 17.134838920825 2.27088226661539 17.8092965909091
  endloop
endfacet
facet normal -6.65741172780016e-016 3.4105821155858e-016 1.0
  outer loop
    vertex 18.1670581329229 -18.1670581329229 19.269075
    vertex 25.8054803024473 -8.4641975392027 19.269075
    vertex 17.134838920825 -17.134838920825 19.269075
  endloop
endfacet
facet normal -6.65741172780016e-016 3.4105821155858e-016 1.0
  outer loop
    vertex 15.8081894954308 1.53309326781382 19.269075
    vertex 27.8699187266431 -8.46419753920268 19.269075
    vertex 16.8404087075286 2.56531247991168 19.269075
  endloop
endfacet
facet normal -6.65741172780016e-016 3.4105821155858e-016 1.0
  outer loop
    vertex 27.8699187266431 -8.46419753920268 19.269075
    vertex 15.8081894954308 1.53309326781382 19.269075
    vertex 25.8054803024473 -8.4641975392027 19.269075
  endloop
endfacet
facet normal -6.65741172780016e-016 3.4105821155858e-016 1.0
  outer loop
    vertex 27.8699187266431 -8.46419753920268 19.269075
    vertex 25.8054803024473 -8.4641975392027 19.269075
    vertex 18.1670581329229 -18.1670581329229 19.269075
  endloop
endfacet
facet normal -0.707106781186548 -0.707106781186547 1.42922822757484e-015
  outer loop
    vertex 12.1801867027551 5.16109606048945 4.37933522727273
    vertex 11.1479674906572 6.19331527258735 13.4299613636364
    vertex 11.1479674906572 6.19331527258735 4.37933522727273
  endloop
endfacet
facet normal -0.707106781186548 -0.707106781186547 1.42922822757484e-015
  outer loop
    vertex 11.1479674906572 6.19331527258735 13.4299613636364
    vertex 12.1801867027551 5.16109606048945 4.37933522727273
    vertex 12.1801867027551 5.16109606048945 14.3423228693182
  endloop
endfacet
facet normal -0.707106781186548 -0.707106781186547 1.42922822757484e-015
  outer loop
    vertex 14.6575128117901 2.68376995145451 6.56900284090909
    vertex 13.6252935996922 3.71598916355241 15.6196289772727
    vertex 13.6252935996922 3.71598916355241 6.56900284090909
  endloop
endfacet
facet normal -0.707106781186548 -0.707106781186547 1.42922822757484e-015
  outer loop
    vertex 13.6252935996922 3.71598916355241 15.6196289772727
    vertex 14.6575128117901 2.68376995145451 6.56900284090909
    vertex 14.6575128117901 2.68376995145451 16.5319904829546
  endloop
endfacet
facet normal -0.707106781186548 -0.707106781186547 1.42922822757484e-015
  outer loop
    vertex 17.134838920825 0.206443842419579 8.75867045454545
    vertex 16.1026197087272 1.23866305451752 17.8092965909091
    vertex 16.1026197087271 1.23866305451747 8.75867045454545
  endloop
endfacet
facet normal -0.707106781186548 -0.707106781186547 1.42922822757484e-015
  outer loop
    vertex 16.1026197087272 1.23866305451752 17.8092965909091
    vertex 17.134838920825 0.206443842419579 8.75867045454545
    vertex 17.134838920825 0.206443842419579 17.8092965909091
  endloop
endfacet
facet normal -0.707106781186548 -0.707106781186547 1.42922822757484e-015
  outer loop
    vertex 20.3691257853984 -3.02784302215383 8.75867045454546
    vertex 19.3369065733005 -1.99562381005593 17.8092965909091
    vertex 19.3369065733005 -1.99562381005593 8.75867045454545
  endloop
endfacet
facet normal -0.707106781186548 -0.707106781186547 1.42922822757484e-015
  outer loop
    vertex 19.3369065733005 -1.99562381005593 17.8092965909091
    vertex 20.3691257853984 -3.02784302215383 8.75867045454546
    vertex 20.3691257853984 -3.02784302215383 17.8092965909091
  endloop
endfacet
facet normal -0.707106781186548 -0.707106781186547 1.42922822757484e-015
  outer loop
    vertex 19.3369065733005 -1.99562381005593 17.8092965909091
    vertex 20.3691257853984 -3.02784302215383 17.8092965909091
    vertex 22.5711934378739 -5.22991067462932 17.8092965909091
  endloop
endfacet
facet normal -0.707106781186548 -0.707106781186547 1.42922822757484e-015
  outer loop
    vertex 23.6034126499718 -6.26212988672721 8.75867045454546
    vertex 22.5711934378739 -5.22991067462932 17.8092965909091
    vertex 22.5711934378739 -5.22991067462932 8.75867045454546
  endloop
endfacet
facet normal -0.707106781186548 -0.707106781186547 1.42922822757484e-015
  outer loop
    vertex 22.5711934378739 -5.22991067462932 17.8092965909091
    vertex 23.6034126499718 -6.26212988672721 8.75867045454546
    vertex 23.6034126499718 -6.26212988672721 17.8092965909091
  endloop
endfacet
facet normal -0.707106781186548 -0.707106781186547 1.42922822757484e-015
  outer loop
    vertex 22.5711934378739 -5.22991067462932 17.8092965909091
    vertex 23.6034126499718 -6.26212988672721 17.8092965909091
    vertex 25.8054803024473 -8.4641975392027 17.8092965909091
  endloop
endfacet
facet normal -0.707106781186548 -0.707106781186547 1.42922822757484e-015
  outer loop
    vertex 11.1479674906572 6.19331527258735 13.4299613636364
    vertex 8.67064138162229 8.67064138162229 12.7000721590909
    vertex 9.70286059372019 7.6384221695244 12.1526552556819
  endloop
endfacet
facet normal -0.707106781186548 -0.707106781186547 1.42922822757484e-015
  outer loop
    vertex 8.67064138162229 8.67064138162229 12.7000721590909
    vertex 11.1479674906572 6.19331527258735 13.4299613636364
    vertex 15.8081894954308 1.53309326781382 19.269075
  endloop
endfacet
facet normal -0.707106781186548 -0.707106781186547 1.42922822757484e-015
  outer loop
    vertex 15.8081894954308 1.53309326781382 19.269075
    vertex 11.1479674906572 6.19331527258735 13.4299613636364
    vertex 12.1801867027551 5.16109606048945 14.3423228693182
  endloop
endfacet
facet normal -0.707106781186548 -0.707106781186547 1.42922822757484e-015
  outer loop
    vertex 15.8081894954308 1.53309326781382 19.269075
    vertex 12.1801867027551 5.16109606048945 14.3423228693182
    vertex 13.6252935996922 3.71598916355241 15.6196289772727
  endloop
endfacet
facet normal -0.707106781186548 -0.707106781186547 1.42922822757484e-015
  outer loop
    vertex 15.8081894954308 1.53309326781382 19.269075
    vertex 13.6252935996922 3.71598916355241 15.6196289772727
    vertex 14.6575128117901 2.68376995145451 16.5319904829546
  endloop
endfacet
facet normal -0.707106781186548 -0.707106781186547 1.42922822757484e-015
  outer loop
    vertex 15.8081894954308 1.53309326781382 19.269075
    vertex 14.6575128117901 2.68376995145451 16.5319904829546
    vertex 16.1026197087272 1.23866305451752 17.8092965909091
  endloop
endfacet
facet normal -0.707106781186548 -0.707106781186547 1.42922822757484e-015
  outer loop
    vertex 15.8081894954308 1.53309326781382 19.269075
    vertex 16.1026197087272 1.23866305451752 17.8092965909091
    vertex 17.134838920825 0.206443842419579 17.8092965909091
  endloop
endfacet
facet normal -0.707106781186548 -0.707106781186547 1.42922822757484e-015
  outer loop
    vertex 15.8081894954308 1.53309326781382 19.269075
    vertex 17.134838920825 0.206443842419579 17.8092965909091
    vertex 19.3369065733005 -1.99562381005593 17.8092965909091
  endloop
endfacet
facet normal -0.707106781186548 -0.707106781186547 1.42922822757484e-015
  outer loop
    vertex 15.8081894954308 1.53309326781382 19.269075
    vertex 19.3369065733005 -1.99562381005593 17.8092965909091
    vertex 22.5711934378739 -5.22991067462932 17.8092965909091
  endloop
endfacet
facet normal -0.707106781186548 -0.707106781186547 1.42922822757484e-015
  outer loop
    vertex 15.8081894954308 1.53309326781382 19.269075
    vertex 22.5711934378739 -5.22991067462932 17.8092965909091
    vertex 25.8054803024473 -8.4641975392027 17.8092965909091
  endloop
endfacet
facet normal -0.707106781186548 -0.707106781186547 1.42922822757484e-015
  outer loop
    vertex 15.8081894954308 1.53309326781382 19.269075
    vertex 25.8054803024473 -8.4641975392027 17.8092965909091
    vertex 25.8054803024473 -8.4641975392027 19.269075
  endloop
endfacet
facet normal -0.707106781186548 -0.707106781186547 1.42922822757484e-015
  outer loop
    vertex 9.70286059372019 7.6384221695244 2.18966761363636
    vertex 8.67064138162229 8.67064138162229 11.24029375
    vertex 8.67064138162229 8.67064138162229 2.18966761363636
  endloop
endfacet
facet normal -0.707106781186548 -0.707106781186547 1.42922822757484e-015
  outer loop
    vertex 8.67064138162229 8.67064138162229 11.24029375
    vertex 9.70286059372019 7.6384221695244 2.18966761363636
    vertex 9.70286059372019 7.6384221695244 12.1526552556819
  endloop
endfacet
facet normal -0.707106781186548 -0.707106781186547 1.42922822757484e-015
  outer loop
    vertex 8.67064138162229 8.67064138162229 11.24029375
    vertex 9.70286059372019 7.6384221695244 12.1526552556819
    vertex 8.01260163390989 9.32868112933469 11.24029375
  endloop
endfacet
facet normal -0.707106781186548 -0.707106781186547 1.42922822757484e-015
  outer loop
    vertex 8.01260163390989 9.32868112933469 11.24029375
    vertex 9.70286059372019 7.6384221695244 12.1526552556819
    vertex 8.01260163390989 9.32868112933469 12.7000721590909
  endloop
endfacet
facet normal -0.707106781186548 -0.707106781186547 1.42922822757484e-015
  outer loop
    vertex 8.01260163390989 9.32868112933469 12.7000721590909
    vertex 9.70286059372019 7.6384221695244 12.1526552556819
    vertex 8.67064138162229 8.67064138162229 12.7000721590909
  endloop
endfacet
facet normal 8.04527459061614e-018 -8.48001706740615e-017 1.0
  outer loop
    vertex 7.43197832710482 -7.43197832710482 6.56900284090909
    vertex 13.6252935996922 3.71598916355241 6.56900284090909
    vertex 4.95465221806988 -4.95465221806988 6.56900284090909
  endloop
endfacet
facet normal 8.04527459061614e-018 -8.48001706740615e-017 1.0
  outer loop
    vertex 13.6252935996922 3.71598916355241 6.56900284090909
    vertex 7.43197832710482 -7.43197832710482 6.56900284090909
    vertex 14.6575128117901 2.68376995145451 6.56900284090909
  endloop
endfacet
facet normal 8.04527459061614e-018 -8.48001706740615e-017 1.0
  outer loop
    vertex 14.6575128117901 2.68376995145451 6.56900284090909
    vertex 7.43197832710482 -7.43197832710482 6.56900284090909
    vertex 15.689732023888 3.71598916355241 6.56900284090909
  endloop
endfacet
facet normal 8.04527459061614e-018 -8.48001706740615e-017 1.0
  outer loop
    vertex 15.689732023888 3.71598916355241 6.56900284090909
    vertex 7.43197832710482 -7.43197832710482 6.56900284090909
    vertex 17.134838920825 2.27088226661536 6.56900284090909
  endloop
endfacet
facet normal -0.707106781186556 -0.707106781186539 1.83365867292929e-015
  outer loop
    vertex 26.8376995145452 -9.49641675130061 8.75867045454547
    vertex 25.8054803024473 -8.4641975392027 17.8092965909091
    vertex 25.8054803024473 -8.46419753920272 8.75867045454546
  endloop
endfacet
facet normal -0.707106781186556 -0.707106781186539 1.83365867292929e-015
  outer loop
    vertex 25.8054803024473 -8.4641975392027 17.8092965909091
    vertex 26.8376995145452 -9.49641675130061 8.75867045454547
    vertex 26.8376995145452 -9.49641675130061 17.8092965909091
  endloop
endfacet
facet normal 1.4130832128154e-015 -1.4130832128154e-015 -1.0
  outer loop
    vertex 23.6034126499718 -4.19769146253143 17.8092965909091
    vertex 20.3691257853984 -3.02784302215383 17.8092965909091
    vertex 21.4013449974963 -1.99562381005593 17.8092965909091
  endloop
endfacet
facet normal 1.4130832128154e-015 -1.4130832128154e-015 -1.0
  outer loop
    vertex 20.3691257853984 -3.02784302215383 17.8092965909091
    vertex 23.6034126499718 -4.19769146253143 17.8092965909091
    vertex 22.5711934378739 -5.22991067462932 17.8092965909091
  endloop
endfacet
facet normal 9.4205547521026e-016 -9.42055475210261e-016 -1.0
  outer loop
    vertex 20.3691257853984 -0.963404597958041 17.8092965909091
    vertex 17.134838920825 0.206443842419579 17.8092965909091
    vertex 18.1670581329229 1.23866305451747 17.8092965909091
  endloop
endfacet
facet normal 9.4205547521026e-016 -9.42055475210261e-016 -1.0
  outer loop
    vertex 17.134838920825 0.206443842419579 17.8092965909091
    vertex 20.3691257853984 -0.963404597958041 17.8092965909091
    vertex 19.3369065733005 -1.99562381005593 17.8092965909091
  endloop
endfacet
facet normal 1.40680284298069e-014 1.40680284298069e-014 -1.0
  outer loop
    vertex 9.70286059372014 9.70286059372017 11.24029375
    vertex 8.01260163390989 9.32868112933469 11.24029375
    vertex 9.04482084600774 10.3609003414326 11.24029375
  endloop
endfacet
facet normal 1.40680284298069e-014 1.40680284298069e-014 -1.0
  outer loop
    vertex 8.01260163390989 9.32868112933469 11.24029375
    vertex 9.70286059372014 9.70286059372017 11.24029375
    vertex 8.67064138162229 8.67064138162229 11.24029375
  endloop
endfacet
facet normal -0.385690624843868 0.385690624843833 0.838144071037385
  outer loop
    vertex 8.67064138162229 8.67064138162229 12.7000721590909
    vertex 16.8404087075286 2.56531247991168 19.269075
    vertex 9.70286059372014 9.70286059372017 12.7000721590909
  endloop
endfacet
facet normal -0.385690624843868 0.385690624843833 0.838144071037385
  outer loop
    vertex 16.8404087075286 2.56531247991168 19.269075
    vertex 8.67064138162229 8.67064138162229 12.7000721590909
    vertex 15.8081894954308 1.53309326781382 19.269075
  endloop
endfacet
facet normal -0.707106781186547 0.707106781186548 0.0
  outer loop
    vertex 25.8054803024473 -8.4641975392027 17.8092965909091
    vertex 26.8376995145452 -7.43197832710483 8.75867045454546
    vertex 25.8054803024473 -8.46419753920272 8.75867045454546
  endloop
endfacet
facet normal -0.707106781186547 0.707106781186548 0.0
  outer loop
    vertex 26.8376995145452 -7.43197832710483 8.75867045454546
    vertex 25.8054803024473 -8.4641975392027 17.8092965909091
    vertex 26.8376995145452 -7.43197832710483 17.8092965909091
  endloop
endfacet
facet normal -0.707106781186546 0.707106781186549 -2.37163809726691e-016
  outer loop
    vertex 17.134838920825 -17.134838920825 19.269075
    vertex 18.1670581329229 -16.1026197087271 17.8092965909091
    vertex 17.134838920825 -17.134838920825 8.75867045454546
  endloop
endfacet
facet normal -0.707106781186546 0.707106781186549 -2.37163809726691e-016
  outer loop
    vertex 18.1670581329229 -16.1026197087271 17.8092965909091
    vertex 17.134838920825 -17.134838920825 19.269075
    vertex 25.8054803024473 -8.4641975392027 19.269075
  endloop
endfacet
facet normal -0.707106781186546 0.707106781186549 -2.37163809726691e-016
  outer loop
    vertex 18.1670581329229 -16.1026197087271 17.8092965909091
    vertex 25.8054803024473 -8.4641975392027 19.269075
    vertex 21.4701596116361 -12.7995182300139 17.8092965909091
  endloop
endfacet
facet normal -0.707106781186546 0.707106781186549 -2.37163809726691e-016
  outer loop
    vertex 21.4701596116361 -12.7995182300139 17.8092965909091
    vertex 25.8054803024473 -8.4641975392027 19.269075
    vertex 22.502378823734 -11.767299017916 17.8092965909091
  endloop
endfacet
facet normal -0.707106781186546 0.707106781186549 -2.37163809726691e-016
  outer loop
    vertex 21.4701596116361 -12.7995182300139 17.8092965909091
    vertex 22.502378823734 -11.767299017916 17.8092965909091
    vertex 21.4701596116361 -12.7995182300139 8.75867045454546
  endloop
endfacet
facet normal -0.707106781186546 0.707106781186549 -2.37163809726691e-016
  outer loop
    vertex 22.502378823734 -11.767299017916 17.8092965909091
    vertex 25.8054803024473 -8.4641975392027 19.269075
    vertex 25.8054803024473 -8.4641975392027 17.8092965909091
  endloop
endfacet
facet normal -0.707106781186546 0.707106781186549 -2.37163809726691e-016
  outer loop
    vertex 22.502378823734 -11.767299017916 8.75867045454546
    vertex 21.4701596116361 -12.7995182300139 8.75867045454546
    vertex 22.502378823734 -11.767299017916 17.8092965909091
  endloop
endfacet
facet normal -0.707106781186546 0.707106781186549 -2.37163809726691e-016
  outer loop
    vertex 18.1670581329229 -16.1026197087271 8.75867045454546
    vertex 17.134838920825 -17.134838920825 8.75867045454546
    vertex 18.1670581329229 -16.1026197087271 17.8092965909091
  endloop
endfacet
facet normal -0.707106781186559 0.707106781186536 7.71418167727161e-042
  outer loop
    vertex 9.04482084600774 10.3609003414326 12.7000721590909
    vertex 8.01260163390989 9.32868112933469 11.24029375
    vertex 8.01260163390989 9.32868112933469 12.7000721590909
  endloop
endfacet
facet normal -0.707106781186559 0.707106781186536 7.71418167727161e-042
  outer loop
    vertex 8.01260163390989 9.32868112933469 11.24029375
    vertex 9.04482084600774 10.3609003414326 12.7000721590909
    vertex 9.04482084600774 10.3609003414326 11.24029375
  endloop
endfacet
facet normal 3.14018491736755e-016 3.14018491736755e-016 -1.0
  outer loop
    vertex 21.4701596116361 -12.7995182300139 17.8092965909091
    vertex 19.1992773450208 -17.134838920825 17.8092965909091
    vertex 18.1670581329229 -16.1026197087271 17.8092965909091
  endloop
endfacet
facet normal 3.14018491736755e-016 3.14018491736755e-016 -1.0
  outer loop
    vertex 19.1992773450208 -17.134838920825 17.8092965909091
    vertex 21.4701596116361 -12.7995182300139 17.8092965909091
    vertex 22.502378823734 -13.8317374421118 17.8092965909091
  endloop
endfacet
facet normal -6.59886773333034e-016 4.88534340805281e-016 1.0
  outer loop
    vertex 19.1992773450208 -17.134838920825 8.75867045454546
    vertex 21.4701596116361 -12.7995182300139 8.75867045454546
    vertex 18.1670581329229 -16.1026197087271 8.75867045454546
  endloop
endfacet
facet normal -6.59886773333034e-016 4.88534340805281e-016 1.0
  outer loop
    vertex 21.4701596116361 -12.7995182300139 8.75867045454546
    vertex 19.1992773450208 -17.134838920825 8.75867045454546
    vertex 22.502378823734 -13.8317374421118 8.75867045454546
  endloop
endfacet
facet normal -6.59886773333034e-016 4.88534340805281e-016 1.0
  outer loop
    vertex 23.5345980358319 -12.7995182300139 8.75867045454546
    vertex 25.8054803024473 -8.46419753920272 8.75867045454546
    vertex 22.502378823734 -11.767299017916 8.75867045454546
  endloop
endfacet
facet normal -6.59886773333034e-016 4.88534340805281e-016 1.0
  outer loop
    vertex 25.8054803024473 -8.46419753920272 8.75867045454546
    vertex 23.5345980358319 -12.7995182300139 8.75867045454546
    vertex 26.8376995145452 -9.49641675130061 8.75867045454547
  endloop
endfacet
facet normal -6.59886773333034e-016 4.88534340805281e-016 1.0
  outer loop
    vertex 7.43197832710482 -7.43197832710482 8.75867045454545
    vertex 17.134838920825 0.206443842419579 8.75867045454545
    vertex 16.1026197087271 1.23866305451747 8.75867045454545
  endloop
endfacet
facet normal -6.59886773333034e-016 4.88534340805281e-016 1.0
  outer loop
    vertex 17.134838920825 0.206443842419579 8.75867045454545
    vertex 7.43197832710482 -7.43197832710482 8.75867045454545
    vertex 17.134838920825 -17.134838920825 8.75867045454546
  endloop
endfacet
facet normal -6.59886773333034e-016 4.88534340805281e-016 1.0
  outer loop
    vertex 17.134838920825 0.206443842419579 8.75867045454545
    vertex 17.134838920825 -17.134838920825 8.75867045454546
    vertex 18.1670581329229 1.23866305451747 8.75867045454545
  endloop
endfacet
facet normal -6.59886773333034e-016 4.88534340805281e-016 1.0
  outer loop
    vertex 18.1670581329229 1.23866305451747 8.75867045454545
    vertex 17.134838920825 -17.134838920825 8.75867045454546
    vertex 19.3369065733005 -1.99562381005593 8.75867045454545
  endloop
endfacet
facet normal -6.59886773333034e-016 4.88534340805281e-016 1.0
  outer loop
    vertex 19.3369065733005 -1.99562381005593 8.75867045454545
    vertex 17.134838920825 -17.134838920825 8.75867045454546
    vertex 20.3691257853984 -3.02784302215383 8.75867045454546
  endloop
endfacet
facet normal -6.59886773333034e-016 4.88534340805281e-016 1.0
  outer loop
    vertex 20.3691257853984 -3.02784302215383 8.75867045454546
    vertex 17.134838920825 -17.134838920825 8.75867045454546
    vertex 21.4013449974963 -1.99562381005593 8.75867045454546
  endloop
endfacet
facet normal -6.59886773333034e-016 4.88534340805281e-016 1.0
  outer loop
    vertex 21.4013449974963 -1.99562381005593 8.75867045454546
    vertex 17.134838920825 -17.134838920825 8.75867045454546
    vertex 22.5711934378739 -5.22991067462932 8.75867045454546
  endloop
endfacet
facet normal -6.59886773333034e-016 4.88534340805281e-016 1.0
  outer loop
    vertex 22.5711934378739 -5.22991067462932 8.75867045454546
    vertex 17.134838920825 -17.134838920825 8.75867045454546
    vertex 23.6034126499718 -6.26212988672721 8.75867045454546
  endloop
endfacet
facet normal -6.59886773333034e-016 4.88534340805281e-016 1.0
  outer loop
    vertex 23.6034126499718 -6.26212988672721 8.75867045454546
    vertex 17.134838920825 -17.134838920825 8.75867045454546
    vertex 24.6356318620697 -5.22991067462932 8.75867045454546
  endloop
endfacet
facet normal -6.59886773333034e-016 4.88534340805281e-016 1.0
  outer loop
    vertex 24.6356318620697 -5.22991067462932 8.75867045454546
    vertex 17.134838920825 -17.134838920825 8.75867045454546
    vertex 18.1670581329229 -16.1026197087271 8.75867045454546
  endloop
endfacet
facet normal -6.59886773333034e-016 4.88534340805281e-016 1.0
  outer loop
    vertex 24.6356318620697 -5.22991067462932 8.75867045454546
    vertex 18.1670581329229 -16.1026197087271 8.75867045454546
    vertex 26.8376995145452 -7.43197832710483 8.75867045454546
  endloop
endfacet
facet normal -6.59886773333034e-016 4.88534340805281e-016 1.0
  outer loop
    vertex 26.8376995145452 -7.43197832710483 8.75867045454546
    vertex 18.1670581329229 -16.1026197087271 8.75867045454546
    vertex 21.4701596116361 -12.7995182300139 8.75867045454546
  endloop
endfacet
facet normal -6.59886773333034e-016 4.88534340805281e-016 1.0
  outer loop
    vertex 26.8376995145452 -7.43197832710483 8.75867045454546
    vertex 21.4701596116361 -12.7995182300139 8.75867045454546
    vertex 22.502378823734 -11.767299017916 8.75867045454546
  endloop
endfacet
facet normal -6.59886773333034e-016 4.88534340805281e-016 1.0
  outer loop
    vertex 26.8376995145452 -7.43197832710483 8.75867045454546
    vertex 22.502378823734 -11.767299017916 8.75867045454546
    vertex 25.8054803024473 -8.46419753920272 8.75867045454546
  endloop
endfacet
facet normal -6.59886773333034e-016 4.88534340805281e-016 1.0
  outer loop
    vertex 23.6034126499718 -4.19769146253143 8.75867045454546
    vertex 21.4013449974963 -1.99562381005593 8.75867045454546
    vertex 22.5711934378739 -5.22991067462932 8.75867045454546
  endloop
endfacet
facet normal -6.59886773333034e-016 4.88534340805281e-016 1.0
  outer loop
    vertex 20.3691257853984 -0.963404597958041 8.75867045454545
    vertex 18.1670581329229 1.23866305451747 8.75867045454545
    vertex 19.3369065733005 -1.99562381005593 8.75867045454545
  endloop
endfacet
facet normal 0.707106781186547 0.707106781186548 8.56378620273337e-016
  outer loop
    vertex 9.04482084600774 10.3609003414326 12.7000721590909
    vertex 9.70286059372014 9.70286059372017 11.24029375
    vertex 9.04482084600774 10.3609003414326 11.24029375
  endloop
endfacet
facet normal 0.707106781186547 0.707106781186548 8.56378620273337e-016
  outer loop
    vertex 9.70286059372014 9.70286059372017 11.24029375
    vertex 9.04482084600774 10.3609003414326 12.7000721590909
    vertex 10.7350798058181 8.67064138162229 12.1526552556819
  endloop
endfacet
facet normal 0.707106781186547 0.707106781186548 8.56378620273337e-016
  outer loop
    vertex 10.7350798058181 8.67064138162229 12.1526552556819
    vertex 9.04482084600774 10.3609003414326 12.7000721590909
    vertex 9.70286059372014 9.70286059372017 12.7000721590909
  endloop
endfacet
facet normal 0.707106781186547 0.707106781186548 8.56378620273337e-016
  outer loop
    vertex 10.7350798058181 8.67064138162229 12.1526552556819
    vertex 9.70286059372014 9.70286059372017 12.7000721590909
    vertex 12.1801867027551 7.22553448468524 13.4299613636364
  endloop
endfacet
facet normal 0.707106781186547 0.707106781186548 8.56378620273337e-016
  outer loop
    vertex 12.1801867027551 7.22553448468524 13.4299613636364
    vertex 9.70286059372014 9.70286059372017 12.7000721590909
    vertex 16.8404087075286 2.56531247991168 19.269075
  endloop
endfacet
facet normal 0.707106781186547 0.707106781186548 8.56378620273337e-016
  outer loop
    vertex 12.1801867027551 7.22553448468524 13.4299613636364
    vertex 16.8404087075286 2.56531247991168 19.269075
    vertex 13.212405914853 6.19331527258735 14.3423228693182
  endloop
endfacet
facet normal 0.707106781186547 0.707106781186548 8.56378620273337e-016
  outer loop
    vertex 13.212405914853 6.19331527258735 14.3423228693182
    vertex 16.8404087075286 2.56531247991168 19.269075
    vertex 14.6575128117901 4.7482083756503 15.6196289772727
  endloop
endfacet
facet normal 0.707106781186547 0.707106781186548 8.56378620273337e-016
  outer loop
    vertex 14.6575128117901 4.7482083756503 15.6196289772727
    vertex 16.8404087075286 2.56531247991168 19.269075
    vertex 15.689732023888 3.71598916355241 16.5319904829546
  endloop
endfacet
facet normal 0.707106781186547 0.707106781186548 8.56378620273337e-016
  outer loop
    vertex 15.689732023888 3.71598916355241 16.5319904829546
    vertex 16.8404087075286 2.56531247991168 19.269075
    vertex 17.134838920825 2.27088226661539 17.8092965909091
  endloop
endfacet
facet normal 0.707106781186547 0.707106781186548 8.56378620273337e-016
  outer loop
    vertex 17.134838920825 2.27088226661539 17.8092965909091
    vertex 16.8404087075286 2.56531247991168 19.269075
    vertex 18.1670581329229 1.23866305451747 17.8092965909091
  endloop
endfacet
facet normal 0.707106781186547 0.707106781186548 8.56378620273337e-016
  outer loop
    vertex 18.1670581329229 1.23866305451747 17.8092965909091
    vertex 16.8404087075286 2.56531247991168 19.269075
    vertex 20.3691257853984 -0.963404597958041 17.8092965909091
  endloop
endfacet
facet normal 0.707106781186547 0.707106781186548 8.56378620273337e-016
  outer loop
    vertex 20.3691257853984 -0.963404597958041 17.8092965909091
    vertex 16.8404087075286 2.56531247991168 19.269075
    vertex 21.4013449974963 -1.99562381005593 17.8092965909091
  endloop
endfacet
facet normal 0.707106781186547 0.707106781186548 8.56378620273337e-016
  outer loop
    vertex 21.4013449974963 -1.99562381005593 17.8092965909091
    vertex 16.8404087075286 2.56531247991168 19.269075
    vertex 23.6034126499718 -4.19769146253143 17.8092965909091
  endloop
endfacet
facet normal 0.707106781186547 0.707106781186548 8.56378620273337e-016
  outer loop
    vertex 23.6034126499718 -4.19769146253143 17.8092965909091
    vertex 16.8404087075286 2.56531247991168 19.269075
    vertex 24.6356318620697 -5.22991067462932 17.8092965909091
  endloop
endfacet
facet normal 0.707106781186547 0.707106781186548 8.56378620273337e-016
  outer loop
    vertex 24.6356318620697 -5.22991067462932 17.8092965909091
    vertex 16.8404087075286 2.56531247991168 19.269075
    vertex 26.8376995145452 -7.43197832710483 17.8092965909091
  endloop
endfacet
facet normal 0.707106781186547 0.707106781186548 8.56378620273337e-016
  outer loop
    vertex 26.8376995145452 -7.43197832710483 17.8092965909091
    vertex 16.8404087075286 2.56531247991168 19.269075
    vertex 27.8699187266431 -8.46419753920268 19.269075
  endloop
endfacet
facet normal 0.707106781186547 0.707106781186548 8.56378620273337e-016
  outer loop
    vertex 27.8699187266431 -8.46419753920272 2.75380024655589e-017
    vertex 26.8376995145452 -7.43197832710483 8.75867045454546
    vertex 27.8699187266431 -8.46419753920268 19.269075
  endloop
endfacet
facet normal 0.707106781186547 0.707106781186548 8.56378620273337e-016
  outer loop
    vertex 26.8376995145452 -7.43197832710483 8.75867045454546
    vertex 27.8699187266431 -8.46419753920272 2.75380024655589e-017
    vertex 12.1801867027551 7.22553448468524 2.18966761363636
  endloop
endfacet
facet normal 0.707106781186547 0.707106781186548 8.56378620273337e-016
  outer loop
    vertex 12.1801867027551 7.22553448468524 2.18966761363636
    vertex 27.8699187266431 -8.46419753920272 2.75380024655589e-017
    vertex 10.7350798058181 8.67064138162229 2.18966761363636
  endloop
endfacet
facet normal 0.707106781186547 0.707106781186548 8.56378620273337e-016
  outer loop
    vertex 26.8376995145452 -7.43197832710483 8.75867045454546
    vertex 12.1801867027551 7.22553448468524 2.18966761363636
    vertex 14.6575128117901 4.7482083756503 4.37933522727273
  endloop
endfacet
facet normal 0.707106781186547 0.707106781186548 8.56378620273337e-016
  outer loop
    vertex 26.8376995145452 -7.43197832710483 8.75867045454546
    vertex 14.6575128117901 4.7482083756503 4.37933522727273
    vertex 17.134838920825 2.27088226661536 6.56900284090909
  endloop
endfacet
facet normal 0.707106781186547 0.707106781186548 8.56378620273337e-016
  outer loop
    vertex 26.8376995145452 -7.43197832710483 8.75867045454546
    vertex 17.134838920825 2.27088226661536 6.56900284090909
    vertex 21.4013449974963 -1.99562381005593 8.75867045454546
  endloop
endfacet
facet normal 0.707106781186547 0.707106781186548 8.56378620273337e-016
  outer loop
    vertex 21.4013449974963 -1.99562381005593 8.75867045454546
    vertex 17.134838920825 2.27088226661536 6.56900284090909
    vertex 18.1670581329229 1.23866305451747 8.75867045454545
  endloop
endfacet
facet normal 0.707106781186547 0.707106781186548 8.56378620273337e-016
  outer loop
    vertex 21.4013449974963 -1.99562381005593 8.75867045454546
    vertex 18.1670581329229 1.23866305451747 8.75867045454545
    vertex 20.3691257853984 -0.963404597958041 8.75867045454545
  endloop
endfacet
facet normal 0.707106781186547 0.707106781186548 8.56378620273337e-016
  outer loop
    vertex 26.8376995145452 -7.43197832710483 8.75867045454546
    vertex 21.4013449974963 -1.99562381005593 8.75867045454546
    vertex 24.6356318620697 -5.22991067462932 8.75867045454546
  endloop
endfacet
facet normal 0.707106781186547 0.707106781186548 8.56378620273337e-016
  outer loop
    vertex 24.6356318620697 -5.22991067462932 8.75867045454546
    vertex 21.4013449974963 -1.99562381005593 8.75867045454546
    vertex 23.6034126499718 -4.19769146253143 8.75867045454546
  endloop
endfacet
facet normal 0.707106781186547 0.707106781186548 8.56378620273337e-016
  outer loop
    vertex 27.8699187266431 -8.46419753920268 19.269075
    vertex 26.8376995145452 -7.43197832710483 8.75867045454546
    vertex 26.8376995145452 -7.43197832710483 17.8092965909091
  endloop
endfacet
facet normal 0.707106781186547 0.707106781186548 8.56378620273337e-016
  outer loop
    vertex 23.6034126499718 -4.19769146253143 17.8092965909091
    vertex 24.6356318620697 -5.22991067462932 8.75867045454546
    vertex 23.6034126499718 -4.19769146253143 8.75867045454546
  endloop
endfacet
facet normal 0.707106781186547 0.707106781186548 8.56378620273337e-016
  outer loop
    vertex 24.6356318620697 -5.22991067462932 8.75867045454546
    vertex 23.6034126499718 -4.19769146253143 17.8092965909091
    vertex 24.6356318620697 -5.22991067462932 17.8092965909091
  endloop
endfacet
facet normal 0.707106781186547 0.707106781186548 8.56378620273337e-016
  outer loop
    vertex 20.3691257853984 -0.963404597958041 17.8092965909091
    vertex 21.4013449974963 -1.99562381005593 8.75867045454546
    vertex 20.3691257853984 -0.963404597958041 8.75867045454545
  endloop
endfacet
facet normal 0.707106781186547 0.707106781186548 8.56378620273337e-016
  outer loop
    vertex 21.4013449974963 -1.99562381005593 8.75867045454546
    vertex 20.3691257853984 -0.963404597958041 17.8092965909091
    vertex 21.4013449974963 -1.99562381005593 17.8092965909091
  endloop
endfacet
facet normal 0.707106781186547 0.707106781186548 8.56378620273337e-016
  outer loop
    vertex 17.134838920825 2.27088226661539 17.8092965909091
    vertex 18.1670581329229 1.23866305451747 8.75867045454545
    vertex 17.134838920825 2.27088226661536 6.56900284090909
  endloop
endfacet
facet normal 0.707106781186547 0.707106781186548 8.56378620273337e-016
  outer loop
    vertex 18.1670581329229 1.23866305451747 8.75867045454545
    vertex 17.134838920825 2.27088226661539 17.8092965909091
    vertex 18.1670581329229 1.23866305451747 17.8092965909091
  endloop
endfacet
facet normal 0.707106781186547 0.707106781186548 8.56378620273337e-016
  outer loop
    vertex 14.6575128117901 4.7482083756503 4.37933522727273
    vertex 15.689732023888 3.71598916355241 6.56900284090909
    vertex 17.134838920825 2.27088226661536 6.56900284090909
  endloop
endfacet
facet normal 0.707106781186547 0.707106781186548 8.56378620273337e-016
  outer loop
    vertex 15.689732023888 3.71598916355241 6.56900284090909
    vertex 14.6575128117901 4.7482083756503 4.37933522727273
    vertex 14.6575128117901 4.7482083756503 15.6196289772727
  endloop
endfacet
facet normal 0.707106781186547 0.707106781186548 8.56378620273337e-016
  outer loop
    vertex 15.689732023888 3.71598916355241 6.56900284090909
    vertex 14.6575128117901 4.7482083756503 15.6196289772727
    vertex 15.689732023888 3.71598916355241 16.5319904829546
  endloop
endfacet
facet normal 0.707106781186547 0.707106781186548 8.56378620273337e-016
  outer loop
    vertex 12.1801867027551 7.22553448468524 2.18966761363636
    vertex 13.212405914853 6.19331527258735 4.37933522727273
    vertex 14.6575128117901 4.7482083756503 4.37933522727273
  endloop
endfacet
facet normal 0.707106781186547 0.707106781186548 8.56378620273337e-016
  outer loop
    vertex 13.212405914853 6.19331527258735 4.37933522727273
    vertex 12.1801867027551 7.22553448468524 2.18966761363636
    vertex 12.1801867027551 7.22553448468524 13.4299613636364
  endloop
endfacet
facet normal 0.707106781186547 0.707106781186548 8.56378620273337e-016
  outer loop
    vertex 13.212405914853 6.19331527258735 4.37933522727273
    vertex 12.1801867027551 7.22553448468524 13.4299613636364
    vertex 13.212405914853 6.19331527258735 14.3423228693182
  endloop
endfacet
facet normal 0.707106781186547 0.707106781186548 8.56378620273337e-016
  outer loop
    vertex 9.70286059372019 9.70286059372018 0.0
    vertex 10.7350798058181 8.67064138162229 2.18966761363636
    vertex 27.8699187266431 -8.46419753920272 2.75380024655589e-017
  endloop
endfacet
facet normal 0.707106781186547 0.707106781186548 8.56378620273337e-016
  outer loop
    vertex 10.7350798058181 8.67064138162229 2.18966761363636
    vertex 9.70286059372019 9.70286059372018 0.0
    vertex 9.70286059372014 9.70286059372017 11.24029375
  endloop
endfacet
facet normal 0.707106781186547 0.707106781186548 8.56378620273337e-016
  outer loop
    vertex 10.7350798058181 8.67064138162229 2.18966761363636
    vertex 9.70286059372014 9.70286059372017 11.24029375
    vertex 10.7350798058181 8.67064138162229 12.1526552556819
  endloop
endfacet
facet normal -0.707106781186548 -0.707106781186547 0.0
  outer loop
    vertex 18.1670581329229 -18.1670581329229 2.75380024655589e-017
    vertex 1.76247905159244e-016 3.52495810318487e-016 2.18966761363636
    vertex 1.76247905159244e-016 3.52495810318487e-016 0.0
  endloop
endfacet
facet normal -0.707106781186548 -0.707106781186547 0.0
  outer loop
    vertex 1.76247905159244e-016 3.52495810318487e-016 2.18966761363636
    vertex 18.1670581329229 -18.1670581329229 2.75380024655589e-017
    vertex 2.47732610903494 -2.47732610903494 2.18966761363636
  endloop
endfacet
facet normal -0.707106781186548 -0.707106781186547 0.0
  outer loop
    vertex 18.1670581329229 -18.1670581329229 8.75867045454546
    vertex 2.47732610903494 -2.47732610903494 2.18966761363636
    vertex 18.1670581329229 -18.1670581329229 2.75380024655589e-017
  endloop
endfacet
facet normal -0.707106781186548 -0.707106781186547 0.0
  outer loop
    vertex 2.47732610903494 -2.47732610903494 2.18966761363636
    vertex 18.1670581329229 -18.1670581329229 8.75867045454546
    vertex 4.95465221806988 -4.95465221806988 4.37933522727273
  endloop
endfacet
facet normal -0.707106781186548 -0.707106781186547 0.0
  outer loop
    vertex 4.95465221806988 -4.95465221806988 4.37933522727273
    vertex 18.1670581329229 -18.1670581329229 8.75867045454546
    vertex 7.43197832710482 -7.43197832710482 6.56900284090909
  endloop
endfacet
facet normal -0.707106781186548 -0.707106781186547 0.0
  outer loop
    vertex 7.43197832710482 -7.43197832710482 6.56900284090909
    vertex 18.1670581329229 -18.1670581329229 8.75867045454546
    vertex 17.134838920825 -17.134838920825 8.75867045454546
  endloop
endfacet
facet normal -0.707106781186548 -0.707106781186547 0.0
  outer loop
    vertex 7.43197832710482 -7.43197832710482 6.56900284090909
    vertex 17.134838920825 -17.134838920825 8.75867045454546
    vertex 7.43197832710482 -7.43197832710482 8.75867045454545
  endloop
endfacet
facet normal -0.707106781186548 -0.707106781186547 0.0
  outer loop
    vertex 4.95465221806988 -4.95465221806988 6.56900284090909
    vertex 4.95465221806988 -4.95465221806988 4.37933522727273
    vertex 7.43197832710482 -7.43197832710482 6.56900284090909
  endloop
endfacet
facet normal -0.707106781186548 -0.707106781186547 0.0
  outer loop
    vertex 2.47732610903494 -2.47732610903494 4.37933522727273
    vertex 2.47732610903494 -2.47732610903494 2.18966761363636
    vertex 4.95465221806988 -4.95465221806988 4.37933522727273
  endloop
endfacet
facet normal 0.707106781186547 -0.707106781186548 0.0
  outer loop
    vertex 21.4013449974963 -1.99562381005593 8.75867045454546
    vertex 20.3691257853984 -3.02784302215383 17.8092965909091
    vertex 20.3691257853984 -3.02784302215383 8.75867045454546
  endloop
endfacet
facet normal 0.707106781186547 -0.707106781186548 0.0
  outer loop
    vertex 20.3691257853984 -3.02784302215383 17.8092965909091
    vertex 21.4013449974963 -1.99562381005593 8.75867045454546
    vertex 21.4013449974963 -1.99562381005593 17.8092965909091
  endloop
endfacet
facet normal -0.707106781186547 0.707106781186548 0.0
  outer loop
    vertex 23.6034126499718 -4.19769146253143 17.8092965909091
    vertex 22.5711934378739 -5.22991067462932 8.75867045454546
    vertex 22.5711934378739 -5.22991067462932 17.8092965909091
  endloop
endfacet
facet normal -0.707106781186547 0.707106781186548 0.0
  outer loop
    vertex 22.5711934378739 -5.22991067462932 8.75867045454546
    vertex 23.6034126499718 -4.19769146253143 17.8092965909091
    vertex 23.6034126499718 -4.19769146253143 8.75867045454546
  endloop
endfacet
facet normal -2.49237179102113e-017 -5.18434343042751e-018 1.0
  outer loop
    vertex 4.95465221806988 -4.95465221806988 4.37933522727273
    vertex 11.1479674906572 6.19331527258735 4.37933522727273
    vertex 2.47732610903494 -2.47732610903494 4.37933522727273
  endloop
endfacet
facet normal -2.49237179102113e-017 -5.18434343042751e-018 1.0
  outer loop
    vertex 11.1479674906572 6.19331527258735 4.37933522727273
    vertex 4.95465221806988 -4.95465221806988 4.37933522727273
    vertex 12.1801867027551 5.16109606048945 4.37933522727273
  endloop
endfacet
facet normal -2.49237179102113e-017 -5.18434343042751e-018 1.0
  outer loop
    vertex 12.1801867027551 5.16109606048945 4.37933522727273
    vertex 4.95465221806988 -4.95465221806988 4.37933522727273
    vertex 13.212405914853 6.19331527258735 4.37933522727273
  endloop
endfacet
facet normal -2.49237179102113e-017 -5.18434343042751e-018 1.0
  outer loop
    vertex 13.212405914853 6.19331527258735 4.37933522727273
    vertex 4.95465221806988 -4.95465221806988 4.37933522727273
    vertex 14.6575128117901 4.7482083756503 4.37933522727273
  endloop
endfacet
facet normal 0.707106781186548 0.707106781186547 0.0
  outer loop
    vertex 22.502378823734 -11.767299017916 17.8092965909091
    vertex 23.5345980358319 -12.7995182300139 8.75867045454546
    vertex 22.502378823734 -11.767299017916 8.75867045454546
  endloop
endfacet
facet normal 0.707106781186548 0.707106781186547 0.0
  outer loop
    vertex 23.5345980358319 -12.7995182300139 8.75867045454546
    vertex 22.502378823734 -11.767299017916 17.8092965909091
    vertex 23.5345980358319 -12.7995182300139 17.8092965909091
  endloop
endfacet
facet normal 0.707106781186547 -0.707106781186548 0.0
  outer loop
    vertex 24.6356318620697 -5.22991067462932 8.75867045454546
    vertex 23.6034126499718 -6.26212988672721 17.8092965909091
    vertex 23.6034126499718 -6.26212988672721 8.75867045454546
  endloop
endfacet
facet normal 0.707106781186547 -0.707106781186548 0.0
  outer loop
    vertex 23.6034126499718 -6.26212988672721 17.8092965909091
    vertex 24.6356318620697 -5.22991067462932 8.75867045454546
    vertex 24.6356318620697 -5.22991067462932 17.8092965909091
  endloop
endfacet
facet normal 0.707106781186547 -0.707106781186548 0.0
  outer loop
    vertex 13.212405914853 6.19331527258735 4.37933522727273
    vertex 12.1801867027551 5.16109606048945 14.3423228693182
    vertex 12.1801867027551 5.16109606048945 4.37933522727273
  endloop
endfacet
facet normal 0.707106781186547 -0.707106781186548 0.0
  outer loop
    vertex 12.1801867027551 5.16109606048945 14.3423228693182
    vertex 13.212405914853 6.19331527258735 4.37933522727273
    vertex 13.212405914853 6.19331527258735 14.3423228693182
  endloop
endfacet
facet normal -1.09000776852842e-016 1.5115661500698e-016 1.0
  outer loop
    vertex 2.47732610903494 -2.47732610903494 2.18966761363636
    vertex 8.67064138162229 8.67064138162229 2.18966761363636
    vertex 1.76247905159244e-016 3.52495810318487e-016 2.18966761363636
  endloop
endfacet
facet normal -1.09000776852842e-016 1.5115661500698e-016 1.0
  outer loop
    vertex 8.67064138162229 8.67064138162229 2.18966761363636
    vertex 2.47732610903494 -2.47732610903494 2.18966761363636
    vertex 9.70286059372019 7.6384221695244 2.18966761363636
  endloop
endfacet
facet normal -1.09000776852842e-016 1.5115661500698e-016 1.0
  outer loop
    vertex 9.70286059372019 7.6384221695244 2.18966761363636
    vertex 2.47732610903494 -2.47732610903494 2.18966761363636
    vertex 10.7350798058181 8.67064138162229 2.18966761363636
  endloop
endfacet
facet normal -1.09000776852842e-016 1.5115661500698e-016 1.0
  outer loop
    vertex 10.7350798058181 8.67064138162229 2.18966761363636
    vertex 2.47732610903494 -2.47732610903494 2.18966761363636
    vertex 12.1801867027551 7.22553448468524 2.18966761363636
  endloop
endfacet
facet normal 0.707106781186548 0.707106781186547 0.0
  outer loop
    vertex 18.1670581329229 -16.1026197087271 17.8092965909091
    vertex 19.1992773450208 -17.134838920825 8.75867045454546
    vertex 18.1670581329229 -16.1026197087271 8.75867045454546
  endloop
endfacet
facet normal 0.707106781186548 0.707106781186547 0.0
  outer loop
    vertex 19.1992773450208 -17.134838920825 8.75867045454546
    vertex 18.1670581329229 -16.1026197087271 17.8092965909091
    vertex 19.1992773450208 -17.134838920825 17.8092965909091
  endloop
endfacet
facet normal 0.707106781186547 -0.707106781186548 0.0
  outer loop
    vertex 15.689732023888 3.71598916355241 6.56900284090909
    vertex 14.6575128117901 2.68376995145451 16.5319904829546
    vertex 14.6575128117901 2.68376995145451 6.56900284090909
  endloop
endfacet
facet normal 0.707106781186547 -0.707106781186548 0.0
  outer loop
    vertex 14.6575128117901 2.68376995145451 16.5319904829546
    vertex 15.689732023888 3.71598916355241 6.56900284090909
    vertex 15.689732023888 3.71598916355241 16.5319904829546
  endloop
endfacet
facet normal -0.707106781186547 0.707106781186548 0.0
  outer loop
    vertex 14.6575128117901 4.7482083756503 15.6196289772727
    vertex 13.6252935996922 3.71598916355241 6.56900284090909
    vertex 13.6252935996922 3.71598916355241 15.6196289772727
  endloop
endfacet
facet normal -0.707106781186547 0.707106781186548 0.0
  outer loop
    vertex 13.6252935996922 3.71598916355241 6.56900284090909
    vertex 4.95465221806988 -4.95465221806988 4.37933522727273
    vertex 4.95465221806988 -4.95465221806988 6.56900284090909
  endloop
endfacet
facet normal -0.707106781186547 0.707106781186548 0.0
  outer loop
    vertex 4.95465221806988 -4.95465221806988 4.37933522727273
    vertex 13.6252935996922 3.71598916355241 6.56900284090909
    vertex 14.6575128117901 4.7482083756503 4.37933522727273
  endloop
endfacet
facet normal -0.707106781186547 0.707106781186548 0.0
  outer loop
    vertex 14.6575128117901 4.7482083756503 4.37933522727273
    vertex 13.6252935996922 3.71598916355241 6.56900284090909
    vertex 14.6575128117901 4.7482083756503 15.6196289772727
  endloop
endfacet
facet normal -0.707106781186547 0.707106781186548 0.0
  outer loop
    vertex 20.3691257853984 -0.963404597958041 17.8092965909091
    vertex 19.3369065733005 -1.99562381005593 8.75867045454545
    vertex 19.3369065733005 -1.99562381005593 17.8092965909091
  endloop
endfacet
facet normal -0.707106781186547 0.707106781186548 0.0
  outer loop
    vertex 19.3369065733005 -1.99562381005593 8.75867045454545
    vertex 20.3691257853984 -0.963404597958041 17.8092965909091
    vertex 20.3691257853984 -0.963404597958041 8.75867045454545
  endloop
endfacet
facet normal 0.374765844497923 -0.374765844497923 -0.847998304005095
  outer loop
    vertex 12.1801867027551 7.22553448468524 13.4299613636364
    vertex 9.70286059372019 7.6384221695244 12.1526552556819
    vertex 10.7350798058181 8.67064138162229 12.1526552556819
  endloop
endfacet
facet normal 0.374765844497923 -0.374765844497923 -0.847998304005095
  outer loop
    vertex 9.70286059372019 7.6384221695244 12.1526552556819
    vertex 12.1801867027551 7.22553448468524 13.4299613636364
    vertex 11.1479674906572 6.19331527258735 13.4299613636364
  endloop
endfacet
endsolid Untitled-5b0acb68
