solid Untitled-5b05948d
facet normal 1.03942257781104e-017 -1.03942257781104e-017 -1.0
  outer loop
    vertex 6.19368264670138 9.82185794010417 0.0
    vertex 3.71620958802082 4.86691182274306 7.32233905417302e-015
    vertex -6.19368264670141 -2.5655073532986 0.0
  endloop
endfacet
facet normal 1.03942257781104e-017 -1.03942257781104e-017 -1.0
  outer loop
    vertex 3.71620958802082 4.86691182274306 7.32233905417302e-015
    vertex 6.19368264670138 9.82185794010417 0.0
    vertex 12.3873652934028 3.62817529340278 1.28757071655557e-016
  endloop
endfacet
facet normal 1.03942257781104e-017 -1.03942257781104e-017 -1.0
  outer loop
    vertex 3.71620958802082 4.86691182274306 7.32233905417302e-015
    vertex 12.3873652934028 3.62817529340278 1.28757071655557e-016
    vertex 7.43241917604166 1.15070223472223 7.32233905417302e-015
  endloop
endfacet
facet normal 1.03942257781104e-017 -1.03942257781104e-017 -1.0
  outer loop
    vertex 7.43241917604166 1.15070223472223 7.32233905417302e-015
    vertex 12.3873652934028 3.62817529340278 1.28757071655557e-016
    vertex 2.47747305868054 -3.80424388263888 7.32233905417302e-015
  endloop
endfacet
facet normal 1.03942257781104e-017 -1.03942257781104e-017 -1.0
  outer loop
    vertex -6.19368264670141 -2.5655073532986 0.0
    vertex -1.23873652934029 -0.0880342946180489 7.32233905417302e-015
    vertex -1.76247905159244e-014 -8.75919 1.28757071655557e-016
  endloop
endfacet
facet normal 1.03942257781104e-017 -1.03942257781104e-017 -1.0
  outer loop
    vertex -1.23873652934029 -0.0880342946180489 7.32233905417302e-015
    vertex -6.19368264670141 -2.5655073532986 0.0
    vertex 3.71620958802082 4.86691182274306 7.32233905417302e-015
  endloop
endfacet
facet normal 1.03942257781104e-017 -1.03942257781104e-017 -1.0
  outer loop
    vertex -1.76247905159244e-014 -8.75919 1.28757071655557e-016
    vertex -1.23873652934029 -0.0880342946180489 7.32233905417302e-015
    vertex 2.47747305868054 -3.80424388263888 7.32233905417302e-015
  endloop
endfacet
facet normal 1.03942257781104e-017 -1.03942257781104e-017 -1.0
  outer loop
    vertex -1.76247905159244e-014 -8.75919 1.28757071655557e-016
    vertex 2.47747305868054 -3.80424388263888 7.32233905417302e-015
    vertex 12.3873652934028 3.62817529340278 1.28757071655557e-016
  endloop
endfacet
facet normal 0.707106781186548 0.707106781186547 0.0
  outer loop
    vertex 6.19368264670138 9.82185794010417 32.4741968107117
    vertex 12.3873652934028 3.62817529340278 1.28757071655557e-016
    vertex 6.19368264670138 9.82185794010417 0.0
  endloop
endfacet
facet normal 0.707106781186548 0.707106781186547 0.0
  outer loop
    vertex 12.3873652934028 3.62817529340278 1.28757071655557e-016
    vertex 6.19368264670138 9.82185794010417 32.4741968107117
    vertex 12.3873652934028 3.62817529340278 32.4741968107117
  endloop
endfacet
facet normal -0.707106781186548 -0.707106781186547 0.0
  outer loop
    vertex -1.76247905159244e-014 -8.75919 1.28757071655557e-016
    vertex -6.19368264670141 -2.5655073532986 32.4741968107117
    vertex -6.19368264670141 -2.5655073532986 0.0
  endloop
endfacet
facet normal -0.707106781186548 -0.707106781186547 0.0
  outer loop
    vertex -6.19368264670141 -2.5655073532986 32.4741968107117
    vertex -1.76247905159244e-014 -8.75919 1.28757071655557e-016
    vertex -1.76247905159244e-014 -8.75919 32.4741968107117
  endloop
endfacet
facet normal 0.707106781186547 -0.707106781186548 0.0
  outer loop
    vertex 12.3873652934028 3.62817529340278 1.28757071655557e-016
    vertex -1.76247905159244e-014 -8.75919 32.4741968107117
    vertex -1.76247905159244e-014 -8.75919 1.28757071655557e-016
  endloop
endfacet
facet normal 0.707106781186547 -0.707106781186548 0.0
  outer loop
    vertex -1.76247905159244e-014 -8.75919 32.4741968107117
    vertex 12.3873652934028 3.62817529340278 1.28757071655557e-016
    vertex 2.58715285554921 -6.17203714445077 34.3035901388368
  endloop
endfacet
facet normal 0.707106781186547 -0.707106781186548 0.0
  outer loop
    vertex 2.58715285554921 -6.17203714445077 34.3035901388368
    vertex 12.3873652934028 3.62817529340278 1.28757071655557e-016
    vertex 2.58715285554921 -6.17203714445077 68.4051241232117
  endloop
endfacet
facet normal 0.707106781186547 -0.707106781186548 0.0
  outer loop
    vertex 2.58715285554921 -6.17203714445077 68.4051241232117
    vertex 12.3873652934028 3.62817529340278 1.28757071655557e-016
    vertex 9.80021243785354 1.04102243785355 34.3035901388368
  endloop
endfacet
facet normal 0.707106781186547 -0.707106781186548 0.0
  outer loop
    vertex 9.80021243785354 1.04102243785355 34.3035901388368
    vertex 12.3873652934028 3.62817529340278 1.28757071655557e-016
    vertex 12.3873652934028 3.62817529340278 32.4741968107117
  endloop
endfacet
facet normal 0.707106781186547 -0.707106781186548 0.0
  outer loop
    vertex 9.80021243785354 1.04102243785355 68.4051241232117
    vertex 2.58715285554921 -6.17203714445077 68.4051241232117
    vertex 9.80021243785354 1.04102243785355 34.3035901388368
  endloop
endfacet
facet normal 0.316227766016838 0.316227766016838 0.894427190999916
  outer loop
    vertex 9.80021243785354 1.04102243785355 34.3035901388368
    vertex 6.19368264670138 9.82185794010417 32.4741968107117
    vertex 3.60652979115215 7.23470508455495 34.3035901388368
  endloop
endfacet
facet normal 0.316227766016838 0.316227766016838 0.894427190999916
  outer loop
    vertex 6.19368264670138 9.82185794010417 32.4741968107117
    vertex 9.80021243785354 1.04102243785355 34.3035901388368
    vertex 12.3873652934028 3.62817529340278 32.4741968107117
  endloop
endfacet
facet normal -0.707106781186547 0.707106781186548 0.0
  outer loop
    vertex 3.60652979115215 7.23470508455495 68.4051241232117
    vertex -3.60652979115218 0.0216455022506227 34.3035901388368
    vertex -3.60652979115218 0.0216455022506227 68.4051241232117
  endloop
endfacet
facet normal -0.707106781186547 0.707106781186548 0.0
  outer loop
    vertex -3.60652979115218 0.0216455022506227 34.3035901388368
    vertex -6.19368264670141 -2.5655073532986 0.0
    vertex -6.19368264670141 -2.5655073532986 32.4741968107117
  endloop
endfacet
facet normal -0.707106781186547 0.707106781186548 0.0
  outer loop
    vertex -6.19368264670141 -2.5655073532986 0.0
    vertex -3.60652979115218 0.0216455022506227 34.3035901388368
    vertex 6.19368264670138 9.82185794010417 0.0
  endloop
endfacet
facet normal -0.707106781186547 0.707106781186548 0.0
  outer loop
    vertex 6.19368264670138 9.82185794010417 0.0
    vertex -3.60652979115218 0.0216455022506227 34.3035901388368
    vertex 3.60652979115215 7.23470508455495 34.3035901388368
  endloop
endfacet
facet normal -0.707106781186547 0.707106781186548 0.0
  outer loop
    vertex 3.60652979115215 7.23470508455495 34.3035901388368
    vertex -3.60652979115218 0.0216455022506227 34.3035901388368
    vertex 3.60652979115215 7.23470508455495 68.4051241232117
  endloop
endfacet
facet normal -0.707106781186547 0.707106781186548 0.0
  outer loop
    vertex 6.19368264670138 9.82185794010417 0.0
    vertex 3.60652979115215 7.23470508455495 34.3035901388368
    vertex 6.19368264670138 9.82185794010417 32.4741968107117
  endloop
endfacet
facet normal -0.316227766016838 -0.316227766016838 0.894427190999916
  outer loop
    vertex -1.76247905159244e-014 -8.75919 32.4741968107117
    vertex -3.60652979115218 0.0216455022506227 34.3035901388368
    vertex -6.19368264670141 -2.5655073532986 32.4741968107117
  endloop
endfacet
facet normal -0.316227766016838 -0.316227766016838 0.894427190999916
  outer loop
    vertex -3.60652979115218 0.0216455022506227 34.3035901388368
    vertex -1.76247905159244e-014 -8.75919 32.4741968107117
    vertex 2.58715285554921 -6.17203714445077 34.3035901388368
  endloop
endfacet
facet normal 0.0 0.0 1.0
  outer loop
    vertex -3.60652979115218 0.0216455022506227 68.4051241232117
    vertex -1.23873652934029 -0.0880342946180489 68.4051241232117
    vertex 3.60652979115215 7.23470508455495 68.4051241232117
  endloop
endfacet
facet normal 0.0 0.0 1.0
  outer loop
    vertex -1.23873652934029 -0.0880342946180489 68.4051241232117
    vertex -3.60652979115218 0.0216455022506227 68.4051241232117
    vertex 2.58715285554921 -6.17203714445077 68.4051241232117
  endloop
endfacet
facet normal 0.0 0.0 1.0
  outer loop
    vertex -1.23873652934029 -0.0880342946180489 68.4051241232117
    vertex 2.58715285554921 -6.17203714445077 68.4051241232117
    vertex 2.47747305868054 -3.80424388263888 68.4051241232117
  endloop
endfacet
facet normal 0.0 0.0 1.0
  outer loop
    vertex 2.47747305868054 -3.80424388263888 68.4051241232117
    vertex 2.58715285554921 -6.17203714445077 68.4051241232117
    vertex 7.43241917604166 1.15070223472223 68.4051241232117
  endloop
endfacet
facet normal 0.0 0.0 1.0
  outer loop
    vertex 3.60652979115215 7.23470508455495 68.4051241232117
    vertex 3.71620958802082 4.86691182274306 68.4051241232117
    vertex 9.80021243785354 1.04102243785355 68.4051241232117
  endloop
endfacet
facet normal 0.0 0.0 1.0
  outer loop
    vertex 3.71620958802082 4.86691182274306 68.4051241232117
    vertex 3.60652979115215 7.23470508455495 68.4051241232117
    vertex -1.23873652934029 -0.0880342946180489 68.4051241232117
  endloop
endfacet
facet normal 0.0 0.0 1.0
  outer loop
    vertex 9.80021243785354 1.04102243785355 68.4051241232117
    vertex 3.71620958802082 4.86691182274306 68.4051241232117
    vertex 7.43241917604166 1.15070223472223 68.4051241232117
  endloop
endfacet
facet normal 0.0 0.0 1.0
  outer loop
    vertex 9.80021243785354 1.04102243785355 68.4051241232117
    vertex 7.43241917604166 1.15070223472223 68.4051241232117
    vertex 2.58715285554921 -6.17203714445077 68.4051241232117
  endloop
endfacet
facet normal 0.707106781186547 -0.707106781186548 0.0
  outer loop
    vertex 3.71620958802082 4.86691182274306 7.32233905417302e-015
    vertex -1.23873652934029 -0.0880342946180489 68.4051241232117
    vertex -1.23873652934029 -0.0880342946180489 7.32233905417302e-015
  endloop
endfacet
facet normal 0.707106781186547 -0.707106781186548 0.0
  outer loop
    vertex -1.23873652934029 -0.0880342946180489 68.4051241232117
    vertex 3.71620958802082 4.86691182274306 7.32233905417302e-015
    vertex 3.71620958802082 4.86691182274306 68.4051241232117
  endloop
endfacet
facet normal 0.707106781186548 0.707106781186547 0.0
  outer loop
    vertex -1.23873652934029 -0.0880342946180489 68.4051241232117
    vertex 2.47747305868054 -3.80424388263888 7.32233905417302e-015
    vertex -1.23873652934029 -0.0880342946180489 7.32233905417302e-015
  endloop
endfacet
facet normal 0.707106781186548 0.707106781186547 0.0
  outer loop
    vertex 2.47747305868054 -3.80424388263888 7.32233905417302e-015
    vertex -1.23873652934029 -0.0880342946180489 68.4051241232117
    vertex 2.47747305868054 -3.80424388263888 68.4051241232117
  endloop
endfacet
facet normal -0.707106781186547 0.707106781186548 0.0
  outer loop
    vertex 7.43241917604166 1.15070223472223 68.4051241232117
    vertex 2.47747305868054 -3.80424388263888 7.32233905417302e-015
    vertex 2.47747305868054 -3.80424388263888 68.4051241232117
  endloop
endfacet
facet normal -0.707106781186547 0.707106781186548 0.0
  outer loop
    vertex 2.47747305868054 -3.80424388263888 7.32233905417302e-015
    vertex 7.43241917604166 1.15070223472223 68.4051241232117
    vertex 7.43241917604166 1.15070223472223 7.32233905417302e-015
  endloop
endfacet
facet normal -0.707106781186548 -0.707106781186547 0.0
  outer loop
    vertex 7.43241917604166 1.15070223472223 68.4051241232117
    vertex 3.71620958802082 4.86691182274306 7.32233905417302e-015
    vertex 7.43241917604166 1.15070223472223 7.32233905417302e-015
  endloop
endfacet
facet normal -0.707106781186548 -0.707106781186547 0.0
  outer loop
    vertex 3.71620958802082 4.86691182274306 7.32233905417302e-015
    vertex 7.43241917604166 1.15070223472223 68.4051241232117
    vertex 3.71620958802082 4.86691182274306 68.4051241232117
  endloop
endfacet
facet normal -0.707106781186548 -0.707106781186547 0.0
  outer loop
    vertex 2.58715285554921 -6.17203714445077 68.4051241232117
    vertex -3.60652979115218 0.0216455022506227 34.3035901388368
    vertex 2.58715285554921 -6.17203714445077 34.3035901388368
  endloop
endfacet
facet normal -0.707106781186548 -0.707106781186547 0.0
  outer loop
    vertex -3.60652979115218 0.0216455022506227 34.3035901388368
    vertex 2.58715285554921 -6.17203714445077 68.4051241232117
    vertex -3.60652979115218 0.0216455022506227 68.4051241232117
  endloop
endfacet
facet normal 0.707106781186548 0.707106781186547 0.0
  outer loop
    vertex 3.60652979115215 7.23470508455495 68.4051241232117
    vertex 9.80021243785354 1.04102243785355 34.3035901388368
    vertex 3.60652979115215 7.23470508455495 34.3035901388368
  endloop
endfacet
facet normal 0.707106781186548 0.707106781186547 0.0
  outer loop
    vertex 9.80021243785354 1.04102243785355 34.3035901388368
    vertex 3.60652979115215 7.23470508455495 68.4051241232117
    vertex 9.80021243785354 1.04102243785355 68.4051241232117
  endloop
endfacet
endsolid Untitled-5b05948d
