solid Untitled-5b0ac3e0
facet normal 0.965925826289068 0.258819045102524 -2.40370335797946e-016
  outer loop
    vertex 2.31626751431451 -3.00557845616018 1.45944166666666
    vertex 1.62779566469459 -0.436166533797794 -1.76247905159244e-016
    vertex 1.62779566469459 -0.436166533797794 1.45944166666666
  endloop
endfacet
facet normal 0.965925826289068 0.258819045102524 -2.40370335797946e-016
  outer loop
    vertex 1.62779566469459 -0.436166533797794 -1.76247905159244e-016
    vertex 2.31626751431451 -3.00557845616018 1.45944166666666
    vertex 2.31626751431451 -3.00557845616018 3.52495810318487e-016
  endloop
endfacet
facet normal 0.150326112391028 0.988636465002885 -2.23534569186152e-016
  outer loop
    vertex 26.302348715568 22.5475183843262 1.45944166666665
    vertex 23.043100115971 23.043100115971 -8.98864316312142e-015
    vertex 23.043100115971 23.043100115971 1.45944166666665
  endloop
endfacet
facet normal 0.150326112391028 0.988636465002885 -2.23534569186152e-016
  outer loop
    vertex 23.043100115971 23.043100115971 -8.98864316312142e-015
    vertex 26.302348715568 22.5475183843262 1.45944166666665
    vertex 26.302348715568 22.5475183843262 -9.51738687859915e-015
  endloop
endfacet
facet normal 0.707106781186548 -0.707106781186548 0.0
  outer loop
    vertex 1.62779566469459 -0.436166533797794 -1.76247905159244e-016
    vertex 23.5532719483765 21.4893097498841 1.45944166666665
    vertex 1.62779566469459 -0.436166533797794 1.45944166666666
  endloop
endfacet
facet normal 0.707106781186548 -0.707106781186548 0.0
  outer loop
    vertex 23.5532719483765 21.4893097498841 1.45944166666665
    vertex 1.62779566469459 -0.436166533797794 -1.76247905159244e-016
    vertex 23.5532719483765 21.4893097498841 -8.81239525796218e-015
  endloop
endfacet
facet normal -1.96261557335472e-016 -1.96261557335472e-016 -1.0
  outer loop
    vertex 1.76247905159244e-016 7.04991620636974e-016 0.0
    vertex 2.31626751431451 -3.00557845616018 3.52495810318487e-016
    vertex 0.906555116518807 -3.38330975470966 5.28743715477731e-016
  endloop
endfacet
facet normal -1.96261557335472e-016 -1.96261557335472e-016 -1.0
  outer loop
    vertex 2.31626751431451 -3.00557845616018 3.52495810318487e-016
    vertex 1.76247905159244e-016 7.04991620636974e-016 0.0
    vertex 1.62779566469459 -0.436166533797794 -1.76247905159244e-016
  endloop
endfacet
facet normal -1.96261557335472e-016 -1.96261557335472e-016 -1.0
  outer loop
    vertex 1.62779566469459 -0.436166533797794 -1.76247905159244e-016
    vertex 1.76247905159244e-016 7.04991620636974e-016 0.0
    vertex 23.043100115971 23.043100115971 -8.98864316312142e-015
  endloop
endfacet
facet normal -1.96261557335472e-016 -1.96261557335472e-016 -1.0
  outer loop
    vertex 1.62779566469459 -0.436166533797794 -1.76247905159244e-016
    vertex 23.043100115971 23.043100115971 -8.98864316312142e-015
    vertex 23.5532719483765 21.4893097498841 -8.81239525796218e-015
  endloop
endfacet
facet normal -1.96261557335472e-016 -1.96261557335472e-016 -1.0
  outer loop
    vertex 23.5532719483765 21.4893097498841 -8.81239525796218e-015
    vertex 23.043100115971 23.043100115971 -8.98864316312142e-015
    vertex 26.8125205479736 20.9937280182393 -9.34113897343991e-015
  endloop
endfacet
facet normal -1.96261557335472e-016 -1.96261557335472e-016 -1.0
  outer loop
    vertex 26.8125205479736 20.9937280182393 -9.34113897343991e-015
    vertex 23.043100115971 23.043100115971 -8.98864316312142e-015
    vertex 26.302348715568 22.5475183843262 -9.51738687859915e-015
  endloop
endfacet
facet normal -1.96261557335472e-016 -1.96261557335472e-016 -1.0
  outer loop
    vertex 26.8125205479736 20.9937280182393 -9.34113897343991e-015
    vertex 26.302348715568 22.5475183843262 -9.51738687859915e-015
    vertex 27.6926138409416 21.8738213112074 -9.51738687859915e-015
  endloop
endfacet
facet normal -1.96261557335472e-016 -1.96261557335472e-016 -1.0
  outer loop
    vertex 27.6926138409416 21.8738213112074 -9.51738687859915e-015
    vertex 26.302348715568 22.5475183843262 -9.51738687859915e-015
    vertex 26.6606327416954 22.9058024104536 -9.51738687859915e-015
  endloop
endfacet
facet normal -0.707106781186548 0.707106781186548 -0.0
  outer loop
    vertex 23.043100115971 23.043100115971 -8.98864316312142e-015
    vertex 5.28743715477731e-016 1.05748743095546e-015 1.45944166666666
    vertex 23.043100115971 23.043100115971 1.45944166666665
  endloop
endfacet
facet normal -0.707106781186548 0.707106781186548 -0.0
  outer loop
    vertex 5.28743715477731e-016 1.05748743095546e-015 1.45944166666666
    vertex 23.043100115971 23.043100115971 -8.98864316312142e-015
    vertex 1.76247905159244e-016 7.04991620636974e-016 0.0
  endloop
endfacet
facet normal 0.707106781186548 0.707106781186548 -2.77555756156289e-016
  outer loop
    vertex 27.6926138409416 21.8738213112074 1.45944166666665
    vertex 26.6606327416954 22.9058024104536 -9.51738687859915e-015
    vertex 26.6606327416954 22.9058024104536 1.45944166666665
  endloop
endfacet
facet normal 0.707106781186548 0.707106781186548 -2.77555756156289e-016
  outer loop
    vertex 26.6606327416954 22.9058024104536 -9.51738687859915e-015
    vertex 27.6926138409416 21.8738213112074 1.45944166666665
    vertex 27.6926138409416 21.8738213112074 -9.51738687859915e-015
  endloop
endfacet
facet normal -0.707106781186548 0.707106781186548 -0.0
  outer loop
    vertex 26.6606327416954 22.9058024104536 -9.51738687859915e-015
    vertex 26.302348715568 22.5475183843262 1.45944166666665
    vertex 26.6606327416954 22.9058024104536 1.45944166666665
  endloop
endfacet
facet normal -0.707106781186548 0.707106781186548 -0.0
  outer loop
    vertex 26.302348715568 22.5475183843262 1.45944166666665
    vertex 26.6606327416954 22.9058024104536 -9.51738687859915e-015
    vertex 26.302348715568 22.5475183843262 -9.51738687859915e-015
  endloop
endfacet
facet normal 0.258819045102522 -0.965925826289068 1.38777878078144e-016
  outer loop
    vertex 0.906555116518807 -3.38330975470966 5.28743715477731e-016
    vertex 2.31626751431451 -3.00557845616018 1.45944166666666
    vertex 0.906555116518807 -3.38330975470966 1.45944166666666
  endloop
endfacet
facet normal 0.258819045102522 -0.965925826289068 1.38777878078144e-016
  outer loop
    vertex 2.31626751431451 -3.00557845616018 1.45944166666666
    vertex 0.906555116518807 -3.38330975470966 5.28743715477731e-016
    vertex 2.31626751431451 -3.00557845616018 3.52495810318487e-016
  endloop
endfacet
facet normal 0.707106781186548 -0.707106781186548 0.0
  outer loop
    vertex 26.8125205479736 20.9937280182393 1.45944166666665
    vertex 27.6926138409416 21.8738213112074 -9.51738687859915e-015
    vertex 27.6926138409416 21.8738213112074 1.45944166666665
  endloop
endfacet
facet normal 0.707106781186548 -0.707106781186548 0.0
  outer loop
    vertex 27.6926138409416 21.8738213112074 -9.51738687859915e-015
    vertex 26.8125205479736 20.9937280182393 1.45944166666665
    vertex 26.8125205479736 20.9937280182393 -9.34113897343991e-015
  endloop
endfacet
facet normal -0.965925826289067 -0.258819045102525 2.40370335797946e-016
  outer loop
    vertex 0.906555116518807 -3.38330975470966 5.28743715477731e-016
    vertex 5.28743715477731e-016 1.05748743095546e-015 1.45944166666666
    vertex 1.76247905159244e-016 7.04991620636974e-016 0.0
  endloop
endfacet
facet normal -0.965925826289067 -0.258819045102525 2.40370335797946e-016
  outer loop
    vertex 5.28743715477731e-016 1.05748743095546e-015 1.45944166666666
    vertex 0.906555116518807 -3.38330975470966 5.28743715477731e-016
    vertex 0.906555116518807 -3.38330975470966 1.45944166666666
  endloop
endfacet
facet normal -0.150326112391028 -0.988636465002885 2.23534569186152e-016
  outer loop
    vertex 26.8125205479736 20.9937280182393 -9.34113897343991e-015
    vertex 23.5532719483765 21.4893097498841 1.45944166666665
    vertex 23.5532719483765 21.4893097498841 -8.81239525796218e-015
  endloop
endfacet
facet normal -0.150326112391028 -0.988636465002885 2.23534569186152e-016
  outer loop
    vertex 23.5532719483765 21.4893097498841 1.45944166666665
    vertex 26.8125205479736 20.9937280182393 -9.34113897343991e-015
    vertex 26.8125205479736 20.9937280182393 1.45944166666665
  endloop
endfacet
facet normal 1.96261557335472e-016 1.96261557335472e-016 1.0
  outer loop
    vertex 2.31626751431451 -3.00557845616018 1.45944166666666
    vertex 5.28743715477731e-016 1.05748743095546e-015 1.45944166666666
    vertex 0.906555116518807 -3.38330975470966 1.45944166666666
  endloop
endfacet
facet normal 1.96261557335472e-016 1.96261557335472e-016 1.0
  outer loop
    vertex 5.28743715477731e-016 1.05748743095546e-015 1.45944166666666
    vertex 2.31626751431451 -3.00557845616018 1.45944166666666
    vertex 1.62779566469459 -0.436166533797794 1.45944166666666
  endloop
endfacet
facet normal 1.96261557335472e-016 1.96261557335472e-016 1.0
  outer loop
    vertex 5.28743715477731e-016 1.05748743095546e-015 1.45944166666666
    vertex 1.62779566469459 -0.436166533797794 1.45944166666666
    vertex 23.043100115971 23.043100115971 1.45944166666665
  endloop
endfacet
facet normal 1.96261557335472e-016 1.96261557335472e-016 1.0
  outer loop
    vertex 23.043100115971 23.043100115971 1.45944166666665
    vertex 1.62779566469459 -0.436166533797794 1.45944166666666
    vertex 23.5532719483765 21.4893097498841 1.45944166666665
  endloop
endfacet
facet normal 1.96261557335472e-016 1.96261557335472e-016 1.0
  outer loop
    vertex 23.043100115971 23.043100115971 1.45944166666665
    vertex 23.5532719483765 21.4893097498841 1.45944166666665
    vertex 26.8125205479736 20.9937280182393 1.45944166666665
  endloop
endfacet
facet normal 1.96261557335472e-016 1.96261557335472e-016 1.0
  outer loop
    vertex 23.043100115971 23.043100115971 1.45944166666665
    vertex 26.8125205479736 20.9937280182393 1.45944166666665
    vertex 26.302348715568 22.5475183843262 1.45944166666665
  endloop
endfacet
facet normal 1.96261557335472e-016 1.96261557335472e-016 1.0
  outer loop
    vertex 26.302348715568 22.5475183843262 1.45944166666665
    vertex 26.8125205479736 20.9937280182393 1.45944166666665
    vertex 27.6926138409416 21.8738213112074 1.45944166666665
  endloop
endfacet
facet normal 1.96261557335472e-016 1.96261557335472e-016 1.0
  outer loop
    vertex 26.302348715568 22.5475183843262 1.45944166666665
    vertex 27.6926138409416 21.8738213112074 1.45944166666665
    vertex 26.6606327416954 22.9058024104536 1.45944166666665
  endloop
endfacet
facet normal 0.965925826289068 0.258819045102524 -2.40370335797946e-016
  outer loop
    vertex 6.80639557484908 -7.49570651669476 1.45944166666666
    vertex 6.11792372522917 -4.92629459433237 -1.76247905159244e-016
    vertex 6.11792372522917 -4.92629459433237 1.45944166666666
  endloop
endfacet
facet normal 0.965925826289068 0.258819045102524 -2.40370335797946e-016
  outer loop
    vertex 6.11792372522917 -4.92629459433237 -1.76247905159244e-016
    vertex 6.80639557484908 -7.49570651669476 1.45944166666666
    vertex 6.80639557484908 -7.49570651669476 3.52495810318487e-016
  endloop
endfacet
facet normal 0.150326112391028 0.988636465002885 -2.23534569186152e-016
  outer loop
    vertex 30.7924767761026 18.0573903237916 1.45944166666665
    vertex 27.5332281765055 18.5529720554364 -8.98864316312142e-015
    vertex 27.5332281765055 18.5529720554364 1.45944166666665
  endloop
endfacet
facet normal 0.150326112391028 0.988636465002885 -2.23534569186152e-016
  outer loop
    vertex 27.5332281765055 18.5529720554364 -8.98864316312142e-015
    vertex 30.7924767761026 18.0573903237916 1.45944166666665
    vertex 30.7924767761026 18.0573903237916 -9.51738687859915e-015
  endloop
endfacet
facet normal 0.707106781186548 -0.707106781186548 0.0
  outer loop
    vertex 6.11792372522917 -4.92629459433237 -1.76247905159244e-016
    vertex 28.0434000089111 16.9991816893496 1.45944166666665
    vertex 6.11792372522917 -4.92629459433237 1.45944166666666
  endloop
endfacet
facet normal 0.707106781186548 -0.707106781186548 0.0
  outer loop
    vertex 28.0434000089111 16.9991816893496 1.45944166666665
    vertex 6.11792372522917 -4.92629459433237 -1.76247905159244e-016
    vertex 28.0434000089111 16.9991816893496 -8.81239525796218e-015
  endloop
endfacet
facet normal -1.96261557335472e-016 -1.96261557335472e-016 -1.0
  outer loop
    vertex 4.49012806053458 -4.49012806053458 0.0
    vertex 6.80639557484908 -7.49570651669476 3.52495810318487e-016
    vertex 5.39668317705338 -7.87343781524424 5.28743715477731e-016
  endloop
endfacet
facet normal -1.96261557335472e-016 -1.96261557335472e-016 -1.0
  outer loop
    vertex 6.80639557484908 -7.49570651669476 3.52495810318487e-016
    vertex 4.49012806053458 -4.49012806053458 0.0
    vertex 6.11792372522917 -4.92629459433237 -1.76247905159244e-016
  endloop
endfacet
facet normal -1.96261557335472e-016 -1.96261557335472e-016 -1.0
  outer loop
    vertex 6.11792372522917 -4.92629459433237 -1.76247905159244e-016
    vertex 4.49012806053458 -4.49012806053458 0.0
    vertex 27.5332281765055 18.5529720554364 -8.98864316312142e-015
  endloop
endfacet
facet normal -1.96261557335472e-016 -1.96261557335472e-016 -1.0
  outer loop
    vertex 6.11792372522917 -4.92629459433237 -1.76247905159244e-016
    vertex 27.5332281765055 18.5529720554364 -8.98864316312142e-015
    vertex 28.0434000089111 16.9991816893496 -8.81239525796218e-015
  endloop
endfacet
facet normal -1.96261557335472e-016 -1.96261557335472e-016 -1.0
  outer loop
    vertex 28.0434000089111 16.9991816893496 -8.81239525796218e-015
    vertex 27.5332281765055 18.5529720554364 -8.98864316312142e-015
    vertex 31.3026486085082 16.5035999577048 -9.34113897343991e-015
  endloop
endfacet
facet normal -1.96261557335472e-016 -1.96261557335472e-016 -1.0
  outer loop
    vertex 31.3026486085082 16.5035999577048 -9.34113897343991e-015
    vertex 27.5332281765055 18.5529720554364 -8.98864316312142e-015
    vertex 30.7924767761026 18.0573903237916 -9.51738687859915e-015
  endloop
endfacet
facet normal -1.96261557335472e-016 -1.96261557335472e-016 -1.0
  outer loop
    vertex 31.3026486085082 16.5035999577048 -9.34113897343991e-015
    vertex 30.7924767761026 18.0573903237916 -9.51738687859915e-015
    vertex 32.1827419014762 17.3836932506728 -9.51738687859915e-015
  endloop
endfacet
facet normal -1.96261557335472e-016 -1.96261557335472e-016 -1.0
  outer loop
    vertex 32.1827419014762 17.3836932506728 -9.51738687859915e-015
    vertex 30.7924767761026 18.0573903237916 -9.51738687859915e-015
    vertex 31.15076080223 18.415674349919 -9.51738687859915e-015
  endloop
endfacet
facet normal -0.707106781186548 0.707106781186548 -0.0
  outer loop
    vertex 27.5332281765055 18.5529720554364 -8.98864316312142e-015
    vertex 4.49012806053458 -4.49012806053458 1.45944166666666
    vertex 27.5332281765055 18.5529720554364 1.45944166666665
  endloop
endfacet
facet normal -0.707106781186548 0.707106781186548 -0.0
  outer loop
    vertex 4.49012806053458 -4.49012806053458 1.45944166666666
    vertex 27.5332281765055 18.5529720554364 -8.98864316312142e-015
    vertex 4.49012806053458 -4.49012806053458 0.0
  endloop
endfacet
facet normal 0.707106781186548 0.707106781186548 -2.77555756156289e-016
  outer loop
    vertex 32.1827419014762 17.3836932506728 1.45944166666665
    vertex 31.15076080223 18.415674349919 -9.51738687859915e-015
    vertex 31.15076080223 18.415674349919 1.45944166666665
  endloop
endfacet
facet normal 0.707106781186548 0.707106781186548 -2.77555756156289e-016
  outer loop
    vertex 31.15076080223 18.415674349919 -9.51738687859915e-015
    vertex 32.1827419014762 17.3836932506728 1.45944166666665
    vertex 32.1827419014762 17.3836932506728 -9.51738687859915e-015
  endloop
endfacet
facet normal -0.707106781186548 0.707106781186548 -0.0
  outer loop
    vertex 31.15076080223 18.415674349919 -9.51738687859915e-015
    vertex 30.7924767761026 18.0573903237916 1.45944166666665
    vertex 31.15076080223 18.415674349919 1.45944166666665
  endloop
endfacet
facet normal -0.707106781186548 0.707106781186548 -0.0
  outer loop
    vertex 30.7924767761026 18.0573903237916 1.45944166666665
    vertex 31.15076080223 18.415674349919 -9.51738687859915e-015
    vertex 30.7924767761026 18.0573903237916 -9.51738687859915e-015
  endloop
endfacet
facet normal 0.258819045102522 -0.965925826289068 1.38777878078144e-016
  outer loop
    vertex 5.39668317705338 -7.87343781524424 5.28743715477731e-016
    vertex 6.80639557484908 -7.49570651669476 1.45944166666666
    vertex 5.39668317705338 -7.87343781524424 1.45944166666666
  endloop
endfacet
facet normal 0.258819045102522 -0.965925826289068 1.38777878078144e-016
  outer loop
    vertex 6.80639557484908 -7.49570651669476 1.45944166666666
    vertex 5.39668317705338 -7.87343781524424 5.28743715477731e-016
    vertex 6.80639557484908 -7.49570651669476 3.52495810318487e-016
  endloop
endfacet
facet normal 0.707106781186548 -0.707106781186548 0.0
  outer loop
    vertex 31.3026486085082 16.5035999577048 1.45944166666665
    vertex 32.1827419014762 17.3836932506728 -9.51738687859915e-015
    vertex 32.1827419014762 17.3836932506728 1.45944166666665
  endloop
endfacet
facet normal 0.707106781186548 -0.707106781186548 0.0
  outer loop
    vertex 32.1827419014762 17.3836932506728 -9.51738687859915e-015
    vertex 31.3026486085082 16.5035999577048 1.45944166666665
    vertex 31.3026486085082 16.5035999577048 -9.34113897343991e-015
  endloop
endfacet
facet normal -0.965925826289067 -0.258819045102525 2.40370335797946e-016
  outer loop
    vertex 5.39668317705338 -7.87343781524424 5.28743715477731e-016
    vertex 4.49012806053458 -4.49012806053458 1.45944166666666
    vertex 4.49012806053458 -4.49012806053458 0.0
  endloop
endfacet
facet normal -0.965925826289067 -0.258819045102525 2.40370335797946e-016
  outer loop
    vertex 4.49012806053458 -4.49012806053458 1.45944166666666
    vertex 5.39668317705338 -7.87343781524424 5.28743715477731e-016
    vertex 5.39668317705338 -7.87343781524424 1.45944166666666
  endloop
endfacet
facet normal -0.150326112391028 -0.988636465002885 2.23534569186152e-016
  outer loop
    vertex 31.3026486085082 16.5035999577048 -9.34113897343991e-015
    vertex 28.0434000089111 16.9991816893496 1.45944166666665
    vertex 28.0434000089111 16.9991816893496 -8.81239525796218e-015
  endloop
endfacet
facet normal -0.150326112391028 -0.988636465002885 2.23534569186152e-016
  outer loop
    vertex 28.0434000089111 16.9991816893496 1.45944166666665
    vertex 31.3026486085082 16.5035999577048 -9.34113897343991e-015
    vertex 31.3026486085082 16.5035999577048 1.45944166666665
  endloop
endfacet
facet normal 1.96261557335472e-016 1.96261557335472e-016 1.0
  outer loop
    vertex 6.80639557484908 -7.49570651669476 1.45944166666666
    vertex 4.49012806053458 -4.49012806053458 1.45944166666666
    vertex 5.39668317705338 -7.87343781524424 1.45944166666666
  endloop
endfacet
facet normal 1.96261557335472e-016 1.96261557335472e-016 1.0
  outer loop
    vertex 4.49012806053458 -4.49012806053458 1.45944166666666
    vertex 6.80639557484908 -7.49570651669476 1.45944166666666
    vertex 6.11792372522917 -4.92629459433237 1.45944166666666
  endloop
endfacet
facet normal 1.96261557335472e-016 1.96261557335472e-016 1.0
  outer loop
    vertex 4.49012806053458 -4.49012806053458 1.45944166666666
    vertex 6.11792372522917 -4.92629459433237 1.45944166666666
    vertex 27.5332281765055 18.5529720554364 1.45944166666665
  endloop
endfacet
facet normal 1.96261557335472e-016 1.96261557335472e-016 1.0
  outer loop
    vertex 27.5332281765055 18.5529720554364 1.45944166666665
    vertex 6.11792372522917 -4.92629459433237 1.45944166666666
    vertex 28.0434000089111 16.9991816893496 1.45944166666665
  endloop
endfacet
facet normal 1.96261557335472e-016 1.96261557335472e-016 1.0
  outer loop
    vertex 27.5332281765055 18.5529720554364 1.45944166666665
    vertex 28.0434000089111 16.9991816893496 1.45944166666665
    vertex 31.3026486085082 16.5035999577048 1.45944166666665
  endloop
endfacet
facet normal 1.96261557335472e-016 1.96261557335472e-016 1.0
  outer loop
    vertex 27.5332281765055 18.5529720554364 1.45944166666665
    vertex 31.3026486085082 16.5035999577048 1.45944166666665
    vertex 30.7924767761026 18.0573903237916 1.45944166666665
  endloop
endfacet
facet normal 1.96261557335472e-016 1.96261557335472e-016 1.0
  outer loop
    vertex 30.7924767761026 18.0573903237916 1.45944166666665
    vertex 31.3026486085082 16.5035999577048 1.45944166666665
    vertex 32.1827419014762 17.3836932506728 1.45944166666665
  endloop
endfacet
facet normal 1.96261557335472e-016 1.96261557335472e-016 1.0
  outer loop
    vertex 30.7924767761026 18.0573903237916 1.45944166666665
    vertex 32.1827419014762 17.3836932506728 1.45944166666665
    vertex 31.15076080223 18.415674349919 1.45944166666665
  endloop
endfacet
facet normal 0.965925826289068 0.258819045102524 -2.40370335797946e-016
  outer loop
    vertex 11.2965236353837 -11.9858345772293 1.45944166666666
    vertex 10.6080517857637 -9.41642265486695 -1.76247905159244e-016
    vertex 10.6080517857637 -9.41642265486695 1.45944166666666
  endloop
endfacet
facet normal 0.965925826289068 0.258819045102524 -2.40370335797946e-016
  outer loop
    vertex 10.6080517857637 -9.41642265486695 -1.76247905159244e-016
    vertex 11.2965236353837 -11.9858345772293 1.45944166666666
    vertex 11.2965236353837 -11.9858345772293 3.52495810318487e-016
  endloop
endfacet
facet normal 0.150326112391028 0.988636465002885 -2.23534569186152e-016
  outer loop
    vertex 35.2826048366372 13.567262263257 1.45944166666665
    vertex 32.0233562370401 14.0628439949018 -8.98864316312142e-015
    vertex 32.0233562370401 14.0628439949018 1.45944166666665
  endloop
endfacet
facet normal 0.150326112391028 0.988636465002885 -2.23534569186152e-016
  outer loop
    vertex 32.0233562370401 14.0628439949018 -8.98864316312142e-015
    vertex 35.2826048366372 13.567262263257 1.45944166666665
    vertex 35.2826048366372 13.567262263257 -9.51738687859915e-015
  endloop
endfacet
facet normal 0.707106781186548 -0.707106781186548 0.0
  outer loop
    vertex 10.6080517857637 -9.41642265486695 -1.76247905159244e-016
    vertex 32.5335280694457 12.509053628815 1.45944166666665
    vertex 10.6080517857637 -9.41642265486695 1.45944166666666
  endloop
endfacet
facet normal 0.707106781186548 -0.707106781186548 0.0
  outer loop
    vertex 32.5335280694457 12.509053628815 1.45944166666665
    vertex 10.6080517857637 -9.41642265486695 -1.76247905159244e-016
    vertex 32.5335280694457 12.509053628815 -8.81239525796218e-015
  endloop
endfacet
facet normal -1.96261557335472e-016 -1.96261557335472e-016 -1.0
  outer loop
    vertex 8.98025612106914 -8.98025612106916 0.0
    vertex 11.2965236353837 -11.9858345772293 3.52495810318487e-016
    vertex 9.88681123758795 -12.3635658757788 5.28743715477731e-016
  endloop
endfacet
facet normal -1.96261557335472e-016 -1.96261557335472e-016 -1.0
  outer loop
    vertex 11.2965236353837 -11.9858345772293 3.52495810318487e-016
    vertex 8.98025612106914 -8.98025612106916 0.0
    vertex 10.6080517857637 -9.41642265486695 -1.76247905159244e-016
  endloop
endfacet
facet normal -1.96261557335472e-016 -1.96261557335472e-016 -1.0
  outer loop
    vertex 10.6080517857637 -9.41642265486695 -1.76247905159244e-016
    vertex 8.98025612106914 -8.98025612106916 0.0
    vertex 32.0233562370401 14.0628439949018 -8.98864316312142e-015
  endloop
endfacet
facet normal -1.96261557335472e-016 -1.96261557335472e-016 -1.0
  outer loop
    vertex 10.6080517857637 -9.41642265486695 -1.76247905159244e-016
    vertex 32.0233562370401 14.0628439949018 -8.98864316312142e-015
    vertex 32.5335280694457 12.509053628815 -8.81239525796218e-015
  endloop
endfacet
facet normal -1.96261557335472e-016 -1.96261557335472e-016 -1.0
  outer loop
    vertex 32.5335280694457 12.509053628815 -8.81239525796218e-015
    vertex 32.0233562370401 14.0628439949018 -8.98864316312142e-015
    vertex 35.7927766690428 12.0134718971702 -9.34113897343991e-015
  endloop
endfacet
facet normal -1.96261557335472e-016 -1.96261557335472e-016 -1.0
  outer loop
    vertex 35.7927766690428 12.0134718971702 -9.34113897343991e-015
    vertex 32.0233562370401 14.0628439949018 -8.98864316312142e-015
    vertex 35.2826048366372 13.567262263257 -9.51738687859915e-015
  endloop
endfacet
facet normal -1.96261557335472e-016 -1.96261557335472e-016 -1.0
  outer loop
    vertex 35.7927766690428 12.0134718971702 -9.34113897343991e-015
    vertex 35.2826048366372 13.567262263257 -9.51738687859915e-015
    vertex 36.6728699620108 12.8935651901382 -9.51738687859915e-015
  endloop
endfacet
facet normal -1.96261557335472e-016 -1.96261557335472e-016 -1.0
  outer loop
    vertex 36.6728699620108 12.8935651901382 -9.51738687859915e-015
    vertex 35.2826048366372 13.567262263257 -9.51738687859915e-015
    vertex 35.6408888627646 13.9255462893844 -9.51738687859915e-015
  endloop
endfacet
facet normal -0.707106781186548 0.707106781186548 -0.0
  outer loop
    vertex 32.0233562370401 14.0628439949018 -8.98864316312142e-015
    vertex 8.98025612106914 -8.98025612106916 1.45944166666666
    vertex 32.0233562370401 14.0628439949018 1.45944166666665
  endloop
endfacet
facet normal -0.707106781186548 0.707106781186548 -0.0
  outer loop
    vertex 8.98025612106914 -8.98025612106916 1.45944166666666
    vertex 32.0233562370401 14.0628439949018 -8.98864316312142e-015
    vertex 8.98025612106914 -8.98025612106916 0.0
  endloop
endfacet
facet normal 0.707106781186548 0.707106781186548 -2.77555756156289e-016
  outer loop
    vertex 36.6728699620108 12.8935651901382 1.45944166666665
    vertex 35.6408888627646 13.9255462893844 -9.51738687859915e-015
    vertex 35.6408888627646 13.9255462893844 1.45944166666665
  endloop
endfacet
facet normal 0.707106781186548 0.707106781186548 -2.77555756156289e-016
  outer loop
    vertex 35.6408888627646 13.9255462893844 -9.51738687859915e-015
    vertex 36.6728699620108 12.8935651901382 1.45944166666665
    vertex 36.6728699620108 12.8935651901382 -9.51738687859915e-015
  endloop
endfacet
facet normal -0.707106781186548 0.707106781186548 -0.0
  outer loop
    vertex 35.6408888627646 13.9255462893844 -9.51738687859915e-015
    vertex 35.2826048366372 13.567262263257 1.45944166666665
    vertex 35.6408888627646 13.9255462893844 1.45944166666665
  endloop
endfacet
facet normal -0.707106781186548 0.707106781186548 -0.0
  outer loop
    vertex 35.2826048366372 13.567262263257 1.45944166666665
    vertex 35.6408888627646 13.9255462893844 -9.51738687859915e-015
    vertex 35.2826048366372 13.567262263257 -9.51738687859915e-015
  endloop
endfacet
facet normal 0.258819045102522 -0.965925826289068 1.38777878078144e-016
  outer loop
    vertex 9.88681123758795 -12.3635658757788 5.28743715477731e-016
    vertex 11.2965236353837 -11.9858345772293 1.45944166666666
    vertex 9.88681123758795 -12.3635658757788 1.45944166666666
  endloop
endfacet
facet normal 0.258819045102522 -0.965925826289068 1.38777878078144e-016
  outer loop
    vertex 11.2965236353837 -11.9858345772293 1.45944166666666
    vertex 9.88681123758795 -12.3635658757788 5.28743715477731e-016
    vertex 11.2965236353837 -11.9858345772293 3.52495810318487e-016
  endloop
endfacet
facet normal 0.707106781186548 -0.707106781186548 0.0
  outer loop
    vertex 35.7927766690428 12.0134718971702 1.45944166666665
    vertex 36.6728699620108 12.8935651901382 -9.51738687859915e-015
    vertex 36.6728699620108 12.8935651901382 1.45944166666665
  endloop
endfacet
facet normal 0.707106781186548 -0.707106781186548 0.0
  outer loop
    vertex 36.6728699620108 12.8935651901382 -9.51738687859915e-015
    vertex 35.7927766690428 12.0134718971702 1.45944166666665
    vertex 35.7927766690428 12.0134718971702 -9.34113897343991e-015
  endloop
endfacet
facet normal -0.965925826289067 -0.258819045102525 2.40370335797946e-016
  outer loop
    vertex 9.88681123758795 -12.3635658757788 5.28743715477731e-016
    vertex 8.98025612106914 -8.98025612106916 1.45944166666666
    vertex 8.98025612106914 -8.98025612106916 0.0
  endloop
endfacet
facet normal -0.965925826289067 -0.258819045102525 2.40370335797946e-016
  outer loop
    vertex 8.98025612106914 -8.98025612106916 1.45944166666666
    vertex 9.88681123758795 -12.3635658757788 5.28743715477731e-016
    vertex 9.88681123758795 -12.3635658757788 1.45944166666666
  endloop
endfacet
facet normal -0.150326112391028 -0.988636465002885 2.23534569186152e-016
  outer loop
    vertex 35.7927766690428 12.0134718971702 -9.34113897343991e-015
    vertex 32.5335280694457 12.509053628815 1.45944166666665
    vertex 32.5335280694457 12.509053628815 -8.81239525796218e-015
  endloop
endfacet
facet normal -0.150326112391028 -0.988636465002885 2.23534569186152e-016
  outer loop
    vertex 32.5335280694457 12.509053628815 1.45944166666665
    vertex 35.7927766690428 12.0134718971702 -9.34113897343991e-015
    vertex 35.7927766690428 12.0134718971702 1.45944166666665
  endloop
endfacet
facet normal 1.96261557335472e-016 1.96261557335472e-016 1.0
  outer loop
    vertex 11.2965236353837 -11.9858345772293 1.45944166666666
    vertex 8.98025612106914 -8.98025612106916 1.45944166666666
    vertex 9.88681123758795 -12.3635658757788 1.45944166666666
  endloop
endfacet
facet normal 1.96261557335472e-016 1.96261557335472e-016 1.0
  outer loop
    vertex 8.98025612106914 -8.98025612106916 1.45944166666666
    vertex 11.2965236353837 -11.9858345772293 1.45944166666666
    vertex 10.6080517857637 -9.41642265486695 1.45944166666666
  endloop
endfacet
facet normal 1.96261557335472e-016 1.96261557335472e-016 1.0
  outer loop
    vertex 8.98025612106914 -8.98025612106916 1.45944166666666
    vertex 10.6080517857637 -9.41642265486695 1.45944166666666
    vertex 32.0233562370401 14.0628439949018 1.45944166666665
  endloop
endfacet
facet normal 1.96261557335472e-016 1.96261557335472e-016 1.0
  outer loop
    vertex 32.0233562370401 14.0628439949018 1.45944166666665
    vertex 10.6080517857637 -9.41642265486695 1.45944166666666
    vertex 32.5335280694457 12.509053628815 1.45944166666665
  endloop
endfacet
facet normal 1.96261557335472e-016 1.96261557335472e-016 1.0
  outer loop
    vertex 32.0233562370401 14.0628439949018 1.45944166666665
    vertex 32.5335280694457 12.509053628815 1.45944166666665
    vertex 35.7927766690428 12.0134718971702 1.45944166666665
  endloop
endfacet
facet normal 1.96261557335472e-016 1.96261557335472e-016 1.0
  outer loop
    vertex 32.0233562370401 14.0628439949018 1.45944166666665
    vertex 35.7927766690428 12.0134718971702 1.45944166666665
    vertex 35.2826048366372 13.567262263257 1.45944166666665
  endloop
endfacet
facet normal 1.96261557335472e-016 1.96261557335472e-016 1.0
  outer loop
    vertex 35.2826048366372 13.567262263257 1.45944166666665
    vertex 35.7927766690428 12.0134718971702 1.45944166666665
    vertex 36.6728699620108 12.8935651901382 1.45944166666665
  endloop
endfacet
facet normal 1.96261557335472e-016 1.96261557335472e-016 1.0
  outer loop
    vertex 35.2826048366372 13.567262263257 1.45944166666665
    vertex 36.6728699620108 12.8935651901382 1.45944166666665
    vertex 35.6408888627646 13.9255462893844 1.45944166666665
  endloop
endfacet
facet normal 0.965925826289068 0.258819045102524 -2.40370335797946e-016
  outer loop
    vertex 15.7866516959182 -16.4759626377639 1.45944166666666
    vertex 15.0981798462983 -13.9065507154015 -1.76247905159244e-016
    vertex 15.0981798462983 -13.9065507154015 1.45944166666666
  endloop
endfacet
facet normal 0.965925826289068 0.258819045102524 -2.40370335797946e-016
  outer loop
    vertex 15.0981798462983 -13.9065507154015 -1.76247905159244e-016
    vertex 15.7866516959182 -16.4759626377639 1.45944166666666
    vertex 15.7866516959182 -16.4759626377639 3.52495810318487e-016
  endloop
endfacet
facet normal 0.150326112391028 0.988636465002885 -2.23534569186152e-016
  outer loop
    vertex 39.7727328971718 9.07713420272241 1.45944166666665
    vertex 36.5134842975747 9.57271593436722 -8.98864316312142e-015
    vertex 36.5134842975747 9.57271593436722 1.45944166666665
  endloop
endfacet
facet normal 0.150326112391028 0.988636465002885 -2.23534569186152e-016
  outer loop
    vertex 36.5134842975747 9.57271593436722 -8.98864316312142e-015
    vertex 39.7727328971718 9.07713420272241 1.45944166666665
    vertex 39.7727328971718 9.07713420272241 -9.51738687859915e-015
  endloop
endfacet
facet normal 0.707106781186548 -0.707106781186548 0.0
  outer loop
    vertex 15.0981798462983 -13.9065507154015 -1.76247905159244e-016
    vertex 37.0236561299803 8.01892556828041 1.45944166666665
    vertex 15.0981798462983 -13.9065507154015 1.45944166666666
  endloop
endfacet
facet normal 0.707106781186548 -0.707106781186548 0.0
  outer loop
    vertex 37.0236561299803 8.01892556828041 1.45944166666665
    vertex 15.0981798462983 -13.9065507154015 -1.76247905159244e-016
    vertex 37.0236561299803 8.01892556828041 -8.81239525796218e-015
  endloop
endfacet
facet normal -1.96261557335472e-016 -1.96261557335472e-016 -1.0
  outer loop
    vertex 13.4703841816037 -13.4703841816037 0.0
    vertex 15.7866516959182 -16.4759626377639 3.52495810318487e-016
    vertex 14.3769392981225 -16.8536939363134 5.28743715477731e-016
  endloop
endfacet
facet normal -1.96261557335472e-016 -1.96261557335472e-016 -1.0
  outer loop
    vertex 15.7866516959182 -16.4759626377639 3.52495810318487e-016
    vertex 13.4703841816037 -13.4703841816037 0.0
    vertex 15.0981798462983 -13.9065507154015 -1.76247905159244e-016
  endloop
endfacet
facet normal -1.96261557335472e-016 -1.96261557335472e-016 -1.0
  outer loop
    vertex 15.0981798462983 -13.9065507154015 -1.76247905159244e-016
    vertex 13.4703841816037 -13.4703841816037 0.0
    vertex 36.5134842975747 9.57271593436722 -8.98864316312142e-015
  endloop
endfacet
facet normal -1.96261557335472e-016 -1.96261557335472e-016 -1.0
  outer loop
    vertex 15.0981798462983 -13.9065507154015 -1.76247905159244e-016
    vertex 36.5134842975747 9.57271593436722 -8.98864316312142e-015
    vertex 37.0236561299803 8.01892556828041 -8.81239525796218e-015
  endloop
endfacet
facet normal -1.96261557335472e-016 -1.96261557335472e-016 -1.0
  outer loop
    vertex 37.0236561299803 8.01892556828041 -8.81239525796218e-015
    vertex 36.5134842975747 9.57271593436722 -8.98864316312142e-015
    vertex 40.2829047295773 7.5233438366356 -9.34113897343991e-015
  endloop
endfacet
facet normal -1.96261557335472e-016 -1.96261557335472e-016 -1.0
  outer loop
    vertex 40.2829047295773 7.5233438366356 -9.34113897343991e-015
    vertex 36.5134842975747 9.57271593436722 -8.98864316312142e-015
    vertex 39.7727328971718 9.07713420272241 -9.51738687859915e-015
  endloop
endfacet
facet normal -1.96261557335472e-016 -1.96261557335472e-016 -1.0
  outer loop
    vertex 40.2829047295773 7.5233438366356 -9.34113897343991e-015
    vertex 39.7727328971718 9.07713420272241 -9.51738687859915e-015
    vertex 41.1629980225454 8.40343712960363 -9.51738687859915e-015
  endloop
endfacet
facet normal -1.96261557335472e-016 -1.96261557335472e-016 -1.0
  outer loop
    vertex 41.1629980225454 8.40343712960363 -9.51738687859915e-015
    vertex 39.7727328971718 9.07713420272241 -9.51738687859915e-015
    vertex 40.1310169232992 9.43541822884982 -9.51738687859915e-015
  endloop
endfacet
facet normal -0.707106781186548 0.707106781186548 -0.0
  outer loop
    vertex 36.5134842975747 9.57271593436722 -8.98864316312142e-015
    vertex 13.4703841816037 -13.4703841816037 1.45944166666666
    vertex 36.5134842975747 9.57271593436722 1.45944166666665
  endloop
endfacet
facet normal -0.707106781186548 0.707106781186548 -0.0
  outer loop
    vertex 13.4703841816037 -13.4703841816037 1.45944166666666
    vertex 36.5134842975747 9.57271593436722 -8.98864316312142e-015
    vertex 13.4703841816037 -13.4703841816037 0.0
  endloop
endfacet
facet normal 0.707106781186548 0.707106781186548 -2.77555756156289e-016
  outer loop
    vertex 41.1629980225454 8.40343712960363 1.45944166666665
    vertex 40.1310169232992 9.43541822884982 -9.51738687859915e-015
    vertex 40.1310169232992 9.43541822884982 1.45944166666665
  endloop
endfacet
facet normal 0.707106781186548 0.707106781186548 -2.77555756156289e-016
  outer loop
    vertex 40.1310169232992 9.43541822884982 -9.51738687859915e-015
    vertex 41.1629980225454 8.40343712960363 1.45944166666665
    vertex 41.1629980225454 8.40343712960363 -9.51738687859915e-015
  endloop
endfacet
facet normal -0.707106781186548 0.707106781186548 -0.0
  outer loop
    vertex 40.1310169232992 9.43541822884982 -9.51738687859915e-015
    vertex 39.7727328971718 9.07713420272241 1.45944166666665
    vertex 40.1310169232992 9.43541822884982 1.45944166666665
  endloop
endfacet
facet normal -0.707106781186548 0.707106781186548 -0.0
  outer loop
    vertex 39.7727328971718 9.07713420272241 1.45944166666665
    vertex 40.1310169232992 9.43541822884982 -9.51738687859915e-015
    vertex 39.7727328971718 9.07713420272241 -9.51738687859915e-015
  endloop
endfacet
facet normal 0.258819045102522 -0.965925826289068 1.38777878078144e-016
  outer loop
    vertex 14.3769392981225 -16.8536939363134 5.28743715477731e-016
    vertex 15.7866516959182 -16.4759626377639 1.45944166666666
    vertex 14.3769392981225 -16.8536939363134 1.45944166666666
  endloop
endfacet
facet normal 0.258819045102522 -0.965925826289068 1.38777878078144e-016
  outer loop
    vertex 15.7866516959182 -16.4759626377639 1.45944166666666
    vertex 14.3769392981225 -16.8536939363134 5.28743715477731e-016
    vertex 15.7866516959182 -16.4759626377639 3.52495810318487e-016
  endloop
endfacet
facet normal 0.707106781186548 -0.707106781186548 0.0
  outer loop
    vertex 40.2829047295773 7.5233438366356 1.45944166666665
    vertex 41.1629980225454 8.40343712960363 -9.51738687859915e-015
    vertex 41.1629980225454 8.40343712960363 1.45944166666665
  endloop
endfacet
facet normal 0.707106781186548 -0.707106781186548 0.0
  outer loop
    vertex 41.1629980225454 8.40343712960363 -9.51738687859915e-015
    vertex 40.2829047295773 7.5233438366356 1.45944166666665
    vertex 40.2829047295773 7.5233438366356 -9.34113897343991e-015
  endloop
endfacet
facet normal -0.965925826289067 -0.258819045102525 2.40370335797946e-016
  outer loop
    vertex 14.3769392981225 -16.8536939363134 5.28743715477731e-016
    vertex 13.4703841816037 -13.4703841816037 1.45944166666666
    vertex 13.4703841816037 -13.4703841816037 0.0
  endloop
endfacet
facet normal -0.965925826289067 -0.258819045102525 2.40370335797946e-016
  outer loop
    vertex 13.4703841816037 -13.4703841816037 1.45944166666666
    vertex 14.3769392981225 -16.8536939363134 5.28743715477731e-016
    vertex 14.3769392981225 -16.8536939363134 1.45944166666666
  endloop
endfacet
facet normal -0.150326112391028 -0.988636465002885 2.23534569186152e-016
  outer loop
    vertex 40.2829047295773 7.5233438366356 -9.34113897343991e-015
    vertex 37.0236561299803 8.01892556828041 1.45944166666665
    vertex 37.0236561299803 8.01892556828041 -8.81239525796218e-015
  endloop
endfacet
facet normal -0.150326112391028 -0.988636465002885 2.23534569186152e-016
  outer loop
    vertex 37.0236561299803 8.01892556828041 1.45944166666665
    vertex 40.2829047295773 7.5233438366356 -9.34113897343991e-015
    vertex 40.2829047295773 7.5233438366356 1.45944166666665
  endloop
endfacet
facet normal 1.96261557335472e-016 1.96261557335472e-016 1.0
  outer loop
    vertex 15.7866516959182 -16.4759626377639 1.45944166666666
    vertex 13.4703841816037 -13.4703841816037 1.45944166666666
    vertex 14.3769392981225 -16.8536939363134 1.45944166666666
  endloop
endfacet
facet normal 1.96261557335472e-016 1.96261557335472e-016 1.0
  outer loop
    vertex 13.4703841816037 -13.4703841816037 1.45944166666666
    vertex 15.7866516959182 -16.4759626377639 1.45944166666666
    vertex 15.0981798462983 -13.9065507154015 1.45944166666666
  endloop
endfacet
facet normal 1.96261557335472e-016 1.96261557335472e-016 1.0
  outer loop
    vertex 13.4703841816037 -13.4703841816037 1.45944166666666
    vertex 15.0981798462983 -13.9065507154015 1.45944166666666
    vertex 36.5134842975747 9.57271593436722 1.45944166666665
  endloop
endfacet
facet normal 1.96261557335472e-016 1.96261557335472e-016 1.0
  outer loop
    vertex 36.5134842975747 9.57271593436722 1.45944166666665
    vertex 15.0981798462983 -13.9065507154015 1.45944166666666
    vertex 37.0236561299803 8.01892556828041 1.45944166666665
  endloop
endfacet
facet normal 1.96261557335472e-016 1.96261557335472e-016 1.0
  outer loop
    vertex 36.5134842975747 9.57271593436722 1.45944166666665
    vertex 37.0236561299803 8.01892556828041 1.45944166666665
    vertex 40.2829047295773 7.5233438366356 1.45944166666665
  endloop
endfacet
facet normal 1.96261557335472e-016 1.96261557335472e-016 1.0
  outer loop
    vertex 36.5134842975747 9.57271593436722 1.45944166666665
    vertex 40.2829047295773 7.5233438366356 1.45944166666665
    vertex 39.7727328971718 9.07713420272241 1.45944166666665
  endloop
endfacet
facet normal 1.96261557335472e-016 1.96261557335472e-016 1.0
  outer loop
    vertex 39.7727328971718 9.07713420272241 1.45944166666665
    vertex 40.2829047295773 7.5233438366356 1.45944166666665
    vertex 41.1629980225454 8.40343712960363 1.45944166666665
  endloop
endfacet
facet normal 1.96261557335472e-016 1.96261557335472e-016 1.0
  outer loop
    vertex 39.7727328971718 9.07713420272241 1.45944166666665
    vertex 41.1629980225454 8.40343712960363 1.45944166666665
    vertex 40.1310169232992 9.43541822884982 1.45944166666665
  endloop
endfacet
endsolid Untitled-5b0ac3e0
