solid Untitled-5b034636
facet normal -3.46339023973672e-018 7.98848092519512e-016 -1.0
  outer loop
    vertex 66.6806286210372 64.2033297248996 6.4229544444445
    vertex 59.2487319326244 59.2487319326245 6.42295444444449
    vertex 65.4419791729684 65.4419791729685 6.4229544444445
  endloop
endfacet
facet normal -3.46339023973672e-018 7.98848092519512e-016 -1.0
  outer loop
    vertex 59.2487319326244 59.2487319326245 6.42295444444449
    vertex 66.6806286210372 64.2033297248996 6.4229544444445
    vertex 60.4873813806932 58.0100824845556 6.42295444444449
  endloop
endfacet
facet normal -0.707106781186548 -0.707106781186547 -5.62421916634073e-016
  outer loop
    vertex 65.4419791729684 65.4419791729685 6.4229544444445
    vertex 66.6806286210372 64.2033297248997 1.7517148484849
    vertex 66.6806286210372 64.2033297248996 6.4229544444445
  endloop
endfacet
facet normal -0.707106781186548 -0.707106781186547 -5.62421916634073e-016
  outer loop
    vertex 66.6806286210372 64.2033297248997 1.7517148484849
    vertex 65.4419791729684 65.4419791729685 6.4229544444445
    vertex 65.4419791729684 65.4419791729685 1.7517148484849
  endloop
endfacet
facet normal 0.707106781186548 0.707106781186547 5.62421916634073e-016
  outer loop
    vertex 60.4873813806932 58.0100824845557 1.7517148484849
    vertex 59.2487319326244 59.2487319326245 6.42295444444449
    vertex 60.4873813806932 58.0100824845556 6.42295444444449
  endloop
endfacet
facet normal 0.707106781186548 0.707106781186547 5.62421916634073e-016
  outer loop
    vertex 59.2487319326244 59.2487319326245 6.42295444444449
    vertex 60.4873813806932 58.0100824845557 1.7517148484849
    vertex 59.2487319326244 59.2487319326245 1.7517148484849
  endloop
endfacet
facet normal 0.707106781186548 0.707106781186547 5.62421916634073e-016
  outer loop
    vertex 17.1346506982851 14.6573518021475 1.75171484848486
    vertex 15.8960012502163 15.8960012502164 6.42295444444446
    vertex 17.1346506982851 14.6573518021475 6.42295444444446
  endloop
endfacet
facet normal 0.707106781186548 0.707106781186547 5.62421916634073e-016
  outer loop
    vertex 15.8960012502163 15.8960012502164 6.42295444444446
    vertex 17.1346506982851 14.6573518021475 1.75171484848486
    vertex 15.8960012502163 15.8960012502164 1.75171484848486
  endloop
endfacet
facet normal -0.707106781186548 -0.707106781186547 1.14285450756499e-016
  outer loop
    vertex 22.0892484905603 22.0892484905604 6.42295444444445
    vertex 23.3278979386291 20.8505990424916 1.75171484848485
    vertex 23.3278979386291 20.8505990424916 6.42295444444445
  endloop
endfacet
facet normal -0.707106781186548 -0.707106781186547 1.14285450756499e-016
  outer loop
    vertex 23.3278979386291 20.8505990424916 1.75171484848485
    vertex 22.0892484905603 22.0892484905604 6.42295444444445
    vertex 22.0892484905603 22.0892484905604 1.75171484848486
  endloop
endfacet
facet normal 0.707106781186548 0.707106781186547 5.62421916634073e-016
  outer loop
    vertex 124.277827956237 -5.78036409098769 1.75171484848484
    vertex 123.039178508168 -4.54171464291889 6.42295444444444
    vertex 124.277827956237 -5.78036409098769 6.42295444444444
  endloop
endfacet
facet normal 0.707106781186548 0.707106781186547 5.62421916634073e-016
  outer loop
    vertex 123.039178508168 -4.54171464291889 6.42295444444444
    vertex 124.277827956237 -5.78036409098769 1.75171484848484
    vertex 123.039178508168 -4.54171464291889 1.75171484848485
  endloop
endfacet
facet normal -3.46339023973672e-018 7.98848092519512e-016 -1.0
  outer loop
    vertex 130.471075196581 0.412883149356315 6.42295444444445
    vertex 123.039178508168 -4.54171464291889 6.42295444444444
    vertex 129.232425748512 1.65153259742513 6.42295444444445
  endloop
endfacet
facet normal -3.46339023973672e-018 7.98848092519512e-016 -1.0
  outer loop
    vertex 123.039178508168 -4.54171464291889 6.42295444444444
    vertex 130.471075196581 0.412883149356315 6.42295444444445
    vertex 124.277827956237 -5.78036409098769 6.42295444444444
  endloop
endfacet
facet normal -0.707106781186548 -0.707106781186547 -5.62421916634073e-016
  outer loop
    vertex 129.232425748512 1.65153259742513 1.75171484848485
    vertex 130.471075196581 0.412883149356315 6.42295444444445
    vertex 129.232425748512 1.65153259742513 6.42295444444445
  endloop
endfacet
facet normal -0.707106781186548 -0.707106781186547 -5.62421916634073e-016
  outer loop
    vertex 130.471075196581 0.412883149356315 6.42295444444445
    vertex 129.232425748512 1.65153259742513 1.75171484848485
    vertex 130.471075196581 0.412883149356315 1.75171484848485
  endloop
endfacet
facet normal 0.707106781186548 0.707106781186547 5.62421916634073e-016
  outer loop
    vertex 80.9250972738284 -49.1330947733958 1.75171484848481
    vertex 79.6864478257596 -47.894445325327 6.42295444444441
    vertex 80.9250972738284 -49.1330947733958 6.42295444444441
  endloop
endfacet
facet normal 0.707106781186548 0.707106781186547 5.62421916634073e-016
  outer loop
    vertex 79.6864478257596 -47.894445325327 6.42295444444441
    vertex 80.9250972738284 -49.1330947733958 1.75171484848481
    vertex 79.6864478257596 -47.894445325327 1.75171484848481
  endloop
endfacet
facet normal -3.46339023973672e-018 7.98848092519512e-016 -1.0
  outer loop
    vertex 87.1183445141724 -42.9398475330518 6.42295444444441
    vertex 79.6864478257596 -47.894445325327 6.42295444444441
    vertex 85.8796950661036 -41.701198084983 6.42295444444441
  endloop
endfacet
facet normal -3.46339023973672e-018 7.98848092519512e-016 -1.0
  outer loop
    vertex 79.6864478257596 -47.894445325327 6.42295444444441
    vertex 87.1183445141724 -42.9398475330518 6.42295444444441
    vertex 80.9250972738284 -49.1330947733958 6.42295444444441
  endloop
endfacet
facet normal -0.707106781186548 -0.707106781186547 -5.62421916634073e-016
  outer loop
    vertex 85.8796950661036 -41.701198084983 1.75171484848482
    vertex 87.1183445141724 -42.9398475330518 6.42295444444441
    vertex 85.8796950661036 -41.701198084983 6.42295444444441
  endloop
endfacet
facet normal -0.707106781186548 -0.707106781186547 -5.62421916634073e-016
  outer loop
    vertex 87.1183445141724 -42.9398475330518 6.42295444444441
    vertex 85.8796950661036 -41.701198084983 1.75171484848482
    vertex 87.1183445141724 -42.9398475330518 1.75171484848482
  endloop
endfacet
facet normal -3.46339023973672e-018 7.98848092519512e-016 -1.0
  outer loop
    vertex 23.3278979386291 20.8505990424916 6.42295444444445
    vertex 15.8960012502163 15.8960012502164 6.42295444444446
    vertex 22.0892484905603 22.0892484905604 6.42295444444445
  endloop
endfacet
facet normal -3.46339023973672e-018 7.98848092519512e-016 -1.0
  outer loop
    vertex 15.8960012502163 15.8960012502164 6.42295444444446
    vertex 23.3278979386291 20.8505990424916 6.42295444444445
    vertex 17.1346506982851 14.6573518021475 6.42295444444446
  endloop
endfacet
facet normal -0.707106781186547 0.707106781186548 5.68499249923121e-016
  outer loop
    vertex 81.750863572541 81.7508635725411 6.48592290986016e-014
    vertex 65.4419791729684 65.4419791729685 1.7517148484849
    vertex 81.750863572541 81.7508635725411 8.75857424242431
  endloop
endfacet
facet normal -0.707106781186547 0.707106781186548 5.68499249923121e-016
  outer loop
    vertex 65.4419791729684 65.4419791729685 1.7517148484849
    vertex 81.750863572541 81.7508635725411 6.48592290986016e-014
    vertex -2.25597318603832e-014 6.76791955811495e-014 0.0
  endloop
endfacet
facet normal -0.707106781186547 0.707106781186548 5.68499249923121e-016
  outer loop
    vertex 65.4419791729684 65.4419791729685 1.7517148484849
    vertex -2.25597318603832e-014 6.76791955811495e-014 0.0
    vertex 59.2487319326244 59.2487319326245 1.7517148484849
  endloop
endfacet
facet normal -0.707106781186547 0.707106781186548 5.68499249923121e-016
  outer loop
    vertex 59.2487319326244 59.2487319326245 1.7517148484849
    vertex -2.25597318603832e-014 6.76791955811495e-014 0.0
    vertex 22.0892484905603 22.0892484905604 1.75171484848486
  endloop
endfacet
facet normal -0.707106781186547 0.707106781186548 5.68499249923121e-016
  outer loop
    vertex 59.2487319326244 59.2487319326245 1.7517148484849
    vertex 22.0892484905603 22.0892484905604 1.75171484848486
    vertex 59.2487319326244 59.2487319326245 6.42295444444449
  endloop
endfacet
facet normal -0.707106781186547 0.707106781186548 5.68499249923121e-016
  outer loop
    vertex 59.2487319326244 59.2487319326245 6.42295444444449
    vertex 22.0892484905603 22.0892484905604 1.75171484848486
    vertex 22.0892484905603 22.0892484905604 6.42295444444445
  endloop
endfacet
facet normal -0.707106781186547 0.707106781186548 5.68499249923121e-016
  outer loop
    vertex 22.0892484905603 22.0892484905604 1.75171484848486
    vertex -2.25597318603832e-014 6.76791955811495e-014 0.0
    vertex 15.8960012502163 15.8960012502164 1.75171484848486
  endloop
endfacet
facet normal -0.707106781186547 0.707106781186548 5.68499249923121e-016
  outer loop
    vertex 15.8960012502163 15.8960012502164 1.75171484848486
    vertex -2.25597318603832e-014 6.76791955811495e-014 0.0
    vertex 15.8960012502163 15.8960012502164 6.42295444444446
  endloop
endfacet
facet normal -0.707106781186547 0.707106781186548 5.68499249923121e-016
  outer loop
    vertex 81.750863572541 81.7508635725411 8.75857424242431
    vertex 65.4419791729684 65.4419791729685 6.4229544444445
    vertex -2.25597318603832e-014 5.6399329650958e-014 8.75857424242425
  endloop
endfacet
facet normal -0.707106781186547 0.707106781186548 5.68499249923121e-016
  outer loop
    vertex 65.4419791729684 65.4419791729685 6.4229544444445
    vertex 81.750863572541 81.7508635725411 8.75857424242431
    vertex 65.4419791729684 65.4419791729685 1.7517148484849
  endloop
endfacet
facet normal -0.707106781186547 0.707106781186548 5.68499249923121e-016
  outer loop
    vertex -2.25597318603832e-014 5.6399329650958e-014 8.75857424242425
    vertex 65.4419791729684 65.4419791729685 6.4229544444445
    vertex 59.2487319326244 59.2487319326245 6.42295444444449
  endloop
endfacet
facet normal -0.707106781186547 0.707106781186548 5.68499249923121e-016
  outer loop
    vertex -2.25597318603832e-014 5.6399329650958e-014 8.75857424242425
    vertex 59.2487319326244 59.2487319326245 6.42295444444449
    vertex 22.0892484905603 22.0892484905604 6.42295444444445
  endloop
endfacet
facet normal -0.707106781186547 0.707106781186548 5.68499249923121e-016
  outer loop
    vertex -2.25597318603832e-014 5.6399329650958e-014 8.75857424242425
    vertex 22.0892484905603 22.0892484905604 6.42295444444445
    vertex 15.8960012502163 15.8960012502164 6.42295444444446
  endloop
endfacet
facet normal -0.707106781186547 0.707106781186548 5.68499249923121e-016
  outer loop
    vertex -2.25597318603832e-014 5.6399329650958e-014 8.75857424242425
    vertex 15.8960012502163 15.8960012502164 6.42295444444446
    vertex -2.25597318603832e-014 6.76791955811495e-014 0.0
  endloop
endfacet
facet normal 0.707106781186547 -0.707106781186548 -5.67319890082899e-016
  outer loop
    vertex 146.779959596153 16.7217675489289 8.75857424242426
    vertex 130.471075196581 0.412883149356315 6.42295444444445
    vertex 146.779959596153 16.7217675489289 1.26898491714655e-014
  endloop
endfacet
facet normal 0.707106781186547 -0.707106781186548 -5.67319890082899e-016
  outer loop
    vertex 130.471075196581 0.412883149356315 6.42295444444445
    vertex 146.779959596153 16.7217675489289 8.75857424242426
    vertex 65.0290960236121 -65.0290960236121 8.7585742424242
  endloop
endfacet
facet normal 0.707106781186547 -0.707106781186548 -5.67319890082899e-016
  outer loop
    vertex 130.471075196581 0.412883149356315 6.42295444444445
    vertex 65.0290960236121 -65.0290960236121 8.7585742424242
    vertex 124.277827956237 -5.78036409098769 6.42295444444444
  endloop
endfacet
facet normal 0.707106781186547 -0.707106781186548 -5.67319890082899e-016
  outer loop
    vertex 124.277827956237 -5.78036409098769 6.42295444444444
    vertex 65.0290960236121 -65.0290960236121 8.7585742424242
    vertex 87.1183445141724 -42.9398475330518 6.42295444444441
  endloop
endfacet
facet normal 0.707106781186547 -0.707106781186548 -5.67319890082899e-016
  outer loop
    vertex 124.277827956237 -5.78036409098769 6.42295444444444
    vertex 87.1183445141724 -42.9398475330518 6.42295444444441
    vertex 124.277827956237 -5.78036409098769 1.75171484848484
  endloop
endfacet
facet normal 0.707106781186547 -0.707106781186548 -5.67319890082899e-016
  outer loop
    vertex 87.1183445141724 -42.9398475330518 6.42295444444441
    vertex 65.0290960236121 -65.0290960236121 8.7585742424242
    vertex 80.9250972738284 -49.1330947733958 6.42295444444441
  endloop
endfacet
facet normal 0.707106781186547 -0.707106781186548 -5.67319890082899e-016
  outer loop
    vertex 80.9250972738284 -49.1330947733958 6.42295444444441
    vertex 65.0290960236121 -65.0290960236121 8.7585742424242
    vertex 80.9250972738284 -49.1330947733958 1.75171484848481
  endloop
endfacet
facet normal 0.707106781186547 -0.707106781186548 -5.67319890082899e-016
  outer loop
    vertex 146.779959596153 16.7217675489289 1.26898491714655e-014
    vertex 130.471075196581 0.412883149356315 1.75171484848485
    vertex 65.0290960236121 -65.0290960236121 -5.21693799271361e-014
  endloop
endfacet
facet normal 0.707106781186547 -0.707106781186548 -5.67319890082899e-016
  outer loop
    vertex 130.471075196581 0.412883149356315 1.75171484848485
    vertex 146.779959596153 16.7217675489289 1.26898491714655e-014
    vertex 130.471075196581 0.412883149356315 6.42295444444445
  endloop
endfacet
facet normal 0.707106781186547 -0.707106781186548 -5.67319890082899e-016
  outer loop
    vertex 65.0290960236121 -65.0290960236121 -5.21693799271361e-014
    vertex 130.471075196581 0.412883149356315 1.75171484848485
    vertex 124.277827956237 -5.78036409098769 1.75171484848484
  endloop
endfacet
facet normal 0.707106781186547 -0.707106781186548 -5.67319890082899e-016
  outer loop
    vertex 65.0290960236121 -65.0290960236121 -5.21693799271361e-014
    vertex 124.277827956237 -5.78036409098769 1.75171484848484
    vertex 87.1183445141724 -42.9398475330518 1.75171484848482
  endloop
endfacet
facet normal 0.707106781186547 -0.707106781186548 -5.67319890082899e-016
  outer loop
    vertex 87.1183445141724 -42.9398475330518 1.75171484848482
    vertex 124.277827956237 -5.78036409098769 1.75171484848484
    vertex 87.1183445141724 -42.9398475330518 6.42295444444441
  endloop
endfacet
facet normal 0.707106781186547 -0.707106781186548 -5.67319890082899e-016
  outer loop
    vertex 65.0290960236121 -65.0290960236121 -5.21693799271361e-014
    vertex 87.1183445141724 -42.9398475330518 1.75171484848482
    vertex 80.9250972738284 -49.1330947733958 1.75171484848481
  endloop
endfacet
facet normal 0.707106781186547 -0.707106781186548 -5.67319890082899e-016
  outer loop
    vertex 65.0290960236121 -65.0290960236121 -5.21693799271361e-014
    vertex 80.9250972738284 -49.1330947733958 1.75171484848481
    vertex 65.0290960236121 -65.0290960236121 8.7585742424242
  endloop
endfacet
facet normal 2.3370304693277e-018 -7.97721732749103e-016 1.0
  outer loop
    vertex 40.6689902115924 38.1916913154548 8.75857424242428
    vertex 42.9398475330518 40.8754317862705 8.75857424242428
    vertex 40.4625486369142 38.3981328901329 8.75857424242428
  endloop
endfacet
facet normal 2.3370304693277e-018 -7.97721732749103e-016 1.0
  outer loop
    vertex 42.9398475330518 40.8754317862705 8.75857424242428
    vertex 40.6689902115924 38.1916913154548 8.75857424242428
    vertex 43.14628910773 40.6689902115924 8.75857424242428
  endloop
endfacet
facet normal 2.3370304693277e-018 -7.97721732749103e-016 1.0
  outer loop
    vertex 43.14628910773 40.6689902115924 8.75857424242428
    vertex 40.6689902115924 38.1916913154548 8.75857424242428
    vertex 42.9398475330518 35.9208339939953 8.75857424242428
  endloop
endfacet
facet normal 2.3370304693277e-018 -7.97721732749103e-016 1.0
  outer loop
    vertex 43.14628910773 40.6689902115924 8.75857424242428
    vertex 42.9398475330518 35.9208339939953 8.75857424242428
    vertex 45.4171464291895 38.3981328901329 8.75857424242428
  endloop
endfacet
facet normal -3.46339023973672e-018 7.98848092519512e-016 -1.0
  outer loop
    vertex 45.4171464291895 38.3981328901329 1.75171484848488
    vertex 40.6689902115924 38.1916913154548 1.75171484848488
    vertex 43.14628910773 40.6689902115924 1.75171484848488
  endloop
endfacet
facet normal -3.46339023973672e-018 7.98848092519512e-016 -1.0
  outer loop
    vertex 40.6689902115924 38.1916913154548 1.75171484848488
    vertex 45.4171464291895 38.3981328901329 1.75171484848488
    vertex 42.9398475330518 35.9208339939953 1.75171484848488
  endloop
endfacet
facet normal 0.707106781186548 0.707106781186547 5.62421916634073e-016
  outer loop
    vertex 45.4171464291895 38.3981328901329 1.75171484848488
    vertex 43.14628910773 40.6689902115924 8.75857424242428
    vertex 45.4171464291895 38.3981328901329 8.75857424242428
  endloop
endfacet
facet normal 0.707106781186548 0.707106781186547 5.62421916634073e-016
  outer loop
    vertex 43.14628910773 40.6689902115924 8.75857424242428
    vertex 45.4171464291895 38.3981328901329 1.75171484848488
    vertex 43.14628910773 40.6689902115924 1.75171484848488
  endloop
endfacet
facet normal -0.707106781186548 -0.707106781186547 -5.62421916634073e-016
  outer loop
    vertex 40.6689902115924 38.1916913154548 8.75857424242428
    vertex 42.9398475330518 35.9208339939953 1.75171484848488
    vertex 42.9398475330518 35.9208339939953 8.75857424242428
  endloop
endfacet
facet normal -0.707106781186548 -0.707106781186547 -5.62421916634073e-016
  outer loop
    vertex 42.9398475330518 35.9208339939953 1.75171484848488
    vertex 40.6689902115924 38.1916913154548 8.75857424242428
    vertex 40.6689902115924 38.1916913154548 1.75171484848488
  endloop
endfacet
facet normal 0.707106781186547 -0.707106781186548 -5.67319890082899e-016
  outer loop
    vertex 42.9398475330518 35.9208339939953 8.75857424242428
    vertex 45.4171464291895 38.3981328901329 1.75171484848488
    vertex 45.4171464291895 38.3981328901329 8.75857424242428
  endloop
endfacet
facet normal 0.707106781186547 -0.707106781186548 -5.67319890082899e-016
  outer loop
    vertex 45.4171464291895 38.3981328901329 1.75171484848488
    vertex 42.9398475330518 35.9208339939953 8.75857424242428
    vertex 42.9398475330518 35.9208339939953 1.75171484848488
  endloop
endfacet
facet normal 0.707106781186547 -0.707106781186548 -5.67319890082899e-016
  outer loop
    vertex 40.4625486369142 38.3981328901329 8.75857424242428
    vertex 42.9398475330518 40.8754317862705 1.75171484848488
    vertex 42.9398475330518 40.8754317862705 8.75857424242428
  endloop
endfacet
facet normal 0.707106781186547 -0.707106781186548 -5.67319890082899e-016
  outer loop
    vertex 42.9398475330518 40.8754317862705 1.75171484848488
    vertex 40.4625486369142 38.3981328901329 8.75857424242428
    vertex 40.4625486369142 38.3981328901329 1.75171484848488
  endloop
endfacet
facet normal -0.707106781186548 -0.707106781186547 -5.62147424751628e-016
  outer loop
    vertex 137.696530310315 15.4831181008601 8.75857424242426
    vertex 140.380270781131 12.7993776300443 1.75171484848487
    vertex 140.380270781131 12.7993776300443 8.75857424242426
  endloop
endfacet
facet normal -0.707106781186548 -0.707106781186547 -5.62147424751628e-016
  outer loop
    vertex 140.380270781131 12.7993776300443 1.75171484848487
    vertex 137.696530310315 15.4831181008601 8.75857424242426
    vertex 137.696530310315 15.4831181008601 1.75171484848487
  endloop
endfacet
facet normal -0.707106781186548 -0.707106781186547 -6.46044000827983e-016
  outer loop
    vertex 77.8284736536565 75.3511747575189 1.75171484848492
    vertex 80.0993309751159 73.0803174360594 8.75857424242431
    vertex 77.8284736536565 75.3511747575189 8.75857424242431
  endloop
endfacet
facet normal -0.707106781186548 -0.707106781186547 -6.46044000827983e-016
  outer loop
    vertex 80.0993309751159 73.0803174360594 8.75857424242431
    vertex 77.8284736536565 75.3511747575189 1.75171484848492
    vertex 80.0993309751159 73.0803174360594 1.75171484848492
  endloop
endfacet
facet normal 0.707106781186547 -0.707106781186548 -1.15943883654965e-015
  outer loop
    vertex 80.0993309751159 73.0803174360594 8.75857424242431
    vertex 82.5766298712535 75.557616332197 1.75171484848492
    vertex 82.5766298712535 75.557616332197 8.75857424242431
  endloop
endfacet
facet normal 0.707106781186547 -0.707106781186548 -1.15943883654965e-015
  outer loop
    vertex 82.5766298712535 75.557616332197 1.75171484848492
    vertex 80.0993309751159 73.0803174360594 8.75857424242431
    vertex 80.0993309751159 73.0803174360594 1.75171484848492
  endloop
endfacet
facet normal 3.46339023973672e-018 -7.98848092519512e-016 1.0
  outer loop
    vertex 124.277827956237 -5.78036409098769 1.75171484848484
    vertex 129.232425748512 1.65153259742513 1.75171484848485
    vertex 123.039178508168 -4.54171464291889 1.75171484848485
  endloop
endfacet
facet normal 3.46339023973672e-018 -7.98848092519512e-016 1.0
  outer loop
    vertex 129.232425748512 1.65153259742513 1.75171484848485
    vertex 124.277827956237 -5.78036409098769 1.75171484848484
    vertex 130.471075196581 0.412883149356315 1.75171484848485
  endloop
endfacet
facet normal 3.46339023973672e-018 -7.98848092519512e-016 1.0
  outer loop
    vertex 80.9250972738284 -49.1330947733958 1.75171484848481
    vertex 85.8796950661036 -41.701198084983 1.75171484848482
    vertex 79.6864478257596 -47.894445325327 1.75171484848481
  endloop
endfacet
facet normal 3.46339023973672e-018 -7.98848092519512e-016 1.0
  outer loop
    vertex 85.8796950661036 -41.701198084983 1.75171484848482
    vertex 80.9250972738284 -49.1330947733958 1.75171484848481
    vertex 87.1183445141724 -42.9398475330518 1.75171484848482
  endloop
endfacet
facet normal 3.46339023973672e-018 -7.98848092519512e-016 1.0
  outer loop
    vertex 17.1346506982851 14.6573518021475 1.75171484848486
    vertex 22.0892484905603 22.0892484905604 1.75171484848486
    vertex 15.8960012502163 15.8960012502164 1.75171484848486
  endloop
endfacet
facet normal 3.46339023973672e-018 -7.98848092519512e-016 1.0
  outer loop
    vertex 22.0892484905603 22.0892484905604 1.75171484848486
    vertex 17.1346506982851 14.6573518021475 1.75171484848486
    vertex 23.3278979386291 20.8505990424916 1.75171484848485
  endloop
endfacet
facet normal 3.46339023973672e-018 -7.98848092519512e-016 1.0
  outer loop
    vertex 60.4873813806932 58.0100824845557 1.7517148484849
    vertex 65.4419791729684 65.4419791729685 1.7517148484849
    vertex 59.2487319326244 59.2487319326245 1.7517148484849
  endloop
endfacet
facet normal 3.46339023973672e-018 -7.98848092519512e-016 1.0
  outer loop
    vertex 65.4419791729684 65.4419791729685 1.7517148484849
    vertex 60.4873813806932 58.0100824845557 1.7517148484849
    vertex 66.6806286210372 64.2033297248997 1.7517148484849
  endloop
endfacet
facet normal 5.73983619128805e-018 -7.97336178574687e-016 1.0
  outer loop
    vertex 2.27085732145947 -0.206441574678096 8.75857424242425
    vertex 4.54171464291894 2.47729889613765 8.75857424242425
    vertex 2.06441574678133 4.51194637207664e-014 8.75857424242425
  endloop
endfacet
facet normal 5.73983619128805e-018 -7.97336178574687e-016 1.0
  outer loop
    vertex 4.54171464291894 2.47729889613765 8.75857424242425
    vertex 2.27085732145947 -0.206441574678096 8.75857424242425
    vertex 4.74815621759708 2.27085732145951 8.75857424242425
  endloop
endfacet
facet normal 5.73983619128805e-018 -7.97336178574687e-016 1.0
  outer loop
    vertex 4.74815621759708 2.27085732145951 8.75857424242425
    vertex 2.27085732145947 -0.206441574678096 8.75857424242425
    vertex 2.47729889613761 4.51194637207664e-014 8.75857424242425
  endloop
endfacet
facet normal 5.73983619128805e-018 -7.97336178574687e-016 1.0
  outer loop
    vertex 4.74815621759708 2.27085732145951 8.75857424242425
    vertex 2.47729889613761 4.51194637207664e-014 8.75857424242425
    vertex 4.95459779227521 -2.47729889613755 8.75857424242425
  endloop
endfacet
facet normal 5.73983619128805e-018 -7.97336178574687e-016 1.0
  outer loop
    vertex 4.74815621759708 2.27085732145951 8.75857424242425
    vertex 4.95459779227521 -2.47729889613755 8.75857424242425
    vertex 4.95459779227522 2.47729889613764 8.75857424242425
  endloop
endfacet
facet normal 5.73983619128805e-018 -7.97336178574687e-016 1.0
  outer loop
    vertex 4.95459779227522 2.47729889613764 8.75857424242425
    vertex 4.95459779227521 -2.47729889613755 8.75857424242425
    vertex 7.43189668841282 3.38395977905748e-014 8.75857424242425
  endloop
endfacet
facet normal 0.707106781186548 0.707106781186547 5.62421916634073e-016
  outer loop
    vertex 2.27085732145947 -0.206441574678096 1.75171484848485
    vertex 2.06441574678133 4.51194637207664e-014 8.75857424242425
    vertex 2.27085732145947 -0.206441574678096 8.75857424242425
  endloop
endfacet
facet normal 0.707106781186548 0.707106781186547 5.62421916634073e-016
  outer loop
    vertex 2.06441574678133 4.51194637207664e-014 8.75857424242425
    vertex 2.27085732145947 -0.206441574678096 1.75171484848485
    vertex 2.06441574678133 4.51194637207664e-014 1.75171484848485
  endloop
endfacet
facet normal 0.707106781186547 -0.707106781186548 -5.67319890082899e-016
  outer loop
    vertex 2.06441574678133 4.51194637207664e-014 8.75857424242425
    vertex 4.54171464291894 2.47729889613765 1.75171484848485
    vertex 4.54171464291894 2.47729889613765 8.75857424242425
  endloop
endfacet
facet normal 0.707106781186547 -0.707106781186548 -5.67319890082899e-016
  outer loop
    vertex 4.54171464291894 2.47729889613765 1.75171484848485
    vertex 2.06441574678133 4.51194637207664e-014 8.75857424242425
    vertex 2.06441574678133 4.51194637207664e-014 1.75171484848485
  endloop
endfacet
facet normal -0.707106781186548 -0.707106781186547 -5.62421916634073e-016
  outer loop
    vertex 107.659281194647 45.5203672165285 1.75171484848489
    vertex 110.136580090784 43.0430683203909 8.75857424242428
    vertex 107.659281194647 45.5203672165285 8.75857424242428
  endloop
endfacet
facet normal -0.707106781186548 -0.707106781186547 -5.62421916634073e-016
  outer loop
    vertex 110.136580090784 43.0430683203909 8.75857424242428
    vertex 107.659281194647 45.5203672165285 1.75171484848489
    vertex 110.136580090784 43.0430683203909 1.75171484848489
  endloop
endfacet
facet normal 0.707106781186547 -0.707106781186548 -5.67319890082899e-016
  outer loop
    vertex 110.136580090784 43.0430683203909 8.75857424242428
    vertex 112.613878986922 45.5203672165285 1.75171484848489
    vertex 112.613878986922 45.5203672165285 8.75857424242428
  endloop
endfacet
facet normal 0.707106781186547 -0.707106781186548 -5.67319890082899e-016
  outer loop
    vertex 112.613878986922 45.5203672165285 1.75171484848489
    vertex 110.136580090784 43.0430683203909 8.75857424242428
    vertex 110.136580090784 43.0430683203909 1.75171484848489
  endloop
endfacet
facet normal -0.707106781186547 0.707106781186548 5.67319890082899e-016
  outer loop
    vertex 107.659281194647 45.5203672165285 1.75171484848489
    vertex 110.136580090784 47.9976661126662 8.75857424242428
    vertex 110.136580090784 47.9976661126662 1.7517148484849
  endloop
endfacet
facet normal -0.707106781186547 0.707106781186548 5.67319890082899e-016
  outer loop
    vertex 110.136580090784 47.9976661126662 8.75857424242428
    vertex 107.659281194647 45.5203672165285 1.75171484848489
    vertex 107.659281194647 45.5203672165285 8.75857424242428
  endloop
endfacet
facet normal -0.707106781186548 -0.707106781186547 -5.62421916634073e-016
  outer loop
    vertex 82.5766298712535 75.557616332197 8.75857424242431
    vertex 110.136580090784 47.9976661126662 1.7517148484849
    vertex 110.136580090784 47.9976661126662 8.75857424242428
  endloop
endfacet
facet normal -0.707106781186548 -0.707106781186547 -5.62421916634073e-016
  outer loop
    vertex 110.136580090784 47.9976661126662 1.7517148484849
    vertex 82.5766298712535 75.557616332197 8.75857424242431
    vertex 82.5766298712535 75.557616332197 1.75171484848492
  endloop
endfacet
facet normal 0.707106781186548 0.707106781186547 5.62421916634073e-016
  outer loop
    vertex 143.889777550659 21.6763653412041 1.75171484848487
    vertex 86.29257821546 79.2735646764034 8.75857424242431
    vertex 143.889777550659 21.6763653412041 8.75857424242426
  endloop
endfacet
facet normal 0.707106781186548 0.707106781186547 5.62421916634073e-016
  outer loop
    vertex 86.29257821546 79.2735646764034 8.75857424242431
    vertex 143.889777550659 21.6763653412041 1.75171484848487
    vertex 86.29257821546 79.2735646764034 1.75171484848491
  endloop
endfacet
facet normal 0.707106781186547 -0.707106781186548 -5.67319890082899e-016
  outer loop
    vertex 142.857569677269 20.6441574678134 8.75857424242426
    vertex 143.889777550659 21.6763653412041 1.75171484848487
    vertex 143.889777550659 21.6763653412041 8.75857424242426
  endloop
endfacet
facet normal 0.707106781186547 -0.707106781186548 -5.67319890082899e-016
  outer loop
    vertex 143.889777550659 21.6763653412041 1.75171484848487
    vertex 142.857569677269 20.6441574678134 8.75857424242426
    vertex 142.857569677269 20.6441574678134 1.75171484848487
  endloop
endfacet
facet normal -3.46339023973672e-018 7.98848092519512e-016 -1.0
  outer loop
    vertex 143.889777550659 21.6763653412041 1.75171484848487
    vertex 85.2603703420693 78.2413568030128 1.75171484848491
    vertex 86.29257821546 79.2735646764034 1.75171484848491
  endloop
endfacet
facet normal -3.46339023973672e-018 7.98848092519512e-016 -1.0
  outer loop
    vertex 85.2603703420693 78.2413568030128 1.75171484848491
    vertex 143.889777550659 21.6763653412041 1.75171484848487
    vertex 142.857569677269 20.6441574678134 1.75171484848487
  endloop
endfacet
facet normal -0.707106781186547 0.707106781186548 5.67319890082899e-016
  outer loop
    vertex 85.2603703420693 78.2413568030128 1.75171484848491
    vertex 86.29257821546 79.2735646764034 8.75857424242431
    vertex 86.29257821546 79.2735646764034 1.75171484848491
  endloop
endfacet
facet normal -0.707106781186547 0.707106781186548 5.67319890082899e-016
  outer loop
    vertex 86.29257821546 79.2735646764034 8.75857424242431
    vertex 85.2603703420693 78.2413568030128 1.75171484848491
    vertex 85.2603703420693 78.2413568030127 8.75857424242431
  endloop
endfacet
facet normal -0.707106781186548 -0.707106781186547 -5.62421916634073e-016
  outer loop
    vertex 100.743488442929 -21.8828069158821 1.75171484848483
    vertex 103.220787339067 -24.3601058120197 8.75857424242423
    vertex 100.743488442929 -21.8828069158821 8.75857424242423
  endloop
endfacet
facet normal -0.707106781186548 -0.707106781186547 -5.62421916634073e-016
  outer loop
    vertex 103.220787339067 -24.3601058120197 8.75857424242423
    vertex 100.743488442929 -21.8828069158821 1.75171484848483
    vertex 103.220787339067 -24.3601058120197 1.75171484848483
  endloop
endfacet
facet normal -3.46339023973672e-018 7.98848092519512e-016 -1.0
  outer loop
    vertex 105.698086235204 -21.8828069158821 1.75171484848483
    vertex 100.743488442929 -21.8828069158821 1.75171484848483
    vertex 103.220787339067 -19.4055080197445 1.75171484848483
  endloop
endfacet
facet normal -3.46339023973672e-018 7.98848092519512e-016 -1.0
  outer loop
    vertex 100.743488442929 -21.8828069158821 1.75171484848483
    vertex 105.698086235204 -21.8828069158821 1.75171484848483
    vertex 103.220787339067 -24.3601058120197 1.75171484848483
  endloop
endfacet
facet normal 0.707106781186548 0.707106781186547 5.62421916634073e-016
  outer loop
    vertex 105.698086235204 -21.8828069158821 1.75171484848483
    vertex 103.220787339067 -19.4055080197445 8.75857424242423
    vertex 105.698086235204 -21.8828069158821 8.75857424242423
  endloop
endfacet
facet normal 0.707106781186548 0.707106781186547 5.62421916634073e-016
  outer loop
    vertex 103.220787339067 -19.4055080197445 8.75857424242423
    vertex 105.698086235204 -21.8828069158821 1.75171484848483
    vertex 103.220787339067 -19.4055080197445 1.75171484848483
  endloop
endfacet
facet normal -0.707106781186548 -0.707106781186547 -5.62421916634073e-016
  outer loop
    vertex 40.4625486369142 38.3981328901329 1.75171484848488
    vertex 40.6689902115924 38.1916913154548 8.75857424242428
    vertex 40.4625486369142 38.3981328901329 8.75857424242428
  endloop
endfacet
facet normal -0.707106781186548 -0.707106781186547 -5.62421916634073e-016
  outer loop
    vertex 40.6689902115924 38.1916913154548 8.75857424242428
    vertex 40.4625486369142 38.3981328901329 1.75171484848488
    vertex 40.6689902115924 38.1916913154548 1.75171484848488
  endloop
endfacet
facet normal 0.707106781186548 0.707106781186547 5.62421916634073e-016
  outer loop
    vertex 4.74815621759708 2.27085732145951 8.75857424242425
    vertex 4.54171464291894 2.47729889613765 1.75171484848485
    vertex 4.54171464291894 2.47729889613765 8.75857424242425
  endloop
endfacet
facet normal 0.707106781186548 0.707106781186547 5.62421916634073e-016
  outer loop
    vertex 4.54171464291894 2.47729889613765 1.75171484848485
    vertex 4.74815621759708 2.27085732145951 8.75857424242425
    vertex 4.74815621759708 2.27085732145951 1.75171484848485
  endloop
endfacet
facet normal -3.46339023973672e-018 7.98848092519512e-016 -1.0
  outer loop
    vertex 4.74815621759708 2.27085732145951 1.75171484848485
    vertex 2.06441574678133 4.51194637207664e-014 1.75171484848485
    vertex 4.54171464291894 2.47729889613765 1.75171484848485
  endloop
endfacet
facet normal -3.46339023973672e-018 7.98848092519512e-016 -1.0
  outer loop
    vertex 2.06441574678133 4.51194637207664e-014 1.75171484848485
    vertex 4.74815621759708 2.27085732145951 1.75171484848485
    vertex 2.27085732145947 -0.206441574678096 1.75171484848485
  endloop
endfacet
facet normal -3.46339023973672e-018 7.98848092519512e-016 -1.0
  outer loop
    vertex 2.27085732145947 -0.206441574678096 1.75171484848485
    vertex 4.74815621759708 2.27085732145951 1.75171484848485
    vertex 2.47729889613761 4.51194637207664e-014 1.75171484848485
  endloop
endfacet
facet normal 0.707106781186548 0.707106781186547 5.62421916634073e-016
  outer loop
    vertex 43.14628910773 40.6689902115924 8.75857424242428
    vertex 42.9398475330518 40.8754317862705 1.75171484848488
    vertex 42.9398475330518 40.8754317862705 8.75857424242428
  endloop
endfacet
facet normal 0.707106781186548 0.707106781186547 5.62421916634073e-016
  outer loop
    vertex 42.9398475330518 40.8754317862705 1.75171484848488
    vertex 43.14628910773 40.6689902115924 8.75857424242428
    vertex 43.14628910773 40.6689902115924 1.75171484848488
  endloop
endfacet
facet normal -3.46339023973672e-018 7.98848092519512e-016 -1.0
  outer loop
    vertex 43.14628910773 40.6689902115924 1.75171484848488
    vertex 40.4625486369142 38.3981328901329 1.75171484848488
    vertex 42.9398475330518 40.8754317862705 1.75171484848488
  endloop
endfacet
facet normal -3.46339023973672e-018 7.98848092519512e-016 -1.0
  outer loop
    vertex 40.4625486369142 38.3981328901329 1.75171484848488
    vertex 43.14628910773 40.6689902115924 1.75171484848488
    vertex 40.6689902115924 38.1916913154548 1.75171484848488
  endloop
endfacet
facet normal -0.707106781186547 0.707106781186548 5.67319890082899e-016
  outer loop
    vertex 100.743488442929 -21.8828069158821 1.75171484848483
    vertex 103.220787339067 -19.4055080197445 8.75857424242423
    vertex 103.220787339067 -19.4055080197445 1.75171484848483
  endloop
endfacet
facet normal -0.707106781186547 0.707106781186548 5.67319890082899e-016
  outer loop
    vertex 103.220787339067 -19.4055080197445 8.75857424242423
    vertex 100.743488442929 -21.8828069158821 1.75171484848483
    vertex 100.743488442929 -21.8828069158821 8.75857424242423
  endloop
endfacet
facet normal -6.65110537088956e-018 8.23741364813148e-016 -1.0
  outer loop
    vertex 81.750863572541 81.7508635725411 6.48592290986016e-014
    vertex 81.5444219978629 79.0671231017253 6.20392626160537e-014
    vertex -2.25597318603832e-014 6.76791955811495e-014 0.0
  endloop
endfacet
facet normal -6.65110537088956e-018 8.23741364813148e-016 -1.0
  outer loop
    vertex 81.5444219978629 79.0671231017253 6.20392626160537e-014
    vertex 81.750863572541 81.7508635725411 6.48592290986016e-014
    vertex 146.779959596153 16.7217675489289 1.26898491714655e-014
  endloop
endfacet
facet normal -6.65110537088956e-018 8.23741364813148e-016 -1.0
  outer loop
    vertex 81.5444219978629 79.0671231017253 6.20392626160537e-014
    vertex 146.779959596153 16.7217675489289 1.26898491714655e-014
    vertex 144.096219125337 16.5153259742508 1.26898491714655e-014
  endloop
endfacet
facet normal -6.65110537088956e-018 8.23741364813148e-016 -1.0
  outer loop
    vertex 144.096219125337 16.5153259742508 1.26898491714655e-014
    vertex 146.779959596153 16.7217675489289 1.26898491714655e-014
    vertex 65.0290960236121 -62.5517971274745 -5.07593966858622e-014
  endloop
endfacet
facet normal -6.65110537088956e-018 8.23741364813148e-016 -1.0
  outer loop
    vertex -2.25597318603832e-014 6.76791955811495e-014 0.0
    vertex 2.47729889613761 5.6399329650958e-014 1.40998324127395e-015
    vertex 65.0290960236121 -65.0290960236121 -5.21693799271361e-014
  endloop
endfacet
facet normal -6.65110537088956e-018 8.23741364813148e-016 -1.0
  outer loop
    vertex 2.47729889613761 5.6399329650958e-014 1.40998324127395e-015
    vertex -2.25597318603832e-014 6.76791955811495e-014 0.0
    vertex 81.5444219978629 79.0671231017253 6.20392626160537e-014
  endloop
endfacet
facet normal -6.65110537088956e-018 8.23741364813148e-016 -1.0
  outer loop
    vertex 65.0290960236121 -65.0290960236121 -5.21693799271361e-014
    vertex 2.47729889613761 5.6399329650958e-014 1.40998324127395e-015
    vertex 65.0290960236121 -62.5517971274745 -5.07593966858622e-014
  endloop
endfacet
facet normal -6.65110537088956e-018 8.23741364813148e-016 -1.0
  outer loop
    vertex 65.0290960236121 -65.0290960236121 -5.21693799271361e-014
    vertex 65.0290960236121 -62.5517971274745 -5.07593966858622e-014
    vertex 146.779959596153 16.7217675489289 1.26898491714655e-014
  endloop
endfacet
facet normal -2.40379928210323e-016 6.22027100271303e-016 -1.0
  outer loop
    vertex 81.5444219978629 79.0671231017253 1.75171484848492
    vertex 82.5766298712535 75.557616332197 1.75171484848492
    vertex 77.8284736536565 75.3511747575189 1.75171484848492
  endloop
endfacet
facet normal -2.40379928210323e-016 6.22027100271303e-016 -1.0
  outer loop
    vertex 82.5766298712535 75.557616332197 1.75171484848492
    vertex 81.5444219978629 79.0671231017253 1.75171484848492
    vertex 144.096219125337 16.5153259742508 1.75171484848487
  endloop
endfacet
facet normal -2.40379928210323e-016 6.22027100271303e-016 -1.0
  outer loop
    vertex 82.5766298712535 75.557616332197 1.75171484848492
    vertex 144.096219125337 16.5153259742508 1.75171484848487
    vertex 110.136580090784 47.9976661126662 1.7517148484849
  endloop
endfacet
facet normal -2.40379928210323e-016 6.22027100271303e-016 -1.0
  outer loop
    vertex 110.136580090784 47.9976661126662 1.7517148484849
    vertex 144.096219125337 16.5153259742508 1.75171484848487
    vertex 112.613878986922 45.5203672165285 1.75171484848489
  endloop
endfacet
facet normal -2.40379928210323e-016 6.22027100271303e-016 -1.0
  outer loop
    vertex 110.136580090784 47.9976661126662 1.7517148484849
    vertex 112.613878986922 45.5203672165285 1.75171484848489
    vertex 107.659281194647 45.5203672165285 1.75171484848489
  endloop
endfacet
facet normal -2.40379928210323e-016 6.22027100271303e-016 -1.0
  outer loop
    vertex 112.613878986922 45.5203672165285 1.75171484848489
    vertex 144.096219125337 16.5153259742508 1.75171484848487
    vertex 140.173829206453 17.9604169969977 1.75171484848487
  endloop
endfacet
facet normal -2.40379928210323e-016 6.22027100271303e-016 -1.0
  outer loop
    vertex 140.173829206453 17.9604169969977 1.75171484848487
    vertex 144.096219125337 16.5153259742508 1.75171484848487
    vertex 137.696530310315 15.4831181008601 1.75171484848487
  endloop
endfacet
facet normal -2.40379928210323e-016 6.22027100271303e-016 -1.0
  outer loop
    vertex 137.696530310315 15.4831181008601 1.75171484848487
    vertex 144.096219125337 16.5153259742508 1.75171484848487
    vertex 140.380270781131 12.7993776300443 1.75171484848487
  endloop
endfacet
facet normal -2.40379928210323e-016 6.22027100271303e-016 -1.0
  outer loop
    vertex 110.136580090784 43.0430683203909 1.75171484848489
    vertex 107.659281194647 45.5203672165285 1.75171484848489
    vertex 112.613878986922 45.5203672165285 1.75171484848489
  endloop
endfacet
facet normal -2.40379928210323e-016 6.22027100271303e-016 -1.0
  outer loop
    vertex 80.0993309751159 73.0803174360594 1.75171484848492
    vertex 77.8284736536565 75.3511747575189 1.75171484848492
    vertex 82.5766298712535 75.557616332197 1.75171484848492
  endloop
endfacet
facet normal 0.707106781186547 -0.707106781186548 -6.55585703413585e-016
  outer loop
    vertex 77.8284736536565 75.3511747575189 8.75857424242431
    vertex 66.6806286210372 64.2033297248996 6.4229544444445
    vertex 77.8284736536565 75.3511747575189 1.75171484848492
  endloop
endfacet
facet normal 0.707106781186547 -0.707106781186548 -6.55585703413585e-016
  outer loop
    vertex 66.6806286210372 64.2033297248996 6.4229544444445
    vertex 77.8284736536565 75.3511747575189 8.75857424242431
    vertex 43.14628910773 40.6689902115924 8.75857424242428
  endloop
endfacet
facet normal 0.707106781186547 -0.707106781186548 -6.55585703413585e-016
  outer loop
    vertex 66.6806286210372 64.2033297248996 6.4229544444445
    vertex 43.14628910773 40.6689902115924 8.75857424242428
    vertex 60.4873813806932 58.0100824845556 6.42295444444449
  endloop
endfacet
facet normal 0.707106781186547 -0.707106781186548 -6.55585703413585e-016
  outer loop
    vertex 60.4873813806932 58.0100824845556 6.42295444444449
    vertex 43.14628910773 40.6689902115924 8.75857424242428
    vertex 60.4873813806932 58.0100824845557 1.7517148484849
  endloop
endfacet
facet normal 0.707106781186547 -0.707106781186548 -6.55585703413585e-016
  outer loop
    vertex 40.6689902115924 38.1916913154548 8.75857424242428
    vertex 23.3278979386291 20.8505990424916 6.42295444444445
    vertex 40.6689902115924 38.1916913154548 1.75171484848488
  endloop
endfacet
facet normal 0.707106781186547 -0.707106781186548 -6.55585703413585e-016
  outer loop
    vertex 23.3278979386291 20.8505990424916 6.42295444444445
    vertex 40.6689902115924 38.1916913154548 8.75857424242428
    vertex 4.95459779227522 2.47729889613764 8.75857424242425
  endloop
endfacet
facet normal 0.707106781186547 -0.707106781186548 -6.55585703413585e-016
  outer loop
    vertex 23.3278979386291 20.8505990424916 6.42295444444445
    vertex 4.95459779227522 2.47729889613764 8.75857424242425
    vertex 17.1346506982851 14.6573518021475 6.42295444444446
  endloop
endfacet
facet normal 0.707106781186547 -0.707106781186548 -6.55585703413585e-016
  outer loop
    vertex 17.1346506982851 14.6573518021475 6.42295444444446
    vertex 4.95459779227522 2.47729889613764 8.75857424242425
    vertex 17.1346506982851 14.6573518021475 1.75171484848486
  endloop
endfacet
facet normal 0.707106781186547 -0.707106781186548 -6.55585703413585e-016
  outer loop
    vertex 77.8284736536565 75.3511747575189 1.75171484848492
    vertex 81.5444219978629 79.0671231017253 6.20392626160537e-014
    vertex 81.5444219978629 79.0671231017253 1.75171484848492
  endloop
endfacet
facet normal 0.707106781186547 -0.707106781186548 -6.55585703413585e-016
  outer loop
    vertex 81.5444219978629 79.0671231017253 6.20392626160537e-014
    vertex 77.8284736536565 75.3511747575189 1.75171484848492
    vertex 2.47729889613761 5.6399329650958e-014 1.40998324127395e-015
  endloop
endfacet
facet normal 0.707106781186547 -0.707106781186548 -6.55585703413585e-016
  outer loop
    vertex 2.47729889613761 5.6399329650958e-014 1.40998324127395e-015
    vertex 77.8284736536565 75.3511747575189 1.75171484848492
    vertex 66.6806286210372 64.2033297248997 1.7517148484849
  endloop
endfacet
facet normal 0.707106781186547 -0.707106781186548 -6.55585703413585e-016
  outer loop
    vertex 66.6806286210372 64.2033297248997 1.7517148484849
    vertex 77.8284736536565 75.3511747575189 1.75171484848492
    vertex 66.6806286210372 64.2033297248996 6.4229544444445
  endloop
endfacet
facet normal 0.707106781186547 -0.707106781186548 -6.55585703413585e-016
  outer loop
    vertex 2.47729889613761 5.6399329650958e-014 1.40998324127395e-015
    vertex 66.6806286210372 64.2033297248997 1.7517148484849
    vertex 60.4873813806932 58.0100824845557 1.7517148484849
  endloop
endfacet
facet normal 0.707106781186547 -0.707106781186548 -6.55585703413585e-016
  outer loop
    vertex 2.47729889613761 5.6399329650958e-014 1.40998324127395e-015
    vertex 60.4873813806932 58.0100824845557 1.7517148484849
    vertex 43.14628910773 40.6689902115924 1.75171484848488
  endloop
endfacet
facet normal 0.707106781186547 -0.707106781186548 -6.55585703413585e-016
  outer loop
    vertex 43.14628910773 40.6689902115924 1.75171484848488
    vertex 60.4873813806932 58.0100824845557 1.7517148484849
    vertex 43.14628910773 40.6689902115924 8.75857424242428
  endloop
endfacet
facet normal 0.707106781186547 -0.707106781186548 -6.55585703413585e-016
  outer loop
    vertex 2.47729889613761 5.6399329650958e-014 1.40998324127395e-015
    vertex 43.14628910773 40.6689902115924 1.75171484848488
    vertex 40.6689902115924 38.1916913154548 1.75171484848488
  endloop
endfacet
facet normal 0.707106781186547 -0.707106781186548 -6.55585703413585e-016
  outer loop
    vertex 2.47729889613761 5.6399329650958e-014 1.40998324127395e-015
    vertex 40.6689902115924 38.1916913154548 1.75171484848488
    vertex 23.3278979386291 20.8505990424916 1.75171484848485
  endloop
endfacet
facet normal 0.707106781186547 -0.707106781186548 -6.55585703413585e-016
  outer loop
    vertex 23.3278979386291 20.8505990424916 1.75171484848485
    vertex 40.6689902115924 38.1916913154548 1.75171484848488
    vertex 23.3278979386291 20.8505990424916 6.42295444444445
  endloop
endfacet
facet normal 0.707106781186547 -0.707106781186548 -6.55585703413585e-016
  outer loop
    vertex 2.47729889613761 5.6399329650958e-014 1.40998324127395e-015
    vertex 23.3278979386291 20.8505990424916 1.75171484848485
    vertex 17.1346506982851 14.6573518021475 1.75171484848486
  endloop
endfacet
facet normal 0.707106781186547 -0.707106781186548 -6.55585703413585e-016
  outer loop
    vertex 2.47729889613761 5.6399329650958e-014 1.40998324127395e-015
    vertex 17.1346506982851 14.6573518021475 1.75171484848486
    vertex 4.95459779227522 2.47729889613764 1.75171484848485
  endloop
endfacet
facet normal 0.707106781186547 -0.707106781186548 -6.55585703413585e-016
  outer loop
    vertex 4.95459779227522 2.47729889613764 1.75171484848485
    vertex 17.1346506982851 14.6573518021475 1.75171484848486
    vertex 4.95459779227522 2.47729889613764 8.75857424242425
  endloop
endfacet
facet normal 0.707106781186547 -0.707106781186548 -6.55585703413585e-016
  outer loop
    vertex 2.47729889613761 5.6399329650958e-014 1.40998324127395e-015
    vertex 4.95459779227522 2.47729889613764 1.75171484848485
    vertex 4.74815621759708 2.27085732145951 1.75171484848485
  endloop
endfacet
facet normal 0.707106781186547 -0.707106781186548 -6.55585703413585e-016
  outer loop
    vertex 2.47729889613761 5.6399329650958e-014 1.40998324127395e-015
    vertex 4.74815621759708 2.27085732145951 1.75171484848485
    vertex 2.47729889613761 4.51194637207664e-014 1.75171484848485
  endloop
endfacet
facet normal -0.707106781186548 -0.707106781186547 -2.66362443400698e-016
  outer loop
    vertex 81.5444219978629 79.0671231017253 6.20392626160537e-014
    vertex 144.096219125337 16.5153259742508 1.75171484848487
    vertex 81.5444219978629 79.0671231017253 1.75171484848492
  endloop
endfacet
facet normal -0.707106781186548 -0.707106781186547 -2.66362443400698e-016
  outer loop
    vertex 144.096219125337 16.5153259742508 1.75171484848487
    vertex 81.5444219978629 79.0671231017253 6.20392626160537e-014
    vertex 144.096219125337 16.5153259742508 1.26898491714655e-014
  endloop
endfacet
facet normal -0.707106781186547 0.707106781186548 5.67319890082899e-016
  outer loop
    vertex 65.0290960236121 -62.5517971274745 -5.07593966858622e-014
    vertex 144.096219125337 16.5153259742508 1.75171484848487
    vertex 144.096219125337 16.5153259742508 1.26898491714655e-014
  endloop
endfacet
facet normal -0.707106781186547 0.707106781186548 5.67319890082899e-016
  outer loop
    vertex 144.096219125337 16.5153259742508 1.75171484848487
    vertex 65.0290960236121 -62.5517971274745 -5.07593966858622e-014
    vertex 140.380270781131 12.7993776300443 1.75171484848487
  endloop
endfacet
facet normal -0.707106781186547 0.707106781186548 5.67319890082899e-016
  outer loop
    vertex 140.380270781131 12.7993776300443 1.75171484848487
    vertex 65.0290960236121 -62.5517971274745 -5.07593966858622e-014
    vertex 129.232425748512 1.65153259742513 1.75171484848485
  endloop
endfacet
facet normal -0.707106781186547 0.707106781186548 5.67319890082899e-016
  outer loop
    vertex 140.380270781131 12.7993776300443 1.75171484848487
    vertex 129.232425748512 1.65153259742513 1.75171484848485
    vertex 140.380270781131 12.7993776300443 8.75857424242426
  endloop
endfacet
facet normal -0.707106781186547 0.707106781186548 5.67319890082899e-016
  outer loop
    vertex 129.232425748512 1.65153259742513 1.75171484848485
    vertex 65.0290960236121 -62.5517971274745 -5.07593966858622e-014
    vertex 123.039178508168 -4.54171464291889 1.75171484848485
  endloop
endfacet
facet normal -0.707106781186547 0.707106781186548 5.67319890082899e-016
  outer loop
    vertex 123.039178508168 -4.54171464291889 1.75171484848485
    vertex 65.0290960236121 -62.5517971274745 -5.07593966858622e-014
    vertex 105.698086235204 -21.8828069158821 1.75171484848483
  endloop
endfacet
facet normal -0.707106781186547 0.707106781186548 5.67319890082899e-016
  outer loop
    vertex 123.039178508168 -4.54171464291889 1.75171484848485
    vertex 105.698086235204 -21.8828069158821 1.75171484848483
    vertex 123.039178508168 -4.54171464291889 6.42295444444444
  endloop
endfacet
facet normal -0.707106781186547 0.707106781186548 5.67319890082899e-016
  outer loop
    vertex 105.698086235204 -21.8828069158821 1.75171484848483
    vertex 65.0290960236121 -62.5517971274745 -5.07593966858622e-014
    vertex 103.220787339067 -24.3601058120197 1.75171484848483
  endloop
endfacet
facet normal -0.707106781186547 0.707106781186548 5.67319890082899e-016
  outer loop
    vertex 103.220787339067 -24.3601058120197 1.75171484848483
    vertex 65.0290960236121 -62.5517971274745 -5.07593966858622e-014
    vertex 85.8796950661036 -41.701198084983 1.75171484848482
  endloop
endfacet
facet normal -0.707106781186547 0.707106781186548 5.67319890082899e-016
  outer loop
    vertex 103.220787339067 -24.3601058120197 1.75171484848483
    vertex 85.8796950661036 -41.701198084983 1.75171484848482
    vertex 103.220787339067 -24.3601058120197 8.75857424242423
  endloop
endfacet
facet normal -0.707106781186547 0.707106781186548 5.67319890082899e-016
  outer loop
    vertex 85.8796950661036 -41.701198084983 1.75171484848482
    vertex 65.0290960236121 -62.5517971274745 -5.07593966858622e-014
    vertex 79.6864478257596 -47.894445325327 1.75171484848481
  endloop
endfacet
facet normal -0.707106781186547 0.707106781186548 5.67319890082899e-016
  outer loop
    vertex 79.6864478257596 -47.894445325327 1.75171484848481
    vertex 65.0290960236121 -62.5517971274745 -5.07593966858622e-014
    vertex 79.6864478257596 -47.894445325327 6.42295444444441
  endloop
endfacet
facet normal -0.707106781186547 0.707106781186548 5.67319890082899e-016
  outer loop
    vertex 79.6864478257596 -47.894445325327 6.42295444444441
    vertex 65.0290960236121 -62.5517971274745 -5.07593966858622e-014
    vertex 67.5063949197497 -60.0744982313369 1.75171484848481
  endloop
endfacet
facet normal -0.707106781186547 0.707106781186548 5.67319890082899e-016
  outer loop
    vertex 67.5063949197497 -60.0744982313369 1.75171484848481
    vertex 65.0290960236121 -62.5517971274745 -5.07593966858622e-014
    vertex 67.2999533450716 -60.280939806015 1.75171484848481
  endloop
endfacet
facet normal -0.707106781186547 0.707106781186548 5.67319890082899e-016
  outer loop
    vertex 67.2999533450716 -60.280939806015 1.75171484848481
    vertex 65.0290960236121 -62.5517971274745 -5.07593966858622e-014
    vertex 65.0290960236121 -62.5517971274745 1.7517148484848
  endloop
endfacet
facet normal -0.707106781186547 0.707106781186548 5.67319890082899e-016
  outer loop
    vertex 103.220787339067 -24.3601058120197 8.75857424242423
    vertex 85.8796950661036 -41.701198084983 6.42295444444441
    vertex 67.5063949197497 -60.0744982313369 8.7585742424242
  endloop
endfacet
facet normal -0.707106781186547 0.707106781186548 5.67319890082899e-016
  outer loop
    vertex 85.8796950661036 -41.701198084983 6.42295444444441
    vertex 103.220787339067 -24.3601058120197 8.75857424242423
    vertex 85.8796950661036 -41.701198084983 1.75171484848482
  endloop
endfacet
facet normal -0.707106781186547 0.707106781186548 5.67319890082899e-016
  outer loop
    vertex 67.5063949197497 -60.0744982313369 8.7585742424242
    vertex 85.8796950661036 -41.701198084983 6.42295444444441
    vertex 79.6864478257596 -47.894445325327 6.42295444444441
  endloop
endfacet
facet normal -0.707106781186547 0.707106781186548 5.67319890082899e-016
  outer loop
    vertex 67.5063949197497 -60.0744982313369 8.7585742424242
    vertex 79.6864478257596 -47.894445325327 6.42295444444441
    vertex 67.5063949197497 -60.0744982313369 1.75171484848481
  endloop
endfacet
facet normal -0.707106781186547 0.707106781186548 5.67319890082899e-016
  outer loop
    vertex 140.380270781131 12.7993776300443 8.75857424242426
    vertex 129.232425748512 1.65153259742513 6.42295444444445
    vertex 105.698086235204 -21.8828069158821 8.75857424242423
  endloop
endfacet
facet normal -0.707106781186547 0.707106781186548 5.67319890082899e-016
  outer loop
    vertex 129.232425748512 1.65153259742513 6.42295444444445
    vertex 140.380270781131 12.7993776300443 8.75857424242426
    vertex 129.232425748512 1.65153259742513 1.75171484848485
  endloop
endfacet
facet normal -0.707106781186547 0.707106781186548 5.67319890082899e-016
  outer loop
    vertex 105.698086235204 -21.8828069158821 8.75857424242423
    vertex 129.232425748512 1.65153259742513 6.42295444444445
    vertex 123.039178508168 -4.54171464291889 6.42295444444444
  endloop
endfacet
facet normal -0.707106781186547 0.707106781186548 5.67319890082899e-016
  outer loop
    vertex 105.698086235204 -21.8828069158821 8.75857424242423
    vertex 123.039178508168 -4.54171464291889 6.42295444444444
    vertex 105.698086235204 -21.8828069158821 1.75171484848483
  endloop
endfacet
facet normal -0.707106781186548 -0.707106781186547 -5.62421916634073e-016
  outer loop
    vertex 112.613878986922 45.5203672165285 1.75171484848489
    vertex 140.173829206453 17.9604169969977 8.75857424242426
    vertex 112.613878986922 45.5203672165285 8.75857424242428
  endloop
endfacet
facet normal -0.707106781186548 -0.707106781186547 -5.62421916634073e-016
  outer loop
    vertex 140.173829206453 17.9604169969977 8.75857424242426
    vertex 112.613878986922 45.5203672165285 1.75171484848489
    vertex 140.173829206453 17.9604169969977 1.75171484848487
  endloop
endfacet
facet normal 3.46339023973672e-018 -7.98848092519512e-016 1.0
  outer loop
    vertex 110.136580090784 43.0430683203909 8.75857424242428
    vertex 110.136580090784 47.9976661126662 8.75857424242428
    vertex 107.659281194647 45.5203672165285 8.75857424242428
  endloop
endfacet
facet normal 3.46339023973672e-018 -7.98848092519512e-016 1.0
  outer loop
    vertex 110.136580090784 47.9976661126662 8.75857424242428
    vertex 110.136580090784 43.0430683203909 8.75857424242428
    vertex 112.613878986922 45.5203672165285 8.75857424242428
  endloop
endfacet
facet normal 0.707106781186548 0.707106781186547 5.62421916634073e-016
  outer loop
    vertex 65.0290960236121 -62.5517971274745 -5.07593966858622e-014
    vertex 62.5517971274745 -60.0744982313369 1.75171484848481
    vertex 65.0290960236121 -62.5517971274745 1.7517148484848
  endloop
endfacet
facet normal 0.707106781186548 0.707106781186547 5.62421916634073e-016
  outer loop
    vertex 62.5517971274745 -60.0744982313369 1.75171484848481
    vertex 65.0290960236121 -62.5517971274745 -5.07593966858622e-014
    vertex 34.7854053332655 -32.3081064371279 1.75171484848482
  endloop
endfacet
facet normal 0.707106781186548 0.707106781186547 5.62421916634073e-016
  outer loop
    vertex 34.7854053332655 -32.3081064371279 1.75171484848482
    vertex 65.0290960236121 -62.5517971274745 -5.07593966858622e-014
    vertex 32.3081064371279 -29.8308075409903 1.75171484848483
  endloop
endfacet
facet normal 0.707106781186548 0.707106781186547 5.62421916634073e-016
  outer loop
    vertex 32.3081064371279 -29.8308075409903 1.75171484848483
    vertex 65.0290960236121 -62.5517971274745 -5.07593966858622e-014
    vertex 4.95459779227521 -2.47729889613755 1.75171484848485
  endloop
endfacet
facet normal 0.707106781186548 0.707106781186547 5.62421916634073e-016
  outer loop
    vertex 4.95459779227521 -2.47729889613755 1.75171484848485
    vertex 65.0290960236121 -62.5517971274745 -5.07593966858622e-014
    vertex 2.47729889613761 4.51194637207664e-014 1.75171484848485
  endloop
endfacet
facet normal 0.707106781186548 0.707106781186547 5.62421916634073e-016
  outer loop
    vertex 2.47729889613761 4.51194637207664e-014 1.75171484848485
    vertex 65.0290960236121 -62.5517971274745 -5.07593966858622e-014
    vertex 2.47729889613761 5.6399329650958e-014 1.40998324127395e-015
  endloop
endfacet
facet normal 0.707106781186548 0.707106781186547 5.62421916634073e-016
  outer loop
    vertex 32.3081064371279 -29.8308075409903 8.75857424242422
    vertex 4.95459779227521 -2.47729889613755 1.75171484848485
    vertex 4.95459779227521 -2.47729889613755 8.75857424242425
  endloop
endfacet
facet normal 0.707106781186548 0.707106781186547 5.62421916634073e-016
  outer loop
    vertex 4.95459779227521 -2.47729889613755 1.75171484848485
    vertex 32.3081064371279 -29.8308075409903 8.75857424242422
    vertex 32.3081064371279 -29.8308075409903 1.75171484848483
  endloop
endfacet
facet normal 0.707106781186548 0.707106781186547 5.62421916634073e-016
  outer loop
    vertex 62.5517971274745 -60.0744982313369 8.7585742424242
    vertex 34.7854053332655 -32.3081064371279 1.75171484848482
    vertex 34.7854053332655 -32.3081064371279 8.75857424242422
  endloop
endfacet
facet normal 0.707106781186548 0.707106781186547 5.62421916634073e-016
  outer loop
    vertex 34.7854053332655 -32.3081064371279 1.75171484848482
    vertex 62.5517971274745 -60.0744982313369 8.7585742424242
    vertex 62.5517971274745 -60.0744982313369 1.75171484848481
  endloop
endfacet
facet normal 0.707106781186547 -0.707106781186548 -5.67319890082899e-016
  outer loop
    vertex 2.27085732145947 -0.206441574678096 8.75857424242425
    vertex 2.47729889613761 4.51194637207664e-014 1.75171484848485
    vertex 2.47729889613761 4.51194637207664e-014 8.75857424242425
  endloop
endfacet
facet normal 0.707106781186547 -0.707106781186548 -5.67319890082899e-016
  outer loop
    vertex 2.47729889613761 4.51194637207664e-014 1.75171484848485
    vertex 2.27085732145947 -0.206441574678096 8.75857424242425
    vertex 2.27085732145947 -0.206441574678096 1.75171484848485
  endloop
endfacet
facet normal 0.707106781186547 -0.707106781186548 -5.67319890082899e-016
  outer loop
    vertex 4.95459779227521 -2.47729889613755 8.75857424242425
    vertex 7.43189668841282 3.38395977905748e-014 1.75171484848485
    vertex 7.43189668841282 3.38395977905748e-014 8.75857424242425
  endloop
endfacet
facet normal 0.707106781186547 -0.707106781186548 -5.67319890082899e-016
  outer loop
    vertex 7.43189668841282 3.38395977905748e-014 1.75171484848485
    vertex 4.95459779227521 -2.47729889613755 8.75857424242425
    vertex 4.95459779227521 -2.47729889613755 1.75171484848485
  endloop
endfacet
facet normal -3.46339023973672e-018 7.98848092519512e-016 -1.0
  outer loop
    vertex 7.43189668841282 3.38395977905748e-014 1.75171484848485
    vertex 4.74815621759708 2.27085732145951 1.75171484848485
    vertex 4.95459779227522 2.47729889613764 1.75171484848485
  endloop
endfacet
facet normal -3.46339023973672e-018 7.98848092519512e-016 -1.0
  outer loop
    vertex 4.74815621759708 2.27085732145951 1.75171484848485
    vertex 7.43189668841282 3.38395977905748e-014 1.75171484848485
    vertex 2.47729889613761 4.51194637207664e-014 1.75171484848485
  endloop
endfacet
facet normal -3.46339023973672e-018 7.98848092519512e-016 -1.0
  outer loop
    vertex 2.47729889613761 4.51194637207664e-014 1.75171484848485
    vertex 7.43189668841282 3.38395977905748e-014 1.75171484848485
    vertex 4.95459779227521 -2.47729889613755 1.75171484848485
  endloop
endfacet
facet normal 0.707106781186548 0.707106781186547 5.62421916634073e-016
  outer loop
    vertex 4.95459779227521 -2.47729889613755 1.75171484848485
    vertex 2.47729889613761 4.51194637207664e-014 8.75857424242425
    vertex 4.95459779227521 -2.47729889613755 8.75857424242425
  endloop
endfacet
facet normal 0.707106781186548 0.707106781186547 5.62421916634073e-016
  outer loop
    vertex 2.47729889613761 4.51194637207664e-014 8.75857424242425
    vertex 4.95459779227521 -2.47729889613755 1.75171484848485
    vertex 2.47729889613761 4.51194637207664e-014 1.75171484848485
  endloop
endfacet
facet normal 0.707106781186548 0.707106781186547 5.62421916634073e-016
  outer loop
    vertex 7.43189668841282 3.38395977905748e-014 1.75171484848485
    vertex 4.95459779227522 2.47729889613764 8.75857424242425
    vertex 7.43189668841282 3.38395977905748e-014 8.75857424242425
  endloop
endfacet
facet normal 0.707106781186548 0.707106781186547 5.62421916634073e-016
  outer loop
    vertex 4.95459779227522 2.47729889613764 8.75857424242425
    vertex 7.43189668841282 3.38395977905748e-014 1.75171484848485
    vertex 4.95459779227522 2.47729889613764 1.75171484848485
  endloop
endfacet
facet normal 0.707106781186547 -0.707106781186548 -5.67319890082899e-016
  outer loop
    vertex 4.74815621759708 2.27085732145951 8.75857424242425
    vertex 4.95459779227522 2.47729889613764 1.75171484848485
    vertex 4.95459779227522 2.47729889613764 8.75857424242425
  endloop
endfacet
facet normal 0.707106781186547 -0.707106781186548 -5.67319890082899e-016
  outer loop
    vertex 4.95459779227522 2.47729889613764 1.75171484848485
    vertex 4.74815621759708 2.27085732145951 8.75857424242425
    vertex 4.74815621759708 2.27085732145951 1.75171484848485
  endloop
endfacet
facet normal 3.09256503692503e-017 -8.11797308673605e-016 1.0
  outer loop
    vertex 34.7854053332655 -32.3081064371279 8.75857424242422
    vertex 34.7854053332655 -27.3535086448527 8.75857424242422
    vertex 32.3081064371279 -29.8308075409903 8.75857424242422
  endloop
endfacet
facet normal 3.09256503692503e-017 -8.11797308673605e-016 1.0
  outer loop
    vertex 34.7854053332655 -27.3535086448527 8.75857424242422
    vertex 34.7854053332655 -32.3081064371279 8.75857424242422
    vertex 37.2627042294031 -29.8308075409903 8.75857424242422
  endloop
endfacet
facet normal -3.09256503692503e-017 8.11797308673605e-016 -1.0
  outer loop
    vertex 37.2627042294031 -29.8308075409903 1.75171484848483
    vertex 32.3081064371279 -29.8308075409903 1.75171484848483
    vertex 34.7854053332655 -27.3535086448527 1.75171484848483
  endloop
endfacet
facet normal -3.09256503692503e-017 8.11797308673605e-016 -1.0
  outer loop
    vertex 32.3081064371279 -29.8308075409903 1.75171484848483
    vertex 37.2627042294031 -29.8308075409903 1.75171484848483
    vertex 34.7854053332655 -32.3081064371279 1.75171484848482
  endloop
endfacet
facet normal -0.707106781186547 0.707106781186548 5.95895119000796e-016
  outer loop
    vertex 32.3081064371279 -29.8308075409903 1.75171484848483
    vertex 34.7854053332655 -27.3535086448527 8.75857424242422
    vertex 34.7854053332655 -27.3535086448527 1.75171484848483
  endloop
endfacet
facet normal -0.707106781186547 0.707106781186548 5.95895119000796e-016
  outer loop
    vertex 34.7854053332655 -27.3535086448527 8.75857424242422
    vertex 32.3081064371279 -29.8308075409903 1.75171484848483
    vertex 32.3081064371279 -29.8308075409903 8.75857424242422
  endloop
endfacet
facet normal 0.707106781186548 0.707106781186547 5.52159644823394e-016
  outer loop
    vertex 34.7854053332655 -32.3081064371279 8.75857424242422
    vertex 32.3081064371279 -29.8308075409903 1.75171484848483
    vertex 32.3081064371279 -29.8308075409903 8.75857424242422
  endloop
endfacet
facet normal 0.707106781186548 0.707106781186547 5.52159644823394e-016
  outer loop
    vertex 32.3081064371279 -29.8308075409903 1.75171484848483
    vertex 34.7854053332655 -32.3081064371279 8.75857424242422
    vertex 34.7854053332655 -32.3081064371279 1.75171484848482
  endloop
endfacet
facet normal 0.707106781186547 -0.707106781186548 -5.95895119000796e-016
  outer loop
    vertex 34.7854053332655 -32.3081064371279 8.75857424242422
    vertex 37.2627042294031 -29.8308075409903 1.75171484848483
    vertex 37.2627042294031 -29.8308075409903 8.75857424242422
  endloop
endfacet
facet normal 0.707106781186547 -0.707106781186548 -5.95895119000796e-016
  outer loop
    vertex 37.2627042294031 -29.8308075409903 1.75171484848483
    vertex 34.7854053332655 -32.3081064371279 8.75857424242422
    vertex 34.7854053332655 -32.3081064371279 1.75171484848482
  endloop
endfacet
facet normal 0.707106781186548 0.707106781186547 5.52159644823394e-016
  outer loop
    vertex 37.2627042294031 -29.8308075409903 8.75857424242422
    vertex 34.7854053332655 -27.3535086448527 1.75171484848483
    vertex 34.7854053332655 -27.3535086448527 8.75857424242422
  endloop
endfacet
facet normal 0.707106781186548 0.707106781186547 5.52159644823394e-016
  outer loop
    vertex 34.7854053332655 -27.3535086448527 1.75171484848483
    vertex 37.2627042294031 -29.8308075409903 8.75857424242422
    vertex 37.2627042294031 -29.8308075409903 1.75171484848483
  endloop
endfacet
facet normal 2.2586131741864e-016 7.78000391823296e-016 -1.0
  outer loop
    vertex 67.5063949197497 -60.0744982313369 1.75171484848481
    vertex 62.5517971274745 -60.0744982313369 1.75171484848481
    vertex 65.0290960236121 -57.5971993351993 1.75171484848481
  endloop
endfacet
facet normal 2.2586131741864e-016 7.78000391823296e-016 -1.0
  outer loop
    vertex 62.5517971274745 -60.0744982313369 1.75171484848481
    vertex 67.5063949197497 -60.0744982313369 1.75171484848481
    vertex 65.0290960236121 -62.5517971274745 1.7517148484848
  endloop
endfacet
facet normal 2.2586131741864e-016 7.78000391823296e-016 -1.0
  outer loop
    vertex 65.0290960236121 -62.5517971274745 1.7517148484848
    vertex 67.5063949197497 -60.0744982313369 1.75171484848481
    vertex 67.2999533450716 -60.280939806015 1.75171484848481
  endloop
endfacet
facet normal -0.707106781186547 0.707106781186548 5.67319890082899e-016
  outer loop
    vertex 65.0290960236121 -62.5517971274745 1.7517148484848
    vertex 67.2999533450716 -60.280939806015 8.7585742424242
    vertex 67.2999533450716 -60.280939806015 1.75171484848481
  endloop
endfacet
facet normal -0.707106781186547 0.707106781186548 5.67319890082899e-016
  outer loop
    vertex 67.2999533450716 -60.280939806015 8.7585742424242
    vertex 65.0290960236121 -62.5517971274745 1.7517148484848
    vertex 65.0290960236121 -62.5517971274745 8.7585742424242
  endloop
endfacet
facet normal 0.707106781186548 0.707106781186547 5.62421916634073e-016
  outer loop
    vertex 65.0290960236121 -62.5517971274745 1.7517148484848
    vertex 62.5517971274745 -60.0744982313369 8.7585742424242
    vertex 65.0290960236121 -62.5517971274745 8.7585742424242
  endloop
endfacet
facet normal 0.707106781186548 0.707106781186547 5.62421916634073e-016
  outer loop
    vertex 62.5517971274745 -60.0744982313369 8.7585742424242
    vertex 65.0290960236121 -62.5517971274745 1.7517148484848
    vertex 62.5517971274745 -60.0744982313369 1.75171484848481
  endloop
endfacet
facet normal -0.707106781186547 0.707106781186548 3.95636998835192e-016
  outer loop
    vertex 62.5517971274745 -60.0744982313369 1.75171484848481
    vertex 65.0290960236121 -57.5971993351993 8.7585742424242
    vertex 65.0290960236121 -57.5971993351993 1.75171484848481
  endloop
endfacet
facet normal -0.707106781186547 0.707106781186548 3.95636998835192e-016
  outer loop
    vertex 65.0290960236121 -57.5971993351993 8.7585742424242
    vertex 62.5517971274745 -60.0744982313369 1.75171484848481
    vertex 62.5517971274745 -60.0744982313369 8.7585742424242
  endloop
endfacet
facet normal 0.707106781186548 0.707106781186547 7.04109170881096e-016
  outer loop
    vertex 67.5063949197497 -60.0744982313369 1.75171484848481
    vertex 65.0290960236121 -57.5971993351993 8.7585742424242
    vertex 67.5063949197497 -60.0744982313369 8.7585742424242
  endloop
endfacet
facet normal 0.707106781186548 0.707106781186547 7.04109170881096e-016
  outer loop
    vertex 65.0290960236121 -57.5971993351993 8.7585742424242
    vertex 67.5063949197497 -60.0744982313369 1.75171484848481
    vertex 65.0290960236121 -57.5971993351993 1.75171484848481
  endloop
endfacet
facet normal -0.707106781186547 0.707106781186548 5.67319890082899e-016
  outer loop
    vertex 67.2999533450716 -60.280939806015 1.75171484848481
    vertex 67.5063949197497 -60.0744982313369 8.7585742424242
    vertex 67.5063949197497 -60.0744982313369 1.75171484848481
  endloop
endfacet
facet normal -0.707106781186547 0.707106781186548 5.67319890082899e-016
  outer loop
    vertex 67.5063949197497 -60.0744982313369 8.7585742424242
    vertex 67.2999533450716 -60.280939806015 1.75171484848481
    vertex 67.2999533450716 -60.280939806015 8.7585742424242
  endloop
endfacet
facet normal -2.18122764661002e-016 -7.7763797419032e-016 1.0
  outer loop
    vertex 65.0290960236121 -62.5517971274745 8.7585742424242
    vertex 65.0290960236121 -57.5971993351993 8.7585742424242
    vertex 62.5517971274745 -60.0744982313369 8.7585742424242
  endloop
endfacet
facet normal -2.18122764661002e-016 -7.7763797419032e-016 1.0
  outer loop
    vertex 65.0290960236121 -57.5971993351993 8.7585742424242
    vertex 65.0290960236121 -62.5517971274745 8.7585742424242
    vertex 67.5063949197497 -60.0744982313369 8.7585742424242
  endloop
endfacet
facet normal -2.18122764661002e-016 -7.7763797419032e-016 1.0
  outer loop
    vertex 67.5063949197497 -60.0744982313369 8.7585742424242
    vertex 65.0290960236121 -62.5517971274745 8.7585742424242
    vertex 67.2999533450716 -60.280939806015 8.7585742424242
  endloop
endfacet
facet normal 1.38004966430411e-017 -8.08027835636281e-016 1.0
  outer loop
    vertex -2.25597318603832e-014 5.6399329650958e-014 8.75857424242425
    vertex 2.06441574678133 4.51194637207664e-014 8.75857424242425
    vertex 81.750863572541 81.7508635725411 8.75857424242431
  endloop
endfacet
facet normal 1.38004966430411e-017 -8.08027835636281e-016 1.0
  outer loop
    vertex 2.06441574678133 4.51194637207664e-014 8.75857424242425
    vertex -2.25597318603832e-014 5.6399329650958e-014 8.75857424242425
    vertex 65.0290960236121 -65.0290960236121 8.7585742424242
  endloop
endfacet
facet normal 1.38004966430411e-017 -8.08027835636281e-016 1.0
  outer loop
    vertex 2.06441574678133 4.51194637207664e-014 8.75857424242425
    vertex 65.0290960236121 -65.0290960236121 8.7585742424242
    vertex 2.27085732145947 -0.206441574678096 8.75857424242425
  endloop
endfacet
facet normal 1.38004966430411e-017 -8.08027835636281e-016 1.0
  outer loop
    vertex 2.27085732145947 -0.206441574678096 8.75857424242425
    vertex 65.0290960236121 -65.0290960236121 8.7585742424242
    vertex 2.47729889613761 4.51194637207664e-014 8.75857424242425
  endloop
endfacet
facet normal 1.38004966430411e-017 -8.08027835636281e-016 1.0
  outer loop
    vertex 2.47729889613761 4.51194637207664e-014 8.75857424242425
    vertex 65.0290960236121 -65.0290960236121 8.7585742424242
    vertex 4.95459779227521 -2.47729889613755 8.75857424242425
  endloop
endfacet
facet normal 1.38004966430411e-017 -8.08027835636281e-016 1.0
  outer loop
    vertex 4.95459779227521 -2.47729889613755 8.75857424242425
    vertex 65.0290960236121 -65.0290960236121 8.7585742424242
    vertex 32.3081064371279 -29.8308075409903 8.75857424242422
  endloop
endfacet
facet normal 1.38004966430411e-017 -8.08027835636281e-016 1.0
  outer loop
    vertex 32.3081064371279 -29.8308075409903 8.75857424242422
    vertex 65.0290960236121 -65.0290960236121 8.7585742424242
    vertex 34.7854053332655 -32.3081064371279 8.75857424242422
  endloop
endfacet
facet normal 1.38004966430411e-017 -8.08027835636281e-016 1.0
  outer loop
    vertex 34.7854053332655 -32.3081064371279 8.75857424242422
    vertex 65.0290960236121 -65.0290960236121 8.7585742424242
    vertex 62.5517971274745 -60.0744982313369 8.7585742424242
  endloop
endfacet
facet normal 1.38004966430411e-017 -8.08027835636281e-016 1.0
  outer loop
    vertex 62.5517971274745 -60.0744982313369 8.7585742424242
    vertex 65.0290960236121 -65.0290960236121 8.7585742424242
    vertex 65.0290960236121 -62.5517971274745 8.7585742424242
  endloop
endfacet
facet normal 1.38004966430411e-017 -8.08027835636281e-016 1.0
  outer loop
    vertex 65.0290960236121 -62.5517971274745 8.7585742424242
    vertex 65.0290960236121 -65.0290960236121 8.7585742424242
    vertex 67.2999533450716 -60.280939806015 8.7585742424242
  endloop
endfacet
facet normal 1.38004966430411e-017 -8.08027835636281e-016 1.0
  outer loop
    vertex 67.2999533450716 -60.280939806015 8.7585742424242
    vertex 65.0290960236121 -65.0290960236121 8.7585742424242
    vertex 67.5063949197497 -60.0744982313369 8.7585742424242
  endloop
endfacet
facet normal 1.38004966430411e-017 -8.08027835636281e-016 1.0
  outer loop
    vertex 67.5063949197497 -60.0744982313369 8.7585742424242
    vertex 65.0290960236121 -65.0290960236121 8.7585742424242
    vertex 103.220787339067 -24.3601058120197 8.75857424242423
  endloop
endfacet
facet normal 1.38004966430411e-017 -8.08027835636281e-016 1.0
  outer loop
    vertex 103.220787339067 -24.3601058120197 8.75857424242423
    vertex 65.0290960236121 -65.0290960236121 8.7585742424242
    vertex 105.698086235204 -21.8828069158821 8.75857424242423
  endloop
endfacet
facet normal 1.38004966430411e-017 -8.08027835636281e-016 1.0
  outer loop
    vertex 105.698086235204 -21.8828069158821 8.75857424242423
    vertex 65.0290960236121 -65.0290960236121 8.7585742424242
    vertex 140.380270781131 12.7993776300443 8.75857424242426
  endloop
endfacet
facet normal 1.38004966430411e-017 -8.08027835636281e-016 1.0
  outer loop
    vertex 140.380270781131 12.7993776300443 8.75857424242426
    vertex 140.173829206453 17.9604169969977 8.75857424242426
    vertex 137.696530310315 15.4831181008601 8.75857424242426
  endloop
endfacet
facet normal 1.38004966430411e-017 -8.08027835636281e-016 1.0
  outer loop
    vertex 140.173829206453 17.9604169969977 8.75857424242426
    vertex 140.380270781131 12.7993776300443 8.75857424242426
    vertex 142.857569677269 20.6441574678134 8.75857424242426
  endloop
endfacet
facet normal 1.38004966430411e-017 -8.08027835636281e-016 1.0
  outer loop
    vertex 142.857569677269 20.6441574678134 8.75857424242426
    vertex 140.380270781131 12.7993776300443 8.75857424242426
    vertex 146.779959596153 16.7217675489289 8.75857424242426
  endloop
endfacet
facet normal 1.38004966430411e-017 -8.08027835636281e-016 1.0
  outer loop
    vertex 146.779959596153 16.7217675489289 8.75857424242426
    vertex 140.380270781131 12.7993776300443 8.75857424242426
    vertex 65.0290960236121 -65.0290960236121 8.7585742424242
  endloop
endfacet
facet normal 1.38004966430411e-017 -8.08027835636281e-016 1.0
  outer loop
    vertex 103.220787339067 -24.3601058120197 8.75857424242423
    vertex 103.220787339067 -19.4055080197445 8.75857424242423
    vertex 100.743488442929 -21.8828069158821 8.75857424242423
  endloop
endfacet
facet normal 1.38004966430411e-017 -8.08027835636281e-016 1.0
  outer loop
    vertex 103.220787339067 -19.4055080197445 8.75857424242423
    vertex 103.220787339067 -24.3601058120197 8.75857424242423
    vertex 105.698086235204 -21.8828069158821 8.75857424242423
  endloop
endfacet
facet normal 1.38004966430411e-017 -8.08027835636281e-016 1.0
  outer loop
    vertex 4.74815621759708 2.27085732145951 8.75857424242425
    vertex 40.4625486369142 38.3981328901329 8.75857424242428
    vertex 4.54171464291894 2.47729889613765 8.75857424242425
  endloop
endfacet
facet normal 1.38004966430411e-017 -8.08027835636281e-016 1.0
  outer loop
    vertex 40.4625486369142 38.3981328901329 8.75857424242428
    vertex 4.74815621759708 2.27085732145951 8.75857424242425
    vertex 40.6689902115924 38.1916913154548 8.75857424242428
  endloop
endfacet
facet normal 1.38004966430411e-017 -8.08027835636281e-016 1.0
  outer loop
    vertex 40.6689902115924 38.1916913154548 8.75857424242428
    vertex 4.74815621759708 2.27085732145951 8.75857424242425
    vertex 4.95459779227522 2.47729889613764 8.75857424242425
  endloop
endfacet
facet normal 1.38004966430411e-017 -8.08027835636281e-016 1.0
  outer loop
    vertex 81.750863572541 81.7508635725411 8.75857424242431
    vertex 77.8284736536565 75.3511747575189 8.75857424242431
    vertex 85.2603703420693 78.2413568030127 8.75857424242431
  endloop
endfacet
facet normal 1.38004966430411e-017 -8.08027835636281e-016 1.0
  outer loop
    vertex 77.8284736536565 75.3511747575189 8.75857424242431
    vertex 81.750863572541 81.7508635725411 8.75857424242431
    vertex 42.9398475330518 40.8754317862705 8.75857424242428
  endloop
endfacet
facet normal 1.38004966430411e-017 -8.08027835636281e-016 1.0
  outer loop
    vertex 42.9398475330518 40.8754317862705 8.75857424242428
    vertex 81.750863572541 81.7508635725411 8.75857424242431
    vertex 2.06441574678133 4.51194637207664e-014 8.75857424242425
  endloop
endfacet
facet normal 1.38004966430411e-017 -8.08027835636281e-016 1.0
  outer loop
    vertex 42.9398475330518 40.8754317862705 8.75857424242428
    vertex 2.06441574678133 4.51194637207664e-014 8.75857424242425
    vertex 4.54171464291894 2.47729889613765 8.75857424242425
  endloop
endfacet
facet normal 1.38004966430411e-017 -8.08027835636281e-016 1.0
  outer loop
    vertex 42.9398475330518 40.8754317862705 8.75857424242428
    vertex 4.54171464291894 2.47729889613765 8.75857424242425
    vertex 40.4625486369142 38.3981328901329 8.75857424242428
  endloop
endfacet
facet normal 1.38004966430411e-017 -8.08027835636281e-016 1.0
  outer loop
    vertex 77.8284736536565 75.3511747575189 8.75857424242431
    vertex 42.9398475330518 40.8754317862705 8.75857424242428
    vertex 43.14628910773 40.6689902115924 8.75857424242428
  endloop
endfacet
facet normal 1.38004966430411e-017 -8.08027835636281e-016 1.0
  outer loop
    vertex 85.2603703420693 78.2413568030127 8.75857424242431
    vertex 77.8284736536565 75.3511747575189 8.75857424242431
    vertex 80.0993309751159 73.0803174360594 8.75857424242431
  endloop
endfacet
facet normal 1.38004966430411e-017 -8.08027835636281e-016 1.0
  outer loop
    vertex 85.2603703420693 78.2413568030127 8.75857424242431
    vertex 80.0993309751159 73.0803174360594 8.75857424242431
    vertex 82.5766298712535 75.557616332197 8.75857424242431
  endloop
endfacet
facet normal -0.707106781186548 -0.707106781186547 -5.62421916634073e-016
  outer loop
    vertex -2.25597318603832e-014 5.6399329650958e-014 8.75857424242425
    vertex 65.0290960236121 -65.0290960236121 -5.21693799271361e-014
    vertex 65.0290960236121 -65.0290960236121 8.7585742424242
  endloop
endfacet
facet normal -0.707106781186548 -0.707106781186547 -5.62421916634073e-016
  outer loop
    vertex 65.0290960236121 -65.0290960236121 -5.21693799271361e-014
    vertex -2.25597318603832e-014 5.6399329650958e-014 8.75857424242425
    vertex -2.25597318603832e-014 6.76791955811495e-014 0.0
  endloop
endfacet
facet normal -0.707106781186547 0.707106781186548 5.67319890082899e-016
  outer loop
    vertex 137.696530310315 15.4831181008601 1.75171484848487
    vertex 140.173829206453 17.9604169969977 8.75857424242426
    vertex 140.173829206453 17.9604169969977 1.75171484848487
  endloop
endfacet
facet normal -0.707106781186547 0.707106781186548 5.67319890082899e-016
  outer loop
    vertex 140.173829206453 17.9604169969977 8.75857424242426
    vertex 137.696530310315 15.4831181008601 1.75171484848487
    vertex 137.696530310315 15.4831181008601 8.75857424242426
  endloop
endfacet
facet normal 0.707106781186548 0.707106781186547 5.62421916634073e-016
  outer loop
    vertex 146.779959596153 16.7217675489289 1.26898491714655e-014
    vertex 142.857569677269 20.6441574678134 8.75857424242426
    vertex 146.779959596153 16.7217675489289 8.75857424242426
  endloop
endfacet
facet normal 0.707106781186548 0.707106781186547 5.62421916634073e-016
  outer loop
    vertex 142.857569677269 20.6441574678134 8.75857424242426
    vertex 146.779959596153 16.7217675489289 1.26898491714655e-014
    vertex 142.857569677269 20.6441574678134 1.75171484848487
  endloop
endfacet
facet normal 0.707106781186548 0.707106781186547 5.62421916634073e-016
  outer loop
    vertex 142.857569677269 20.6441574678134 1.75171484848487
    vertex 146.779959596153 16.7217675489289 1.26898491714655e-014
    vertex 85.2603703420693 78.2413568030128 1.75171484848491
  endloop
endfacet
facet normal 0.707106781186548 0.707106781186547 5.62421916634073e-016
  outer loop
    vertex 85.2603703420693 78.2413568030128 1.75171484848491
    vertex 81.750863572541 81.7508635725411 8.75857424242431
    vertex 85.2603703420693 78.2413568030127 8.75857424242431
  endloop
endfacet
facet normal 0.707106781186548 0.707106781186547 5.62421916634073e-016
  outer loop
    vertex 81.750863572541 81.7508635725411 8.75857424242431
    vertex 85.2603703420693 78.2413568030128 1.75171484848491
    vertex 81.750863572541 81.7508635725411 6.48592290986016e-014
  endloop
endfacet
facet normal 0.707106781186548 0.707106781186547 5.62421916634073e-016
  outer loop
    vertex 81.750863572541 81.7508635725411 6.48592290986016e-014
    vertex 85.2603703420693 78.2413568030128 1.75171484848491
    vertex 146.779959596153 16.7217675489289 1.26898491714655e-014
  endloop
endfacet
facet normal 2.97412961355181e-017 -7.72570186623731e-016 1.0
  outer loop
    vertex 110.136580090784 47.9976661126662 8.75857424242428
    vertex 85.2603703420693 78.2413568030127 8.75857424242431
    vertex 82.5766298712535 75.557616332197 8.75857424242431
  endloop
endfacet
facet normal 2.97412961355181e-017 -7.72570186623731e-016 1.0
  outer loop
    vertex 85.2603703420693 78.2413568030127 8.75857424242431
    vertex 110.136580090784 47.9976661126662 8.75857424242428
    vertex 86.29257821546 79.2735646764034 8.75857424242431
  endloop
endfacet
facet normal 2.97412961355181e-017 -7.72570186623731e-016 1.0
  outer loop
    vertex 86.29257821546 79.2735646764034 8.75857424242431
    vertex 110.136580090784 47.9976661126662 8.75857424242428
    vertex 143.889777550659 21.6763653412041 8.75857424242426
  endloop
endfacet
facet normal 2.97412961355181e-017 -7.72570186623731e-016 1.0
  outer loop
    vertex 143.889777550659 21.6763653412041 8.75857424242426
    vertex 110.136580090784 47.9976661126662 8.75857424242428
    vertex 112.613878986922 45.5203672165285 8.75857424242428
  endloop
endfacet
facet normal 2.97412961355181e-017 -7.72570186623731e-016 1.0
  outer loop
    vertex 143.889777550659 21.6763653412041 8.75857424242426
    vertex 112.613878986922 45.5203672165285 8.75857424242428
    vertex 140.173829206453 17.9604169969977 8.75857424242426
  endloop
endfacet
facet normal 2.97412961355181e-017 -7.72570186623731e-016 1.0
  outer loop
    vertex 143.889777550659 21.6763653412041 8.75857424242426
    vertex 140.173829206453 17.9604169969977 8.75857424242426
    vertex 142.857569677269 20.6441574678134 8.75857424242426
  endloop
endfacet
facet normal 3.46339023973672e-018 -7.98848092519512e-016 1.0
  outer loop
    vertex 65.0290960236121 -62.5517971274745 1.75171484848483
    vertex 81.5444219978629 79.0671231017252 1.75171484848495
    vertex 2.4772988961376 1.12798659301916e-014 1.75171484848488
  endloop
endfacet
facet normal 3.46339023973672e-018 -7.98848092519512e-016 1.0
  outer loop
    vertex 81.5444219978629 79.0671231017252 1.75171484848495
    vertex 65.0290960236121 -62.5517971274745 1.75171484848483
    vertex 144.096219125337 16.5153259742507 1.7517148484849
  endloop
endfacet
facet normal 0.707106781186547 -0.707106781186548 -5.67319890082899e-016
  outer loop
    vertex 65.0290960236121 -62.5517971274745 1.75171484848483
    vertex 144.096219125337 16.5153259742507 4.54719595310848e-014
    vertex 144.096219125337 16.5153259742507 1.7517148484849
  endloop
endfacet
facet normal 0.707106781186547 -0.707106781186548 -5.67319890082899e-016
  outer loop
    vertex 144.096219125337 16.5153259742507 4.54719595310848e-014
    vertex 65.0290960236121 -62.5517971274745 1.75171484848483
    vertex 65.0290960236121 -62.5517971274745 -1.76247905159244e-014
  endloop
endfacet
facet normal -0.707106781186548 -0.707106781186547 -5.62421916634073e-016
  outer loop
    vertex 2.4772988961376 1.12798659301916e-014 3.27821103596193e-014
    vertex 65.0290960236121 -62.5517971274745 1.75171484848483
    vertex 2.4772988961376 1.12798659301916e-014 1.75171484848488
  endloop
endfacet
facet normal -0.707106781186548 -0.707106781186547 -5.62421916634073e-016
  outer loop
    vertex 65.0290960236121 -62.5517971274745 1.75171484848483
    vertex 2.4772988961376 1.12798659301916e-014 3.27821103596193e-014
    vertex 65.0290960236121 -62.5517971274745 -1.76247905159244e-014
  endloop
endfacet
facet normal -0.707106781186547 0.707106781186548 5.67319890082899e-016
  outer loop
    vertex 2.4772988961376 1.12798659301916e-014 3.27821103596193e-014
    vertex 81.5444219978629 79.0671231017252 1.75171484848495
    vertex 81.5444219978629 79.0671231017252 9.552636459631e-014
  endloop
endfacet
facet normal -0.707106781186547 0.707106781186548 5.67319890082899e-016
  outer loop
    vertex 81.5444219978629 79.0671231017252 1.75171484848495
    vertex 2.4772988961376 1.12798659301916e-014 3.27821103596193e-014
    vertex 2.4772988961376 1.12798659301916e-014 1.75171484848488
  endloop
endfacet
facet normal 0.707106781186548 0.707106781186547 5.62421916634073e-016
  outer loop
    vertex 144.096219125337 16.5153259742507 4.54719595310848e-014
    vertex 81.5444219978629 79.0671231017252 1.75171484848495
    vertex 144.096219125337 16.5153259742507 1.7517148484849
  endloop
endfacet
facet normal 0.707106781186548 0.707106781186547 5.62421916634073e-016
  outer loop
    vertex 81.5444219978629 79.0671231017252 1.75171484848495
    vertex 144.096219125337 16.5153259742507 4.54719595310848e-014
    vertex 81.5444219978629 79.0671231017252 9.552636459631e-014
  endloop
endfacet
facet normal -3.46339023973672e-018 7.98848092519512e-016 -1.0
  outer loop
    vertex 144.096219125337 16.5153259742507 4.54719595310848e-014
    vertex 2.4772988961376 1.12798659301916e-014 3.27821103596193e-014
    vertex 81.5444219978629 79.0671231017252 9.552636459631e-014
  endloop
endfacet
facet normal -3.46339023973672e-018 7.98848092519512e-016 -1.0
  outer loop
    vertex 2.4772988961376 1.12798659301916e-014 3.27821103596193e-014
    vertex 144.096219125337 16.5153259742507 4.54719595310848e-014
    vertex 65.0290960236121 -62.5517971274745 -1.76247905159244e-014
  endloop
endfacet
endsolid Untitled-5b034636
