solid Untitled-5e9dc0f0
facet normal 0.0 0.0 1.0
  outer loop
    vertex 19.8484066666666 10.50798 7.00531999999998
    vertex 0.0 14.0106399999999 7.00531999999998
    vertex 0.0 10.50798 7.00531999999998
  endloop
endfacet
facet normal 0.0 0.0 1.0
  outer loop
    vertex 0.0 14.0106399999999 7.00531999999998
    vertex 19.8484066666666 10.50798 7.00531999999998
    vertex 19.8484066666666 14.0106399999999 7.00531999999998
  endloop
endfacet
facet normal 0.0 -1.0 0.0
  outer loop
    vertex 19.8484066666666 10.50798 7.00531999999998
    vertex 0.0 10.50798 5.25398999999999
    vertex 19.8484066666666 10.50798 5.25398999999999
  endloop
endfacet
facet normal 0.0 -1.0 0.0
  outer loop
    vertex 0.0 10.50798 5.25398999999999
    vertex 19.8484066666666 10.50798 7.00531999999998
    vertex 0.0 10.50798 7.00531999999998
  endloop
endfacet
facet normal 1.26136262965816e-016 1.0 -9.72766840623947e-016
  outer loop
    vertex 0.0 14.0106399999999 7.00531999999998
    vertex 19.8484066666666 14.0106399999999 1.13575716732667e-015
    vertex 0.0 14.0106399999999 1.13575716732667e-015
  endloop
endfacet
facet normal 1.26136262965816e-016 1.0 -9.72766840623947e-016
  outer loop
    vertex 19.8484066666666 14.0106399999999 1.13575716732667e-015
    vertex 0.0 14.0106399999999 7.00531999999998
    vertex 19.8484066666666 14.0106399999999 7.00531999999998
  endloop
endfacet
facet normal 0.0 -1.0 0.0
  outer loop
    vertex 19.8484066666666 7.00531999999999 5.25398999999999
    vertex 0.0 7.00531999999999 3.50265999999999
    vertex 19.8484066666666 7.00531999999999 3.50265999999999
  endloop
endfacet
facet normal 0.0 -1.0 0.0
  outer loop
    vertex 0.0 7.00531999999999 3.50265999999999
    vertex 19.8484066666666 7.00531999999999 5.25398999999999
    vertex 0.0 7.00531999999999 5.25398999999999
  endloop
endfacet
facet normal 0.0 0.0 1.0
  outer loop
    vertex 19.8484066666666 7.00531999999999 5.25398999999999
    vertex 0.0 10.50798 5.25398999999999
    vertex 0.0 7.00531999999999 5.25398999999999
  endloop
endfacet
facet normal 0.0 0.0 1.0
  outer loop
    vertex 0.0 10.50798 5.25398999999999
    vertex 19.8484066666666 7.00531999999999 5.25398999999999
    vertex 19.8484066666666 10.50798 5.25398999999999
  endloop
endfacet
facet normal -1.0 0.0 0.0
  outer loop
    vertex 0.0 7.00531999999999 3.50265999999999
    vertex 0.0 3.50266 1.75133
    vertex 0.0 3.50266 3.50265999999999
  endloop
endfacet
facet normal -1.0 0.0 0.0
  outer loop
    vertex 0.0 10.50798 5.25398999999999
    vertex 0.0 7.00531999999999 3.50265999999999
    vertex 0.0 7.00531999999999 5.25398999999999
  endloop
endfacet
facet normal -1.0 0.0 0.0
  outer loop
    vertex 0.0 14.0106399999999 7.00531999999998
    vertex 0.0 10.50798 5.25398999999999
    vertex 0.0 10.50798 7.00531999999998
  endloop
endfacet
facet normal -1.0 0.0 0.0
  outer loop
    vertex 0.0 10.50798 5.25398999999999
    vertex 0.0 14.0106399999999 7.00531999999998
    vertex 0.0 14.0106399999999 1.13575716732667e-015
  endloop
endfacet
facet normal -1.0 0.0 0.0
  outer loop
    vertex 0.0 3.50266 1.75133
    vertex 0.0 0.0 0.0
    vertex 0.0 0.0 1.75133
  endloop
endfacet
facet normal -1.0 0.0 0.0
  outer loop
    vertex 0.0 0.0 0.0
    vertex 0.0 3.50266 1.75133
    vertex 0.0 14.0106399999999 1.13575716732667e-015
  endloop
endfacet
facet normal -1.0 0.0 0.0
  outer loop
    vertex 0.0 14.0106399999999 1.13575716732667e-015
    vertex 0.0 3.50266 1.75133
    vertex 0.0 7.00531999999999 3.50265999999999
  endloop
endfacet
facet normal -1.0 0.0 0.0
  outer loop
    vertex 0.0 14.0106399999999 1.13575716732667e-015
    vertex 0.0 7.00531999999999 3.50265999999999
    vertex 0.0 10.50798 5.25398999999999
  endloop
endfacet
facet normal 0.0 -1.0 0.0
  outer loop
    vertex 19.8484066666666 0.0 1.75133
    vertex 0.0 0.0 0.0
    vertex 19.8484066666666 0.0 0.0
  endloop
endfacet
facet normal 0.0 -1.0 0.0
  outer loop
    vertex 0.0 0.0 0.0
    vertex 19.8484066666666 0.0 1.75133
    vertex 0.0 0.0 1.75133
  endloop
endfacet
facet normal 0.0 0.0 -1.0
  outer loop
    vertex 19.8484066666666 14.0106399999999 1.13575716732667e-015
    vertex 0.0 0.0 0.0
    vertex 0.0 14.0106399999999 1.13575716732667e-015
  endloop
endfacet
facet normal 0.0 0.0 -1.0
  outer loop
    vertex 0.0 0.0 0.0
    vertex 19.8484066666666 14.0106399999999 1.13575716732667e-015
    vertex 19.8484066666666 0.0 0.0
  endloop
endfacet
facet normal 1.0 0.0 0.0
  outer loop
    vertex 19.8484066666666 14.0106399999999 1.13575716732667e-015
    vertex 19.8484066666666 0.0 1.75133
    vertex 19.8484066666666 0.0 0.0
  endloop
endfacet
facet normal 1.0 0.0 0.0
  outer loop
    vertex 19.8484066666666 0.0 1.75133
    vertex 19.8484066666666 14.0106399999999 1.13575716732667e-015
    vertex 19.8484066666666 3.50266 1.75133
  endloop
endfacet
facet normal 1.0 0.0 0.0
  outer loop
    vertex 19.8484066666666 3.50266 1.75133
    vertex 19.8484066666666 14.0106399999999 1.13575716732667e-015
    vertex 19.8484066666666 3.50266 3.50265999999999
  endloop
endfacet
facet normal 1.0 0.0 0.0
  outer loop
    vertex 19.8484066666666 3.50266 3.50265999999999
    vertex 19.8484066666666 14.0106399999999 1.13575716732667e-015
    vertex 19.8484066666666 7.00531999999999 3.50265999999999
  endloop
endfacet
facet normal 1.0 0.0 0.0
  outer loop
    vertex 19.8484066666666 7.00531999999999 3.50265999999999
    vertex 19.8484066666666 14.0106399999999 1.13575716732667e-015
    vertex 19.8484066666666 7.00531999999999 5.25398999999999
  endloop
endfacet
facet normal 1.0 0.0 0.0
  outer loop
    vertex 19.8484066666666 7.00531999999999 5.25398999999999
    vertex 19.8484066666666 14.0106399999999 1.13575716732667e-015
    vertex 19.8484066666666 10.50798 5.25398999999999
  endloop
endfacet
facet normal 1.0 0.0 0.0
  outer loop
    vertex 19.8484066666666 10.50798 5.25398999999999
    vertex 19.8484066666666 14.0106399999999 1.13575716732667e-015
    vertex 19.8484066666666 10.50798 7.00531999999998
  endloop
endfacet
facet normal 1.0 0.0 0.0
  outer loop
    vertex 19.8484066666666 10.50798 7.00531999999998
    vertex 19.8484066666666 14.0106399999999 1.13575716732667e-015
    vertex 19.8484066666666 14.0106399999999 7.00531999999998
  endloop
endfacet
facet normal 0.0 0.0 1.0
  outer loop
    vertex 19.8484066666666 0.0 1.75133
    vertex 0.0 3.50266 1.75133
    vertex 0.0 0.0 1.75133
  endloop
endfacet
facet normal 0.0 0.0 1.0
  outer loop
    vertex 0.0 3.50266 1.75133
    vertex 19.8484066666666 0.0 1.75133
    vertex 19.8484066666666 3.50266 1.75133
  endloop
endfacet
facet normal 0.0 -1.0 0.0
  outer loop
    vertex 19.8484066666666 3.50266 3.50265999999999
    vertex 0.0 3.50266 1.75133
    vertex 19.8484066666666 3.50266 1.75133
  endloop
endfacet
facet normal 0.0 -1.0 0.0
  outer loop
    vertex 0.0 3.50266 1.75133
    vertex 19.8484066666666 3.50266 3.50265999999999
    vertex 0.0 3.50266 3.50265999999999
  endloop
endfacet
facet normal 0.0 3.65389856205748e-017 1.0
  outer loop
    vertex 19.8484066666666 3.50266 3.50265999999999
    vertex 0.0 7.00531999999999 3.50265999999999
    vertex 0.0 3.50266 3.50265999999999
  endloop
endfacet
facet normal 0.0 3.65389856205748e-017 1.0
  outer loop
    vertex 0.0 7.00531999999999 3.50265999999999
    vertex 19.8484066666666 3.50266 3.50265999999999
    vertex 19.8484066666666 7.00531999999999 3.50265999999999
  endloop
endfacet
endsolid Untitled-5e9dc0f0
