solid Untitled-5e9dc031
facet normal 0.0 0.0 -1.0
  outer loop
    vertex 31.9694983333333 4.08742444444444 1.1718821178157e-015
    vertex 26.7142383333333 -1.16783555555556 1.1718821178157e-015
    vertex 26.7142383333333 4.08742444444444 1.1718821178157e-015
  endloop
endfacet
facet normal 0.0 0.0 -1.0
  outer loop
    vertex 26.7142383333333 -1.16783555555556 1.1718821178157e-015
    vertex 31.9694983333333 4.08742444444444 1.1718821178157e-015
    vertex 31.9694983333333 -1.16783555555555 1.1718821178157e-015
  endloop
endfacet
facet normal -1.0 0.0 0.0
  outer loop
    vertex 26.7142383333333 4.08742444444444 19.8532044444444
    vertex 26.7142383333333 -1.16783555555556 1.1718821178157e-015
    vertex 26.7142383333333 -1.16783555555556 19.8532044444444
  endloop
endfacet
facet normal -1.0 0.0 0.0
  outer loop
    vertex 26.7142383333333 -1.16783555555556 1.1718821178157e-015
    vertex 26.7142383333333 4.08742444444444 19.8532044444444
    vertex 26.7142383333333 4.08742444444444 1.1718821178157e-015
  endloop
endfacet
facet normal 0.0 1.0 0.0
  outer loop
    vertex 26.7142383333333 4.08742444444444 19.8532044444444
    vertex 31.9694983333333 4.08742444444444 1.1718821178157e-015
    vertex 26.7142383333333 4.08742444444444 1.1718821178157e-015
  endloop
endfacet
facet normal 0.0 1.0 0.0
  outer loop
    vertex 31.9694983333333 4.08742444444444 1.1718821178157e-015
    vertex 26.7142383333333 4.08742444444444 19.8532044444444
    vertex 31.9694983333333 4.08742444444444 19.8532044444444
  endloop
endfacet
facet normal 1.0 0.0 0.0
  outer loop
    vertex 31.9694983333333 4.08742444444444 1.1718821178157e-015
    vertex 31.9694983333333 -1.16783555555555 19.8532044444444
    vertex 31.9694983333333 -1.16783555555555 1.1718821178157e-015
  endloop
endfacet
facet normal 1.0 0.0 0.0
  outer loop
    vertex 31.9694983333333 -1.16783555555555 19.8532044444444
    vertex 31.9694983333333 4.08742444444444 1.1718821178157e-015
    vertex 31.9694983333333 4.08742444444444 19.8532044444444
  endloop
endfacet
facet normal 0.0 -1.0 0.0
  outer loop
    vertex 31.9694983333333 -1.16783555555555 19.8532044444444
    vertex 26.7142383333333 -1.16783555555556 1.1718821178157e-015
    vertex 31.9694983333333 -1.16783555555555 1.1718821178157e-015
  endloop
endfacet
facet normal 0.0 -1.0 0.0
  outer loop
    vertex 26.7142383333333 -1.16783555555556 1.1718821178157e-015
    vertex 31.9694983333333 -1.16783555555555 19.8532044444444
    vertex 26.7142383333333 -1.16783555555556 19.8532044444444
  endloop
endfacet
facet normal 0.0 0.0 -1.0
  outer loop
    vertex 25.8383616666667 4.96330111111111 19.8532044444444
    vertex 26.7142383333333 4.08742444444444 19.8532044444444
    vertex 25.8383616666667 -2.04371222222222 19.8532044444444
  endloop
endfacet
facet normal 0.0 0.0 -1.0
  outer loop
    vertex 26.7142383333333 4.08742444444444 19.8532044444444
    vertex 25.8383616666667 4.96330111111111 19.8532044444444
    vertex 32.845375 4.96330111111111 19.8532044444444
  endloop
endfacet
facet normal 0.0 0.0 -1.0
  outer loop
    vertex 26.7142383333333 4.08742444444444 19.8532044444444
    vertex 32.845375 4.96330111111111 19.8532044444444
    vertex 31.9694983333333 4.08742444444444 19.8532044444444
  endloop
endfacet
facet normal 0.0 0.0 -1.0
  outer loop
    vertex 31.9694983333333 4.08742444444444 19.8532044444444
    vertex 32.845375 4.96330111111111 19.8532044444444
    vertex 31.9694983333333 -1.16783555555555 19.8532044444444
  endloop
endfacet
facet normal 0.0 0.0 -1.0
  outer loop
    vertex 25.8383616666667 -2.04371222222222 19.8532044444444
    vertex 26.7142383333333 -1.16783555555556 19.8532044444444
    vertex 32.845375 -2.04371222222222 19.8532044444444
  endloop
endfacet
facet normal 0.0 0.0 -1.0
  outer loop
    vertex 26.7142383333333 -1.16783555555556 19.8532044444444
    vertex 25.8383616666667 -2.04371222222222 19.8532044444444
    vertex 26.7142383333333 4.08742444444444 19.8532044444444
  endloop
endfacet
facet normal 0.0 0.0 -1.0
  outer loop
    vertex 32.845375 -2.04371222222222 19.8532044444444
    vertex 26.7142383333333 -1.16783555555556 19.8532044444444
    vertex 31.9694983333333 -1.16783555555555 19.8532044444444
  endloop
endfacet
facet normal 0.0 0.0 -1.0
  outer loop
    vertex 32.845375 -2.04371222222222 19.8532044444444
    vertex 31.9694983333333 -1.16783555555555 19.8532044444444
    vertex 32.845375 4.96330111111111 19.8532044444444
  endloop
endfacet
facet normal 0.0 0.0 1.0
  outer loop
    vertex 25.8383616666667 -2.04371222222222 20.7290811111111
    vertex 26.7142383333333 -1.16783555555556 20.7290811111111
    vertex 25.8383616666667 4.96330111111111 20.7290811111111
  endloop
endfacet
facet normal 0.0 0.0 1.0
  outer loop
    vertex 26.7142383333333 -1.16783555555556 20.7290811111111
    vertex 25.8383616666667 -2.04371222222222 20.7290811111111
    vertex 32.845375 -2.04371222222222 20.7290811111111
  endloop
endfacet
facet normal 0.0 0.0 1.0
  outer loop
    vertex 26.7142383333333 -1.16783555555556 20.7290811111111
    vertex 32.845375 -2.04371222222222 20.7290811111111
    vertex 30.4002193055555 -1.16783555555555 20.7290811111111
  endloop
endfacet
facet normal 0.0 0.0 1.0
  outer loop
    vertex 30.4002193055555 -1.16783555555555 20.7290811111111
    vertex 32.845375 -2.04371222222222 20.7290811111111
    vertex 31.9694983333333 -1.16783555555555 20.7290811111111
  endloop
endfacet
facet normal 0.0 0.0 1.0
  outer loop
    vertex 31.9694983333333 -1.16783555555555 20.7290811111111
    vertex 32.845375 -2.04371222222222 20.7290811111111
    vertex 31.9694983333333 4.08742444444444 20.7290811111111
  endloop
endfacet
facet normal 0.0 0.0 1.0
  outer loop
    vertex 25.8383616666667 4.96330111111111 20.7290811111111
    vertex 26.7142383333333 4.08742444444444 20.7290811111111
    vertex 32.845375 4.96330111111111 20.7290811111111
  endloop
endfacet
facet normal 0.0 0.0 1.0
  outer loop
    vertex 26.7142383333333 4.08742444444444 20.7290811111111
    vertex 25.8383616666667 4.96330111111111 20.7290811111111
    vertex 26.7142383333333 -1.16783555555556 20.7290811111111
  endloop
endfacet
facet normal 0.0 0.0 1.0
  outer loop
    vertex 32.845375 4.96330111111111 20.7290811111111
    vertex 26.7142383333333 4.08742444444444 20.7290811111111
    vertex 31.9694983333333 4.08742444444444 20.7290811111111
  endloop
endfacet
facet normal 0.0 0.0 1.0
  outer loop
    vertex 32.845375 4.96330111111111 20.7290811111111
    vertex 31.9694983333333 4.08742444444444 20.7290811111111
    vertex 32.845375 -2.04371222222222 20.7290811111111
  endloop
endfacet
facet normal 0.0 1.0 0.0
  outer loop
    vertex 25.8383616666667 4.96330111111111 20.7290811111111
    vertex 32.845375 4.96330111111111 19.8532044444444
    vertex 25.8383616666667 4.96330111111111 19.8532044444444
  endloop
endfacet
facet normal 0.0 1.0 0.0
  outer loop
    vertex 32.845375 4.96330111111111 19.8532044444444
    vertex 25.8383616666667 4.96330111111111 20.7290811111111
    vertex 32.845375 4.96330111111111 20.7290811111111
  endloop
endfacet
facet normal -1.0 0.0 0.0
  outer loop
    vertex 25.8383616666667 4.96330111111111 20.7290811111111
    vertex 25.8383616666667 -2.04371222222222 19.8532044444444
    vertex 25.8383616666667 -2.04371222222222 20.7290811111111
  endloop
endfacet
facet normal -1.0 0.0 0.0
  outer loop
    vertex 25.8383616666667 -2.04371222222222 19.8532044444444
    vertex 25.8383616666667 4.96330111111111 20.7290811111111
    vertex 25.8383616666667 4.96330111111111 19.8532044444444
  endloop
endfacet
facet normal 0.0 -1.0 0.0
  outer loop
    vertex 32.845375 -2.04371222222222 20.7290811111111
    vertex 25.8383616666667 -2.04371222222222 19.8532044444444
    vertex 32.845375 -2.04371222222222 19.8532044444444
  endloop
endfacet
facet normal 0.0 -1.0 0.0
  outer loop
    vertex 25.8383616666667 -2.04371222222222 19.8532044444444
    vertex 32.845375 -2.04371222222222 20.7290811111111
    vertex 25.8383616666667 -2.04371222222222 20.7290811111111
  endloop
endfacet
facet normal 1.0 0.0 0.0
  outer loop
    vertex 32.845375 4.96330111111111 19.8532044444444
    vertex 32.845375 -2.04371222222222 20.7290811111111
    vertex 32.845375 -2.04371222222222 19.8532044444444
  endloop
endfacet
facet normal 1.0 0.0 0.0
  outer loop
    vertex 32.845375 -2.04371222222222 20.7290811111111
    vertex 32.845375 4.96330111111111 19.8532044444444
    vertex 32.845375 4.96330111111111 20.7290811111111
  endloop
endfacet
facet normal 1.0 0.0 0.0
  outer loop
    vertex 26.7142383333333 4.08742444444444 19.8532044444444
    vertex 26.7142383333333 -1.16783555555556 20.7290811111111
    vertex 26.7142383333333 -1.16783555555556 19.8532044444444
  endloop
endfacet
facet normal 1.0 0.0 0.0
  outer loop
    vertex 26.7142383333333 -1.16783555555556 20.7290811111111
    vertex 26.7142383333333 4.08742444444444 19.8532044444444
    vertex 26.7142383333333 4.08742444444444 20.7290811111111
  endloop
endfacet
facet normal 0.0 -1.0 0.0
  outer loop
    vertex 31.9694983333333 4.08742444444444 20.7290811111111
    vertex 26.7142383333333 4.08742444444444 19.8532044444444
    vertex 31.9694983333333 4.08742444444444 19.8532044444444
  endloop
endfacet
facet normal 0.0 -1.0 0.0
  outer loop
    vertex 26.7142383333333 4.08742444444444 19.8532044444444
    vertex 31.9694983333333 4.08742444444444 20.7290811111111
    vertex 26.7142383333333 4.08742444444444 20.7290811111111
  endloop
endfacet
facet normal -1.0 0.0 0.0
  outer loop
    vertex 31.9694983333333 4.08742444444444 20.7290811111111
    vertex 31.9694983333333 -1.16783555555555 19.8532044444444
    vertex 31.9694983333333 -1.16783555555555 20.7290811111111
  endloop
endfacet
facet normal -1.0 0.0 0.0
  outer loop
    vertex 31.9694983333333 -1.16783555555555 19.8532044444444
    vertex 31.9694983333333 4.08742444444444 20.7290811111111
    vertex 31.9694983333333 4.08742444444444 19.8532044444444
  endloop
endfacet
facet normal 0.0 1.0 0.0
  outer loop
    vertex 26.7142383333333 -1.16783555555556 20.7290811111111
    vertex 31.9694983333333 -1.16783555555555 19.8532044444444
    vertex 26.7142383333333 -1.16783555555556 19.8532044444444
  endloop
endfacet
facet normal 0.0 1.0 0.0
  outer loop
    vertex 31.9694983333333 -1.16783555555555 19.8532044444444
    vertex 26.7142383333333 -1.16783555555556 20.7290811111111
    vertex 31.9694983333333 -1.16783555555555 20.7290811111111
  endloop
endfacet
facet normal 0.0 1.0 0.0
  outer loop
    vertex 31.9694983333333 -1.16783555555555 20.7290811111111
    vertex 26.7142383333333 -1.16783555555556 20.7290811111111
    vertex 30.4002193055555 -1.16783555555555 20.7290811111111
  endloop
endfacet
facet normal 0.988389776155377 -7.19730657087235e-017 0.151939627456181
  outer loop
    vertex 31.9694983333333 4.08742444444444 20.7290811111111
    vertex 30.217745 0.583917777777778 32.124495947916
    vertex 31.9694983333333 -1.16783555555555 20.7290811111111
  endloop
endfacet
facet normal 0.988389776155377 -7.19730657087235e-017 0.151939627456181
  outer loop
    vertex 30.217745 0.583917777777778 32.124495947916
    vertex 31.9694983333333 4.08742444444444 20.7290811111111
    vertex 30.217745 2.33567111111111 32.124495947916
  endloop
endfacet
facet normal -0.988389776155377 -8.96575627544047e-018 0.151939627456181
  outer loop
    vertex 28.4659916666667 0.583917777777778 32.124495947916
    vertex 26.7142383333333 4.08742444444444 20.7290811111111
    vertex 26.7142383333333 -1.16783555555556 20.7290811111111
  endloop
endfacet
facet normal -0.988389776155377 -8.96575627544047e-018 0.151939627456181
  outer loop
    vertex 26.7142383333333 4.08742444444444 20.7290811111111
    vertex 28.4659916666667 0.583917777777778 32.124495947916
    vertex 28.4659916666667 2.33567111111111 32.124495947916
  endloop
endfacet
facet normal -4.6891256945561e-017 -0.988389776155377 0.151939627456181
  outer loop
    vertex 30.217745 0.583917777777778 32.124495947916
    vertex 30.4002193055555 -1.16783555555555 20.7290811111111
    vertex 31.9694983333333 -1.16783555555555 20.7290811111111
  endloop
endfacet
facet normal -4.6891256945561e-017 -0.988389776155377 0.151939627456181
  outer loop
    vertex 30.4002193055555 -1.16783555555555 20.7290811111111
    vertex 30.217745 0.583917777777778 32.124495947916
    vertex 26.7142383333333 -1.16783555555556 20.7290811111111
  endloop
endfacet
facet normal -4.6891256945561e-017 -0.988389776155377 0.151939627456181
  outer loop
    vertex 26.7142383333333 -1.16783555555556 20.7290811111111
    vertex 30.217745 0.583917777777778 32.124495947916
    vertex 28.4659916666667 0.583917777777778 32.124495947916
  endloop
endfacet
facet normal -7.19730657087235e-017 0.988389776155377 0.151939627456181
  outer loop
    vertex 28.4659916666667 2.33567111111111 32.124495947916
    vertex 31.9694983333333 4.08742444444444 20.7290811111111
    vertex 26.7142383333333 4.08742444444444 20.7290811111111
  endloop
endfacet
facet normal -7.19730657087235e-017 0.988389776155377 0.151939627456181
  outer loop
    vertex 31.9694983333333 4.08742444444444 20.7290811111111
    vertex 28.4659916666667 2.33567111111111 32.124495947916
    vertex 30.217745 2.33567111111111 32.124495947916
  endloop
endfacet
facet normal -2.368475785867e-015 -2.368475785867e-015 1.0
  outer loop
    vertex 28.4659916666667 0.583917777777778 32.124495947916
    vertex 30.217745 2.33567111111111 32.124495947916
    vertex 28.4659916666667 2.33567111111111 32.124495947916
  endloop
endfacet
facet normal -2.368475785867e-015 -2.368475785867e-015 1.0
  outer loop
    vertex 30.217745 2.33567111111111 32.124495947916
    vertex 28.4659916666667 0.583917777777778 32.124495947916
    vertex 30.217745 0.583917777777778 32.124495947916
  endloop
endfacet
facet normal 0.0 0.0 -1.0
  outer loop
    vertex 45.2536277777778 4.08742444444444 1.1718821178157e-015
    vertex 39.9983677777778 -1.16783555555556 1.1718821178157e-015
    vertex 39.9983677777778 4.08742444444444 1.1718821178157e-015
  endloop
endfacet
facet normal 0.0 0.0 -1.0
  outer loop
    vertex 39.9983677777778 -1.16783555555556 1.1718821178157e-015
    vertex 45.2536277777778 4.08742444444444 1.1718821178157e-015
    vertex 45.2536277777778 -1.16783555555556 1.1718821178157e-015
  endloop
endfacet
facet normal 1.0 0.0 0.0
  outer loop
    vertex 45.2536277777778 4.08742444444444 1.1718821178157e-015
    vertex 45.2536277777778 -1.16783555555556 19.8532044444444
    vertex 45.2536277777778 -1.16783555555556 1.1718821178157e-015
  endloop
endfacet
facet normal 1.0 0.0 0.0
  outer loop
    vertex 45.2536277777778 -1.16783555555556 19.8532044444444
    vertex 45.2536277777778 4.08742444444444 1.1718821178157e-015
    vertex 45.2536277777778 4.08742444444444 19.8532044444444
  endloop
endfacet
facet normal 0.0 -1.0 0.0
  outer loop
    vertex 45.2536277777778 -1.16783555555556 19.8532044444444
    vertex 39.9983677777778 -1.16783555555556 1.1718821178157e-015
    vertex 45.2536277777778 -1.16783555555556 1.1718821178157e-015
  endloop
endfacet
facet normal 0.0 -1.0 0.0
  outer loop
    vertex 39.9983677777778 -1.16783555555556 1.1718821178157e-015
    vertex 45.2536277777778 -1.16783555555556 19.8532044444444
    vertex 39.9983677777778 -1.16783555555556 19.8532044444444
  endloop
endfacet
facet normal 0.0 1.0 0.0
  outer loop
    vertex 39.9983677777778 4.08742444444444 19.8532044444444
    vertex 45.2536277777778 4.08742444444444 1.1718821178157e-015
    vertex 39.9983677777778 4.08742444444444 1.1718821178157e-015
  endloop
endfacet
facet normal 0.0 1.0 0.0
  outer loop
    vertex 45.2536277777778 4.08742444444444 1.1718821178157e-015
    vertex 39.9983677777778 4.08742444444444 19.8532044444444
    vertex 45.2536277777778 4.08742444444444 19.8532044444444
  endloop
endfacet
facet normal -1.0 0.0 0.0
  outer loop
    vertex 39.9983677777778 4.08742444444444 19.8532044444444
    vertex 39.9983677777778 -1.16783555555556 1.1718821178157e-015
    vertex 39.9983677777778 -1.16783555555556 19.8532044444444
  endloop
endfacet
facet normal -1.0 0.0 0.0
  outer loop
    vertex 39.9983677777778 -1.16783555555556 1.1718821178157e-015
    vertex 39.9983677777778 4.08742444444444 19.8532044444444
    vertex 39.9983677777778 4.08742444444444 1.1718821178157e-015
  endloop
endfacet
facet normal 0.0 0.0 -1.0
  outer loop
    vertex 39.1224911111111 4.96330111111111 19.8532044444444
    vertex 39.9983677777778 4.08742444444444 19.8532044444444
    vertex 39.1224911111111 -2.04371222222222 19.8532044444444
  endloop
endfacet
facet normal 0.0 0.0 -1.0
  outer loop
    vertex 39.9983677777778 4.08742444444444 19.8532044444444
    vertex 39.1224911111111 4.96330111111111 19.8532044444444
    vertex 46.1295044444445 4.96330111111111 19.8532044444444
  endloop
endfacet
facet normal 0.0 0.0 -1.0
  outer loop
    vertex 39.9983677777778 4.08742444444444 19.8532044444444
    vertex 46.1295044444445 4.96330111111111 19.8532044444444
    vertex 45.2536277777778 4.08742444444444 19.8532044444444
  endloop
endfacet
facet normal 0.0 0.0 -1.0
  outer loop
    vertex 45.2536277777778 4.08742444444444 19.8532044444444
    vertex 46.1295044444445 4.96330111111111 19.8532044444444
    vertex 45.2536277777778 -1.16783555555556 19.8532044444444
  endloop
endfacet
facet normal 0.0 0.0 -1.0
  outer loop
    vertex 39.1224911111111 -2.04371222222222 19.8532044444444
    vertex 39.9983677777778 -1.16783555555556 19.8532044444444
    vertex 46.1295044444445 -2.04371222222222 19.8532044444444
  endloop
endfacet
facet normal 0.0 0.0 -1.0
  outer loop
    vertex 39.9983677777778 -1.16783555555556 19.8532044444444
    vertex 39.1224911111111 -2.04371222222222 19.8532044444444
    vertex 39.9983677777778 4.08742444444444 19.8532044444444
  endloop
endfacet
facet normal 0.0 0.0 -1.0
  outer loop
    vertex 46.1295044444445 -2.04371222222222 19.8532044444444
    vertex 39.9983677777778 -1.16783555555556 19.8532044444444
    vertex 45.2536277777778 -1.16783555555556 19.8532044444444
  endloop
endfacet
facet normal 0.0 0.0 -1.0
  outer loop
    vertex 46.1295044444445 -2.04371222222222 19.8532044444444
    vertex 45.2536277777778 -1.16783555555556 19.8532044444444
    vertex 46.1295044444445 4.96330111111111 19.8532044444444
  endloop
endfacet
facet normal 0.0 0.0 1.0
  outer loop
    vertex 39.1224911111111 -2.04371222222222 20.7290811111111
    vertex 39.9983677777778 -1.16783555555556 20.7290811111111
    vertex 39.1224911111111 4.96330111111111 20.7290811111111
  endloop
endfacet
facet normal 0.0 0.0 1.0
  outer loop
    vertex 39.9983677777778 -1.16783555555556 20.7290811111111
    vertex 39.1224911111111 -2.04371222222222 20.7290811111111
    vertex 46.1295044444445 -2.04371222222222 20.7290811111111
  endloop
endfacet
facet normal 0.0 0.0 1.0
  outer loop
    vertex 39.9983677777778 -1.16783555555556 20.7290811111111
    vertex 46.1295044444445 -2.04371222222222 20.7290811111111
    vertex 43.68434875 -1.16783555555556 20.7290811111111
  endloop
endfacet
facet normal 0.0 0.0 1.0
  outer loop
    vertex 43.68434875 -1.16783555555556 20.7290811111111
    vertex 46.1295044444445 -2.04371222222222 20.7290811111111
    vertex 45.2536277777778 -1.16783555555556 20.7290811111111
  endloop
endfacet
facet normal 0.0 0.0 1.0
  outer loop
    vertex 45.2536277777778 -1.16783555555556 20.7290811111111
    vertex 46.1295044444445 -2.04371222222222 20.7290811111111
    vertex 45.2536277777778 4.08742444444444 20.7290811111111
  endloop
endfacet
facet normal 0.0 0.0 1.0
  outer loop
    vertex 39.1224911111111 4.96330111111111 20.7290811111111
    vertex 39.9983677777778 4.08742444444444 20.7290811111111
    vertex 46.1295044444445 4.96330111111111 20.7290811111111
  endloop
endfacet
facet normal 0.0 0.0 1.0
  outer loop
    vertex 39.9983677777778 4.08742444444444 20.7290811111111
    vertex 39.1224911111111 4.96330111111111 20.7290811111111
    vertex 39.9983677777778 -1.16783555555556 20.7290811111111
  endloop
endfacet
facet normal 0.0 0.0 1.0
  outer loop
    vertex 46.1295044444445 4.96330111111111 20.7290811111111
    vertex 39.9983677777778 4.08742444444444 20.7290811111111
    vertex 45.2536277777778 4.08742444444444 20.7290811111111
  endloop
endfacet
facet normal 0.0 0.0 1.0
  outer loop
    vertex 46.1295044444445 4.96330111111111 20.7290811111111
    vertex 45.2536277777778 4.08742444444444 20.7290811111111
    vertex 46.1295044444445 -2.04371222222222 20.7290811111111
  endloop
endfacet
facet normal 0.0 1.0 0.0
  outer loop
    vertex 39.1224911111111 4.96330111111111 20.7290811111111
    vertex 46.1295044444445 4.96330111111111 19.8532044444444
    vertex 39.1224911111111 4.96330111111111 19.8532044444444
  endloop
endfacet
facet normal 0.0 1.0 0.0
  outer loop
    vertex 46.1295044444445 4.96330111111111 19.8532044444444
    vertex 39.1224911111111 4.96330111111111 20.7290811111111
    vertex 46.1295044444445 4.96330111111111 20.7290811111111
  endloop
endfacet
facet normal -1.0 0.0 0.0
  outer loop
    vertex 39.1224911111111 4.96330111111111 20.7290811111111
    vertex 39.1224911111111 -2.04371222222222 19.8532044444444
    vertex 39.1224911111111 -2.04371222222222 20.7290811111111
  endloop
endfacet
facet normal -1.0 0.0 0.0
  outer loop
    vertex 39.1224911111111 -2.04371222222222 19.8532044444444
    vertex 39.1224911111111 4.96330111111111 20.7290811111111
    vertex 39.1224911111111 4.96330111111111 19.8532044444444
  endloop
endfacet
facet normal 0.0 -1.0 0.0
  outer loop
    vertex 46.1295044444445 -2.04371222222222 20.7290811111111
    vertex 39.1224911111111 -2.04371222222222 19.8532044444444
    vertex 46.1295044444445 -2.04371222222222 19.8532044444444
  endloop
endfacet
facet normal 0.0 -1.0 0.0
  outer loop
    vertex 39.1224911111111 -2.04371222222222 19.8532044444444
    vertex 46.1295044444445 -2.04371222222222 20.7290811111111
    vertex 39.1224911111111 -2.04371222222222 20.7290811111111
  endloop
endfacet
facet normal 1.0 0.0 0.0
  outer loop
    vertex 46.1295044444445 4.96330111111111 19.8532044444444
    vertex 46.1295044444445 -2.04371222222222 20.7290811111111
    vertex 46.1295044444445 -2.04371222222222 19.8532044444444
  endloop
endfacet
facet normal 1.0 0.0 0.0
  outer loop
    vertex 46.1295044444445 -2.04371222222222 20.7290811111111
    vertex 46.1295044444445 4.96330111111111 19.8532044444444
    vertex 46.1295044444445 4.96330111111111 20.7290811111111
  endloop
endfacet
facet normal 1.0 0.0 0.0
  outer loop
    vertex 39.9983677777778 4.08742444444444 19.8532044444444
    vertex 39.9983677777778 -1.16783555555556 20.7290811111111
    vertex 39.9983677777778 -1.16783555555556 19.8532044444444
  endloop
endfacet
facet normal 1.0 0.0 0.0
  outer loop
    vertex 39.9983677777778 -1.16783555555556 20.7290811111111
    vertex 39.9983677777778 4.08742444444444 19.8532044444444
    vertex 39.9983677777778 4.08742444444444 20.7290811111111
  endloop
endfacet
facet normal 0.0 -1.0 0.0
  outer loop
    vertex 45.2536277777778 4.08742444444444 20.7290811111111
    vertex 39.9983677777778 4.08742444444444 19.8532044444444
    vertex 45.2536277777778 4.08742444444444 19.8532044444444
  endloop
endfacet
facet normal 0.0 -1.0 0.0
  outer loop
    vertex 39.9983677777778 4.08742444444444 19.8532044444444
    vertex 45.2536277777778 4.08742444444444 20.7290811111111
    vertex 39.9983677777778 4.08742444444444 20.7290811111111
  endloop
endfacet
facet normal -1.0 0.0 0.0
  outer loop
    vertex 45.2536277777778 4.08742444444444 20.7290811111111
    vertex 45.2536277777778 -1.16783555555556 19.8532044444444
    vertex 45.2536277777778 -1.16783555555556 20.7290811111111
  endloop
endfacet
facet normal -1.0 0.0 0.0
  outer loop
    vertex 45.2536277777778 -1.16783555555556 19.8532044444444
    vertex 45.2536277777778 4.08742444444444 20.7290811111111
    vertex 45.2536277777778 4.08742444444444 19.8532044444444
  endloop
endfacet
facet normal 0.0 1.0 0.0
  outer loop
    vertex 39.9983677777778 -1.16783555555556 20.7290811111111
    vertex 45.2536277777778 -1.16783555555556 19.8532044444444
    vertex 39.9983677777778 -1.16783555555556 19.8532044444444
  endloop
endfacet
facet normal 0.0 1.0 0.0
  outer loop
    vertex 45.2536277777778 -1.16783555555556 19.8532044444444
    vertex 39.9983677777778 -1.16783555555556 20.7290811111111
    vertex 45.2536277777778 -1.16783555555556 20.7290811111111
  endloop
endfacet
facet normal 0.0 1.0 0.0
  outer loop
    vertex 45.2536277777778 -1.16783555555556 20.7290811111111
    vertex 39.9983677777778 -1.16783555555556 20.7290811111111
    vertex 43.68434875 -1.16783555555556 20.7290811111111
  endloop
endfacet
facet normal -0.988389776155377 1.50252656274673e-017 0.151939627456181
  outer loop
    vertex 41.7501211111111 0.583917777777778 32.1244959479159
    vertex 39.9983677777778 4.08742444444444 20.7290811111111
    vertex 39.9983677777778 -1.16783555555556 20.7290811111111
  endloop
endfacet
facet normal -0.988389776155377 1.50252656274673e-017 0.151939627456181
  outer loop
    vertex 39.9983677777778 4.08742444444444 20.7290811111111
    vertex 41.7501211111111 0.583917777777778 32.1244959479159
    vertex 41.7501211111111 2.33567111111111 32.1244959479159
  endloop
endfacet
facet normal 5.2101396606179e-018 -0.988389776155377 0.151939627456181
  outer loop
    vertex 43.5018744444445 0.583917777777778 32.1244959479159
    vertex 43.68434875 -1.16783555555556 20.7290811111111
    vertex 45.2536277777778 -1.16783555555556 20.7290811111111
  endloop
endfacet
facet normal 5.2101396606179e-018 -0.988389776155377 0.151939627456181
  outer loop
    vertex 43.68434875 -1.16783555555556 20.7290811111111
    vertex 43.5018744444445 0.583917777777778 32.1244959479159
    vertex 39.9983677777778 -1.16783555555556 20.7290811111111
  endloop
endfacet
facet normal 5.2101396606179e-018 -0.988389776155377 0.151939627456181
  outer loop
    vertex 39.9983677777778 -1.16783555555556 20.7290811111111
    vertex 43.5018744444445 0.583917777777778 32.1244959479159
    vertex 41.7501211111111 0.583917777777778 32.1244959479159
  endloop
endfacet
facet normal 0.988389776155377 -4.48287813772028e-018 0.151939627456181
  outer loop
    vertex 45.2536277777778 4.08742444444444 20.7290811111111
    vertex 43.5018744444445 0.583917777777778 32.1244959479159
    vertex 45.2536277777778 -1.16783555555556 20.7290811111111
  endloop
endfacet
facet normal 0.988389776155377 -4.48287813772028e-018 0.151939627456181
  outer loop
    vertex 43.5018744444445 0.583917777777778 32.1244959479159
    vertex 45.2536277777778 4.08742444444444 20.7290811111111
    vertex 43.5018744444445 2.33567111111111 32.1244959479159
  endloop
endfacet
facet normal 3.90162875303752e-017 0.988389776155377 0.151939627456181
  outer loop
    vertex 41.7501211111111 2.33567111111111 32.1244959479159
    vertex 45.2536277777778 4.08742444444444 20.7290811111111
    vertex 39.9983677777778 4.08742444444444 20.7290811111111
  endloop
endfacet
facet normal 3.90162875303752e-017 0.988389776155377 0.151939627456181
  outer loop
    vertex 45.2536277777778 4.08742444444444 20.7290811111111
    vertex 41.7501211111111 2.33567111111111 32.1244959479159
    vertex 43.5018744444445 2.33567111111111 32.1244959479159
  endloop
endfacet
facet normal 0.0 0.0 1.0
  outer loop
    vertex 43.5018744444445 0.583917777777778 32.1244959479159
    vertex 41.7501211111111 2.33567111111111 32.1244959479159
    vertex 41.7501211111111 0.583917777777778 32.1244959479159
  endloop
endfacet
facet normal 0.0 0.0 1.0
  outer loop
    vertex 41.7501211111111 2.33567111111111 32.1244959479159
    vertex 43.5018744444445 0.583917777777778 32.1244959479159
    vertex 43.5018744444445 2.33567111111111 32.1244959479159
  endloop
endfacet
facet normal 0.0 -0.0 -1.0
  outer loop
    vertex 14.7589787489944 -1.16783555555557 1.15568734622816e-015
    vertex 20.0142387489944 4.08742444444444 1.15568734622816e-015
    vertex 20.0142387489944 -1.16783555555556 1.15568734622816e-015
  endloop
endfacet
facet normal 0.0 -0.0 -1.0
  outer loop
    vertex 20.0142387489944 4.08742444444444 1.15568734622816e-015
    vertex 14.7589787489944 -1.16783555555557 1.15568734622816e-015
    vertex 14.7589787489944 4.08742444444443 1.15568734622816e-015
  endloop
endfacet
facet normal 1.0 6.66133814775094e-016 0.0
  outer loop
    vertex 20.0142387489944 -1.16783555555556 19.8532044444444
    vertex 20.0142387489944 4.08742444444444 1.15568734622816e-015
    vertex 20.0142387489944 4.08742444444444 19.8532044444444
  endloop
endfacet
facet normal 1.0 6.66133814775094e-016 0.0
  outer loop
    vertex 20.0142387489944 4.08742444444444 1.15568734622816e-015
    vertex 20.0142387489944 -1.16783555555556 19.8532044444444
    vertex 20.0142387489944 -1.16783555555556 1.15568734622816e-015
  endloop
endfacet
facet normal 6.66133814775094e-016 -1.0 0.0
  outer loop
    vertex 20.0142387489944 -1.16783555555556 19.8532044444444
    vertex 14.7589787489944 -1.16783555555557 1.15568734622816e-015
    vertex 20.0142387489944 -1.16783555555556 1.15568734622816e-015
  endloop
endfacet
facet normal 6.66133814775094e-016 -1.0 0.0
  outer loop
    vertex 14.7589787489944 -1.16783555555557 1.15568734622816e-015
    vertex 20.0142387489944 -1.16783555555556 19.8532044444444
    vertex 14.7589787489944 -1.16783555555557 19.8532044444444
  endloop
endfacet
facet normal -1.0 -6.66133814775094e-016 0.0
  outer loop
    vertex 14.7589787489944 -1.16783555555557 1.15568734622816e-015
    vertex 14.7589787489944 4.08742444444443 19.8532044444444
    vertex 14.7589787489944 4.08742444444443 1.15568734622816e-015
  endloop
endfacet
facet normal -1.0 -6.66133814775094e-016 0.0
  outer loop
    vertex 14.7589787489944 4.08742444444443 19.8532044444444
    vertex 14.7589787489944 -1.16783555555557 1.15568734622816e-015
    vertex 14.7589787489944 -1.16783555555557 19.8532044444444
  endloop
endfacet
facet normal -6.66133814775094e-016 1.0 0.0
  outer loop
    vertex 14.7589787489944 4.08742444444443 19.8532044444444
    vertex 20.0142387489944 4.08742444444444 1.15568734622816e-015
    vertex 14.7589787489944 4.08742444444443 1.15568734622816e-015
  endloop
endfacet
facet normal -6.66133814775094e-016 1.0 0.0
  outer loop
    vertex 20.0142387489944 4.08742444444444 1.15568734622816e-015
    vertex 14.7589787489944 4.08742444444443 19.8532044444444
    vertex 20.0142387489944 4.08742444444444 19.8532044444444
  endloop
endfacet
facet normal 0.0 -0.0 -1.0
  outer loop
    vertex 20.8901154156611 -2.04371222222223 19.8532044444444
    vertex 20.0142387489944 -1.16783555555556 19.8532044444444
    vertex 20.8901154156611 4.9633011111111 19.8532044444444
  endloop
endfacet
facet normal 0.0 -0.0 -1.0
  outer loop
    vertex 20.0142387489944 -1.16783555555556 19.8532044444444
    vertex 20.8901154156611 -2.04371222222223 19.8532044444444
    vertex 13.8831020823278 -2.04371222222223 19.8532044444444
  endloop
endfacet
facet normal 0.0 -0.0 -1.0
  outer loop
    vertex 20.0142387489944 -1.16783555555556 19.8532044444444
    vertex 13.8831020823278 -2.04371222222223 19.8532044444444
    vertex 14.7589787489944 -1.16783555555557 19.8532044444444
  endloop
endfacet
facet normal 0.0 -0.0 -1.0
  outer loop
    vertex 14.7589787489944 -1.16783555555557 19.8532044444444
    vertex 13.8831020823278 -2.04371222222223 19.8532044444444
    vertex 14.7589787489944 4.08742444444443 19.8532044444444
  endloop
endfacet
facet normal 0.0 -0.0 -1.0
  outer loop
    vertex 20.8901154156611 4.9633011111111 19.8532044444444
    vertex 20.0142387489944 4.08742444444444 19.8532044444444
    vertex 13.8831020823277 4.9633011111111 19.8532044444444
  endloop
endfacet
facet normal 0.0 -0.0 -1.0
  outer loop
    vertex 20.0142387489944 4.08742444444444 19.8532044444444
    vertex 20.8901154156611 4.9633011111111 19.8532044444444
    vertex 20.0142387489944 -1.16783555555556 19.8532044444444
  endloop
endfacet
facet normal 0.0 -0.0 -1.0
  outer loop
    vertex 13.8831020823277 4.9633011111111 19.8532044444444
    vertex 20.0142387489944 4.08742444444444 19.8532044444444
    vertex 14.7589787489944 4.08742444444443 19.8532044444444
  endloop
endfacet
facet normal 0.0 -0.0 -1.0
  outer loop
    vertex 13.8831020823277 4.9633011111111 19.8532044444444
    vertex 14.7589787489944 4.08742444444443 19.8532044444444
    vertex 13.8831020823278 -2.04371222222223 19.8532044444444
  endloop
endfacet
facet normal 0.0 0.0 1.0
  outer loop
    vertex 20.8901154156611 4.9633011111111 20.7290811111111
    vertex 20.0142387489944 4.08742444444444 20.7290811111111
    vertex 20.8901154156611 -2.04371222222223 20.7290811111111
  endloop
endfacet
facet normal 0.0 0.0 1.0
  outer loop
    vertex 20.0142387489944 4.08742444444444 20.7290811111111
    vertex 20.8901154156611 4.9633011111111 20.7290811111111
    vertex 13.8831020823277 4.9633011111111 20.7290811111111
  endloop
endfacet
facet normal 0.0 0.0 1.0
  outer loop
    vertex 20.0142387489944 4.08742444444444 20.7290811111111
    vertex 13.8831020823277 4.9633011111111 20.7290811111111
    vertex 16.3282577767722 4.08742444444443 20.7290811111111
  endloop
endfacet
facet normal 0.0 0.0 1.0
  outer loop
    vertex 16.3282577767722 4.08742444444443 20.7290811111111
    vertex 13.8831020823277 4.9633011111111 20.7290811111111
    vertex 14.7589787489944 4.08742444444443 20.7290811111111
  endloop
endfacet
facet normal 0.0 0.0 1.0
  outer loop
    vertex 14.7589787489944 4.08742444444443 20.7290811111111
    vertex 13.8831020823277 4.9633011111111 20.7290811111111
    vertex 14.7589787489944 -1.16783555555557 20.7290811111111
  endloop
endfacet
facet normal 0.0 0.0 1.0
  outer loop
    vertex 20.8901154156611 -2.04371222222223 20.7290811111111
    vertex 20.0142387489944 -1.16783555555556 20.7290811111111
    vertex 13.8831020823278 -2.04371222222223 20.7290811111111
  endloop
endfacet
facet normal 0.0 0.0 1.0
  outer loop
    vertex 20.0142387489944 -1.16783555555556 20.7290811111111
    vertex 20.8901154156611 -2.04371222222223 20.7290811111111
    vertex 20.0142387489944 4.08742444444444 20.7290811111111
  endloop
endfacet
facet normal 0.0 0.0 1.0
  outer loop
    vertex 13.8831020823278 -2.04371222222223 20.7290811111111
    vertex 20.0142387489944 -1.16783555555556 20.7290811111111
    vertex 14.7589787489944 -1.16783555555557 20.7290811111111
  endloop
endfacet
facet normal 0.0 0.0 1.0
  outer loop
    vertex 13.8831020823278 -2.04371222222223 20.7290811111111
    vertex 14.7589787489944 -1.16783555555557 20.7290811111111
    vertex 13.8831020823277 4.9633011111111 20.7290811111111
  endloop
endfacet
facet normal 6.66133814775094e-016 -1.0 0.0
  outer loop
    vertex 20.8901154156611 -2.04371222222223 20.7290811111111
    vertex 13.8831020823278 -2.04371222222223 19.8532044444444
    vertex 20.8901154156611 -2.04371222222223 19.8532044444444
  endloop
endfacet
facet normal 6.66133814775094e-016 -1.0 0.0
  outer loop
    vertex 13.8831020823278 -2.04371222222223 19.8532044444444
    vertex 20.8901154156611 -2.04371222222223 20.7290811111111
    vertex 13.8831020823278 -2.04371222222223 20.7290811111111
  endloop
endfacet
facet normal 1.0 6.66133814775094e-016 0.0
  outer loop
    vertex 20.8901154156611 -2.04371222222223 20.7290811111111
    vertex 20.8901154156611 4.9633011111111 19.8532044444444
    vertex 20.8901154156611 4.9633011111111 20.7290811111111
  endloop
endfacet
facet normal 1.0 6.66133814775094e-016 0.0
  outer loop
    vertex 20.8901154156611 4.9633011111111 19.8532044444444
    vertex 20.8901154156611 -2.04371222222223 20.7290811111111
    vertex 20.8901154156611 -2.04371222222223 19.8532044444444
  endloop
endfacet
facet normal -6.66133814775094e-016 1.0 0.0
  outer loop
    vertex 13.8831020823277 4.9633011111111 20.7290811111111
    vertex 20.8901154156611 4.9633011111111 19.8532044444444
    vertex 13.8831020823277 4.9633011111111 19.8532044444444
  endloop
endfacet
facet normal -6.66133814775094e-016 1.0 0.0
  outer loop
    vertex 20.8901154156611 4.9633011111111 19.8532044444444
    vertex 13.8831020823277 4.9633011111111 20.7290811111111
    vertex 20.8901154156611 4.9633011111111 20.7290811111111
  endloop
endfacet
facet normal -1.0 -6.66133814775094e-016 0.0
  outer loop
    vertex 13.8831020823278 -2.04371222222223 19.8532044444444
    vertex 13.8831020823277 4.9633011111111 20.7290811111111
    vertex 13.8831020823277 4.9633011111111 19.8532044444444
  endloop
endfacet
facet normal -1.0 -6.66133814775094e-016 0.0
  outer loop
    vertex 13.8831020823277 4.9633011111111 20.7290811111111
    vertex 13.8831020823278 -2.04371222222223 19.8532044444444
    vertex 13.8831020823278 -2.04371222222223 20.7290811111111
  endloop
endfacet
facet normal -1.0 -6.66133814775094e-016 0.0
  outer loop
    vertex 20.0142387489944 -1.16783555555556 19.8532044444444
    vertex 20.0142387489944 4.08742444444444 20.7290811111111
    vertex 20.0142387489944 4.08742444444444 19.8532044444444
  endloop
endfacet
facet normal -1.0 -6.66133814775094e-016 0.0
  outer loop
    vertex 20.0142387489944 4.08742444444444 20.7290811111111
    vertex 20.0142387489944 -1.16783555555556 19.8532044444444
    vertex 20.0142387489944 -1.16783555555556 20.7290811111111
  endloop
endfacet
facet normal -6.66133814775094e-016 1.0 0.0
  outer loop
    vertex 14.7589787489944 -1.16783555555557 20.7290811111111
    vertex 20.0142387489944 -1.16783555555556 19.8532044444444
    vertex 14.7589787489944 -1.16783555555557 19.8532044444444
  endloop
endfacet
facet normal -6.66133814775094e-016 1.0 0.0
  outer loop
    vertex 20.0142387489944 -1.16783555555556 19.8532044444444
    vertex 14.7589787489944 -1.16783555555557 20.7290811111111
    vertex 20.0142387489944 -1.16783555555556 20.7290811111111
  endloop
endfacet
facet normal 1.0 6.66133814775094e-016 0.0
  outer loop
    vertex 14.7589787489944 -1.16783555555557 20.7290811111111
    vertex 14.7589787489944 4.08742444444443 19.8532044444444
    vertex 14.7589787489944 4.08742444444443 20.7290811111111
  endloop
endfacet
facet normal 1.0 6.66133814775094e-016 0.0
  outer loop
    vertex 14.7589787489944 4.08742444444443 19.8532044444444
    vertex 14.7589787489944 -1.16783555555557 20.7290811111111
    vertex 14.7589787489944 -1.16783555555557 19.8532044444444
  endloop
endfacet
facet normal 6.66133814775094e-016 -1.0 0.0
  outer loop
    vertex 20.0142387489944 4.08742444444444 20.7290811111111
    vertex 14.7589787489944 4.08742444444443 19.8532044444444
    vertex 20.0142387489944 4.08742444444444 19.8532044444444
  endloop
endfacet
facet normal 6.66133814775094e-016 -1.0 0.0
  outer loop
    vertex 14.7589787489944 4.08742444444443 19.8532044444444
    vertex 20.0142387489944 4.08742444444444 20.7290811111111
    vertex 14.7589787489944 4.08742444444443 20.7290811111111
  endloop
endfacet
facet normal 6.66133814775094e-016 -1.0 0.0
  outer loop
    vertex 14.7589787489944 4.08742444444443 20.7290811111111
    vertex 20.0142387489944 4.08742444444444 20.7290811111111
    vertex 16.3282577767722 4.08742444444443 20.7290811111111
  endloop
endfacet
facet normal -0.988389776155377 -5.86426786366359e-016 0.151939627456181
  outer loop
    vertex 14.7589787489944 -1.16783555555557 20.7290811111111
    vertex 16.5107320823277 2.3356711111111 32.124495947916
    vertex 14.7589787489944 4.08742444444443 20.7290811111111
  endloop
endfacet
facet normal -0.988389776155377 -5.86426786366359e-016 0.151939627456181
  outer loop
    vertex 16.5107320823277 2.3356711111111 32.124495947916
    vertex 14.7589787489944 -1.16783555555557 20.7290811111111
    vertex 16.5107320823277 0.583917777777769 32.124495947916
  endloop
endfacet
facet normal 0.988389776155377 6.67365608350523e-016 0.151939627456181
  outer loop
    vertex 18.2624854156611 2.3356711111111 32.124495947916
    vertex 20.0142387489944 -1.16783555555556 20.7290811111111
    vertex 20.0142387489944 4.08742444444444 20.7290811111111
  endloop
endfacet
facet normal 0.988389776155377 6.67365608350523e-016 0.151939627456181
  outer loop
    vertex 20.0142387489944 -1.16783555555556 20.7290811111111
    vertex 18.2624854156611 2.3356711111111 32.124495947916
    vertex 18.2624854156611 0.58391777777777 32.124495947916
  endloop
endfacet
facet normal -6.11508595129522e-016 0.988389776155377 0.151939627456181
  outer loop
    vertex 16.5107320823277 2.3356711111111 32.124495947916
    vertex 16.3282577767722 4.08742444444443 20.7290811111111
    vertex 14.7589787489944 4.08742444444443 20.7290811111111
  endloop
endfacet
facet normal -6.11508595129522e-016 0.988389776155377 0.151939627456181
  outer loop
    vertex 16.3282577767722 4.08742444444443 20.7290811111111
    vertex 16.5107320823277 2.3356711111111 32.124495947916
    vertex 20.0142387489944 4.08742444444444 20.7290811111111
  endloop
endfacet
facet normal -6.11508595129522e-016 0.988389776155377 0.151939627456181
  outer loop
    vertex 20.0142387489944 4.08742444444444 20.7290811111111
    vertex 16.5107320823277 2.3356711111111 32.124495947916
    vertex 18.2624854156611 2.3356711111111 32.124495947916
  endloop
endfacet
facet normal 7.30372917783806e-016 -0.988389776155377 0.151939627456181
  outer loop
    vertex 18.2624854156611 0.58391777777777 32.124495947916
    vertex 14.7589787489944 -1.16783555555557 20.7290811111111
    vertex 20.0142387489944 -1.16783555555556 20.7290811111111
  endloop
endfacet
facet normal 7.30372917783806e-016 -0.988389776155377 0.151939627456181
  outer loop
    vertex 14.7589787489944 -1.16783555555557 20.7290811111111
    vertex 18.2624854156611 0.58391777777777 32.124495947916
    vertex 16.5107320823277 0.583917777777769 32.124495947916
  endloop
endfacet
facet normal 2.368475785867e-015 2.368475785867e-015 1.0
  outer loop
    vertex 18.2624854156611 2.3356711111111 32.124495947916
    vertex 16.5107320823277 0.583917777777769 32.124495947916
    vertex 18.2624854156611 0.58391777777777 32.124495947916
  endloop
endfacet
facet normal 2.368475785867e-015 2.368475785867e-015 1.0
  outer loop
    vertex 16.5107320823277 0.583917777777769 32.124495947916
    vertex 18.2624854156611 2.3356711111111 32.124495947916
    vertex 16.5107320823277 2.3356711111111 32.124495947916
  endloop
endfacet
facet normal 0.0 -0.0 -1.0
  outer loop
    vertex 8.17484888888889 -1.16783555555556 2.0744926764059e-015
    vertex 2.91958888888889 4.08742444444444 2.0744926764059e-015
    vertex 8.17484888888889 4.08742444444444 2.0744926764059e-015
  endloop
endfacet
facet normal 0.0 -0.0 -1.0
  outer loop
    vertex 2.91958888888889 4.08742444444444 2.0744926764059e-015
    vertex 8.17484888888889 -1.16783555555556 2.0744926764059e-015
    vertex 2.91958888888889 -1.16783555555556 2.0744926764059e-015
  endloop
endfacet
facet normal -3.60822483003176e-016 -1.0 0.0
  outer loop
    vertex 8.17484888888889 -1.16783555555556 2.0744926764059e-015
    vertex 2.91958888888889 -1.16783555555556 19.8532044444444
    vertex 2.91958888888889 -1.16783555555556 2.0744926764059e-015
  endloop
endfacet
facet normal -3.60822483003176e-016 -1.0 0.0
  outer loop
    vertex 2.91958888888889 -1.16783555555556 19.8532044444444
    vertex 8.17484888888889 -1.16783555555556 2.0744926764059e-015
    vertex 8.17484888888889 -1.16783555555556 19.8532044444444
  endloop
endfacet
facet normal -1.0 3.60822483003176e-016 0.0
  outer loop
    vertex 2.91958888888889 -1.16783555555556 19.8532044444444
    vertex 2.91958888888889 4.08742444444444 2.0744926764059e-015
    vertex 2.91958888888889 -1.16783555555556 2.0744926764059e-015
  endloop
endfacet
facet normal -1.0 3.60822483003176e-016 0.0
  outer loop
    vertex 2.91958888888889 4.08742444444444 2.0744926764059e-015
    vertex 2.91958888888889 -1.16783555555556 19.8532044444444
    vertex 2.91958888888889 4.08742444444444 19.8532044444444
  endloop
endfacet
facet normal 1.0 -3.60822483003176e-016 0.0
  outer loop
    vertex 8.17484888888889 4.08742444444444 19.8532044444444
    vertex 8.17484888888889 -1.16783555555556 2.0744926764059e-015
    vertex 8.17484888888889 4.08742444444444 2.0744926764059e-015
  endloop
endfacet
facet normal 1.0 -3.60822483003176e-016 0.0
  outer loop
    vertex 8.17484888888889 -1.16783555555556 2.0744926764059e-015
    vertex 8.17484888888889 4.08742444444444 19.8532044444444
    vertex 8.17484888888889 -1.16783555555556 19.8532044444444
  endloop
endfacet
facet normal 3.60822483003176e-016 1.0 0.0
  outer loop
    vertex 8.17484888888889 4.08742444444444 19.8532044444444
    vertex 2.91958888888889 4.08742444444444 2.0744926764059e-015
    vertex 2.91958888888889 4.08742444444444 19.8532044444444
  endloop
endfacet
facet normal 3.60822483003176e-016 1.0 0.0
  outer loop
    vertex 2.91958888888889 4.08742444444444 2.0744926764059e-015
    vertex 8.17484888888889 4.08742444444444 19.8532044444444
    vertex 8.17484888888889 4.08742444444444 2.0744926764059e-015
  endloop
endfacet
facet normal 0.0 -0.0 -1.0
  outer loop
    vertex 9.05072555555556 4.96330111111111 19.8532044444444
    vertex 8.17484888888889 4.08742444444444 19.8532044444444
    vertex 2.04371222222222 4.96330111111111 19.8532044444444
  endloop
endfacet
facet normal 0.0 -0.0 -1.0
  outer loop
    vertex 8.17484888888889 4.08742444444444 19.8532044444444
    vertex 9.05072555555556 4.96330111111111 19.8532044444444
    vertex 9.05072555555555 -2.04371222222222 19.8532044444444
  endloop
endfacet
facet normal 0.0 -0.0 -1.0
  outer loop
    vertex 8.17484888888889 4.08742444444444 19.8532044444444
    vertex 9.05072555555555 -2.04371222222222 19.8532044444444
    vertex 8.17484888888889 -1.16783555555556 19.8532044444444
  endloop
endfacet
facet normal 0.0 -0.0 -1.0
  outer loop
    vertex 8.17484888888889 -1.16783555555556 19.8532044444444
    vertex 9.05072555555555 -2.04371222222222 19.8532044444444
    vertex 2.91958888888889 -1.16783555555556 19.8532044444444
  endloop
endfacet
facet normal 0.0 -0.0 -1.0
  outer loop
    vertex 2.04371222222222 4.96330111111111 19.8532044444444
    vertex 2.91958888888889 4.08742444444444 19.8532044444444
    vertex 2.04371222222222 -2.04371222222222 19.8532044444444
  endloop
endfacet
facet normal 0.0 -0.0 -1.0
  outer loop
    vertex 2.91958888888889 4.08742444444444 19.8532044444444
    vertex 2.04371222222222 4.96330111111111 19.8532044444444
    vertex 8.17484888888889 4.08742444444444 19.8532044444444
  endloop
endfacet
facet normal 0.0 -0.0 -1.0
  outer loop
    vertex 2.04371222222222 -2.04371222222222 19.8532044444444
    vertex 2.91958888888889 4.08742444444444 19.8532044444444
    vertex 2.91958888888889 -1.16783555555556 19.8532044444444
  endloop
endfacet
facet normal 0.0 -0.0 -1.0
  outer loop
    vertex 2.04371222222222 -2.04371222222222 19.8532044444444
    vertex 2.91958888888889 -1.16783555555556 19.8532044444444
    vertex 9.05072555555555 -2.04371222222222 19.8532044444444
  endloop
endfacet
facet normal 0.0 0.0 1.0
  outer loop
    vertex 2.04371222222222 4.96330111111111 20.7290811111111
    vertex 2.91958888888889 4.08742444444444 20.7290811111111
    vertex 9.05072555555556 4.96330111111111 20.7290811111111
  endloop
endfacet
facet normal 0.0 0.0 1.0
  outer loop
    vertex 2.91958888888889 4.08742444444444 20.7290811111111
    vertex 2.04371222222222 4.96330111111111 20.7290811111111
    vertex 2.04371222222222 -2.04371222222222 20.7290811111111
  endloop
endfacet
facet normal 0.0 0.0 1.0
  outer loop
    vertex 2.91958888888889 4.08742444444444 20.7290811111111
    vertex 2.04371222222222 -2.04371222222222 20.7290811111111
    vertex 2.91958888888889 0.401443472222222 20.7290811111111
  endloop
endfacet
facet normal 0.0 0.0 1.0
  outer loop
    vertex 2.91958888888889 0.401443472222222 20.7290811111111
    vertex 2.04371222222222 -2.04371222222222 20.7290811111111
    vertex 2.91958888888889 -1.16783555555556 20.7290811111111
  endloop
endfacet
facet normal 0.0 0.0 1.0
  outer loop
    vertex 2.91958888888889 -1.16783555555556 20.7290811111111
    vertex 2.04371222222222 -2.04371222222222 20.7290811111111
    vertex 8.17484888888889 -1.16783555555556 20.7290811111111
  endloop
endfacet
facet normal 0.0 0.0 1.0
  outer loop
    vertex 9.05072555555556 4.96330111111111 20.7290811111111
    vertex 8.17484888888889 4.08742444444444 20.7290811111111
    vertex 9.05072555555555 -2.04371222222222 20.7290811111111
  endloop
endfacet
facet normal 0.0 0.0 1.0
  outer loop
    vertex 8.17484888888889 4.08742444444444 20.7290811111111
    vertex 9.05072555555556 4.96330111111111 20.7290811111111
    vertex 2.91958888888889 4.08742444444444 20.7290811111111
  endloop
endfacet
facet normal 0.0 0.0 1.0
  outer loop
    vertex 9.05072555555555 -2.04371222222222 20.7290811111111
    vertex 8.17484888888889 4.08742444444444 20.7290811111111
    vertex 8.17484888888889 -1.16783555555556 20.7290811111111
  endloop
endfacet
facet normal 0.0 0.0 1.0
  outer loop
    vertex 9.05072555555555 -2.04371222222222 20.7290811111111
    vertex 8.17484888888889 -1.16783555555556 20.7290811111111
    vertex 2.04371222222222 -2.04371222222222 20.7290811111111
  endloop
endfacet
facet normal 1.0 -3.60822483003176e-016 0.0
  outer loop
    vertex 9.05072555555556 4.96330111111111 20.7290811111111
    vertex 9.05072555555555 -2.04371222222222 19.8532044444444
    vertex 9.05072555555556 4.96330111111111 19.8532044444444
  endloop
endfacet
facet normal 1.0 -3.60822483003176e-016 0.0
  outer loop
    vertex 9.05072555555555 -2.04371222222222 19.8532044444444
    vertex 9.05072555555556 4.96330111111111 20.7290811111111
    vertex 9.05072555555555 -2.04371222222222 20.7290811111111
  endloop
endfacet
facet normal 3.60822483003176e-016 1.0 0.0
  outer loop
    vertex 9.05072555555556 4.96330111111111 20.7290811111111
    vertex 2.04371222222222 4.96330111111111 19.8532044444444
    vertex 2.04371222222222 4.96330111111111 20.7290811111111
  endloop
endfacet
facet normal 3.60822483003176e-016 1.0 0.0
  outer loop
    vertex 2.04371222222222 4.96330111111111 19.8532044444444
    vertex 9.05072555555556 4.96330111111111 20.7290811111111
    vertex 9.05072555555556 4.96330111111111 19.8532044444444
  endloop
endfacet
facet normal -1.0 3.60822483003176e-016 0.0
  outer loop
    vertex 2.04371222222222 -2.04371222222222 20.7290811111111
    vertex 2.04371222222222 4.96330111111111 19.8532044444444
    vertex 2.04371222222222 -2.04371222222222 19.8532044444444
  endloop
endfacet
facet normal -1.0 3.60822483003176e-016 0.0
  outer loop
    vertex 2.04371222222222 4.96330111111111 19.8532044444444
    vertex 2.04371222222222 -2.04371222222222 20.7290811111111
    vertex 2.04371222222222 4.96330111111111 20.7290811111111
  endloop
endfacet
facet normal -3.60822483003176e-016 -1.0 0.0
  outer loop
    vertex 9.05072555555555 -2.04371222222222 19.8532044444444
    vertex 2.04371222222222 -2.04371222222222 20.7290811111111
    vertex 2.04371222222222 -2.04371222222222 19.8532044444444
  endloop
endfacet
facet normal -3.60822483003176e-016 -1.0 0.0
  outer loop
    vertex 2.04371222222222 -2.04371222222222 20.7290811111111
    vertex 9.05072555555555 -2.04371222222222 19.8532044444444
    vertex 9.05072555555555 -2.04371222222222 20.7290811111111
  endloop
endfacet
facet normal -3.60822483003176e-016 -1.0 0.0
  outer loop
    vertex 8.17484888888889 4.08742444444444 19.8532044444444
    vertex 2.91958888888889 4.08742444444444 20.7290811111111
    vertex 2.91958888888889 4.08742444444444 19.8532044444444
  endloop
endfacet
facet normal -3.60822483003176e-016 -1.0 0.0
  outer loop
    vertex 2.91958888888889 4.08742444444444 20.7290811111111
    vertex 8.17484888888889 4.08742444444444 19.8532044444444
    vertex 8.17484888888889 4.08742444444444 20.7290811111111
  endloop
endfacet
facet normal -1.0 3.60822483003176e-016 0.0
  outer loop
    vertex 8.17484888888889 -1.16783555555556 20.7290811111111
    vertex 8.17484888888889 4.08742444444444 19.8532044444444
    vertex 8.17484888888889 -1.16783555555556 19.8532044444444
  endloop
endfacet
facet normal -1.0 3.60822483003176e-016 0.0
  outer loop
    vertex 8.17484888888889 4.08742444444444 19.8532044444444
    vertex 8.17484888888889 -1.16783555555556 20.7290811111111
    vertex 8.17484888888889 4.08742444444444 20.7290811111111
  endloop
endfacet
facet normal 3.60822483003176e-016 1.0 0.0
  outer loop
    vertex 8.17484888888889 -1.16783555555556 20.7290811111111
    vertex 2.91958888888889 -1.16783555555556 19.8532044444444
    vertex 2.91958888888889 -1.16783555555556 20.7290811111111
  endloop
endfacet
facet normal 3.60822483003176e-016 1.0 0.0
  outer loop
    vertex 2.91958888888889 -1.16783555555556 19.8532044444444
    vertex 8.17484888888889 -1.16783555555556 20.7290811111111
    vertex 8.17484888888889 -1.16783555555556 19.8532044444444
  endloop
endfacet
facet normal 1.0 -3.60822483003176e-016 0.0
  outer loop
    vertex 2.91958888888889 4.08742444444444 20.7290811111111
    vertex 2.91958888888889 -1.16783555555556 19.8532044444444
    vertex 2.91958888888889 4.08742444444444 19.8532044444444
  endloop
endfacet
facet normal 1.0 -3.60822483003176e-016 0.0
  outer loop
    vertex 2.91958888888889 -1.16783555555556 19.8532044444444
    vertex 2.91958888888889 4.08742444444444 20.7290811111111
    vertex 2.91958888888889 -1.16783555555556 20.7290811111111
  endloop
endfacet
facet normal 1.0 -3.60822483003176e-016 0.0
  outer loop
    vertex 2.91958888888889 -1.16783555555556 20.7290811111111
    vertex 2.91958888888889 4.08742444444444 20.7290811111111
    vertex 2.91958888888889 0.401443472222222 20.7290811111111
  endloop
endfacet
facet normal 3.71658518834804e-016 0.988389776155377 0.151939627456181
  outer loop
    vertex 4.67134222222222 2.33567111111111 32.1244959479159
    vertex 8.17484888888889 4.08742444444444 20.7290811111111
    vertex 2.91958888888889 4.08742444444444 20.7290811111111
  endloop
endfacet
facet normal 3.71658518834804e-016 0.988389776155377 0.151939627456181
  outer loop
    vertex 8.17484888888889 4.08742444444444 20.7290811111111
    vertex 4.67134222222222 2.33567111111111 32.1244959479159
    vertex 6.42309555555555 2.33567111111111 32.1244959479159
  endloop
endfacet
facet normal -0.988389776155377 3.51423113546719e-016 0.151939627456181
  outer loop
    vertex 4.67134222222222 0.583917777777777 32.1244959479159
    vertex 2.91958888888889 0.401443472222222 20.7290811111111
    vertex 2.91958888888889 -1.16783555555556 20.7290811111111
  endloop
endfacet
facet normal -0.988389776155377 3.51423113546719e-016 0.151939627456181
  outer loop
    vertex 2.91958888888889 0.401443472222222 20.7290811111111
    vertex 4.67134222222222 0.583917777777777 32.1244959479159
    vertex 2.91958888888889 4.08742444444444 20.7290811111111
  endloop
endfacet
facet normal -0.988389776155377 3.51423113546719e-016 0.151939627456181
  outer loop
    vertex 2.91958888888889 4.08742444444444 20.7290811111111
    vertex 4.67134222222222 0.583917777777777 32.1244959479159
    vertex 4.67134222222222 2.33567111111111 32.1244959479159
  endloop
endfacet
facet normal -3.61116131345057e-016 -0.988389776155377 0.151939627456181
  outer loop
    vertex 8.17484888888889 -1.16783555555556 20.7290811111111
    vertex 4.67134222222222 0.583917777777777 32.1244959479159
    vertex 2.91958888888889 -1.16783555555556 20.7290811111111
  endloop
endfacet
facet normal -3.61116131345057e-016 -0.988389776155377 0.151939627456181
  outer loop
    vertex 4.67134222222222 0.583917777777777 32.1244959479159
    vertex 8.17484888888889 -1.16783555555556 20.7290811111111
    vertex 6.42309555555555 0.583917777777776 32.1244959479159
  endloop
endfacet
facet normal 0.988389776155377 -3.95649540737712e-016 0.151939627456181
  outer loop
    vertex 6.42309555555555 2.33567111111111 32.1244959479159
    vertex 8.17484888888889 -1.16783555555556 20.7290811111111
    vertex 8.17484888888889 4.08742444444444 20.7290811111111
  endloop
endfacet
facet normal 0.988389776155377 -3.95649540737712e-016 0.151939627456181
  outer loop
    vertex 8.17484888888889 -1.16783555555556 20.7290811111111
    vertex 6.42309555555555 2.33567111111111 32.1244959479159
    vertex 6.42309555555555 0.583917777777776 32.1244959479159
  endloop
endfacet
facet normal 0.0 0.0 1.0
  outer loop
    vertex 4.67134222222222 0.583917777777777 32.1244959479159
    vertex 6.42309555555555 2.33567111111111 32.1244959479159
    vertex 4.67134222222222 2.33567111111111 32.1244959479159
  endloop
endfacet
facet normal 0.0 0.0 1.0
  outer loop
    vertex 6.42309555555555 2.33567111111111 32.1244959479159
    vertex 4.67134222222222 0.583917777777777 32.1244959479159
    vertex 6.42309555555555 0.583917777777776 32.1244959479159
  endloop
endfacet
endsolid Untitled-5e9dc031
