G04 MADE WITH FRITZING*
G04 WWW.FRITZING.ORG*
G04 SINGLE SIDED*
G04 HOLES NOT PLATED*
G04 CONTOUR ON CENTER OF CONTOUR VECTOR*
%ASAXBY*%
%FSLAX23Y23*%
%MOIN*%
%OFA0B0*%
%SFA1.0B1.0*%
%ADD10C,0.057829*%
%ADD11C,0.090000*%
%ADD12C,0.085000*%
%ADD13C,0.151732*%
%ADD14R,0.089986X0.090000*%
%ADD15R,0.090000X0.089986*%
%ADD16R,0.085000X0.085000*%
%LNMASK0*%
G90*
G70*
G54D10*
X1404Y1020D03*
X1204Y122D03*
X1304Y122D03*
X1404Y122D03*
X1504Y122D03*
X1604Y122D03*
X1304Y1020D03*
X1204Y1020D03*
X1504Y1020D03*
X1703Y122D03*
X1803Y122D03*
X1903Y122D03*
X2003Y122D03*
X2103Y122D03*
X2203Y122D03*
X2303Y122D03*
X2402Y122D03*
X2502Y122D03*
X2602Y122D03*
X1903Y1020D03*
X2003Y1020D03*
X2103Y1020D03*
X2203Y1020D03*
X2303Y1020D03*
X2402Y1020D03*
X2502Y1020D03*
X2602Y1020D03*
X1604Y1020D03*
X1703Y1020D03*
X1803Y1020D03*
G54D11*
X204Y1220D03*
X204Y1020D03*
X204Y620D03*
X204Y420D03*
X204Y2420D03*
X204Y2220D03*
X204Y1820D03*
X204Y1620D03*
X2104Y2720D03*
X1904Y2720D03*
X1504Y2720D03*
X1304Y2720D03*
G54D12*
X704Y1220D03*
X987Y1503D03*
X704Y1220D03*
X987Y1503D03*
X804Y1120D03*
X1087Y1403D03*
X804Y1120D03*
X1087Y1403D03*
X2104Y1920D03*
X2104Y2320D03*
X2104Y1920D03*
X2104Y2320D03*
X1304Y2220D03*
X1704Y2220D03*
X1304Y2220D03*
X1704Y2220D03*
X2604Y1920D03*
X2604Y2320D03*
X2604Y1920D03*
X2604Y2320D03*
X2704Y1420D03*
X2421Y1137D03*
X2704Y1420D03*
X2421Y1137D03*
X2404Y1920D03*
X2404Y2320D03*
X2404Y1920D03*
X2404Y2320D03*
X1504Y2020D03*
X1904Y2020D03*
X1504Y2020D03*
X1904Y2020D03*
G54D11*
X2704Y2720D03*
X2504Y2720D03*
X3304Y2720D03*
X3104Y2720D03*
G54D12*
X2304Y1620D03*
X2304Y1320D03*
X2204Y1620D03*
X2204Y1320D03*
X2104Y1620D03*
X2104Y1320D03*
X2004Y1620D03*
X2004Y1320D03*
X1904Y1620D03*
X1904Y1320D03*
X1804Y1620D03*
X1804Y1320D03*
X1704Y1620D03*
X1704Y1320D03*
X1604Y1620D03*
X1604Y1320D03*
G54D13*
X125Y2814D03*
X125Y98D03*
X3511Y98D03*
X3511Y2814D03*
G54D14*
X204Y1220D03*
X204Y620D03*
X204Y2420D03*
X204Y1820D03*
G54D15*
X2104Y2720D03*
X1504Y2720D03*
X2704Y2720D03*
X3304Y2720D03*
G54D16*
X2304Y1620D03*
G04 End of Mask0*
M02*