G04 MADE WITH FRITZING*
G04 WWW.FRITZING.ORG*
G04 SINGLE SIDED*
G04 HOLES NOT PLATED*
G04 CONTOUR ON CENTER OF CONTOUR VECTOR*
%ASAXBY*%
%FSLAX23Y23*%
%MOIN*%
%OFA0B0*%
%SFA1.0B1.0*%
%ADD10C,0.047859*%
%ADD11C,0.080000*%
%ADD12C,0.075000*%
%ADD13C,0.141732*%
%ADD14R,0.079986X0.080000*%
%ADD15R,0.080000X0.079986*%
%ADD16R,0.075000X0.075000*%
%ADD17C,0.048000*%
%LNCOPPER0*%
G90*
G70*
G54D10*
X1404Y1020D03*
X1204Y122D03*
X1304Y122D03*
X1404Y122D03*
X1504Y122D03*
X1604Y122D03*
X1304Y1020D03*
X1204Y1020D03*
X1504Y1020D03*
X1703Y122D03*
X1803Y122D03*
X1903Y122D03*
X2003Y122D03*
X2103Y122D03*
X2203Y122D03*
X2303Y122D03*
X2402Y122D03*
X2502Y122D03*
X2602Y122D03*
X1903Y1020D03*
X2003Y1020D03*
X2103Y1020D03*
X2203Y1020D03*
X2303Y1020D03*
X2402Y1020D03*
X2502Y1020D03*
X2602Y1020D03*
X1604Y1020D03*
X1703Y1020D03*
X1803Y1020D03*
G54D11*
X204Y1220D03*
X204Y1020D03*
X204Y620D03*
X204Y420D03*
X204Y2420D03*
X204Y2220D03*
X204Y1820D03*
X204Y1620D03*
X2104Y2720D03*
X1904Y2720D03*
X1504Y2720D03*
X1304Y2720D03*
G54D12*
X704Y1220D03*
X987Y1503D03*
X704Y1220D03*
X987Y1503D03*
X804Y1120D03*
X1087Y1403D03*
X804Y1120D03*
X1087Y1403D03*
X2104Y1920D03*
X2104Y2320D03*
X2104Y1920D03*
X2104Y2320D03*
X1304Y2220D03*
X1704Y2220D03*
X1304Y2220D03*
X1704Y2220D03*
X2604Y1920D03*
X2604Y2320D03*
X2604Y1920D03*
X2604Y2320D03*
X2704Y1420D03*
X2421Y1137D03*
X2704Y1420D03*
X2421Y1137D03*
X2404Y1920D03*
X2404Y2320D03*
X2404Y1920D03*
X2404Y2320D03*
X1504Y2020D03*
X1904Y2020D03*
X1504Y2020D03*
X1904Y2020D03*
G54D11*
X2704Y2720D03*
X2504Y2720D03*
X3304Y2720D03*
X3104Y2720D03*
G54D12*
X2304Y1620D03*
X2304Y1320D03*
X2204Y1620D03*
X2204Y1320D03*
X2104Y1620D03*
X2104Y1320D03*
X2004Y1620D03*
X2004Y1320D03*
X1904Y1620D03*
X1904Y1320D03*
X1804Y1620D03*
X1804Y1320D03*
X1704Y1620D03*
X1704Y1320D03*
X1604Y1620D03*
X1604Y1320D03*
G54D13*
X125Y2814D03*
X125Y98D03*
X3511Y98D03*
X3511Y2814D03*
G54D14*
X204Y1220D03*
X204Y620D03*
X204Y2420D03*
X204Y1820D03*
G54D15*
X2104Y2720D03*
X1504Y2720D03*
X2704Y2720D03*
X3304Y2720D03*
G54D16*
X2304Y1620D03*
G54D17*
X115Y1514D02*
X604Y1520D01*
D02*
X604Y1520D02*
X904Y1620D01*
D02*
X115Y1514D02*
X104Y1120D01*
D02*
X904Y1620D02*
X1564Y1620D01*
D02*
X104Y1120D02*
X174Y1050D01*
D02*
X177Y1587D02*
X115Y1514D01*
D02*
X1744Y2220D02*
X1904Y2220D01*
D02*
X1904Y2220D02*
X2004Y2120D01*
D02*
X2004Y2120D02*
X2004Y1660D01*
D02*
X1704Y1053D02*
X1704Y1280D01*
D02*
X246Y2420D02*
X1104Y2420D01*
D02*
X1104Y2420D02*
X1276Y2248D01*
D02*
X2576Y1892D02*
X2332Y1648D01*
D02*
X2104Y1280D02*
X2103Y1053D01*
D02*
X246Y1826D02*
X1465Y2014D01*
D02*
X1126Y1404D02*
X1804Y1420D01*
D02*
X1804Y1420D02*
X1804Y1580D01*
D02*
X2474Y2750D02*
X2404Y2820D01*
D02*
X2404Y2820D02*
X2004Y2820D01*
D02*
X2004Y2820D02*
X1934Y2750D01*
D02*
X1026Y1504D02*
X1704Y1520D01*
D02*
X1704Y1520D02*
X1704Y1580D01*
D02*
X1893Y1051D02*
X1816Y1282D01*
D02*
X2662Y2713D02*
X2704Y2720D01*
D02*
X2704Y2720D02*
X2613Y2358D01*
D02*
X174Y990D02*
X104Y920D01*
D02*
X104Y920D02*
X104Y520D01*
D02*
X104Y520D02*
X174Y450D01*
D02*
X2134Y2690D02*
X2204Y2620D01*
D02*
X2204Y2620D02*
X2382Y2353D01*
D02*
X3304Y2678D02*
X3304Y2020D01*
D02*
X3304Y2020D02*
X2732Y1448D01*
D02*
X2104Y1880D02*
X2104Y1660D01*
D02*
X2376Y1892D02*
X2204Y1720D01*
D02*
X2204Y1720D02*
X2204Y1660D01*
D02*
X2344Y1320D02*
X2404Y1320D01*
D02*
X2404Y1320D02*
X2604Y1120D01*
D02*
X2604Y1120D02*
X2603Y1053D01*
D02*
X246Y1220D02*
X664Y1220D01*
D02*
X246Y420D02*
X404Y420D01*
D02*
X404Y420D02*
X704Y420D01*
D02*
X704Y420D02*
X1004Y220D01*
D02*
X1004Y220D02*
X2104Y220D01*
D02*
X2104Y220D02*
X2103Y156D01*
D02*
X1262Y2720D02*
X704Y2720D01*
D02*
X704Y2720D02*
X104Y2520D01*
D02*
X104Y2520D02*
X104Y2320D01*
D02*
X104Y2320D02*
X174Y2250D01*
D02*
X1904Y1980D02*
X1904Y1660D01*
D02*
X1874Y2750D02*
X1804Y2820D01*
D02*
X1804Y2820D02*
X1404Y2820D01*
D02*
X1404Y2820D02*
X1334Y2750D01*
D02*
X204Y662D02*
X204Y820D01*
D02*
X204Y820D02*
X804Y1020D01*
D02*
X804Y1020D02*
X804Y1080D01*
D02*
X2384Y1151D02*
X2204Y1220D01*
D02*
X2204Y1220D02*
X2204Y1280D01*
D02*
X174Y2190D02*
X104Y2120D01*
D02*
X104Y2120D02*
X104Y1720D01*
D02*
X104Y1720D02*
X174Y1650D01*
D02*
X3074Y2750D02*
X3004Y2820D01*
D02*
X3004Y2820D02*
X2604Y2820D01*
D02*
X2604Y2820D02*
X2534Y2750D01*
D02*
X1504Y2678D02*
X1504Y2520D01*
D02*
X1504Y2520D02*
X2066Y2332D01*
D02*
X2003Y1053D02*
X2004Y1280D01*
D02*
X2203Y986D02*
X2204Y920D01*
D02*
X2204Y920D02*
X2804Y920D01*
D02*
X2804Y920D02*
X2804Y1120D01*
D02*
X2804Y1120D02*
X2504Y1420D01*
D02*
X2504Y1420D02*
X1904Y1420D01*
D02*
X1904Y1420D02*
X1904Y1360D01*
G04 End of Copper0*
M02*