; NON-PLATED HOLES START AT T1
; THROUGH (PLATED) HOLES START AT T100
M48
INCH
T100C0.040000
T101C0.022334
T102C0.035000
T103C0.125984
%
T100
X002037Y018197
X027037Y027197
X002037Y024197
X015037Y027197
X002037Y016197
X025037Y027197
X002037Y022197
X013037Y027197
X002037Y006197
X002037Y012197
X033037Y027197
X002037Y004197
X021037Y027197
X002037Y010197
X031037Y027197
X019037Y027197
T101
X026021Y001224
X016036Y010197
X022027Y010197
X012042Y010197
X022027Y001224
X016036Y001224
X017034Y010197
X023025Y010197
X012042Y001224
X013040Y010197
X023025Y001224
X017034Y001224
X018033Y010197
X024024Y010197
X013040Y001224
X024024Y001224
X018033Y001224
X025022Y010197
X019031Y010197
X014039Y010197
X020030Y010197
X025022Y001224
X019031Y001224
X014039Y001224
X021028Y010197
X015037Y010197
X026021Y010197
X020030Y001224
X021028Y001224
X015037Y001224
T102
X017037Y013197
X020037Y013197
X016037Y013197
X024037Y019197
X017037Y022197
X024037Y023197
X019037Y016197
X021037Y019197
X022037Y016197
X018037Y016197
X019037Y020197
X027037Y014197
X021037Y023197
X019037Y013197
X021037Y016197
X013037Y022197
X008037Y011197
X022037Y013197
X018037Y013197
X021037Y013197
X015037Y020197
X024209Y011369
X007037Y012197
X026037Y019197
X026037Y023197
X010866Y014026
X023037Y016197
X009866Y015026
X023037Y013197
X017037Y016197
X020037Y016197
X016037Y016197
T103
X001250Y028142
X001250Y000977
X035108Y028142
X035108Y000977
T00
M30
