solid Untitled-5e31b239
facet normal 0.999999999999893 4.62683992548946e-007 -5.67514662716033e-012
  outer loop
    vertex 20.44700982085 13.436619130986 0.0
    vertex 20.4470160377737 1.91312327095235e-005 4.67367149435108
    vertex 20.4470160377455 1.91312327095235e-005 7.14943515556445e-005
  endloop
endfacet
facet normal 0.999999999999893 4.62683992548946e-007 -5.67514662716033e-012
  outer loop
    vertex 20.4470160377737 1.91312327095235e-005 4.67367149435108
    vertex 20.44700982085 13.436619130986 0.0
    vertex 20.44700982085 13.436619130986 1.1684
  endloop
endfacet
facet normal -5.91206930434595e-007 0.999999999976713 -6.79888466931962e-006
  outer loop
    vertex 0.0 13.4365999997533 4.62669419221066e-011
    vertex 20.44700982085 13.436619130986 1.1684
    vertex 20.44700982085 13.436619130986 0.0
  endloop
endfacet
facet normal -5.91206930434595e-007 0.999999999976713 -6.79888466931962e-006
  outer loop
    vertex 20.44700982085 13.436619130986 1.1684
    vertex 0.0 13.4365999997533 4.62669419221066e-011
    vertex 0.0 13.436615887387 1.16840000004627
  endloop
endfacet
facet normal -0.999999999999893 -4.62683751233057e-007 7.52516001167457e-012
  outer loop
    vertex 6.21692376912009e-006 1.58876336790321e-005 4.67367149439735
    vertex 0.0 13.4365999997533 4.62669419221066e-011
    vertex 6.21689558990002e-006 0.0 7.14943978225864e-005
  endloop
endfacet
facet normal -0.999999999999893 -4.62683751233057e-007 7.52516001167457e-012
  outer loop
    vertex 0.0 13.4365999997533 4.62669419221066e-011
    vertex 6.21692376912009e-006 1.58876336790321e-005 4.67367149439735
    vertex 0.0 13.436615887387 1.16840000004627
  endloop
endfacet
facet normal 6.29146601155116e-012 -5.32086625752839e-006 -0.999999999985844
  outer loop
    vertex 20.44700982085 13.436619130986 0.0
    vertex 6.21689558990002e-006 0.0 7.14943978225864e-005
    vertex 0.0 13.4365999997533 4.62669419221066e-011
  endloop
endfacet
facet normal 6.29146601155116e-012 -5.32086625752839e-006 -0.999999999985844
  outer loop
    vertex 6.21689558990002e-006 0.0 7.14943978225864e-005
    vertex 20.44700982085 13.436619130986 0.0
    vertex 20.4470160377455 1.91312327095235e-005 7.14943515556445e-005
  endloop
endfacet
facet normal 5.91206929829543e-007 -0.999999999998381 1.69972116558699e-006
  outer loop
    vertex 20.4470160377737 1.91312327095235e-005 4.67367149435108
    vertex 6.21689558990002e-006 0.0 7.14943978225864e-005
    vertex 20.4470160377455 1.91312327095235e-005 7.14943515556445e-005
  endloop
endfacet
facet normal 5.91206929829543e-007 -0.999999999998381 1.69972116558699e-006
  outer loop
    vertex 6.21689558990002e-006 0.0 7.14943978225864e-005
    vertex 20.4470160377737 1.91312327095235e-005 4.67367149435108
    vertex 6.21692376912009e-006 1.58876336790321e-005 4.67367149439735
  endloop
endfacet
facet normal 1.19263515173804e-018 0.252426717654033 0.967616014860446
  outer loop
    vertex 6.21692376912009e-006 1.58876336790321e-005 4.67367149439735
    vertex 20.44700982085 13.436619130986 1.1684
    vertex 0.0 13.436615887387 1.16840000004627
  endloop
endfacet
facet normal 1.19263515173804e-018 0.252426717654033 0.967616014860446
  outer loop
    vertex 20.44700982085 13.436619130986 1.1684
    vertex 6.21692376912009e-006 1.58876336790321e-005 4.67367149439735
    vertex 20.4470160377737 1.91312327095235e-005 4.67367149435108
  endloop
endfacet
endsolid Untitled-5e31b239
