solid Untitled-5e31b2bd
facet normal -3.82856869892695e-016 -1.0 -4.16333634234434e-016
  outer loop
    vertex 5.06307009299831 -10.5156010695723 -3.75408037989189e-014
    vertex 5.06307009299831 -10.5156010695723 1.16839999999996
    vertex 4.47887009299831 -10.5156010695723 -3.73645558937596e-014
  endloop
endfacet
facet normal -3.82856869892695e-016 -1.0 -4.16333634234434e-016
  outer loop
    vertex 4.47887009299831 -10.5156010695723 1.16839999999996
    vertex 4.47887009299831 -10.5156010695723 -3.73645558937596e-014
    vertex 5.06307009299831 -10.5156010695723 1.16839999999996
  endloop
endfacet
facet normal 3.82856869892695e-016 -4.16333634234434e-016 1.0
  outer loop
    vertex 4.47887009299831 -10.5156010695723 1.16839999999996
    vertex 5.06307009299831 -10.5156010695723 1.16839999999996
    vertex 4.47887009299832 -1.7526010695723 1.16839999999997
  endloop
endfacet
facet normal 3.82856869892695e-016 -4.16333634234434e-016 1.0
  outer loop
    vertex 5.06307009299832 -1.7526010695723 1.16839999999997
    vertex 4.47887009299832 -1.7526010695723 1.16839999999997
    vertex 5.06307009299831 -10.5156010695723 1.16839999999996
  endloop
endfacet
facet normal 1.0 -3.82856869892695e-016 -3.82856869892695e-016
  outer loop
    vertex 5.06307009299832 -1.7526010695723 1.16839999999997
    vertex 5.06307009299831 -10.5156010695723 1.16839999999996
    vertex 5.06307009299832 -1.75260106957231 -3.38395977905748e-014
  endloop
endfacet
facet normal 1.0 -3.82856869892695e-016 -3.82856869892695e-016
  outer loop
    vertex 5.06307009299831 -10.5156010695723 -3.75408037989189e-014
    vertex 5.06307009299832 -1.75260106957231 -3.38395977905748e-014
    vertex 5.06307009299831 -10.5156010695723 1.16839999999996
  endloop
endfacet
facet normal -3.82856869892695e-016 4.16333634234434e-016 -1.0
  outer loop
    vertex 5.06307009299831 -10.5156010695723 -3.75408037989189e-014
    vertex 4.47887009299831 -10.5156010695723 -3.73645558937596e-014
    vertex 5.06307009299832 -1.75260106957231 -3.38395977905748e-014
  endloop
endfacet
facet normal -3.82856869892695e-016 4.16333634234434e-016 -1.0
  outer loop
    vertex 4.47887009299832 -1.75260106957231 -3.36633498854155e-014
    vertex 5.06307009299832 -1.75260106957231 -3.38395977905748e-014
    vertex 4.47887009299831 -10.5156010695723 -3.73645558937596e-014
  endloop
endfacet
facet normal 3.82856869892695e-016 1.0 4.16333634234434e-016
  outer loop
    vertex 5.06307009299832 -1.75260106957231 -3.38395977905748e-014
    vertex 4.47887009299832 -1.75260106957231 -3.36633498854155e-014
    vertex 5.06307009299832 -1.7526010695723 1.16839999999997
  endloop
endfacet
facet normal 3.82856869892695e-016 1.0 4.16333634234434e-016
  outer loop
    vertex 4.47887009299832 -1.7526010695723 1.16839999999997
    vertex 5.06307009299832 -1.7526010695723 1.16839999999997
    vertex 4.47887009299832 -1.75260106957231 -3.36633498854155e-014
  endloop
endfacet
facet normal -1.0 3.82856869892695e-016 3.82856869892695e-016
  outer loop
    vertex 4.47887009299831 -10.5156010695723 1.16839999999996
    vertex 4.47887009299832 -1.7526010695723 1.16839999999997
    vertex 4.47887009299831 -10.5156010695723 -3.73645558937596e-014
  endloop
endfacet
facet normal -1.0 3.82856869892695e-016 3.82856869892695e-016
  outer loop
    vertex 4.47887009299832 -1.75260106957231 -3.36633498854155e-014
    vertex 4.47887009299831 -10.5156010695723 -3.73645558937596e-014
    vertex 4.47887009299832 -1.7526010695723 1.16839999999997
  endloop
endfacet
facet normal -3.82856869892695e-016 -1.0 -4.16333634234434e-016
  outer loop
    vertex 3.11573513812712 -10.5156010695723 -3.75408037989189e-014
    vertex 3.11573513812712 -10.5156010695723 1.16839999999996
    vertex 2.53153513812712 -10.5156010695723 -3.73645558937596e-014
  endloop
endfacet
facet normal -3.82856869892695e-016 -1.0 -4.16333634234434e-016
  outer loop
    vertex 2.53153513812712 -10.5156010695723 1.16839999999996
    vertex 2.53153513812712 -10.5156010695723 -3.73645558937596e-014
    vertex 3.11573513812712 -10.5156010695723 1.16839999999996
  endloop
endfacet
facet normal 3.82856869892695e-016 -4.16333634234434e-016 1.0
  outer loop
    vertex 2.53153513812712 -10.5156010695723 1.16839999999996
    vertex 3.11573513812712 -10.5156010695723 1.16839999999996
    vertex 2.53153513812712 -1.7526010695723 1.16839999999997
  endloop
endfacet
facet normal 3.82856869892695e-016 -4.16333634234434e-016 1.0
  outer loop
    vertex 3.11573513812712 -1.7526010695723 1.16839999999997
    vertex 2.53153513812712 -1.7526010695723 1.16839999999997
    vertex 3.11573513812712 -10.5156010695723 1.16839999999996
  endloop
endfacet
facet normal 1.0 -3.82856869892695e-016 -3.82856869892695e-016
  outer loop
    vertex 3.11573513812712 -1.7526010695723 1.16839999999997
    vertex 3.11573513812712 -10.5156010695723 1.16839999999996
    vertex 3.11573513812712 -1.75260106957231 -3.38395977905748e-014
  endloop
endfacet
facet normal 1.0 -3.82856869892695e-016 -3.82856869892695e-016
  outer loop
    vertex 3.11573513812712 -10.5156010695723 -3.75408037989189e-014
    vertex 3.11573513812712 -1.75260106957231 -3.38395977905748e-014
    vertex 3.11573513812712 -10.5156010695723 1.16839999999996
  endloop
endfacet
facet normal -3.82856869892695e-016 4.16333634234434e-016 -1.0
  outer loop
    vertex 3.11573513812712 -10.5156010695723 -3.75408037989189e-014
    vertex 2.53153513812712 -10.5156010695723 -3.73645558937596e-014
    vertex 3.11573513812712 -1.75260106957231 -3.38395977905748e-014
  endloop
endfacet
facet normal -3.82856869892695e-016 4.16333634234434e-016 -1.0
  outer loop
    vertex 2.53153513812712 -1.75260106957231 -3.36633498854155e-014
    vertex 3.11573513812712 -1.75260106957231 -3.38395977905748e-014
    vertex 2.53153513812712 -10.5156010695723 -3.73645558937596e-014
  endloop
endfacet
facet normal 3.82856869892695e-016 1.0 4.16333634234434e-016
  outer loop
    vertex 3.11573513812712 -1.75260106957231 -3.38395977905748e-014
    vertex 2.53153513812712 -1.75260106957231 -3.36633498854155e-014
    vertex 3.11573513812712 -1.7526010695723 1.16839999999997
  endloop
endfacet
facet normal 3.82856869892695e-016 1.0 4.16333634234434e-016
  outer loop
    vertex 2.53153513812712 -1.7526010695723 1.16839999999997
    vertex 3.11573513812712 -1.7526010695723 1.16839999999997
    vertex 2.53153513812712 -1.75260106957231 -3.36633498854155e-014
  endloop
endfacet
facet normal -1.0 3.82856869892695e-016 3.82856869892695e-016
  outer loop
    vertex 2.53153513812712 -10.5156010695723 1.16839999999996
    vertex 2.53153513812712 -1.7526010695723 1.16839999999997
    vertex 2.53153513812712 -10.5156010695723 -3.73645558937596e-014
  endloop
endfacet
facet normal -1.0 3.82856869892695e-016 3.82856869892695e-016
  outer loop
    vertex 2.53153513812712 -1.75260106957231 -3.36633498854155e-014
    vertex 2.53153513812712 -10.5156010695723 -3.73645558937596e-014
    vertex 2.53153513812712 -1.7526010695723 1.16839999999997
  endloop
endfacet
facet normal -1.85974266989213e-014 -1.29228260427091e-015 1.0
  outer loop
    vertex 15.7734098208551 -9.0164326501787 1.16839999999986
    vertex 16.3576098208551 -8.66591265017869 1.1683999999999
    vertex 15.7734098208551 -0.447609488966031 1.1683999999999
  endloop
endfacet
facet normal -1.85974266989213e-014 -1.29228260427091e-015 1.0
  outer loop
    vertex 16.3576098208551 -0.0970894889660206 1.1683999999999
    vertex 15.7734098208551 -0.447609488966031 1.1683999999999
    vertex 16.3576098208551 -8.66591265017869 1.1683999999999
  endloop
endfacet
facet normal 1.0 -1.2110737332929e-016 -8.88178419700131e-016
  outer loop
    vertex 16.3576098208551 -0.0970894889660206 1.1683999999999
    vertex 16.3576098208551 -8.66591265017869 1.1683999999999
    vertex 16.3576098208551 -0.0970894889660206 -9.95800664149726e-014
  endloop
endfacet
facet normal 1.0 -1.2110737332929e-016 -8.88178419700131e-016
  outer loop
    vertex 16.3576098208551 -8.66591265017858 -3.68358121782819e-014
    vertex 16.3576098208551 -0.0970894889660206 -9.95800664149726e-014
    vertex 16.3576098208551 -8.66591265017869 1.1683999999999
  endloop
endfacet
facet normal -1.0 3.63322119987863e-016 8.88178419700143e-016
  outer loop
    vertex 15.7734098208551 -0.447609488966031 1.1683999999999
    vertex 15.7734098208551 -0.447609488966031 -9.95800664149726e-014
    vertex 15.7734098208551 -9.0164326501787 1.16839999999986
  endloop
endfacet
facet normal -1.0 3.63322119987863e-016 8.88178419700143e-016
  outer loop
    vertex 15.7734098208551 -9.01643265017858 -6.99704183482197e-014
    vertex 15.7734098208551 -9.0164326501787 1.16839999999986
    vertex 15.7734098208551 -0.447609488966031 -9.95800664149726e-014
  endloop
endfacet
facet normal -0.514495755427536 0.857492925712539 -2.38002097394813e-017
  outer loop
    vertex 16.3576098208551 -0.0970894889660206 1.1683999999999
    vertex 16.3576098208551 -0.0970894889660206 -9.95800664149726e-014
    vertex 15.7734098208551 -0.447609488966031 1.1683999999999
  endloop
endfacet
facet normal -0.514495755427536 0.857492925712539 -2.38002097394813e-017
  outer loop
    vertex 15.7734098208551 -0.447609488966031 -9.95800664149726e-014
    vertex 15.7734098208551 -0.447609488966031 1.1683999999999
    vertex 16.3576098208551 -0.0970894889660206 -9.95800664149726e-014
  endloop
endfacet
facet normal 3.19096017822875e-014 -5.39682028557145e-015 -1.0
  outer loop
    vertex 15.7734098208551 -9.01643265017858 -6.99704183482197e-014
    vertex 15.7734098208551 -0.447609488966031 -9.95800664149726e-014
    vertex 16.3576098208551 -8.66591265017858 -3.68358121782819e-014
  endloop
endfacet
facet normal 3.19096017822875e-014 -5.39682028557145e-015 -1.0
  outer loop
    vertex 16.3576098208551 -0.0970894889660206 -9.95800664149726e-014
    vertex 16.3576098208551 -8.66591265017858 -3.68358121782819e-014
    vertex 15.7734098208551 -0.447609488966031 -9.95800664149726e-014
  endloop
endfacet
facet normal 0.514495755427527 -0.857492925712544 -8.50524295250204e-014
  outer loop
    vertex 16.3576098208551 -8.66591265017869 1.1683999999999
    vertex 15.7734098208551 -9.0164326501787 1.16839999999986
    vertex 16.3576098208551 -8.66591265017858 -3.68358121782819e-014
  endloop
endfacet
facet normal 0.514495755427527 -0.857492925712544 -8.50524295250204e-014
  outer loop
    vertex 15.7734098208551 -9.01643265017858 -6.99704183482197e-014
    vertex 16.3576098208551 -8.66591265017858 -3.68358121782819e-014
    vertex 15.7734098208551 -9.0164326501787 1.16839999999986
  endloop
endfacet
facet normal -1.85974266989213e-014 -1.29228260427091e-015 1.0
  outer loop
    vertex 18.6944098208551 -7.26383265017869 1.16839999999986
    vertex 19.2786098208551 -6.91331265017869 1.1683999999999
    vertex 18.6944098208551 1.30499051103397 1.1683999999999
  endloop
endfacet
facet normal -1.85974266989213e-014 -1.29228260427091e-015 1.0
  outer loop
    vertex 19.2786098208551 1.65551051103398 1.1683999999999
    vertex 18.6944098208551 1.30499051103397 1.1683999999999
    vertex 19.2786098208551 -6.91331265017869 1.1683999999999
  endloop
endfacet
facet normal 1.0 -1.2110737332929e-016 -8.88178419700131e-016
  outer loop
    vertex 19.2786098208551 1.65551051103398 1.1683999999999
    vertex 19.2786098208551 -6.91331265017869 1.1683999999999
    vertex 19.2786098208551 1.65551051103398 -9.88750747943357e-014
  endloop
endfacet
facet normal 1.0 -1.2110737332929e-016 -8.88178419700131e-016
  outer loop
    vertex 19.2786098208551 -6.91331265017858 -3.61308205576449e-014
    vertex 19.2786098208551 1.65551051103398 -9.88750747943357e-014
    vertex 19.2786098208551 -6.91331265017869 1.1683999999999
  endloop
endfacet
facet normal -1.0 3.63322119987863e-016 8.88178419700143e-016
  outer loop
    vertex 18.6944098208551 1.30499051103397 1.1683999999999
    vertex 18.6944098208551 1.30499051103397 -9.88750747943357e-014
    vertex 18.6944098208551 -7.26383265017869 1.16839999999986
  endloop
endfacet
facet normal -1.0 3.63322119987863e-016 8.88178419700143e-016
  outer loop
    vertex 18.6944098208551 -7.26383265017858 -6.92654267275827e-014
    vertex 18.6944098208551 -7.26383265017869 1.16839999999986
    vertex 18.6944098208551 1.30499051103397 -9.88750747943357e-014
  endloop
endfacet
facet normal -0.514495755427536 0.857492925712539 -2.38002097394813e-017
  outer loop
    vertex 19.2786098208551 1.65551051103398 1.1683999999999
    vertex 19.2786098208551 1.65551051103398 -9.88750747943357e-014
    vertex 18.6944098208551 1.30499051103397 1.1683999999999
  endloop
endfacet
facet normal -0.514495755427536 0.857492925712539 -2.38002097394813e-017
  outer loop
    vertex 18.6944098208551 1.30499051103397 -9.88750747943357e-014
    vertex 18.6944098208551 1.30499051103397 1.1683999999999
    vertex 19.2786098208551 1.65551051103398 -9.88750747943357e-014
  endloop
endfacet
facet normal 3.19096017822875e-014 -5.39682028557145e-015 -1.0
  outer loop
    vertex 18.6944098208551 -7.26383265017858 -6.92654267275827e-014
    vertex 18.6944098208551 1.30499051103397 -9.88750747943357e-014
    vertex 19.2786098208551 -6.91331265017858 -3.61308205576449e-014
  endloop
endfacet
facet normal 3.19096017822875e-014 -5.39682028557145e-015 -1.0
  outer loop
    vertex 19.2786098208551 1.65551051103398 -9.88750747943357e-014
    vertex 19.2786098208551 -6.91331265017858 -3.61308205576449e-014
    vertex 18.6944098208551 1.30499051103397 -9.88750747943357e-014
  endloop
endfacet
facet normal 0.514495755427527 -0.857492925712544 -8.50524295250204e-014
  outer loop
    vertex 19.2786098208551 -6.91331265017869 1.1683999999999
    vertex 18.6944098208551 -7.26383265017869 1.16839999999986
    vertex 19.2786098208551 -6.91331265017858 -3.61308205576449e-014
  endloop
endfacet
facet normal 0.514495755427527 -0.857492925712544 -8.50524295250204e-014
  outer loop
    vertex 18.6944098208551 -7.26383265017858 -6.92654267275827e-014
    vertex 19.2786098208551 -6.91331265017858 -3.61308205576449e-014
    vertex 18.6944098208551 -7.26383265017869 1.16839999999986
  endloop
endfacet
facet normal 0.0 -1.0 -4.16333634234434e-016
  outer loop
    vertex 0.0 -23.6874853734069 1.16839999999999
    vertex 0.0 -23.6874853734069 -9.86988268891764e-015
    vertex 1.1684 -23.6874853734069 1.16839999999999
  endloop
endfacet
facet normal 0.0 -1.0 -4.16333634234434e-016
  outer loop
    vertex 1.1684 -23.6874853734069 -9.86988268891764e-015
    vertex 1.1684 -23.6874853734069 1.16839999999999
    vertex 0.0 -23.6874853734069 -9.86988268891764e-015
  endloop
endfacet
facet normal -1.0 0.0 -0.0
  outer loop
    vertex 0.0 -23.6874853734069 1.16839999999999
    vertex 0.0 -3.52495810318487e-015 1.1684
    vertex 0.0 -23.6874853734069 -9.86988268891764e-015
  endloop
endfacet
facet normal -1.0 0.0 -0.0
  outer loop
    vertex 0.0 -3.03851388494536e-015 0.0
    vertex 0.0 -23.6874853734069 -9.86988268891764e-015
    vertex 0.0 -3.52495810318487e-015 1.1684
  endloop
endfacet
facet normal -0.0 -4.16333634234434e-016 1.0
  outer loop
    vertex 1.1684 -3.52495810318487e-015 1.1684
    vertex 0.0 -3.52495810318487e-015 1.1684
    vertex 1.1684 -23.6874853734069 1.16839999999999
  endloop
endfacet
facet normal -0.0 -4.16333634234434e-016 1.0
  outer loop
    vertex 0.0 -23.6874853734069 1.16839999999999
    vertex 1.1684 -23.6874853734069 1.16839999999999
    vertex 0.0 -3.52495810318487e-015 1.1684
  endloop
endfacet
facet normal 0.0 4.16333634234434e-016 -1.0
  outer loop
    vertex 0.0 -3.03851388494536e-015 0.0
    vertex 1.1684 -3.03851388494536e-015 0.0
    vertex 0.0 -23.6874853734069 -9.86988268891764e-015
  endloop
endfacet
facet normal 0.0 4.16333634234434e-016 -1.0
  outer loop
    vertex 1.1684 -23.6874853734069 -9.86988268891764e-015
    vertex 0.0 -23.6874853734069 -9.86988268891764e-015
    vertex 1.1684 -3.03851388494536e-015 0.0
  endloop
endfacet
facet normal 1.0 0.0 0.0
  outer loop
    vertex 1.1684 -3.52495810318487e-015 1.1684
    vertex 1.1684 -23.6874853734069 1.16839999999999
    vertex 1.1684 -3.03851388494536e-015 0.0
  endloop
endfacet
facet normal 1.0 0.0 0.0
  outer loop
    vertex 1.1684 -23.6874853734069 -9.86988268891764e-015
    vertex 1.1684 -3.03851388494536e-015 0.0
    vertex 1.1684 -23.6874853734069 1.16839999999999
  endloop
endfacet
facet normal 0.0 1.0 4.16333634234434e-016
  outer loop
    vertex 0.0 -3.03851388494536e-015 0.0
    vertex 0.0 -3.52495810318487e-015 1.1684
    vertex 1.1684 -3.03851388494536e-015 0.0
  endloop
endfacet
facet normal 0.0 1.0 4.16333634234434e-016
  outer loop
    vertex 1.1684 -3.52495810318487e-015 1.1684
    vertex 1.1684 -3.03851388494536e-015 0.0
    vertex 0.0 -3.52495810318487e-015 1.1684
  endloop
endfacet
facet normal 0.0 -1.0 -4.16333634234434e-016
  outer loop
    vertex 21.0312098208551 -7.12724106957233 1.16839999999993
    vertex 21.0312098208551 -7.12724106957233 -6.9441674632742e-014
    vertex 22.1996098208551 -7.12724106957233 1.16839999999993
  endloop
endfacet
facet normal 0.0 -1.0 -4.16333634234434e-016
  outer loop
    vertex 22.1996098208551 -7.12724106957233 -6.9441674632742e-014
    vertex 22.1996098208551 -7.12724106957233 1.16839999999993
    vertex 21.0312098208551 -7.12724106957233 -6.9441674632742e-014
  endloop
endfacet
facet normal -1.0 0.0 -0.0
  outer loop
    vertex 21.0312098208551 -7.12724106957233 1.16839999999993
    vertex 21.0312098208551 5.25779967643983 1.16839999999994
    vertex 21.0312098208551 -7.12724106957233 -6.9441674632742e-014
  endloop
endfacet
facet normal -1.0 0.0 -0.0
  outer loop
    vertex 21.0312098208551 5.25779967643983 -6.43304853831239e-014
    vertex 21.0312098208551 -7.12724106957233 -6.9441674632742e-014
    vertex 21.0312098208551 5.25779967643983 1.16839999999994
  endloop
endfacet
facet normal -0.0 -4.16333634234434e-016 1.0
  outer loop
    vertex 22.1996098208551 5.25779967643983 1.16839999999994
    vertex 21.0312098208551 5.25779967643983 1.16839999999994
    vertex 22.1996098208551 -7.12724106957233 1.16839999999993
  endloop
endfacet
facet normal -0.0 -4.16333634234434e-016 1.0
  outer loop
    vertex 21.0312098208551 -7.12724106957233 1.16839999999993
    vertex 22.1996098208551 -7.12724106957233 1.16839999999993
    vertex 21.0312098208551 5.25779967643983 1.16839999999994
  endloop
endfacet
facet normal 0.0 4.16333634234434e-016 -1.0
  outer loop
    vertex 21.0312098208551 5.25779967643983 -6.43304853831239e-014
    vertex 22.1996098208551 5.25779967643983 -6.43304853831239e-014
    vertex 21.0312098208551 -7.12724106957233 -6.9441674632742e-014
  endloop
endfacet
facet normal 0.0 4.16333634234434e-016 -1.0
  outer loop
    vertex 22.1996098208551 -7.12724106957233 -6.9441674632742e-014
    vertex 21.0312098208551 -7.12724106957233 -6.9441674632742e-014
    vertex 22.1996098208551 5.25779967643983 -6.43304853831239e-014
  endloop
endfacet
facet normal 1.0 0.0 0.0
  outer loop
    vertex 22.1996098208551 5.25779967643983 1.16839999999994
    vertex 22.1996098208551 -7.12724106957233 1.16839999999993
    vertex 22.1996098208551 5.25779967643983 -6.43304853831239e-014
  endloop
endfacet
facet normal 1.0 0.0 0.0
  outer loop
    vertex 22.1996098208551 -7.12724106957233 -6.9441674632742e-014
    vertex 22.1996098208551 5.25779967643983 -6.43304853831239e-014
    vertex 22.1996098208551 -7.12724106957233 1.16839999999993
  endloop
endfacet
facet normal 0.0 1.0 4.16333634234434e-016
  outer loop
    vertex 21.0312098208551 5.25779967643983 -6.43304853831239e-014
    vertex 21.0312098208551 5.25779967643983 1.16839999999994
    vertex 22.1996098208551 5.25779967643983 -6.43304853831239e-014
  endloop
endfacet
facet normal 0.0 1.0 4.16333634234434e-016
  outer loop
    vertex 22.1996098208551 5.25779967643983 1.16839999999994
    vertex 22.1996098208551 5.25779967643983 -6.43304853831239e-014
    vertex 21.0312098208551 5.25779967643983 1.16839999999994
  endloop
endfacet
facet normal 4.60548319326122e-014 -7.35305779539207e-014 1.0
  outer loop
    vertex 21.0312098208552 3.38835893042762 1.16840000000023
    vertex 13.4366098208552 -1.1684010695724 1.16840000000027
    vertex 21.0312098208552 2.70707051103389 1.1684000000002
  endloop
endfacet
facet normal 4.60548319326122e-014 -7.35305779539207e-014 1.0
  outer loop
    vertex 13.4366098208552 -1.84968948896613 1.1684000000002
    vertex 21.0312098208552 2.70707051103389 1.1684000000002
    vertex 13.4366098208552 -1.1684010695724 1.16840000000027
  endloop
endfacet
facet normal -4.60548319326122e-014 7.35305779539207e-014 -1.0
  outer loop
    vertex 21.0312098208551 3.38835893042771 -6.50354770037609e-014
    vertex 21.0312098208551 2.70707051103398 -9.86988268891764e-014
    vertex 13.4366098208551 -1.16840106957231 -3.38395977905748e-014
  endloop
endfacet
facet normal -4.60548319326122e-014 7.35305779539207e-014 -1.0
  outer loop
    vertex 13.4366098208551 -1.84968948896604 -1.00461305940769e-013
    vertex 13.4366098208551 -1.16840106957231 -3.38395977905748e-014
    vertex 21.0312098208551 2.70707051103398 -9.86988268891764e-014
  endloop
endfacet
facet normal -1.0 1.5232134233223e-015 4.60548319326123e-014
  outer loop
    vertex 13.4366098208552 -1.1684010695724 1.16840000000027
    vertex 13.4366098208551 -1.16840106957231 -3.38395977905748e-014
    vertex 13.4366098208552 -1.84968948896613 1.1684000000002
  endloop
endfacet
facet normal -1.0 1.5232134233223e-015 4.60548319326123e-014
  outer loop
    vertex 13.4366098208551 -1.84968948896604 -1.00461305940769e-013
    vertex 13.4366098208552 -1.84968948896613 1.1684000000002
    vertex 13.4366098208551 -1.16840106957231 -3.38395977905748e-014
  endloop
endfacet
facet normal 0.514495755427528 -0.857492925712543 -8.67469659652989e-014
  outer loop
    vertex 13.4366098208551 -1.84968948896604 -1.00461305940769e-013
    vertex 21.0312098208551 2.70707051103398 -9.86988268891764e-014
    vertex 13.4366098208552 -1.84968948896613 1.1684000000002
  endloop
endfacet
facet normal 0.514495755427528 -0.857492925712543 -8.67469659652989e-014
  outer loop
    vertex 21.0312098208552 2.70707051103389 1.1684000000002
    vertex 13.4366098208552 -1.84968948896613 1.1684000000002
    vertex 21.0312098208551 2.70707051103398 -9.86988268891764e-014
  endloop
endfacet
facet normal -0.514495755427528 0.857492925712543 8.67469659652989e-014
  outer loop
    vertex 13.4366098208551 -1.16840106957231 -3.38395977905748e-014
    vertex 13.4366098208552 -1.1684010695724 1.16840000000027
    vertex 21.0312098208551 3.38835893042771 -6.50354770037609e-014
  endloop
endfacet
facet normal -0.514495755427528 0.857492925712543 8.67469659652989e-014
  outer loop
    vertex 21.0312098208552 3.38835893042762 1.16840000000023
    vertex 21.0312098208551 3.38835893042771 -6.50354770037609e-014
    vertex 13.4366098208552 -1.1684010695724 1.16840000000027
  endloop
endfacet
facet normal 1.0 -3.04642684665135e-015 -4.60548319326125e-014
  outer loop
    vertex 21.0312098208552 3.38835893042762 1.16840000000023
    vertex 21.0312098208552 2.70707051103389 1.1684000000002
    vertex 21.0312098208551 3.38835893042771 -6.50354770037609e-014
  endloop
endfacet
facet normal 1.0 -3.04642684665135e-015 -4.60548319326125e-014
  outer loop
    vertex 21.0312098208551 2.70707051103398 -9.86988268891764e-014
    vertex 21.0312098208551 3.38835893042771 -6.50354770037609e-014
    vertex 21.0312098208552 2.70707051103389 1.1684000000002
  endloop
endfacet
facet normal 4.60548319326122e-014 -7.35305779539207e-014 1.0
  outer loop
    vertex 21.0312098208552 -5.86175265017866 1.16840000000026
    vertex 13.4366098208552 -10.4185126501787 1.16840000000029
    vertex 21.0312098208552 -6.54304106957238 1.16840000000023
  endloop
endfacet
facet normal 4.60548319326122e-014 -7.35305779539207e-014 1.0
  outer loop
    vertex 13.4366098208552 -11.0998010695724 1.16840000000023
    vertex 21.0312098208552 -6.54304106957238 1.16840000000023
    vertex 13.4366098208552 -10.4185126501787 1.16840000000029
  endloop
endfacet
facet normal -4.60548319326122e-014 7.35305779539207e-014 -1.0
  outer loop
    vertex 21.0312098208551 -5.86175265017857 -3.56020768421672e-014
    vertex 21.0312098208551 -6.5430410695723 -6.92654267275827e-014
    vertex 13.4366098208551 -10.4185126501786 -4.40619762898109e-015
  endloop
endfacet
facet normal -4.60548319326122e-014 7.35305779539207e-014 -1.0
  outer loop
    vertex 13.4366098208551 -11.0998010695723 -7.10279057791752e-014
    vertex 13.4366098208551 -10.4185126501786 -4.40619762898109e-015
    vertex 21.0312098208551 -6.5430410695723 -6.92654267275827e-014
  endloop
endfacet
facet normal -1.0 1.5232134233223e-015 4.60548319326123e-014
  outer loop
    vertex 13.4366098208552 -10.4185126501787 1.16840000000029
    vertex 13.4366098208551 -10.4185126501786 -4.40619762898109e-015
    vertex 13.4366098208552 -11.0998010695724 1.16840000000023
  endloop
endfacet
facet normal -1.0 1.5232134233223e-015 4.60548319326123e-014
  outer loop
    vertex 13.4366098208551 -11.0998010695723 -7.10279057791752e-014
    vertex 13.4366098208552 -11.0998010695724 1.16840000000023
    vertex 13.4366098208551 -10.4185126501786 -4.40619762898109e-015
  endloop
endfacet
facet normal 0.514495755427528 -0.857492925712543 -8.67469659652989e-014
  outer loop
    vertex 13.4366098208551 -11.0998010695723 -7.10279057791752e-014
    vertex 21.0312098208551 -6.5430410695723 -6.92654267275827e-014
    vertex 13.4366098208552 -11.0998010695724 1.16840000000023
  endloop
endfacet
facet normal 0.514495755427528 -0.857492925712543 -8.67469659652989e-014
  outer loop
    vertex 21.0312098208552 -6.54304106957238 1.16840000000023
    vertex 13.4366098208552 -11.0998010695724 1.16840000000023
    vertex 21.0312098208551 -6.5430410695723 -6.92654267275827e-014
  endloop
endfacet
facet normal -0.514495755427528 0.857492925712543 8.67469659652989e-014
  outer loop
    vertex 13.4366098208551 -10.4185126501786 -4.40619762898109e-015
    vertex 13.4366098208552 -10.4185126501787 1.16840000000029
    vertex 21.0312098208551 -5.86175265017857 -3.56020768421672e-014
  endloop
endfacet
facet normal -0.514495755427528 0.857492925712543 8.67469659652989e-014
  outer loop
    vertex 21.0312098208552 -5.86175265017866 1.16840000000026
    vertex 21.0312098208551 -5.86175265017857 -3.56020768421672e-014
    vertex 13.4366098208552 -10.4185126501787 1.16840000000029
  endloop
endfacet
facet normal 1.0 -3.04642684665135e-015 -4.60548319326125e-014
  outer loop
    vertex 21.0312098208552 -5.86175265017866 1.16840000000026
    vertex 21.0312098208552 -6.54304106957238 1.16840000000023
    vertex 21.0312098208551 -5.86175265017857 -3.56020768421672e-014
  endloop
endfacet
facet normal 1.0 -3.04642684665135e-015 -4.60548319326125e-014
  outer loop
    vertex 21.0312098208551 -6.5430410695723 -6.92654267275827e-014
    vertex 21.0312098208551 -5.86175265017857 -3.56020768421672e-014
    vertex 21.0312098208552 -6.54304106957238 1.16840000000023
  endloop
endfacet
facet normal 1.0 1.59396192034045e-031 -3.82856869892695e-016
  outer loop
    vertex 12.2682098208551 -10.5156010695723 -3.84220433247151e-014
    vertex 12.2682098208551 -10.5156010695723 1.16839999999996
    vertex 12.2682098208551 -11.0998010695723 -3.85982912298743e-014
  endloop
endfacet
facet normal 1.0 1.59396192034045e-031 -3.82856869892695e-016
  outer loop
    vertex 12.2682098208551 -11.0998010695723 1.16839999999996
    vertex 12.2682098208551 -11.0998010695723 -3.85982912298743e-014
    vertex 12.2682098208551 -10.5156010695723 1.16839999999996
  endloop
endfacet
facet normal 3.82856869892695e-016 -4.16333634234434e-016 1.0
  outer loop
    vertex 12.2682098208551 -11.0998010695723 1.16839999999996
    vertex 12.2682098208551 -10.5156010695723 1.16839999999996
    vertex 1.16840018325592 -11.0998010695723 1.16839999999997
  endloop
endfacet
facet normal 3.82856869892695e-016 -4.16333634234434e-016 1.0
  outer loop
    vertex 1.16840018325592 -10.5156010695723 1.16839999999997
    vertex 1.16840018325592 -11.0998010695723 1.16839999999997
    vertex 12.2682098208551 -10.5156010695723 1.16839999999996
  endloop
endfacet
facet normal 0.0 1.0 4.16333634234434e-016
  outer loop
    vertex 1.16840018325592 -10.5156010695723 1.16839999999997
    vertex 12.2682098208551 -10.5156010695723 1.16839999999996
    vertex 1.16840018325592 -10.5156010695723 -3.41920936008933e-014
  endloop
endfacet
facet normal 0.0 1.0 4.16333634234434e-016
  outer loop
    vertex 12.2682098208551 -10.5156010695723 -3.84220433247151e-014
    vertex 1.16840018325592 -10.5156010695723 -3.41920936008933e-014
    vertex 12.2682098208551 -10.5156010695723 1.16839999999996
  endloop
endfacet
facet normal -3.82856869892695e-016 4.16333634234434e-016 -1.0
  outer loop
    vertex 12.2682098208551 -10.5156010695723 -3.84220433247151e-014
    vertex 12.2682098208551 -11.0998010695723 -3.85982912298743e-014
    vertex 1.16840018325592 -10.5156010695723 -3.41920936008933e-014
  endloop
endfacet
facet normal -3.82856869892695e-016 4.16333634234434e-016 -1.0
  outer loop
    vertex 1.16840018325592 -11.0998010695723 -3.43683415060525e-014
    vertex 1.16840018325592 -10.5156010695723 -3.41920936008933e-014
    vertex 12.2682098208551 -11.0998010695723 -3.85982912298743e-014
  endloop
endfacet
facet normal -1.0 -1.59396192034045e-031 3.82856869892695e-016
  outer loop
    vertex 1.16840018325592 -10.5156010695723 1.16839999999997
    vertex 1.16840018325592 -10.5156010695723 -3.41920936008933e-014
    vertex 1.16840018325592 -11.0998010695723 1.16839999999997
  endloop
endfacet
facet normal -1.0 -1.59396192034045e-031 3.82856869892695e-016
  outer loop
    vertex 1.16840018325592 -11.0998010695723 -3.43683415060525e-014
    vertex 1.16840018325592 -11.0998010695723 1.16839999999997
    vertex 1.16840018325592 -10.5156010695723 -3.41920936008933e-014
  endloop
endfacet
facet normal 0.0 -1.0 -4.16333634234434e-016
  outer loop
    vertex 12.2682098208551 -11.0998010695723 1.16839999999996
    vertex 1.16840018325592 -11.0998010695723 1.16839999999997
    vertex 12.2682098208551 -11.0998010695723 -3.85982912298743e-014
  endloop
endfacet
facet normal 0.0 -1.0 -4.16333634234434e-016
  outer loop
    vertex 1.16840018325592 -11.0998010695723 -3.43683415060525e-014
    vertex 12.2682098208551 -11.0998010695723 -3.85982912298743e-014
    vertex 1.16840018325592 -11.0998010695723 1.16839999999997
  endloop
endfacet
facet normal 1.0 1.59396192034045e-031 -3.82856869892695e-016
  outer loop
    vertex 12.2682099124831 -1.16840106957231 -3.45445894112117e-014
    vertex 12.2682099124831 -1.16840106957231 1.16839999999997
    vertex 12.2682099124831 -1.75260106957231 -3.4720837316371e-014
  endloop
endfacet
facet normal 1.0 1.59396192034045e-031 -3.82856869892695e-016
  outer loop
    vertex 12.2682099124831 -1.75260106957231 1.16839999999997
    vertex 12.2682099124831 -1.75260106957231 -3.4720837316371e-014
    vertex 12.2682099124831 -1.16840106957231 1.16839999999997
  endloop
endfacet
facet normal 3.82856869892695e-016 -4.16333634234434e-016 1.0
  outer loop
    vertex 12.2682099124831 -1.75260106957231 1.16839999999997
    vertex 12.2682099124831 -1.16840106957231 1.16839999999997
    vertex 1.16840027488388 -1.75260106957231 1.16839999999997
  endloop
endfacet
facet normal 3.82856869892695e-016 -4.16333634234434e-016 1.0
  outer loop
    vertex 1.16840027488388 -1.16840106957231 1.16839999999997
    vertex 1.16840027488388 -1.75260106957231 1.16839999999997
    vertex 12.2682099124831 -1.16840106957231 1.16839999999997
  endloop
endfacet
facet normal 0.0 1.0 4.16333634234434e-016
  outer loop
    vertex 1.16840027488388 -1.16840106957231 1.16839999999997
    vertex 12.2682099124831 -1.16840106957231 1.16839999999997
    vertex 1.16840027488389 -1.16840106957231 -3.03146396873899e-014
  endloop
endfacet
facet normal 0.0 1.0 4.16333634234434e-016
  outer loop
    vertex 12.2682099124831 -1.16840106957231 -3.45445894112117e-014
    vertex 1.16840027488389 -1.16840106957231 -3.03146396873899e-014
    vertex 12.2682099124831 -1.16840106957231 1.16839999999997
  endloop
endfacet
facet normal -3.82856869892695e-016 4.16333634234434e-016 -1.0
  outer loop
    vertex 12.2682099124831 -1.16840106957231 -3.45445894112117e-014
    vertex 12.2682099124831 -1.75260106957231 -3.4720837316371e-014
    vertex 1.16840027488389 -1.16840106957231 -3.03146396873899e-014
  endloop
endfacet
facet normal -3.82856869892695e-016 4.16333634234434e-016 -1.0
  outer loop
    vertex 1.16840027488389 -1.75260106957231 -3.04908875925491e-014
    vertex 1.16840027488389 -1.16840106957231 -3.03146396873899e-014
    vertex 12.2682099124831 -1.75260106957231 -3.4720837316371e-014
  endloop
endfacet
facet normal -1.0 -1.59396192034045e-031 3.82856869892695e-016
  outer loop
    vertex 1.16840027488388 -1.16840106957231 1.16839999999997
    vertex 1.16840027488389 -1.16840106957231 -3.03146396873899e-014
    vertex 1.16840027488388 -1.75260106957231 1.16839999999997
  endloop
endfacet
facet normal -1.0 -1.59396192034045e-031 3.82856869892695e-016
  outer loop
    vertex 1.16840027488389 -1.75260106957231 -3.04908875925491e-014
    vertex 1.16840027488388 -1.75260106957231 1.16839999999997
    vertex 1.16840027488389 -1.16840106957231 -3.03146396873899e-014
  endloop
endfacet
facet normal 0.0 -1.0 -4.16333634234434e-016
  outer loop
    vertex 12.2682099124831 -1.75260106957231 1.16839999999997
    vertex 1.16840027488388 -1.75260106957231 1.16839999999997
    vertex 12.2682099124831 -1.75260106957231 -3.4720837316371e-014
  endloop
endfacet
facet normal 0.0 -1.0 -4.16333634234434e-016
  outer loop
    vertex 1.16840027488389 -1.75260106957231 -3.04908875925491e-014
    vertex 12.2682099124831 -1.75260106957231 -3.4720837316371e-014
    vertex 1.16840027488388 -1.75260106957231 1.16839999999997
  endloop
endfacet
facet normal -3.82856869892695e-016 -1.0 -4.16333634234434e-016
  outer loop
    vertex 8.9577400027407 -10.5156010695723 -3.75408037989189e-014
    vertex 8.9577400027407 -10.5156010695723 1.16839999999996
    vertex 8.3735400027407 -10.5156010695723 -3.73645558937596e-014
  endloop
endfacet
facet normal -3.82856869892695e-016 -1.0 -4.16333634234434e-016
  outer loop
    vertex 8.3735400027407 -10.5156010695723 1.16839999999996
    vertex 8.3735400027407 -10.5156010695723 -3.73645558937596e-014
    vertex 8.9577400027407 -10.5156010695723 1.16839999999996
  endloop
endfacet
facet normal 3.82856869892695e-016 -4.16333634234434e-016 1.0
  outer loop
    vertex 8.3735400027407 -10.5156010695723 1.16839999999996
    vertex 8.9577400027407 -10.5156010695723 1.16839999999996
    vertex 8.3735400027407 -1.75260106957231 1.16839999999997
  endloop
endfacet
facet normal 3.82856869892695e-016 -4.16333634234434e-016 1.0
  outer loop
    vertex 8.9577400027407 -1.75260106957231 1.16839999999997
    vertex 8.3735400027407 -1.75260106957231 1.16839999999997
    vertex 8.9577400027407 -10.5156010695723 1.16839999999996
  endloop
endfacet
facet normal 1.0 -3.82856869892695e-016 -3.82856869892695e-016
  outer loop
    vertex 8.9577400027407 -1.75260106957231 1.16839999999997
    vertex 8.9577400027407 -10.5156010695723 1.16839999999996
    vertex 8.9577400027407 -1.75260106957231 -3.38395977905748e-014
  endloop
endfacet
facet normal 1.0 -3.82856869892695e-016 -3.82856869892695e-016
  outer loop
    vertex 8.9577400027407 -10.5156010695723 -3.75408037989189e-014
    vertex 8.9577400027407 -1.75260106957231 -3.38395977905748e-014
    vertex 8.9577400027407 -10.5156010695723 1.16839999999996
  endloop
endfacet
facet normal -3.82856869892695e-016 4.16333634234434e-016 -1.0
  outer loop
    vertex 8.9577400027407 -10.5156010695723 -3.75408037989189e-014
    vertex 8.3735400027407 -10.5156010695723 -3.73645558937596e-014
    vertex 8.9577400027407 -1.75260106957231 -3.38395977905748e-014
  endloop
endfacet
facet normal -3.82856869892695e-016 4.16333634234434e-016 -1.0
  outer loop
    vertex 8.3735400027407 -1.75260106957231 -3.36633498854155e-014
    vertex 8.9577400027407 -1.75260106957231 -3.38395977905748e-014
    vertex 8.3735400027407 -10.5156010695723 -3.73645558937596e-014
  endloop
endfacet
facet normal 3.82856869892695e-016 1.0 4.16333634234434e-016
  outer loop
    vertex 8.9577400027407 -1.75260106957231 -3.38395977905748e-014
    vertex 8.3735400027407 -1.75260106957231 -3.36633498854155e-014
    vertex 8.9577400027407 -1.75260106957231 1.16839999999997
  endloop
endfacet
facet normal 3.82856869892695e-016 1.0 4.16333634234434e-016
  outer loop
    vertex 8.3735400027407 -1.75260106957231 1.16839999999997
    vertex 8.9577400027407 -1.75260106957231 1.16839999999997
    vertex 8.3735400027407 -1.75260106957231 -3.36633498854155e-014
  endloop
endfacet
facet normal -1.0 3.82856869892695e-016 3.82856869892695e-016
  outer loop
    vertex 8.3735400027407 -10.5156010695723 1.16839999999996
    vertex 8.3735400027407 -1.75260106957231 1.16839999999997
    vertex 8.3735400027407 -10.5156010695723 -3.73645558937596e-014
  endloop
endfacet
facet normal -1.0 3.82856869892695e-016 3.82856869892695e-016
  outer loop
    vertex 8.3735400027407 -1.75260106957231 -3.36633498854155e-014
    vertex 8.3735400027407 -10.5156010695723 -3.73645558937596e-014
    vertex 8.3735400027407 -1.75260106957231 1.16839999999997
  endloop
endfacet
facet normal -3.82856869892695e-016 -1.0 -4.16333634234434e-016
  outer loop
    vertex 10.9050749576119 -10.5156010695723 -3.75408037989189e-014
    vertex 10.9050749576119 -10.5156010695723 1.16839999999996
    vertex 10.3208749576119 -10.5156010695723 -3.73645558937596e-014
  endloop
endfacet
facet normal -3.82856869892695e-016 -1.0 -4.16333634234434e-016
  outer loop
    vertex 10.3208749576119 -10.5156010695723 1.16839999999996
    vertex 10.3208749576119 -10.5156010695723 -3.73645558937596e-014
    vertex 10.9050749576119 -10.5156010695723 1.16839999999996
  endloop
endfacet
facet normal 3.82856869892695e-016 -4.16333634234434e-016 1.0
  outer loop
    vertex 10.3208749576119 -10.5156010695723 1.16839999999996
    vertex 10.9050749576119 -10.5156010695723 1.16839999999996
    vertex 10.3208749576119 -1.75260106957231 1.16839999999997
  endloop
endfacet
facet normal 3.82856869892695e-016 -4.16333634234434e-016 1.0
  outer loop
    vertex 10.9050749576119 -1.75260106957231 1.16839999999997
    vertex 10.3208749576119 -1.75260106957231 1.16839999999997
    vertex 10.9050749576119 -10.5156010695723 1.16839999999996
  endloop
endfacet
facet normal 1.0 -3.82856869892695e-016 -3.82856869892695e-016
  outer loop
    vertex 10.9050749576119 -1.75260106957231 1.16839999999997
    vertex 10.9050749576119 -10.5156010695723 1.16839999999996
    vertex 10.9050749576119 -1.75260106957231 -3.38395977905748e-014
  endloop
endfacet
facet normal 1.0 -3.82856869892695e-016 -3.82856869892695e-016
  outer loop
    vertex 10.9050749576119 -10.5156010695723 -3.75408037989189e-014
    vertex 10.9050749576119 -1.75260106957231 -3.38395977905748e-014
    vertex 10.9050749576119 -10.5156010695723 1.16839999999996
  endloop
endfacet
facet normal -3.82856869892695e-016 4.16333634234434e-016 -1.0
  outer loop
    vertex 10.9050749576119 -10.5156010695723 -3.75408037989189e-014
    vertex 10.3208749576119 -10.5156010695723 -3.73645558937596e-014
    vertex 10.9050749576119 -1.75260106957231 -3.38395977905748e-014
  endloop
endfacet
facet normal -3.82856869892695e-016 4.16333634234434e-016 -1.0
  outer loop
    vertex 10.3208749576119 -1.75260106957231 -3.36633498854155e-014
    vertex 10.9050749576119 -1.75260106957231 -3.38395977905748e-014
    vertex 10.3208749576119 -10.5156010695723 -3.73645558937596e-014
  endloop
endfacet
facet normal 3.82856869892695e-016 1.0 4.16333634234434e-016
  outer loop
    vertex 10.9050749576119 -1.75260106957231 -3.38395977905748e-014
    vertex 10.3208749576119 -1.75260106957231 -3.36633498854155e-014
    vertex 10.9050749576119 -1.75260106957231 1.16839999999997
  endloop
endfacet
facet normal 3.82856869892695e-016 1.0 4.16333634234434e-016
  outer loop
    vertex 10.3208749576119 -1.75260106957231 1.16839999999997
    vertex 10.9050749576119 -1.75260106957231 1.16839999999997
    vertex 10.3208749576119 -1.75260106957231 -3.36633498854155e-014
  endloop
endfacet
facet normal -1.0 3.82856869892695e-016 3.82856869892695e-016
  outer loop
    vertex 10.3208749576119 -10.5156010695723 1.16839999999996
    vertex 10.3208749576119 -1.75260106957231 1.16839999999997
    vertex 10.3208749576119 -10.5156010695723 -3.73645558937596e-014
  endloop
endfacet
facet normal -1.0 3.82856869892695e-016 3.82856869892695e-016
  outer loop
    vertex 10.3208749576119 -1.75260106957231 -3.36633498854155e-014
    vertex 10.3208749576119 -10.5156010695723 -3.73645558937596e-014
    vertex 10.3208749576119 -1.75260106957231 1.16839999999997
  endloop
endfacet
facet normal -3.82856869892695e-016 -1.0 -4.16333634234434e-016
  outer loop
    vertex 7.01040504786951 -10.5156010695723 -3.75408037989189e-014
    vertex 7.01040504786951 -10.5156010695723 1.16839999999996
    vertex 6.42620504786951 -10.5156010695723 -3.73645558937596e-014
  endloop
endfacet
facet normal -3.82856869892695e-016 -1.0 -4.16333634234434e-016
  outer loop
    vertex 6.42620504786951 -10.5156010695723 1.16839999999996
    vertex 6.42620504786951 -10.5156010695723 -3.73645558937596e-014
    vertex 7.01040504786951 -10.5156010695723 1.16839999999996
  endloop
endfacet
facet normal 3.82856869892695e-016 -4.16333634234434e-016 1.0
  outer loop
    vertex 6.42620504786951 -10.5156010695723 1.16839999999996
    vertex 7.01040504786951 -10.5156010695723 1.16839999999996
    vertex 6.42620504786951 -1.7526010695723 1.16839999999997
  endloop
endfacet
facet normal 3.82856869892695e-016 -4.16333634234434e-016 1.0
  outer loop
    vertex 7.01040504786951 -1.7526010695723 1.16839999999997
    vertex 6.42620504786951 -1.7526010695723 1.16839999999997
    vertex 7.01040504786951 -10.5156010695723 1.16839999999996
  endloop
endfacet
facet normal 1.0 -3.82856869892695e-016 -3.82856869892695e-016
  outer loop
    vertex 7.01040504786951 -1.7526010695723 1.16839999999997
    vertex 7.01040504786951 -10.5156010695723 1.16839999999996
    vertex 7.01040504786951 -1.75260106957231 -3.38395977905748e-014
  endloop
endfacet
facet normal 1.0 -3.82856869892695e-016 -3.82856869892695e-016
  outer loop
    vertex 7.01040504786951 -10.5156010695723 -3.75408037989189e-014
    vertex 7.01040504786951 -1.75260106957231 -3.38395977905748e-014
    vertex 7.01040504786951 -10.5156010695723 1.16839999999996
  endloop
endfacet
facet normal -3.82856869892695e-016 4.16333634234434e-016 -1.0
  outer loop
    vertex 7.01040504786951 -10.5156010695723 -3.75408037989189e-014
    vertex 6.42620504786951 -10.5156010695723 -3.73645558937596e-014
    vertex 7.01040504786951 -1.75260106957231 -3.38395977905748e-014
  endloop
endfacet
facet normal -3.82856869892695e-016 4.16333634234434e-016 -1.0
  outer loop
    vertex 6.42620504786951 -1.75260106957231 -3.36633498854155e-014
    vertex 7.01040504786951 -1.75260106957231 -3.38395977905748e-014
    vertex 6.42620504786951 -10.5156010695723 -3.73645558937596e-014
  endloop
endfacet
facet normal 3.82856869892695e-016 1.0 4.16333634234434e-016
  outer loop
    vertex 7.01040504786951 -1.75260106957231 -3.38395977905748e-014
    vertex 6.42620504786951 -1.75260106957231 -3.36633498854155e-014
    vertex 7.01040504786951 -1.7526010695723 1.16839999999997
  endloop
endfacet
facet normal 3.82856869892695e-016 1.0 4.16333634234434e-016
  outer loop
    vertex 6.42620504786951 -1.7526010695723 1.16839999999997
    vertex 7.01040504786951 -1.7526010695723 1.16839999999997
    vertex 6.42620504786951 -1.75260106957231 -3.36633498854155e-014
  endloop
endfacet
facet normal -1.0 3.82856869892695e-016 3.82856869892695e-016
  outer loop
    vertex 6.42620504786951 -10.5156010695723 1.16839999999996
    vertex 6.42620504786951 -1.7526010695723 1.16839999999997
    vertex 6.42620504786951 -10.5156010695723 -3.73645558937596e-014
  endloop
endfacet
facet normal -1.0 3.82856869892695e-016 3.82856869892695e-016
  outer loop
    vertex 6.42620504786951 -1.75260106957231 -3.36633498854155e-014
    vertex 6.42620504786951 -10.5156010695723 -3.73645558937596e-014
    vertex 6.42620504786951 -1.7526010695723 1.16839999999997
  endloop
endfacet
facet normal 0.0 -1.0 -4.16333634234434e-016
  outer loop
    vertex 12.2682098208551 -23.6874856969671 1.16839999999989
    vertex 12.2682098208551 -23.6874856969671 -1.0944994910389e-013
    vertex 13.4366098208551 -23.6874856969671 1.16839999999989
  endloop
endfacet
facet normal 0.0 -1.0 -4.16333634234434e-016
  outer loop
    vertex 13.4366098208551 -23.6874856969671 -1.0944994910389e-013
    vertex 13.4366098208551 -23.6874856969671 1.16839999999989
    vertex 12.2682098208551 -23.6874856969671 -1.0944994910389e-013
  endloop
endfacet
facet normal -1.0 0.0 -0.0
  outer loop
    vertex 12.2682098208551 -23.6874856969671 1.16839999999989
    vertex 12.2682098208551 -3.23560179360527e-007 1.1683999999999
    vertex 12.2682098208551 -23.6874856969671 -1.0944994910389e-013
  endloop
endfacet
facet normal -1.0 0.0 -0.0
  outer loop
    vertex 12.2682098208551 -3.23560178874083e-007 -9.95800664149726e-014
    vertex 12.2682098208551 -23.6874856969671 -1.0944994910389e-013
    vertex 12.2682098208551 -3.23560179360527e-007 1.1683999999999
  endloop
endfacet
facet normal -0.0 -4.16333634234434e-016 1.0
  outer loop
    vertex 13.4366098208551 -3.23560179360527e-007 1.1683999999999
    vertex 12.2682098208551 -3.23560179360527e-007 1.1683999999999
    vertex 13.4366098208551 -23.6874856969671 1.16839999999989
  endloop
endfacet
facet normal -0.0 -4.16333634234434e-016 1.0
  outer loop
    vertex 12.2682098208551 -23.6874856969671 1.16839999999989
    vertex 13.4366098208551 -23.6874856969671 1.16839999999989
    vertex 12.2682098208551 -3.23560179360527e-007 1.1683999999999
  endloop
endfacet
facet normal 0.0 4.16333634234434e-016 -1.0
  outer loop
    vertex 12.2682098208551 -3.23560178874083e-007 -9.95800664149726e-014
    vertex 13.4366098208551 -3.23560178874083e-007 -9.95800664149726e-014
    vertex 12.2682098208551 -23.6874856969671 -1.0944994910389e-013
  endloop
endfacet
facet normal 0.0 4.16333634234434e-016 -1.0
  outer loop
    vertex 13.4366098208551 -23.6874856969671 -1.0944994910389e-013
    vertex 12.2682098208551 -23.6874856969671 -1.0944994910389e-013
    vertex 13.4366098208551 -3.23560178874083e-007 -9.95800664149726e-014
  endloop
endfacet
facet normal 1.0 0.0 0.0
  outer loop
    vertex 13.4366098208551 -3.23560179360527e-007 1.1683999999999
    vertex 13.4366098208551 -23.6874856969671 1.16839999999989
    vertex 13.4366098208551 -3.23560178874083e-007 -9.95800664149726e-014
  endloop
endfacet
facet normal 1.0 0.0 0.0
  outer loop
    vertex 13.4366098208551 -23.6874856969671 -1.0944994910389e-013
    vertex 13.4366098208551 -3.23560178874083e-007 -9.95800664149726e-014
    vertex 13.4366098208551 -23.6874856969671 1.16839999999989
  endloop
endfacet
facet normal 0.0 1.0 4.16333634234434e-016
  outer loop
    vertex 12.2682098208551 -3.23560178874083e-007 -9.95800664149726e-014
    vertex 12.2682098208551 -3.23560179360527e-007 1.1683999999999
    vertex 13.4366098208551 -3.23560178874083e-007 -9.95800664149726e-014
  endloop
endfacet
facet normal 0.0 1.0 4.16333634234434e-016
  outer loop
    vertex 13.4366098208551 -3.23560179360527e-007 1.1683999999999
    vertex 13.4366098208551 -3.23560178874083e-007 -9.95800664149726e-014
    vertex 12.2682098208551 -3.23560179360527e-007 1.1683999999999
  endloop
endfacet
facet normal 3.82856869892695e-016 -1.0 -4.16333634234434e-016
  outer loop
    vertex -10.1652335012563 -9.34720000000001 1.16839999999999
    vertex -10.1652335012563 -9.3472 -4.87741363286625e-015
    vertex -9.58103350125626 -9.3472 1.1684
  endloop
endfacet
facet normal 3.82856869892695e-016 -1.0 -4.16333634234434e-016
  outer loop
    vertex -9.58103350125626 -9.3472 -4.78012478921835e-015
    vertex -9.58103350125626 -9.3472 1.1684
    vertex -10.1652335012563 -9.3472 -4.87741363286625e-015
  endloop
endfacet
facet normal 1.66533453693773e-016 3.05311331771918e-016 -1.0
  outer loop
    vertex -9.58103350125626 -9.3472 -4.78012478921835e-015
    vertex -10.1652335012563 -9.3472 -4.87741363286625e-015
    vertex -9.58103350125627 -0.584199999999999 -1.131793152422e-015
  endloop
endfacet
facet normal 1.66533453693773e-016 3.05311331771918e-016 -1.0
  outer loop
    vertex -10.1652335012563 -0.584199999999999 -1.22908199606991e-015
    vertex -9.58103350125627 -0.584199999999999 -1.131793152422e-015
    vertex -10.1652335012563 -9.3472 -4.87741363286625e-015
  endloop
endfacet
facet normal -1.0 -3.82856869892695e-016 -1.66533453693774e-016
  outer loop
    vertex -10.1652335012563 -0.584199999999999 -1.22908199606991e-015
    vertex -10.1652335012563 -9.3472 -4.87741363286625e-015
    vertex -10.1652335012563 -0.584200000000001 1.1684
  endloop
endfacet
facet normal -1.0 -3.82856869892695e-016 -1.66533453693774e-016
  outer loop
    vertex -10.1652335012563 -9.34720000000001 1.16839999999999
    vertex -10.1652335012563 -0.584200000000001 1.1684
    vertex -10.1652335012563 -9.3472 -4.87741363286625e-015
  endloop
endfacet
facet normal -1.66533453693773e-016 -3.05311331771918e-016 1.0
  outer loop
    vertex -10.1652335012563 -9.34720000000001 1.16839999999999
    vertex -9.58103350125626 -9.3472 1.1684
    vertex -10.1652335012563 -0.584200000000001 1.1684
  endloop
endfacet
facet normal -1.66533453693773e-016 -3.05311331771918e-016 1.0
  outer loop
    vertex -9.58103350125627 -0.584200000000001 1.1684
    vertex -10.1652335012563 -0.584200000000001 1.1684
    vertex -9.58103350125626 -9.3472 1.1684
  endloop
endfacet
facet normal -3.82856869892695e-016 1.0 4.16333634234434e-016
  outer loop
    vertex -10.1652335012563 -0.584200000000001 1.1684
    vertex -9.58103350125627 -0.584200000000001 1.1684
    vertex -10.1652335012563 -0.584199999999999 -1.22908199606991e-015
  endloop
endfacet
facet normal -3.82856869892695e-016 1.0 4.16333634234434e-016
  outer loop
    vertex -9.58103350125627 -0.584199999999999 -1.131793152422e-015
    vertex -10.1652335012563 -0.584199999999999 -1.22908199606991e-015
    vertex -9.58103350125627 -0.584200000000001 1.1684
  endloop
endfacet
facet normal 1.0 3.82856869892695e-016 1.66533453693774e-016
  outer loop
    vertex -9.58103350125626 -9.3472 -4.78012478921835e-015
    vertex -9.58103350125627 -0.584199999999999 -1.131793152422e-015
    vertex -9.58103350125626 -9.3472 1.1684
  endloop
endfacet
facet normal 1.0 3.82856869892695e-016 1.66533453693774e-016
  outer loop
    vertex -9.58103350125627 -0.584200000000001 1.1684
    vertex -9.58103350125626 -9.3472 1.1684
    vertex -9.58103350125627 -0.584199999999999 -1.131793152422e-015
  endloop
endfacet
facet normal 0.0 -1.0 -4.16333634234434e-016
  outer loop
    vertex -12.6188758752453 -10.5156010695723 -5.77247183507447e-015
    vertex -11.4504758752453 -10.5156010695723 -5.57789414777867e-015
    vertex -12.6188758752453 -10.5156010695723 1.16839999999999
  endloop
endfacet
facet normal 0.0 -1.0 -4.16333634234434e-016
  outer loop
    vertex -11.4504758752453 -10.5156010695723 1.16839999999999
    vertex -12.6188758752453 -10.5156010695723 1.16839999999999
    vertex -11.4504758752453 -10.5156010695723 -5.57789414777867e-015
  endloop
endfacet
facet normal 1.66533453693773e-016 3.05311331771918e-016 -1.0
  outer loop
    vertex -12.6188758752453 -10.5156010695723 -5.77247183507447e-015
    vertex -12.6188758752453 1.1684 -9.08029207380423e-016
    vertex -11.4504758752453 -10.5156010695723 -5.57789414777867e-015
  endloop
endfacet
facet normal 1.66533453693773e-016 3.05311331771918e-016 -1.0
  outer loop
    vertex -11.4504758752453 1.1684 -7.13451520084618e-016
    vertex -11.4504758752453 -10.5156010695723 -5.57789414777867e-015
    vertex -12.6188758752453 1.1684 -9.08029207380423e-016
  endloop
endfacet
facet normal -1.0 4.93038065763132e-032 -1.66533453693773e-016
  outer loop
    vertex -12.6188758752453 1.1684 1.1684
    vertex -12.6188758752453 1.1684 -9.08029207380423e-016
    vertex -12.6188758752453 -10.5156010695723 1.16839999999999
  endloop
endfacet
facet normal -1.0 4.93038065763132e-032 -1.66533453693773e-016
  outer loop
    vertex -12.6188758752453 -10.5156010695723 -5.77247183507447e-015
    vertex -12.6188758752453 -10.5156010695723 1.16839999999999
    vertex -12.6188758752453 1.1684 -9.08029207380423e-016
  endloop
endfacet
facet normal 1.0 -4.93038065763132e-032 1.66533453693773e-016
  outer loop
    vertex -11.4504758752453 1.1684 -7.13451520084618e-016
    vertex -11.4504758752453 1.1684 1.1684
    vertex -11.4504758752453 -10.5156010695723 -5.57789414777867e-015
  endloop
endfacet
facet normal 1.0 -4.93038065763132e-032 1.66533453693773e-016
  outer loop
    vertex -11.4504758752453 -10.5156010695723 1.16839999999999
    vertex -11.4504758752453 -10.5156010695723 -5.57789414777867e-015
    vertex -11.4504758752453 1.1684 1.1684
  endloop
endfacet
facet normal -1.66533453693773e-016 -3.05311331771918e-016 1.0
  outer loop
    vertex -12.6188758752453 1.1684 1.1684
    vertex -12.6188758752453 -10.5156010695723 1.16839999999999
    vertex -11.4504758752453 1.1684 1.1684
  endloop
endfacet
facet normal -1.66533453693773e-016 -3.05311331771918e-016 1.0
  outer loop
    vertex -11.4504758752453 -10.5156010695723 1.16839999999999
    vertex -11.4504758752453 1.1684 1.1684
    vertex -12.6188758752453 -10.5156010695723 1.16839999999999
  endloop
endfacet
facet normal 0.0 1.0 4.16333634234434e-016
  outer loop
    vertex -11.4504758752453 1.1684 -7.13451520084618e-016
    vertex -12.6188758752453 1.1684 -9.08029207380423e-016
    vertex -11.4504758752453 1.1684 1.1684
  endloop
endfacet
facet normal 0.0 1.0 4.16333634234434e-016
  outer loop
    vertex -12.6188758752453 1.1684 1.1684
    vertex -11.4504758752453 1.1684 1.1684
    vertex -12.6188758752453 1.1684 -9.08029207380423e-016
  endloop
endfacet
facet normal -1.0 4.93038065763132e-032 -1.66533453693773e-016
  outer loop
    vertex -11.4504758752453 -9.3472 1.16839999999999
    vertex -11.4504758752453 -9.3472 -5.09144948424023e-015
    vertex -11.4504758752453 -9.9314 1.16839999999999
  endloop
endfacet
facet normal -1.0 4.93038065763132e-032 -1.66533453693773e-016
  outer loop
    vertex -11.4504758752453 -9.9314 -5.33467159335998e-015
    vertex -11.4504758752453 -9.9314 1.16839999999999
    vertex -11.4504758752453 -9.3472 -5.09144948424023e-015
  endloop
endfacet
facet normal 1.0 -4.93038065763132e-032 1.66533453693773e-016
  outer loop
    vertex -2.6874640053 -9.3472 -3.6321148527787e-015
    vertex -2.6874640053 -9.3472 1.1684
    vertex -2.6874640053 -9.9314 -3.87533696189846e-015
  endloop
endfacet
facet normal 1.0 -4.93038065763132e-032 1.66533453693773e-016
  outer loop
    vertex -2.6874640053 -9.9314 1.1684
    vertex -2.6874640053 -9.9314 -3.87533696189846e-015
    vertex -2.6874640053 -9.3472 1.1684
  endloop
endfacet
facet normal 1.66533453693773e-016 3.05311331771918e-016 -1.0
  outer loop
    vertex -11.4504758752453 -9.9314 -5.33467159335998e-015
    vertex -11.4504758752453 -9.3472 -5.09144948424023e-015
    vertex -2.6874640053 -9.9314 -3.87533696189846e-015
  endloop
endfacet
facet normal 1.66533453693773e-016 3.05311331771918e-016 -1.0
  outer loop
    vertex -2.6874640053 -9.3472 -3.6321148527787e-015
    vertex -2.6874640053 -9.9314 -3.87533696189846e-015
    vertex -11.4504758752453 -9.3472 -5.09144948424023e-015
  endloop
endfacet
facet normal 0.0 1.0 4.16333634234434e-016
  outer loop
    vertex -2.6874640053 -9.3472 -3.6321148527787e-015
    vertex -11.4504758752453 -9.3472 -5.09144948424023e-015
    vertex -2.6874640053 -9.3472 1.1684
  endloop
endfacet
facet normal 0.0 1.0 4.16333634234434e-016
  outer loop
    vertex -11.4504758752453 -9.3472 1.16839999999999
    vertex -2.6874640053 -9.3472 1.1684
    vertex -11.4504758752453 -9.3472 -5.09144948424023e-015
  endloop
endfacet
facet normal -1.66533453693773e-016 -3.05311331771918e-016 1.0
  outer loop
    vertex -11.4504758752453 -9.3472 1.16839999999999
    vertex -11.4504758752453 -9.9314 1.16839999999999
    vertex -2.6874640053 -9.3472 1.1684
  endloop
endfacet
facet normal -1.66533453693773e-016 -3.05311331771918e-016 1.0
  outer loop
    vertex -2.6874640053 -9.9314 1.1684
    vertex -2.6874640053 -9.3472 1.1684
    vertex -11.4504758752453 -9.9314 1.16839999999999
  endloop
endfacet
facet normal 0.0 -1.0 -4.16333634234434e-016
  outer loop
    vertex -11.4504758752453 -9.9314 -5.33467159335998e-015
    vertex -2.6874640053 -9.9314 -3.87533696189846e-015
    vertex -11.4504758752453 -9.9314 1.16839999999999
  endloop
endfacet
facet normal 0.0 -1.0 -4.16333634234434e-016
  outer loop
    vertex -2.6874640053 -9.9314 1.1684
    vertex -11.4504758752453 -9.9314 1.16839999999999
    vertex -2.6874640053 -9.9314 -3.87533696189846e-015
  endloop
endfacet
facet normal -1.0 4.93038065763132e-032 -1.66533453693773e-016
  outer loop
    vertex -11.4504758752453 -1.41421319099777e-015 1.1684
    vertex -11.4504758752453 -1.05748743095546e-015 -1.19989573832413e-015
    vertex -11.4504758752453 -0.584200000000001 1.1684
  endloop
endfacet
facet normal -1.0 4.93038065763132e-032 -1.66533453693773e-016
  outer loop
    vertex -11.4504758752453 -0.584200000000001 -1.44311784744389e-015
    vertex -11.4504758752453 -0.584200000000001 1.1684
    vertex -11.4504758752453 -1.05748743095546e-015 -1.19989573832413e-015
  endloop
endfacet
facet normal 1.0 -4.93038065763132e-032 1.66533453693773e-016
  outer loop
    vertex -2.6874640053 -1.05748743095546e-015 2.59438893137396e-016
    vertex -2.6874640053 -1.41421319099777e-015 1.1684
    vertex -2.6874640053 -0.584200000000001 1.62167840176397e-017
  endloop
endfacet
facet normal 1.0 -4.93038065763132e-032 1.66533453693773e-016
  outer loop
    vertex -2.6874640053 -0.584200000000001 1.1684
    vertex -2.6874640053 -0.584200000000001 1.62167840176397e-017
    vertex -2.6874640053 -1.41421319099777e-015 1.1684
  endloop
endfacet
facet normal 1.66533453693773e-016 3.05311331771918e-016 -1.0
  outer loop
    vertex -11.4504758752453 -0.584200000000001 -1.44311784744389e-015
    vertex -11.4504758752453 -1.05748743095546e-015 -1.19989573832413e-015
    vertex -2.6874640053 -0.584200000000001 1.62167840176397e-017
  endloop
endfacet
facet normal 1.66533453693773e-016 3.05311331771918e-016 -1.0
  outer loop
    vertex -2.6874640053 -1.05748743095546e-015 2.59438893137396e-016
    vertex -2.6874640053 -0.584200000000001 1.62167840176397e-017
    vertex -11.4504758752453 -1.05748743095546e-015 -1.19989573832413e-015
  endloop
endfacet
facet normal 0.0 1.0 4.16333634234434e-016
  outer loop
    vertex -2.6874640053 -1.05748743095546e-015 2.59438893137396e-016
    vertex -11.4504758752453 -1.05748743095546e-015 -1.19989573832413e-015
    vertex -2.6874640053 -1.41421319099777e-015 1.1684
  endloop
endfacet
facet normal 0.0 1.0 4.16333634234434e-016
  outer loop
    vertex -11.4504758752453 -1.41421319099777e-015 1.1684
    vertex -2.6874640053 -1.41421319099777e-015 1.1684
    vertex -11.4504758752453 -1.05748743095546e-015 -1.19989573832413e-015
  endloop
endfacet
facet normal -1.66533453693773e-016 -3.05311331771918e-016 1.0
  outer loop
    vertex -11.4504758752453 -1.41421319099777e-015 1.1684
    vertex -11.4504758752453 -0.584200000000001 1.1684
    vertex -2.6874640053 -1.41421319099777e-015 1.1684
  endloop
endfacet
facet normal -1.66533453693773e-016 -3.05311331771918e-016 1.0
  outer loop
    vertex -2.6874640053 -0.584200000000001 1.1684
    vertex -2.6874640053 -1.41421319099777e-015 1.1684
    vertex -11.4504758752453 -0.584200000000001 1.1684
  endloop
endfacet
facet normal 0.0 -1.0 -4.16333634234434e-016
  outer loop
    vertex -11.4504758752453 -0.584200000000001 -1.44311784744389e-015
    vertex -2.6874640053 -0.584200000000001 1.62167840176397e-017
    vertex -11.4504758752453 -0.584200000000001 1.1684
  endloop
endfacet
facet normal 0.0 -1.0 -4.16333634234434e-016
  outer loop
    vertex -2.6874640053 -0.584200000000001 1.1684
    vertex -11.4504758752453 -0.584200000000001 1.1684
    vertex -2.6874640053 -0.584200000000001 1.62167840176397e-017
  endloop
endfacet
facet normal 3.82856869892695e-016 -1.0 -4.16333634234434e-016
  outer loop
    vertex -8.2957911272672 -9.34720000000001 1.1684
    vertex -8.2957911272672 -9.3472 -4.56608893784436e-015
    vertex -7.71159112726721 -9.3472 1.1684
  endloop
endfacet
facet normal 3.82856869892695e-016 -1.0 -4.16333634234434e-016
  outer loop
    vertex -7.7115911272672 -9.3472 -4.46880009419646e-015
    vertex -7.71159112726721 -9.3472 1.1684
    vertex -8.2957911272672 -9.3472 -4.56608893784436e-015
  endloop
endfacet
facet normal 1.66533453693773e-016 3.05311331771918e-016 -1.0
  outer loop
    vertex -7.7115911272672 -9.3472 -4.46880009419646e-015
    vertex -8.2957911272672 -9.3472 -4.56608893784436e-015
    vertex -7.71159112726721 -0.584199999999999 -8.20468457400118e-016
  endloop
endfacet
facet normal 1.66533453693773e-016 3.05311331771918e-016 -1.0
  outer loop
    vertex -8.29579112726721 -0.584199999999999 -9.1775730104802e-016
    vertex -7.71159112726721 -0.584199999999999 -8.20468457400118e-016
    vertex -8.2957911272672 -9.3472 -4.56608893784436e-015
  endloop
endfacet
facet normal -1.0 -3.82856869892695e-016 -1.66533453693774e-016
  outer loop
    vertex -8.29579112726721 -0.584199999999999 -9.1775730104802e-016
    vertex -8.2957911272672 -9.3472 -4.56608893784436e-015
    vertex -8.29579112726721 -0.584200000000001 1.1684
  endloop
endfacet
facet normal -1.0 -3.82856869892695e-016 -1.66533453693774e-016
  outer loop
    vertex -8.2957911272672 -9.34720000000001 1.1684
    vertex -8.29579112726721 -0.584200000000001 1.1684
    vertex -8.2957911272672 -9.3472 -4.56608893784436e-015
  endloop
endfacet
facet normal -1.66533453693773e-016 -3.05311331771918e-016 1.0
  outer loop
    vertex -8.2957911272672 -9.34720000000001 1.1684
    vertex -7.71159112726721 -9.3472 1.1684
    vertex -8.29579112726721 -0.584200000000001 1.1684
  endloop
endfacet
facet normal -1.66533453693773e-016 -3.05311331771918e-016 1.0
  outer loop
    vertex -7.71159112726721 -0.584200000000001 1.1684
    vertex -8.29579112726721 -0.584200000000001 1.1684
    vertex -7.71159112726721 -9.3472 1.1684
  endloop
endfacet
facet normal -3.82856869892695e-016 1.0 4.16333634234434e-016
  outer loop
    vertex -8.29579112726721 -0.584200000000001 1.1684
    vertex -7.71159112726721 -0.584200000000001 1.1684
    vertex -8.29579112726721 -0.584199999999999 -9.1775730104802e-016
  endloop
endfacet
facet normal -3.82856869892695e-016 1.0 4.16333634234434e-016
  outer loop
    vertex -7.71159112726721 -0.584199999999999 -8.20468457400118e-016
    vertex -8.29579112726721 -0.584199999999999 -9.1775730104802e-016
    vertex -7.71159112726721 -0.584200000000001 1.1684
  endloop
endfacet
facet normal 1.0 3.82856869892695e-016 1.66533453693774e-016
  outer loop
    vertex -7.7115911272672 -9.3472 -4.46880009419646e-015
    vertex -7.71159112726721 -0.584199999999999 -8.20468457400118e-016
    vertex -7.71159112726721 -9.3472 1.1684
  endloop
endfacet
facet normal 1.0 3.82856869892695e-016 1.66533453693774e-016
  outer loop
    vertex -7.71159112726721 -0.584200000000001 1.1684
    vertex -7.71159112726721 -9.3472 1.1684
    vertex -7.71159112726721 -0.584199999999999 -8.20468457400118e-016
  endloop
endfacet
facet normal 3.82856869892695e-016 -1.0 -4.16333634234434e-016
  outer loop
    vertex -4.55690637928906 -9.34720000000001 1.1684
    vertex -4.55690637928906 -9.3472 -3.94343954780059e-015
    vertex -3.97270637928906 -9.3472 1.1684
  endloop
endfacet
facet normal 3.82856869892695e-016 -1.0 -4.16333634234434e-016
  outer loop
    vertex -3.97270637928906 -9.3472 -3.84615070415269e-015
    vertex -3.97270637928906 -9.3472 1.1684
    vertex -4.55690637928906 -9.3472 -3.94343954780059e-015
  endloop
endfacet
facet normal 1.66533453693773e-016 3.05311331771918e-016 -1.0
  outer loop
    vertex -3.97270637928906 -9.3472 -3.84615070415269e-015
    vertex -4.55690637928906 -9.3472 -3.94343954780059e-015
    vertex -3.97270637928907 -0.584199999999999 -1.97819067356345e-016
  endloop
endfacet
facet normal 1.66533453693773e-016 3.05311331771918e-016 -1.0
  outer loop
    vertex -4.55690637928907 -0.584199999999999 -2.95107911004247e-016
    vertex -3.97270637928907 -0.584199999999999 -1.97819067356345e-016
    vertex -4.55690637928906 -9.3472 -3.94343954780059e-015
  endloop
endfacet
facet normal -1.0 -3.82856869892695e-016 -1.66533453693774e-016
  outer loop
    vertex -4.55690637928907 -0.584199999999999 -2.95107911004247e-016
    vertex -4.55690637928906 -9.3472 -3.94343954780059e-015
    vertex -4.55690637928907 -0.584200000000001 1.1684
  endloop
endfacet
facet normal -1.0 -3.82856869892695e-016 -1.66533453693774e-016
  outer loop
    vertex -4.55690637928906 -9.34720000000001 1.1684
    vertex -4.55690637928907 -0.584200000000001 1.1684
    vertex -4.55690637928906 -9.3472 -3.94343954780059e-015
  endloop
endfacet
facet normal -1.66533453693773e-016 -3.05311331771918e-016 1.0
  outer loop
    vertex -4.55690637928906 -9.34720000000001 1.1684
    vertex -3.97270637928906 -9.3472 1.1684
    vertex -4.55690637928907 -0.584200000000001 1.1684
  endloop
endfacet
facet normal -1.66533453693773e-016 -3.05311331771918e-016 1.0
  outer loop
    vertex -3.97270637928907 -0.584200000000001 1.1684
    vertex -4.55690637928907 -0.584200000000001 1.1684
    vertex -3.97270637928906 -9.3472 1.1684
  endloop
endfacet
facet normal -3.82856869892695e-016 1.0 4.16333634234434e-016
  outer loop
    vertex -4.55690637928907 -0.584200000000001 1.1684
    vertex -3.97270637928907 -0.584200000000001 1.1684
    vertex -4.55690637928907 -0.584199999999999 -2.95107911004247e-016
  endloop
endfacet
facet normal -3.82856869892695e-016 1.0 4.16333634234434e-016
  outer loop
    vertex -3.97270637928907 -0.584199999999999 -1.97819067356345e-016
    vertex -4.55690637928907 -0.584199999999999 -2.95107911004247e-016
    vertex -3.97270637928907 -0.584200000000001 1.1684
  endloop
endfacet
facet normal 1.0 3.82856869892695e-016 1.66533453693774e-016
  outer loop
    vertex -3.97270637928906 -9.3472 -3.84615070415269e-015
    vertex -3.97270637928907 -0.584199999999999 -1.97819067356345e-016
    vertex -3.97270637928906 -9.3472 1.1684
  endloop
endfacet
facet normal 1.0 3.82856869892695e-016 1.66533453693774e-016
  outer loop
    vertex -3.97270637928907 -0.584200000000001 1.1684
    vertex -3.97270637928906 -9.3472 1.1684
    vertex -3.97270637928907 -0.584199999999999 -1.97819067356345e-016
  endloop
endfacet
facet normal 3.82856869892695e-016 -1.0 -4.16333634234434e-016
  outer loop
    vertex -6.42634875327813 -9.34720000000001 1.1684
    vertex -6.42634875327812 -9.3472 -4.25476424282248e-015
    vertex -5.84214875327813 -9.3472 1.1684
  endloop
endfacet
facet normal 3.82856869892695e-016 -1.0 -4.16333634234434e-016
  outer loop
    vertex -5.84214875327812 -9.3472 -4.15747539917457e-015
    vertex -5.84214875327813 -9.3472 1.1684
    vertex -6.42634875327812 -9.3472 -4.25476424282248e-015
  endloop
endfacet
facet normal 1.66533453693773e-016 3.05311331771918e-016 -1.0
  outer loop
    vertex -5.84214875327812 -9.3472 -4.15747539917457e-015
    vertex -6.42634875327812 -9.3472 -4.25476424282248e-015
    vertex -5.84214875327813 -0.584199999999999 -5.0914376237823e-016
  endloop
endfacet
facet normal 1.66533453693773e-016 3.05311331771918e-016 -1.0
  outer loop
    vertex -6.42634875327813 -0.584199999999999 -6.06432606026132e-016
    vertex -5.84214875327813 -0.584199999999999 -5.0914376237823e-016
    vertex -6.42634875327812 -9.3472 -4.25476424282248e-015
  endloop
endfacet
facet normal -1.0 -3.82856869892695e-016 -1.66533453693774e-016
  outer loop
    vertex -6.42634875327813 -0.584199999999999 -6.06432606026132e-016
    vertex -6.42634875327812 -9.3472 -4.25476424282248e-015
    vertex -6.42634875327813 -0.584200000000001 1.1684
  endloop
endfacet
facet normal -1.0 -3.82856869892695e-016 -1.66533453693774e-016
  outer loop
    vertex -6.42634875327813 -9.34720000000001 1.1684
    vertex -6.42634875327813 -0.584200000000001 1.1684
    vertex -6.42634875327812 -9.3472 -4.25476424282248e-015
  endloop
endfacet
facet normal -1.66533453693773e-016 -3.05311331771918e-016 1.0
  outer loop
    vertex -6.42634875327813 -9.34720000000001 1.1684
    vertex -5.84214875327813 -9.3472 1.1684
    vertex -6.42634875327813 -0.584200000000001 1.1684
  endloop
endfacet
facet normal -1.66533453693773e-016 -3.05311331771918e-016 1.0
  outer loop
    vertex -5.84214875327813 -0.584200000000001 1.1684
    vertex -6.42634875327813 -0.584200000000001 1.1684
    vertex -5.84214875327813 -9.3472 1.1684
  endloop
endfacet
facet normal -3.82856869892695e-016 1.0 4.16333634234434e-016
  outer loop
    vertex -6.42634875327813 -0.584200000000001 1.1684
    vertex -5.84214875327813 -0.584200000000001 1.1684
    vertex -6.42634875327813 -0.584199999999999 -6.06432606026132e-016
  endloop
endfacet
facet normal -3.82856869892695e-016 1.0 4.16333634234434e-016
  outer loop
    vertex -5.84214875327813 -0.584199999999999 -5.0914376237823e-016
    vertex -6.42634875327813 -0.584199999999999 -6.06432606026132e-016
    vertex -5.84214875327813 -0.584200000000001 1.1684
  endloop
endfacet
facet normal 1.0 3.82856869892695e-016 1.66533453693774e-016
  outer loop
    vertex -5.84214875327812 -9.3472 -4.15747539917457e-015
    vertex -5.84214875327813 -0.584199999999999 -5.0914376237823e-016
    vertex -5.84214875327813 -9.3472 1.1684
  endloop
endfacet
facet normal 1.0 3.82856869892695e-016 1.66533453693774e-016
  outer loop
    vertex -5.84214875327813 -0.584200000000001 1.1684
    vertex -5.84214875327813 -9.3472 1.1684
    vertex -5.84214875327813 -0.584199999999999 -5.0914376237823e-016
  endloop
endfacet
endsolid Untitled-5e31b2bd
