solid Untitled-5e057ba4
facet normal -0.438371146789193 0.898794046299111 9.39483377350415e-011
  outer loop
    vertex -1.52005457880821 1.7927660063015 0.876300000187458
    vertex -40.9007157174039 -17.4144657901755 -1.81401552529215e-009
    vertex -40.9007157174038 -17.414465790267 0.876299998185984
  endloop
endfacet
facet normal -0.438371146789193 0.898794046299111 9.39483377350415e-011
  outer loop
    vertex -40.9007157174039 -17.4144657901755 -1.81401552529215e-009
    vertex -1.52005457880821 1.7927660063015 0.876300000187458
    vertex -1.52005457880832 1.79276600639304 1.87458329414802e-010
  endloop
endfacet
facet normal 0.256349884359669 0.966584055728618 1.0094124504721e-010
  outer loop
    vertex 1.52005457880834 1.79276600630189 0.876300000187071
    vertex -1.0715872633682e-013 2.19590302607473 2.29428419318278e-010
    vertex 5.63993296509579e-015 2.19590302598319 0.876300000229428
  endloop
endfacet
facet normal 0.256349884359669 0.966584055728618 1.0094124504721e-010
  outer loop
    vertex -1.0715872633682e-013 2.19590302607473 2.29428419318278e-010
    vertex 1.52005457880834 1.79276600630189 0.876300000187071
    vertex 1.52005457880822 1.79276600639343 1.87071465262978e-010
  endloop
endfacet
facet normal -1.2776582371568e-013 1.04464787312501e-010 -1.0
  outer loop
    vertex -43.2375157174042 -17.4144657901754 -1.81371819507614e-009
    vertex -40.9007157174039 -17.4144657901755 -1.81401552529215e-009
    vertex -43.2375157174042 -19.9486119510522 -2.07836499954706e-009
  endloop
endfacet
facet normal -1.2776582371568e-013 1.04464787312501e-010 -1.0
  outer loop
    vertex -43.2375157174042 -19.9486119510522 -2.07836499954706e-009
    vertex 0.0 2.8199664825479e-015 0.0
    vertex -40.9007157174039 -19.9486119510523 -2.07866232976306e-009
  endloop
endfacet
facet normal -1.2776582371568e-013 1.04464787312501e-010 -1.0
  outer loop
    vertex 0.0 2.8199664825479e-015 0.0
    vertex -43.2375157174042 -19.9486119510522 -2.07836499954706e-009
    vertex -40.9007157174039 -17.4144657901755 -1.81401552529215e-009
  endloop
endfacet
facet normal -1.2776582371568e-013 1.04464787312501e-010 -1.0
  outer loop
    vertex 0.0 2.8199664825479e-015 0.0
    vertex -40.9007157174039 -17.4144657901755 -1.81401552529215e-009
    vertex -1.52005457880832 1.79276600639304 1.87458329414802e-010
  endloop
endfacet
facet normal -1.2776582371568e-013 1.04464787312501e-010 -1.0
  outer loop
    vertex 0.0 2.8199664825479e-015 0.0
    vertex 43.237515717409 -19.9486119510415 -2.0894487015588e-009
    vertex 40.900715717409 -19.9486119510418 -2.08915524879671e-009
  endloop
endfacet
facet normal -1.2776582371568e-013 1.04464787312501e-010 -1.0
  outer loop
    vertex 43.237515717409 -19.9486119510415 -2.0894487015588e-009
    vertex 0.0 2.8199664825479e-015 0.0
    vertex 40.9007157174087 -17.414465790165 -1.82442543156247e-009
  endloop
endfacet
facet normal -1.2776582371568e-013 1.04464787312501e-010 -1.0
  outer loop
    vertex 40.9007157174087 -17.414465790165 -1.82442543156247e-009
    vertex 0.0 2.8199664825479e-015 0.0
    vertex 1.52005457880822 1.79276600639343 1.87071465262978e-010
  endloop
endfacet
facet normal -1.2776582371568e-013 1.04464787312501e-010 -1.0
  outer loop
    vertex 1.52005457880822 1.79276600639343 1.87071465262978e-010
    vertex 0.0 2.8199664825479e-015 0.0
    vertex -1.52005457880832 1.79276600639304 1.87458329414802e-010
  endloop
endfacet
facet normal -1.2776582371568e-013 1.04464787312501e-010 -1.0
  outer loop
    vertex 1.52005457880822 1.79276600639343 1.87071465262978e-010
    vertex -1.52005457880832 1.79276600639304 1.87458329414802e-010
    vertex -1.0715872633682e-013 2.19590302607473 2.29428419318278e-010
  endloop
endfacet
facet normal -1.2776582371568e-013 1.04464787312501e-010 -1.0
  outer loop
    vertex 43.2375157174086 -17.4144657901647 -1.82471888432456e-009
    vertex 43.237515717409 -19.9486119510415 -2.0894487015588e-009
    vertex 40.9007157174087 -17.414465790165 -1.82442543156247e-009
  endloop
endfacet
facet normal 0.438371146789192 -0.898794046299111 -9.39483377350416e-011
  outer loop
    vertex 0.0 2.8199664825479e-015 0.0
    vertex -40.9007157174038 -19.9486119511438 0.876299997921338
    vertex -40.9007157174039 -19.9486119510523 -2.07866232976306e-009
  endloop
endfacet
facet normal 0.438371146789192 -0.898794046299111 -9.39483377350416e-011
  outer loop
    vertex -40.9007157174038 -19.9486119511438 0.876299997921338
    vertex 0.0 2.8199664825479e-015 0.0
    vertex 1.12798659301916e-013 -9.15389319899873e-011 0.8763
  endloop
endfacet
facet normal -0.256349884359917 0.966584055728552 1.01006750555473e-010
  outer loop
    vertex 5.63993296509579e-015 2.19590302598319 0.876300000229428
    vertex -1.52005457880832 1.79276600639304 1.87458329414802e-010
    vertex -1.52005457880821 1.7927660063015 0.876300000187458
  endloop
endfacet
facet normal -0.256349884359917 0.966584055728552 1.01006750555473e-010
  outer loop
    vertex -1.52005457880832 1.79276600639304 1.87458329414802e-010
    vertex 5.63993296509579e-015 2.19590302598319 0.876300000229428
    vertex -1.0715872633682e-013 2.19590302607473 2.29428419318278e-010
  endloop
endfacet
facet normal 0.438371146788962 0.898794046299223 9.38363200337279e-011
  outer loop
    vertex 40.9007157174088 -17.4144657902565 0.876299998175575
    vertex 1.52005457880822 1.79276600639343 1.87071465262978e-010
    vertex 1.52005457880834 1.79276600630189 0.876300000187071
  endloop
endfacet
facet normal 0.438371146788962 0.898794046299223 9.38363200337279e-011
  outer loop
    vertex 1.52005457880822 1.79276600639343 1.87071465262978e-010
    vertex 40.9007157174088 -17.4144657902565 0.876299998175575
    vertex 40.9007157174087 -17.414465790165 -1.82442543156247e-009
  endloop
endfacet
facet normal 1.2776582371568e-013 -1.04464787312501e-010 1.0
  outer loop
    vertex 43.2375157174087 -17.4144657902562 0.876299998175281
    vertex 40.9007157174091 -19.9486119511333 0.876299997910845
    vertex 43.2375157174091 -19.948611951133 0.876299997910551
  endloop
endfacet
facet normal 1.2776582371568e-013 -1.04464787312501e-010 1.0
  outer loop
    vertex 40.9007157174091 -19.9486119511333 0.876299997910845
    vertex 43.2375157174087 -17.4144657902562 0.876299998175281
    vertex 40.9007157174088 -17.4144657902565 0.876299998175575
  endloop
endfacet
facet normal 1.2776582371568e-013 -1.04464787312501e-010 1.0
  outer loop
    vertex 40.9007157174091 -19.9486119511333 0.876299997910845
    vertex 40.9007157174088 -17.4144657902565 0.876299998175575
    vertex 1.12798659301916e-013 -9.15389319899873e-011 0.8763
  endloop
endfacet
facet normal 1.2776582371568e-013 -1.04464787312501e-010 1.0
  outer loop
    vertex 1.12798659301916e-013 -9.15389319899873e-011 0.8763
    vertex 40.9007157174088 -17.4144657902565 0.876299998175575
    vertex 1.52005457880834 1.79276600630189 0.876300000187071
  endloop
endfacet
facet normal 1.2776582371568e-013 -1.04464787312501e-010 1.0
  outer loop
    vertex 1.12798659301916e-013 -9.15389319899873e-011 0.8763
    vertex -43.237515717404 -19.9486119511438 0.876299997921635
    vertex -40.9007157174038 -19.9486119511438 0.876299997921338
  endloop
endfacet
facet normal 1.2776582371568e-013 -1.04464787312501e-010 1.0
  outer loop
    vertex -43.237515717404 -19.9486119511438 0.876299997921635
    vertex 1.12798659301916e-013 -9.15389319899873e-011 0.8763
    vertex -40.9007157174038 -17.414465790267 0.876299998185984
  endloop
endfacet
facet normal 1.2776582371568e-013 -1.04464787312501e-010 1.0
  outer loop
    vertex -40.9007157174038 -17.414465790267 0.876299998185984
    vertex 1.12798659301916e-013 -9.15389319899873e-011 0.8763
    vertex -1.52005457880821 1.7927660063015 0.876300000187458
  endloop
endfacet
facet normal 1.2776582371568e-013 -1.04464787312501e-010 1.0
  outer loop
    vertex -1.52005457880821 1.7927660063015 0.876300000187458
    vertex 1.12798659301916e-013 -9.15389319899873e-011 0.8763
    vertex 1.52005457880834 1.79276600630189 0.876300000187071
  endloop
endfacet
facet normal 1.2776582371568e-013 -1.04464787312501e-010 1.0
  outer loop
    vertex -1.52005457880821 1.7927660063015 0.876300000187458
    vertex 1.52005457880834 1.79276600630189 0.876300000187071
    vertex 5.63993296509579e-015 2.19590302598319 0.876300000229428
  endloop
endfacet
facet normal 1.2776582371568e-013 -1.04464787312501e-010 1.0
  outer loop
    vertex -43.2375157174041 -17.414465790267 0.876299998186282
    vertex -43.237515717404 -19.9486119511438 0.876299997921635
    vertex -40.9007157174038 -17.414465790267 0.876299998185984
  endloop
endfacet
facet normal -0.438371146788961 -0.898794046299224 -9.38363200337279e-011
  outer loop
    vertex 40.900715717409 -19.9486119510418 -2.08915524879671e-009
    vertex 1.12798659301916e-013 -9.15389319899873e-011 0.8763
    vertex 0.0 2.8199664825479e-015 0.0
  endloop
endfacet
facet normal -0.438371146788961 -0.898794046299224 -9.38363200337279e-011
  outer loop
    vertex 1.12798659301916e-013 -9.15389319899873e-011 0.8763
    vertex 40.900715717409 -19.9486119510418 -2.08915524879671e-009
    vertex 40.9007157174091 -19.9486119511333 0.876299997910845
  endloop
endfacet
facet normal -1.28272920692382e-013 1.0 1.04465103234475e-010
  outer loop
    vertex 43.2375157174087 -17.4144657902562 0.876299998175281
    vertex 40.9007157174087 -17.414465790165 -1.82442543156247e-009
    vertex 40.9007157174088 -17.4144657902565 0.876299998175575
  endloop
endfacet
facet normal -1.28272920692382e-013 1.0 1.04465103234475e-010
  outer loop
    vertex 40.9007157174087 -17.414465790165 -1.82442543156247e-009
    vertex 43.2375157174087 -17.4144657902562 0.876299998175281
    vertex 43.2375157174086 -17.4144657901647 -1.82471888432456e-009
  endloop
endfacet
facet normal 1.28272920692382e-013 -1.0 -1.04465103234475e-010
  outer loop
    vertex 43.237515717409 -19.9486119510415 -2.0894487015588e-009
    vertex 40.9007157174091 -19.9486119511333 0.876299997910845
    vertex 40.900715717409 -19.9486119510418 -2.08915524879671e-009
  endloop
endfacet
facet normal 1.28272920692382e-013 -1.0 -1.04465103234475e-010
  outer loop
    vertex 40.9007157174091 -19.9486119511333 0.876299997910845
    vertex 43.237515717409 -19.9486119510415 -2.0894487015588e-009
    vertex 43.2375157174091 -19.948611951133 0.876299997910551
  endloop
endfacet
facet normal 1.0 1.28272920705729e-013 -1.2776582370228e-013
  outer loop
    vertex 43.237515717409 -19.9486119510415 -2.0894487015588e-009
    vertex 43.2375157174087 -17.4144657902562 0.876299998175281
    vertex 43.2375157174091 -19.948611951133 0.876299997910551
  endloop
endfacet
facet normal 1.0 1.28272920705729e-013 -1.2776582370228e-013
  outer loop
    vertex 43.2375157174087 -17.4144657902562 0.876299998175281
    vertex 43.237515717409 -19.9486119510415 -2.0894487015588e-009
    vertex 43.2375157174086 -17.4144657901647 -1.82471888432456e-009
  endloop
endfacet
facet normal 5.07096976754396e-016 -1.0 -1.04465103234475e-010
  outer loop
    vertex -40.9007157174039 -19.9486119510523 -2.07866232976306e-009
    vertex -43.237515717404 -19.9486119511438 0.876299997921635
    vertex -43.2375157174042 -19.9486119510522 -2.07836499954706e-009
  endloop
endfacet
facet normal 5.07096976754396e-016 -1.0 -1.04465103234475e-010
  outer loop
    vertex -43.237515717404 -19.9486119511438 0.876299997921635
    vertex -40.9007157174039 -19.9486119510523 -2.07866232976306e-009
    vertex -40.9007157174038 -19.9486119511438 0.876299997921338
  endloop
endfacet
facet normal -1.0 -5.07096990101442e-016 1.27765823715627e-013
  outer loop
    vertex -43.2375157174041 -17.414465790267 0.876299998186282
    vertex -43.2375157174042 -19.9486119510522 -2.07836499954706e-009
    vertex -43.237515717404 -19.9486119511438 0.876299997921635
  endloop
endfacet
facet normal -1.0 -5.07096990101442e-016 1.27765823715627e-013
  outer loop
    vertex -43.2375157174042 -19.9486119510522 -2.07836499954706e-009
    vertex -43.2375157174041 -17.414465790267 0.876299998186282
    vertex -43.2375157174042 -17.4144657901754 -1.81371819507614e-009
  endloop
endfacet
facet normal -5.07096976754396e-016 1.0 1.04465103234475e-010
  outer loop
    vertex -40.9007157174038 -17.414465790267 0.876299998185984
    vertex -43.2375157174042 -17.4144657901754 -1.81371819507614e-009
    vertex -43.2375157174041 -17.414465790267 0.876299998186282
  endloop
endfacet
facet normal -5.07096976754396e-016 1.0 1.04465103234475e-010
  outer loop
    vertex -43.2375157174042 -17.4144657901754 -1.81371819507614e-009
    vertex -40.9007157174038 -17.414465790267 0.876299998185984
    vertex -40.9007157174039 -17.4144657901755 -1.81401552529215e-009
  endloop
endfacet
facet normal -0.438371146789193 0.898794046299111 9.39483377350415e-011
  outer loop
    vertex -1.52005457880821 -4.6128520434985 0.876300000187458
    vertex -40.9007157174039 -23.8200838399755 -1.81401552529215e-009
    vertex -40.9007157174038 -23.820083840067 0.876299998185984
  endloop
endfacet
facet normal -0.438371146789193 0.898794046299111 9.39483377350415e-011
  outer loop
    vertex -40.9007157174039 -23.8200838399755 -1.81401552529215e-009
    vertex -1.52005457880821 -4.6128520434985 0.876300000187458
    vertex -1.52005457880832 -4.61285204340696 1.87458329414802e-010
  endloop
endfacet
facet normal 0.256349884359669 0.966584055728618 1.0094124504721e-010
  outer loop
    vertex 1.52005457880834 -4.61285204349811 0.876300000187071
    vertex -1.0715872633682e-013 -4.20971502372527 2.29428419318278e-010
    vertex 5.63993296509579e-015 -4.20971502381681 0.876300000229428
  endloop
endfacet
facet normal 0.256349884359669 0.966584055728618 1.0094124504721e-010
  outer loop
    vertex -1.0715872633682e-013 -4.20971502372527 2.29428419318278e-010
    vertex 1.52005457880834 -4.61285204349811 0.876300000187071
    vertex 1.52005457880822 -4.61285204340657 1.87071465262978e-010
  endloop
endfacet
facet normal -1.2776582371568e-013 1.04464787312501e-010 -1.0
  outer loop
    vertex -43.2375157174042 -23.8200838399754 -1.81371819507614e-009
    vertex -40.9007157174039 -23.8200838399755 -1.81401552529215e-009
    vertex -43.2375157174042 -26.3542300008522 -2.07836499954706e-009
  endloop
endfacet
facet normal -1.2776582371568e-013 1.04464787312501e-010 -1.0
  outer loop
    vertex -43.2375157174042 -26.3542300008522 -2.07836499954706e-009
    vertex 0.0 -6.4056180498 0.0
    vertex -40.9007157174039 -26.3542300008523 -2.07866232976306e-009
  endloop
endfacet
facet normal -1.2776582371568e-013 1.04464787312501e-010 -1.0
  outer loop
    vertex 0.0 -6.4056180498 0.0
    vertex -43.2375157174042 -26.3542300008522 -2.07836499954706e-009
    vertex -40.9007157174039 -23.8200838399755 -1.81401552529215e-009
  endloop
endfacet
facet normal -1.2776582371568e-013 1.04464787312501e-010 -1.0
  outer loop
    vertex 0.0 -6.4056180498 0.0
    vertex -40.9007157174039 -23.8200838399755 -1.81401552529215e-009
    vertex -1.52005457880832 -4.61285204340696 1.87458329414802e-010
  endloop
endfacet
facet normal -1.2776582371568e-013 1.04464787312501e-010 -1.0
  outer loop
    vertex 0.0 -6.4056180498 0.0
    vertex 43.237515717409 -26.3542300008415 -2.0894487015588e-009
    vertex 40.900715717409 -26.3542300008418 -2.08915524879671e-009
  endloop
endfacet
facet normal -1.2776582371568e-013 1.04464787312501e-010 -1.0
  outer loop
    vertex 43.237515717409 -26.3542300008415 -2.0894487015588e-009
    vertex 0.0 -6.4056180498 0.0
    vertex 40.9007157174087 -23.820083839965 -1.82442543156247e-009
  endloop
endfacet
facet normal -1.2776582371568e-013 1.04464787312501e-010 -1.0
  outer loop
    vertex 40.9007157174087 -23.820083839965 -1.82442543156247e-009
    vertex 0.0 -6.4056180498 0.0
    vertex 1.52005457880822 -4.61285204340657 1.87071465262978e-010
  endloop
endfacet
facet normal -1.2776582371568e-013 1.04464787312501e-010 -1.0
  outer loop
    vertex 1.52005457880822 -4.61285204340657 1.87071465262978e-010
    vertex 0.0 -6.4056180498 0.0
    vertex -1.52005457880832 -4.61285204340696 1.87458329414802e-010
  endloop
endfacet
facet normal -1.2776582371568e-013 1.04464787312501e-010 -1.0
  outer loop
    vertex 1.52005457880822 -4.61285204340657 1.87071465262978e-010
    vertex -1.52005457880832 -4.61285204340696 1.87458329414802e-010
    vertex -1.0715872633682e-013 -4.20971502372527 2.29428419318278e-010
  endloop
endfacet
facet normal -1.2776582371568e-013 1.04464787312501e-010 -1.0
  outer loop
    vertex 43.2375157174086 -23.8200838399647 -1.82471888432456e-009
    vertex 43.237515717409 -26.3542300008415 -2.0894487015588e-009
    vertex 40.9007157174087 -23.820083839965 -1.82442543156247e-009
  endloop
endfacet
facet normal 0.438371146789192 -0.898794046299111 -9.39483377350416e-011
  outer loop
    vertex 0.0 -6.4056180498 0.0
    vertex -40.9007157174038 -26.3542300009438 0.876299997921338
    vertex -40.9007157174039 -26.3542300008523 -2.07866232976306e-009
  endloop
endfacet
facet normal 0.438371146789192 -0.898794046299111 -9.39483377350416e-011
  outer loop
    vertex -40.9007157174038 -26.3542300009438 0.876299997921338
    vertex 0.0 -6.4056180498 0.0
    vertex 1.12798659301916e-013 -6.40561804989154 0.8763
  endloop
endfacet
facet normal -0.256349884359917 0.966584055728552 1.01006750555473e-010
  outer loop
    vertex 5.63993296509579e-015 -4.20971502381681 0.876300000229428
    vertex -1.52005457880832 -4.61285204340696 1.87458329414802e-010
    vertex -1.52005457880821 -4.6128520434985 0.876300000187458
  endloop
endfacet
facet normal -0.256349884359917 0.966584055728552 1.01006750555473e-010
  outer loop
    vertex -1.52005457880832 -4.61285204340696 1.87458329414802e-010
    vertex 5.63993296509579e-015 -4.20971502381681 0.876300000229428
    vertex -1.0715872633682e-013 -4.20971502372527 2.29428419318278e-010
  endloop
endfacet
facet normal 0.438371146788962 0.898794046299223 9.38363200337279e-011
  outer loop
    vertex 40.9007157174088 -23.8200838400565 0.876299998175575
    vertex 1.52005457880822 -4.61285204340657 1.87071465262978e-010
    vertex 1.52005457880834 -4.61285204349811 0.876300000187071
  endloop
endfacet
facet normal 0.438371146788962 0.898794046299223 9.38363200337279e-011
  outer loop
    vertex 1.52005457880822 -4.61285204340657 1.87071465262978e-010
    vertex 40.9007157174088 -23.8200838400565 0.876299998175575
    vertex 40.9007157174087 -23.820083839965 -1.82442543156247e-009
  endloop
endfacet
facet normal 1.2776582371568e-013 -1.04464787312501e-010 1.0
  outer loop
    vertex 43.2375157174087 -23.8200838400562 0.876299998175281
    vertex 40.9007157174091 -26.3542300009333 0.876299997910845
    vertex 43.2375157174091 -26.354230000933 0.876299997910551
  endloop
endfacet
facet normal 1.2776582371568e-013 -1.04464787312501e-010 1.0
  outer loop
    vertex 40.9007157174091 -26.3542300009333 0.876299997910845
    vertex 43.2375157174087 -23.8200838400562 0.876299998175281
    vertex 40.9007157174088 -23.8200838400565 0.876299998175575
  endloop
endfacet
facet normal 1.2776582371568e-013 -1.04464787312501e-010 1.0
  outer loop
    vertex 40.9007157174091 -26.3542300009333 0.876299997910845
    vertex 40.9007157174088 -23.8200838400565 0.876299998175575
    vertex 1.12798659301916e-013 -6.40561804989154 0.8763
  endloop
endfacet
facet normal 1.2776582371568e-013 -1.04464787312501e-010 1.0
  outer loop
    vertex 1.12798659301916e-013 -6.40561804989154 0.8763
    vertex 40.9007157174088 -23.8200838400565 0.876299998175575
    vertex 1.52005457880834 -4.61285204349811 0.876300000187071
  endloop
endfacet
facet normal 1.2776582371568e-013 -1.04464787312501e-010 1.0
  outer loop
    vertex 1.12798659301916e-013 -6.40561804989154 0.8763
    vertex -43.237515717404 -26.3542300009438 0.876299997921635
    vertex -40.9007157174038 -26.3542300009438 0.876299997921338
  endloop
endfacet
facet normal 1.2776582371568e-013 -1.04464787312501e-010 1.0
  outer loop
    vertex -43.237515717404 -26.3542300009438 0.876299997921635
    vertex 1.12798659301916e-013 -6.40561804989154 0.8763
    vertex -40.9007157174038 -23.820083840067 0.876299998185984
  endloop
endfacet
facet normal 1.2776582371568e-013 -1.04464787312501e-010 1.0
  outer loop
    vertex -40.9007157174038 -23.820083840067 0.876299998185984
    vertex 1.12798659301916e-013 -6.40561804989154 0.8763
    vertex -1.52005457880821 -4.6128520434985 0.876300000187458
  endloop
endfacet
facet normal 1.2776582371568e-013 -1.04464787312501e-010 1.0
  outer loop
    vertex -1.52005457880821 -4.6128520434985 0.876300000187458
    vertex 1.12798659301916e-013 -6.40561804989154 0.8763
    vertex 1.52005457880834 -4.61285204349811 0.876300000187071
  endloop
endfacet
facet normal 1.2776582371568e-013 -1.04464787312501e-010 1.0
  outer loop
    vertex -1.52005457880821 -4.6128520434985 0.876300000187458
    vertex 1.52005457880834 -4.61285204349811 0.876300000187071
    vertex 5.63993296509579e-015 -4.20971502381681 0.876300000229428
  endloop
endfacet
facet normal 1.2776582371568e-013 -1.04464787312501e-010 1.0
  outer loop
    vertex -43.2375157174041 -23.820083840067 0.876299998186282
    vertex -43.237515717404 -26.3542300009438 0.876299997921635
    vertex -40.9007157174038 -23.820083840067 0.876299998185984
  endloop
endfacet
facet normal -0.438371146788961 -0.898794046299224 -9.38363200337279e-011
  outer loop
    vertex 40.900715717409 -26.3542300008418 -2.08915524879671e-009
    vertex 1.12798659301916e-013 -6.40561804989154 0.8763
    vertex 0.0 -6.4056180498 0.0
  endloop
endfacet
facet normal -0.438371146788961 -0.898794046299224 -9.38363200337279e-011
  outer loop
    vertex 1.12798659301916e-013 -6.40561804989154 0.8763
    vertex 40.900715717409 -26.3542300008418 -2.08915524879671e-009
    vertex 40.9007157174091 -26.3542300009333 0.876299997910845
  endloop
endfacet
facet normal -1.28272920692382e-013 1.0 1.04465103234475e-010
  outer loop
    vertex 43.2375157174087 -23.8200838400562 0.876299998175281
    vertex 40.9007157174087 -23.820083839965 -1.82442543156247e-009
    vertex 40.9007157174088 -23.8200838400565 0.876299998175575
  endloop
endfacet
facet normal -1.28272920692382e-013 1.0 1.04465103234475e-010
  outer loop
    vertex 40.9007157174087 -23.820083839965 -1.82442543156247e-009
    vertex 43.2375157174087 -23.8200838400562 0.876299998175281
    vertex 43.2375157174086 -23.8200838399647 -1.82471888432456e-009
  endloop
endfacet
facet normal 1.28272920692382e-013 -1.0 -1.04465103234475e-010
  outer loop
    vertex 43.237515717409 -26.3542300008415 -2.0894487015588e-009
    vertex 40.9007157174091 -26.3542300009333 0.876299997910845
    vertex 40.900715717409 -26.3542300008418 -2.08915524879671e-009
  endloop
endfacet
facet normal 1.28272920692382e-013 -1.0 -1.04465103234475e-010
  outer loop
    vertex 40.9007157174091 -26.3542300009333 0.876299997910845
    vertex 43.237515717409 -26.3542300008415 -2.0894487015588e-009
    vertex 43.2375157174091 -26.354230000933 0.876299997910551
  endloop
endfacet
facet normal 1.0 1.28272920705729e-013 -1.2776582370228e-013
  outer loop
    vertex 43.237515717409 -26.3542300008415 -2.0894487015588e-009
    vertex 43.2375157174087 -23.8200838400562 0.876299998175281
    vertex 43.2375157174091 -26.354230000933 0.876299997910551
  endloop
endfacet
facet normal 1.0 1.28272920705729e-013 -1.2776582370228e-013
  outer loop
    vertex 43.2375157174087 -23.8200838400562 0.876299998175281
    vertex 43.237515717409 -26.3542300008415 -2.0894487015588e-009
    vertex 43.2375157174086 -23.8200838399647 -1.82471888432456e-009
  endloop
endfacet
facet normal 5.07096976754396e-016 -1.0 -1.04465103234475e-010
  outer loop
    vertex -40.9007157174039 -26.3542300008523 -2.07866232976306e-009
    vertex -43.237515717404 -26.3542300009438 0.876299997921635
    vertex -43.2375157174042 -26.3542300008522 -2.07836499954706e-009
  endloop
endfacet
facet normal 5.07096976754396e-016 -1.0 -1.04465103234475e-010
  outer loop
    vertex -43.237515717404 -26.3542300009438 0.876299997921635
    vertex -40.9007157174039 -26.3542300008523 -2.07866232976306e-009
    vertex -40.9007157174038 -26.3542300009438 0.876299997921338
  endloop
endfacet
facet normal -1.0 -5.07096990101442e-016 1.27765823715627e-013
  outer loop
    vertex -43.2375157174041 -23.820083840067 0.876299998186282
    vertex -43.2375157174042 -26.3542300008522 -2.07836499954706e-009
    vertex -43.237515717404 -26.3542300009438 0.876299997921635
  endloop
endfacet
facet normal -1.0 -5.07096990101442e-016 1.27765823715627e-013
  outer loop
    vertex -43.2375157174042 -26.3542300008522 -2.07836499954706e-009
    vertex -43.2375157174041 -23.820083840067 0.876299998186282
    vertex -43.2375157174042 -23.8200838399754 -1.81371819507614e-009
  endloop
endfacet
facet normal -5.07096976754396e-016 1.0 1.04465103234475e-010
  outer loop
    vertex -40.9007157174038 -23.820083840067 0.876299998185984
    vertex -43.2375157174042 -23.8200838399754 -1.81371819507614e-009
    vertex -43.2375157174041 -23.820083840067 0.876299998186282
  endloop
endfacet
facet normal -5.07096976754396e-016 1.0 1.04465103234475e-010
  outer loop
    vertex -43.2375157174042 -23.8200838399754 -1.81371819507614e-009
    vertex -40.9007157174038 -23.820083840067 0.876299998185984
    vertex -40.9007157174039 -23.8200838399755 -1.81401552529215e-009
  endloop
endfacet
endsolid Untitled-5e057ba4
