solid Untitled-5dfc3754
facet normal 0.0 0.0 1.0
  outer loop
    vertex -36.4992708333333 35.3312941666666 9.34381333333334
    vertex -34.1633175 37.6672475 9.34381333333334
    vertex -36.4992708333333 136.361275833333 9.34381333333334
  endloop
endfacet
facet normal 0.0 0.0 1.0
  outer loop
    vertex -34.1633175 37.6672475 9.34381333333334
    vertex -36.4992708333333 35.3312941666666 9.34381333333334
    vertex -7.69271793088495 35.3312941666666 9.34381333333334
  endloop
endfacet
facet normal 0.0 0.0 1.0
  outer loop
    vertex -34.1633175 37.6672475 9.34381333333334
    vertex -7.69271793088495 35.3312941666666 9.34381333333334
    vertex -7.69271793088495 37.6672475 9.34381333333334
  endloop
endfacet
facet normal 0.0 0.0 1.0
  outer loop
    vertex -36.4992708333333 136.361275833333 9.34381333333334
    vertex -34.1633175 134.0253225 9.34381333333334
    vertex -7.69271793088499 136.361275833333 9.34381333333334
  endloop
endfacet
facet normal 0.0 0.0 1.0
  outer loop
    vertex -34.1633175 134.0253225 9.34381333333334
    vertex -36.4992708333333 136.361275833333 9.34381333333334
    vertex -34.1633175 37.6672475 9.34381333333334
  endloop
endfacet
facet normal 0.0 0.0 1.0
  outer loop
    vertex -7.69271793088499 136.361275833333 9.34381333333334
    vertex -34.1633175 134.0253225 9.34381333333334
    vertex -7.69271793088499 134.0253225 9.34381333333334
  endloop
endfacet
facet normal 0.0 1.0 0.0
  outer loop
    vertex 7.49097920648763 136.361275833333 9.34381333333334
    vertex 36.4992708333333 136.361275833333 7.00786000000001
    vertex 7.49097920648763 136.361275833333 7.00786000000001
  endloop
endfacet
facet normal 0.0 1.0 0.0
  outer loop
    vertex 36.4992708333333 136.361275833333 7.00786000000001
    vertex 7.49097920648763 136.361275833333 9.34381333333334
    vertex 36.4992708333333 136.361275833333 9.34381333333334
  endloop
endfacet
facet normal -1.0 0.0 0.0
  outer loop
    vertex -36.4992708333333 136.361275833333 9.34381333333334
    vertex -36.4992708333333 35.3312941666666 7.00786000000001
    vertex -36.4992708333333 35.3312941666666 9.34381333333334
  endloop
endfacet
facet normal -1.0 0.0 0.0
  outer loop
    vertex -36.4992708333333 35.3312941666666 7.00786000000001
    vertex -36.4992708333333 136.361275833333 9.34381333333334
    vertex -36.4992708333333 136.361275833333 7.00786000000001
  endloop
endfacet
facet normal 0.0 -1.0 0.0
  outer loop
    vertex -7.69271793088495 35.3312941666666 9.34381333333334
    vertex -36.4992708333333 35.3312941666666 7.00786000000001
    vertex -7.69271793088495 35.3312941666666 7.00786000000001
  endloop
endfacet
facet normal 0.0 -1.0 0.0
  outer loop
    vertex -36.4992708333333 35.3312941666666 7.00786000000001
    vertex -7.69271793088495 35.3312941666666 9.34381333333334
    vertex -36.4992708333333 35.3312941666666 9.34381333333334
  endloop
endfacet
facet normal 1.0 0.0 0.0
  outer loop
    vertex 36.4992708333333 136.361275833333 7.00786000000001
    vertex 36.4992708333333 35.3312941666666 9.34381333333334
    vertex 36.4992708333333 35.3312941666666 7.00786000000001
  endloop
endfacet
facet normal 1.0 0.0 0.0
  outer loop
    vertex 36.4992708333333 35.3312941666666 9.34381333333334
    vertex 36.4992708333333 136.361275833333 7.00786000000001
    vertex 36.4992708333333 136.361275833333 9.34381333333334
  endloop
endfacet
facet normal 1.0 0.0 0.0
  outer loop
    vertex -34.1633175 134.0253225 8.1074036373252e-015
    vertex -34.1633175 37.6672475 9.34381333333334
    vertex -34.1633175 37.6672475 8.1074036373252e-015
  endloop
endfacet
facet normal 1.0 0.0 0.0
  outer loop
    vertex -34.1633175 37.6672475 9.34381333333334
    vertex -34.1633175 134.0253225 8.1074036373252e-015
    vertex -34.1633175 134.0253225 9.34381333333334
  endloop
endfacet
facet normal 0.0 -1.0 0.0
  outer loop
    vertex 34.1633175 134.0253225 9.34381333333334
    vertex -34.1633175 134.0253225 8.1074036373252e-015
    vertex 34.1633175 134.0253225 8.1074036373252e-015
  endloop
endfacet
facet normal 0.0 -1.0 0.0
  outer loop
    vertex -34.1633175 134.0253225 8.1074036373252e-015
    vertex 34.1633175 134.0253225 9.34381333333334
    vertex 7.49097920648763 134.0253225 7.00786000000001
  endloop
endfacet
facet normal 0.0 -1.0 0.0
  outer loop
    vertex 7.49097920648763 134.0253225 7.00786000000001
    vertex 34.1633175 134.0253225 9.34381333333334
    vertex 7.49097920648763 134.0253225 9.34381333333334
  endloop
endfacet
facet normal 0.0 -1.0 0.0
  outer loop
    vertex -34.1633175 134.0253225 8.1074036373252e-015
    vertex -7.69271793088499 134.0253225 7.00786000000001
    vertex -34.1633175 134.0253225 9.34381333333334
  endloop
endfacet
facet normal 0.0 -1.0 0.0
  outer loop
    vertex -7.69271793088499 134.0253225 7.00786000000001
    vertex -34.1633175 134.0253225 8.1074036373252e-015
    vertex 7.49097920648763 134.0253225 7.00786000000001
  endloop
endfacet
facet normal 0.0 -1.0 0.0
  outer loop
    vertex -34.1633175 134.0253225 9.34381333333334
    vertex -7.69271793088499 134.0253225 7.00786000000001
    vertex -7.69271793088499 134.0253225 9.34381333333334
  endloop
endfacet
facet normal -1.0 0.0 0.0
  outer loop
    vertex 34.1633175 134.0253225 9.34381333333334
    vertex 34.1633175 37.6672475 8.1074036373252e-015
    vertex 34.1633175 37.6672475 9.34381333333334
  endloop
endfacet
facet normal -1.0 0.0 0.0
  outer loop
    vertex 34.1633175 37.6672475 8.1074036373252e-015
    vertex 34.1633175 134.0253225 9.34381333333334
    vertex 34.1633175 134.0253225 8.1074036373252e-015
  endloop
endfacet
facet normal 0.0 1.0 0.0
  outer loop
    vertex -34.1633175 37.6672475 9.34381333333334
    vertex 34.1633175 37.6672475 8.1074036373252e-015
    vertex -34.1633175 37.6672475 8.1074036373252e-015
  endloop
endfacet
facet normal 0.0 1.0 0.0
  outer loop
    vertex 34.1633175 37.6672475 8.1074036373252e-015
    vertex -34.1633175 37.6672475 9.34381333333334
    vertex -7.69271793088495 37.6672475 7.00786000000001
  endloop
endfacet
facet normal 0.0 1.0 0.0
  outer loop
    vertex -7.69271793088495 37.6672475 7.00786000000001
    vertex -34.1633175 37.6672475 9.34381333333334
    vertex -7.69271793088495 37.6672475 9.34381333333334
  endloop
endfacet
facet normal 0.0 1.0 0.0
  outer loop
    vertex 34.1633175 37.6672475 8.1074036373252e-015
    vertex 7.49097920648763 37.6672475 7.00786000000001
    vertex 34.1633175 37.6672475 9.34381333333334
  endloop
endfacet
facet normal 0.0 1.0 0.0
  outer loop
    vertex 7.49097920648763 37.6672475 7.00786000000001
    vertex 34.1633175 37.6672475 8.1074036373252e-015
    vertex -7.69271793088495 37.6672475 7.00786000000001
  endloop
endfacet
facet normal 0.0 1.0 0.0
  outer loop
    vertex 34.1633175 37.6672475 9.34381333333334
    vertex 7.49097920648763 37.6672475 7.00786000000001
    vertex 7.49097920648763 37.6672475 9.34381333333334
  endloop
endfacet
facet normal -4.24946243278055e-010 -6.55326015726139e-009 1.0
  outer loop
    vertex 40.295195 31.53537 7.00786000000001
    vertex 29.783405 33.287335 7.00786000000001
    vertex 29.783405 31.53537 7.00786000000001
  endloop
endfacet
facet normal -4.24946243278055e-010 -6.55326015726139e-009 1.0
  outer loop
    vertex 29.783405 33.287335 7.00786000000001
    vertex 40.295195 31.53537 7.00786000000001
    vertex 36.4992708333333 35.3312941666666 7.00786000000001
  endloop
endfacet
facet normal -4.24946243278055e-010 -6.55326015726139e-009 1.0
  outer loop
    vertex 36.4992708333333 35.3312941666666 7.00786000000001
    vertex 40.295195 31.53537 7.00786000000001
    vertex 36.4992708333333 136.361275833333 7.00786000000001
  endloop
endfacet
facet normal -4.24946243278055e-010 -6.55326015726139e-009 1.0
  outer loop
    vertex 7.49097920648763 134.0253225 7.00786000000001
    vertex -7.69271793088499 136.361275833333 7.00786000000001
    vertex -7.69271793088499 134.0253225 7.00786000000001
  endloop
endfacet
facet normal -4.24946243278055e-010 -6.55326015726139e-009 1.0
  outer loop
    vertex -7.69271793088499 136.361275833333 7.00786000000001
    vertex 7.49097920648763 134.0253225 7.00786000000001
    vertex -6.71586693244311 140.1572 7.00786090564049
  endloop
endfacet
facet normal -4.24946243278055e-010 -6.55326015726139e-009 1.0
  outer loop
    vertex -6.71586693244311 140.1572 7.00786090564049
    vertex 7.49097920648763 134.0253225 7.00786000000001
    vertex 6.71587455152041 140.1572 7.00786122908344
  endloop
endfacet
facet normal -4.24946243278055e-010 -6.55326015726139e-009 1.0
  outer loop
    vertex -6.71586693244311 140.1572 7.00786090564049
    vertex 6.71587455152041 140.1572 7.00786122908344
    vertex 6.71587455152033 150.66899 7.00786122908324
  endloop
endfacet
facet normal -4.24946243278055e-010 -6.55326015726139e-009 1.0
  outer loop
    vertex 6.71587455152041 140.1572 7.00786122908344
    vertex 7.49097920648763 134.0253225 7.00786000000001
    vertex 7.49097920648763 136.361275833333 7.00786000000001
  endloop
endfacet
facet normal -4.24946243278055e-010 -6.55326015726139e-009 1.0
  outer loop
    vertex 6.71587455152041 140.1572 7.00786122908344
    vertex 7.49097920648763 136.361275833333 7.00786000000001
    vertex 40.295195 140.1572 7.00786000000001
  endloop
endfacet
facet normal -4.24946243278055e-010 -6.55326015726139e-009 1.0
  outer loop
    vertex 40.295195 140.1572 7.00786000000001
    vertex 7.49097920648763 136.361275833333 7.00786000000001
    vertex 36.4992708333333 136.361275833333 7.00786000000001
  endloop
endfacet
facet normal -4.24946243278055e-010 -6.55326015726139e-009 1.0
  outer loop
    vertex 40.295195 140.1572 7.00786000000001
    vertex 36.4992708333333 136.361275833333 7.00786000000001
    vertex 40.295195 31.53537 7.00786000000001
  endloop
endfacet
facet normal -4.24946243278055e-010 -6.55326015726139e-009 1.0
  outer loop
    vertex -40.295195 31.53537 7.00786000000001
    vertex -36.4992708333333 35.3312941666666 7.00786000000001
    vertex -40.295195 140.1572 7.00786000000001
  endloop
endfacet
facet normal -4.24946243278055e-010 -6.55326015726139e-009 1.0
  outer loop
    vertex -36.4992708333333 35.3312941666666 7.00786000000001
    vertex -40.295195 31.53537 7.00786000000001
    vertex -29.783405 31.53537 7.00786000000001
  endloop
endfacet
facet normal -4.24946243278055e-010 -6.55326015726139e-009 1.0
  outer loop
    vertex -36.4992708333333 35.3312941666666 7.00786000000001
    vertex -29.783405 31.53537 7.00786000000001
    vertex -29.783405 33.287335 7.00786000000001
  endloop
endfacet
facet normal -4.24946243278055e-010 -6.55326015726139e-009 1.0
  outer loop
    vertex -36.4992708333333 35.3312941666666 7.00786000000001
    vertex -29.783405 33.287335 7.00786000000001
    vertex -7.69271793088495 35.3312941666666 7.00786000000001
  endloop
endfacet
facet normal -4.24946243278055e-010 -6.55326015726139e-009 1.0
  outer loop
    vertex -7.69271793088495 35.3312941666666 7.00786000000001
    vertex -29.783405 33.287335 7.00786000000001
    vertex 29.783405 33.287335 7.00786000000001
  endloop
endfacet
facet normal -4.24946243278055e-010 -6.55326015726139e-009 1.0
  outer loop
    vertex -7.69271793088495 35.3312941666666 7.00786000000001
    vertex 29.783405 33.287335 7.00786000000001
    vertex 7.49097920648763 35.3312941666666 7.00786000000001
  endloop
endfacet
facet normal -4.24946243278055e-010 -6.55326015726139e-009 1.0
  outer loop
    vertex -7.69271793088495 35.3312941666666 7.00786000000001
    vertex 7.49097920648763 35.3312941666666 7.00786000000001
    vertex -7.69271793088495 37.6672475 7.00786000000001
  endloop
endfacet
facet normal -4.24946243278055e-010 -6.55326015726139e-009 1.0
  outer loop
    vertex 7.49097920648763 35.3312941666666 7.00786000000001
    vertex 29.783405 33.287335 7.00786000000001
    vertex 36.4992708333333 35.3312941666666 7.00786000000001
  endloop
endfacet
facet normal -4.24946243278055e-010 -6.55326015726139e-009 1.0
  outer loop
    vertex 7.49097920648763 37.6672475 7.00786000000001
    vertex -7.69271793088495 37.6672475 7.00786000000001
    vertex 7.49097920648763 35.3312941666666 7.00786000000001
  endloop
endfacet
facet normal -4.24946243278055e-010 -6.55326015726139e-009 1.0
  outer loop
    vertex 6.71587455152033 150.66899 7.00786122908324
    vertex -6.71586693244318 150.66899 7.00786090564029
    vertex -6.71586693244311 140.1572 7.00786090564049
  endloop
endfacet
facet normal -4.24946243278055e-010 -6.55326015726139e-009 1.0
  outer loop
    vertex -40.295195 140.1572 7.00786000000001
    vertex -36.4992708333333 136.361275833333 7.00786000000001
    vertex -6.71586693244311 140.1572 7.00786090564049
  endloop
endfacet
facet normal -4.24946243278055e-010 -6.55326015726139e-009 1.0
  outer loop
    vertex -36.4992708333333 136.361275833333 7.00786000000001
    vertex -40.295195 140.1572 7.00786000000001
    vertex -36.4992708333333 35.3312941666666 7.00786000000001
  endloop
endfacet
facet normal -4.24946243278055e-010 -6.55326015726139e-009 1.0
  outer loop
    vertex -6.71586693244311 140.1572 7.00786090564049
    vertex -36.4992708333333 136.361275833333 7.00786000000001
    vertex -7.69271793088499 136.361275833333 7.00786000000001
  endloop
endfacet
facet normal 1.0 0.0 0.0
  outer loop
    vertex 40.295195 140.1572 8.1074036373252e-015
    vertex 40.295195 31.53537 7.00786000000001
    vertex 40.295195 31.53537 8.1074036373252e-015
  endloop
endfacet
facet normal 1.0 0.0 0.0
  outer loop
    vertex 40.295195 31.53537 7.00786000000001
    vertex 40.295195 140.1572 8.1074036373252e-015
    vertex 40.295195 140.1572 7.00786000000001
  endloop
endfacet
facet normal -5.43719663689845e-015 1.0 -9.47390314346792e-015
  outer loop
    vertex -40.295195 140.1572 7.00786000000001
    vertex -6.71586693244311 140.1572 8.1074036373252e-015
    vertex -40.295195 140.1572 8.1074036373252e-015
  endloop
endfacet
facet normal -5.43719663689845e-015 1.0 -9.47390314346792e-015
  outer loop
    vertex -6.71586693244311 140.1572 8.1074036373252e-015
    vertex -40.295195 140.1572 7.00786000000001
    vertex -6.71586693244311 140.1572 7.00786090564049
  endloop
endfacet
facet normal -1.0 0.0 0.0
  outer loop
    vertex 26.279475 31.53537 5.83988333333334
    vertex 26.279475 12.263755 8.1074036373252e-015
    vertex 26.279475 12.263755 5.83988333333334
  endloop
endfacet
facet normal -1.0 0.0 0.0
  outer loop
    vertex 26.279475 12.263755 8.1074036373252e-015
    vertex 26.279475 31.53537 5.83988333333334
    vertex 26.279475 31.53537 8.1074036373252e-015
  endloop
endfacet
facet normal 1.0 0.0 0.0
  outer loop
    vertex -26.279475 31.53537 8.1074036373252e-015
    vertex -26.279475 12.263755 5.83988333333334
    vertex -26.279475 12.263755 8.1074036373252e-015
  endloop
endfacet
facet normal 1.0 0.0 0.0
  outer loop
    vertex -26.279475 12.263755 5.83988333333334
    vertex -26.279475 31.53537 8.1074036373252e-015
    vertex -26.279475 31.53537 5.83988333333334
  endloop
endfacet
facet normal 0.0 1.0 0.0
  outer loop
    vertex -26.279475 12.263755 5.83988333333334
    vertex 26.279475 12.263755 8.1074036373252e-015
    vertex -26.279475 12.263755 8.1074036373252e-015
  endloop
endfacet
facet normal 0.0 1.0 0.0
  outer loop
    vertex 26.279475 12.263755 8.1074036373252e-015
    vertex -26.279475 12.263755 5.83988333333334
    vertex 26.279475 12.263755 5.83988333333334
  endloop
endfacet
facet normal 1.94330631001327e-033 -1.70299864852408e-032 1.0
  outer loop
    vertex -27.1554575 9.63580749999998 5.83988333333334
    vertex -28.9074225 11.3877725 5.83988333333334
    vertex -28.9074225 9.63580749999998 5.83988333333334
  endloop
endfacet
facet normal 1.94330631001327e-033 -1.70299864852408e-032 1.0
  outer loop
    vertex -28.9074225 11.3877725 5.83988333333334
    vertex -27.1554575 9.63580749999998 5.83988333333334
    vertex -28.03144 11.3877725 5.83988333333334
  endloop
endfacet
facet normal 1.94330631001327e-033 -1.70299864852408e-032 1.0
  outer loop
    vertex -28.03144 11.3877725 5.83988333333334
    vertex -27.1554575 9.63580749999998 5.83988333333334
    vertex -28.03144 31.53537 5.83988333333334
  endloop
endfacet
facet normal 1.94330631001327e-033 -1.70299864852408e-032 1.0
  outer loop
    vertex 8.759825 8.75982499999999 5.83988333333334
    vertex -8.759825 10.51179 5.83988333333334
    vertex -8.759825 8.75982499999999 5.83988333333334
  endloop
endfacet
facet normal 1.94330631001327e-033 -1.70299864852408e-032 1.0
  outer loop
    vertex -8.759825 10.51179 5.83988333333334
    vertex -26.279475 12.263755 5.83988333333334
    vertex -27.1554575 10.51179 5.83988333333334
  endloop
endfacet
facet normal 1.94330631001327e-033 -1.70299864852408e-032 1.0
  outer loop
    vertex -26.279475 12.263755 5.83988333333334
    vertex -8.759825 10.51179 5.83988333333334
    vertex 26.279475 12.263755 5.83988333333334
  endloop
endfacet
facet normal 1.94330631001327e-033 -1.70299864852408e-032 1.0
  outer loop
    vertex 26.279475 12.263755 5.83988333333334
    vertex -8.759825 10.51179 5.83988333333334
    vertex 8.759825 10.51179 5.83988333333334
  endloop
endfacet
facet normal 1.94330631001327e-033 -1.70299864852408e-032 1.0
  outer loop
    vertex 8.759825 10.51179 5.83988333333334
    vertex -8.759825 10.51179 5.83988333333334
    vertex 8.759825 8.75982499999999 5.83988333333334
  endloop
endfacet
facet normal 1.94330631001327e-033 -1.70299864852408e-032 1.0
  outer loop
    vertex 26.279475 12.263755 5.83988333333334
    vertex 8.759825 10.51179 5.83988333333334
    vertex 27.1554575 10.51179 5.83988333333334
  endloop
endfacet
facet normal 1.94330631001327e-033 -1.70299864852408e-032 1.0
  outer loop
    vertex 26.279475 12.263755 5.83988333333334
    vertex 27.1554575 10.51179 5.83988333333334
    vertex 26.279475 31.53537 5.83988333333334
  endloop
endfacet
facet normal 1.94330631001327e-033 -1.70299864852408e-032 1.0
  outer loop
    vertex 28.9074225 9.63580749999998 5.83988333333334
    vertex 27.1554575 10.51179 5.83988333333334
    vertex 27.1554575 9.63580749999998 5.83988333333334
  endloop
endfacet
facet normal 1.94330631001327e-033 -1.70299864852408e-032 1.0
  outer loop
    vertex 27.1554575 10.51179 5.83988333333334
    vertex 28.9074225 9.63580749999998 5.83988333333334
    vertex 28.03144 11.3877725 5.83988333333334
  endloop
endfacet
facet normal 1.94330631001327e-033 -1.70299864852408e-032 1.0
  outer loop
    vertex 28.03144 11.3877725 5.83988333333334
    vertex 28.9074225 9.63580749999998 5.83988333333334
    vertex 28.9074225 11.3877725 5.83988333333334
  endloop
endfacet
facet normal 1.94330631001327e-033 -1.70299864852408e-032 1.0
  outer loop
    vertex -28.03144 31.53537 5.83988333333334
    vertex -29.783405 33.287335 5.83988333333334
    vertex -29.783405 31.53537 5.83988333333334
  endloop
endfacet
facet normal 1.94330631001327e-033 -1.70299864852408e-032 1.0
  outer loop
    vertex -29.783405 33.287335 5.83988333333334
    vertex -28.03144 31.53537 5.83988333333334
    vertex 29.783405 33.287335 5.83988333333334
  endloop
endfacet
facet normal 1.94330631001327e-033 -1.70299864852408e-032 1.0
  outer loop
    vertex 29.783405 33.287335 5.83988333333334
    vertex -28.03144 31.53537 5.83988333333334
    vertex -26.279475 31.53537 5.83988333333334
  endloop
endfacet
facet normal 1.94330631001327e-033 -1.70299864852408e-032 1.0
  outer loop
    vertex -26.279475 31.53537 5.83988333333334
    vertex -28.03144 31.53537 5.83988333333334
    vertex -27.1554575 10.51179 5.83988333333334
  endloop
endfacet
facet normal 1.94330631001327e-033 -1.70299864852408e-032 1.0
  outer loop
    vertex -27.1554575 10.51179 5.83988333333334
    vertex -28.03144 31.53537 5.83988333333334
    vertex -27.1554575 9.63580749999998 5.83988333333334
  endloop
endfacet
facet normal 1.94330631001327e-033 -1.70299864852408e-032 1.0
  outer loop
    vertex -26.279475 31.53537 5.83988333333334
    vertex -27.1554575 10.51179 5.83988333333334
    vertex -26.279475 12.263755 5.83988333333334
  endloop
endfacet
facet normal 1.94330631001327e-033 -1.70299864852408e-032 1.0
  outer loop
    vertex 29.783405 33.287335 5.83988333333334
    vertex -26.279475 31.53537 5.83988333333334
    vertex 26.279475 31.53537 5.83988333333334
  endloop
endfacet
facet normal 1.94330631001327e-033 -1.70299864852408e-032 1.0
  outer loop
    vertex 29.783405 33.287335 5.83988333333334
    vertex 26.279475 31.53537 5.83988333333334
    vertex 28.03144 31.53537 5.83988333333334
  endloop
endfacet
facet normal 1.94330631001327e-033 -1.70299864852408e-032 1.0
  outer loop
    vertex 28.03144 31.53537 5.83988333333334
    vertex 26.279475 31.53537 5.83988333333334
    vertex 27.1554575 10.51179 5.83988333333334
  endloop
endfacet
facet normal 1.94330631001327e-033 -1.70299864852408e-032 1.0
  outer loop
    vertex 28.03144 31.53537 5.83988333333334
    vertex 27.1554575 10.51179 5.83988333333334
    vertex 28.03144 11.3877725 5.83988333333334
  endloop
endfacet
facet normal 1.94330631001327e-033 -1.70299864852408e-032 1.0
  outer loop
    vertex 29.783405 33.287335 5.83988333333334
    vertex 28.03144 31.53537 5.83988333333334
    vertex 29.783405 31.53537 5.83988333333334
  endloop
endfacet
facet normal 0.0 -1.0 0.0
  outer loop
    vertex 29.783405 33.287335 7.00786000000001
    vertex -29.783405 33.287335 5.83988333333334
    vertex 29.783405 33.287335 5.83988333333334
  endloop
endfacet
facet normal 0.0 -1.0 0.0
  outer loop
    vertex -29.783405 33.287335 5.83988333333334
    vertex 29.783405 33.287335 7.00786000000001
    vertex -29.783405 33.287335 7.00786000000001
  endloop
endfacet
facet normal -1.0 0.0 0.0
  outer loop
    vertex 29.783405 33.287335 7.00786000000001
    vertex 29.783405 31.53537 5.83988333333334
    vertex 29.783405 31.53537 7.00786000000001
  endloop
endfacet
facet normal -1.0 0.0 0.0
  outer loop
    vertex 29.783405 31.53537 5.83988333333334
    vertex 29.783405 33.287335 7.00786000000001
    vertex 29.783405 33.287335 5.83988333333334
  endloop
endfacet
facet normal 1.0 0.0 0.0
  outer loop
    vertex -29.783405 33.287335 5.83988333333334
    vertex -29.783405 31.53537 7.00786000000001
    vertex -29.783405 31.53537 5.83988333333334
  endloop
endfacet
facet normal 1.0 0.0 0.0
  outer loop
    vertex -29.783405 31.53537 7.00786000000001
    vertex -29.783405 33.287335 5.83988333333334
    vertex -29.783405 33.287335 7.00786000000001
  endloop
endfacet
facet normal 0.0 -1.0 0.0
  outer loop
    vertex 40.295195 31.53537 7.00786000000001
    vertex 28.03144 31.53537 8.1074036373252e-015
    vertex 40.295195 31.53537 8.1074036373252e-015
  endloop
endfacet
facet normal 0.0 -1.0 0.0
  outer loop
    vertex 28.03144 31.53537 8.1074036373252e-015
    vertex 40.295195 31.53537 7.00786000000001
    vertex 29.783405 31.53537 5.83988333333334
  endloop
endfacet
facet normal 0.0 -1.0 0.0
  outer loop
    vertex 29.783405 31.53537 5.83988333333334
    vertex 40.295195 31.53537 7.00786000000001
    vertex 29.783405 31.53537 7.00786000000001
  endloop
endfacet
facet normal 0.0 -1.0 0.0
  outer loop
    vertex 28.03144 31.53537 5.83988333333334
    vertex 28.03144 31.53537 8.1074036373252e-015
    vertex 29.783405 31.53537 5.83988333333334
  endloop
endfacet
facet normal 0.0 -1.0 0.0
  outer loop
    vertex 26.279475 31.53537 5.83988333333334
    vertex -26.279475 31.53537 8.1074036373252e-015
    vertex 26.279475 31.53537 8.1074036373252e-015
  endloop
endfacet
facet normal 0.0 -1.0 0.0
  outer loop
    vertex -26.279475 31.53537 8.1074036373252e-015
    vertex 26.279475 31.53537 5.83988333333334
    vertex -26.279475 31.53537 5.83988333333334
  endloop
endfacet
facet normal 0.0 -1.0 0.0
  outer loop
    vertex 8.759825 8.75982499999999 5.83988333333334
    vertex -8.759825 8.75982499999999 5.25589500000001
    vertex 8.759825 8.75982499999999 5.25589500000001
  endloop
endfacet
facet normal 0.0 -1.0 0.0
  outer loop
    vertex -8.759825 8.75982499999999 5.25589500000001
    vertex 8.759825 8.75982499999999 5.83988333333334
    vertex -8.759825 8.75982499999999 5.83988333333334
  endloop
endfacet
facet normal 0.0 -1.0 -2.368475785867e-015
  outer loop
    vertex 8.759825 5.83988333333332 5.255895
    vertex -8.759825 5.83988333333332 3.50393
    vertex 8.759825 5.83988333333332 3.50393
  endloop
endfacet
facet normal 0.0 -1.0 -2.368475785867e-015
  outer loop
    vertex -8.759825 5.83988333333332 3.50393
    vertex 8.759825 5.83988333333332 5.255895
    vertex -8.759825 5.83988333333332 5.255895
  endloop
endfacet
facet normal 0.0 -2.368475785867e-015 1.0
  outer loop
    vertex 8.759825 5.83988333333332 5.255895
    vertex -8.759825 8.75982499999999 5.25589500000001
    vertex -8.759825 5.83988333333332 5.255895
  endloop
endfacet
facet normal 0.0 -2.368475785867e-015 1.0
  outer loop
    vertex -8.759825 8.75982499999999 5.25589500000001
    vertex 8.759825 5.83988333333332 5.255895
    vertex 8.759825 8.75982499999999 5.25589500000001
  endloop
endfacet
facet normal 0.0 -1.0 0.0
  outer loop
    vertex 8.759825 2.91994166666666 3.50393
    vertex -8.759825 2.91994166666666 1.75196500000001
    vertex 8.759825 2.91994166666666 1.75196500000001
  endloop
endfacet
facet normal 0.0 -1.0 0.0
  outer loop
    vertex -8.759825 2.91994166666666 1.75196500000001
    vertex 8.759825 2.91994166666666 3.50393
    vertex -8.759825 2.91994166666666 3.50393
  endloop
endfacet
facet normal 0.0 0.0 1.0
  outer loop
    vertex 8.759825 2.91994166666666 3.50393
    vertex -8.759825 5.83988333333332 3.50393
    vertex -8.759825 2.91994166666666 3.50393
  endloop
endfacet
facet normal 0.0 0.0 1.0
  outer loop
    vertex -8.759825 5.83988333333332 3.50393
    vertex 8.759825 2.91994166666666 3.50393
    vertex 8.759825 5.83988333333332 3.50393
  endloop
endfacet
facet normal 1.0 0.0 0.0
  outer loop
    vertex 8.759825 0.0 0.0
    vertex 8.759825 2.91994166666666 1.75196500000001
    vertex 8.759825 -5.63993296509579e-015 1.751965
  endloop
endfacet
facet normal 1.0 0.0 0.0
  outer loop
    vertex 8.759825 2.91994166666666 1.75196500000001
    vertex 8.759825 0.0 0.0
    vertex 8.759825 10.51179 8.1074036373252e-015
  endloop
endfacet
facet normal 1.0 0.0 0.0
  outer loop
    vertex 8.759825 2.91994166666666 1.75196500000001
    vertex 8.759825 10.51179 8.1074036373252e-015
    vertex 8.759825 2.91994166666666 3.50393
  endloop
endfacet
facet normal 1.0 0.0 0.0
  outer loop
    vertex 8.759825 2.91994166666666 3.50393
    vertex 8.759825 10.51179 8.1074036373252e-015
    vertex 8.759825 5.83988333333332 3.50393
  endloop
endfacet
facet normal 1.0 0.0 0.0
  outer loop
    vertex 8.759825 5.83988333333332 3.50393
    vertex 8.759825 10.51179 8.1074036373252e-015
    vertex 8.759825 8.75982499999999 5.25589500000001
  endloop
endfacet
facet normal 1.0 0.0 0.0
  outer loop
    vertex 8.759825 8.75982499999999 5.25589500000001
    vertex 8.759825 10.51179 8.1074036373252e-015
    vertex 8.759825 8.75982499999999 5.83988333333334
  endloop
endfacet
facet normal 1.0 0.0 0.0
  outer loop
    vertex 8.759825 8.75982499999999 5.83988333333334
    vertex 8.759825 10.51179 8.1074036373252e-015
    vertex 8.759825 10.51179 5.83988333333334
  endloop
endfacet
facet normal 1.0 0.0 0.0
  outer loop
    vertex 8.759825 8.75982499999999 5.25589500000001
    vertex 8.759825 5.83988333333332 5.255895
    vertex 8.759825 5.83988333333332 3.50393
  endloop
endfacet
facet normal -1.0 0.0 0.0
  outer loop
    vertex -8.759825 5.83988333333332 3.50393
    vertex -8.759825 2.91994166666666 1.75196500000001
    vertex -8.759825 2.91994166666666 3.50393
  endloop
endfacet
facet normal -1.0 0.0 0.0
  outer loop
    vertex -8.759825 8.75982499999999 5.25589500000001
    vertex -8.759825 5.83988333333332 3.50393
    vertex -8.759825 5.83988333333332 5.255895
  endloop
endfacet
facet normal -1.0 0.0 0.0
  outer loop
    vertex -8.759825 10.51179 5.83988333333334
    vertex -8.759825 8.75982499999999 5.25589500000001
    vertex -8.759825 8.75982499999999 5.83988333333334
  endloop
endfacet
facet normal -1.0 0.0 0.0
  outer loop
    vertex -8.759825 2.91994166666666 1.75196500000001
    vertex -8.759825 0.0 0.0
    vertex -8.759825 -5.63993296509579e-015 1.751965
  endloop
endfacet
facet normal -1.0 0.0 0.0
  outer loop
    vertex -8.759825 0.0 0.0
    vertex -8.759825 2.91994166666666 1.75196500000001
    vertex -8.759825 10.51179 8.1074036373252e-015
  endloop
endfacet
facet normal -1.0 0.0 0.0
  outer loop
    vertex -8.759825 10.51179 8.1074036373252e-015
    vertex -8.759825 2.91994166666666 1.75196500000001
    vertex -8.759825 5.83988333333332 3.50393
  endloop
endfacet
facet normal -1.0 0.0 0.0
  outer loop
    vertex -8.759825 10.51179 8.1074036373252e-015
    vertex -8.759825 5.83988333333332 3.50393
    vertex -8.759825 8.75982499999999 5.25589500000001
  endloop
endfacet
facet normal -1.0 0.0 0.0
  outer loop
    vertex -8.759825 10.51179 8.1074036373252e-015
    vertex -8.759825 8.75982499999999 5.25589500000001
    vertex -8.759825 10.51179 5.83988333333334
  endloop
endfacet
facet normal 0.0 -1.0 -4.736951571734e-015
  outer loop
    vertex 8.759825 -5.63993296509579e-015 1.751965
    vertex -8.759825 0.0 0.0
    vertex 8.759825 0.0 0.0
  endloop
endfacet
facet normal 0.0 -1.0 -4.736951571734e-015
  outer loop
    vertex -8.759825 0.0 0.0
    vertex 8.759825 -5.63993296509579e-015 1.751965
    vertex -8.759825 -5.63993296509579e-015 1.751965
  endloop
endfacet
facet normal 0.0 -4.736951571734e-015 1.0
  outer loop
    vertex 8.759825 -5.63993296509579e-015 1.751965
    vertex -8.759825 2.91994166666666 1.75196500000001
    vertex -8.759825 -5.63993296509579e-015 1.751965
  endloop
endfacet
facet normal 0.0 -4.736951571734e-015 1.0
  outer loop
    vertex -8.759825 2.91994166666666 1.75196500000001
    vertex 8.759825 -5.63993296509579e-015 1.751965
    vertex 8.759825 2.91994166666666 1.75196500000001
  endloop
endfacet
facet normal 8.40294218769242e-015 1.0 -9.47390314346786e-015
  outer loop
    vertex 6.71587455152041 140.1572 7.00786122908344
    vertex 9.63581621818708 140.1572 5.25589622908344
    vertex 6.71587455152041 140.1572 5.25589622908344
  endloop
endfacet
facet normal 8.40294218769242e-015 1.0 -9.47390314346786e-015
  outer loop
    vertex 9.63581621818708 140.1572 5.25589622908344
    vertex 6.71587455152041 140.1572 7.00786122908344
    vertex 40.295195 140.1572 7.00786000000001
  endloop
endfacet
facet normal 8.40294218769242e-015 1.0 -9.47390314346786e-015
  outer loop
    vertex 15.4756995515204 140.1572 1.75196622908343
    vertex 40.295195 140.1572 8.1074036373252e-015
    vertex 15.4756995515204 140.1572 -4.93494134445882e-015
  endloop
endfacet
facet normal 8.40294218769242e-015 1.0 -9.47390314346786e-015
  outer loop
    vertex 40.295195 140.1572 8.1074036373252e-015
    vertex 15.4756995515204 140.1572 1.75196622908343
    vertex 40.295195 140.1572 7.00786000000001
  endloop
endfacet
facet normal 8.40294218769242e-015 1.0 -9.47390314346786e-015
  outer loop
    vertex 40.295195 140.1572 7.00786000000001
    vertex 15.4756995515204 140.1572 1.75196622908343
    vertex 12.5557578848537 140.1572 1.75196622908344
  endloop
endfacet
facet normal 8.40294218769242e-015 1.0 -9.47390314346786e-015
  outer loop
    vertex 40.295195 140.1572 7.00786000000001
    vertex 12.5557578848537 140.1572 1.75196622908344
    vertex 12.5557578848537 140.1572 3.50393122908344
  endloop
endfacet
facet normal 8.40294218769242e-015 1.0 -9.47390314346786e-015
  outer loop
    vertex 40.295195 140.1572 7.00786000000001
    vertex 12.5557578848537 140.1572 3.50393122908344
    vertex 9.63581621818708 140.1572 3.50393122908344
  endloop
endfacet
facet normal 8.40294218769242e-015 1.0 -9.47390314346786e-015
  outer loop
    vertex 40.295195 140.1572 7.00786000000001
    vertex 9.63581621818708 140.1572 3.50393122908344
    vertex 9.63581621818708 140.1572 5.25589622908344
  endloop
endfacet
facet normal -7.41435333453291e-015 1.0 -1.89478034010101e-014
  outer loop
    vertex -6.71586693244318 150.66899 -1.9105272919262e-013
    vertex 15.4756995515203 150.66899 1.75196622908323
    vertex 15.4756995515203 150.66899 -2.04095074174404e-013
  endloop
endfacet
facet normal -7.41435333453291e-015 1.0 -1.89478034010101e-014
  outer loop
    vertex 15.4756995515203 150.66899 1.75196622908323
    vertex -6.71586693244318 150.66899 -1.9105272919262e-013
    vertex 12.5557578848537 150.66899 1.75196622908324
  endloop
endfacet
facet normal -7.41435333453291e-015 1.0 -1.89478034010101e-014
  outer loop
    vertex 12.5557578848537 150.66899 1.75196622908324
    vertex -6.71586693244318 150.66899 -1.9105272919262e-013
    vertex -6.71586693244318 150.66899 7.00786090564029
  endloop
endfacet
facet normal -7.41435333453291e-015 1.0 -1.89478034010101e-014
  outer loop
    vertex 12.5557578848537 150.66899 1.75196622908324
    vertex -6.71586693244318 150.66899 7.00786090564029
    vertex 9.63581621818699 150.66899 3.50393122908324
  endloop
endfacet
facet normal -7.41435333453291e-015 1.0 -1.89478034010101e-014
  outer loop
    vertex 12.5557578848537 150.66899 1.75196622908324
    vertex 9.63581621818699 150.66899 3.50393122908324
    vertex 12.5557578848537 150.66899 3.50393122908324
  endloop
endfacet
facet normal -7.41435333453291e-015 1.0 -1.89478034010101e-014
  outer loop
    vertex 9.63581621818699 150.66899 3.50393122908324
    vertex -6.71586693244318 150.66899 7.00786090564029
    vertex 6.71587455152033 150.66899 5.25589622908324
  endloop
endfacet
facet normal -7.41435333453291e-015 1.0 -1.89478034010101e-014
  outer loop
    vertex 6.71587455152033 150.66899 5.25589622908324
    vertex -6.71586693244318 150.66899 7.00786090564029
    vertex 6.71587455152033 150.66899 7.00786122908324
  endloop
endfacet
facet normal -7.41435333453291e-015 1.0 -1.89478034010101e-014
  outer loop
    vertex 9.63581621818699 150.66899 5.25589622908324
    vertex 9.63581621818699 150.66899 3.50393122908324
    vertex 6.71587455152033 150.66899 5.25589622908324
  endloop
endfacet
facet normal -1.0 -7.41435333453291e-015 1.40485712570363e-028
  outer loop
    vertex -6.71586693244311 140.1572 7.00786090564049
    vertex -6.71586693244318 150.66899 -1.9105272919262e-013
    vertex -6.71586693244311 140.1572 8.1074036373252e-015
  endloop
endfacet
facet normal -1.0 -7.41435333453291e-015 1.40485712570363e-028
  outer loop
    vertex -6.71586693244318 150.66899 -1.9105272919262e-013
    vertex -6.71586693244311 140.1572 7.00786090564049
    vertex -6.71586693244318 150.66899 7.00786090564029
  endloop
endfacet
facet normal 1.0 7.40148683083439e-015 -2.10362908058929e-028
  outer loop
    vertex 6.71587455152033 150.66899 5.25589622908324
    vertex 6.71587455152041 140.1572 7.00786122908344
    vertex 6.71587455152041 140.1572 5.25589622908344
  endloop
endfacet
facet normal 1.0 7.40148683083439e-015 -2.10362908058929e-028
  outer loop
    vertex 6.71587455152041 140.1572 7.00786122908344
    vertex 6.71587455152033 150.66899 5.25589622908324
    vertex 6.71587455152033 150.66899 7.00786122908324
  endloop
endfacet
facet normal 1.0 7.35214358529545e-015 -1.48029632767156e-015
  outer loop
    vertex 15.4756995515203 150.66899 -2.04095074174404e-013
    vertex 15.4756995515204 140.1572 1.75196622908343
    vertex 15.4756995515204 140.1572 -4.93494134445882e-015
  endloop
endfacet
facet normal 1.0 7.35214358529545e-015 -1.48029632767156e-015
  outer loop
    vertex 15.4756995515204 140.1572 1.75196622908343
    vertex 15.4756995515203 150.66899 -2.04095074174404e-013
    vertex 15.4756995515203 150.66899 1.75196622908323
  endloop
endfacet
facet normal 1.48029632767142e-015 1.8947806286936e-014 1.0
  outer loop
    vertex 12.5557578848537 140.1572 1.75196622908344
    vertex 15.4756995515203 150.66899 1.75196622908323
    vertex 12.5557578848537 150.66899 1.75196622908324
  endloop
endfacet
facet normal 1.48029632767142e-015 1.8947806286936e-014 1.0
  outer loop
    vertex 15.4756995515203 150.66899 1.75196622908323
    vertex 12.5557578848537 140.1572 1.75196622908344
    vertex 15.4756995515204 140.1572 1.75196622908343
  endloop
endfacet
facet normal 1.0 7.35214358529548e-015 -2.96059473233514e-016
  outer loop
    vertex 12.5557578848537 150.66899 1.75196622908324
    vertex 12.5557578848537 140.1572 3.50393122908344
    vertex 12.5557578848537 140.1572 1.75196622908344
  endloop
endfacet
facet normal 1.0 7.35214358529548e-015 -2.96059473233514e-016
  outer loop
    vertex 12.5557578848537 140.1572 3.50393122908344
    vertex 12.5557578848537 150.66899 1.75196622908324
    vertex 12.5557578848537 150.66899 3.50393122908324
  endloop
endfacet
facet normal 2.96059473233375e-016 1.8947806286936e-014 1.0
  outer loop
    vertex 9.63581621818708 140.1572 3.50393122908344
    vertex 12.5557578848537 150.66899 3.50393122908324
    vertex 9.63581621818699 150.66899 3.50393122908324
  endloop
endfacet
facet normal 2.96059473233375e-016 1.8947806286936e-014 1.0
  outer loop
    vertex 12.5557578848537 150.66899 3.50393122908324
    vertex 9.63581621818708 140.1572 3.50393122908344
    vertex 12.5557578848537 140.1572 3.50393122908344
  endloop
endfacet
facet normal 1.0 7.40148683083442e-015 1.77635683940018e-015
  outer loop
    vertex 9.63581621818699 150.66899 3.50393122908324
    vertex 9.63581621818708 140.1572 5.25589622908344
    vertex 9.63581621818708 140.1572 3.50393122908344
  endloop
endfacet
facet normal 1.0 7.40148683083442e-015 1.77635683940018e-015
  outer loop
    vertex 9.63581621818708 140.1572 5.25589622908344
    vertex 9.63581621818699 150.66899 3.50393122908324
    vertex 9.63581621818699 150.66899 5.25589622908324
  endloop
endfacet
facet normal -1.77635683940032e-015 1.89478062869361e-014 1.0
  outer loop
    vertex 6.71587455152041 140.1572 5.25589622908344
    vertex 9.63581621818699 150.66899 5.25589622908324
    vertex 6.71587455152033 150.66899 5.25589622908324
  endloop
endfacet
facet normal -1.77635683940032e-015 1.89478062869361e-014 1.0
  outer loop
    vertex 9.63581621818699 150.66899 5.25589622908324
    vertex 6.71587455152041 140.1572 5.25589622908344
    vertex 9.63581621818708 140.1572 5.25589622908344
  endloop
endfacet
facet normal -1.0 0.0 0.0
  outer loop
    vertex 27.1554575 10.51179 5.83988333333334
    vertex 27.1554575 9.63580749999998 8.1074036373252e-015
    vertex 27.1554575 9.63580749999998 5.83988333333334
  endloop
endfacet
facet normal -1.0 0.0 0.0
  outer loop
    vertex 27.1554575 9.63580749999998 8.1074036373252e-015
    vertex 27.1554575 10.51179 5.83988333333334
    vertex 27.1554575 10.51179 8.1074036373252e-015
  endloop
endfacet
facet normal 0.0 -1.0 0.0
  outer loop
    vertex 28.9074225 9.63580749999998 5.83988333333334
    vertex 27.1554575 9.63580749999998 8.1074036373252e-015
    vertex 28.9074225 9.63580749999998 8.1074036373252e-015
  endloop
endfacet
facet normal 0.0 -1.0 0.0
  outer loop
    vertex 27.1554575 9.63580749999998 8.1074036373252e-015
    vertex 28.9074225 9.63580749999998 5.83988333333334
    vertex 27.1554575 9.63580749999998 5.83988333333334
  endloop
endfacet
facet normal 1.0 0.0 0.0
  outer loop
    vertex 28.9074225 11.3877725 8.1074036373252e-015
    vertex 28.9074225 9.63580749999998 5.83988333333334
    vertex 28.9074225 9.63580749999998 8.1074036373252e-015
  endloop
endfacet
facet normal 1.0 0.0 0.0
  outer loop
    vertex 28.9074225 9.63580749999998 5.83988333333334
    vertex 28.9074225 11.3877725 8.1074036373252e-015
    vertex 28.9074225 11.3877725 5.83988333333334
  endloop
endfacet
facet normal 0.0 1.0 0.0
  outer loop
    vertex 28.03144 11.3877725 5.83988333333334
    vertex 28.9074225 11.3877725 8.1074036373252e-015
    vertex 28.03144 11.3877725 8.1074036373252e-015
  endloop
endfacet
facet normal 0.0 1.0 0.0
  outer loop
    vertex 28.9074225 11.3877725 8.1074036373252e-015
    vertex 28.03144 11.3877725 5.83988333333334
    vertex 28.9074225 11.3877725 5.83988333333334
  endloop
endfacet
facet normal 0.0 -1.0 0.0
  outer loop
    vertex 27.1554575 10.51179 5.83988333333334
    vertex 8.759825 10.51179 8.1074036373252e-015
    vertex 27.1554575 10.51179 8.1074036373252e-015
  endloop
endfacet
facet normal 0.0 -1.0 0.0
  outer loop
    vertex 8.759825 10.51179 8.1074036373252e-015
    vertex 27.1554575 10.51179 5.83988333333334
    vertex 8.759825 10.51179 5.83988333333334
  endloop
endfacet
facet normal 1.0 0.0 0.0
  outer loop
    vertex 28.03144 31.53537 8.1074036373252e-015
    vertex 28.03144 11.3877725 5.83988333333334
    vertex 28.03144 11.3877725 8.1074036373252e-015
  endloop
endfacet
facet normal 1.0 0.0 0.0
  outer loop
    vertex 28.03144 11.3877725 5.83988333333334
    vertex 28.03144 31.53537 8.1074036373252e-015
    vertex 28.03144 31.53537 5.83988333333334
  endloop
endfacet
facet normal 0.0 -1.0 0.0
  outer loop
    vertex -28.03144 31.53537 5.83988333333334
    vertex -40.295195 31.53537 8.1074036373252e-015
    vertex -28.03144 31.53537 8.1074036373252e-015
  endloop
endfacet
facet normal 0.0 -1.0 0.0
  outer loop
    vertex -40.295195 31.53537 8.1074036373252e-015
    vertex -28.03144 31.53537 5.83988333333334
    vertex -29.783405 31.53537 5.83988333333334
  endloop
endfacet
facet normal 0.0 -1.0 0.0
  outer loop
    vertex -40.295195 31.53537 8.1074036373252e-015
    vertex -29.783405 31.53537 5.83988333333334
    vertex -40.295195 31.53537 7.00786000000001
  endloop
endfacet
facet normal 0.0 -1.0 0.0
  outer loop
    vertex -40.295195 31.53537 7.00786000000001
    vertex -29.783405 31.53537 5.83988333333334
    vertex -29.783405 31.53537 7.00786000000001
  endloop
endfacet
facet normal -1.0 -3.88198352105652e-017 -7.89491928622334e-016
  outer loop
    vertex -40.295195 140.1572 7.00786000000001
    vertex -40.295195 31.53537 8.1074036373252e-015
    vertex -40.295195 31.53537 7.00786000000001
  endloop
endfacet
facet normal -1.0 -3.88198352105652e-017 -7.89491928622334e-016
  outer loop
    vertex -40.295195 31.53537 8.1074036373252e-015
    vertex -40.295195 140.1572 7.00786000000001
    vertex -40.295195 140.1572 8.1074036373252e-015
  endloop
endfacet
facet normal -5.10649473157987e-017 -5.57431990942171e-016 -1.0
  outer loop
    vertex -27.1554575 10.51179 8.1074036373252e-015
    vertex -26.279475 12.263755 8.1074036373252e-015
    vertex -8.759825 10.51179 8.1074036373252e-015
  endloop
endfacet
facet normal -5.10649473157987e-017 -5.57431990942171e-016 -1.0
  outer loop
    vertex -26.279475 12.263755 8.1074036373252e-015
    vertex -27.1554575 10.51179 8.1074036373252e-015
    vertex -26.279475 31.53537 8.1074036373252e-015
  endloop
endfacet
facet normal -5.10649473157987e-017 -5.57431990942171e-016 -1.0
  outer loop
    vertex -8.759825 10.51179 8.1074036373252e-015
    vertex -26.279475 12.263755 8.1074036373252e-015
    vertex 26.279475 12.263755 8.1074036373252e-015
  endloop
endfacet
facet normal -5.10649473157987e-017 -5.57431990942171e-016 -1.0
  outer loop
    vertex -8.759825 10.51179 8.1074036373252e-015
    vertex 26.279475 12.263755 8.1074036373252e-015
    vertex 8.759825 10.51179 8.1074036373252e-015
  endloop
endfacet
facet normal -5.10649473157987e-017 -5.57431990942171e-016 -1.0
  outer loop
    vertex -8.759825 10.51179 8.1074036373252e-015
    vertex 8.759825 10.51179 8.1074036373252e-015
    vertex -8.759825 0.0 0.0
  endloop
endfacet
facet normal -5.10649473157987e-017 -5.57431990942171e-016 -1.0
  outer loop
    vertex 8.759825 10.51179 8.1074036373252e-015
    vertex 26.279475 12.263755 8.1074036373252e-015
    vertex 27.1554575 10.51179 8.1074036373252e-015
  endloop
endfacet
facet normal -5.10649473157987e-017 -5.57431990942171e-016 -1.0
  outer loop
    vertex -40.295195 140.1572 8.1074036373252e-015
    vertex -34.1633175 134.0253225 8.1074036373252e-015
    vertex -40.295195 31.53537 8.1074036373252e-015
  endloop
endfacet
facet normal -5.10649473157987e-017 -5.57431990942171e-016 -1.0
  outer loop
    vertex -34.1633175 134.0253225 8.1074036373252e-015
    vertex -40.295195 140.1572 8.1074036373252e-015
    vertex -6.71586693244311 140.1572 8.1074036373252e-015
  endloop
endfacet
facet normal -5.10649473157987e-017 -5.57431990942171e-016 -1.0
  outer loop
    vertex -34.1633175 134.0253225 8.1074036373252e-015
    vertex -6.71586693244311 140.1572 8.1074036373252e-015
    vertex 34.1633175 134.0253225 8.1074036373252e-015
  endloop
endfacet
facet normal -5.10649473157987e-017 -5.57431990942171e-016 -1.0
  outer loop
    vertex 34.1633175 134.0253225 8.1074036373252e-015
    vertex -6.71586693244311 140.1572 8.1074036373252e-015
    vertex 15.4756995515204 140.1572 -4.93494134445882e-015
  endloop
endfacet
facet normal -5.10649473157987e-017 -5.57431990942171e-016 -1.0
  outer loop
    vertex 15.4756995515204 140.1572 -4.93494134445882e-015
    vertex -6.71586693244311 140.1572 8.1074036373252e-015
    vertex 15.4756995515203 150.66899 -2.04095074174404e-013
  endloop
endfacet
facet normal -5.10649473157987e-017 -5.57431990942171e-016 -1.0
  outer loop
    vertex 34.1633175 134.0253225 8.1074036373252e-015
    vertex 15.4756995515204 140.1572 -4.93494134445882e-015
    vertex 40.295195 140.1572 8.1074036373252e-015
  endloop
endfacet
facet normal -5.10649473157987e-017 -5.57431990942171e-016 -1.0
  outer loop
    vertex 34.1633175 134.0253225 8.1074036373252e-015
    vertex 40.295195 140.1572 8.1074036373252e-015
    vertex 34.1633175 37.6672475 8.1074036373252e-015
  endloop
endfacet
facet normal -5.10649473157987e-017 -5.57431990942171e-016 -1.0
  outer loop
    vertex -40.295195 31.53537 8.1074036373252e-015
    vertex -34.1633175 37.6672475 8.1074036373252e-015
    vertex -28.03144 31.53537 8.1074036373252e-015
  endloop
endfacet
facet normal -5.10649473157987e-017 -5.57431990942171e-016 -1.0
  outer loop
    vertex -34.1633175 37.6672475 8.1074036373252e-015
    vertex -40.295195 31.53537 8.1074036373252e-015
    vertex -34.1633175 134.0253225 8.1074036373252e-015
  endloop
endfacet
facet normal -5.10649473157987e-017 -5.57431990942171e-016 -1.0
  outer loop
    vertex -28.03144 31.53537 8.1074036373252e-015
    vertex -34.1633175 37.6672475 8.1074036373252e-015
    vertex 34.1633175 37.6672475 8.1074036373252e-015
  endloop
endfacet
facet normal -5.10649473157987e-017 -5.57431990942171e-016 -1.0
  outer loop
    vertex -28.03144 31.53537 8.1074036373252e-015
    vertex 34.1633175 37.6672475 8.1074036373252e-015
    vertex -26.279475 31.53537 8.1074036373252e-015
  endloop
endfacet
facet normal -5.10649473157987e-017 -5.57431990942171e-016 -1.0
  outer loop
    vertex -28.03144 31.53537 8.1074036373252e-015
    vertex -26.279475 31.53537 8.1074036373252e-015
    vertex -28.03144 11.3877725 8.1074036373252e-015
  endloop
endfacet
facet normal -5.10649473157987e-017 -5.57431990942171e-016 -1.0
  outer loop
    vertex -28.03144 11.3877725 8.1074036373252e-015
    vertex -26.279475 31.53537 8.1074036373252e-015
    vertex -27.1554575 10.51179 8.1074036373252e-015
  endloop
endfacet
facet normal -5.10649473157987e-017 -5.57431990942171e-016 -1.0
  outer loop
    vertex -26.279475 31.53537 8.1074036373252e-015
    vertex 34.1633175 37.6672475 8.1074036373252e-015
    vertex 26.279475 31.53537 8.1074036373252e-015
  endloop
endfacet
facet normal -5.10649473157987e-017 -5.57431990942171e-016 -1.0
  outer loop
    vertex 26.279475 31.53537 8.1074036373252e-015
    vertex 34.1633175 37.6672475 8.1074036373252e-015
    vertex 28.03144 31.53537 8.1074036373252e-015
  endloop
endfacet
facet normal -5.10649473157987e-017 -5.57431990942171e-016 -1.0
  outer loop
    vertex 26.279475 31.53537 8.1074036373252e-015
    vertex 28.03144 31.53537 8.1074036373252e-015
    vertex 26.279475 12.263755 8.1074036373252e-015
  endloop
endfacet
facet normal -5.10649473157987e-017 -5.57431990942171e-016 -1.0
  outer loop
    vertex 26.279475 12.263755 8.1074036373252e-015
    vertex 28.03144 31.53537 8.1074036373252e-015
    vertex 27.1554575 10.51179 8.1074036373252e-015
  endloop
endfacet
facet normal -5.10649473157987e-017 -5.57431990942171e-016 -1.0
  outer loop
    vertex 27.1554575 10.51179 8.1074036373252e-015
    vertex 28.03144 31.53537 8.1074036373252e-015
    vertex 27.1554575 9.63580749999998 8.1074036373252e-015
  endloop
endfacet
facet normal -5.10649473157987e-017 -5.57431990942171e-016 -1.0
  outer loop
    vertex 28.03144 31.53537 8.1074036373252e-015
    vertex 34.1633175 37.6672475 8.1074036373252e-015
    vertex 40.295195 31.53537 8.1074036373252e-015
  endloop
endfacet
facet normal -5.10649473157987e-017 -5.57431990942171e-016 -1.0
  outer loop
    vertex 40.295195 31.53537 8.1074036373252e-015
    vertex 34.1633175 37.6672475 8.1074036373252e-015
    vertex 40.295195 140.1572 8.1074036373252e-015
  endloop
endfacet
facet normal -5.10649473157987e-017 -5.57431990942171e-016 -1.0
  outer loop
    vertex 27.1554575 9.63580749999998 8.1074036373252e-015
    vertex 28.03144 11.3877725 8.1074036373252e-015
    vertex 28.9074225 9.63580749999998 8.1074036373252e-015
  endloop
endfacet
facet normal -5.10649473157987e-017 -5.57431990942171e-016 -1.0
  outer loop
    vertex 28.03144 11.3877725 8.1074036373252e-015
    vertex 27.1554575 9.63580749999998 8.1074036373252e-015
    vertex 28.03144 31.53537 8.1074036373252e-015
  endloop
endfacet
facet normal -5.10649473157987e-017 -5.57431990942171e-016 -1.0
  outer loop
    vertex 28.9074225 9.63580749999998 8.1074036373252e-015
    vertex 28.03144 11.3877725 8.1074036373252e-015
    vertex 28.9074225 11.3877725 8.1074036373252e-015
  endloop
endfacet
facet normal -5.10649473157987e-017 -5.57431990942171e-016 -1.0
  outer loop
    vertex 8.759825 0.0 0.0
    vertex -8.759825 0.0 0.0
    vertex 8.759825 10.51179 8.1074036373252e-015
  endloop
endfacet
facet normal -5.10649473157987e-017 -5.57431990942171e-016 -1.0
  outer loop
    vertex -28.03144 11.3877725 8.1074036373252e-015
    vertex -28.9074225 9.63580749999998 8.1074036373252e-015
    vertex -28.9074225 11.3877725 8.1074036373252e-015
  endloop
endfacet
facet normal -5.10649473157987e-017 -5.57431990942171e-016 -1.0
  outer loop
    vertex -28.9074225 9.63580749999998 8.1074036373252e-015
    vertex -28.03144 11.3877725 8.1074036373252e-015
    vertex -27.1554575 9.63580749999998 8.1074036373252e-015
  endloop
endfacet
facet normal -5.10649473157987e-017 -5.57431990942171e-016 -1.0
  outer loop
    vertex -27.1554575 9.63580749999998 8.1074036373252e-015
    vertex -28.03144 11.3877725 8.1074036373252e-015
    vertex -27.1554575 10.51179 8.1074036373252e-015
  endloop
endfacet
facet normal -5.10649473157987e-017 -5.57431990942171e-016 -1.0
  outer loop
    vertex 15.4756995515203 150.66899 -2.04095074174404e-013
    vertex -6.71586693244311 140.1572 8.1074036373252e-015
    vertex -6.71586693244318 150.66899 -1.9105272919262e-013
  endloop
endfacet
facet normal -1.0 0.0 0.0
  outer loop
    vertex -28.9074225 11.3877725 5.83988333333334
    vertex -28.9074225 9.63580749999998 8.1074036373252e-015
    vertex -28.9074225 9.63580749999998 5.83988333333334
  endloop
endfacet
facet normal -1.0 0.0 0.0
  outer loop
    vertex -28.9074225 9.63580749999998 8.1074036373252e-015
    vertex -28.9074225 11.3877725 5.83988333333334
    vertex -28.9074225 11.3877725 8.1074036373252e-015
  endloop
endfacet
facet normal 0.0 -1.0 0.0
  outer loop
    vertex -27.1554575 9.63580749999998 5.83988333333334
    vertex -28.9074225 9.63580749999998 8.1074036373252e-015
    vertex -27.1554575 9.63580749999998 8.1074036373252e-015
  endloop
endfacet
facet normal 0.0 -1.0 0.0
  outer loop
    vertex -28.9074225 9.63580749999998 8.1074036373252e-015
    vertex -27.1554575 9.63580749999998 5.83988333333334
    vertex -28.9074225 9.63580749999998 5.83988333333334
  endloop
endfacet
facet normal 1.0 0.0 0.0
  outer loop
    vertex -27.1554575 10.51179 8.1074036373252e-015
    vertex -27.1554575 9.63580749999998 5.83988333333334
    vertex -27.1554575 9.63580749999998 8.1074036373252e-015
  endloop
endfacet
facet normal 1.0 0.0 0.0
  outer loop
    vertex -27.1554575 9.63580749999998 5.83988333333334
    vertex -27.1554575 10.51179 8.1074036373252e-015
    vertex -27.1554575 10.51179 5.83988333333334
  endloop
endfacet
facet normal 0.0 1.0 0.0
  outer loop
    vertex -28.9074225 11.3877725 5.83988333333334
    vertex -28.03144 11.3877725 8.1074036373252e-015
    vertex -28.9074225 11.3877725 8.1074036373252e-015
  endloop
endfacet
facet normal 0.0 1.0 0.0
  outer loop
    vertex -28.03144 11.3877725 8.1074036373252e-015
    vertex -28.9074225 11.3877725 5.83988333333334
    vertex -28.03144 11.3877725 5.83988333333334
  endloop
endfacet
facet normal 0.0 -1.0 0.0
  outer loop
    vertex -8.759825 10.51179 5.83988333333334
    vertex -27.1554575 10.51179 8.1074036373252e-015
    vertex -8.759825 10.51179 8.1074036373252e-015
  endloop
endfacet
facet normal 0.0 -1.0 0.0
  outer loop
    vertex -27.1554575 10.51179 8.1074036373252e-015
    vertex -8.759825 10.51179 5.83988333333334
    vertex -27.1554575 10.51179 5.83988333333334
  endloop
endfacet
facet normal -1.0 0.0 0.0
  outer loop
    vertex -28.03144 31.53537 5.83988333333334
    vertex -28.03144 11.3877725 8.1074036373252e-015
    vertex -28.03144 11.3877725 5.83988333333334
  endloop
endfacet
facet normal -1.0 0.0 0.0
  outer loop
    vertex -28.03144 11.3877725 8.1074036373252e-015
    vertex -28.03144 31.53537 5.83988333333334
    vertex -28.03144 31.53537 8.1074036373252e-015
  endloop
endfacet
facet normal -1.0 0.0 0.0
  outer loop
    vertex 7.49097920648763 136.361275833333 9.34381333333334
    vertex 7.49097920648763 134.0253225 7.00786000000001
    vertex 7.49097920648763 134.0253225 9.34381333333334
  endloop
endfacet
facet normal -1.0 0.0 0.0
  outer loop
    vertex 7.49097920648763 134.0253225 7.00786000000001
    vertex 7.49097920648763 136.361275833333 9.34381333333334
    vertex 7.49097920648763 136.361275833333 7.00786000000001
  endloop
endfacet
facet normal 1.0 4.44089209850063e-016 0.0
  outer loop
    vertex -7.69271793088499 136.361275833333 7.00786000000001
    vertex -7.69271793088499 134.0253225 9.34381333333334
    vertex -7.69271793088499 134.0253225 7.00786000000001
  endloop
endfacet
facet normal 1.0 4.44089209850063e-016 0.0
  outer loop
    vertex -7.69271793088499 134.0253225 9.34381333333334
    vertex -7.69271793088499 136.361275833333 7.00786000000001
    vertex -7.69271793088499 136.361275833333 9.34381333333334
  endloop
endfacet
facet normal 0.0 1.0 0.0
  outer loop
    vertex -36.4992708333333 136.361275833333 9.34381333333334
    vertex -7.69271793088499 136.361275833333 7.00786000000001
    vertex -36.4992708333333 136.361275833333 7.00786000000001
  endloop
endfacet
facet normal 0.0 1.0 0.0
  outer loop
    vertex -7.69271793088499 136.361275833333 7.00786000000001
    vertex -36.4992708333333 136.361275833333 9.34381333333334
    vertex -7.69271793088499 136.361275833333 9.34381333333334
  endloop
endfacet
facet normal 0.0 0.0 1.0
  outer loop
    vertex 36.4992708333333 35.3312941666666 9.34381333333334
    vertex 7.49097920648763 37.6672475 9.34381333333334
    vertex 7.49097920648763 35.3312941666666 9.34381333333334
  endloop
endfacet
facet normal 0.0 0.0 1.0
  outer loop
    vertex 7.49097920648763 37.6672475 9.34381333333334
    vertex 36.4992708333333 35.3312941666666 9.34381333333334
    vertex 34.1633175 37.6672475 9.34381333333334
  endloop
endfacet
facet normal 0.0 0.0 1.0
  outer loop
    vertex 34.1633175 37.6672475 9.34381333333334
    vertex 36.4992708333333 35.3312941666666 9.34381333333334
    vertex 34.1633175 134.0253225 9.34381333333334
  endloop
endfacet
facet normal 0.0 0.0 1.0
  outer loop
    vertex 34.1633175 134.0253225 9.34381333333334
    vertex 7.49097920648763 136.361275833333 9.34381333333334
    vertex 7.49097920648763 134.0253225 9.34381333333334
  endloop
endfacet
facet normal 0.0 0.0 1.0
  outer loop
    vertex 7.49097920648763 136.361275833333 9.34381333333334
    vertex 34.1633175 134.0253225 9.34381333333334
    vertex 36.4992708333333 136.361275833333 9.34381333333334
  endloop
endfacet
facet normal 0.0 0.0 1.0
  outer loop
    vertex 36.4992708333333 136.361275833333 9.34381333333334
    vertex 34.1633175 134.0253225 9.34381333333334
    vertex 36.4992708333333 35.3312941666666 9.34381333333334
  endloop
endfacet
facet normal -1.0 0.0 0.0
  outer loop
    vertex 7.49097920648763 37.6672475 9.34381333333334
    vertex 7.49097920648763 35.3312941666666 7.00786000000001
    vertex 7.49097920648763 35.3312941666666 9.34381333333334
  endloop
endfacet
facet normal -1.0 0.0 0.0
  outer loop
    vertex 7.49097920648763 35.3312941666666 7.00786000000001
    vertex 7.49097920648763 37.6672475 9.34381333333334
    vertex 7.49097920648763 37.6672475 7.00786000000001
  endloop
endfacet
facet normal 1.0 8.88178419700125e-016 0.0
  outer loop
    vertex -7.69271793088495 37.6672475 7.00786000000001
    vertex -7.69271793088495 35.3312941666666 9.34381333333334
    vertex -7.69271793088495 35.3312941666666 7.00786000000001
  endloop
endfacet
facet normal 1.0 8.88178419700125e-016 0.0
  outer loop
    vertex -7.69271793088495 35.3312941666666 9.34381333333334
    vertex -7.69271793088495 37.6672475 7.00786000000001
    vertex -7.69271793088495 37.6672475 9.34381333333334
  endloop
endfacet
facet normal 0.0 -1.0 0.0
  outer loop
    vertex 36.4992708333333 35.3312941666666 9.34381333333334
    vertex 7.49097920648763 35.3312941666666 7.00786000000001
    vertex 36.4992708333333 35.3312941666666 7.00786000000001
  endloop
endfacet
facet normal 0.0 -1.0 0.0
  outer loop
    vertex 7.49097920648763 35.3312941666666 7.00786000000001
    vertex 36.4992708333333 35.3312941666666 9.34381333333334
    vertex 7.49097920648763 35.3312941666666 9.34381333333334
  endloop
endfacet
endsolid Untitled-5dfc3754
