solid Untitled-5dfea073
facet normal 0.0 1.0 0.0
  outer loop
    vertex 23.4932942178243 24.5364 4.82575708745015
    vertex 25.5935961452162 24.5364 4.38557139163343
    vertex 25.5935961452162 24.5364 3.80137139163343
  endloop
endfacet
facet normal 0.0 1.0 0.0
  outer loop
    vertex 19.2926903630405 24.5364 6.87452847908357
    vertex 21.3929922904324 24.5364 6.43434278326686
    vertex 21.3929922904324 24.5364 5.85014278326686
  endloop
endfacet
facet normal 0.0 1.0 0.0
  outer loop
    vertex 21.3929922904324 24.5364 5.85014278326686
    vertex 23.4932942178243 24.5364 5.40995708745015
    vertex 23.4932942178243 24.5364 4.82575708745015
  endloop
endfacet
facet normal 0.20512548305724 2.14522990586899e-017 0.978735682500916
  outer loop
    vertex 25.5935961452162 8.19508556653375 3.80137139163343
    vertex 27.6938980726081 24.5364 3.36118569581672
    vertex 25.5935961452162 24.5364 3.80137139163343
  endloop
endfacet
facet normal 0.20512548305724 2.14522990586899e-017 0.978735682500916
  outer loop
    vertex 27.6938980726081 24.5364 3.36118569581672
    vertex 25.5935961452162 8.19508556653375 3.80137139163343
    vertex 27.6938980726081 4.09754278326687 3.36118569581672
  endloop
endfacet
facet normal 0.205125483057239 2.64245261038289e-017 0.978735682500916
  outer loop
    vertex 23.4932942178243 12.2926283498006 4.82575708745015
    vertex 25.5935961452162 24.5364 4.38557139163343
    vertex 23.4932942178243 24.5364 4.82575708745015
  endloop
endfacet
facet normal 0.205125483057239 2.64245261038289e-017 0.978735682500916
  outer loop
    vertex 25.5935961452162 24.5364 4.38557139163343
    vertex 23.4932942178243 12.2926283498006 4.82575708745015
    vertex 25.5935961452162 8.19508556653375 4.38557139163343
  endloop
endfacet
facet normal 0.0 1.0 0.0
  outer loop
    vertex 25.5935961452162 24.5364 3.80137139163343
    vertex 27.6938980726081 24.5364 3.36118569581672
    vertex 27.6938980726081 24.5364 2.77698569581671
  endloop
endfacet
facet normal 1.0 0.0 0.0
  outer loop
    vertex 21.3929922904324 16.3901711330675 5.85014278326686
    vertex 21.3929922904324 24.5364 6.43434278326686
    vertex 21.3929922904324 16.3274124269117 6.43434278326686
  endloop
endfacet
facet normal 1.0 0.0 0.0
  outer loop
    vertex 21.3929922904324 24.5364 6.43434278326686
    vertex 21.3929922904324 16.3901711330675 5.85014278326686
    vertex 21.3929922904324 24.5364 5.85014278326686
  endloop
endfacet
facet normal 0.205125483057239 4.92456758242772e-017 0.978735682500916
  outer loop
    vertex 23.4932942178243 12.2926283498006 5.40995708745015
    vertex 21.3929922904324 24.5364 5.85014278326686
    vertex 21.3929922904324 16.3901711330675 5.85014278326686
  endloop
endfacet
facet normal 0.205125483057239 4.92456758242772e-017 0.978735682500916
  outer loop
    vertex 21.3929922904324 24.5364 5.85014278326686
    vertex 23.4932942178243 12.2926283498006 5.40995708745015
    vertex 23.4932942178243 24.5364 5.40995708745015
  endloop
endfacet
facet normal 0.205125483057242 4.29593332210908e-016 0.978735682500916
  outer loop
    vertex 21.3929922904324 16.3274124269117 6.43434278326686
    vertex 19.2926903630405 24.5364 6.87452847908357
    vertex 19.2926903630405 20.4877139163344 6.87452847908358
  endloop
endfacet
facet normal 0.205125483057242 4.29593332210908e-016 0.978735682500916
  outer loop
    vertex 19.2926903630405 24.5364 6.87452847908357
    vertex 21.3929922904324 16.3274124269117 6.43434278326686
    vertex 21.3929922904324 24.5364 6.43434278326686
  endloop
endfacet
facet normal -0.438371146789077 -9.85005401259681e-017 -0.898794046299167
  outer loop
    vertex 27.6938980726081 24.5364 2.77698569581671
    vertex 25.5935961452162 8.19508556653375 3.80137139163343
    vertex 25.5935961452162 24.5364 3.80137139163343
  endloop
endfacet
facet normal -0.438371146789077 -9.85005401259681e-017 -0.898794046299167
  outer loop
    vertex 25.5935961452162 8.19508556653375 3.80137139163343
    vertex 27.6938980726081 24.5364 2.77698569581671
    vertex 27.6938980726081 4.09754278326687 2.77698569581671
  endloop
endfacet
facet normal -0.438371146789077 -3.50559499020167e-017 -0.898794046299167
  outer loop
    vertex 29.7942 24.5364 1.7526
    vertex 27.6938980726081 4.09754278326687 2.77698569581671
    vertex 27.6938980726081 24.5364 2.77698569581671
  endloop
endfacet
facet normal -0.438371146789077 -3.50559499020167e-017 -0.898794046299167
  outer loop
    vertex 27.6938980726081 4.09754278326687 2.77698569581671
    vertex 29.7942 24.5364 1.7526
    vertex 29.7942 0.0 1.7526
  endloop
endfacet
facet normal -0.88990581173367 -0.45614432611032 0.0
  outer loop
    vertex 27.6938980726081 4.09754278326687 2.77698569581671
    vertex 29.7942 0.0 1.7526
    vertex 29.7942 0.0 2.3368
  endloop
endfacet
facet normal -0.89369603411478 -0.446106169236389 -0.0479237350041475
  outer loop
    vertex 19.2926903630405 20.4877139163344 6.87452847908358
    vertex 21.3929922904324 16.3901711330675 5.85014278326686
    vertex 21.3929922904324 16.3274124269117 6.43434278326686
  endloop
endfacet
facet normal -0.438371146789076 -9.98032865364215e-017 -0.898794046299167
  outer loop
    vertex 23.4932942178243 24.5364 4.82575708745015
    vertex 21.3929922904324 16.3901711330675 5.85014278326686
    vertex 21.3929922904324 24.5364 5.85014278326686
  endloop
endfacet
facet normal -0.438371146789076 -9.98032865364215e-017 -0.898794046299167
  outer loop
    vertex 21.3929922904324 16.3901711330675 5.85014278326686
    vertex 23.4932942178243 24.5364 4.82575708745015
    vertex 23.4932942178243 12.2926283498006 4.82575708745015
  endloop
endfacet
facet normal -0.889905811733671 -0.456144326110319 -6.9407135063635e-015
  outer loop
    vertex 23.4932942178243 12.2926283498006 4.82575708745015
    vertex 25.5935961452162 8.19508556653375 3.80137139163343
    vertex 25.5935961452162 8.19508556653375 4.38557139163343
  endloop
endfacet
facet normal -0.88990581173367 -0.45614432611032 7.71190389595942e-016
  outer loop
    vertex 21.3929922904324 16.3901711330675 5.85014278326686
    vertex 23.4932942178243 12.2926283498006 4.82575708745015
    vertex 23.4932942178243 12.2926283498006 5.40995708745015
  endloop
endfacet
facet normal -0.438371146789079 -4.40152982224134e-016 -0.898794046299166
  outer loop
    vertex 21.3929922904324 24.5364 5.85014278326686
    vertex 19.2926903630405 20.4877139163344 6.87452847908358
    vertex 19.2926903630405 24.5364 6.87452847908357
  endloop
endfacet
facet normal -0.438371146789079 -4.40152982224134e-016 -0.898794046299166
  outer loop
    vertex 19.2926903630405 20.4877139163344 6.87452847908358
    vertex 21.3929922904324 24.5364 5.85014278326686
    vertex 21.3929922904324 16.3901711330675 5.85014278326686
  endloop
endfacet
facet normal -0.438371146789077 -1.26184298016084e-016 -0.898794046299167
  outer loop
    vertex 25.5935961452162 24.5364 3.80137139163343
    vertex 23.4932942178243 12.2926283498006 4.82575708745015
    vertex 23.4932942178243 24.5364 4.82575708745015
  endloop
endfacet
facet normal -0.438371146789077 -1.26184298016084e-016 -0.898794046299167
  outer loop
    vertex 23.4932942178243 12.2926283498006 4.82575708745015
    vertex 25.5935961452162 24.5364 3.80137139163343
    vertex 25.5935961452162 8.19508556653375 3.80137139163343
  endloop
endfacet
facet normal -0.889905811733671 -0.456144326110319 -7.71190389595944e-015
  outer loop
    vertex 25.5935961452162 8.19508556653375 3.80137139163343
    vertex 27.6938980726081 4.09754278326687 2.77698569581671
    vertex 27.6938980726081 4.09754278326687 3.36118569581672
  endloop
endfacet
facet normal 1.0 1.01546544855554e-016 3.5527136788005e-015
  outer loop
    vertex 27.6938980726081 24.5364 2.77698569581671
    vertex 27.6938980726081 4.09754278326687 3.36118569581672
    vertex 27.6938980726081 4.09754278326687 2.77698569581671
  endloop
endfacet
facet normal 1.0 1.01546544855554e-016 3.5527136788005e-015
  outer loop
    vertex 27.6938980726081 4.09754278326687 3.36118569581672
    vertex 27.6938980726081 24.5364 2.77698569581671
    vertex 27.6938980726081 24.5364 3.36118569581672
  endloop
endfacet
facet normal 1.0 3.39028755264552e-016 0.0
  outer loop
    vertex 23.4932942178243 24.5364 4.82575708745015
    vertex 23.4932942178243 12.2926283498006 5.40995708745015
    vertex 23.4932942178243 12.2926283498006 4.82575708745015
  endloop
endfacet
facet normal 1.0 3.39028755264552e-016 0.0
  outer loop
    vertex 23.4932942178243 12.2926283498006 5.40995708745015
    vertex 23.4932942178243 24.5364 4.82575708745015
    vertex 23.4932942178243 24.5364 5.40995708745015
  endloop
endfacet
facet normal 1.0 1.2700908116086e-016 3.5527136788005e-015
  outer loop
    vertex 25.5935961452162 24.5364 3.80137139163343
    vertex 25.5935961452162 8.19508556653375 4.38557139163343
    vertex 25.5935961452162 8.19508556653375 3.80137139163343
  endloop
endfacet
facet normal 1.0 1.2700908116086e-016 3.5527136788005e-015
  outer loop
    vertex 25.5935961452162 8.19508556653375 4.38557139163343
    vertex 25.5935961452162 24.5364 3.80137139163343
    vertex 25.5935961452162 24.5364 4.38557139163343
  endloop
endfacet
facet normal 0.0 1.0 0.0
  outer loop
    vertex 27.6938980726081 24.5364 2.77698569581671
    vertex 29.7942 24.5364 2.3368
    vertex 29.7942 24.5364 1.7526
  endloop
endfacet
facet normal 1.0 0.0 0.0
  outer loop
    vertex 29.7942 24.5364 1.7526
    vertex 29.7942 0.0 2.3368
    vertex 29.7942 0.0 1.7526
  endloop
endfacet
facet normal 1.0 0.0 0.0
  outer loop
    vertex 29.7942 0.0 2.3368
    vertex 29.7942 24.5364 1.7526
    vertex 29.7942 24.5364 2.3368
  endloop
endfacet
facet normal 0.205125483057239 1.58457859797165e-017 0.978735682500916
  outer loop
    vertex 29.7942 0.0 2.3368
    vertex 27.6938980726081 24.5364 2.77698569581671
    vertex 27.6938980726081 4.09754278326687 2.77698569581671
  endloop
endfacet
facet normal 0.205125483057239 1.58457859797165e-017 0.978735682500916
  outer loop
    vertex 27.6938980726081 24.5364 2.77698569581671
    vertex 29.7942 0.0 2.3368
    vertex 29.7942 24.5364 2.3368
  endloop
endfacet
facet normal 0.0 1.0 0.0
  outer loop
    vertex -25.5935961452162 24.5364 3.80137139163343
    vertex -27.6938980726081 24.5364 2.77698569581671
    vertex -27.6938980726081 24.5364 3.36118569581672
  endloop
endfacet
facet normal -1.0 0.0 0.0
  outer loop
    vertex -21.3929922904324 24.5364 6.43434278326684
    vertex -21.3929922904324 16.3901711330675 5.85014278326684
    vertex -21.3929922904324 16.3274124269116 6.43434278326684
  endloop
endfacet
facet normal -1.0 0.0 0.0
  outer loop
    vertex -21.3929922904324 16.3901711330675 5.85014278326684
    vertex -21.3929922904324 24.5364 6.43434278326684
    vertex -21.3929922904324 24.5364 5.85014278326684
  endloop
endfacet
facet normal 0.438371146789077 -1.32286603403837e-018 -0.898794046299167
  outer loop
    vertex -27.6938980726081 24.5364 2.77698569581671
    vertex -29.7942 0.0 1.7526
    vertex -29.7942 24.5364 1.7526
  endloop
endfacet
facet normal 0.438371146789077 -1.32286603403837e-018 -0.898794046299167
  outer loop
    vertex -29.7942 0.0 1.7526
    vertex -27.6938980726081 24.5364 2.77698569581671
    vertex -27.6938980726081 4.09754278326687 2.77698569581671
  endloop
endfacet
facet normal 0.0 1.0 0.0
  outer loop
    vertex -21.3929922904324 24.5364 5.85014278326684
    vertex -23.4932942178243 24.5364 4.82575708745015
    vertex -23.4932942178243 24.5364 5.40995708745014
  endloop
endfacet
facet normal -0.205125483057241 5.02065995972747e-017 0.978735682500916
  outer loop
    vertex -23.4932942178243 12.2926283498006 4.82575708745015
    vertex -25.5935961452162 24.5364 4.38557139163343
    vertex -25.5935961452162 8.19508556653374 4.38557139163343
  endloop
endfacet
facet normal -0.205125483057241 5.02065995972747e-017 0.978735682500916
  outer loop
    vertex -25.5935961452162 24.5364 4.38557139163343
    vertex -23.4932942178243 12.2926283498006 4.82575708745015
    vertex -23.4932942178243 24.5364 4.82575708745015
  endloop
endfacet
facet normal -0.205125483057235 9.67932248959926e-017 0.978735682500917
  outer loop
    vertex -21.3929922904324 16.3901711330675 5.85014278326684
    vertex -23.4932942178243 24.5364 5.40995708745014
    vertex -23.4932942178243 12.2926283498006 5.40995708745014
  endloop
endfacet
facet normal -0.205125483057235 9.67932248959926e-017 0.978735682500917
  outer loop
    vertex -23.4932942178243 24.5364 5.40995708745014
    vertex -21.3929922904324 16.3901711330675 5.85014278326684
    vertex -21.3929922904324 24.5364 5.85014278326684
  endloop
endfacet
facet normal 0.88990581173367 -0.45614432611032 0.0
  outer loop
    vertex -27.6938980726081 4.09754278326687 2.77698569581671
    vertex -29.7942 0.0 2.3368
    vertex -29.7942 0.0 1.7526
  endloop
endfacet
facet normal 0.89369603411478 -0.446106169236389 -0.0479237350041483
  outer loop
    vertex -19.2926903630405 20.4877139163344 6.87452847908357
    vertex -21.3929922904324 16.3274124269116 6.43434278326684
    vertex -21.3929922904324 16.3901711330675 5.85014278326684
  endloop
endfacet
facet normal -0.20512548305724 5.36307476467248e-019 0.978735682500916
  outer loop
    vertex -25.5935961452162 8.19508556653374 3.80137139163343
    vertex -27.6938980726081 24.5364 3.36118569581672
    vertex -27.6938980726081 4.09754278326687 3.36118569581672
  endloop
endfacet
facet normal -0.20512548305724 5.36307476467248e-019 0.978735682500916
  outer loop
    vertex -27.6938980726081 24.5364 3.36118569581672
    vertex -25.5935961452162 8.19508556653374 3.80137139163343
    vertex -25.5935961452162 24.5364 3.80137139163343
  endloop
endfacet
facet normal 0.438371146789068 -2.08963131185632e-016 -0.898794046299171
  outer loop
    vertex -23.4932942178243 24.5364 4.82575708745015
    vertex -21.3929922904324 16.3901711330675 5.85014278326684
    vertex -23.4932942178243 12.2926283498006 4.82575708745015
  endloop
endfacet
facet normal 0.438371146789068 -2.08963131185632e-016 -0.898794046299171
  outer loop
    vertex -21.3929922904324 16.3901711330675 5.85014278326684
    vertex -23.4932942178243 24.5364 4.82575708745015
    vertex -21.3929922904324 24.5364 5.85014278326684
  endloop
endfacet
facet normal 0.88990581173367 -0.456144326110319 -7.71190389595945e-016
  outer loop
    vertex -23.4932942178243 12.2926283498006 4.82575708745015
    vertex -25.5935961452162 8.19508556653374 4.38557139163343
    vertex -25.5935961452162 8.19508556653374 3.80137139163343
  endloop
endfacet
facet normal 0.889905811733669 -0.456144326110321 7.71190389595971e-016
  outer loop
    vertex -21.3929922904324 16.3901711330675 5.85014278326684
    vertex -23.4932942178243 12.2926283498006 5.40995708745014
    vertex -23.4932942178243 12.2926283498006 4.82575708745015
  endloop
endfacet
facet normal -0.205125483057243 0.0 0.978735682500915
  outer loop
    vertex -19.2926903630405 20.4877139163344 6.87452847908357
    vertex -21.3929922904324 24.5364 6.43434278326684
    vertex -21.3929922904324 16.3274124269116 6.43434278326684
  endloop
endfacet
facet normal -0.205125483057243 0.0 0.978735682500915
  outer loop
    vertex -21.3929922904324 24.5364 6.43434278326684
    vertex -19.2926903630405 20.4877139163344 6.87452847908357
    vertex -19.2926903630405 24.5364 6.87452847908357
  endloop
endfacet
facet normal 0.438371146789078 0.0 -0.898794046299167
  outer loop
    vertex -25.5935961452162 24.5364 3.80137139163343
    vertex -27.6938980726081 4.09754278326687 2.77698569581671
    vertex -27.6938980726081 24.5364 2.77698569581671
  endloop
endfacet
facet normal 0.438371146789078 0.0 -0.898794046299167
  outer loop
    vertex -27.6938980726081 4.09754278326687 2.77698569581671
    vertex -25.5935961452162 24.5364 3.80137139163343
    vertex -25.5935961452162 8.19508556653374 3.80137139163343
  endloop
endfacet
facet normal 0.0 1.0 0.0
  outer loop
    vertex -23.4932942178243 24.5364 4.82575708745015
    vertex -25.5935961452162 24.5364 3.80137139163343
    vertex -25.5935961452162 24.5364 4.38557139163343
  endloop
endfacet
facet normal 0.0 1.0 0.0
  outer loop
    vertex -19.2926903630405 24.5364 6.87452847908357
    vertex -21.3929922904324 24.5364 5.85014278326684
    vertex -21.3929922904324 24.5364 6.43434278326684
  endloop
endfacet
facet normal -1.0 6.78057510529103e-016 0.0
  outer loop
    vertex -23.4932942178243 24.5364 5.40995708745014
    vertex -23.4932942178243 12.2926283498006 4.82575708745015
    vertex -23.4932942178243 12.2926283498006 5.40995708745014
  endloop
endfacet
facet normal -1.0 6.78057510529103e-016 0.0
  outer loop
    vertex -23.4932942178243 12.2926283498006 4.82575708745015
    vertex -23.4932942178243 24.5364 5.40995708745014
    vertex -23.4932942178243 24.5364 4.82575708745015
  endloop
endfacet
facet normal 0.43837114678908 0.0 -0.898794046299166
  outer loop
    vertex -19.2926903630405 24.5364 6.87452847908357
    vertex -21.3929922904324 16.3901711330675 5.85014278326684
    vertex -21.3929922904324 24.5364 5.85014278326684
  endloop
endfacet
facet normal 0.43837114678908 0.0 -0.898794046299166
  outer loop
    vertex -21.3929922904324 16.3901711330675 5.85014278326684
    vertex -19.2926903630405 24.5364 6.87452847908357
    vertex -19.2926903630405 20.4877139163344 6.87452847908357
  endloop
endfacet
facet normal 0.0 1.0 0.0
  outer loop
    vertex -27.6938980726081 24.5364 2.77698569581671
    vertex -29.7942 24.5364 1.7526
    vertex -29.7942 24.5364 2.3368
  endloop
endfacet
facet normal -1.0 0.0 0.0
  outer loop
    vertex -27.6938980726081 24.5364 3.36118569581672
    vertex -27.6938980726081 4.09754278326687 2.77698569581671
    vertex -27.6938980726081 4.09754278326687 3.36118569581672
  endloop
endfacet
facet normal -1.0 0.0 0.0
  outer loop
    vertex -27.6938980726081 4.09754278326687 2.77698569581671
    vertex -27.6938980726081 24.5364 3.36118569581672
    vertex -27.6938980726081 24.5364 2.77698569581671
  endloop
endfacet
facet normal -0.20512548305724 0.0 0.978735682500916
  outer loop
    vertex -27.6938980726081 4.09754278326687 2.77698569581671
    vertex -29.7942 24.5364 2.3368
    vertex -29.7942 0.0 2.3368
  endloop
endfacet
facet normal -0.20512548305724 0.0 0.978735682500916
  outer loop
    vertex -29.7942 24.5364 2.3368
    vertex -27.6938980726081 4.09754278326687 2.77698569581671
    vertex -27.6938980726081 24.5364 2.77698569581671
  endloop
endfacet
facet normal -1.0 0.0 0.0
  outer loop
    vertex -29.7942 24.5364 2.3368
    vertex -29.7942 0.0 1.7526
    vertex -29.7942 0.0 2.3368
  endloop
endfacet
facet normal -1.0 0.0 0.0
  outer loop
    vertex -29.7942 0.0 1.7526
    vertex -29.7942 24.5364 2.3368
    vertex -29.7942 24.5364 1.7526
  endloop
endfacet
facet normal -1.0 0.0 0.0
  outer loop
    vertex -25.5935961452162 24.5364 4.38557139163343
    vertex -25.5935961452162 8.19508556653374 3.80137139163343
    vertex -25.5935961452162 8.19508556653374 4.38557139163343
  endloop
endfacet
facet normal -1.0 0.0 0.0
  outer loop
    vertex -25.5935961452162 8.19508556653374 3.80137139163343
    vertex -25.5935961452162 24.5364 4.38557139163343
    vertex -25.5935961452162 24.5364 3.80137139163343
  endloop
endfacet
facet normal 0.438371146789078 -1.06771329090532e-016 -0.898794046299166
  outer loop
    vertex -23.4932942178243 24.5364 4.82575708745015
    vertex -25.5935961452162 8.19508556653374 3.80137139163343
    vertex -25.5935961452162 24.5364 3.80137139163343
  endloop
endfacet
facet normal 0.438371146789078 -1.06771329090532e-016 -0.898794046299166
  outer loop
    vertex -25.5935961452162 8.19508556653374 3.80137139163343
    vertex -23.4932942178243 24.5364 4.82575708745015
    vertex -23.4932942178243 12.2926283498006 4.82575708745015
  endloop
endfacet
facet normal 0.889905811733669 -0.456144326110321 7.71190389595949e-016
  outer loop
    vertex -25.5935961452162 8.19508556653374 3.80137139163343
    vertex -27.6938980726081 4.09754278326687 3.36118569581672
    vertex -27.6938980726081 4.09754278326687 2.77698569581671
  endloop
endfacet
facet normal 3.53376637931104e-016 -1.0 -7.16931374766197e-031
  outer loop
    vertex 23.4932942178243 12.2926283498006 5.40995708745015
    vertex -23.4932942178243 12.2926283498006 4.82575708745015
    vertex 23.4932942178243 12.2926283498006 4.82575708745015
  endloop
endfacet
facet normal 3.53376637931104e-016 -1.0 -7.16931374766197e-031
  outer loop
    vertex -23.4932942178243 12.2926283498006 4.82575708745015
    vertex 23.4932942178243 12.2926283498006 5.40995708745015
    vertex -23.4932942178243 12.2926283498006 5.40995708745014
  endloop
endfacet
facet normal 2.3418835224399e-016 -0.994279215129905 -0.106812182641591
  outer loop
    vertex 21.3929922904324 16.3901711330675 5.85014278326686
    vertex -21.3929922904324 16.3274124269116 6.43434278326684
    vertex -21.3929922904324 16.3901711330675 5.85014278326684
  endloop
endfacet
facet normal 2.3418835224399e-016 -0.994279215129905 -0.106812182641591
  outer loop
    vertex -21.3929922904324 16.3274124269116 6.43434278326684
    vertex 21.3929922904324 16.3901711330675 5.85014278326686
    vertex 21.3929922904324 16.3274124269117 6.43434278326686
  endloop
endfacet
facet normal -1.15002012909966e-016 0.242535625036332 -0.970142500145332
  outer loop
    vertex -23.4932942178243 12.2926283498006 4.82575708745015
    vertex 25.5935961452162 8.19508556653375 3.80137139163343
    vertex -25.5935961452162 8.19508556653374 3.80137139163343
  endloop
endfacet
facet normal -1.15002012909966e-016 0.242535625036332 -0.970142500145332
  outer loop
    vertex 25.5935961452162 8.19508556653375 3.80137139163343
    vertex -23.4932942178243 12.2926283498006 4.82575708745015
    vertex 23.4932942178243 12.2926283498006 4.82575708745015
  endloop
endfacet
facet normal 7.36816329674396e-017 -0.106812182641596 0.994279215129904
  outer loop
    vertex 25.5935961452162 8.19508556653375 4.38557139163343
    vertex -23.4932942178243 12.2926283498006 4.82575708745015
    vertex -25.5935961452162 8.19508556653374 4.38557139163343
  endloop
endfacet
facet normal 7.36816329674396e-017 -0.106812182641596 0.994279215129904
  outer loop
    vertex -23.4932942178243 12.2926283498006 4.82575708745015
    vertex 25.5935961452162 8.19508556653375 4.38557139163343
    vertex 23.4932942178243 12.2926283498006 4.82575708745015
  endloop
endfacet
facet normal 0.0 -0.106812182641596 0.994279215129904
  outer loop
    vertex 29.7942 0.0 2.3368
    vertex -27.6938980726081 4.09754278326687 2.77698569581671
    vertex -29.7942 0.0 2.3368
  endloop
endfacet
facet normal 0.0 -0.106812182641596 0.994279215129904
  outer loop
    vertex -27.6938980726081 4.09754278326687 2.77698569581671
    vertex 29.7942 0.0 2.3368
    vertex 27.6938980726081 4.09754278326687 2.77698569581671
  endloop
endfacet
facet normal -2.41171591456663e-016 -0.106812182641594 0.994279215129904
  outer loop
    vertex 23.4932942178243 12.2926283498006 5.40995708745015
    vertex -21.3929922904324 16.3901711330675 5.85014278326684
    vertex -23.4932942178243 12.2926283498006 5.40995708745014
  endloop
endfacet
facet normal -2.41171591456663e-016 -0.106812182641594 0.994279215129904
  outer loop
    vertex -21.3929922904324 16.3901711330675 5.85014278326684
    vertex 23.4932942178243 12.2926283498006 5.40995708745015
    vertex 21.3929922904324 16.3901711330675 5.85014278326686
  endloop
endfacet
facet normal 5.7091011326904e-017 0.242535625036329 -0.970142500145333
  outer loop
    vertex -21.3929922904324 16.3901711330675 5.85014278326684
    vertex 23.4932942178243 12.2926283498006 4.82575708745015
    vertex -23.4932942178243 12.2926283498006 4.82575708745015
  endloop
endfacet
facet normal 5.7091011326904e-017 0.242535625036329 -0.970142500145333
  outer loop
    vertex 23.4932942178243 12.2926283498006 4.82575708745015
    vertex -21.3929922904324 16.3901711330675 5.85014278326684
    vertex 21.3929922904324 16.3901711330675 5.85014278326686
  endloop
endfacet
facet normal 3.45859445809895e-016 0.242535625036333 -0.970142500145332
  outer loop
    vertex -19.2926903630405 20.4877139163344 6.87452847908357
    vertex 21.3929922904324 16.3901711330675 5.85014278326686
    vertex -21.3929922904324 16.3901711330675 5.85014278326684
  endloop
endfacet
facet normal 3.45859445809895e-016 0.242535625036333 -0.970142500145332
  outer loop
    vertex 21.3929922904324 16.3901711330675 5.85014278326686
    vertex -19.2926903630405 20.4877139163344 6.87452847908357
    vertex 19.2926903630405 20.4877139163344 6.87452847908358
  endloop
endfacet
facet normal 0.0 0.242535625036332 -0.970142500145332
  outer loop
    vertex -27.6938980726081 4.09754278326687 2.77698569581671
    vertex 29.7942 0.0 1.7526
    vertex -29.7942 0.0 1.7526
  endloop
endfacet
facet normal 0.0 0.242535625036332 -0.970142500145332
  outer loop
    vertex 29.7942 0.0 1.7526
    vertex -27.6938980726081 4.09754278326687 2.77698569581671
    vertex 27.6938980726081 4.09754278326687 2.77698569581671
  endloop
endfacet
facet normal 1.38437240618743e-017 -0.106812182641596 0.994279215129904
  outer loop
    vertex 27.6938980726081 4.09754278326687 3.36118569581672
    vertex -25.5935961452162 8.19508556653374 3.80137139163343
    vertex -27.6938980726081 4.09754278326687 3.36118569581672
  endloop
endfacet
facet normal 1.38437240618743e-017 -0.106812182641596 0.994279215129904
  outer loop
    vertex -25.5935961452162 8.19508556653374 3.80137139163343
    vertex 27.6938980726081 4.09754278326687 3.36118569581672
    vertex 25.5935961452162 8.19508556653375 3.80137139163343
  endloop
endfacet
facet normal 2.83830127576705e-016 -1.0 1.00836717669745e-030
  outer loop
    vertex 25.5935961452162 8.19508556653375 4.38557139163343
    vertex -25.5935961452162 8.19508556653374 3.80137139163343
    vertex 25.5935961452162 8.19508556653375 3.80137139163343
  endloop
endfacet
facet normal 2.83830127576705e-016 -1.0 1.00836717669745e-030
  outer loop
    vertex -25.5935961452162 8.19508556653374 3.80137139163343
    vertex 25.5935961452162 8.19508556653375 4.38557139163343
    vertex -25.5935961452162 8.19508556653374 4.38557139163343
  endloop
endfacet
facet normal 0.0 -1.0 0.0
  outer loop
    vertex 29.7942 0.0 2.3368
    vertex -29.7942 0.0 1.7526
    vertex 29.7942 0.0 1.7526
  endloop
endfacet
facet normal 0.0 -1.0 0.0
  outer loop
    vertex -29.7942 0.0 1.7526
    vertex 29.7942 0.0 2.3368
    vertex -29.7942 0.0 2.3368
  endloop
endfacet
facet normal -3.83437126568381e-016 -0.105218880066863 0.994449087322964
  outer loop
    vertex 21.3929922904324 16.3274124269117 6.43434278326686
    vertex -19.2926903630405 20.4877139163344 6.87452847908357
    vertex -21.3929922904324 16.3274124269116 6.43434278326684
  endloop
endfacet
facet normal -3.83437126568381e-016 -0.105218880066863 0.994449087322964
  outer loop
    vertex -19.2926903630405 20.4877139163344 6.87452847908357
    vertex 21.3929922904324 16.3274124269117 6.43434278326686
    vertex 19.2926903630405 20.4877139163344 6.87452847908358
  endloop
endfacet
facet normal -3.14345815724362e-017 0.242535625036332 -0.970142500145332
  outer loop
    vertex -25.5935961452162 8.19508556653374 3.80137139163343
    vertex 27.6938980726081 4.09754278326687 2.77698569581671
    vertex -27.6938980726081 4.09754278326687 2.77698569581671
  endloop
endfacet
facet normal -3.14345815724362e-017 0.242535625036332 -0.970142500145332
  outer loop
    vertex 27.6938980726081 4.09754278326687 2.77698569581671
    vertex -25.5935961452162 8.19508556653374 3.80137139163343
    vertex 25.5935961452162 8.19508556653375 3.80137139163343
  endloop
endfacet
facet normal 0.0 -1.0 0.0
  outer loop
    vertex 27.6938980726081 4.09754278326687 3.36118569581672
    vertex -27.6938980726081 4.09754278326687 2.77698569581671
    vertex 27.6938980726081 4.09754278326687 2.77698569581671
  endloop
endfacet
facet normal 0.0 -1.0 0.0
  outer loop
    vertex -27.6938980726081 4.09754278326687 2.77698569581671
    vertex 27.6938980726081 4.09754278326687 3.36118569581672
    vertex -27.6938980726081 4.09754278326687 3.36118569581672
  endloop
endfacet
facet normal 0.0 1.0 0.0
  outer loop
    vertex -29.7942 24.5364 1.7526
    vertex 29.7942 24.5364 0.0
    vertex -29.7942 24.5364 0.0
  endloop
endfacet
facet normal 0.0 1.0 0.0
  outer loop
    vertex 29.7942 24.5364 0.0
    vertex -29.7942 24.5364 1.7526
    vertex 29.7942 24.5364 1.7526
  endloop
endfacet
facet normal 0.0 1.0 0.0
  outer loop
    vertex 29.7942 24.5364 1.7526
    vertex -29.7942 24.5364 1.7526
    vertex -19.0141124617444 24.5364 7.01039999999999
  endloop
endfacet
facet normal 0.0 1.0 0.0
  outer loop
    vertex 29.7942 24.5364 1.7526
    vertex -19.0141124617444 24.5364 7.01039999999999
    vertex 19.0141124617444 24.5364 7.01039999999999
  endloop
endfacet
facet normal -1.0 0.0 0.0
  outer loop
    vertex -29.7942 24.5364 1.7526
    vertex -29.7942 0.0 0.0
    vertex -29.7942 0.0 1.7526
  endloop
endfacet
facet normal -1.0 0.0 0.0
  outer loop
    vertex -29.7942 0.0 0.0
    vertex -29.7942 24.5364 1.7526
    vertex -29.7942 24.5364 0.0
  endloop
endfacet
facet normal 0.0 0.0 -1.0
  outer loop
    vertex -29.7942 24.5364 0.0
    vertex -28.4642321875 4.27926499999998 0.0
    vertex -29.7942 0.0 0.0
  endloop
endfacet
facet normal 0.0 0.0 -1.0
  outer loop
    vertex -28.4642321875 4.27926499999998 0.0
    vertex -29.7942 24.5364 0.0
    vertex 29.7942 24.5364 0.0
  endloop
endfacet
facet normal 0.0 0.0 -1.0
  outer loop
    vertex -28.4642321875 4.27926499999998 0.0
    vertex 29.7942 24.5364 0.0
    vertex -25.5140221875 4.27926499999998 0.0
  endloop
endfacet
facet normal 0.0 0.0 -1.0
  outer loop
    vertex -25.5140221875 4.27926499999998 0.0
    vertex 29.7942 24.5364 0.0
    vertex -25.5140221875 1.32905499999999 0.0
  endloop
endfacet
facet normal 0.0 0.0 -1.0
  outer loop
    vertex -25.5140221875 1.32905499999999 0.0
    vertex 29.7942 24.5364 0.0
    vertex 25.514935 4.27926499999999 0.0
  endloop
endfacet
facet normal 0.0 0.0 -1.0
  outer loop
    vertex 25.514935 4.27926499999999 0.0
    vertex 29.7942 24.5364 0.0
    vertex 28.465145 4.27926499999999 0.0
  endloop
endfacet
facet normal 0.0 0.0 -1.0
  outer loop
    vertex 28.465145 4.27926499999999 0.0
    vertex 29.7942 24.5364 0.0
    vertex 28.465145 1.329055 0.0
  endloop
endfacet
facet normal 0.0 0.0 -1.0
  outer loop
    vertex -29.7942 0.0 0.0
    vertex -28.4642321875 1.32905499999999 0.0
    vertex 29.7942 0.0 0.0
  endloop
endfacet
facet normal 0.0 0.0 -1.0
  outer loop
    vertex -28.4642321875 1.32905499999999 0.0
    vertex -29.7942 0.0 0.0
    vertex -28.4642321875 4.27926499999998 0.0
  endloop
endfacet
facet normal 0.0 0.0 -1.0
  outer loop
    vertex 29.7942 0.0 0.0
    vertex -28.4642321875 1.32905499999999 0.0
    vertex -25.5140221875 1.32905499999999 0.0
  endloop
endfacet
facet normal 0.0 0.0 -1.0
  outer loop
    vertex 29.7942 0.0 0.0
    vertex -25.5140221875 1.32905499999999 0.0
    vertex 25.514935 1.329055 0.0
  endloop
endfacet
facet normal 0.0 0.0 -1.0
  outer loop
    vertex 25.514935 1.329055 0.0
    vertex -25.5140221875 1.32905499999999 0.0
    vertex 25.514935 4.27926499999999 0.0
  endloop
endfacet
facet normal 0.0 0.0 -1.0
  outer loop
    vertex 29.7942 0.0 0.0
    vertex 25.514935 1.329055 0.0
    vertex 28.465145 1.329055 0.0
  endloop
endfacet
facet normal 0.0 0.0 -1.0
  outer loop
    vertex 29.7942 0.0 0.0
    vertex 28.465145 1.329055 0.0
    vertex 29.7942 24.5364 0.0
  endloop
endfacet
facet normal 1.0 0.0 0.0
  outer loop
    vertex 29.7942 24.5364 0.0
    vertex 29.7942 0.0 1.7526
    vertex 29.7942 0.0 0.0
  endloop
endfacet
facet normal 1.0 0.0 0.0
  outer loop
    vertex 29.7942 0.0 1.7526
    vertex 29.7942 24.5364 0.0
    vertex 29.7942 24.5364 1.7526
  endloop
endfacet
facet normal 0.0 -1.0 0.0
  outer loop
    vertex 29.7942 0.0 1.7526
    vertex -29.7942 0.0 0.0
    vertex 29.7942 0.0 0.0
  endloop
endfacet
facet normal 0.0 -1.0 0.0
  outer loop
    vertex -29.7942 0.0 0.0
    vertex 29.7942 0.0 1.7526
    vertex -29.7942 0.0 1.7526
  endloop
endfacet
facet normal -3.17184941546342e-032 -0.242535625036332 0.970142500145332
  outer loop
    vertex 29.7942 0.0 1.7526
    vertex -19.0141124617444 21.0312 7.01039999999999
    vertex -29.7942 0.0 1.7526
  endloop
endfacet
facet normal -3.17184941546342e-032 -0.242535625036332 0.970142500145332
  outer loop
    vertex -19.0141124617444 21.0312 7.01039999999999
    vertex 29.7942 0.0 1.7526
    vertex 19.0141124617444 21.0312 7.01039999999999
  endloop
endfacet
facet normal -0.438371146789077 -3.04851494337165e-017 0.898794046299167
  outer loop
    vertex -19.0141124617444 21.0312 7.01039999999999
    vertex -29.7942 24.5364 1.7526
    vertex -29.7942 0.0 1.7526
  endloop
endfacet
facet normal -0.438371146789077 -3.04851494337165e-017 0.898794046299167
  outer loop
    vertex -29.7942 24.5364 1.7526
    vertex -19.0141124617444 21.0312 7.01039999999999
    vertex -19.0141124617444 24.5364 7.01039999999999
  endloop
endfacet
facet normal 0.438371146789078 2.13396046036016e-017 0.898794046299167
  outer loop
    vertex 29.7942 0.0 1.7526
    vertex 19.0141124617444 24.5364 7.01039999999999
    vertex 19.0141124617444 21.0312 7.01039999999999
  endloop
endfacet
facet normal 0.438371146789078 2.13396046036016e-017 0.898794046299167
  outer loop
    vertex 19.0141124617444 24.5364 7.01039999999999
    vertex 29.7942 0.0 1.7526
    vertex 29.7942 24.5364 1.7526
  endloop
endfacet
facet normal 0.0 0.0 1.0
  outer loop
    vertex 19.0141124617444 21.0312 7.01039999999999
    vertex -19.0141124617444 24.5364 7.01039999999999
    vertex -19.0141124617444 21.0312 7.01039999999999
  endloop
endfacet
facet normal 0.0 0.0 1.0
  outer loop
    vertex -19.0141124617444 24.5364 7.01039999999999
    vertex 19.0141124617444 21.0312 7.01039999999999
    vertex 19.0141124617444 24.5364 7.01039999999999
  endloop
endfacet
facet normal 0.0 0.0 -1.0
  outer loop
    vertex -25.5140221875 4.27926499999998 1.1684
    vertex -28.4642321875 1.32905499999999 1.1684
    vertex -28.4642321875 4.27926499999998 1.1684
  endloop
endfacet
facet normal 0.0 0.0 -1.0
  outer loop
    vertex -28.4642321875 1.32905499999999 1.1684
    vertex -25.5140221875 4.27926499999998 1.1684
    vertex -25.5140221875 1.32905499999999 1.1684
  endloop
endfacet
facet normal -1.0 0.0 0.0
  outer loop
    vertex -25.5140221875 4.27926499999998 1.1684
    vertex -25.5140221875 1.32905499999999 0.0
    vertex -25.5140221875 1.32905499999999 1.1684
  endloop
endfacet
facet normal -1.0 0.0 0.0
  outer loop
    vertex -25.5140221875 1.32905499999999 0.0
    vertex -25.5140221875 4.27926499999998 1.1684
    vertex -25.5140221875 4.27926499999998 0.0
  endloop
endfacet
facet normal 0.0 1.0 0.0
  outer loop
    vertex -28.4642321875 1.32905499999999 1.1684
    vertex -25.5140221875 1.32905499999999 0.0
    vertex -28.4642321875 1.32905499999999 0.0
  endloop
endfacet
facet normal 0.0 1.0 0.0
  outer loop
    vertex -25.5140221875 1.32905499999999 0.0
    vertex -28.4642321875 1.32905499999999 1.1684
    vertex -25.5140221875 1.32905499999999 1.1684
  endloop
endfacet
facet normal 1.0 0.0 0.0
  outer loop
    vertex -28.4642321875 4.27926499999998 0.0
    vertex -28.4642321875 1.32905499999999 1.1684
    vertex -28.4642321875 1.32905499999999 0.0
  endloop
endfacet
facet normal 1.0 0.0 0.0
  outer loop
    vertex -28.4642321875 1.32905499999999 1.1684
    vertex -28.4642321875 4.27926499999998 0.0
    vertex -28.4642321875 4.27926499999998 1.1684
  endloop
endfacet
facet normal 0.0 -1.0 0.0
  outer loop
    vertex -25.5140221875 4.27926499999998 1.1684
    vertex -28.4642321875 4.27926499999998 0.0
    vertex -25.5140221875 4.27926499999998 0.0
  endloop
endfacet
facet normal 0.0 -1.0 0.0
  outer loop
    vertex -28.4642321875 4.27926499999998 0.0
    vertex -25.5140221875 4.27926499999998 1.1684
    vertex -28.4642321875 4.27926499999998 1.1684
  endloop
endfacet
facet normal 0.0 0.0 -1.0
  outer loop
    vertex 28.465145 4.27926499999999 1.1684
    vertex 25.514935 1.329055 1.1684
    vertex 25.514935 4.27926499999999 1.1684
  endloop
endfacet
facet normal 0.0 0.0 -1.0
  outer loop
    vertex 25.514935 1.329055 1.1684
    vertex 28.465145 4.27926499999999 1.1684
    vertex 28.465145 1.329055 1.1684
  endloop
endfacet
facet normal -1.0 0.0 0.0
  outer loop
    vertex 28.465145 4.27926499999999 1.1684
    vertex 28.465145 1.329055 0.0
    vertex 28.465145 1.329055 1.1684
  endloop
endfacet
facet normal -1.0 0.0 0.0
  outer loop
    vertex 28.465145 1.329055 0.0
    vertex 28.465145 4.27926499999999 1.1684
    vertex 28.465145 4.27926499999999 0.0
  endloop
endfacet
facet normal 0.0 1.0 0.0
  outer loop
    vertex 25.514935 1.329055 1.1684
    vertex 28.465145 1.329055 0.0
    vertex 25.514935 1.329055 0.0
  endloop
endfacet
facet normal 0.0 1.0 0.0
  outer loop
    vertex 28.465145 1.329055 0.0
    vertex 25.514935 1.329055 1.1684
    vertex 28.465145 1.329055 1.1684
  endloop
endfacet
facet normal 1.0 0.0 0.0
  outer loop
    vertex 25.514935 4.27926499999999 0.0
    vertex 25.514935 1.329055 1.1684
    vertex 25.514935 1.329055 0.0
  endloop
endfacet
facet normal 1.0 0.0 0.0
  outer loop
    vertex 25.514935 1.329055 1.1684
    vertex 25.514935 4.27926499999999 0.0
    vertex 25.514935 4.27926499999999 1.1684
  endloop
endfacet
facet normal 0.0 -1.0 0.0
  outer loop
    vertex 28.465145 4.27926499999999 1.1684
    vertex 25.514935 4.27926499999999 0.0
    vertex 28.465145 4.27926499999999 0.0
  endloop
endfacet
facet normal 0.0 -1.0 0.0
  outer loop
    vertex 25.514935 4.27926499999999 0.0
    vertex 28.465145 4.27926499999999 1.1684
    vertex 25.514935 4.27926499999999 1.1684
  endloop
endfacet
endsolid Untitled-5dfea073
