solid Untitled-5e31b317
facet normal 4.03805763505688e-031 -3.82856869892695e-016 -1.0
  outer loop
    vertex -1.75133000000001 -28.1853224276834 -2.12921439371431e-015
    vertex 1.75133 -33.6921078478483 -2.09037645792493e-017
    vertex -1.75133 -33.6921078478483 -2.09037645792504e-017
  endloop
endfacet
facet normal 4.03805763505688e-031 -3.82856869892695e-016 -1.0
  outer loop
    vertex 1.75133 -33.6921078478483 -2.09037645792493e-017
    vertex -1.75133000000001 -28.1853224276834 -2.12921439371431e-015
    vertex 1.75132999999999 -28.1853224276834 -2.12921439371431e-015
  endloop
endfacet
facet normal 1.0 4.44089209850062e-016 3.03278395205984e-031
  outer loop
    vertex 1.75132999999999 -28.1853224276834 2.1654141259199
    vertex 1.75133 -33.6921078478483 -2.09037645792493e-017
    vertex 1.75132999999999 -28.1853224276834 -2.12921439371431e-015
  endloop
endfacet
facet normal 1.0 4.44089209850062e-016 3.03278395205984e-031
  outer loop
    vertex 1.75133 -33.6921078478483 -2.09037645792493e-017
    vertex 1.75132999999999 -28.1853224276834 2.1654141259199
    vertex 1.75133 -33.6921078478483 2.1654141259199
  endloop
endfacet
facet normal 4.44089209850062e-016 -1.0 3.82856869892695e-016
  outer loop
    vertex -1.75133 -33.6921078478483 2.16541412591991
    vertex 1.75133 -33.6921078478483 -2.09037645792493e-017
    vertex 1.75133 -33.6921078478483 2.1654141259199
  endloop
endfacet
facet normal 4.44089209850062e-016 -1.0 3.82856869892695e-016
  outer loop
    vertex 1.75133 -33.6921078478483 -2.09037645792493e-017
    vertex -1.75133 -33.6921078478483 2.16541412591991
    vertex -1.75133 -33.6921078478483 -2.09037645792504e-017
  endloop
endfacet
facet normal -3.70074341541718e-016 1.0 -3.82856869892695e-016
  outer loop
    vertex -1.75133000000001 -28.1853224276834 -2.12921439371431e-015
    vertex 1.75132999999999 -28.1853224276834 2.1654141259199
    vertex 1.75132999999999 -28.1853224276834 -2.12921439371431e-015
  endloop
endfacet
facet normal -3.70074341541718e-016 1.0 -3.82856869892695e-016
  outer loop
    vertex 1.75132999999999 -28.1853224276834 2.1654141259199
    vertex -1.75133000000001 -28.1853224276834 -2.12921439371431e-015
    vertex -1.75133000000001 -28.1853224276834 2.16541412591991
  endloop
endfacet
facet normal -4.03805763505688e-031 3.82856869892695e-016 1.0
  outer loop
    vertex 1.75133 -33.6921078478483 2.1654141259199
    vertex 0.722386769472339 -31.5983388999358 2.1654141259199
    vertex -1.75133 -33.6921078478483 2.16541412591991
  endloop
endfacet
facet normal -4.03805763505688e-031 3.82856869892695e-016 1.0
  outer loop
    vertex 0.722386769472339 -31.5983388999358 2.1654141259199
    vertex 1.75133 -33.6921078478483 2.1654141259199
    vertex 0.884739491072376 -31.3867567137968 2.1654141259199
  endloop
endfacet
facet normal -4.03805763505688e-031 3.82856869892695e-016 1.0
  outer loop
    vertex 0.884739491072376 -31.3867567137968 2.1654141259199
    vertex 1.75133 -33.6921078478483 2.1654141259199
    vertex 0.986798678456975 -31.1403640394481 2.1654141259199
  endloop
endfacet
facet normal -4.03805763505688e-031 3.82856869892695e-016 1.0
  outer loop
    vertex 0.986798678456975 -31.1403640394481 2.1654141259199
    vertex 1.75133 -33.6921078478483 2.1654141259199
    vertex 1.75132999999999 -28.1853224276834 2.1654141259199
  endloop
endfacet
facet normal -4.03805763505688e-031 3.82856869892695e-016 1.0
  outer loop
    vertex -1.75133 -33.6921078478483 2.16541412591991
    vertex 0.722386769472339 -31.5983388999358 2.1654141259199
    vertex 0.510804583333329 -31.7606916215358 2.1654141259199
  endloop
endfacet
facet normal -4.03805763505688e-031 3.82856869892695e-016 1.0
  outer loop
    vertex -1.75133 -33.6921078478483 2.16541412591991
    vertex 0.510804583333329 -31.7606916215358 2.1654141259199
    vertex 0.264411908984648 -31.8627508089205 2.1654141259199
  endloop
endfacet
facet normal -4.03805763505688e-031 3.82856869892695e-016 1.0
  outer loop
    vertex -1.75133 -33.6921078478483 2.16541412591991
    vertex 0.264411908984648 -31.8627508089205 2.1654141259199
    vertex -4.58244553414033e-015 -31.8975612971301 2.1654141259199
  endloop
endfacet
facet normal -4.03805763505688e-031 3.82856869892695e-016 1.0
  outer loop
    vertex 0.986798678456975 -31.1403640394481 2.1654141259199
    vertex 1.75132999999999 -28.1853224276834 2.1654141259199
    vertex 1.02160916666666 -30.8759521304635 2.1654141259199
  endloop
endfacet
facet normal -4.03805763505688e-031 3.82856869892695e-016 1.0
  outer loop
    vertex 1.02160916666666 -30.8759521304635 2.1654141259199
    vertex 1.75132999999999 -28.1853224276834 2.1654141259199
    vertex 0.986798678456974 -30.6115402214788 2.1654141259199
  endloop
endfacet
facet normal -4.03805763505688e-031 3.82856869892695e-016 1.0
  outer loop
    vertex 0.986798678456974 -30.6115402214788 2.1654141259199
    vertex 1.75132999999999 -28.1853224276834 2.1654141259199
    vertex 0.884739491072376 -30.3651475471301 2.1654141259199
  endloop
endfacet
facet normal -4.03805763505688e-031 3.82856869892695e-016 1.0
  outer loop
    vertex 0.884739491072376 -30.3651475471301 2.1654141259199
    vertex 1.75132999999999 -28.1853224276834 2.1654141259199
    vertex 0.722386769472338 -30.1535653609911 2.1654141259199
  endloop
endfacet
facet normal -4.03805763505688e-031 3.82856869892695e-016 1.0
  outer loop
    vertex 0.722386769472338 -30.1535653609911 2.1654141259199
    vertex 1.75132999999999 -28.1853224276834 2.1654141259199
    vertex 0.510804583333328 -29.9912126393911 2.1654141259199
  endloop
endfacet
facet normal -4.03805763505688e-031 3.82856869892695e-016 1.0
  outer loop
    vertex 0.510804583333328 -29.9912126393911 2.1654141259199
    vertex 1.75132999999999 -28.1853224276834 2.1654141259199
    vertex 0.264411908984647 -29.8891534520065 2.1654141259199
  endloop
endfacet
facet normal -4.03805763505688e-031 3.82856869892695e-016 1.0
  outer loop
    vertex 0.264411908984647 -29.8891534520065 2.1654141259199
    vertex 1.75132999999999 -28.1853224276834 2.1654141259199
    vertex -5.63993296509579e-015 -29.8543429637968 2.1654141259199
  endloop
endfacet
facet normal -4.03805763505688e-031 3.82856869892695e-016 1.0
  outer loop
    vertex -1.75133 -33.6921078478483 2.16541412591991
    vertex -0.986798678456985 -31.1403640394481 2.1654141259199
    vertex -1.75133000000001 -28.1853224276834 2.16541412591991
  endloop
endfacet
facet normal -4.03805763505688e-031 3.82856869892695e-016 1.0
  outer loop
    vertex -0.986798678456985 -31.1403640394481 2.1654141259199
    vertex -1.75133 -33.6921078478483 2.16541412591991
    vertex -0.884739491072386 -31.3867567137968 2.1654141259199
  endloop
endfacet
facet normal -4.03805763505688e-031 3.82856869892695e-016 1.0
  outer loop
    vertex -0.884739491072386 -31.3867567137968 2.1654141259199
    vertex -1.75133 -33.6921078478483 2.16541412591991
    vertex -0.722386769472348 -31.5983388999358 2.1654141259199
  endloop
endfacet
facet normal -4.03805763505688e-031 3.82856869892695e-016 1.0
  outer loop
    vertex -0.722386769472348 -31.5983388999358 2.1654141259199
    vertex -1.75133 -33.6921078478483 2.16541412591991
    vertex -0.510804583333338 -31.7606916215358 2.1654141259199
  endloop
endfacet
facet normal -4.03805763505688e-031 3.82856869892695e-016 1.0
  outer loop
    vertex -0.510804583333338 -31.7606916215358 2.1654141259199
    vertex -1.75133 -33.6921078478483 2.16541412591991
    vertex -0.264411908984658 -31.8627508089205 2.1654141259199
  endloop
endfacet
facet normal -4.03805763505688e-031 3.82856869892695e-016 1.0
  outer loop
    vertex -0.264411908984658 -31.8627508089205 2.1654141259199
    vertex -1.75133 -33.6921078478483 2.16541412591991
    vertex -4.58244553414033e-015 -31.8975612971301 2.1654141259199
  endloop
endfacet
facet normal -4.03805763505688e-031 3.82856869892695e-016 1.0
  outer loop
    vertex -1.75133000000001 -28.1853224276834 2.16541412591991
    vertex -0.986798678456985 -31.1403640394481 2.1654141259199
    vertex -1.02160916666667 -30.8759521304635 2.1654141259199
  endloop
endfacet
facet normal -4.03805763505688e-031 3.82856869892695e-016 1.0
  outer loop
    vertex -1.75133000000001 -28.1853224276834 2.16541412591991
    vertex -1.02160916666667 -30.8759521304635 2.1654141259199
    vertex -0.986798678456985 -30.6115402214788 2.1654141259199
  endloop
endfacet
facet normal -4.03805763505688e-031 3.82856869892695e-016 1.0
  outer loop
    vertex -1.75133000000001 -28.1853224276834 2.16541412591991
    vertex -0.986798678456985 -30.6115402214788 2.1654141259199
    vertex -0.884739491072386 -30.3651475471301 2.1654141259199
  endloop
endfacet
facet normal -4.03805763505688e-031 3.82856869892695e-016 1.0
  outer loop
    vertex -1.75133000000001 -28.1853224276834 2.16541412591991
    vertex -0.884739491072386 -30.3651475471301 2.1654141259199
    vertex -0.722386769472349 -30.1535653609911 2.1654141259199
  endloop
endfacet
facet normal -4.03805763505688e-031 3.82856869892695e-016 1.0
  outer loop
    vertex -1.75133000000001 -28.1853224276834 2.16541412591991
    vertex -0.722386769472349 -30.1535653609911 2.1654141259199
    vertex -0.510804583333338 -29.9912126393911 2.1654141259199
  endloop
endfacet
facet normal -4.03805763505688e-031 3.82856869892695e-016 1.0
  outer loop
    vertex -1.75133000000001 -28.1853224276834 2.16541412591991
    vertex -0.510804583333338 -29.9912126393911 2.1654141259199
    vertex -0.264411908984658 -29.8891534520065 2.1654141259199
  endloop
endfacet
facet normal -4.03805763505688e-031 3.82856869892695e-016 1.0
  outer loop
    vertex -1.75133000000001 -28.1853224276834 2.16541412591991
    vertex -0.264411908984658 -29.8891534520065 2.1654141259199
    vertex -5.63993296509579e-015 -29.8543429637968 2.1654141259199
  endloop
endfacet
facet normal -4.03805763505688e-031 3.82856869892695e-016 1.0
  outer loop
    vertex -1.75133000000001 -28.1853224276834 2.16541412591991
    vertex -5.63993296509579e-015 -29.8543429637968 2.1654141259199
    vertex 1.75132999999999 -28.1853224276834 2.1654141259199
  endloop
endfacet
facet normal -1.0 -4.44089209850062e-016 -3.03278395205984e-031
  outer loop
    vertex -1.75133 -33.6921078478483 2.16541412591991
    vertex -1.75133000000001 -28.1853224276834 -2.12921439371431e-015
    vertex -1.75133 -33.6921078478483 -2.09037645792504e-017
  endloop
endfacet
facet normal -1.0 -4.44089209850062e-016 -3.03278395205984e-031
  outer loop
    vertex -1.75133000000001 -28.1853224276834 -2.12921439371431e-015
    vertex -1.75133 -33.6921078478483 2.16541412591991
    vertex -1.75133000000001 -28.1853224276834 2.16541412591991
  endloop
endfacet
facet normal 0.382683432365091 0.923879532511286 -3.53713625975197e-016
  outer loop
    vertex 0.264411908984647 -29.8891534520065 2.1654141259199
    vertex 0.510804583333328 -29.9912126393911 3.0410791259199
    vertex 0.510804583333328 -29.9912126393911 2.1654141259199
  endloop
endfacet
facet normal 0.382683432365091 0.923879532511286 -3.53713625975197e-016
  outer loop
    vertex 0.510804583333328 -29.9912126393911 3.0410791259199
    vertex 0.264411908984647 -29.8891534520065 2.1654141259199
    vertex 0.264411908984647 -29.8891534520065 3.0410791259199
  endloop
endfacet
facet normal 0.60876142900872 0.793353340291235 -3.03740776582816e-016
  outer loop
    vertex 0.510804583333328 -29.9912126393911 2.1654141259199
    vertex 0.722386769472338 -30.1535653609911 3.0410791259199
    vertex 0.722386769472338 -30.1535653609911 2.1654141259199
  endloop
endfacet
facet normal 0.60876142900872 0.793353340291235 -3.03740776582816e-016
  outer loop
    vertex 0.722386769472338 -30.1535653609911 3.0410791259199
    vertex 0.510804583333328 -29.9912126393911 2.1654141259199
    vertex 0.510804583333328 -29.9912126393911 3.0410791259199
  endloop
endfacet
facet normal 0.793353340291235 0.608761429008721 -2.33068495221683e-016
  outer loop
    vertex 0.722386769472338 -30.1535653609911 3.0410791259199
    vertex 0.884739491072376 -30.3651475471301 2.1654141259199
    vertex 0.722386769472338 -30.1535653609911 2.1654141259199
  endloop
endfacet
facet normal 0.793353340291235 0.608761429008721 -2.33068495221683e-016
  outer loop
    vertex 0.884739491072376 -30.3651475471301 2.1654141259199
    vertex 0.722386769472338 -30.1535653609911 3.0410791259199
    vertex 0.884739491072376 -30.3651475471301 3.0410791259199
  endloop
endfacet
facet normal 0.923879532511286 0.382683432365092 -1.46512981075091e-016
  outer loop
    vertex 0.884739491072376 -30.3651475471301 3.0410791259199
    vertex 0.986798678456974 -30.6115402214788 2.1654141259199
    vertex 0.884739491072376 -30.3651475471301 2.1654141259199
  endloop
endfacet
facet normal 0.923879532511286 0.382683432365092 -1.46512981075091e-016
  outer loop
    vertex 0.986798678456974 -30.6115402214788 2.1654141259199
    vertex 0.884739491072376 -30.3651475471301 3.0410791259199
    vertex 0.986798678456974 -30.6115402214788 3.0410791259199
  endloop
endfacet
facet normal 0.99144486137381 0.130526192220053 -4.99728493923813e-017
  outer loop
    vertex 0.986798678456974 -30.6115402214788 3.0410791259199
    vertex 1.02160916666666 -30.8759521304635 2.1654141259199
    vertex 0.986798678456974 -30.6115402214788 2.1654141259199
  endloop
endfacet
facet normal 0.99144486137381 0.130526192220053 -4.99728493923813e-017
  outer loop
    vertex 1.02160916666666 -30.8759521304635 2.1654141259199
    vertex 0.986798678456974 -30.6115402214788 3.0410791259199
    vertex 1.02160916666666 -30.8759521304635 3.0410791259199
  endloop
endfacet
facet normal 0.99144486137381 -0.130526192220052 4.99728493923821e-017
  outer loop
    vertex 1.02160916666666 -30.8759521304635 3.0410791259199
    vertex 0.986798678456975 -31.1403640394481 2.1654141259199
    vertex 1.02160916666666 -30.8759521304635 2.1654141259199
  endloop
endfacet
facet normal 0.99144486137381 -0.130526192220052 4.99728493923821e-017
  outer loop
    vertex 0.986798678456975 -31.1403640394481 2.1654141259199
    vertex 1.02160916666666 -30.8759521304635 3.0410791259199
    vertex 0.986798678456975 -31.1403640394481 3.0410791259199
  endloop
endfacet
facet normal 0.130526192220052 0.99144486137381 -3.79581476296774e-016
  outer loop
    vertex -5.63993296509579e-015 -29.8543429637968 2.1654141259199
    vertex 0.264411908984647 -29.8891534520065 3.0410791259199
    vertex 0.264411908984647 -29.8891534520065 2.1654141259199
  endloop
endfacet
facet normal 0.130526192220052 0.99144486137381 -3.79581476296774e-016
  outer loop
    vertex 0.264411908984647 -29.8891534520065 3.0410791259199
    vertex -5.63993296509579e-015 -29.8543429637968 2.1654141259199
    vertex -5.63993296509579e-015 -29.8543429637968 3.0410791259199
  endloop
endfacet
facet normal 0.923879532511288 -0.382683432365087 1.46512981075091e-016
  outer loop
    vertex 0.986798678456975 -31.1403640394481 3.0410791259199
    vertex 0.884739491072376 -31.3867567137968 2.1654141259199
    vertex 0.986798678456975 -31.1403640394481 2.1654141259199
  endloop
endfacet
facet normal 0.923879532511288 -0.382683432365087 1.46512981075091e-016
  outer loop
    vertex 0.884739491072376 -31.3867567137968 2.1654141259199
    vertex 0.986798678456975 -31.1403640394481 3.0410791259199
    vertex 0.884739491072376 -31.3867567137968 3.0410791259199
  endloop
endfacet
facet normal 0.793353340291234 -0.608761429008723 2.33068495221684e-016
  outer loop
    vertex 0.884739491072376 -31.3867567137968 2.1654141259199
    vertex 0.722386769472339 -31.5983388999358 3.0410791259199
    vertex 0.722386769472339 -31.5983388999358 2.1654141259199
  endloop
endfacet
facet normal 0.793353340291234 -0.608761429008723 2.33068495221684e-016
  outer loop
    vertex 0.722386769472339 -31.5983388999358 3.0410791259199
    vertex 0.884739491072376 -31.3867567137968 2.1654141259199
    vertex 0.884739491072376 -31.3867567137968 3.0410791259199
  endloop
endfacet
facet normal 0.608761429008721 -0.793353340291235 3.03740776582817e-016
  outer loop
    vertex 0.510804583333329 -31.7606916215358 3.0410791259199
    vertex 0.722386769472339 -31.5983388999358 2.1654141259199
    vertex 0.722386769472339 -31.5983388999358 3.0410791259199
  endloop
endfacet
facet normal 0.608761429008721 -0.793353340291235 3.03740776582817e-016
  outer loop
    vertex 0.722386769472339 -31.5983388999358 2.1654141259199
    vertex 0.510804583333329 -31.7606916215358 3.0410791259199
    vertex 0.510804583333329 -31.7606916215358 2.1654141259199
  endloop
endfacet
facet normal 0.382683432365093 -0.923879532511285 3.53713625975197e-016
  outer loop
    vertex 0.264411908984648 -31.8627508089205 3.0410791259199
    vertex 0.510804583333329 -31.7606916215358 2.1654141259199
    vertex 0.510804583333329 -31.7606916215358 3.0410791259199
  endloop
endfacet
facet normal 0.382683432365093 -0.923879532511285 3.53713625975197e-016
  outer loop
    vertex 0.510804583333329 -31.7606916215358 2.1654141259199
    vertex 0.264411908984648 -31.8627508089205 3.0410791259199
    vertex 0.264411908984648 -31.8627508089205 2.1654141259199
  endloop
endfacet
facet normal 0.130526192220053 -0.99144486137381 3.79581476296774e-016
  outer loop
    vertex -4.58244553414033e-015 -31.8975612971301 3.0410791259199
    vertex 0.264411908984648 -31.8627508089205 2.1654141259199
    vertex 0.264411908984648 -31.8627508089205 3.0410791259199
  endloop
endfacet
facet normal 0.130526192220053 -0.99144486137381 3.79581476296774e-016
  outer loop
    vertex 0.264411908984648 -31.8627508089205 2.1654141259199
    vertex -4.58244553414033e-015 -31.8975612971301 3.0410791259199
    vertex -4.58244553414033e-015 -31.8975612971301 2.1654141259199
  endloop
endfacet
facet normal -4.03805763505688e-031 3.82856869892695e-016 1.0
  outer loop
    vertex 0.264411908984648 -31.8627508089205 3.0410791259199
    vertex -0.264411908984658 -31.8627508089205 3.0410791259199
    vertex -4.58244553414033e-015 -31.8975612971301 3.0410791259199
  endloop
endfacet
facet normal -4.03805763505688e-031 3.82856869892695e-016 1.0
  outer loop
    vertex -0.264411908984658 -31.8627508089205 3.0410791259199
    vertex 0.264411908984648 -31.8627508089205 3.0410791259199
    vertex 0.510804583333329 -31.7606916215358 3.0410791259199
  endloop
endfacet
facet normal -4.03805763505688e-031 3.82856869892695e-016 1.0
  outer loop
    vertex -0.264411908984658 -31.8627508089205 3.0410791259199
    vertex 0.510804583333329 -31.7606916215358 3.0410791259199
    vertex -0.510804583333338 -31.7606916215358 3.0410791259199
  endloop
endfacet
facet normal -4.03805763505688e-031 3.82856869892695e-016 1.0
  outer loop
    vertex -0.510804583333338 -31.7606916215358 3.0410791259199
    vertex 0.510804583333329 -31.7606916215358 3.0410791259199
    vertex -0.722386769472332 -31.5983388999358 3.0410791259199
  endloop
endfacet
facet normal -4.03805763505688e-031 3.82856869892695e-016 1.0
  outer loop
    vertex -0.722386769472332 -31.5983388999358 3.0410791259199
    vertex 0.510804583333329 -31.7606916215358 3.0410791259199
    vertex 0.722386769472339 -31.5983388999358 3.0410791259199
  endloop
endfacet
facet normal -4.03805763505688e-031 3.82856869892695e-016 1.0
  outer loop
    vertex -0.722386769472332 -31.5983388999358 3.0410791259199
    vertex 0.722386769472339 -31.5983388999358 3.0410791259199
    vertex 0.884739491072376 -31.3867567137968 3.0410791259199
  endloop
endfacet
facet normal -4.03805763505688e-031 3.82856869892695e-016 1.0
  outer loop
    vertex -0.722386769472332 -31.5983388999358 3.0410791259199
    vertex 0.884739491072376 -31.3867567137968 3.0410791259199
    vertex -0.884739491072386 -31.3867567137968 3.0410791259199
  endloop
endfacet
facet normal -4.03805763505688e-031 3.82856869892695e-016 1.0
  outer loop
    vertex -0.884739491072386 -31.3867567137968 3.0410791259199
    vertex 0.884739491072376 -31.3867567137968 3.0410791259199
    vertex 0.986798678456975 -31.1403640394481 3.0410791259199
  endloop
endfacet
facet normal -4.03805763505688e-031 3.82856869892695e-016 1.0
  outer loop
    vertex -0.884739491072386 -31.3867567137968 3.0410791259199
    vertex 0.986798678456975 -31.1403640394481 3.0410791259199
    vertex -0.986798678456985 -31.1403640394481 3.0410791259199
  endloop
endfacet
facet normal -4.03805763505688e-031 3.82856869892695e-016 1.0
  outer loop
    vertex -0.986798678456985 -31.1403640394481 3.0410791259199
    vertex 0.986798678456975 -31.1403640394481 3.0410791259199
    vertex 1.02160916666666 -30.8759521304635 3.0410791259199
  endloop
endfacet
facet normal -4.03805763505688e-031 3.82856869892695e-016 1.0
  outer loop
    vertex -0.986798678456985 -31.1403640394481 3.0410791259199
    vertex 1.02160916666666 -30.8759521304635 3.0410791259199
    vertex -1.02160916666667 -30.8759521304635 3.0410791259199
  endloop
endfacet
facet normal -4.03805763505688e-031 3.82856869892695e-016 1.0
  outer loop
    vertex -1.02160916666667 -30.8759521304635 3.0410791259199
    vertex 1.02160916666666 -30.8759521304635 3.0410791259199
    vertex 0.986798678456974 -30.6115402214788 3.0410791259199
  endloop
endfacet
facet normal -4.03805763505688e-031 3.82856869892695e-016 1.0
  outer loop
    vertex -1.02160916666667 -30.8759521304635 3.0410791259199
    vertex 0.986798678456974 -30.6115402214788 3.0410791259199
    vertex -0.986798678456985 -30.6115402214788 3.0410791259199
  endloop
endfacet
facet normal -4.03805763505688e-031 3.82856869892695e-016 1.0
  outer loop
    vertex -0.986798678456985 -30.6115402214788 3.0410791259199
    vertex 0.986798678456974 -30.6115402214788 3.0410791259199
    vertex 0.884739491072376 -30.3651475471301 3.0410791259199
  endloop
endfacet
facet normal -4.03805763505688e-031 3.82856869892695e-016 1.0
  outer loop
    vertex -0.986798678456985 -30.6115402214788 3.0410791259199
    vertex 0.884739491072376 -30.3651475471301 3.0410791259199
    vertex -0.884739491072386 -30.3651475471301 3.0410791259199
  endloop
endfacet
facet normal -4.03805763505688e-031 3.82856869892695e-016 1.0
  outer loop
    vertex -0.884739491072386 -30.3651475471301 3.0410791259199
    vertex 0.884739491072376 -30.3651475471301 3.0410791259199
    vertex 0.722386769472338 -30.1535653609911 3.0410791259199
  endloop
endfacet
facet normal -4.03805763505688e-031 3.82856869892695e-016 1.0
  outer loop
    vertex -0.884739491072386 -30.3651475471301 3.0410791259199
    vertex 0.722386769472338 -30.1535653609911 3.0410791259199
    vertex -0.722386769472349 -30.1535653609911 3.0410791259199
  endloop
endfacet
facet normal -4.03805763505688e-031 3.82856869892695e-016 1.0
  outer loop
    vertex -0.722386769472349 -30.1535653609911 3.0410791259199
    vertex 0.722386769472338 -30.1535653609911 3.0410791259199
    vertex 0.510804583333328 -29.9912126393911 3.0410791259199
  endloop
endfacet
facet normal -4.03805763505688e-031 3.82856869892695e-016 1.0
  outer loop
    vertex -0.722386769472349 -30.1535653609911 3.0410791259199
    vertex 0.510804583333328 -29.9912126393911 3.0410791259199
    vertex -0.510804583333339 -29.9912126393911 3.0410791259199
  endloop
endfacet
facet normal -4.03805763505688e-031 3.82856869892695e-016 1.0
  outer loop
    vertex -0.510804583333339 -29.9912126393911 3.0410791259199
    vertex 0.510804583333328 -29.9912126393911 3.0410791259199
    vertex -0.264411908984659 -29.8891534520065 3.0410791259199
  endloop
endfacet
facet normal -4.03805763505688e-031 3.82856869892695e-016 1.0
  outer loop
    vertex -0.264411908984659 -29.8891534520065 3.0410791259199
    vertex 0.510804583333328 -29.9912126393911 3.0410791259199
    vertex 0.264411908984647 -29.8891534520065 3.0410791259199
  endloop
endfacet
facet normal -4.03805763505688e-031 3.82856869892695e-016 1.0
  outer loop
    vertex -0.264411908984659 -29.8891534520065 3.0410791259199
    vertex 0.264411908984647 -29.8891534520065 3.0410791259199
    vertex -5.63993296509579e-015 -29.8543429637968 3.0410791259199
  endloop
endfacet
facet normal -0.130526192220052 -0.99144486137381 3.79581476296774e-016
  outer loop
    vertex -0.264411908984658 -31.8627508089205 3.0410791259199
    vertex -4.58244553414033e-015 -31.8975612971301 2.1654141259199
    vertex -4.58244553414033e-015 -31.8975612971301 3.0410791259199
  endloop
endfacet
facet normal -0.130526192220052 -0.99144486137381 3.79581476296774e-016
  outer loop
    vertex -4.58244553414033e-015 -31.8975612971301 2.1654141259199
    vertex -0.264411908984658 -31.8627508089205 3.0410791259199
    vertex -0.264411908984658 -31.8627508089205 2.1654141259199
  endloop
endfacet
facet normal -0.382683432365091 -0.923879532511286 3.53713625975197e-016
  outer loop
    vertex -0.510804583333338 -31.7606916215358 3.0410791259199
    vertex -0.264411908984658 -31.8627508089205 2.1654141259199
    vertex -0.264411908984658 -31.8627508089205 3.0410791259199
  endloop
endfacet
facet normal -0.382683432365091 -0.923879532511286 3.53713625975197e-016
  outer loop
    vertex -0.264411908984658 -31.8627508089205 2.1654141259199
    vertex -0.510804583333338 -31.7606916215358 3.0410791259199
    vertex -0.510804583333338 -31.7606916215358 2.1654141259199
  endloop
endfacet
facet normal -0.60876142900872 -0.793353340291235 3.03740776582816e-016
  outer loop
    vertex -0.722386769472332 -31.5983388999358 3.0410791259199
    vertex -0.510804583333338 -31.7606916215358 2.1654141259199
    vertex -0.510804583333338 -31.7606916215358 3.0410791259199
  endloop
endfacet
facet normal -0.60876142900872 -0.793353340291235 3.03740776582816e-016
  outer loop
    vertex -0.510804583333338 -31.7606916215358 2.1654141259199
    vertex -0.722386769472332 -31.5983388999358 3.0410791259199
    vertex -0.722386769472348 -31.5983388999358 2.1654141259199
  endloop
endfacet
facet normal -0.793353340291233 -0.608761429008724 2.33068495221684e-016
  outer loop
    vertex -0.722386769472332 -31.5983388999358 3.0410791259199
    vertex -0.884739491072386 -31.3867567137968 2.1654141259199
    vertex -0.722386769472348 -31.5983388999358 2.1654141259199
  endloop
endfacet
facet normal -0.793353340291233 -0.608761429008724 2.33068495221684e-016
  outer loop
    vertex -0.884739491072386 -31.3867567137968 2.1654141259199
    vertex -0.722386769472332 -31.5983388999358 3.0410791259199
    vertex -0.884739491072386 -31.3867567137968 3.0410791259199
  endloop
endfacet
facet normal -0.923879532511287 -0.382683432365088 1.4651298107509e-016
  outer loop
    vertex -0.884739491072386 -31.3867567137968 3.0410791259199
    vertex -0.986798678456985 -31.1403640394481 2.1654141259199
    vertex -0.884739491072386 -31.3867567137968 2.1654141259199
  endloop
endfacet
facet normal -0.923879532511287 -0.382683432365088 1.4651298107509e-016
  outer loop
    vertex -0.986798678456985 -31.1403640394481 2.1654141259199
    vertex -0.884739491072386 -31.3867567137968 3.0410791259199
    vertex -0.986798678456985 -31.1403640394481 3.0410791259199
  endloop
endfacet
facet normal -0.99144486137381 -0.130526192220053 4.99728493923813e-017
  outer loop
    vertex -0.986798678456985 -31.1403640394481 3.0410791259199
    vertex -1.02160916666667 -30.8759521304635 2.1654141259199
    vertex -0.986798678456985 -31.1403640394481 2.1654141259199
  endloop
endfacet
facet normal -0.99144486137381 -0.130526192220053 4.99728493923813e-017
  outer loop
    vertex -1.02160916666667 -30.8759521304635 2.1654141259199
    vertex -0.986798678456985 -31.1403640394481 3.0410791259199
    vertex -1.02160916666667 -30.8759521304635 3.0410791259199
  endloop
endfacet
facet normal -0.99144486137381 0.130526192220052 -4.99728493923821e-017
  outer loop
    vertex -1.02160916666667 -30.8759521304635 3.0410791259199
    vertex -0.986798678456985 -30.6115402214788 2.1654141259199
    vertex -1.02160916666667 -30.8759521304635 2.1654141259199
  endloop
endfacet
facet normal -0.99144486137381 0.130526192220052 -4.99728493923821e-017
  outer loop
    vertex -0.986798678456985 -30.6115402214788 2.1654141259199
    vertex -1.02160916666667 -30.8759521304635 3.0410791259199
    vertex -0.986798678456985 -30.6115402214788 3.0410791259199
  endloop
endfacet
facet normal -0.923879532511288 0.382683432365087 -1.46512981075091e-016
  outer loop
    vertex -0.986798678456985 -30.6115402214788 3.0410791259199
    vertex -0.884739491072386 -30.3651475471301 2.1654141259199
    vertex -0.986798678456985 -30.6115402214788 2.1654141259199
  endloop
endfacet
facet normal -0.923879532511288 0.382683432365087 -1.46512981075091e-016
  outer loop
    vertex -0.884739491072386 -30.3651475471301 2.1654141259199
    vertex -0.986798678456985 -30.6115402214788 3.0410791259199
    vertex -0.884739491072386 -30.3651475471301 3.0410791259199
  endloop
endfacet
facet normal -0.793353340291234 0.608761429008723 -2.33068495221684e-016
  outer loop
    vertex -0.884739491072386 -30.3651475471301 2.1654141259199
    vertex -0.722386769472349 -30.1535653609911 3.0410791259199
    vertex -0.722386769472349 -30.1535653609911 2.1654141259199
  endloop
endfacet
facet normal -0.793353340291234 0.608761429008723 -2.33068495221684e-016
  outer loop
    vertex -0.722386769472349 -30.1535653609911 3.0410791259199
    vertex -0.884739491072386 -30.3651475471301 2.1654141259199
    vertex -0.884739491072386 -30.3651475471301 3.0410791259199
  endloop
endfacet
facet normal -0.608761429008721 0.793353340291235 -3.03740776582817e-016
  outer loop
    vertex -0.722386769472349 -30.1535653609911 2.1654141259199
    vertex -0.510804583333339 -29.9912126393911 3.0410791259199
    vertex -0.510804583333338 -29.9912126393911 2.1654141259199
  endloop
endfacet
facet normal -0.608761429008721 0.793353340291235 -3.03740776582817e-016
  outer loop
    vertex -0.510804583333339 -29.9912126393911 3.0410791259199
    vertex -0.722386769472349 -30.1535653609911 2.1654141259199
    vertex -0.722386769472349 -30.1535653609911 3.0410791259199
  endloop
endfacet
facet normal -0.382683432365092 0.923879532511286 -3.53713625975198e-016
  outer loop
    vertex -0.510804583333338 -29.9912126393911 2.1654141259199
    vertex -0.264411908984659 -29.8891534520065 3.0410791259199
    vertex -0.264411908984658 -29.8891534520065 2.1654141259199
  endloop
endfacet
facet normal -0.382683432365092 0.923879532511286 -3.53713625975198e-016
  outer loop
    vertex -0.264411908984659 -29.8891534520065 3.0410791259199
    vertex -0.510804583333338 -29.9912126393911 2.1654141259199
    vertex -0.510804583333339 -29.9912126393911 3.0410791259199
  endloop
endfacet
facet normal -0.130526192220053 0.99144486137381 -3.79581476296774e-016
  outer loop
    vertex -0.264411908984658 -29.8891534520065 2.1654141259199
    vertex -5.63993296509579e-015 -29.8543429637968 3.0410791259199
    vertex -5.63993296509579e-015 -29.8543429637968 2.1654141259199
  endloop
endfacet
facet normal -0.130526192220053 0.99144486137381 -3.79581476296774e-016
  outer loop
    vertex -5.63993296509579e-015 -29.8543429637968 3.0410791259199
    vertex -0.264411908984658 -29.8891534520065 2.1654141259199
    vertex -0.264411908984659 -29.8891534520065 3.0410791259199
  endloop
endfacet
facet normal -0.866025403784447 -5.76020972223058e-016 -0.499999999999985
  outer loop
    vertex -0.29188833333327 -28.1853224276834 -0.0072494521181763
    vertex -0.583776666666611 27.0643930296272 0.498315971351725
    vertex -0.291888333333294 27.0643930296272 -0.00724945211821404
  endloop
endfacet
facet normal -0.866025403784447 -5.76020972223058e-016 -0.499999999999985
  outer loop
    vertex -0.583776666666611 27.0643930296272 0.498315971351725
    vertex -0.29188833333327 -28.1853224276834 -0.0072494521181763
    vertex -0.583776666666603 -28.1853224276834 0.498315971351763
  endloop
endfacet
facet normal -4.03805763505688e-031 3.82856869892695e-016 1.0
  outer loop
    vertex 0.291888333333372 27.0643930296272 1.00388139482165
    vertex -0.29188833333327 -28.1853224276834 1.00388139482169
    vertex 0.291888333333397 -28.1853224276834 1.00388139482169
  endloop
endfacet
facet normal -4.03805763505688e-031 3.82856869892695e-016 1.0
  outer loop
    vertex -0.29188833333327 -28.1853224276834 1.00388139482169
    vertex 0.291888333333372 27.0643930296272 1.00388139482165
    vertex -0.291888333333278 27.0643930296272 1.00388139482165
  endloop
endfacet
facet normal 0.866025403784441 1.93164102330367e-016 -0.499999999999996
  outer loop
    vertex 0.583776666666706 27.0643930296272 0.498315971351725
    vertex 0.29188833333338 -28.1853224276834 -0.0072494521181763
    vertex 0.291888333333372 27.0643930296272 -0.00724945211821404
  endloop
endfacet
facet normal 0.866025403784441 1.93164102330367e-016 -0.499999999999996
  outer loop
    vertex 0.29188833333338 -28.1853224276834 -0.0072494521181763
    vertex 0.583776666666706 27.0643930296272 0.498315971351725
    vertex 0.583776666666714 -28.1853224276834 0.498315971351763
  endloop
endfacet
facet normal 0.86602540378444 5.7602097222306e-016 0.499999999999998
  outer loop
    vertex 0.291888333333372 27.0643930296272 1.00388139482165
    vertex 0.583776666666714 -28.1853224276834 0.498315971351763
    vertex 0.583776666666706 27.0643930296272 0.498315971351725
  endloop
endfacet
facet normal 0.86602540378444 5.7602097222306e-016 0.499999999999998
  outer loop
    vertex 0.583776666666714 -28.1853224276834 0.498315971351763
    vertex 0.291888333333372 27.0643930296272 1.00388139482165
    vertex 0.291888333333397 -28.1853224276834 1.00388139482169
  endloop
endfacet
facet normal 4.03805763505688e-031 -3.82856869892695e-016 -1.0
  outer loop
    vertex -0.291888333333294 27.0643930296272 -0.00724945211821404
    vertex 0.29188833333338 -28.1853224276834 -0.0072494521181763
    vertex -0.29188833333327 -28.1853224276834 -0.0072494521181763
  endloop
endfacet
facet normal 4.03805763505688e-031 -3.82856869892695e-016 -1.0
  outer loop
    vertex 0.29188833333338 -28.1853224276834 -0.0072494521181763
    vertex -0.291888333333294 27.0643930296272 -0.00724945211821404
    vertex 0.291888333333372 27.0643930296272 -0.00724945211821404
  endloop
endfacet
facet normal -0.866025403784434 -1.93164102330359e-016 0.500000000000008
  outer loop
    vertex -0.583776666666603 -28.1853224276834 0.498315971351763
    vertex -0.291888333333278 27.0643930296272 1.00388139482165
    vertex -0.583776666666611 27.0643930296272 0.498315971351725
  endloop
endfacet
facet normal -0.866025403784434 -1.93164102330359e-016 0.500000000000008
  outer loop
    vertex -0.291888333333278 27.0643930296272 1.00388139482165
    vertex -0.583776666666603 -28.1853224276834 0.498315971351763
    vertex -0.29188833333327 -28.1853224276834 1.00388139482169
  endloop
endfacet
facet normal -4.44089209850062e-016 1.0 -3.82856869892695e-016
  outer loop
    vertex 0.291888333333372 27.0643930296272 -0.00724945211821404
    vertex 0.291888333333372 27.0643930296272 1.00388139482165
    vertex 0.583776666666706 27.0643930296272 0.498315971351725
  endloop
endfacet
facet normal -4.44089209850062e-016 1.0 -3.82856869892695e-016
  outer loop
    vertex 0.291888333333372 27.0643930296272 1.00388139482165
    vertex 0.291888333333372 27.0643930296272 -0.00724945211821404
    vertex -0.291888333333294 27.0643930296272 -0.00724945211821404
  endloop
endfacet
facet normal -4.44089209850062e-016 1.0 -3.82856869892695e-016
  outer loop
    vertex 0.291888333333372 27.0643930296272 1.00388139482165
    vertex -0.291888333333294 27.0643930296272 -0.00724945211821404
    vertex -0.291888333333278 27.0643930296272 1.00388139482165
  endloop
endfacet
facet normal -4.44089209850062e-016 1.0 -3.82856869892695e-016
  outer loop
    vertex -0.291888333333278 27.0643930296272 1.00388139482165
    vertex -0.291888333333294 27.0643930296272 -0.00724945211821404
    vertex -0.583776666666611 27.0643930296272 0.498315971351725
  endloop
endfacet
facet normal 4.44089209850062e-016 -1.0 3.82856869892695e-016
  outer loop
    vertex 0.291888333333397 -28.1853224276834 1.00388139482169
    vertex 0.29188833333338 -28.1853224276834 -0.0072494521181763
    vertex 0.583776666666714 -28.1853224276834 0.498315971351763
  endloop
endfacet
facet normal 4.44089209850062e-016 -1.0 3.82856869892695e-016
  outer loop
    vertex 0.29188833333338 -28.1853224276834 -0.0072494521181763
    vertex 0.291888333333397 -28.1853224276834 1.00388139482169
    vertex -0.29188833333327 -28.1853224276834 1.00388139482169
  endloop
endfacet
facet normal 4.44089209850062e-016 -1.0 3.82856869892695e-016
  outer loop
    vertex 0.29188833333338 -28.1853224276834 -0.0072494521181763
    vertex -0.29188833333327 -28.1853224276834 1.00388139482169
    vertex -0.29188833333327 -28.1853224276834 -0.0072494521181763
  endloop
endfacet
facet normal 4.44089209850062e-016 -1.0 3.82856869892695e-016
  outer loop
    vertex -0.29188833333327 -28.1853224276834 -0.0072494521181763
    vertex -0.29188833333327 -28.1853224276834 1.00388139482169
    vertex -0.583776666666603 -28.1853224276834 0.498315971351763
  endloop
endfacet
endsolid Untitled-5e31b317
