solid Untitled-5e3b5689
facet normal -6.63900515265042e-019 0.995666889702385 0.0929916380669662
  outer loop
    vertex -3.41756999999992 3.41756999999993 25.7301910128041
    vertex 2.8199664825479e-015 4.4691299999999 11.8300499999997
    vertex -4.4691299999999 4.4691299999999 11.8300499999997
  endloop
endfacet
facet normal -6.63900515265042e-019 0.995666889702385 0.0929916380669662
  outer loop
    vertex 2.8199664825479e-015 4.4691299999999 11.8300499999997
    vertex -3.41756999999992 3.41756999999993 25.7301910128041
    vertex -1.05155999999997 3.41756999999993 25.7301910128041
  endloop
endfacet
facet normal -6.63900515266133e-019 -0.995666889702385 0.0929916380669675
  outer loop
    vertex -1.05155999999997 1.05155999999999 25.7301910128041
    vertex -4.4691299999999 0.0 11.8300499999997
    vertex 2.8199664825479e-015 0.0 11.8300499999997
  endloop
endfacet
facet normal -6.63900515266133e-019 -0.995666889702385 0.0929916380669675
  outer loop
    vertex -4.4691299999999 0.0 11.8300499999997
    vertex -1.05155999999997 1.05155999999999 25.7301910128041
    vertex -3.41756999999992 1.05155999999999 25.7301910128041
  endloop
endfacet
facet normal -0.995666889702385 -5.31120412212146e-018 0.0929916380669664
  outer loop
    vertex -3.41756999999992 1.05155999999999 25.7301910128041
    vertex -4.4691299999999 4.4691299999999 11.8300499999997
    vertex -4.4691299999999 0.0 11.8300499999997
  endloop
endfacet
facet normal -0.995666889702385 -5.31120412212146e-018 0.0929916380669664
  outer loop
    vertex -4.4691299999999 4.4691299999999 11.8300499999997
    vertex -3.41756999999992 1.05155999999999 25.7301910128041
    vertex -3.41756999999992 3.41756999999993 25.7301910128041
  endloop
endfacet
facet normal -1.0 0.0 0.0
  outer loop
    vertex -4.4691299999999 4.4691299999999 11.8300499999997
    vertex -4.4691299999999 0.0 11.0997999999998
    vertex -4.4691299999999 0.0 11.8300499999997
  endloop
endfacet
facet normal -1.0 0.0 0.0
  outer loop
    vertex -4.4691299999999 0.0 11.0997999999998
    vertex -4.4691299999999 4.4691299999999 11.8300499999997
    vertex -4.4691299999999 4.4691299999999 11.0997999999998
  endloop
endfacet
facet normal 0.0 -1.0 0.0
  outer loop
    vertex 2.8199664825479e-015 0.0 11.8300499999997
    vertex -4.4691299999999 0.0 11.0997999999998
    vertex 2.8199664825479e-015 0.0 11.0997999999998
  endloop
endfacet
facet normal 0.0 -1.0 0.0
  outer loop
    vertex -4.4691299999999 0.0 11.0997999999998
    vertex 2.8199664825479e-015 0.0 11.8300499999997
    vertex -4.4691299999999 0.0 11.8300499999997
  endloop
endfacet
facet normal 0.0 0.0 -1.0
  outer loop
    vertex 2.8199664825479e-015 4.4691299999999 0.0
    vertex -4.4691299999999 0.0 0.0
    vertex -4.4691299999999 4.4691299999999 0.0
  endloop
endfacet
facet normal 0.0 0.0 -1.0
  outer loop
    vertex -4.4691299999999 0.0 0.0
    vertex 2.8199664825479e-015 4.4691299999999 0.0
    vertex 2.8199664825479e-015 0.0 0.0
  endloop
endfacet
facet normal 1.0 0.0 0.0
  outer loop
    vertex 2.8199664825479e-015 4.4691299999999 11.0997999999998
    vertex 2.8199664825479e-015 0.0 11.8300499999997
    vertex 2.8199664825479e-015 0.0 11.0997999999998
  endloop
endfacet
facet normal 1.0 0.0 0.0
  outer loop
    vertex 2.8199664825479e-015 0.0 11.8300499999997
    vertex 2.8199664825479e-015 4.4691299999999 11.0997999999998
    vertex 2.8199664825479e-015 4.4691299999999 11.8300499999997
  endloop
endfacet
facet normal 0.0 1.0 0.0
  outer loop
    vertex -4.4691299999999 4.4691299999999 11.8300499999997
    vertex 2.8199664825479e-015 4.4691299999999 11.0997999999998
    vertex -4.4691299999999 4.4691299999999 11.0997999999998
  endloop
endfacet
facet normal 0.0 1.0 0.0
  outer loop
    vertex 2.8199664825479e-015 4.4691299999999 11.0997999999998
    vertex -4.4691299999999 4.4691299999999 11.8300499999997
    vertex 2.8199664825479e-015 4.4691299999999 11.8300499999997
  endloop
endfacet
facet normal 1.0 0.0 0.0
  outer loop
    vertex 0.657224999999989 5.12635499999989 11.0997999999998
    vertex 0.657224999999989 -0.657224999999986 11.8300499999997
    vertex 0.657224999999989 -0.657224999999986 11.0997999999998
  endloop
endfacet
facet normal 1.0 0.0 0.0
  outer loop
    vertex 0.657224999999989 -0.657224999999986 11.8300499999997
    vertex 0.657224999999989 5.12635499999989 11.0997999999998
    vertex 0.657224999999989 5.12635499999989 11.8300499999997
  endloop
endfacet
facet normal 0.0 0.0 1.0
  outer loop
    vertex 2.8199664825479e-015 0.0 11.8300499999997
    vertex -4.4691299999999 4.4691299999999 11.8300499999997
    vertex -4.4691299999999 0.0 11.8300499999997
  endloop
endfacet
facet normal 0.0 0.0 1.0
  outer loop
    vertex -4.4691299999999 4.4691299999999 11.8300499999997
    vertex 2.8199664825479e-015 0.0 11.8300499999997
    vertex 2.8199664825479e-015 4.4691299999999 11.8300499999997
  endloop
endfacet
facet normal 0.0 0.0 1.0
  outer loop
    vertex -5.12635499999989 -0.657224999999986 11.8300499999997
    vertex -4.4691299999999 0.0 11.8300499999997
    vertex -5.12635499999989 5.12635499999989 11.8300499999997
  endloop
endfacet
facet normal 0.0 0.0 1.0
  outer loop
    vertex -4.4691299999999 0.0 11.8300499999997
    vertex -5.12635499999989 -0.657224999999986 11.8300499999997
    vertex 0.657224999999989 -0.657224999999986 11.8300499999997
  endloop
endfacet
facet normal 0.0 0.0 1.0
  outer loop
    vertex -4.4691299999999 0.0 11.8300499999997
    vertex 0.657224999999989 -0.657224999999986 11.8300499999997
    vertex 2.8199664825479e-015 0.0 11.8300499999997
  endloop
endfacet
facet normal 0.0 0.0 1.0
  outer loop
    vertex 2.8199664825479e-015 0.0 11.8300499999997
    vertex 0.657224999999989 -0.657224999999986 11.8300499999997
    vertex 2.8199664825479e-015 4.4691299999999 11.8300499999997
  endloop
endfacet
facet normal 0.0 0.0 1.0
  outer loop
    vertex -5.12635499999989 5.12635499999989 11.8300499999997
    vertex -4.4691299999999 4.4691299999999 11.8300499999997
    vertex 0.657224999999989 5.12635499999989 11.8300499999997
  endloop
endfacet
facet normal 0.0 0.0 1.0
  outer loop
    vertex -4.4691299999999 4.4691299999999 11.8300499999997
    vertex -5.12635499999989 5.12635499999989 11.8300499999997
    vertex -4.4691299999999 0.0 11.8300499999997
  endloop
endfacet
facet normal 0.0 0.0 1.0
  outer loop
    vertex 0.657224999999989 5.12635499999989 11.8300499999997
    vertex -4.4691299999999 4.4691299999999 11.8300499999997
    vertex 2.8199664825479e-015 4.4691299999999 11.8300499999997
  endloop
endfacet
facet normal 0.0 0.0 1.0
  outer loop
    vertex 0.657224999999989 5.12635499999989 11.8300499999997
    vertex 2.8199664825479e-015 4.4691299999999 11.8300499999997
    vertex 0.657224999999989 -0.657224999999986 11.8300499999997
  endloop
endfacet
facet normal 0.0 1.0 0.0
  outer loop
    vertex -5.12635499999989 5.12635499999989 11.8300499999997
    vertex 0.657224999999989 5.12635499999989 11.0997999999998
    vertex -5.12635499999989 5.12635499999989 11.0997999999998
  endloop
endfacet
facet normal 0.0 1.0 0.0
  outer loop
    vertex 0.657224999999989 5.12635499999989 11.0997999999998
    vertex -5.12635499999989 5.12635499999989 11.8300499999997
    vertex 0.657224999999989 5.12635499999989 11.8300499999997
  endloop
endfacet
facet normal -1.0 0.0 0.0
  outer loop
    vertex -5.12635499999989 5.12635499999989 11.8300499999997
    vertex -5.12635499999989 -0.657224999999986 11.0997999999998
    vertex -5.12635499999989 -0.657224999999986 11.8300499999997
  endloop
endfacet
facet normal -1.0 0.0 0.0
  outer loop
    vertex -5.12635499999989 -0.657224999999986 11.0997999999998
    vertex -5.12635499999989 5.12635499999989 11.8300499999997
    vertex -5.12635499999989 5.12635499999989 11.0997999999998
  endloop
endfacet
facet normal 0.0 -1.0 0.0
  outer loop
    vertex 0.657224999999989 -0.657224999999986 11.8300499999997
    vertex -5.12635499999989 -0.657224999999986 11.0997999999998
    vertex 0.657224999999989 -0.657224999999986 11.0997999999998
  endloop
endfacet
facet normal 0.0 -1.0 0.0
  outer loop
    vertex -5.12635499999989 -0.657224999999986 11.0997999999998
    vertex 0.657224999999989 -0.657224999999986 11.8300499999997
    vertex -5.12635499999989 -0.657224999999986 11.8300499999997
  endloop
endfacet
facet normal 0.0 0.0 -1.0
  outer loop
    vertex -5.12635499999989 5.12635499999989 11.0997999999998
    vertex -4.4691299999999 4.4691299999999 11.0997999999998
    vertex -5.12635499999989 -0.657224999999986 11.0997999999998
  endloop
endfacet
facet normal 0.0 0.0 -1.0
  outer loop
    vertex -4.4691299999999 4.4691299999999 11.0997999999998
    vertex -5.12635499999989 5.12635499999989 11.0997999999998
    vertex 0.657224999999989 5.12635499999989 11.0997999999998
  endloop
endfacet
facet normal 0.0 0.0 -1.0
  outer loop
    vertex -4.4691299999999 4.4691299999999 11.0997999999998
    vertex 0.657224999999989 5.12635499999989 11.0997999999998
    vertex 2.8199664825479e-015 4.4691299999999 11.0997999999998
  endloop
endfacet
facet normal 0.0 0.0 -1.0
  outer loop
    vertex 2.8199664825479e-015 4.4691299999999 11.0997999999998
    vertex 0.657224999999989 5.12635499999989 11.0997999999998
    vertex 2.8199664825479e-015 0.0 11.0997999999998
  endloop
endfacet
facet normal 0.0 0.0 -1.0
  outer loop
    vertex -5.12635499999989 -0.657224999999986 11.0997999999998
    vertex -4.4691299999999 0.0 11.0997999999998
    vertex 0.657224999999989 -0.657224999999986 11.0997999999998
  endloop
endfacet
facet normal 0.0 0.0 -1.0
  outer loop
    vertex -4.4691299999999 0.0 11.0997999999998
    vertex -5.12635499999989 -0.657224999999986 11.0997999999998
    vertex -4.4691299999999 4.4691299999999 11.0997999999998
  endloop
endfacet
facet normal 0.0 0.0 -1.0
  outer loop
    vertex 0.657224999999989 -0.657224999999986 11.0997999999998
    vertex -4.4691299999999 0.0 11.0997999999998
    vertex 2.8199664825479e-015 0.0 11.0997999999998
  endloop
endfacet
facet normal 0.0 0.0 -1.0
  outer loop
    vertex 0.657224999999989 -0.657224999999986 11.0997999999998
    vertex 2.8199664825479e-015 0.0 11.0997999999998
    vertex 0.657224999999989 5.12635499999989 11.0997999999998
  endloop
endfacet
facet normal 0.0 1.0 0.0
  outer loop
    vertex -4.4691299999999 4.4691299999999 11.0997999999998
    vertex 2.8199664825479e-015 4.4691299999999 0.0
    vertex -4.4691299999999 4.4691299999999 0.0
  endloop
endfacet
facet normal 0.0 1.0 0.0
  outer loop
    vertex 2.8199664825479e-015 4.4691299999999 0.0
    vertex -4.4691299999999 4.4691299999999 11.0997999999998
    vertex 2.8199664825479e-015 4.4691299999999 11.0997999999998
  endloop
endfacet
facet normal 0.995666889702385 -5.31120412212035e-018 0.0929916380669662
  outer loop
    vertex 2.8199664825479e-015 4.4691299999999 11.8300499999997
    vertex -1.05155999999997 1.05155999999999 25.7301910128041
    vertex 2.8199664825479e-015 0.0 11.8300499999997
  endloop
endfacet
facet normal 0.995666889702385 -5.31120412212035e-018 0.0929916380669662
  outer loop
    vertex -1.05155999999997 1.05155999999999 25.7301910128041
    vertex 2.8199664825479e-015 4.4691299999999 11.8300499999997
    vertex -1.05155999999997 3.41756999999993 25.7301910128041
  endloop
endfacet
facet normal 1.0 0.0 0.0
  outer loop
    vertex 2.8199664825479e-015 4.4691299999999 0.0
    vertex 2.8199664825479e-015 0.0 11.0997999999998
    vertex 2.8199664825479e-015 0.0 0.0
  endloop
endfacet
facet normal 1.0 0.0 0.0
  outer loop
    vertex 2.8199664825479e-015 0.0 11.0997999999998
    vertex 2.8199664825479e-015 4.4691299999999 0.0
    vertex 2.8199664825479e-015 4.4691299999999 11.0997999999998
  endloop
endfacet
facet normal 0.0 -1.0 0.0
  outer loop
    vertex 2.8199664825479e-015 0.0 11.0997999999998
    vertex -4.4691299999999 0.0 0.0
    vertex 2.8199664825479e-015 0.0 0.0
  endloop
endfacet
facet normal 0.0 -1.0 0.0
  outer loop
    vertex -4.4691299999999 0.0 0.0
    vertex 2.8199664825479e-015 0.0 11.0997999999998
    vertex -4.4691299999999 0.0 11.0997999999998
  endloop
endfacet
facet normal -1.0 0.0 0.0
  outer loop
    vertex -4.4691299999999 4.4691299999999 11.0997999999998
    vertex -4.4691299999999 0.0 0.0
    vertex -4.4691299999999 0.0 11.0997999999998
  endloop
endfacet
facet normal -1.0 0.0 0.0
  outer loop
    vertex -4.4691299999999 0.0 0.0
    vertex -4.4691299999999 4.4691299999999 11.0997999999998
    vertex -4.4691299999999 4.4691299999999 0.0
  endloop
endfacet
facet normal 0.0 0.0 1.0
  outer loop
    vertex -1.05155999999997 1.05155999999999 26.606491012804
    vertex -3.41756999999992 3.41756999999993 26.606491012804
    vertex -3.41756999999992 1.05155999999999 26.606491012804
  endloop
endfacet
facet normal 0.0 0.0 1.0
  outer loop
    vertex -3.41756999999992 3.41756999999993 26.606491012804
    vertex -1.05155999999997 1.05155999999999 26.606491012804
    vertex -1.05155999999997 3.41756999999993 26.606491012804
  endloop
endfacet
facet normal 0.0 1.0 0.0
  outer loop
    vertex -3.41756999999992 3.41756999999993 26.606491012804
    vertex -1.05155999999997 3.41756999999993 25.7301910128041
    vertex -3.41756999999992 3.41756999999993 25.7301910128041
  endloop
endfacet
facet normal 0.0 1.0 0.0
  outer loop
    vertex -1.05155999999997 3.41756999999993 25.7301910128041
    vertex -3.41756999999992 3.41756999999993 26.606491012804
    vertex -1.05155999999997 3.41756999999993 26.606491012804
  endloop
endfacet
facet normal -1.0 0.0 0.0
  outer loop
    vertex -3.41756999999992 3.41756999999993 26.606491012804
    vertex -3.41756999999992 1.05155999999999 25.7301910128041
    vertex -3.41756999999992 1.05155999999999 26.606491012804
  endloop
endfacet
facet normal -1.0 0.0 0.0
  outer loop
    vertex -3.41756999999992 1.05155999999999 25.7301910128041
    vertex -3.41756999999992 3.41756999999993 26.606491012804
    vertex -3.41756999999992 3.41756999999993 25.7301910128041
  endloop
endfacet
facet normal 0.0 -1.0 0.0
  outer loop
    vertex -1.05155999999997 1.05155999999999 26.606491012804
    vertex -3.41756999999992 1.05155999999999 25.7301910128041
    vertex -1.05155999999997 1.05155999999999 25.7301910128041
  endloop
endfacet
facet normal 0.0 -1.0 0.0
  outer loop
    vertex -3.41756999999992 1.05155999999999 25.7301910128041
    vertex -1.05155999999997 1.05155999999999 26.606491012804
    vertex -3.41756999999992 1.05155999999999 26.606491012804
  endloop
endfacet
facet normal 1.0 0.0 0.0
  outer loop
    vertex -1.05155999999997 3.41756999999993 25.7301910128041
    vertex -1.05155999999997 1.05155999999999 26.606491012804
    vertex -1.05155999999997 1.05155999999999 25.7301910128041
  endloop
endfacet
facet normal 1.0 0.0 0.0
  outer loop
    vertex -1.05155999999997 1.05155999999999 26.606491012804
    vertex -1.05155999999997 3.41756999999993 25.7301910128041
    vertex -1.05155999999997 3.41756999999993 26.606491012804
  endloop
endfacet
facet normal -6.63900515265042e-019 0.995666889702385 0.0929916380669662
  outer loop
    vertex 6.05904300000008 3.41756999999993 25.7301910128041
    vertex 9.476613 4.4691299999999 11.8300499999997
    vertex 5.0074830000001 4.4691299999999 11.8300499999997
  endloop
endfacet
facet normal -6.63900515265042e-019 0.995666889702385 0.0929916380669662
  outer loop
    vertex 9.476613 4.4691299999999 11.8300499999997
    vertex 6.05904300000008 3.41756999999993 25.7301910128041
    vertex 8.42505300000003 3.41756999999993 25.7301910128041
  endloop
endfacet
facet normal -6.63900515266133e-019 -0.995666889702385 0.0929916380669675
  outer loop
    vertex 8.42505300000003 1.05155999999999 25.7301910128041
    vertex 5.0074830000001 0.0 11.8300499999997
    vertex 9.476613 0.0 11.8300499999997
  endloop
endfacet
facet normal -6.63900515266133e-019 -0.995666889702385 0.0929916380669675
  outer loop
    vertex 5.0074830000001 0.0 11.8300499999997
    vertex 8.42505300000003 1.05155999999999 25.7301910128041
    vertex 6.05904300000008 1.05155999999999 25.7301910128041
  endloop
endfacet
facet normal -0.995666889702385 -5.31120412212146e-018 0.0929916380669664
  outer loop
    vertex 6.05904300000008 1.05155999999999 25.7301910128041
    vertex 5.0074830000001 4.4691299999999 11.8300499999997
    vertex 5.0074830000001 0.0 11.8300499999997
  endloop
endfacet
facet normal -0.995666889702385 -5.31120412212146e-018 0.0929916380669664
  outer loop
    vertex 5.0074830000001 4.4691299999999 11.8300499999997
    vertex 6.05904300000008 1.05155999999999 25.7301910128041
    vertex 6.05904300000008 3.41756999999993 25.7301910128041
  endloop
endfacet
facet normal -1.0 0.0 0.0
  outer loop
    vertex 5.0074830000001 4.4691299999999 11.8300499999997
    vertex 5.0074830000001 0.0 11.0997999999998
    vertex 5.0074830000001 0.0 11.8300499999997
  endloop
endfacet
facet normal -1.0 0.0 0.0
  outer loop
    vertex 5.0074830000001 0.0 11.0997999999998
    vertex 5.0074830000001 4.4691299999999 11.8300499999997
    vertex 5.0074830000001 4.4691299999999 11.0997999999998
  endloop
endfacet
facet normal 0.0 -1.0 0.0
  outer loop
    vertex 9.476613 0.0 11.8300499999997
    vertex 5.0074830000001 0.0 11.0997999999998
    vertex 9.476613 0.0 11.0997999999998
  endloop
endfacet
facet normal 0.0 -1.0 0.0
  outer loop
    vertex 5.0074830000001 0.0 11.0997999999998
    vertex 9.476613 0.0 11.8300499999997
    vertex 5.0074830000001 0.0 11.8300499999997
  endloop
endfacet
facet normal 0.0 0.0 -1.0
  outer loop
    vertex 9.476613 4.4691299999999 0.0
    vertex 5.0074830000001 0.0 0.0
    vertex 5.0074830000001 4.4691299999999 0.0
  endloop
endfacet
facet normal 0.0 0.0 -1.0
  outer loop
    vertex 5.0074830000001 0.0 0.0
    vertex 9.476613 4.4691299999999 0.0
    vertex 9.476613 0.0 0.0
  endloop
endfacet
facet normal 1.0 0.0 0.0
  outer loop
    vertex 9.476613 4.4691299999999 11.0997999999998
    vertex 9.476613 0.0 11.8300499999997
    vertex 9.476613 0.0 11.0997999999998
  endloop
endfacet
facet normal 1.0 0.0 0.0
  outer loop
    vertex 9.476613 0.0 11.8300499999997
    vertex 9.476613 4.4691299999999 11.0997999999998
    vertex 9.476613 4.4691299999999 11.8300499999997
  endloop
endfacet
facet normal 0.0 1.0 0.0
  outer loop
    vertex 5.0074830000001 4.4691299999999 11.8300499999997
    vertex 9.476613 4.4691299999999 11.0997999999998
    vertex 5.0074830000001 4.4691299999999 11.0997999999998
  endloop
endfacet
facet normal 0.0 1.0 0.0
  outer loop
    vertex 9.476613 4.4691299999999 11.0997999999998
    vertex 5.0074830000001 4.4691299999999 11.8300499999997
    vertex 9.476613 4.4691299999999 11.8300499999997
  endloop
endfacet
facet normal 1.0 0.0 0.0
  outer loop
    vertex 10.133838 5.12635499999989 11.0997999999998
    vertex 10.133838 -0.657224999999986 11.8300499999997
    vertex 10.133838 -0.657224999999986 11.0997999999998
  endloop
endfacet
facet normal 1.0 0.0 0.0
  outer loop
    vertex 10.133838 -0.657224999999986 11.8300499999997
    vertex 10.133838 5.12635499999989 11.0997999999998
    vertex 10.133838 5.12635499999989 11.8300499999997
  endloop
endfacet
facet normal 0.0 0.0 1.0
  outer loop
    vertex 9.476613 0.0 11.8300499999997
    vertex 5.0074830000001 4.4691299999999 11.8300499999997
    vertex 5.0074830000001 0.0 11.8300499999997
  endloop
endfacet
facet normal 0.0 0.0 1.0
  outer loop
    vertex 5.0074830000001 4.4691299999999 11.8300499999997
    vertex 9.476613 0.0 11.8300499999997
    vertex 9.476613 4.4691299999999 11.8300499999997
  endloop
endfacet
facet normal 0.0 0.0 1.0
  outer loop
    vertex 4.35025800000011 -0.657224999999986 11.8300499999997
    vertex 5.0074830000001 0.0 11.8300499999997
    vertex 4.35025800000011 5.12635499999989 11.8300499999997
  endloop
endfacet
facet normal 0.0 0.0 1.0
  outer loop
    vertex 5.0074830000001 0.0 11.8300499999997
    vertex 4.35025800000011 -0.657224999999986 11.8300499999997
    vertex 10.133838 -0.657224999999986 11.8300499999997
  endloop
endfacet
facet normal 0.0 0.0 1.0
  outer loop
    vertex 5.0074830000001 0.0 11.8300499999997
    vertex 10.133838 -0.657224999999986 11.8300499999997
    vertex 9.476613 0.0 11.8300499999997
  endloop
endfacet
facet normal 0.0 0.0 1.0
  outer loop
    vertex 9.476613 0.0 11.8300499999997
    vertex 10.133838 -0.657224999999986 11.8300499999997
    vertex 9.476613 4.4691299999999 11.8300499999997
  endloop
endfacet
facet normal 0.0 0.0 1.0
  outer loop
    vertex 4.35025800000011 5.12635499999989 11.8300499999997
    vertex 5.0074830000001 4.4691299999999 11.8300499999997
    vertex 10.133838 5.12635499999989 11.8300499999997
  endloop
endfacet
facet normal 0.0 0.0 1.0
  outer loop
    vertex 5.0074830000001 4.4691299999999 11.8300499999997
    vertex 4.35025800000011 5.12635499999989 11.8300499999997
    vertex 5.0074830000001 0.0 11.8300499999997
  endloop
endfacet
facet normal 0.0 0.0 1.0
  outer loop
    vertex 10.133838 5.12635499999989 11.8300499999997
    vertex 5.0074830000001 4.4691299999999 11.8300499999997
    vertex 9.476613 4.4691299999999 11.8300499999997
  endloop
endfacet
facet normal 0.0 0.0 1.0
  outer loop
    vertex 10.133838 5.12635499999989 11.8300499999997
    vertex 9.476613 4.4691299999999 11.8300499999997
    vertex 10.133838 -0.657224999999986 11.8300499999997
  endloop
endfacet
facet normal 0.0 1.0 0.0
  outer loop
    vertex 4.35025800000011 5.12635499999989 11.8300499999997
    vertex 10.133838 5.12635499999989 11.0997999999998
    vertex 4.35025800000011 5.12635499999989 11.0997999999998
  endloop
endfacet
facet normal 0.0 1.0 0.0
  outer loop
    vertex 10.133838 5.12635499999989 11.0997999999998
    vertex 4.35025800000011 5.12635499999989 11.8300499999997
    vertex 10.133838 5.12635499999989 11.8300499999997
  endloop
endfacet
facet normal -1.0 0.0 0.0
  outer loop
    vertex 4.35025800000011 5.12635499999989 11.8300499999997
    vertex 4.35025800000011 -0.657224999999986 11.0997999999998
    vertex 4.35025800000011 -0.657224999999986 11.8300499999997
  endloop
endfacet
facet normal -1.0 0.0 0.0
  outer loop
    vertex 4.35025800000011 -0.657224999999986 11.0997999999998
    vertex 4.35025800000011 5.12635499999989 11.8300499999997
    vertex 4.35025800000011 5.12635499999989 11.0997999999998
  endloop
endfacet
facet normal 0.0 -1.0 0.0
  outer loop
    vertex 10.133838 -0.657224999999986 11.8300499999997
    vertex 4.35025800000011 -0.657224999999986 11.0997999999998
    vertex 10.133838 -0.657224999999986 11.0997999999998
  endloop
endfacet
facet normal 0.0 -1.0 0.0
  outer loop
    vertex 4.35025800000011 -0.657224999999986 11.0997999999998
    vertex 10.133838 -0.657224999999986 11.8300499999997
    vertex 4.35025800000011 -0.657224999999986 11.8300499999997
  endloop
endfacet
facet normal 0.0 0.0 -1.0
  outer loop
    vertex 4.35025800000011 5.12635499999989 11.0997999999998
    vertex 5.0074830000001 4.4691299999999 11.0997999999998
    vertex 4.35025800000011 -0.657224999999986 11.0997999999998
  endloop
endfacet
facet normal 0.0 0.0 -1.0
  outer loop
    vertex 5.0074830000001 4.4691299999999 11.0997999999998
    vertex 4.35025800000011 5.12635499999989 11.0997999999998
    vertex 10.133838 5.12635499999989 11.0997999999998
  endloop
endfacet
facet normal 0.0 0.0 -1.0
  outer loop
    vertex 5.0074830000001 4.4691299999999 11.0997999999998
    vertex 10.133838 5.12635499999989 11.0997999999998
    vertex 9.476613 4.4691299999999 11.0997999999998
  endloop
endfacet
facet normal 0.0 0.0 -1.0
  outer loop
    vertex 9.476613 4.4691299999999 11.0997999999998
    vertex 10.133838 5.12635499999989 11.0997999999998
    vertex 9.476613 0.0 11.0997999999998
  endloop
endfacet
facet normal 0.0 0.0 -1.0
  outer loop
    vertex 4.35025800000011 -0.657224999999986 11.0997999999998
    vertex 5.0074830000001 0.0 11.0997999999998
    vertex 10.133838 -0.657224999999986 11.0997999999998
  endloop
endfacet
facet normal 0.0 0.0 -1.0
  outer loop
    vertex 5.0074830000001 0.0 11.0997999999998
    vertex 4.35025800000011 -0.657224999999986 11.0997999999998
    vertex 5.0074830000001 4.4691299999999 11.0997999999998
  endloop
endfacet
facet normal 0.0 0.0 -1.0
  outer loop
    vertex 10.133838 -0.657224999999986 11.0997999999998
    vertex 5.0074830000001 0.0 11.0997999999998
    vertex 9.476613 0.0 11.0997999999998
  endloop
endfacet
facet normal 0.0 0.0 -1.0
  outer loop
    vertex 10.133838 -0.657224999999986 11.0997999999998
    vertex 9.476613 0.0 11.0997999999998
    vertex 10.133838 5.12635499999989 11.0997999999998
  endloop
endfacet
facet normal 0.0 1.0 0.0
  outer loop
    vertex 5.0074830000001 4.4691299999999 11.0997999999998
    vertex 9.476613 4.4691299999999 0.0
    vertex 5.0074830000001 4.4691299999999 0.0
  endloop
endfacet
facet normal 0.0 1.0 0.0
  outer loop
    vertex 9.476613 4.4691299999999 0.0
    vertex 5.0074830000001 4.4691299999999 11.0997999999998
    vertex 9.476613 4.4691299999999 11.0997999999998
  endloop
endfacet
facet normal 0.995666889702385 -5.31120412212035e-018 0.0929916380669662
  outer loop
    vertex 9.476613 4.4691299999999 11.8300499999997
    vertex 8.42505300000003 1.05155999999999 25.7301910128041
    vertex 9.476613 0.0 11.8300499999997
  endloop
endfacet
facet normal 0.995666889702385 -5.31120412212035e-018 0.0929916380669662
  outer loop
    vertex 8.42505300000003 1.05155999999999 25.7301910128041
    vertex 9.476613 4.4691299999999 11.8300499999997
    vertex 8.42505300000003 3.41756999999993 25.7301910128041
  endloop
endfacet
facet normal 1.0 0.0 0.0
  outer loop
    vertex 9.476613 4.4691299999999 0.0
    vertex 9.476613 0.0 11.0997999999998
    vertex 9.476613 0.0 0.0
  endloop
endfacet
facet normal 1.0 0.0 0.0
  outer loop
    vertex 9.476613 0.0 11.0997999999998
    vertex 9.476613 4.4691299999999 0.0
    vertex 9.476613 4.4691299999999 11.0997999999998
  endloop
endfacet
facet normal 0.0 -1.0 0.0
  outer loop
    vertex 9.476613 0.0 11.0997999999998
    vertex 5.0074830000001 0.0 0.0
    vertex 9.476613 0.0 0.0
  endloop
endfacet
facet normal 0.0 -1.0 0.0
  outer loop
    vertex 5.0074830000001 0.0 0.0
    vertex 9.476613 0.0 11.0997999999998
    vertex 5.0074830000001 0.0 11.0997999999998
  endloop
endfacet
facet normal -1.0 0.0 0.0
  outer loop
    vertex 5.0074830000001 4.4691299999999 11.0997999999998
    vertex 5.0074830000001 0.0 0.0
    vertex 5.0074830000001 0.0 11.0997999999998
  endloop
endfacet
facet normal -1.0 0.0 0.0
  outer loop
    vertex 5.0074830000001 0.0 0.0
    vertex 5.0074830000001 4.4691299999999 11.0997999999998
    vertex 5.0074830000001 4.4691299999999 0.0
  endloop
endfacet
facet normal 0.0 0.0 1.0
  outer loop
    vertex 8.42505300000003 1.05155999999999 26.606491012804
    vertex 6.05904300000008 3.41756999999993 26.606491012804
    vertex 6.05904300000008 1.05155999999999 26.606491012804
  endloop
endfacet
facet normal 0.0 0.0 1.0
  outer loop
    vertex 6.05904300000008 3.41756999999993 26.606491012804
    vertex 8.42505300000003 1.05155999999999 26.606491012804
    vertex 8.42505300000003 3.41756999999993 26.606491012804
  endloop
endfacet
facet normal 0.0 1.0 0.0
  outer loop
    vertex 6.05904300000008 3.41756999999993 26.606491012804
    vertex 8.42505300000003 3.41756999999993 25.7301910128041
    vertex 6.05904300000008 3.41756999999993 25.7301910128041
  endloop
endfacet
facet normal 0.0 1.0 0.0
  outer loop
    vertex 8.42505300000003 3.41756999999993 25.7301910128041
    vertex 6.05904300000008 3.41756999999993 26.606491012804
    vertex 8.42505300000003 3.41756999999993 26.606491012804
  endloop
endfacet
facet normal -1.0 0.0 0.0
  outer loop
    vertex 6.05904300000008 3.41756999999993 26.606491012804
    vertex 6.05904300000008 1.05155999999999 25.7301910128041
    vertex 6.05904300000008 1.05155999999999 26.606491012804
  endloop
endfacet
facet normal -1.0 0.0 0.0
  outer loop
    vertex 6.05904300000008 1.05155999999999 25.7301910128041
    vertex 6.05904300000008 3.41756999999993 26.606491012804
    vertex 6.05904300000008 3.41756999999993 25.7301910128041
  endloop
endfacet
facet normal 0.0 -1.0 0.0
  outer loop
    vertex 8.42505300000003 1.05155999999999 26.606491012804
    vertex 6.05904300000008 1.05155999999999 25.7301910128041
    vertex 8.42505300000003 1.05155999999999 25.7301910128041
  endloop
endfacet
facet normal 0.0 -1.0 0.0
  outer loop
    vertex 6.05904300000008 1.05155999999999 25.7301910128041
    vertex 8.42505300000003 1.05155999999999 26.606491012804
    vertex 6.05904300000008 1.05155999999999 26.606491012804
  endloop
endfacet
facet normal 1.0 0.0 0.0
  outer loop
    vertex 8.42505300000003 3.41756999999993 25.7301910128041
    vertex 8.42505300000003 1.05155999999999 26.606491012804
    vertex 8.42505300000003 1.05155999999999 25.7301910128041
  endloop
endfacet
facet normal 1.0 0.0 0.0
  outer loop
    vertex 8.42505300000003 1.05155999999999 26.606491012804
    vertex 8.42505300000003 3.41756999999993 25.7301910128041
    vertex 8.42505300000003 3.41756999999993 26.606491012804
  endloop
endfacet
endsolid Untitled-5e3b5689
