solid Untitled-5e3b565b
facet normal 0.0 -1.0 0.0
  outer loop
    vertex 29.2099999999994 0.0 0.5842
    vertex -29.2099999999994 0.0 0.0
    vertex 29.2099999999994 0.0 0.0
  endloop
endfacet
facet normal 0.0 -1.0 0.0
  outer loop
    vertex -29.2099999999994 0.0 0.0
    vertex 29.2099999999994 0.0 0.5842
    vertex 24.3173249999994 0.0 0.584199999999988
  endloop
endfacet
facet normal 0.0 -1.0 0.0
  outer loop
    vertex 24.3173249999994 0.0 1.16839999999996
    vertex -24.3164121874995 0.0 0.584199999999988
    vertex 24.3173249999994 0.0 0.584199999999988
  endloop
endfacet
facet normal 0.0 -1.0 0.0
  outer loop
    vertex -24.3164121874995 0.0 0.584199999999988
    vertex 24.3173249999994 0.0 1.16839999999996
    vertex -24.3164121874995 0.0 1.16839999999996
  endloop
endfacet
facet normal 0.0 -1.0 0.0
  outer loop
    vertex -29.2099999999994 0.0 0.0
    vertex -24.3164121874995 0.0 0.584199999999988
    vertex -29.2099999999994 0.0 0.5842
  endloop
endfacet
facet normal 0.0 -1.0 0.0
  outer loop
    vertex -24.3164121874995 0.0 0.584199999999988
    vertex -29.2099999999994 0.0 0.0
    vertex 24.3173249999994 0.0 0.584199999999988
  endloop
endfacet
facet normal 0.0 1.0 0.0
  outer loop
    vertex -24.3164121874995 1.46049999999997 1.16839999999996
    vertex 24.3173249999994 1.46049999999997 0.584199999999988
    vertex -24.3164121874995 1.46049999999997 0.584199999999988
  endloop
endfacet
facet normal 0.0 1.0 0.0
  outer loop
    vertex 24.3173249999994 1.46049999999997 0.584199999999988
    vertex -24.3164121874995 1.46049999999997 1.16839999999996
    vertex 24.3173249999994 1.46049999999997 1.16839999999996
  endloop
endfacet
facet normal 2.8473102126255e-017 1.13452004809202e-015 1.0
  outer loop
    vertex 29.2099999999994 0.0 0.5842
    vertex 24.3173249999994 1.46049999999997 0.584199999999988
    vertex 24.3173249999994 0.0 0.584199999999988
  endloop
endfacet
facet normal 2.8473102126255e-017 1.13452004809202e-015 1.0
  outer loop
    vertex 24.3173249999994 1.46049999999997 0.584199999999988
    vertex 29.2099999999994 0.0 0.5842
    vertex 24.3173249999994 2.04469999999995 0.584199999999992
  endloop
endfacet
facet normal 2.8473102126255e-017 1.13452004809202e-015 1.0
  outer loop
    vertex 24.3173249999994 2.04469999999995 0.584199999999992
    vertex 29.2099999999994 0.0 0.5842
    vertex 24.3173249999994 3.21309999999993 0.584199999999985
  endloop
endfacet
facet normal 2.8473102126255e-017 1.13452004809202e-015 1.0
  outer loop
    vertex 24.3173249999994 3.21309999999993 0.584199999999985
    vertex 29.2099999999994 0.0 0.5842
    vertex 24.3173249999994 3.79729999999992 0.584199999999988
  endloop
endfacet
facet normal 2.8473102126255e-017 1.13452004809202e-015 1.0
  outer loop
    vertex 24.3173249999994 3.79729999999992 0.584199999999988
    vertex 29.2099999999994 0.0 0.5842
    vertex 24.3173249999994 4.96569999999989 0.584199999999988
  endloop
endfacet
facet normal 2.8473102126255e-017 1.13452004809202e-015 1.0
  outer loop
    vertex -29.2099999999994 5.54989999999988 0.584199999999988
    vertex -24.3164121874995 4.96569999999989 0.584199999999988
    vertex 29.2099999999994 5.54989999999988 0.584199999999988
  endloop
endfacet
facet normal 2.8473102126255e-017 1.13452004809202e-015 1.0
  outer loop
    vertex -24.3164121874995 4.96569999999989 0.584199999999988
    vertex -29.2099999999994 5.54989999999988 0.584199999999988
    vertex -24.3164121874995 3.79729999999992 0.584199999999988
  endloop
endfacet
facet normal 2.8473102126255e-017 1.13452004809202e-015 1.0
  outer loop
    vertex -24.3164121874995 3.79729999999992 0.584199999999988
    vertex -29.2099999999994 5.54989999999988 0.584199999999988
    vertex -24.3164121874995 2.04469999999996 0.584199999999988
  endloop
endfacet
facet normal 2.8473102126255e-017 1.13452004809202e-015 1.0
  outer loop
    vertex 29.2099999999994 5.54989999999988 0.584199999999988
    vertex -24.3164121874995 4.96569999999989 0.584199999999988
    vertex 24.3173249999994 4.96569999999989 0.584199999999988
  endloop
endfacet
facet normal 2.8473102126255e-017 1.13452004809202e-015 1.0
  outer loop
    vertex 29.2099999999994 5.54989999999988 0.584199999999988
    vertex 24.3173249999994 4.96569999999989 0.584199999999988
    vertex 29.2099999999994 0.0 0.5842
  endloop
endfacet
facet normal 2.8473102126255e-017 1.13452004809202e-015 1.0
  outer loop
    vertex -24.3164121874995 3.21309999999993 0.584199999999988
    vertex -24.3164121874995 3.79729999999992 0.584199999999988
    vertex -24.3164121874995 2.04469999999996 0.584199999999988
  endloop
endfacet
facet normal 2.8473102126255e-017 1.13452004809202e-015 1.0
  outer loop
    vertex -24.3164121874995 3.79729999999992 0.584199999999988
    vertex -24.3164121874995 3.21309999999993 0.584199999999988
    vertex 24.3173249999994 3.79729999999992 0.584199999999988
  endloop
endfacet
facet normal 2.8473102126255e-017 1.13452004809202e-015 1.0
  outer loop
    vertex 24.3173249999994 3.79729999999992 0.584199999999988
    vertex -24.3164121874995 3.21309999999993 0.584199999999988
    vertex 24.3173249999994 3.21309999999993 0.584199999999985
  endloop
endfacet
facet normal 2.8473102126255e-017 1.13452004809202e-015 1.0
  outer loop
    vertex -24.3164121874995 0.0 0.584199999999988
    vertex -29.2099999999994 5.54989999999988 0.584199999999988
    vertex -29.2099999999994 0.0 0.5842
  endloop
endfacet
facet normal 2.8473102126255e-017 1.13452004809202e-015 1.0
  outer loop
    vertex -29.2099999999994 5.54989999999988 0.584199999999988
    vertex -24.3164121874995 0.0 0.584199999999988
    vertex -24.3164121874995 2.04469999999996 0.584199999999988
  endloop
endfacet
facet normal 2.8473102126255e-017 1.13452004809202e-015 1.0
  outer loop
    vertex -24.3164121874995 2.04469999999996 0.584199999999988
    vertex -24.3164121874995 0.0 0.584199999999988
    vertex -24.3164121874995 1.46049999999997 0.584199999999988
  endloop
endfacet
facet normal 2.8473102126255e-017 1.13452004809202e-015 1.0
  outer loop
    vertex -24.3164121874995 2.04469999999996 0.584199999999988
    vertex -24.3164121874995 1.46049999999997 0.584199999999988
    vertex 24.3173249999994 2.04469999999995 0.584199999999992
  endloop
endfacet
facet normal 2.8473102126255e-017 1.13452004809202e-015 1.0
  outer loop
    vertex 24.3173249999994 2.04469999999995 0.584199999999992
    vertex -24.3164121874995 1.46049999999997 0.584199999999988
    vertex 24.3173249999994 1.46049999999997 0.584199999999988
  endloop
endfacet
facet normal -2.13380201808625e-017 -1.0 1.77635683940029e-015
  outer loop
    vertex 24.3173249999994 2.04469999999995 0.584199999999992
    vertex -24.3164121874995 2.04469999999996 1.16839999999996
    vertex -24.3164121874995 2.04469999999996 0.584199999999988
  endloop
endfacet
facet normal -2.13380201808625e-017 -1.0 1.77635683940029e-015
  outer loop
    vertex -24.3164121874995 2.04469999999996 1.16839999999996
    vertex 24.3173249999994 2.04469999999995 0.584199999999992
    vertex 24.3173249999994 2.04469999999996 1.16839999999997
  endloop
endfacet
facet normal 2.13380201808623e-017 1.0 -1.77635683940029e-015
  outer loop
    vertex -24.3164121874995 3.21309999999993 0.584199999999988
    vertex 24.3173249999994 3.21309999999993 1.16839999999996
    vertex 24.3173249999994 3.21309999999993 0.584199999999985
  endloop
endfacet
facet normal 2.13380201808623e-017 1.0 -1.77635683940029e-015
  outer loop
    vertex 24.3173249999994 3.21309999999993 1.16839999999996
    vertex -24.3164121874995 3.21309999999993 0.584199999999988
    vertex -24.3164121874995 3.21309999999993 1.16839999999996
  endloop
endfacet
facet normal 0.0 -1.0 0.0
  outer loop
    vertex 24.3173249999994 3.79729999999992 1.16839999999996
    vertex -24.3164121874995 3.79729999999992 0.584199999999988
    vertex 24.3173249999994 3.79729999999992 0.584199999999988
  endloop
endfacet
facet normal 0.0 -1.0 0.0
  outer loop
    vertex -24.3164121874995 3.79729999999992 0.584199999999988
    vertex 24.3173249999994 3.79729999999992 1.16839999999996
    vertex -24.3164121874995 3.79729999999992 1.16839999999996
  endloop
endfacet
facet normal 0.0 1.0 0.0
  outer loop
    vertex -24.3164121874995 4.96569999999989 1.16839999999996
    vertex 24.3173249999994 4.96569999999989 0.584199999999988
    vertex -24.3164121874995 4.96569999999989 0.584199999999988
  endloop
endfacet
facet normal 0.0 1.0 0.0
  outer loop
    vertex 24.3173249999994 4.96569999999989 0.584199999999988
    vertex -24.3164121874995 4.96569999999989 1.16839999999996
    vertex 24.3173249999994 4.96569999999989 1.16839999999996
  endloop
endfacet
facet normal 0.0 -1.0 0.0
  outer loop
    vertex 29.2099999999994 5.54989999999988 1.16839999999998
    vertex -29.2099999999994 5.54989999999988 0.584199999999988
    vertex 29.2099999999994 5.54989999999988 0.584199999999988
  endloop
endfacet
facet normal 0.0 -1.0 0.0
  outer loop
    vertex -29.2099999999994 5.54989999999988 0.584199999999988
    vertex 29.2099999999994 5.54989999999988 1.16839999999998
    vertex -29.2099999999994 5.54989999999988 1.16839999999998
  endloop
endfacet
facet normal 0.0 1.0 0.0
  outer loop
    vertex -29.2099999999994 6.71829999999986 1.16839999999998
    vertex 29.2099999999994 6.71829999999986 0.584199999999988
    vertex -29.2099999999994 6.71829999999986 0.584199999999988
  endloop
endfacet
facet normal 0.0 1.0 0.0
  outer loop
    vertex 29.2099999999994 6.71829999999986 0.584199999999988
    vertex -29.2099999999994 6.71829999999986 1.16839999999998
    vertex 29.2099999999994 6.71829999999986 1.16839999999998
  endloop
endfacet
facet normal 0.0 0.0 1.0
  outer loop
    vertex 29.2099999999994 6.71829999999986 0.584199999999988
    vertex -29.2099999999994 7.30249999999984 0.584199999999988
    vertex -29.2099999999994 6.71829999999986 0.584199999999988
  endloop
endfacet
facet normal 0.0 0.0 1.0
  outer loop
    vertex -29.2099999999994 7.30249999999984 0.584199999999988
    vertex 29.2099999999994 6.71829999999986 0.584199999999988
    vertex 29.2099999999994 7.30249999999984 0.584199999999988
  endloop
endfacet
facet normal 0.0 -1.0 0.0
  outer loop
    vertex 29.2099999999994 7.30249999999984 1.16839999999998
    vertex -29.2099999999994 7.30249999999984 0.584199999999988
    vertex 29.2099999999994 7.30249999999984 0.584199999999988
  endloop
endfacet
facet normal 0.0 -1.0 0.0
  outer loop
    vertex -29.2099999999994 7.30249999999984 0.584199999999988
    vertex 29.2099999999994 7.30249999999984 1.16839999999998
    vertex -29.2099999999994 7.30249999999984 1.16839999999998
  endloop
endfacet
facet normal 0.0 0.0 1.0
  outer loop
    vertex 29.2099999999994 5.54989999999988 1.16839999999998
    vertex -29.2099999999994 6.71829999999986 1.16839999999998
    vertex -29.2099999999994 5.54989999999988 1.16839999999998
  endloop
endfacet
facet normal 0.0 0.0 1.0
  outer loop
    vertex -29.2099999999994 6.71829999999986 1.16839999999998
    vertex 29.2099999999994 5.54989999999988 1.16839999999998
    vertex 29.2099999999994 6.71829999999986 1.16839999999998
  endloop
endfacet
facet normal 0.0 1.0 0.0
  outer loop
    vertex -29.2099999999994 8.47089999999982 1.16839999999998
    vertex 29.2099999999994 8.47089999999982 0.584199999999988
    vertex -29.2099999999994 8.47089999999982 0.584199999999988
  endloop
endfacet
facet normal 0.0 1.0 0.0
  outer loop
    vertex 29.2099999999994 8.47089999999982 0.584199999999988
    vertex -29.2099999999994 8.47089999999982 1.16839999999998
    vertex 29.2099999999994 8.47089999999982 1.16839999999998
  endloop
endfacet
facet normal 0.0 0.0 1.0
  outer loop
    vertex 29.2099999999994 8.47089999999982 0.584199999999988
    vertex -29.2099999999994 9.05509999999981 0.584199999999988
    vertex -29.2099999999994 8.47089999999982 0.584199999999988
  endloop
endfacet
facet normal 0.0 0.0 1.0
  outer loop
    vertex -29.2099999999994 9.05509999999981 0.584199999999988
    vertex 29.2099999999994 8.47089999999982 0.584199999999988
    vertex 29.2099999999994 9.05509999999981 0.584199999999988
  endloop
endfacet
facet normal 0.0 -1.0 0.0
  outer loop
    vertex 29.2099999999994 9.05509999999981 1.16839999999998
    vertex -29.2099999999994 9.05509999999981 0.584199999999988
    vertex 29.2099999999994 9.05509999999981 0.584199999999988
  endloop
endfacet
facet normal 0.0 -1.0 0.0
  outer loop
    vertex -29.2099999999994 9.05509999999981 0.584199999999988
    vertex 29.2099999999994 9.05509999999981 1.16839999999998
    vertex -29.2099999999994 9.05509999999981 1.16839999999998
  endloop
endfacet
facet normal 0.0 0.0 1.0
  outer loop
    vertex 29.2099999999994 7.30249999999984 1.16839999999998
    vertex -29.2099999999994 8.47089999999982 1.16839999999998
    vertex -29.2099999999994 7.30249999999984 1.16839999999998
  endloop
endfacet
facet normal 0.0 0.0 1.0
  outer loop
    vertex -29.2099999999994 8.47089999999982 1.16839999999998
    vertex 29.2099999999994 7.30249999999984 1.16839999999998
    vertex 29.2099999999994 8.47089999999982 1.16839999999998
  endloop
endfacet
facet normal 0.0 1.0 0.0
  outer loop
    vertex -29.2099999999994 10.2234999999998 1.16839999999998
    vertex 29.2099999999994 10.2234999999998 0.584199999999988
    vertex -29.2099999999994 10.2234999999998 0.584199999999988
  endloop
endfacet
facet normal 0.0 1.0 0.0
  outer loop
    vertex 29.2099999999994 10.2234999999998 0.584199999999988
    vertex -29.2099999999994 10.2234999999998 1.16839999999998
    vertex 29.2099999999994 10.2234999999998 1.16839999999998
  endloop
endfacet
facet normal 0.0 0.0 1.0
  outer loop
    vertex 29.2099999999994 10.2234999999998 0.584199999999988
    vertex -29.2099999999994 10.8076999999998 0.584199999999988
    vertex -29.2099999999994 10.2234999999998 0.584199999999988
  endloop
endfacet
facet normal 0.0 0.0 1.0
  outer loop
    vertex -29.2099999999994 10.8076999999998 0.584199999999988
    vertex 29.2099999999994 10.2234999999998 0.584199999999988
    vertex 29.2099999999994 10.8076999999998 0.584199999999988
  endloop
endfacet
facet normal 0.0 -1.0 0.0
  outer loop
    vertex 29.2099999999994 10.8076999999998 1.16839999999998
    vertex -29.2099999999994 10.8076999999998 0.584199999999988
    vertex 29.2099999999994 10.8076999999998 0.584199999999988
  endloop
endfacet
facet normal 0.0 -1.0 0.0
  outer loop
    vertex -29.2099999999994 10.8076999999998 0.584199999999988
    vertex 29.2099999999994 10.8076999999998 1.16839999999998
    vertex -29.2099999999994 10.8076999999998 1.16839999999998
  endloop
endfacet
facet normal 0.0 0.0 1.0
  outer loop
    vertex 29.2099999999994 9.05509999999981 1.16839999999998
    vertex -29.2099999999994 10.2234999999998 1.16839999999998
    vertex -29.2099999999994 9.05509999999981 1.16839999999998
  endloop
endfacet
facet normal 0.0 0.0 1.0
  outer loop
    vertex -29.2099999999994 10.2234999999998 1.16839999999998
    vertex 29.2099999999994 9.05509999999981 1.16839999999998
    vertex 29.2099999999994 10.2234999999998 1.16839999999998
  endloop
endfacet
facet normal 0.0 1.0 0.0
  outer loop
    vertex -29.2099999999994 11.9760999999997 1.16839999999998
    vertex 29.2099999999994 11.9760999999997 0.584199999999988
    vertex -29.2099999999994 11.9760999999997 0.584199999999988
  endloop
endfacet
facet normal 0.0 1.0 0.0
  outer loop
    vertex 29.2099999999994 11.9760999999997 0.584199999999988
    vertex -29.2099999999994 11.9760999999997 1.16839999999998
    vertex 29.2099999999994 11.9760999999997 1.16839999999998
  endloop
endfacet
facet normal 0.0 0.0 1.0
  outer loop
    vertex 29.2099999999994 11.9760999999997 0.584199999999988
    vertex -29.2099999999994 12.5602999999997 0.584199999999988
    vertex -29.2099999999994 11.9760999999997 0.584199999999988
  endloop
endfacet
facet normal 0.0 0.0 1.0
  outer loop
    vertex -29.2099999999994 12.5602999999997 0.584199999999988
    vertex 29.2099999999994 11.9760999999997 0.584199999999988
    vertex 29.2099999999994 12.5602999999997 0.584199999999988
  endloop
endfacet
facet normal 0.0 -1.0 0.0
  outer loop
    vertex 29.2099999999994 12.5602999999997 1.16839999999998
    vertex -29.2099999999994 12.5602999999997 0.584199999999988
    vertex 29.2099999999994 12.5602999999997 0.584199999999988
  endloop
endfacet
facet normal 0.0 -1.0 0.0
  outer loop
    vertex -29.2099999999994 12.5602999999997 0.584199999999988
    vertex 29.2099999999994 12.5602999999997 1.16839999999998
    vertex -29.2099999999994 12.5602999999997 1.16839999999998
  endloop
endfacet
facet normal 0.0 0.0 1.0
  outer loop
    vertex 29.2099999999994 10.8076999999998 1.16839999999998
    vertex -29.2099999999994 11.9760999999997 1.16839999999998
    vertex -29.2099999999994 10.8076999999998 1.16839999999998
  endloop
endfacet
facet normal 0.0 0.0 1.0
  outer loop
    vertex -29.2099999999994 11.9760999999997 1.16839999999998
    vertex 29.2099999999994 10.8076999999998 1.16839999999998
    vertex 29.2099999999994 11.9760999999997 1.16839999999998
  endloop
endfacet
facet normal 0.0 1.0 0.0
  outer loop
    vertex -29.2099999999994 13.7286999999997 1.16839999999998
    vertex 29.2099999999994 13.7286999999997 0.584199999999988
    vertex -29.2099999999994 13.7286999999997 0.584199999999988
  endloop
endfacet
facet normal 0.0 1.0 0.0
  outer loop
    vertex 29.2099999999994 13.7286999999997 0.584199999999988
    vertex -29.2099999999994 13.7286999999997 1.16839999999998
    vertex 29.2099999999994 13.7286999999997 1.16839999999998
  endloop
endfacet
facet normal 0.0 0.0 1.0
  outer loop
    vertex 29.2099999999994 13.7286999999997 0.584199999999988
    vertex -29.2099999999994 14.3128999999997 0.584199999999988
    vertex -29.2099999999994 13.7286999999997 0.584199999999988
  endloop
endfacet
facet normal 0.0 0.0 1.0
  outer loop
    vertex -29.2099999999994 14.3128999999997 0.584199999999988
    vertex 29.2099999999994 13.7286999999997 0.584199999999988
    vertex 29.2099999999994 14.3128999999997 0.584199999999988
  endloop
endfacet
facet normal 0.0 -1.0 0.0
  outer loop
    vertex 29.2099999999994 14.3128999999997 1.16839999999998
    vertex -29.2099999999994 14.3128999999997 0.584199999999988
    vertex 29.2099999999994 14.3128999999997 0.584199999999988
  endloop
endfacet
facet normal 0.0 -1.0 0.0
  outer loop
    vertex -29.2099999999994 14.3128999999997 0.584199999999988
    vertex 29.2099999999994 14.3128999999997 1.16839999999998
    vertex -29.2099999999994 14.3128999999997 1.16839999999998
  endloop
endfacet
facet normal 0.0 0.0 1.0
  outer loop
    vertex 29.2099999999994 12.5602999999997 1.16839999999998
    vertex -29.2099999999994 13.7286999999997 1.16839999999998
    vertex -29.2099999999994 12.5602999999997 1.16839999999998
  endloop
endfacet
facet normal 0.0 0.0 1.0
  outer loop
    vertex -29.2099999999994 13.7286999999997 1.16839999999998
    vertex 29.2099999999994 12.5602999999997 1.16839999999998
    vertex 29.2099999999994 13.7286999999997 1.16839999999998
  endloop
endfacet
facet normal 0.0 1.0 0.0
  outer loop
    vertex -29.2099999999994 15.4812999999997 1.16839999999998
    vertex 29.2099999999994 15.4812999999997 0.584199999999988
    vertex -29.2099999999994 15.4812999999997 0.584199999999988
  endloop
endfacet
facet normal 0.0 1.0 0.0
  outer loop
    vertex 29.2099999999994 15.4812999999997 0.584199999999988
    vertex -29.2099999999994 15.4812999999997 1.16839999999998
    vertex 29.2099999999994 15.4812999999997 1.16839999999998
  endloop
endfacet
facet normal 0.0 0.0 1.0
  outer loop
    vertex 29.2099999999994 15.4812999999997 0.584199999999988
    vertex -29.2099999999994 16.0654999999997 0.584199999999988
    vertex -29.2099999999994 15.4812999999997 0.584199999999988
  endloop
endfacet
facet normal 0.0 0.0 1.0
  outer loop
    vertex -29.2099999999994 16.0654999999997 0.584199999999988
    vertex 29.2099999999994 15.4812999999997 0.584199999999988
    vertex 29.2099999999994 16.0654999999997 0.584199999999988
  endloop
endfacet
facet normal 0.0 -1.0 0.0
  outer loop
    vertex 29.2099999999994 16.0654999999997 1.16839999999998
    vertex -29.2099999999994 16.0654999999997 0.584199999999988
    vertex 29.2099999999994 16.0654999999997 0.584199999999988
  endloop
endfacet
facet normal 0.0 -1.0 0.0
  outer loop
    vertex -29.2099999999994 16.0654999999997 0.584199999999988
    vertex 29.2099999999994 16.0654999999997 1.16839999999998
    vertex -29.2099999999994 16.0654999999997 1.16839999999998
  endloop
endfacet
facet normal 0.0 0.0 1.0
  outer loop
    vertex 29.2099999999994 14.3128999999997 1.16839999999998
    vertex -29.2099999999994 15.4812999999997 1.16839999999998
    vertex -29.2099999999994 14.3128999999997 1.16839999999998
  endloop
endfacet
facet normal 0.0 0.0 1.0
  outer loop
    vertex -29.2099999999994 15.4812999999997 1.16839999999998
    vertex 29.2099999999994 14.3128999999997 1.16839999999998
    vertex 29.2099999999994 15.4812999999997 1.16839999999998
  endloop
endfacet
facet normal 0.0 1.0 0.0
  outer loop
    vertex -29.2099999999994 17.2338999999996 1.16839999999998
    vertex 29.2099999999994 17.2338999999996 0.584199999999988
    vertex -29.2099999999994 17.2338999999996 0.584199999999988
  endloop
endfacet
facet normal 0.0 1.0 0.0
  outer loop
    vertex 29.2099999999994 17.2338999999996 0.584199999999988
    vertex -29.2099999999994 17.2338999999996 1.16839999999998
    vertex 29.2099999999994 17.2338999999996 1.16839999999998
  endloop
endfacet
facet normal 0.0 0.0 1.0
  outer loop
    vertex 29.2099999999994 17.2338999999996 0.584199999999988
    vertex -29.2099999999994 17.8180999999996 0.584199999999988
    vertex -29.2099999999994 17.2338999999996 0.584199999999988
  endloop
endfacet
facet normal 0.0 0.0 1.0
  outer loop
    vertex -29.2099999999994 17.8180999999996 0.584199999999988
    vertex 29.2099999999994 17.2338999999996 0.584199999999988
    vertex 29.2099999999994 17.8180999999996 0.584199999999988
  endloop
endfacet
facet normal 0.0 -1.0 0.0
  outer loop
    vertex 29.2099999999994 17.8180999999996 1.16839999999998
    vertex -29.2099999999994 17.8180999999996 0.584199999999988
    vertex 29.2099999999994 17.8180999999996 0.584199999999988
  endloop
endfacet
facet normal 0.0 -1.0 0.0
  outer loop
    vertex -29.2099999999994 17.8180999999996 0.584199999999988
    vertex 29.2099999999994 17.8180999999996 1.16839999999998
    vertex -29.2099999999994 17.8180999999996 1.16839999999998
  endloop
endfacet
facet normal 0.0 0.0 1.0
  outer loop
    vertex 29.2099999999994 16.0654999999997 1.16839999999998
    vertex -29.2099999999994 17.2338999999996 1.16839999999998
    vertex -29.2099999999994 16.0654999999997 1.16839999999998
  endloop
endfacet
facet normal 0.0 0.0 1.0
  outer loop
    vertex -29.2099999999994 17.2338999999996 1.16839999999998
    vertex 29.2099999999994 16.0654999999997 1.16839999999998
    vertex 29.2099999999994 17.2338999999996 1.16839999999998
  endloop
endfacet
facet normal 0.0 1.0 0.0
  outer loop
    vertex -29.2099999999994 18.9864999999996 1.16839999999998
    vertex 29.2099999999994 18.9864999999996 0.584199999999988
    vertex -29.2099999999994 18.9864999999996 0.584199999999988
  endloop
endfacet
facet normal 0.0 1.0 0.0
  outer loop
    vertex 29.2099999999994 18.9864999999996 0.584199999999988
    vertex -29.2099999999994 18.9864999999996 1.16839999999998
    vertex 29.2099999999994 18.9864999999996 1.16839999999998
  endloop
endfacet
facet normal 0.0 0.0 1.0
  outer loop
    vertex 29.2099999999994 18.9864999999996 0.584199999999988
    vertex -29.2099999999994 19.5706999999996 0.584199999999988
    vertex -29.2099999999994 18.9864999999996 0.584199999999988
  endloop
endfacet
facet normal 0.0 0.0 1.0
  outer loop
    vertex -29.2099999999994 19.5706999999996 0.584199999999988
    vertex 29.2099999999994 18.9864999999996 0.584199999999988
    vertex 29.2099999999994 19.5706999999996 0.584199999999988
  endloop
endfacet
facet normal 0.0 -1.0 0.0
  outer loop
    vertex 29.2099999999994 19.5706999999996 1.16839999999998
    vertex -29.2099999999994 19.5706999999996 0.584199999999988
    vertex 29.2099999999994 19.5706999999996 0.584199999999988
  endloop
endfacet
facet normal 0.0 -1.0 0.0
  outer loop
    vertex -29.2099999999994 19.5706999999996 0.584199999999988
    vertex 29.2099999999994 19.5706999999996 1.16839999999998
    vertex -29.2099999999994 19.5706999999996 1.16839999999998
  endloop
endfacet
facet normal 0.0 0.0 1.0
  outer loop
    vertex 29.2099999999994 17.8180999999996 1.16839999999998
    vertex -29.2099999999994 18.9864999999996 1.16839999999998
    vertex -29.2099999999994 17.8180999999996 1.16839999999998
  endloop
endfacet
facet normal 0.0 0.0 1.0
  outer loop
    vertex -29.2099999999994 18.9864999999996 1.16839999999998
    vertex 29.2099999999994 17.8180999999996 1.16839999999998
    vertex 29.2099999999994 18.9864999999996 1.16839999999998
  endloop
endfacet
facet normal 0.0 1.0 0.0
  outer loop
    vertex -29.2099999999994 20.7390999999996 1.16839999999998
    vertex 29.2099999999994 20.7390999999996 0.584199999999988
    vertex -29.2099999999994 20.7390999999996 0.584199999999988
  endloop
endfacet
facet normal 0.0 1.0 0.0
  outer loop
    vertex 29.2099999999994 20.7390999999996 0.584199999999988
    vertex -29.2099999999994 20.7390999999996 1.16839999999998
    vertex 29.2099999999994 20.7390999999996 1.16839999999998
  endloop
endfacet
facet normal 0.0 0.0 1.0
  outer loop
    vertex 29.2099999999994 19.5706999999996 1.16839999999998
    vertex -29.2099999999994 20.7390999999996 1.16839999999998
    vertex -29.2099999999994 19.5706999999996 1.16839999999998
  endloop
endfacet
facet normal 0.0 0.0 1.0
  outer loop
    vertex -29.2099999999994 20.7390999999996 1.16839999999998
    vertex 29.2099999999994 19.5706999999996 1.16839999999998
    vertex 29.2099999999994 20.7390999999996 1.16839999999998
  endloop
endfacet
facet normal 1.0 0.0 0.0
  outer loop
    vertex 29.2099999999994 23.6600999999995 0.0
    vertex 29.2099999999994 0.0 0.5842
    vertex 29.2099999999994 0.0 0.0
  endloop
endfacet
facet normal 1.0 0.0 0.0
  outer loop
    vertex 29.2099999999994 0.0 0.5842
    vertex 29.2099999999994 23.6600999999995 0.0
    vertex 29.2099999999994 5.54989999999988 0.584199999999988
  endloop
endfacet
facet normal 1.0 0.0 0.0
  outer loop
    vertex 29.2099999999994 5.54989999999988 0.584199999999988
    vertex 29.2099999999994 23.6600999999995 0.0
    vertex 29.2099999999994 6.71829999999986 0.584199999999988
  endloop
endfacet
facet normal 1.0 0.0 0.0
  outer loop
    vertex 29.2099999999994 5.54989999999988 0.584199999999988
    vertex 29.2099999999994 6.71829999999986 0.584199999999988
    vertex 29.2099999999994 5.54989999999988 1.16839999999998
  endloop
endfacet
facet normal 1.0 0.0 0.0
  outer loop
    vertex 29.2099999999994 6.71829999999986 0.584199999999988
    vertex 29.2099999999994 23.6600999999995 0.0
    vertex 29.2099999999994 7.30249999999984 0.584199999999988
  endloop
endfacet
facet normal 1.0 0.0 0.0
  outer loop
    vertex 29.2099999999994 7.30249999999984 0.584199999999988
    vertex 29.2099999999994 23.6600999999995 0.0
    vertex 29.2099999999994 8.47089999999982 0.584199999999988
  endloop
endfacet
facet normal 1.0 0.0 0.0
  outer loop
    vertex 29.2099999999994 7.30249999999984 0.584199999999988
    vertex 29.2099999999994 8.47089999999982 0.584199999999988
    vertex 29.2099999999994 7.30249999999984 1.16839999999998
  endloop
endfacet
facet normal 1.0 0.0 0.0
  outer loop
    vertex 29.2099999999994 8.47089999999982 0.584199999999988
    vertex 29.2099999999994 23.6600999999995 0.0
    vertex 29.2099999999994 9.05509999999981 0.584199999999988
  endloop
endfacet
facet normal 1.0 0.0 0.0
  outer loop
    vertex 29.2099999999994 9.05509999999981 0.584199999999988
    vertex 29.2099999999994 23.6600999999995 0.0
    vertex 29.2099999999994 10.2234999999998 0.584199999999988
  endloop
endfacet
facet normal 1.0 0.0 0.0
  outer loop
    vertex 29.2099999999994 9.05509999999981 0.584199999999988
    vertex 29.2099999999994 10.2234999999998 0.584199999999988
    vertex 29.2099999999994 9.05509999999981 1.16839999999998
  endloop
endfacet
facet normal 1.0 0.0 0.0
  outer loop
    vertex 29.2099999999994 10.2234999999998 0.584199999999988
    vertex 29.2099999999994 23.6600999999995 0.0
    vertex 29.2099999999994 10.8076999999998 0.584199999999988
  endloop
endfacet
facet normal 1.0 0.0 0.0
  outer loop
    vertex 29.2099999999994 10.8076999999998 0.584199999999988
    vertex 29.2099999999994 23.6600999999995 0.0
    vertex 29.2099999999994 11.9760999999997 0.584199999999988
  endloop
endfacet
facet normal 1.0 0.0 0.0
  outer loop
    vertex 29.2099999999994 10.8076999999998 0.584199999999988
    vertex 29.2099999999994 11.9760999999997 0.584199999999988
    vertex 29.2099999999994 10.8076999999998 1.16839999999998
  endloop
endfacet
facet normal 1.0 0.0 0.0
  outer loop
    vertex 29.2099999999994 11.9760999999997 0.584199999999988
    vertex 29.2099999999994 23.6600999999995 0.0
    vertex 29.2099999999994 12.5602999999997 0.584199999999988
  endloop
endfacet
facet normal 1.0 0.0 0.0
  outer loop
    vertex 29.2099999999994 12.5602999999997 0.584199999999988
    vertex 29.2099999999994 23.6600999999995 0.0
    vertex 29.2099999999994 13.7286999999997 0.584199999999988
  endloop
endfacet
facet normal 1.0 0.0 0.0
  outer loop
    vertex 29.2099999999994 12.5602999999997 0.584199999999988
    vertex 29.2099999999994 13.7286999999997 0.584199999999988
    vertex 29.2099999999994 12.5602999999997 1.16839999999998
  endloop
endfacet
facet normal 1.0 0.0 0.0
  outer loop
    vertex 29.2099999999994 13.7286999999997 0.584199999999988
    vertex 29.2099999999994 23.6600999999995 0.0
    vertex 29.2099999999994 14.3128999999997 0.584199999999988
  endloop
endfacet
facet normal 1.0 0.0 0.0
  outer loop
    vertex 29.2099999999994 14.3128999999997 0.584199999999988
    vertex 29.2099999999994 23.6600999999995 0.0
    vertex 29.2099999999994 15.4812999999997 0.584199999999988
  endloop
endfacet
facet normal 1.0 0.0 0.0
  outer loop
    vertex 29.2099999999994 14.3128999999997 0.584199999999988
    vertex 29.2099999999994 15.4812999999997 0.584199999999988
    vertex 29.2099999999994 14.3128999999997 1.16839999999998
  endloop
endfacet
facet normal 1.0 0.0 0.0
  outer loop
    vertex 29.2099999999994 15.4812999999997 0.584199999999988
    vertex 29.2099999999994 23.6600999999995 0.0
    vertex 29.2099999999994 16.0654999999997 0.584199999999988
  endloop
endfacet
facet normal 1.0 0.0 0.0
  outer loop
    vertex 29.2099999999994 16.0654999999997 0.584199999999988
    vertex 29.2099999999994 23.6600999999995 0.0
    vertex 29.2099999999994 17.2338999999996 0.584199999999988
  endloop
endfacet
facet normal 1.0 0.0 0.0
  outer loop
    vertex 29.2099999999994 16.0654999999997 0.584199999999988
    vertex 29.2099999999994 17.2338999999996 0.584199999999988
    vertex 29.2099999999994 16.0654999999997 1.16839999999998
  endloop
endfacet
facet normal 1.0 0.0 0.0
  outer loop
    vertex 29.2099999999994 17.2338999999996 0.584199999999988
    vertex 29.2099999999994 23.6600999999995 0.0
    vertex 29.2099999999994 17.8180999999996 0.584199999999988
  endloop
endfacet
facet normal 1.0 0.0 0.0
  outer loop
    vertex 29.2099999999994 17.8180999999996 0.584199999999988
    vertex 29.2099999999994 23.6600999999995 0.0
    vertex 29.2099999999994 18.9864999999996 0.584199999999988
  endloop
endfacet
facet normal 1.0 0.0 0.0
  outer loop
    vertex 29.2099999999994 17.8180999999996 0.584199999999988
    vertex 29.2099999999994 18.9864999999996 0.584199999999988
    vertex 29.2099999999994 17.8180999999996 1.16839999999998
  endloop
endfacet
facet normal 1.0 0.0 0.0
  outer loop
    vertex 29.2099999999994 18.9864999999996 0.584199999999988
    vertex 29.2099999999994 23.6600999999995 0.0
    vertex 29.2099999999994 19.5706999999996 0.584199999999988
  endloop
endfacet
facet normal 1.0 0.0 0.0
  outer loop
    vertex 29.2099999999994 19.5706999999996 0.584199999999988
    vertex 29.2099999999994 23.6600999999995 0.0
    vertex 29.2099999999994 20.7390999999996 0.584199999999988
  endloop
endfacet
facet normal 1.0 0.0 0.0
  outer loop
    vertex 29.2099999999994 19.5706999999996 0.584199999999988
    vertex 29.2099999999994 20.7390999999996 0.584199999999988
    vertex 29.2099999999994 19.5706999999996 1.16839999999998
  endloop
endfacet
facet normal 1.0 0.0 0.0
  outer loop
    vertex 29.2099999999994 20.7390999999996 0.584199999999988
    vertex 29.2099999999994 23.6600999999995 0.0
    vertex 29.2099999999994 21.3232999999995 0.584199999999988
  endloop
endfacet
facet normal 1.0 0.0 0.0
  outer loop
    vertex 29.2099999999994 21.3232999999995 0.584199999999988
    vertex 29.2099999999994 23.6600999999995 0.0
    vertex 29.2099999999994 21.3232999999995 1.16839999999997
  endloop
endfacet
facet normal 1.0 0.0 0.0
  outer loop
    vertex 29.2099999999994 21.3232999999995 1.16839999999997
    vertex 29.2099999999994 23.6600999999995 0.0
    vertex 29.2099999999994 22.4916999999995 0.584199999999989
  endloop
endfacet
facet normal 1.0 0.0 0.0
  outer loop
    vertex 29.2099999999994 22.4916999999995 0.584199999999989
    vertex 29.2099999999994 23.6600999999995 0.0
    vertex 29.2099999999994 23.0758999999995 0.584199999999989
  endloop
endfacet
facet normal 1.0 0.0 0.0
  outer loop
    vertex 29.2099999999994 23.0758999999995 0.584199999999989
    vertex 29.2099999999994 23.6600999999995 0.0
    vertex 29.2099999999994 23.0758999999995 1.16839999999997
  endloop
endfacet
facet normal 1.0 0.0 0.0
  outer loop
    vertex 29.2099999999994 23.0758999999995 1.16839999999997
    vertex 29.2099999999994 23.6600999999995 0.0
    vertex 29.2099999999994 23.6600999999995 1.16839999999997
  endloop
endfacet
facet normal 1.0 0.0 0.0
  outer loop
    vertex 29.2099999999994 22.4916999999995 1.16839999999997
    vertex 29.2099999999994 21.3232999999995 1.16839999999997
    vertex 29.2099999999994 22.4916999999995 0.584199999999989
  endloop
endfacet
facet normal 1.0 0.0 0.0
  outer loop
    vertex 29.2099999999994 20.7390999999996 1.16839999999998
    vertex 29.2099999999994 19.5706999999996 1.16839999999998
    vertex 29.2099999999994 20.7390999999996 0.584199999999988
  endloop
endfacet
facet normal 1.0 0.0 0.0
  outer loop
    vertex 29.2099999999994 18.9864999999996 1.16839999999998
    vertex 29.2099999999994 17.8180999999996 1.16839999999998
    vertex 29.2099999999994 18.9864999999996 0.584199999999988
  endloop
endfacet
facet normal 1.0 0.0 0.0
  outer loop
    vertex 29.2099999999994 17.2338999999996 1.16839999999998
    vertex 29.2099999999994 16.0654999999997 1.16839999999998
    vertex 29.2099999999994 17.2338999999996 0.584199999999988
  endloop
endfacet
facet normal 1.0 0.0 0.0
  outer loop
    vertex 29.2099999999994 15.4812999999997 1.16839999999998
    vertex 29.2099999999994 14.3128999999997 1.16839999999998
    vertex 29.2099999999994 15.4812999999997 0.584199999999988
  endloop
endfacet
facet normal 1.0 0.0 0.0
  outer loop
    vertex 29.2099999999994 13.7286999999997 1.16839999999998
    vertex 29.2099999999994 12.5602999999997 1.16839999999998
    vertex 29.2099999999994 13.7286999999997 0.584199999999988
  endloop
endfacet
facet normal 1.0 0.0 0.0
  outer loop
    vertex 29.2099999999994 11.9760999999997 1.16839999999998
    vertex 29.2099999999994 10.8076999999998 1.16839999999998
    vertex 29.2099999999994 11.9760999999997 0.584199999999988
  endloop
endfacet
facet normal 1.0 0.0 0.0
  outer loop
    vertex 29.2099999999994 10.2234999999998 1.16839999999998
    vertex 29.2099999999994 9.05509999999981 1.16839999999998
    vertex 29.2099999999994 10.2234999999998 0.584199999999988
  endloop
endfacet
facet normal 1.0 0.0 0.0
  outer loop
    vertex 29.2099999999994 8.47089999999982 1.16839999999998
    vertex 29.2099999999994 7.30249999999984 1.16839999999998
    vertex 29.2099999999994 8.47089999999982 0.584199999999988
  endloop
endfacet
facet normal 1.0 0.0 0.0
  outer loop
    vertex 29.2099999999994 6.71829999999986 1.16839999999998
    vertex 29.2099999999994 5.54989999999988 1.16839999999998
    vertex 29.2099999999994 6.71829999999986 0.584199999999988
  endloop
endfacet
facet normal -1.0 0.0 0.0
  outer loop
    vertex -29.2099999999994 6.71829999999986 1.16839999999998
    vertex -29.2099999999994 5.54989999999988 0.584199999999988
    vertex -29.2099999999994 5.54989999999988 1.16839999999998
  endloop
endfacet
facet normal -1.0 0.0 0.0
  outer loop
    vertex -29.2099999999994 8.47089999999982 1.16839999999998
    vertex -29.2099999999994 7.30249999999984 0.584199999999988
    vertex -29.2099999999994 7.30249999999984 1.16839999999998
  endloop
endfacet
facet normal -1.0 0.0 0.0
  outer loop
    vertex -29.2099999999994 10.2234999999998 1.16839999999998
    vertex -29.2099999999994 9.05509999999981 0.584199999999988
    vertex -29.2099999999994 9.05509999999981 1.16839999999998
  endloop
endfacet
facet normal -1.0 0.0 0.0
  outer loop
    vertex -29.2099999999994 11.9760999999997 1.16839999999998
    vertex -29.2099999999994 10.8076999999998 0.584199999999988
    vertex -29.2099999999994 10.8076999999998 1.16839999999998
  endloop
endfacet
facet normal -1.0 0.0 0.0
  outer loop
    vertex -29.2099999999994 13.7286999999997 1.16839999999998
    vertex -29.2099999999994 12.5602999999997 0.584199999999988
    vertex -29.2099999999994 12.5602999999997 1.16839999999998
  endloop
endfacet
facet normal -1.0 0.0 0.0
  outer loop
    vertex -29.2099999999994 15.4812999999997 1.16839999999998
    vertex -29.2099999999994 14.3128999999997 0.584199999999988
    vertex -29.2099999999994 14.3128999999997 1.16839999999998
  endloop
endfacet
facet normal -1.0 0.0 0.0
  outer loop
    vertex -29.2099999999994 17.2338999999996 1.16839999999998
    vertex -29.2099999999994 16.0654999999997 0.584199999999988
    vertex -29.2099999999994 16.0654999999997 1.16839999999998
  endloop
endfacet
facet normal -1.0 0.0 0.0
  outer loop
    vertex -29.2099999999994 18.9864999999996 1.16839999999998
    vertex -29.2099999999994 17.8180999999996 0.584199999999988
    vertex -29.2099999999994 17.8180999999996 1.16839999999998
  endloop
endfacet
facet normal -1.0 0.0 0.0
  outer loop
    vertex -29.2099999999994 20.7390999999996 1.16839999999998
    vertex -29.2099999999994 19.5706999999996 0.584199999999988
    vertex -29.2099999999994 19.5706999999996 1.16839999999998
  endloop
endfacet
facet normal -1.0 0.0 0.0
  outer loop
    vertex -29.2099999999994 22.4916999999995 1.16839999999997
    vertex -29.2099999999994 21.3232999999995 0.584199999999988
    vertex -29.2099999999994 21.3232999999995 1.16839999999997
  endloop
endfacet
facet normal -1.0 0.0 0.0
  outer loop
    vertex -29.2099999999994 23.6600999999995 1.16839999999997
    vertex -29.2099999999994 23.0758999999995 0.584199999999989
    vertex -29.2099999999994 23.0758999999995 1.16839999999997
  endloop
endfacet
facet normal -1.0 0.0 0.0
  outer loop
    vertex -29.2099999999994 5.54989999999988 0.584199999999988
    vertex -29.2099999999994 0.0 0.0
    vertex -29.2099999999994 0.0 0.5842
  endloop
endfacet
facet normal -1.0 0.0 0.0
  outer loop
    vertex -29.2099999999994 0.0 0.0
    vertex -29.2099999999994 5.54989999999988 0.584199999999988
    vertex -29.2099999999994 23.6600999999995 0.0
  endloop
endfacet
facet normal -1.0 0.0 0.0
  outer loop
    vertex -29.2099999999994 23.6600999999995 0.0
    vertex -29.2099999999994 5.54989999999988 0.584199999999988
    vertex -29.2099999999994 6.71829999999986 0.584199999999988
  endloop
endfacet
facet normal -1.0 0.0 0.0
  outer loop
    vertex -29.2099999999994 6.71829999999986 0.584199999999988
    vertex -29.2099999999994 5.54989999999988 0.584199999999988
    vertex -29.2099999999994 6.71829999999986 1.16839999999998
  endloop
endfacet
facet normal -1.0 0.0 0.0
  outer loop
    vertex -29.2099999999994 23.6600999999995 0.0
    vertex -29.2099999999994 6.71829999999986 0.584199999999988
    vertex -29.2099999999994 7.30249999999984 0.584199999999988
  endloop
endfacet
facet normal -1.0 0.0 0.0
  outer loop
    vertex -29.2099999999994 23.6600999999995 0.0
    vertex -29.2099999999994 7.30249999999984 0.584199999999988
    vertex -29.2099999999994 8.47089999999982 0.584199999999988
  endloop
endfacet
facet normal -1.0 0.0 0.0
  outer loop
    vertex -29.2099999999994 8.47089999999982 0.584199999999988
    vertex -29.2099999999994 7.30249999999984 0.584199999999988
    vertex -29.2099999999994 8.47089999999982 1.16839999999998
  endloop
endfacet
facet normal -1.0 0.0 0.0
  outer loop
    vertex -29.2099999999994 23.6600999999995 0.0
    vertex -29.2099999999994 8.47089999999982 0.584199999999988
    vertex -29.2099999999994 9.05509999999981 0.584199999999988
  endloop
endfacet
facet normal -1.0 0.0 0.0
  outer loop
    vertex -29.2099999999994 23.6600999999995 0.0
    vertex -29.2099999999994 9.05509999999981 0.584199999999988
    vertex -29.2099999999994 10.2234999999998 0.584199999999988
  endloop
endfacet
facet normal -1.0 0.0 0.0
  outer loop
    vertex -29.2099999999994 10.2234999999998 0.584199999999988
    vertex -29.2099999999994 9.05509999999981 0.584199999999988
    vertex -29.2099999999994 10.2234999999998 1.16839999999998
  endloop
endfacet
facet normal -1.0 0.0 0.0
  outer loop
    vertex -29.2099999999994 23.6600999999995 0.0
    vertex -29.2099999999994 10.2234999999998 0.584199999999988
    vertex -29.2099999999994 10.8076999999998 0.584199999999988
  endloop
endfacet
facet normal -1.0 0.0 0.0
  outer loop
    vertex -29.2099999999994 23.6600999999995 0.0
    vertex -29.2099999999994 10.8076999999998 0.584199999999988
    vertex -29.2099999999994 11.9760999999997 0.584199999999988
  endloop
endfacet
facet normal -1.0 0.0 0.0
  outer loop
    vertex -29.2099999999994 11.9760999999997 0.584199999999988
    vertex -29.2099999999994 10.8076999999998 0.584199999999988
    vertex -29.2099999999994 11.9760999999997 1.16839999999998
  endloop
endfacet
facet normal -1.0 0.0 0.0
  outer loop
    vertex -29.2099999999994 23.6600999999995 0.0
    vertex -29.2099999999994 11.9760999999997 0.584199999999988
    vertex -29.2099999999994 12.5602999999997 0.584199999999988
  endloop
endfacet
facet normal -1.0 0.0 0.0
  outer loop
    vertex -29.2099999999994 23.6600999999995 0.0
    vertex -29.2099999999994 12.5602999999997 0.584199999999988
    vertex -29.2099999999994 13.7286999999997 0.584199999999988
  endloop
endfacet
facet normal -1.0 0.0 0.0
  outer loop
    vertex -29.2099999999994 13.7286999999997 0.584199999999988
    vertex -29.2099999999994 12.5602999999997 0.584199999999988
    vertex -29.2099999999994 13.7286999999997 1.16839999999998
  endloop
endfacet
facet normal -1.0 0.0 0.0
  outer loop
    vertex -29.2099999999994 23.6600999999995 0.0
    vertex -29.2099999999994 13.7286999999997 0.584199999999988
    vertex -29.2099999999994 14.3128999999997 0.584199999999988
  endloop
endfacet
facet normal -1.0 0.0 0.0
  outer loop
    vertex -29.2099999999994 23.6600999999995 0.0
    vertex -29.2099999999994 14.3128999999997 0.584199999999988
    vertex -29.2099999999994 15.4812999999997 0.584199999999988
  endloop
endfacet
facet normal -1.0 0.0 0.0
  outer loop
    vertex -29.2099999999994 15.4812999999997 0.584199999999988
    vertex -29.2099999999994 14.3128999999997 0.584199999999988
    vertex -29.2099999999994 15.4812999999997 1.16839999999998
  endloop
endfacet
facet normal -1.0 0.0 0.0
  outer loop
    vertex -29.2099999999994 23.6600999999995 0.0
    vertex -29.2099999999994 15.4812999999997 0.584199999999988
    vertex -29.2099999999994 16.0654999999997 0.584199999999988
  endloop
endfacet
facet normal -1.0 0.0 0.0
  outer loop
    vertex -29.2099999999994 23.6600999999995 0.0
    vertex -29.2099999999994 16.0654999999997 0.584199999999988
    vertex -29.2099999999994 17.2338999999996 0.584199999999988
  endloop
endfacet
facet normal -1.0 0.0 0.0
  outer loop
    vertex -29.2099999999994 17.2338999999996 0.584199999999988
    vertex -29.2099999999994 16.0654999999997 0.584199999999988
    vertex -29.2099999999994 17.2338999999996 1.16839999999998
  endloop
endfacet
facet normal -1.0 0.0 0.0
  outer loop
    vertex -29.2099999999994 23.6600999999995 0.0
    vertex -29.2099999999994 17.2338999999996 0.584199999999988
    vertex -29.2099999999994 17.8180999999996 0.584199999999988
  endloop
endfacet
facet normal -1.0 0.0 0.0
  outer loop
    vertex -29.2099999999994 23.6600999999995 0.0
    vertex -29.2099999999994 17.8180999999996 0.584199999999988
    vertex -29.2099999999994 18.9864999999996 0.584199999999988
  endloop
endfacet
facet normal -1.0 0.0 0.0
  outer loop
    vertex -29.2099999999994 18.9864999999996 0.584199999999988
    vertex -29.2099999999994 17.8180999999996 0.584199999999988
    vertex -29.2099999999994 18.9864999999996 1.16839999999998
  endloop
endfacet
facet normal -1.0 0.0 0.0
  outer loop
    vertex -29.2099999999994 23.6600999999995 0.0
    vertex -29.2099999999994 18.9864999999996 0.584199999999988
    vertex -29.2099999999994 19.5706999999996 0.584199999999988
  endloop
endfacet
facet normal -1.0 0.0 0.0
  outer loop
    vertex -29.2099999999994 23.6600999999995 0.0
    vertex -29.2099999999994 19.5706999999996 0.584199999999988
    vertex -29.2099999999994 20.7390999999996 0.584199999999988
  endloop
endfacet
facet normal -1.0 0.0 0.0
  outer loop
    vertex -29.2099999999994 20.7390999999996 0.584199999999988
    vertex -29.2099999999994 19.5706999999996 0.584199999999988
    vertex -29.2099999999994 20.7390999999996 1.16839999999998
  endloop
endfacet
facet normal -1.0 0.0 0.0
  outer loop
    vertex -29.2099999999994 23.6600999999995 0.0
    vertex -29.2099999999994 20.7390999999996 0.584199999999988
    vertex -29.2099999999994 21.3232999999995 0.584199999999988
  endloop
endfacet
facet normal -1.0 0.0 0.0
  outer loop
    vertex -29.2099999999994 23.6600999999995 0.0
    vertex -29.2099999999994 21.3232999999995 0.584199999999988
    vertex -29.2099999999994 22.4916999999995 0.584199999999989
  endloop
endfacet
facet normal -1.0 0.0 0.0
  outer loop
    vertex -29.2099999999994 22.4916999999995 0.584199999999989
    vertex -29.2099999999994 21.3232999999995 0.584199999999988
    vertex -29.2099999999994 22.4916999999995 1.16839999999997
  endloop
endfacet
facet normal -1.0 0.0 0.0
  outer loop
    vertex -29.2099999999994 23.6600999999995 0.0
    vertex -29.2099999999994 22.4916999999995 0.584199999999989
    vertex -29.2099999999994 23.0758999999995 0.584199999999989
  endloop
endfacet
facet normal -1.0 0.0 0.0
  outer loop
    vertex -29.2099999999994 23.6600999999995 0.0
    vertex -29.2099999999994 23.0758999999995 0.584199999999989
    vertex -29.2099999999994 23.6600999999995 1.16839999999997
  endloop
endfacet
facet normal 0.0 0.0 -1.0
  outer loop
    vertex 29.2099999999994 23.6600999999995 0.0
    vertex -29.2099999999994 0.0 0.0
    vertex -29.2099999999994 23.6600999999995 0.0
  endloop
endfacet
facet normal 0.0 0.0 -1.0
  outer loop
    vertex -29.2099999999994 0.0 0.0
    vertex 29.2099999999994 23.6600999999995 0.0
    vertex 29.2099999999994 0.0 0.0
  endloop
endfacet
facet normal 0.0 1.0 0.0
  outer loop
    vertex -29.2099999999994 23.6600999999995 1.16839999999997
    vertex 29.2099999999994 23.6600999999995 0.0
    vertex -29.2099999999994 23.6600999999995 0.0
  endloop
endfacet
facet normal 0.0 1.0 0.0
  outer loop
    vertex 29.2099999999994 23.6600999999995 0.0
    vertex -29.2099999999994 23.6600999999995 1.16839999999997
    vertex 29.2099999999994 23.6600999999995 1.16839999999997
  endloop
endfacet
facet normal 0.0 0.0 1.0
  outer loop
    vertex 29.2099999999994 20.7390999999996 0.584199999999988
    vertex -29.2099999999994 21.3232999999995 0.584199999999988
    vertex -29.2099999999994 20.7390999999996 0.584199999999988
  endloop
endfacet
facet normal 0.0 0.0 1.0
  outer loop
    vertex -29.2099999999994 21.3232999999995 0.584199999999988
    vertex 29.2099999999994 20.7390999999996 0.584199999999988
    vertex 29.2099999999994 21.3232999999995 0.584199999999988
  endloop
endfacet
facet normal 0.0 0.0 1.0
  outer loop
    vertex 29.2099999999994 23.0758999999995 1.16839999999997
    vertex -29.2099999999994 23.6600999999995 1.16839999999997
    vertex -29.2099999999994 23.0758999999995 1.16839999999997
  endloop
endfacet
facet normal 0.0 0.0 1.0
  outer loop
    vertex -29.2099999999994 23.6600999999995 1.16839999999997
    vertex 29.2099999999994 23.0758999999995 1.16839999999997
    vertex 29.2099999999994 23.6600999999995 1.16839999999997
  endloop
endfacet
facet normal 0.0 -1.0 0.0
  outer loop
    vertex 29.2099999999994 21.3232999999995 1.16839999999997
    vertex -29.2099999999994 21.3232999999995 0.584199999999988
    vertex 29.2099999999994 21.3232999999995 0.584199999999988
  endloop
endfacet
facet normal 0.0 -1.0 0.0
  outer loop
    vertex -29.2099999999994 21.3232999999995 0.584199999999988
    vertex 29.2099999999994 21.3232999999995 1.16839999999997
    vertex -29.2099999999994 21.3232999999995 1.16839999999997
  endloop
endfacet
facet normal 0.0 0.0 1.0
  outer loop
    vertex 29.2099999999994 21.3232999999995 1.16839999999997
    vertex -29.2099999999994 22.4916999999995 1.16839999999997
    vertex -29.2099999999994 21.3232999999995 1.16839999999997
  endloop
endfacet
facet normal 0.0 0.0 1.0
  outer loop
    vertex -29.2099999999994 22.4916999999995 1.16839999999997
    vertex 29.2099999999994 21.3232999999995 1.16839999999997
    vertex 29.2099999999994 22.4916999999995 1.16839999999997
  endloop
endfacet
facet normal 0.0 0.0 1.0
  outer loop
    vertex 29.2099999999994 22.4916999999995 0.584199999999989
    vertex -29.2099999999994 23.0758999999995 0.584199999999989
    vertex -29.2099999999994 22.4916999999995 0.584199999999989
  endloop
endfacet
facet normal 0.0 0.0 1.0
  outer loop
    vertex -29.2099999999994 23.0758999999995 0.584199999999989
    vertex 29.2099999999994 22.4916999999995 0.584199999999989
    vertex 29.2099999999994 23.0758999999995 0.584199999999989
  endloop
endfacet
facet normal 0.0 1.0 0.0
  outer loop
    vertex -29.2099999999994 22.4916999999995 1.16839999999997
    vertex 29.2099999999994 22.4916999999995 0.584199999999989
    vertex -29.2099999999994 22.4916999999995 0.584199999999989
  endloop
endfacet
facet normal 0.0 1.0 0.0
  outer loop
    vertex 29.2099999999994 22.4916999999995 0.584199999999989
    vertex -29.2099999999994 22.4916999999995 1.16839999999997
    vertex 29.2099999999994 22.4916999999995 1.16839999999997
  endloop
endfacet
facet normal 0.0 -1.0 0.0
  outer loop
    vertex 29.2099999999994 23.0758999999995 1.16839999999997
    vertex -29.2099999999994 23.0758999999995 0.584199999999989
    vertex 29.2099999999994 23.0758999999995 0.584199999999989
  endloop
endfacet
facet normal 0.0 -1.0 0.0
  outer loop
    vertex -29.2099999999994 23.0758999999995 0.584199999999989
    vertex 29.2099999999994 23.0758999999995 1.16839999999997
    vertex -29.2099999999994 23.0758999999995 1.16839999999997
  endloop
endfacet
facet normal 0.0 0.0 1.0
  outer loop
    vertex 24.3173249999994 3.79729999999992 1.16839999999996
    vertex -24.3164121874995 4.96569999999989 1.16839999999996
    vertex -24.3164121874995 3.79729999999992 1.16839999999996
  endloop
endfacet
facet normal 0.0 0.0 1.0
  outer loop
    vertex -24.3164121874995 4.96569999999989 1.16839999999996
    vertex 24.3173249999994 3.79729999999992 1.16839999999996
    vertex 24.3173249999994 4.96569999999989 1.16839999999996
  endloop
endfacet
facet normal -6.40140605425869e-017 2.66453525910038e-015 1.0
  outer loop
    vertex 24.3173249999994 2.04469999999996 1.16839999999997
    vertex -24.3164121874995 3.21309999999993 1.16839999999996
    vertex -24.3164121874995 2.04469999999996 1.16839999999996
  endloop
endfacet
facet normal -6.40140605425869e-017 2.66453525910038e-015 1.0
  outer loop
    vertex -24.3164121874995 3.21309999999993 1.16839999999996
    vertex 24.3173249999994 2.04469999999996 1.16839999999997
    vertex 24.3173249999994 3.21309999999993 1.16839999999996
  endloop
endfacet
facet normal 0.0 0.0 1.0
  outer loop
    vertex 24.3173249999994 0.0 1.16839999999996
    vertex -24.3164121874995 1.46049999999997 1.16839999999996
    vertex -24.3164121874995 0.0 1.16839999999996
  endloop
endfacet
facet normal 0.0 0.0 1.0
  outer loop
    vertex -24.3164121874995 1.46049999999997 1.16839999999996
    vertex 24.3173249999994 0.0 1.16839999999996
    vertex 24.3173249999994 1.46049999999997 1.16839999999996
  endloop
endfacet
facet normal 1.0 0.0 0.0
  outer loop
    vertex 24.3173249999994 1.46049999999997 0.584199999999988
    vertex 24.3173249999994 0.0 1.16839999999996
    vertex 24.3173249999994 0.0 0.584199999999988
  endloop
endfacet
facet normal 1.0 0.0 0.0
  outer loop
    vertex 24.3173249999994 0.0 1.16839999999996
    vertex 24.3173249999994 1.46049999999997 0.584199999999988
    vertex 24.3173249999994 1.46049999999997 1.16839999999996
  endloop
endfacet
facet normal 1.0 0.0 0.0
  outer loop
    vertex 24.3173249999994 3.21309999999993 0.584199999999985
    vertex 24.3173249999994 2.04469999999996 1.16839999999997
    vertex 24.3173249999994 2.04469999999995 0.584199999999992
  endloop
endfacet
facet normal 1.0 0.0 0.0
  outer loop
    vertex 24.3173249999994 2.04469999999996 1.16839999999997
    vertex 24.3173249999994 3.21309999999993 0.584199999999985
    vertex 24.3173249999994 3.21309999999993 1.16839999999996
  endloop
endfacet
facet normal 1.0 0.0 0.0
  outer loop
    vertex 24.3173249999994 4.96569999999989 0.584199999999988
    vertex 24.3173249999994 3.79729999999992 1.16839999999996
    vertex 24.3173249999994 3.79729999999992 0.584199999999988
  endloop
endfacet
facet normal 1.0 0.0 0.0
  outer loop
    vertex 24.3173249999994 3.79729999999992 1.16839999999996
    vertex 24.3173249999994 4.96569999999989 0.584199999999988
    vertex 24.3173249999994 4.96569999999989 1.16839999999996
  endloop
endfacet
facet normal -1.0 0.0 0.0
  outer loop
    vertex -24.3164121874995 1.46049999999997 1.16839999999996
    vertex -24.3164121874995 0.0 0.584199999999988
    vertex -24.3164121874995 0.0 1.16839999999996
  endloop
endfacet
facet normal -1.0 0.0 0.0
  outer loop
    vertex -24.3164121874995 0.0 0.584199999999988
    vertex -24.3164121874995 1.46049999999997 1.16839999999996
    vertex -24.3164121874995 1.46049999999997 0.584199999999988
  endloop
endfacet
facet normal -1.0 3.5527136788005e-015 0.0
  outer loop
    vertex -24.3164121874995 3.21309999999993 1.16839999999996
    vertex -24.3164121874995 2.04469999999996 0.584199999999988
    vertex -24.3164121874995 2.04469999999996 1.16839999999996
  endloop
endfacet
facet normal -1.0 3.5527136788005e-015 0.0
  outer loop
    vertex -24.3164121874995 2.04469999999996 0.584199999999988
    vertex -24.3164121874995 3.21309999999993 1.16839999999996
    vertex -24.3164121874995 3.21309999999993 0.584199999999988
  endloop
endfacet
facet normal -1.0 3.5527136788005e-015 0.0
  outer loop
    vertex -24.3164121874995 4.96569999999989 1.16839999999996
    vertex -24.3164121874995 3.79729999999992 0.584199999999988
    vertex -24.3164121874995 3.79729999999992 1.16839999999996
  endloop
endfacet
facet normal -1.0 3.5527136788005e-015 0.0
  outer loop
    vertex -24.3164121874995 3.79729999999992 0.584199999999988
    vertex -24.3164121874995 4.96569999999989 1.16839999999996
    vertex -24.3164121874995 4.96569999999989 0.584199999999988
  endloop
endfacet
endsolid Untitled-5e3b565b
