; NON-PLATED HOLES START AT T1
; THROUGH (PLATED) HOLES START AT T100
M48
INCH
T100C0.031497
%
T100
X003119Y020240
X029104Y009807
X015718Y009807
X009419Y020240
X022017Y009807
X036190Y009807
X035797Y021224
X029104Y008823
X015718Y008823
X003119Y009807
X022017Y008823
X029104Y014728
X036190Y008823
X015718Y014728
X029104Y002917
X009419Y009807
X015718Y002917
X022017Y014728
X036190Y014728
X022017Y002917
X035797Y020240
X036190Y002917
X029104Y015713
X015718Y015713
X029104Y003902
X015718Y003902
X022017Y015713
X036190Y015713
X022017Y003902
X003119Y008823
X029104Y021224
X036190Y003902
X015718Y021224
X022017Y021224
X003119Y014728
X009419Y008823
X003119Y002917
X009419Y014728
X003119Y015713
X009419Y002917
X003119Y003902
X029104Y020240
X009419Y015713
X015718Y020240
X003119Y021224
X022017Y020240
X009419Y003902
X009419Y021224
T00
M30
