G04 MADE WITH FRITZING*
G04 WWW.FRITZING.ORG*
G04 SINGLE SIDED*
G04 HOLES NOT PLATED*
G04 CONTOUR ON CENTER OF CONTOUR VECTOR*
%ASAXBY*%
%FSLAX23Y23*%
%MOIN*%
%OFA0B0*%
%SFA1.0B1.0*%
%ADD10C,0.072992*%
%ADD11R,0.072992X0.072992*%
%LNMASK0*%
G90*
G70*
G54D10*
X3580Y2024D03*
X3580Y2122D03*
X312Y2024D03*
X312Y2122D03*
X1572Y1473D03*
X1572Y1571D03*
X3619Y1473D03*
X3619Y1571D03*
X3619Y292D03*
X3619Y390D03*
X1572Y2024D03*
X1572Y2122D03*
X312Y1473D03*
X312Y1571D03*
X2910Y882D03*
X2910Y981D03*
X312Y882D03*
X312Y981D03*
X2202Y882D03*
X2202Y981D03*
X312Y292D03*
X312Y390D03*
X1572Y882D03*
X1572Y981D03*
X2910Y2024D03*
X2910Y2122D03*
X942Y1473D03*
X942Y1571D03*
X942Y292D03*
X942Y390D03*
X3619Y882D03*
X3619Y981D03*
X942Y2024D03*
X942Y2122D03*
X2910Y1473D03*
X2910Y1571D03*
X2910Y292D03*
X2910Y390D03*
X2202Y292D03*
X2202Y390D03*
X2202Y1473D03*
X2202Y1571D03*
X2202Y2024D03*
X2202Y2122D03*
X1572Y292D03*
X1572Y390D03*
X942Y882D03*
X942Y981D03*
G54D11*
X3580Y2024D03*
X312Y2024D03*
X1572Y1473D03*
X3619Y1473D03*
X3619Y292D03*
X1572Y2024D03*
X312Y1473D03*
X2910Y882D03*
X312Y882D03*
X2202Y882D03*
X312Y292D03*
X1572Y882D03*
X2910Y2024D03*
X942Y1473D03*
X942Y292D03*
X3619Y882D03*
X942Y2024D03*
X2910Y1473D03*
X2910Y292D03*
X2202Y292D03*
X2202Y1473D03*
X2202Y2024D03*
X1572Y292D03*
X942Y882D03*
G04 End of Mask0*
M02*