solid OpenSCAD_Model
  facet normal -0.992709 -0.120538 0
    outer loop
      vertex 8.8 5 0
      vertex 8.74188 5.47863 1.2
      vertex 8.74188 5.47863 0
    endloop
  endfacet
  facet normal -0.992709 -0.120538 0
    outer loop
      vertex 8.74188 5.47863 1.2
      vertex 8.8 5 0
      vertex 8.8 5 1.2
    endloop
  endfacet
  facet normal 0.992709 -0.120538 0
    outer loop
      vertex 4.8 5 1.2
      vertex 4.85812 5.47863 0
      vertex 4.85812 5.47863 1.2
    endloop
  endfacet
  facet normal 0.992709 -0.120538 0
    outer loop
      vertex 4.85812 5.47863 0
      vertex 4.8 5 1.2
      vertex 4.8 5 0
    endloop
  endfacet
  facet normal 0 -1 0
    outer loop
      vertex 6.55893 6.98542 0
      vertex 7.04107 6.98542 1.2
      vertex 6.55893 6.98542 1.2
    endloop
  endfacet
  facet normal 0 -1 -0
    outer loop
      vertex 7.04107 6.98542 1.2
      vertex 6.55893 6.98542 0
      vertex 7.04107 6.98542 0
    endloop
  endfacet
  facet normal 0 1 -0
    outer loop
      vertex 7.04107 3.01458 0
      vertex 6.55893 3.01458 1.2
      vertex 7.04107 3.01458 1.2
    endloop
  endfacet
  facet normal 0 1 0
    outer loop
      vertex 6.55893 3.01458 1.2
      vertex 7.04107 3.01458 0
      vertex 6.55893 3.01458 0
    endloop
  endfacet
  facet normal -0.239315 0.970942 0
    outer loop
      vertex 7.50921 3.12997 0
      vertex 7.04107 3.01458 1.2
      vertex 7.50921 3.12997 1.2
    endloop
  endfacet
  facet normal -0.239315 0.970942 0
    outer loop
      vertex 7.04107 3.01458 1.2
      vertex 7.50921 3.12997 0
      vertex 7.04107 3.01458 0
    endloop
  endfacet
  facet normal -0.663123 -0.74851 0
    outer loop
      vertex 7.93613 6.64597 0
      vertex 8.29702 6.32625 1.2
      vertex 7.93613 6.64597 1.2
    endloop
  endfacet
  facet normal -0.663123 -0.74851 -0
    outer loop
      vertex 8.29702 6.32625 1.2
      vertex 7.93613 6.64597 0
      vertex 8.29702 6.32625 0
    endloop
  endfacet
  facet normal -0.935016 -0.354605 0
    outer loop
      vertex 8.74188 5.47863 0
      vertex 8.57091 5.92945 1.2
      vertex 8.57091 5.92945 0
    endloop
  endfacet
  facet normal -0.935016 -0.354605 0
    outer loop
      vertex 8.57091 5.92945 1.2
      vertex 8.74188 5.47863 0
      vertex 8.74188 5.47863 1.2
    endloop
  endfacet
  facet normal -0.464723 -0.885456 0
    outer loop
      vertex 7.50921 6.87003 0
      vertex 7.93613 6.64597 1.2
      vertex 7.50921 6.87003 1.2
    endloop
  endfacet
  facet normal -0.464723 -0.885456 -0
    outer loop
      vertex 7.93613 6.64597 1.2
      vertex 7.50921 6.87003 0
      vertex 7.93613 6.64597 0
    endloop
  endfacet
  facet normal 0.663123 -0.74851 0
    outer loop
      vertex 5.30298 6.32625 0
      vertex 5.66387 6.64597 1.2
      vertex 5.30298 6.32625 1.2
    endloop
  endfacet
  facet normal 0.663123 -0.74851 0
    outer loop
      vertex 5.66387 6.64597 1.2
      vertex 5.30298 6.32625 0
      vertex 5.66387 6.64597 0
    endloop
  endfacet
  facet normal 0.822984 -0.568065 0
    outer loop
      vertex 5.02909 5.92945 1.2
      vertex 5.30298 6.32625 0
      vertex 5.30298 6.32625 1.2
    endloop
  endfacet
  facet normal 0.822984 -0.568065 0
    outer loop
      vertex 5.30298 6.32625 0
      vertex 5.02909 5.92945 1.2
      vertex 5.02909 5.92945 0
    endloop
  endfacet
  facet normal 0.239315 -0.970942 0
    outer loop
      vertex 6.09079 6.87003 0
      vertex 6.55893 6.98542 1.2
      vertex 6.09079 6.87003 1.2
    endloop
  endfacet
  facet normal 0.239315 -0.970942 0
    outer loop
      vertex 6.55893 6.98542 1.2
      vertex 6.09079 6.87003 0
      vertex 6.55893 6.98542 0
    endloop
  endfacet
  facet normal -0.822984 -0.568065 0
    outer loop
      vertex 8.57091 5.92945 0
      vertex 8.29702 6.32625 1.2
      vertex 8.29702 6.32625 0
    endloop
  endfacet
  facet normal -0.822984 -0.568065 0
    outer loop
      vertex 8.29702 6.32625 1.2
      vertex 8.57091 5.92945 0
      vertex 8.57091 5.92945 1.2
    endloop
  endfacet
  facet normal -0.239315 -0.970942 0
    outer loop
      vertex 7.04107 6.98542 0
      vertex 7.50921 6.87003 1.2
      vertex 7.04107 6.98542 1.2
    endloop
  endfacet
  facet normal -0.239315 -0.970942 -0
    outer loop
      vertex 7.50921 6.87003 1.2
      vertex 7.04107 6.98542 0
      vertex 7.50921 6.87003 0
    endloop
  endfacet
  facet normal 0.935016 -0.354605 0
    outer loop
      vertex 4.85812 5.47863 1.2
      vertex 5.02909 5.92945 0
      vertex 5.02909 5.92945 1.2
    endloop
  endfacet
  facet normal 0.935016 -0.354605 0
    outer loop
      vertex 5.02909 5.92945 0
      vertex 4.85812 5.47863 1.2
      vertex 4.85812 5.47863 0
    endloop
  endfacet
  facet normal 0.464723 -0.885456 0
    outer loop
      vertex 5.66387 6.64597 0
      vertex 6.09079 6.87003 1.2
      vertex 5.66387 6.64597 1.2
    endloop
  endfacet
  facet normal 0.464723 -0.885456 0
    outer loop
      vertex 6.09079 6.87003 1.2
      vertex 5.66387 6.64597 0
      vertex 6.09079 6.87003 0
    endloop
  endfacet
  facet normal -0.992709 0.120538 0
    outer loop
      vertex 8.74188 4.52137 0
      vertex 8.8 5 1.2
      vertex 8.8 5 0
    endloop
  endfacet
  facet normal -0.992709 0.120538 0
    outer loop
      vertex 8.8 5 1.2
      vertex 8.74188 4.52137 0
      vertex 8.74188 4.52137 1.2
    endloop
  endfacet
  facet normal -0.822984 0.568065 0
    outer loop
      vertex 8.29702 3.67375 0
      vertex 8.57091 4.07055 1.2
      vertex 8.57091 4.07055 0
    endloop
  endfacet
  facet normal -0.822984 0.568065 0
    outer loop
      vertex 8.57091 4.07055 1.2
      vertex 8.29702 3.67375 0
      vertex 8.29702 3.67375 1.2
    endloop
  endfacet
  facet normal 0.822984 0.568065 0
    outer loop
      vertex 5.30298 3.67375 1.2
      vertex 5.02909 4.07055 0
      vertex 5.02909 4.07055 1.2
    endloop
  endfacet
  facet normal 0.822984 0.568065 0
    outer loop
      vertex 5.02909 4.07055 0
      vertex 5.30298 3.67375 1.2
      vertex 5.30298 3.67375 0
    endloop
  endfacet
  facet normal -0.464723 0.885456 0
    outer loop
      vertex 7.93613 3.35403 0
      vertex 7.50921 3.12997 1.2
      vertex 7.93613 3.35403 1.2
    endloop
  endfacet
  facet normal -0.464723 0.885456 0
    outer loop
      vertex 7.50921 3.12997 1.2
      vertex 7.93613 3.35403 0
      vertex 7.50921 3.12997 0
    endloop
  endfacet
  facet normal -0.935016 0.354605 0
    outer loop
      vertex 8.57091 4.07055 0
      vertex 8.74188 4.52137 1.2
      vertex 8.74188 4.52137 0
    endloop
  endfacet
  facet normal -0.935016 0.354605 0
    outer loop
      vertex 8.74188 4.52137 1.2
      vertex 8.57091 4.07055 0
      vertex 8.57091 4.07055 1.2
    endloop
  endfacet
  facet normal 0.239315 0.970942 -0
    outer loop
      vertex 6.55893 3.01458 0
      vertex 6.09079 3.12997 1.2
      vertex 6.55893 3.01458 1.2
    endloop
  endfacet
  facet normal 0.239315 0.970942 0
    outer loop
      vertex 6.09079 3.12997 1.2
      vertex 6.55893 3.01458 0
      vertex 6.09079 3.12997 0
    endloop
  endfacet
  facet normal 0.663123 0.74851 -0
    outer loop
      vertex 5.66387 3.35403 0
      vertex 5.30298 3.67375 1.2
      vertex 5.66387 3.35403 1.2
    endloop
  endfacet
  facet normal 0.663123 0.74851 0
    outer loop
      vertex 5.30298 3.67375 1.2
      vertex 5.66387 3.35403 0
      vertex 5.30298 3.67375 0
    endloop
  endfacet
  facet normal 0.935016 0.354605 0
    outer loop
      vertex 5.02909 4.07055 1.2
      vertex 4.85812 4.52137 0
      vertex 4.85812 4.52137 1.2
    endloop
  endfacet
  facet normal 0.935016 0.354605 0
    outer loop
      vertex 4.85812 4.52137 0
      vertex 5.02909 4.07055 1.2
      vertex 5.02909 4.07055 0
    endloop
  endfacet
  facet normal 0.992709 0.120538 0
    outer loop
      vertex 4.85812 4.52137 1.2
      vertex 4.8 5 0
      vertex 4.8 5 1.2
    endloop
  endfacet
  facet normal 0.992709 0.120538 0
    outer loop
      vertex 4.8 5 0
      vertex 4.85812 4.52137 1.2
      vertex 4.85812 4.52137 0
    endloop
  endfacet
  facet normal -0.663123 0.74851 0
    outer loop
      vertex 8.29702 3.67375 0
      vertex 7.93613 3.35403 1.2
      vertex 8.29702 3.67375 1.2
    endloop
  endfacet
  facet normal -0.663123 0.74851 0
    outer loop
      vertex 7.93613 3.35403 1.2
      vertex 8.29702 3.67375 0
      vertex 7.93613 3.35403 0
    endloop
  endfacet
  facet normal 0.464723 0.885456 -0
    outer loop
      vertex 6.09079 3.12997 0
      vertex 5.66387 3.35403 1.2
      vertex 6.09079 3.12997 1.2
    endloop
  endfacet
  facet normal 0.464723 0.885456 0
    outer loop
      vertex 5.66387 3.35403 1.2
      vertex 6.09079 3.12997 0
      vertex 5.66387 3.35403 0
    endloop
  endfacet
  facet normal -0.992709 -0.120538 0
    outer loop
      vertex 8.8 46.4 0
      vertex 8.74188 46.8786 1.2
      vertex 8.74188 46.8786 0
    endloop
  endfacet
  facet normal -0.992709 -0.120538 0
    outer loop
      vertex 8.74188 46.8786 1.2
      vertex 8.8 46.4 0
      vertex 8.8 46.4 1.2
    endloop
  endfacet
  facet normal 0.992709 -0.120538 0
    outer loop
      vertex 4.8 46.4 1.2
      vertex 4.85812 46.8786 0
      vertex 4.85812 46.8786 1.2
    endloop
  endfacet
  facet normal 0.992709 -0.120538 0
    outer loop
      vertex 4.85812 46.8786 0
      vertex 4.8 46.4 1.2
      vertex 4.8 46.4 0
    endloop
  endfacet
  facet normal 0 -1 0
    outer loop
      vertex 6.55893 48.3854 0
      vertex 7.04107 48.3854 1.2
      vertex 6.55893 48.3854 1.2
    endloop
  endfacet
  facet normal 0 -1 -0
    outer loop
      vertex 7.04107 48.3854 1.2
      vertex 6.55893 48.3854 0
      vertex 7.04107 48.3854 0
    endloop
  endfacet
  facet normal 0 1 -0
    outer loop
      vertex 7.04107 44.4146 0
      vertex 6.55893 44.4146 1.2
      vertex 7.04107 44.4146 1.2
    endloop
  endfacet
  facet normal 0 1 0
    outer loop
      vertex 6.55893 44.4146 1.2
      vertex 7.04107 44.4146 0
      vertex 6.55893 44.4146 0
    endloop
  endfacet
  facet normal -0.663122 -0.748511 0
    outer loop
      vertex 7.93613 48.046 0
      vertex 8.29702 47.7262 1.2
      vertex 7.93613 48.046 1.2
    endloop
  endfacet
  facet normal -0.663122 -0.748511 -0
    outer loop
      vertex 8.29702 47.7262 1.2
      vertex 7.93613 48.046 0
      vertex 8.29702 47.7262 0
    endloop
  endfacet
  facet normal -0.935016 -0.354607 0
    outer loop
      vertex 8.74188 46.8786 0
      vertex 8.57091 47.3294 1.2
      vertex 8.57091 47.3294 0
    endloop
  endfacet
  facet normal -0.935016 -0.354607 0
    outer loop
      vertex 8.57091 47.3294 1.2
      vertex 8.74188 46.8786 0
      vertex 8.74188 46.8786 1.2
    endloop
  endfacet
  facet normal -0.464722 -0.885457 0
    outer loop
      vertex 7.50921 48.27 0
      vertex 7.93613 48.046 1.2
      vertex 7.50921 48.27 1.2
    endloop
  endfacet
  facet normal -0.464722 -0.885457 -0
    outer loop
      vertex 7.93613 48.046 1.2
      vertex 7.50921 48.27 0
      vertex 7.93613 48.046 0
    endloop
  endfacet
  facet normal 0.663122 -0.748511 0
    outer loop
      vertex 5.30298 47.7262 0
      vertex 5.66387 48.046 1.2
      vertex 5.30298 47.7262 1.2
    endloop
  endfacet
  facet normal 0.663122 -0.748511 0
    outer loop
      vertex 5.66387 48.046 1.2
      vertex 5.30298 47.7262 0
      vertex 5.66387 48.046 0
    endloop
  endfacet
  facet normal 0.822985 -0.568063 0
    outer loop
      vertex 5.02909 47.3294 1.2
      vertex 5.30298 47.7262 0
      vertex 5.30298 47.7262 1.2
    endloop
  endfacet
  facet normal 0.822985 -0.568063 0
    outer loop
      vertex 5.30298 47.7262 0
      vertex 5.02909 47.3294 1.2
      vertex 5.02909 47.3294 0
    endloop
  endfacet
  facet normal 0.239319 -0.970941 0
    outer loop
      vertex 6.09079 48.27 0
      vertex 6.55893 48.3854 1.2
      vertex 6.09079 48.27 1.2
    endloop
  endfacet
  facet normal 0.239319 -0.970941 0
    outer loop
      vertex 6.55893 48.3854 1.2
      vertex 6.09079 48.27 0
      vertex 6.55893 48.3854 0
    endloop
  endfacet
  facet normal -0.822985 -0.568063 0
    outer loop
      vertex 8.57091 47.3294 0
      vertex 8.29702 47.7262 1.2
      vertex 8.29702 47.7262 0
    endloop
  endfacet
  facet normal -0.822985 -0.568063 0
    outer loop
      vertex 8.29702 47.7262 1.2
      vertex 8.57091 47.3294 0
      vertex 8.57091 47.3294 1.2
    endloop
  endfacet
  facet normal -0.239319 -0.970941 0
    outer loop
      vertex 7.04107 48.3854 0
      vertex 7.50921 48.27 1.2
      vertex 7.04107 48.3854 1.2
    endloop
  endfacet
  facet normal -0.239319 -0.970941 -0
    outer loop
      vertex 7.50921 48.27 1.2
      vertex 7.04107 48.3854 0
      vertex 7.50921 48.27 0
    endloop
  endfacet
  facet normal 0.935016 -0.354607 0
    outer loop
      vertex 4.85812 46.8786 1.2
      vertex 5.02909 47.3294 0
      vertex 5.02909 47.3294 1.2
    endloop
  endfacet
  facet normal 0.935016 -0.354607 0
    outer loop
      vertex 5.02909 47.3294 0
      vertex 4.85812 46.8786 1.2
      vertex 4.85812 46.8786 0
    endloop
  endfacet
  facet normal 0.464722 -0.885457 0
    outer loop
      vertex 5.66387 48.046 0
      vertex 6.09079 48.27 1.2
      vertex 5.66387 48.046 1.2
    endloop
  endfacet
  facet normal 0.464722 -0.885457 0
    outer loop
      vertex 6.09079 48.27 1.2
      vertex 5.66387 48.046 0
      vertex 6.09079 48.27 0
    endloop
  endfacet
  facet normal -0.992709 0.120537 0
    outer loop
      vertex 8.74188 45.9214 0
      vertex 8.8 46.4 1.2
      vertex 8.8 46.4 0
    endloop
  endfacet
  facet normal -0.992709 0.120537 0
    outer loop
      vertex 8.8 46.4 1.2
      vertex 8.74188 45.9214 0
      vertex 8.74188 45.9214 1.2
    endloop
  endfacet
  facet normal -0.663122 0.748511 0
    outer loop
      vertex 8.29702 45.0738 0
      vertex 7.93613 44.754 1.2
      vertex 8.29702 45.0738 1.2
    endloop
  endfacet
  facet normal -0.663122 0.748511 0
    outer loop
      vertex 7.93613 44.754 1.2
      vertex 8.29702 45.0738 0
      vertex 7.93613 44.754 0
    endloop
  endfacet
  facet normal -0.822985 0.568063 0
    outer loop
      vertex 8.29702 45.0738 0
      vertex 8.57091 45.4706 1.2
      vertex 8.57091 45.4706 0
    endloop
  endfacet
  facet normal -0.822985 0.568063 0
    outer loop
      vertex 8.57091 45.4706 1.2
      vertex 8.29702 45.0738 0
      vertex 8.29702 45.0738 1.2
    endloop
  endfacet
  facet normal 0.464722 0.885457 -0
    outer loop
      vertex 6.09079 44.53 0
      vertex 5.66387 44.754 1.2
      vertex 6.09079 44.53 1.2
    endloop
  endfacet
  facet normal 0.464722 0.885457 0
    outer loop
      vertex 5.66387 44.754 1.2
      vertex 6.09079 44.53 0
      vertex 5.66387 44.754 0
    endloop
  endfacet
  facet normal 0.822985 0.568063 0
    outer loop
      vertex 5.30298 45.0738 1.2
      vertex 5.02909 45.4706 0
      vertex 5.02909 45.4706 1.2
    endloop
  endfacet
  facet normal 0.822985 0.568063 0
    outer loop
      vertex 5.02909 45.4706 0
      vertex 5.30298 45.0738 1.2
      vertex 5.30298 45.0738 0
    endloop
  endfacet
  facet normal 0.992709 0.120537 0
    outer loop
      vertex 4.85812 45.9214 1.2
      vertex 4.8 46.4 0
      vertex 4.8 46.4 1.2
    endloop
  endfacet
  facet normal 0.992709 0.120537 0
    outer loop
      vertex 4.8 46.4 0
      vertex 4.85812 45.9214 1.2
      vertex 4.85812 45.9214 0
    endloop
  endfacet
  facet normal -0.935016 0.354607 0
    outer loop
      vertex 8.57091 45.4706 0
      vertex 8.74188 45.9214 1.2
      vertex 8.74188 45.9214 0
    endloop
  endfacet
  facet normal -0.935016 0.354607 0
    outer loop
      vertex 8.74188 45.9214 1.2
      vertex 8.57091 45.4706 0
      vertex 8.57091 45.4706 1.2
    endloop
  endfacet
  facet normal 0.663122 0.748511 -0
    outer loop
      vertex 5.66387 44.754 0
      vertex 5.30298 45.0738 1.2
      vertex 5.66387 44.754 1.2
    endloop
  endfacet
  facet normal 0.663122 0.748511 0
    outer loop
      vertex 5.30298 45.0738 1.2
      vertex 5.66387 44.754 0
      vertex 5.30298 45.0738 0
    endloop
  endfacet
  facet normal 0.935016 0.354607 0
    outer loop
      vertex 5.02909 45.4706 1.2
      vertex 4.85812 45.9214 0
      vertex 4.85812 45.9214 1.2
    endloop
  endfacet
  facet normal 0.935016 0.354607 0
    outer loop
      vertex 4.85812 45.9214 0
      vertex 5.02909 45.4706 1.2
      vertex 5.02909 45.4706 0
    endloop
  endfacet
  facet normal -0.464722 0.885457 0
    outer loop
      vertex 7.93613 44.754 0
      vertex 7.50921 44.53 1.2
      vertex 7.93613 44.754 1.2
    endloop
  endfacet
  facet normal -0.464722 0.885457 0
    outer loop
      vertex 7.50921 44.53 1.2
      vertex 7.93613 44.754 0
      vertex 7.50921 44.53 0
    endloop
  endfacet
  facet normal -0.239319 0.970941 0
    outer loop
      vertex 7.50921 44.53 0
      vertex 7.04107 44.4146 1.2
      vertex 7.50921 44.53 1.2
    endloop
  endfacet
  facet normal -0.239319 0.970941 0
    outer loop
      vertex 7.04107 44.4146 1.2
      vertex 7.50921 44.53 0
      vertex 7.04107 44.4146 0
    endloop
  endfacet
  facet normal 0.239319 0.970941 -0
    outer loop
      vertex 6.55893 44.4146 0
      vertex 6.09079 44.53 1.2
      vertex 6.55893 44.4146 1.2
    endloop
  endfacet
  facet normal 0.239319 0.970941 0
    outer loop
      vertex 6.09079 44.53 1.2
      vertex 6.55893 44.4146 0
      vertex 6.09079 44.53 0
    endloop
  endfacet
  facet normal 1 -0 0
    outer loop
      vertex 0 0 10
      vertex 0 51.4 1.2
      vertex 0 51.4 10
    endloop
  endfacet
  facet normal 1 0 0
    outer loop
      vertex 0 51.4 1.2
      vertex 0 0 10
      vertex 0 0 1.2
    endloop
  endfacet
  facet normal 0 0 1
    outer loop
      vertex 12.5 51.4 1.2
      vertex 8.57091 45.4706 1.2
      vertex 12.5 0 1.2
    endloop
  endfacet
  facet normal 0 0 1
    outer loop
      vertex 12.5 0 1.2
      vertex 8.74188 5.47863 1.2
      vertex 8.8 5 1.2
    endloop
  endfacet
  facet normal -0 0 1
    outer loop
      vertex 8.57091 5.92945 1.2
      vertex 12.5 0 1.2
      vertex 8.57091 45.4706 1.2
    endloop
  endfacet
  facet normal 0 0 1
    outer loop
      vertex 12.5 0 1.2
      vertex 8.57091 5.92945 1.2
      vertex 8.74188 5.47863 1.2
    endloop
  endfacet
  facet normal -0 0 1
    outer loop
      vertex 8.29702 45.0738 1.2
      vertex 8.57091 5.92945 1.2
      vertex 8.57091 45.4706 1.2
    endloop
  endfacet
  facet normal 0 0 1
    outer loop
      vertex 8.29702 45.0738 1.2
      vertex 8.29702 6.32625 1.2
      vertex 8.57091 5.92945 1.2
    endloop
  endfacet
  facet normal -0 0 1
    outer loop
      vertex 7.93613 44.754 1.2
      vertex 8.29702 6.32625 1.2
      vertex 8.29702 45.0738 1.2
    endloop
  endfacet
  facet normal 0 0 1
    outer loop
      vertex 7.93613 44.754 1.2
      vertex 7.93613 6.64597 1.2
      vertex 8.29702 6.32625 1.2
    endloop
  endfacet
  facet normal -0 0 1
    outer loop
      vertex 7.50921 44.53 1.2
      vertex 7.93613 6.64597 1.2
      vertex 7.93613 44.754 1.2
    endloop
  endfacet
  facet normal 0 0 1
    outer loop
      vertex 7.50921 44.53 1.2
      vertex 7.50921 6.87003 1.2
      vertex 7.93613 6.64597 1.2
    endloop
  endfacet
  facet normal -0 0 1
    outer loop
      vertex 7.04107 44.4146 1.2
      vertex 7.50921 6.87003 1.2
      vertex 7.50921 44.53 1.2
    endloop
  endfacet
  facet normal 0 0 1
    outer loop
      vertex 7.04107 44.4146 1.2
      vertex 7.04107 6.98542 1.2
      vertex 7.50921 6.87003 1.2
    endloop
  endfacet
  facet normal -0 0 1
    outer loop
      vertex 6.55893 44.4146 1.2
      vertex 7.04107 6.98542 1.2
      vertex 7.04107 44.4146 1.2
    endloop
  endfacet
  facet normal 0 0 1
    outer loop
      vertex 6.55893 44.4146 1.2
      vertex 6.55893 6.98542 1.2
      vertex 7.04107 6.98542 1.2
    endloop
  endfacet
  facet normal 0 0 1
    outer loop
      vertex 6.09079 44.53 1.2
      vertex 6.55893 6.98542 1.2
      vertex 6.55893 44.4146 1.2
    endloop
  endfacet
  facet normal 0 0 1
    outer loop
      vertex 6.09079 44.53 1.2
      vertex 6.09079 6.87003 1.2
      vertex 6.55893 6.98542 1.2
    endloop
  endfacet
  facet normal 0 0 1
    outer loop
      vertex 5.66387 44.754 1.2
      vertex 6.09079 6.87003 1.2
      vertex 6.09079 44.53 1.2
    endloop
  endfacet
  facet normal 0 0 1
    outer loop
      vertex 5.66387 44.754 1.2
      vertex 5.66387 6.64597 1.2
      vertex 6.09079 6.87003 1.2
    endloop
  endfacet
  facet normal 0 0 1
    outer loop
      vertex 5.30298 45.0738 1.2
      vertex 5.66387 6.64597 1.2
      vertex 5.66387 44.754 1.2
    endloop
  endfacet
  facet normal 0 0 1
    outer loop
      vertex 5.30298 45.0738 1.2
      vertex 5.30298 6.32625 1.2
      vertex 5.66387 6.64597 1.2
    endloop
  endfacet
  facet normal 0 0 1
    outer loop
      vertex 5.02909 45.4706 1.2
      vertex 5.30298 6.32625 1.2
      vertex 5.30298 45.0738 1.2
    endloop
  endfacet
  facet normal 0 0 1
    outer loop
      vertex 5.02909 45.4706 1.2
      vertex 5.02909 5.92945 1.2
      vertex 5.30298 6.32625 1.2
    endloop
  endfacet
  facet normal 0 0 1
    outer loop
      vertex 0 51.4 1.2
      vertex 5.02909 45.4706 1.2
      vertex 4.85812 45.9214 1.2
    endloop
  endfacet
  facet normal 0 0 1
    outer loop
      vertex 5.02909 45.4706 1.2
      vertex 0 51.4 1.2
      vertex 5.02909 5.92945 1.2
    endloop
  endfacet
  facet normal 0 0 1
    outer loop
      vertex 0 51.4 1.2
      vertex 4.85812 45.9214 1.2
      vertex 4.8 46.4 1.2
    endloop
  endfacet
  facet normal 0 0 1
    outer loop
      vertex 0 0 1.2
      vertex 5.02909 5.92945 1.2
      vertex 0 51.4 1.2
    endloop
  endfacet
  facet normal 0 0 1
    outer loop
      vertex 8.74188 45.9214 1.2
      vertex 12.5 51.4 1.2
      vertex 8.8 46.4 1.2
    endloop
  endfacet
  facet normal 0 0 1
    outer loop
      vertex 12.5 51.4 1.2
      vertex 8.74188 46.8786 1.2
      vertex 8.8 46.4 1.2
    endloop
  endfacet
  facet normal 0 0 1
    outer loop
      vertex 12.5 51.4 1.2
      vertex 8.57091 47.3294 1.2
      vertex 8.74188 46.8786 1.2
    endloop
  endfacet
  facet normal 0 0 1
    outer loop
      vertex 12.5 51.4 1.2
      vertex 8.29702 47.7262 1.2
      vertex 8.57091 47.3294 1.2
    endloop
  endfacet
  facet normal 0 0 1
    outer loop
      vertex 12.5 51.4 1.2
      vertex 7.93613 48.046 1.2
      vertex 8.29702 47.7262 1.2
    endloop
  endfacet
  facet normal 0 0 1
    outer loop
      vertex 12.5 51.4 1.2
      vertex 7.50921 48.27 1.2
      vertex 7.93613 48.046 1.2
    endloop
  endfacet
  facet normal 0 0 1
    outer loop
      vertex 12.5 51.4 1.2
      vertex 7.04107 48.3854 1.2
      vertex 7.50921 48.27 1.2
    endloop
  endfacet
  facet normal 0 0 1
    outer loop
      vertex 12.5 51.4 1.2
      vertex 6.55893 48.3854 1.2
      vertex 7.04107 48.3854 1.2
    endloop
  endfacet
  facet normal -0 0 1
    outer loop
      vertex 0 51.4 1.2
      vertex 6.55893 48.3854 1.2
      vertex 12.5 51.4 1.2
    endloop
  endfacet
  facet normal 0 0 1
    outer loop
      vertex 5.02909 5.92945 1.2
      vertex 0 0 1.2
      vertex 4.85812 5.47863 1.2
    endloop
  endfacet
  facet normal 0 0 1
    outer loop
      vertex 4.85812 46.8786 1.2
      vertex 0 51.4 1.2
      vertex 4.8 46.4 1.2
    endloop
  endfacet
  facet normal 0 0 1
    outer loop
      vertex 5.02909 47.3294 1.2
      vertex 0 51.4 1.2
      vertex 4.85812 46.8786 1.2
    endloop
  endfacet
  facet normal 0 0 1
    outer loop
      vertex 5.30298 47.7262 1.2
      vertex 0 51.4 1.2
      vertex 5.02909 47.3294 1.2
    endloop
  endfacet
  facet normal 0 0 1
    outer loop
      vertex 5.66387 48.046 1.2
      vertex 0 51.4 1.2
      vertex 5.30298 47.7262 1.2
    endloop
  endfacet
  facet normal 0 0 1
    outer loop
      vertex 6.09079 48.27 1.2
      vertex 0 51.4 1.2
      vertex 5.66387 48.046 1.2
    endloop
  endfacet
  facet normal 0 0 1
    outer loop
      vertex 6.55893 48.3854 1.2
      vertex 0 51.4 1.2
      vertex 6.09079 48.27 1.2
    endloop
  endfacet
  facet normal 0 0 1
    outer loop
      vertex 8.57091 45.4706 1.2
      vertex 12.5 51.4 1.2
      vertex 8.74188 45.9214 1.2
    endloop
  endfacet
  facet normal -0 0 1
    outer loop
      vertex 8.74188 4.52137 1.2
      vertex 12.5 0 1.2
      vertex 8.8 5 1.2
    endloop
  endfacet
  facet normal -0 0 1
    outer loop
      vertex 8.57091 4.07055 1.2
      vertex 12.5 0 1.2
      vertex 8.74188 4.52137 1.2
    endloop
  endfacet
  facet normal -0 0 1
    outer loop
      vertex 8.29702 3.67375 1.2
      vertex 12.5 0 1.2
      vertex 8.57091 4.07055 1.2
    endloop
  endfacet
  facet normal -0 0 1
    outer loop
      vertex 7.93613 3.35403 1.2
      vertex 12.5 0 1.2
      vertex 8.29702 3.67375 1.2
    endloop
  endfacet
  facet normal -0 0 1
    outer loop
      vertex 7.50921 3.12997 1.2
      vertex 12.5 0 1.2
      vertex 7.93613 3.35403 1.2
    endloop
  endfacet
  facet normal -0 0 1
    outer loop
      vertex 7.04107 3.01458 1.2
      vertex 12.5 0 1.2
      vertex 7.50921 3.12997 1.2
    endloop
  endfacet
  facet normal -0 0 1
    outer loop
      vertex 6.55893 3.01458 1.2
      vertex 12.5 0 1.2
      vertex 7.04107 3.01458 1.2
    endloop
  endfacet
  facet normal 0 0 1
    outer loop
      vertex 0 0 1.2
      vertex 6.55893 3.01458 1.2
      vertex 6.09079 3.12997 1.2
    endloop
  endfacet
  facet normal 0 0 1
    outer loop
      vertex 6.55893 3.01458 1.2
      vertex 0 0 1.2
      vertex 12.5 0 1.2
    endloop
  endfacet
  facet normal 0 0 1
    outer loop
      vertex 5.66387 3.35403 1.2
      vertex 0 0 1.2
      vertex 6.09079 3.12997 1.2
    endloop
  endfacet
  facet normal 0 0 1
    outer loop
      vertex 5.30298 3.67375 1.2
      vertex 0 0 1.2
      vertex 5.66387 3.35403 1.2
    endloop
  endfacet
  facet normal 0 0 1
    outer loop
      vertex 5.02909 4.07055 1.2
      vertex 0 0 1.2
      vertex 5.30298 3.67375 1.2
    endloop
  endfacet
  facet normal 0 0 1
    outer loop
      vertex 4.85812 4.52137 1.2
      vertex 0 0 1.2
      vertex 5.02909 4.07055 1.2
    endloop
  endfacet
  facet normal 0 0 1
    outer loop
      vertex 4.8 5 1.2
      vertex 0 0 1.2
      vertex 4.85812 4.52137 1.2
    endloop
  endfacet
  facet normal 0 0 1
    outer loop
      vertex 4.85812 5.47863 1.2
      vertex 0 0 1.2
      vertex 4.8 5 1.2
    endloop
  endfacet
  facet normal 1 -0 0
    outer loop
      vertex 12.5 0 1.2
      vertex 12.5 51.4 0
      vertex 12.5 51.4 1.2
    endloop
  endfacet
  facet normal 1 0 0
    outer loop
      vertex 12.5 51.4 0
      vertex 12.5 0 1.2
      vertex 12.5 0 0
    endloop
  endfacet
  facet normal 0 1 -0
    outer loop
      vertex 12.5 51.4 0
      vertex 0 51.4 1.2
      vertex 12.5 51.4 1.2
    endloop
  endfacet
  facet normal 0 1 0
    outer loop
      vertex -13.3 51.4 0
      vertex 0 51.4 1.2
      vertex 12.5 51.4 0
    endloop
  endfacet
  facet normal 0 1 0
    outer loop
      vertex 0 51.4 1.2
      vertex -13.3 51.4 0
      vertex -2 51.4 1.2
    endloop
  endfacet
  facet normal 0 1 0
    outer loop
      vertex -2 51.4 1.2
      vertex -13.3 51.4 0
      vertex -13.3 51.4 1.2
    endloop
  endfacet
  facet normal 0 1 -0
    outer loop
      vertex 0 51.4 1.2
      vertex -2 51.4 10
      vertex 0 51.4 10
    endloop
  endfacet
  facet normal 0 1 0
    outer loop
      vertex -2 51.4 10
      vertex 0 51.4 1.2
      vertex -2 51.4 1.2
    endloop
  endfacet
  facet normal 0 0 -1
    outer loop
      vertex 12.5 0 0
      vertex 8.57091 5.92945 0
      vertex 12.5 51.4 0
    endloop
  endfacet
  facet normal 0 0 -1
    outer loop
      vertex 12.5 51.4 0
      vertex 8.74188 45.9214 0
      vertex 8.8 46.4 0
    endloop
  endfacet
  facet normal 0 0 -1
    outer loop
      vertex 8.57091 45.4706 0
      vertex 12.5 51.4 0
      vertex 8.57091 5.92945 0
    endloop
  endfacet
  facet normal 0 0 -1
    outer loop
      vertex 12.5 51.4 0
      vertex 8.57091 45.4706 0
      vertex 8.74188 45.9214 0
    endloop
  endfacet
  facet normal 0 0 -1
    outer loop
      vertex 8.29702 6.32625 0
      vertex 8.57091 45.4706 0
      vertex 8.57091 5.92945 0
    endloop
  endfacet
  facet normal 0 0 -1
    outer loop
      vertex 8.29702 6.32625 0
      vertex 8.29702 45.0738 0
      vertex 8.57091 45.4706 0
    endloop
  endfacet
  facet normal 0 0 -1
    outer loop
      vertex 7.93613 6.64597 0
      vertex 8.29702 45.0738 0
      vertex 8.29702 6.32625 0
    endloop
  endfacet
  facet normal 0 0 -1
    outer loop
      vertex 7.93613 6.64597 0
      vertex 7.93613 44.754 0
      vertex 8.29702 45.0738 0
    endloop
  endfacet
  facet normal 0 0 -1
    outer loop
      vertex 7.50921 6.87003 0
      vertex 7.93613 44.754 0
      vertex 7.93613 6.64597 0
    endloop
  endfacet
  facet normal 0 0 -1
    outer loop
      vertex 7.50921 6.87003 0
      vertex 7.50921 44.53 0
      vertex 7.93613 44.754 0
    endloop
  endfacet
  facet normal 0 0 -1
    outer loop
      vertex 7.04107 6.98542 0
      vertex 7.50921 44.53 0
      vertex 7.50921 6.87003 0
    endloop
  endfacet
  facet normal 0 0 -1
    outer loop
      vertex 7.04107 6.98542 0
      vertex 7.04107 44.4146 0
      vertex 7.50921 44.53 0
    endloop
  endfacet
  facet normal 0 0 -1
    outer loop
      vertex 6.55893 6.98542 0
      vertex 7.04107 44.4146 0
      vertex 7.04107 6.98542 0
    endloop
  endfacet
  facet normal 0 0 -1
    outer loop
      vertex 6.55893 6.98542 0
      vertex 6.55893 44.4146 0
      vertex 7.04107 44.4146 0
    endloop
  endfacet
  facet normal 0 0 -1
    outer loop
      vertex 6.09079 6.87003 0
      vertex 6.55893 44.4146 0
      vertex 6.55893 6.98542 0
    endloop
  endfacet
  facet normal 0 0 -1
    outer loop
      vertex 6.09079 6.87003 0
      vertex 6.09079 44.53 0
      vertex 6.55893 44.4146 0
    endloop
  endfacet
  facet normal 0 0 -1
    outer loop
      vertex 5.66387 6.64597 0
      vertex 6.09079 44.53 0
      vertex 6.09079 6.87003 0
    endloop
  endfacet
  facet normal 0 0 -1
    outer loop
      vertex 5.66387 6.64597 0
      vertex 5.66387 44.754 0
      vertex 6.09079 44.53 0
    endloop
  endfacet
  facet normal 0 0 -1
    outer loop
      vertex 5.30298 6.32625 0
      vertex 5.66387 44.754 0
      vertex 5.66387 6.64597 0
    endloop
  endfacet
  facet normal 0 0 -1
    outer loop
      vertex 5.30298 6.32625 0
      vertex 5.30298 45.0738 0
      vertex 5.66387 44.754 0
    endloop
  endfacet
  facet normal 0 0 -1
    outer loop
      vertex -13.3 0 0
      vertex 5.30298 6.32625 0
      vertex 5.02909 5.92945 0
    endloop
  endfacet
  facet normal -0 0 -1
    outer loop
      vertex 5.30298 6.32625 0
      vertex -13.3 0 0
      vertex 5.30298 45.0738 0
    endloop
  endfacet
  facet normal 0 0 -1
    outer loop
      vertex -13.3 0 0
      vertex 5.02909 5.92945 0
      vertex 4.85812 5.47863 0
    endloop
  endfacet
  facet normal 0 0 -1
    outer loop
      vertex -13.3 51.4 0
      vertex 5.30298 45.0738 0
      vertex -13.3 0 0
    endloop
  endfacet
  facet normal 0 0 -1
    outer loop
      vertex -13.3 0 0
      vertex 4.85812 5.47863 0
      vertex 4.8 5 0
    endloop
  endfacet
  facet normal 0 0 -1
    outer loop
      vertex 5.30298 45.0738 0
      vertex -13.3 51.4 0
      vertex 5.02909 45.4706 0
    endloop
  endfacet
  facet normal 0 0 -1
    outer loop
      vertex 8.74188 5.47863 0
      vertex 12.5 0 0
      vertex 8.8 5 0
    endloop
  endfacet
  facet normal 0 0 -1
    outer loop
      vertex 12.5 0 0
      vertex 8.74188 4.52137 0
      vertex 8.8 5 0
    endloop
  endfacet
  facet normal 0 0 -1
    outer loop
      vertex 12.5 0 0
      vertex 8.57091 4.07055 0
      vertex 8.74188 4.52137 0
    endloop
  endfacet
  facet normal 0 0 -1
    outer loop
      vertex 12.5 0 0
      vertex 8.29702 3.67375 0
      vertex 8.57091 4.07055 0
    endloop
  endfacet
  facet normal 0 0 -1
    outer loop
      vertex 12.5 0 0
      vertex 7.93613 3.35403 0
      vertex 8.29702 3.67375 0
    endloop
  endfacet
  facet normal 0 0 -1
    outer loop
      vertex 12.5 0 0
      vertex 7.50921 3.12997 0
      vertex 7.93613 3.35403 0
    endloop
  endfacet
  facet normal 0 0 -1
    outer loop
      vertex 12.5 0 0
      vertex 7.04107 3.01458 0
      vertex 7.50921 3.12997 0
    endloop
  endfacet
  facet normal 0 0 -1
    outer loop
      vertex 12.5 0 0
      vertex 6.55893 3.01458 0
      vertex 7.04107 3.01458 0
    endloop
  endfacet
  facet normal 0 0 -1
    outer loop
      vertex 12.5 0 0
      vertex 6.09079 3.12997 0
      vertex 6.55893 3.01458 0
    endloop
  endfacet
  facet normal 0 0 -1
    outer loop
      vertex 5.02909 45.4706 0
      vertex -13.3 51.4 0
      vertex 4.85812 45.9214 0
    endloop
  endfacet
  facet normal -0 0 -1
    outer loop
      vertex 4.85812 4.52137 0
      vertex -13.3 0 0
      vertex 4.8 5 0
    endloop
  endfacet
  facet normal -0 0 -1
    outer loop
      vertex 5.02909 4.07055 0
      vertex -13.3 0 0
      vertex 4.85812 4.52137 0
    endloop
  endfacet
  facet normal -0 0 -1
    outer loop
      vertex 5.30298 3.67375 0
      vertex -13.3 0 0
      vertex 5.02909 4.07055 0
    endloop
  endfacet
  facet normal -0 0 -1
    outer loop
      vertex 5.66387 3.35403 0
      vertex -13.3 0 0
      vertex 5.30298 3.67375 0
    endloop
  endfacet
  facet normal -0 0 -1
    outer loop
      vertex 6.09079 3.12997 0
      vertex -13.3 0 0
      vertex 5.66387 3.35403 0
    endloop
  endfacet
  facet normal 0 0 -1
    outer loop
      vertex -13.3 0 0
      vertex 6.09079 3.12997 0
      vertex 12.5 0 0
    endloop
  endfacet
  facet normal 0 0 -1
    outer loop
      vertex 8.57091 5.92945 0
      vertex 12.5 0 0
      vertex 8.74188 5.47863 0
    endloop
  endfacet
  facet normal 0 0 -1
    outer loop
      vertex 8.74188 46.8786 0
      vertex 12.5 51.4 0
      vertex 8.8 46.4 0
    endloop
  endfacet
  facet normal 0 0 -1
    outer loop
      vertex 8.57091 47.3294 0
      vertex 12.5 51.4 0
      vertex 8.74188 46.8786 0
    endloop
  endfacet
  facet normal 0 0 -1
    outer loop
      vertex 8.29702 47.7262 0
      vertex 12.5 51.4 0
      vertex 8.57091 47.3294 0
    endloop
  endfacet
  facet normal 0 0 -1
    outer loop
      vertex 7.93613 48.046 0
      vertex 12.5 51.4 0
      vertex 8.29702 47.7262 0
    endloop
  endfacet
  facet normal 0 0 -1
    outer loop
      vertex 7.50921 48.27 0
      vertex 12.5 51.4 0
      vertex 7.93613 48.046 0
    endloop
  endfacet
  facet normal 0 0 -1
    outer loop
      vertex 7.04107 48.3854 0
      vertex 12.5 51.4 0
      vertex 7.50921 48.27 0
    endloop
  endfacet
  facet normal 0 0 -1
    outer loop
      vertex 6.55893 48.3854 0
      vertex 12.5 51.4 0
      vertex 7.04107 48.3854 0
    endloop
  endfacet
  facet normal 0 0 -1
    outer loop
      vertex 6.09079 48.27 0
      vertex 12.5 51.4 0
      vertex 6.55893 48.3854 0
    endloop
  endfacet
  facet normal 0 0 -1
    outer loop
      vertex 4.85812 45.9214 0
      vertex -13.3 51.4 0
      vertex 4.8 46.4 0
    endloop
  endfacet
  facet normal 0 0 -1
    outer loop
      vertex 4.8 46.4 0
      vertex -13.3 51.4 0
      vertex 4.85812 46.8786 0
    endloop
  endfacet
  facet normal 0 0 -1
    outer loop
      vertex 6.09079 48.27 0
      vertex -13.3 51.4 0
      vertex 12.5 51.4 0
    endloop
  endfacet
  facet normal 0 0 -1
    outer loop
      vertex 5.66387 48.046 0
      vertex -13.3 51.4 0
      vertex 6.09079 48.27 0
    endloop
  endfacet
  facet normal 0 0 -1
    outer loop
      vertex 5.30298 47.7262 0
      vertex -13.3 51.4 0
      vertex 5.66387 48.046 0
    endloop
  endfacet
  facet normal 0 0 -1
    outer loop
      vertex 5.02909 47.3294 0
      vertex -13.3 51.4 0
      vertex 5.30298 47.7262 0
    endloop
  endfacet
  facet normal 0 0 -1
    outer loop
      vertex 4.85812 46.8786 0
      vertex -13.3 51.4 0
      vertex 5.02909 47.3294 0
    endloop
  endfacet
  facet normal 0 -1 0
    outer loop
      vertex -13.3 0 0
      vertex -2 0 1.2
      vertex -13.3 0 1.2
    endloop
  endfacet
  facet normal 0 -1 -0
    outer loop
      vertex -2 0 1.2
      vertex -13.3 0 0
      vertex 0 0 1.2
    endloop
  endfacet
  facet normal 0 -1 0
    outer loop
      vertex 12.5 0 0
      vertex 0 0 1.2
      vertex -13.3 0 0
    endloop
  endfacet
  facet normal 0 -1 0
    outer loop
      vertex 0 0 1.2
      vertex 12.5 0 0
      vertex 12.5 0 1.2
    endloop
  endfacet
  facet normal 0 -1 0
    outer loop
      vertex -2 0 1.2
      vertex 0 0 10
      vertex -2 0 10
    endloop
  endfacet
  facet normal 0 -1 -0
    outer loop
      vertex 0 0 10
      vertex -2 0 1.2
      vertex 0 0 1.2
    endloop
  endfacet
  facet normal 0.992709 -0.120538 0
    outer loop
      vertex -22.1 5 1.2
      vertex -22.0419 5.47863 1.90735e-07
      vertex -22.0419 5.47863 1.2
    endloop
  endfacet
  facet normal 0.992709 -0.120538 0
    outer loop
      vertex -22.0419 5.47863 1.90735e-07
      vertex -22.1 5 1.2
      vertex -22.1 5 1.90735e-07
    endloop
  endfacet
  facet normal -0.992709 -0.120538 0
    outer loop
      vertex -18.1 5 1.90735e-07
      vertex -18.1581 5.47863 1.2
      vertex -18.1581 5.47863 1.90735e-07
    endloop
  endfacet
  facet normal -0.992709 -0.120538 0
    outer loop
      vertex -18.1581 5.47863 1.2
      vertex -18.1 5 1.90735e-07
      vertex -18.1 5 1.2
    endloop
  endfacet
  facet normal 0 -1 0
    outer loop
      vertex -20.3411 6.98542 1.90735e-07
      vertex -19.8589 6.98542 1.2
      vertex -20.3411 6.98542 1.2
    endloop
  endfacet
  facet normal 0 -1 -0
    outer loop
      vertex -19.8589 6.98542 1.2
      vertex -20.3411 6.98542 1.90735e-07
      vertex -19.8589 6.98542 1.90735e-07
    endloop
  endfacet
  facet normal 0 1 -0
    outer loop
      vertex -19.8589 3.01458 1.90735e-07
      vertex -20.3411 3.01458 1.2
      vertex -19.8589 3.01458 1.2
    endloop
  endfacet
  facet normal 0 1 0
    outer loop
      vertex -20.3411 3.01458 1.2
      vertex -19.8589 3.01458 1.90735e-07
      vertex -20.3411 3.01458 1.90735e-07
    endloop
  endfacet
  facet normal 0.239315 0.970942 -0
    outer loop
      vertex -20.3411 3.01458 1.90735e-07
      vertex -20.8092 3.12997 1.2
      vertex -20.3411 3.01458 1.2
    endloop
  endfacet
  facet normal 0.239315 0.970942 0
    outer loop
      vertex -20.8092 3.12997 1.2
      vertex -20.3411 3.01458 1.90735e-07
      vertex -20.8092 3.12997 1.90735e-07
    endloop
  endfacet
  facet normal 0.663123 -0.74851 0
    outer loop
      vertex -21.597 6.32625 1.90735e-07
      vertex -21.2361 6.64597 1.2
      vertex -21.597 6.32625 1.2
    endloop
  endfacet
  facet normal 0.663123 -0.74851 0
    outer loop
      vertex -21.2361 6.64597 1.2
      vertex -21.597 6.32625 1.90735e-07
      vertex -21.2361 6.64597 1.90735e-07
    endloop
  endfacet
  facet normal 0.935015 -0.354607 0
    outer loop
      vertex -22.0419 5.47863 1.2
      vertex -21.8709 5.92945 1.90735e-07
      vertex -21.8709 5.92945 1.2
    endloop
  endfacet
  facet normal 0.935015 -0.354607 0
    outer loop
      vertex -21.8709 5.92945 1.90735e-07
      vertex -22.0419 5.47863 1.2
      vertex -22.0419 5.47863 1.90735e-07
    endloop
  endfacet
  facet normal 0.464723 -0.885456 0
    outer loop
      vertex -21.2361 6.64597 1.90735e-07
      vertex -20.8092 6.87003 1.2
      vertex -21.2361 6.64597 1.2
    endloop
  endfacet
  facet normal 0.464723 -0.885456 0
    outer loop
      vertex -20.8092 6.87003 1.2
      vertex -21.2361 6.64597 1.90735e-07
      vertex -20.8092 6.87003 1.90735e-07
    endloop
  endfacet
  facet normal -0.663123 -0.74851 0
    outer loop
      vertex -18.9639 6.64597 1.90735e-07
      vertex -18.603 6.32625 1.2
      vertex -18.9639 6.64597 1.2
    endloop
  endfacet
  facet normal -0.663123 -0.74851 -0
    outer loop
      vertex -18.603 6.32625 1.2
      vertex -18.9639 6.64597 1.90735e-07
      vertex -18.603 6.32625 1.90735e-07
    endloop
  endfacet
  facet normal -0.822983 -0.568066 0
    outer loop
      vertex -18.3291 5.92945 1.90735e-07
      vertex -18.603 6.32625 1.2
      vertex -18.603 6.32625 1.90735e-07
    endloop
  endfacet
  facet normal -0.822983 -0.568066 0
    outer loop
      vertex -18.603 6.32625 1.2
      vertex -18.3291 5.92945 1.90735e-07
      vertex -18.3291 5.92945 1.2
    endloop
  endfacet
  facet normal -0.239316 -0.970942 0
    outer loop
      vertex -19.8589 6.98542 1.90735e-07
      vertex -19.3908 6.87003 1.2
      vertex -19.8589 6.98542 1.2
    endloop
  endfacet
  facet normal -0.239316 -0.970942 -0
    outer loop
      vertex -19.3908 6.87003 1.2
      vertex -19.8589 6.98542 1.90735e-07
      vertex -19.3908 6.87003 1.90735e-07
    endloop
  endfacet
  facet normal 0.822985 -0.568063 0
    outer loop
      vertex -21.8709 5.92945 1.2
      vertex -21.597 6.32625 1.90735e-07
      vertex -21.597 6.32625 1.2
    endloop
  endfacet
  facet normal 0.822985 -0.568063 0
    outer loop
      vertex -21.597 6.32625 1.90735e-07
      vertex -21.8709 5.92945 1.2
      vertex -21.8709 5.92945 1.90735e-07
    endloop
  endfacet
  facet normal 0.239315 -0.970942 0
    outer loop
      vertex -20.8092 6.87003 1.90735e-07
      vertex -20.3411 6.98542 1.2
      vertex -20.8092 6.87003 1.2
    endloop
  endfacet
  facet normal 0.239315 -0.970942 0
    outer loop
      vertex -20.3411 6.98542 1.2
      vertex -20.8092 6.87003 1.90735e-07
      vertex -20.3411 6.98542 1.90735e-07
    endloop
  endfacet
  facet normal -0.935017 -0.354604 0
    outer loop
      vertex -18.1581 5.47863 1.90735e-07
      vertex -18.3291 5.92945 1.2
      vertex -18.3291 5.92945 1.90735e-07
    endloop
  endfacet
  facet normal -0.935017 -0.354604 0
    outer loop
      vertex -18.3291 5.92945 1.2
      vertex -18.1581 5.47863 1.90735e-07
      vertex -18.1581 5.47863 1.2
    endloop
  endfacet
  facet normal -0.464723 -0.885456 0
    outer loop
      vertex -19.3908 6.87003 1.90735e-07
      vertex -18.9639 6.64597 1.2
      vertex -19.3908 6.87003 1.2
    endloop
  endfacet
  facet normal -0.464723 -0.885456 -0
    outer loop
      vertex -18.9639 6.64597 1.2
      vertex -19.3908 6.87003 1.90735e-07
      vertex -18.9639 6.64597 1.90735e-07
    endloop
  endfacet
  facet normal 0.992709 0.120538 0
    outer loop
      vertex -22.0419 4.52137 1.2
      vertex -22.1 5 1.90735e-07
      vertex -22.1 5 1.2
    endloop
  endfacet
  facet normal 0.992709 0.120538 0
    outer loop
      vertex -22.1 5 1.90735e-07
      vertex -22.0419 4.52137 1.2
      vertex -22.0419 4.52137 1.90735e-07
    endloop
  endfacet
  facet normal 0.822985 0.568063 0
    outer loop
      vertex -21.597 3.67375 1.2
      vertex -21.8709 4.07055 1.90735e-07
      vertex -21.8709 4.07055 1.2
    endloop
  endfacet
  facet normal 0.822985 0.568063 0
    outer loop
      vertex -21.8709 4.07055 1.90735e-07
      vertex -21.597 3.67375 1.2
      vertex -21.597 3.67375 1.90735e-07
    endloop
  endfacet
  facet normal -0.822983 0.568066 0
    outer loop
      vertex -18.603 3.67375 1.90735e-07
      vertex -18.3291 4.07055 1.2
      vertex -18.3291 4.07055 1.90735e-07
    endloop
  endfacet
  facet normal -0.822983 0.568066 0
    outer loop
      vertex -18.3291 4.07055 1.2
      vertex -18.603 3.67375 1.90735e-07
      vertex -18.603 3.67375 1.2
    endloop
  endfacet
  facet normal 0.464723 0.885456 -0
    outer loop
      vertex -20.8092 3.12997 1.90735e-07
      vertex -21.2361 3.35403 1.2
      vertex -20.8092 3.12997 1.2
    endloop
  endfacet
  facet normal 0.464723 0.885456 0
    outer loop
      vertex -21.2361 3.35403 1.2
      vertex -20.8092 3.12997 1.90735e-07
      vertex -21.2361 3.35403 1.90735e-07
    endloop
  endfacet
  facet normal 0.935015 0.354607 0
    outer loop
      vertex -21.8709 4.07055 1.2
      vertex -22.0419 4.52137 1.90735e-07
      vertex -22.0419 4.52137 1.2
    endloop
  endfacet
  facet normal 0.935015 0.354607 0
    outer loop
      vertex -22.0419 4.52137 1.90735e-07
      vertex -21.8709 4.07055 1.2
      vertex -21.8709 4.07055 1.90735e-07
    endloop
  endfacet
  facet normal -0.239316 0.970942 0
    outer loop
      vertex -19.3908 3.12997 1.90735e-07
      vertex -19.8589 3.01458 1.2
      vertex -19.3908 3.12997 1.2
    endloop
  endfacet
  facet normal -0.239316 0.970942 0
    outer loop
      vertex -19.8589 3.01458 1.2
      vertex -19.3908 3.12997 1.90735e-07
      vertex -19.8589 3.01458 1.90735e-07
    endloop
  endfacet
  facet normal -0.663123 0.74851 0
    outer loop
      vertex -18.603 3.67375 1.90735e-07
      vertex -18.9639 3.35403 1.2
      vertex -18.603 3.67375 1.2
    endloop
  endfacet
  facet normal -0.663123 0.74851 0
    outer loop
      vertex -18.9639 3.35403 1.2
      vertex -18.603 3.67375 1.90735e-07
      vertex -18.9639 3.35403 1.90735e-07
    endloop
  endfacet
  facet normal -0.935017 0.354604 0
    outer loop
      vertex -18.3291 4.07055 1.90735e-07
      vertex -18.1581 4.52137 1.2
      vertex -18.1581 4.52137 1.90735e-07
    endloop
  endfacet
  facet normal -0.935017 0.354604 0
    outer loop
      vertex -18.1581 4.52137 1.2
      vertex -18.3291 4.07055 1.90735e-07
      vertex -18.3291 4.07055 1.2
    endloop
  endfacet
  facet normal -0.992709 0.120538 0
    outer loop
      vertex -18.1581 4.52137 1.90735e-07
      vertex -18.1 5 1.2
      vertex -18.1 5 1.90735e-07
    endloop
  endfacet
  facet normal -0.992709 0.120538 0
    outer loop
      vertex -18.1 5 1.2
      vertex -18.1581 4.52137 1.90735e-07
      vertex -18.1581 4.52137 1.2
    endloop
  endfacet
  facet normal 0.663123 0.74851 -0
    outer loop
      vertex -21.2361 3.35403 1.90735e-07
      vertex -21.597 3.67375 1.2
      vertex -21.2361 3.35403 1.2
    endloop
  endfacet
  facet normal 0.663123 0.74851 0
    outer loop
      vertex -21.597 3.67375 1.2
      vertex -21.2361 3.35403 1.90735e-07
      vertex -21.597 3.67375 1.90735e-07
    endloop
  endfacet
  facet normal -0.464723 0.885456 0
    outer loop
      vertex -18.9639 3.35403 1.90735e-07
      vertex -19.3908 3.12997 1.2
      vertex -18.9639 3.35403 1.2
    endloop
  endfacet
  facet normal -0.464723 0.885456 0
    outer loop
      vertex -19.3908 3.12997 1.2
      vertex -18.9639 3.35403 1.90735e-07
      vertex -19.3908 3.12997 1.90735e-07
    endloop
  endfacet
  facet normal 0.992709 -0.120538 0
    outer loop
      vertex -22.1 46.4 1.2
      vertex -22.0419 46.8786 1.90735e-07
      vertex -22.0419 46.8786 1.2
    endloop
  endfacet
  facet normal 0.992709 -0.120538 0
    outer loop
      vertex -22.0419 46.8786 1.90735e-07
      vertex -22.1 46.4 1.2
      vertex -22.1 46.4 1.90735e-07
    endloop
  endfacet
  facet normal -0.992709 -0.120538 0
    outer loop
      vertex -18.1 46.4 1.90735e-07
      vertex -18.1581 46.8786 1.2
      vertex -18.1581 46.8786 1.90735e-07
    endloop
  endfacet
  facet normal -0.992709 -0.120538 0
    outer loop
      vertex -18.1581 46.8786 1.2
      vertex -18.1 46.4 1.90735e-07
      vertex -18.1 46.4 1.2
    endloop
  endfacet
  facet normal 0 -1 0
    outer loop
      vertex -20.3411 48.3854 1.90735e-07
      vertex -19.8589 48.3854 1.2
      vertex -20.3411 48.3854 1.2
    endloop
  endfacet
  facet normal 0 -1 -0
    outer loop
      vertex -19.8589 48.3854 1.2
      vertex -20.3411 48.3854 1.90735e-07
      vertex -19.8589 48.3854 1.90735e-07
    endloop
  endfacet
  facet normal 0 1 -0
    outer loop
      vertex -19.8589 44.4146 1.90735e-07
      vertex -20.3411 44.4146 1.2
      vertex -19.8589 44.4146 1.2
    endloop
  endfacet
  facet normal 0 1 0
    outer loop
      vertex -20.3411 44.4146 1.2
      vertex -19.8589 44.4146 1.90735e-07
      vertex -20.3411 44.4146 1.90735e-07
    endloop
  endfacet
  facet normal 0.663122 -0.748511 0
    outer loop
      vertex -21.597 47.7262 1.90735e-07
      vertex -21.2361 48.046 1.2
      vertex -21.597 47.7262 1.2
    endloop
  endfacet
  facet normal 0.663122 -0.748511 0
    outer loop
      vertex -21.2361 48.046 1.2
      vertex -21.597 47.7262 1.90735e-07
      vertex -21.2361 48.046 1.90735e-07
    endloop
  endfacet
  facet normal 0.935015 -0.354608 0
    outer loop
      vertex -22.0419 46.8786 1.2
      vertex -21.8709 47.3294 1.90735e-07
      vertex -21.8709 47.3294 1.2
    endloop
  endfacet
  facet normal 0.935015 -0.354608 0
    outer loop
      vertex -21.8709 47.3294 1.90735e-07
      vertex -22.0419 46.8786 1.2
      vertex -22.0419 46.8786 1.90735e-07
    endloop
  endfacet
  facet normal 0.464722 -0.885457 0
    outer loop
      vertex -21.2361 48.046 1.90735e-07
      vertex -20.8092 48.27 1.2
      vertex -21.2361 48.046 1.2
    endloop
  endfacet
  facet normal 0.464722 -0.885457 0
    outer loop
      vertex -20.8092 48.27 1.2
      vertex -21.2361 48.046 1.90735e-07
      vertex -20.8092 48.27 1.90735e-07
    endloop
  endfacet
  facet normal -0.663122 -0.748511 0
    outer loop
      vertex -18.9639 48.046 1.90735e-07
      vertex -18.603 47.7262 1.2
      vertex -18.9639 48.046 1.2
    endloop
  endfacet
  facet normal -0.663122 -0.748511 -0
    outer loop
      vertex -18.603 47.7262 1.2
      vertex -18.9639 48.046 1.90735e-07
      vertex -18.603 47.7262 1.90735e-07
    endloop
  endfacet
  facet normal -0.822984 -0.568064 0
    outer loop
      vertex -18.3291 47.3294 1.90735e-07
      vertex -18.603 47.7262 1.2
      vertex -18.603 47.7262 1.90735e-07
    endloop
  endfacet
  facet normal -0.822984 -0.568064 0
    outer loop
      vertex -18.603 47.7262 1.2
      vertex -18.3291 47.3294 1.90735e-07
      vertex -18.3291 47.3294 1.2
    endloop
  endfacet
  facet normal -0.239319 -0.970941 0
    outer loop
      vertex -19.8589 48.3854 1.90735e-07
      vertex -19.3908 48.27 1.2
      vertex -19.8589 48.3854 1.2
    endloop
  endfacet
  facet normal -0.239319 -0.970941 -0
    outer loop
      vertex -19.3908 48.27 1.2
      vertex -19.8589 48.3854 1.90735e-07
      vertex -19.3908 48.27 1.90735e-07
    endloop
  endfacet
  facet normal 0.822986 -0.568061 0
    outer loop
      vertex -21.8709 47.3294 1.2
      vertex -21.597 47.7262 1.90735e-07
      vertex -21.597 47.7262 1.2
    endloop
  endfacet
  facet normal 0.822986 -0.568061 0
    outer loop
      vertex -21.597 47.7262 1.90735e-07
      vertex -21.8709 47.3294 1.2
      vertex -21.8709 47.3294 1.90735e-07
    endloop
  endfacet
  facet normal 0.239318 -0.970941 0
    outer loop
      vertex -20.8092 48.27 1.90735e-07
      vertex -20.3411 48.3854 1.2
      vertex -20.8092 48.27 1.2
    endloop
  endfacet
  facet normal 0.239318 -0.970941 0
    outer loop
      vertex -20.3411 48.3854 1.2
      vertex -20.8092 48.27 1.90735e-07
      vertex -20.3411 48.3854 1.90735e-07
    endloop
  endfacet
  facet normal -0.935016 -0.354605 0
    outer loop
      vertex -18.1581 46.8786 1.90735e-07
      vertex -18.3291 47.3294 1.2
      vertex -18.3291 47.3294 1.90735e-07
    endloop
  endfacet
  facet normal -0.935016 -0.354605 0
    outer loop
      vertex -18.3291 47.3294 1.2
      vertex -18.1581 46.8786 1.90735e-07
      vertex -18.1581 46.8786 1.2
    endloop
  endfacet
  facet normal -0.464722 -0.885457 0
    outer loop
      vertex -19.3908 48.27 1.90735e-07
      vertex -18.9639 48.046 1.2
      vertex -19.3908 48.27 1.2
    endloop
  endfacet
  facet normal -0.464722 -0.885457 -0
    outer loop
      vertex -18.9639 48.046 1.2
      vertex -19.3908 48.27 1.90735e-07
      vertex -18.9639 48.046 1.90735e-07
    endloop
  endfacet
  facet normal 0.992709 0.120537 0
    outer loop
      vertex -22.0419 45.9214 1.2
      vertex -22.1 46.4 1.90735e-07
      vertex -22.1 46.4 1.2
    endloop
  endfacet
  facet normal 0.992709 0.120537 0
    outer loop
      vertex -22.1 46.4 1.90735e-07
      vertex -22.0419 45.9214 1.2
      vertex -22.0419 45.9214 1.90735e-07
    endloop
  endfacet
  facet normal 0.663122 0.748511 -0
    outer loop
      vertex -21.2361 44.754 1.90735e-07
      vertex -21.597 45.0738 1.2
      vertex -21.2361 44.754 1.2
    endloop
  endfacet
  facet normal 0.663122 0.748511 0
    outer loop
      vertex -21.597 45.0738 1.2
      vertex -21.2361 44.754 1.90735e-07
      vertex -21.597 45.0738 1.90735e-07
    endloop
  endfacet
  facet normal 0.822986 0.568061 0
    outer loop
      vertex -21.597 45.0738 1.2
      vertex -21.8709 45.4706 1.90735e-07
      vertex -21.8709 45.4706 1.2
    endloop
  endfacet
  facet normal 0.822986 0.568061 0
    outer loop
      vertex -21.8709 45.4706 1.90735e-07
      vertex -21.597 45.0738 1.2
      vertex -21.597 45.0738 1.90735e-07
    endloop
  endfacet
  facet normal -0.464722 0.885457 0
    outer loop
      vertex -18.9639 44.754 1.90735e-07
      vertex -19.3908 44.53 1.2
      vertex -18.9639 44.754 1.2
    endloop
  endfacet
  facet normal -0.464722 0.885457 0
    outer loop
      vertex -19.3908 44.53 1.2
      vertex -18.9639 44.754 1.90735e-07
      vertex -19.3908 44.53 1.90735e-07
    endloop
  endfacet
  facet normal -0.822984 0.568064 0
    outer loop
      vertex -18.603 45.0738 1.90735e-07
      vertex -18.3291 45.4706 1.2
      vertex -18.3291 45.4706 1.90735e-07
    endloop
  endfacet
  facet normal -0.822984 0.568064 0
    outer loop
      vertex -18.3291 45.4706 1.2
      vertex -18.603 45.0738 1.90735e-07
      vertex -18.603 45.0738 1.2
    endloop
  endfacet
  facet normal -0.992709 0.120537 0
    outer loop
      vertex -18.1581 45.9214 1.90735e-07
      vertex -18.1 46.4 1.2
      vertex -18.1 46.4 1.90735e-07
    endloop
  endfacet
  facet normal -0.992709 0.120537 0
    outer loop
      vertex -18.1 46.4 1.2
      vertex -18.1581 45.9214 1.90735e-07
      vertex -18.1581 45.9214 1.2
    endloop
  endfacet
  facet normal 0.935015 0.354608 0
    outer loop
      vertex -21.8709 45.4706 1.2
      vertex -22.0419 45.9214 1.90735e-07
      vertex -22.0419 45.9214 1.2
    endloop
  endfacet
  facet normal 0.935015 0.354608 0
    outer loop
      vertex -22.0419 45.9214 1.90735e-07
      vertex -21.8709 45.4706 1.2
      vertex -21.8709 45.4706 1.90735e-07
    endloop
  endfacet
  facet normal -0.663122 0.748511 0
    outer loop
      vertex -18.603 45.0738 1.90735e-07
      vertex -18.9639 44.754 1.2
      vertex -18.603 45.0738 1.2
    endloop
  endfacet
  facet normal -0.663122 0.748511 0
    outer loop
      vertex -18.9639 44.754 1.2
      vertex -18.603 45.0738 1.90735e-07
      vertex -18.9639 44.754 1.90735e-07
    endloop
  endfacet
  facet normal -0.935016 0.354605 0
    outer loop
      vertex -18.3291 45.4706 1.90735e-07
      vertex -18.1581 45.9214 1.2
      vertex -18.1581 45.9214 1.90735e-07
    endloop
  endfacet
  facet normal -0.935016 0.354605 0
    outer loop
      vertex -18.1581 45.9214 1.2
      vertex -18.3291 45.4706 1.90735e-07
      vertex -18.3291 45.4706 1.2
    endloop
  endfacet
  facet normal 0.464722 0.885457 -0
    outer loop
      vertex -20.8092 44.53 1.90735e-07
      vertex -21.2361 44.754 1.2
      vertex -20.8092 44.53 1.2
    endloop
  endfacet
  facet normal 0.464722 0.885457 0
    outer loop
      vertex -21.2361 44.754 1.2
      vertex -20.8092 44.53 1.90735e-07
      vertex -21.2361 44.754 1.90735e-07
    endloop
  endfacet
  facet normal 0.239318 0.970941 -0
    outer loop
      vertex -20.3411 44.4146 1.90735e-07
      vertex -20.8092 44.53 1.2
      vertex -20.3411 44.4146 1.2
    endloop
  endfacet
  facet normal 0.239318 0.970941 0
    outer loop
      vertex -20.8092 44.53 1.2
      vertex -20.3411 44.4146 1.90735e-07
      vertex -20.8092 44.53 1.90735e-07
    endloop
  endfacet
  facet normal -0.239319 0.970941 0
    outer loop
      vertex -19.3908 44.53 1.90735e-07
      vertex -19.8589 44.4146 1.2
      vertex -19.3908 44.53 1.2
    endloop
  endfacet
  facet normal -0.239319 0.970941 0
    outer loop
      vertex -19.8589 44.4146 1.2
      vertex -19.3908 44.53 1.90735e-07
      vertex -19.8589 44.4146 1.90735e-07
    endloop
  endfacet
  facet normal 1 -0 0
    outer loop
      vertex -13.3 0 1.2
      vertex -13.3 51.4 1.90735e-07
      vertex -13.3 51.4 1.2
    endloop
  endfacet
  facet normal 1 0 0
    outer loop
      vertex -13.3 51.4 1.90735e-07
      vertex -13.3 0 1.2
      vertex -13.3 0 1.90735e-07
    endloop
  endfacet
  facet normal 0 0 -1
    outer loop
      vertex -13.3 0 1.90735e-07
      vertex -18.3291 5.92945 1.90735e-07
      vertex -13.3 51.4 1.90735e-07
    endloop
  endfacet
  facet normal 0 0 -1
    outer loop
      vertex -13.3 51.4 1.90735e-07
      vertex -18.1581 45.9214 1.90735e-07
      vertex -18.1 46.4 1.90735e-07
    endloop
  endfacet
  facet normal 0 0 -1
    outer loop
      vertex -18.3291 45.4706 1.90735e-07
      vertex -13.3 51.4 1.90735e-07
      vertex -18.3291 5.92945 1.90735e-07
    endloop
  endfacet
  facet normal 0 0 -1
    outer loop
      vertex -13.3 51.4 1.90735e-07
      vertex -18.3291 45.4706 1.90735e-07
      vertex -18.1581 45.9214 1.90735e-07
    endloop
  endfacet
  facet normal 0 0 -1
    outer loop
      vertex -18.603 6.32625 1.90735e-07
      vertex -18.3291 45.4706 1.90735e-07
      vertex -18.3291 5.92945 1.90735e-07
    endloop
  endfacet
  facet normal 0 0 -1
    outer loop
      vertex -18.603 6.32625 1.90735e-07
      vertex -18.603 45.0738 1.90735e-07
      vertex -18.3291 45.4706 1.90735e-07
    endloop
  endfacet
  facet normal 0 0 -1
    outer loop
      vertex -18.9639 6.64597 1.90735e-07
      vertex -18.603 45.0738 1.90735e-07
      vertex -18.603 6.32625 1.90735e-07
    endloop
  endfacet
  facet normal 0 0 -1
    outer loop
      vertex -18.9639 6.64597 1.90735e-07
      vertex -18.9639 44.754 1.90735e-07
      vertex -18.603 45.0738 1.90735e-07
    endloop
  endfacet
  facet normal 0 0 -1
    outer loop
      vertex -19.3908 6.87003 1.90735e-07
      vertex -18.9639 44.754 1.90735e-07
      vertex -18.9639 6.64597 1.90735e-07
    endloop
  endfacet
  facet normal 0 0 -1
    outer loop
      vertex -19.3908 6.87003 1.90735e-07
      vertex -19.3908 44.53 1.90735e-07
      vertex -18.9639 44.754 1.90735e-07
    endloop
  endfacet
  facet normal 0 0 -1
    outer loop
      vertex -19.8589 6.98542 1.90735e-07
      vertex -19.3908 44.53 1.90735e-07
      vertex -19.3908 6.87003 1.90735e-07
    endloop
  endfacet
  facet normal 0 0 -1
    outer loop
      vertex -19.8589 6.98542 1.90735e-07
      vertex -19.8589 44.4146 1.90735e-07
      vertex -19.3908 44.53 1.90735e-07
    endloop
  endfacet
  facet normal 0 0 -1
    outer loop
      vertex -20.3411 6.98542 1.90735e-07
      vertex -19.8589 44.4146 1.90735e-07
      vertex -19.8589 6.98542 1.90735e-07
    endloop
  endfacet
  facet normal 0 0 -1
    outer loop
      vertex -20.3411 6.98542 1.90735e-07
      vertex -20.3411 44.4146 1.90735e-07
      vertex -19.8589 44.4146 1.90735e-07
    endloop
  endfacet
  facet normal 0 0 -1
    outer loop
      vertex -20.8092 6.87003 1.90735e-07
      vertex -20.3411 44.4146 1.90735e-07
      vertex -20.3411 6.98542 1.90735e-07
    endloop
  endfacet
  facet normal 0 0 -1
    outer loop
      vertex -20.8092 6.87003 1.90735e-07
      vertex -20.8092 44.53 1.90735e-07
      vertex -20.3411 44.4146 1.90735e-07
    endloop
  endfacet
  facet normal 0 0 -1
    outer loop
      vertex -21.2361 6.64597 1.90735e-07
      vertex -20.8092 44.53 1.90735e-07
      vertex -20.8092 6.87003 1.90735e-07
    endloop
  endfacet
  facet normal 0 0 -1
    outer loop
      vertex -21.2361 6.64597 1.90735e-07
      vertex -21.2361 44.754 1.90735e-07
      vertex -20.8092 44.53 1.90735e-07
    endloop
  endfacet
  facet normal 0 0 -1
    outer loop
      vertex -21.597 6.32625 1.90735e-07
      vertex -21.2361 44.754 1.90735e-07
      vertex -21.2361 6.64597 1.90735e-07
    endloop
  endfacet
  facet normal 0 0 -1
    outer loop
      vertex -21.597 6.32625 1.90735e-07
      vertex -21.597 45.0738 1.90735e-07
      vertex -21.2361 44.754 1.90735e-07
    endloop
  endfacet
  facet normal 0 0 -1
    outer loop
      vertex -21.8709 5.92945 1.90735e-07
      vertex -21.597 45.0738 1.90735e-07
      vertex -21.597 6.32625 1.90735e-07
    endloop
  endfacet
  facet normal 0 0 -1
    outer loop
      vertex -21.8709 5.92945 1.90735e-07
      vertex -21.8709 45.4706 1.90735e-07
      vertex -21.597 45.0738 1.90735e-07
    endloop
  endfacet
  facet normal 0 0 -1
    outer loop
      vertex -25.8 0 1.90735e-07
      vertex -21.8709 5.92945 1.90735e-07
      vertex -22.0419 5.47863 1.90735e-07
    endloop
  endfacet
  facet normal -0 0 -1
    outer loop
      vertex -21.8709 5.92945 1.90735e-07
      vertex -25.8 0 1.90735e-07
      vertex -21.8709 45.4706 1.90735e-07
    endloop
  endfacet
  facet normal 0 0 -1
    outer loop
      vertex -25.8 0 1.90735e-07
      vertex -22.0419 5.47863 1.90735e-07
      vertex -22.1 5 1.90735e-07
    endloop
  endfacet
  facet normal 0 0 -1
    outer loop
      vertex -25.8 51.4 1.90735e-07
      vertex -21.8709 45.4706 1.90735e-07
      vertex -25.8 0 1.90735e-07
    endloop
  endfacet
  facet normal 0 0 -1
    outer loop
      vertex -18.1581 5.47863 1.90735e-07
      vertex -13.3 0 1.90735e-07
      vertex -18.1 5 1.90735e-07
    endloop
  endfacet
  facet normal 0 0 -1
    outer loop
      vertex -13.3 0 1.90735e-07
      vertex -18.1581 4.52137 1.90735e-07
      vertex -18.1 5 1.90735e-07
    endloop
  endfacet
  facet normal 0 0 -1
    outer loop
      vertex -13.3 0 1.90735e-07
      vertex -18.3291 4.07055 1.90735e-07
      vertex -18.1581 4.52137 1.90735e-07
    endloop
  endfacet
  facet normal 0 0 -1
    outer loop
      vertex -13.3 0 1.90735e-07
      vertex -18.603 3.67375 1.90735e-07
      vertex -18.3291 4.07055 1.90735e-07
    endloop
  endfacet
  facet normal 0 0 -1
    outer loop
      vertex -13.3 0 1.90735e-07
      vertex -18.9639 3.35403 1.90735e-07
      vertex -18.603 3.67375 1.90735e-07
    endloop
  endfacet
  facet normal 0 0 -1
    outer loop
      vertex -13.3 0 1.90735e-07
      vertex -19.3908 3.12997 1.90735e-07
      vertex -18.9639 3.35403 1.90735e-07
    endloop
  endfacet
  facet normal 0 0 -1
    outer loop
      vertex -13.3 0 1.90735e-07
      vertex -19.8589 3.01458 1.90735e-07
      vertex -19.3908 3.12997 1.90735e-07
    endloop
  endfacet
  facet normal 0 0 -1
    outer loop
      vertex -25.8 0 1.90735e-07
      vertex -19.8589 3.01458 1.90735e-07
      vertex -13.3 0 1.90735e-07
    endloop
  endfacet
  facet normal -0 0 -1
    outer loop
      vertex -19.8589 3.01458 1.90735e-07
      vertex -25.8 0 1.90735e-07
      vertex -20.3411 3.01458 1.90735e-07
    endloop
  endfacet
  facet normal 0 0 -1
    outer loop
      vertex -21.8709 45.4706 1.90735e-07
      vertex -25.8 51.4 1.90735e-07
      vertex -22.0419 45.9214 1.90735e-07
    endloop
  endfacet
  facet normal -0 0 -1
    outer loop
      vertex -22.0419 4.52137 1.90735e-07
      vertex -25.8 0 1.90735e-07
      vertex -22.1 5 1.90735e-07
    endloop
  endfacet
  facet normal -0 0 -1
    outer loop
      vertex -21.8709 4.07055 1.90735e-07
      vertex -25.8 0 1.90735e-07
      vertex -22.0419 4.52137 1.90735e-07
    endloop
  endfacet
  facet normal -0 0 -1
    outer loop
      vertex -21.597 3.67375 1.90735e-07
      vertex -25.8 0 1.90735e-07
      vertex -21.8709 4.07055 1.90735e-07
    endloop
  endfacet
  facet normal -0 0 -1
    outer loop
      vertex -21.2361 3.35403 1.90735e-07
      vertex -25.8 0 1.90735e-07
      vertex -21.597 3.67375 1.90735e-07
    endloop
  endfacet
  facet normal -0 0 -1
    outer loop
      vertex -20.8092 3.12997 1.90735e-07
      vertex -25.8 0 1.90735e-07
      vertex -21.2361 3.35403 1.90735e-07
    endloop
  endfacet
  facet normal -0 0 -1
    outer loop
      vertex -20.3411 3.01458 1.90735e-07
      vertex -25.8 0 1.90735e-07
      vertex -20.8092 3.12997 1.90735e-07
    endloop
  endfacet
  facet normal 0 0 -1
    outer loop
      vertex -18.3291 5.92945 1.90735e-07
      vertex -13.3 0 1.90735e-07
      vertex -18.1581 5.47863 1.90735e-07
    endloop
  endfacet
  facet normal 0 0 -1
    outer loop
      vertex -18.1581 46.8786 1.90735e-07
      vertex -13.3 51.4 1.90735e-07
      vertex -18.1 46.4 1.90735e-07
    endloop
  endfacet
  facet normal 0 0 -1
    outer loop
      vertex -18.3291 47.3294 1.90735e-07
      vertex -13.3 51.4 1.90735e-07
      vertex -18.1581 46.8786 1.90735e-07
    endloop
  endfacet
  facet normal 0 0 -1
    outer loop
      vertex -18.603 47.7262 1.90735e-07
      vertex -13.3 51.4 1.90735e-07
      vertex -18.3291 47.3294 1.90735e-07
    endloop
  endfacet
  facet normal 0 0 -1
    outer loop
      vertex -18.9639 48.046 1.90735e-07
      vertex -13.3 51.4 1.90735e-07
      vertex -18.603 47.7262 1.90735e-07
    endloop
  endfacet
  facet normal 0 0 -1
    outer loop
      vertex -19.3908 48.27 1.90735e-07
      vertex -13.3 51.4 1.90735e-07
      vertex -18.9639 48.046 1.90735e-07
    endloop
  endfacet
  facet normal 0 0 -1
    outer loop
      vertex -19.8589 48.3854 1.90735e-07
      vertex -13.3 51.4 1.90735e-07
      vertex -19.3908 48.27 1.90735e-07
    endloop
  endfacet
  facet normal 0 0 -1
    outer loop
      vertex -25.8 51.4 1.90735e-07
      vertex -19.8589 48.3854 1.90735e-07
      vertex -20.3411 48.3854 1.90735e-07
    endloop
  endfacet
  facet normal 0 0 -1
    outer loop
      vertex -25.8 51.4 1.90735e-07
      vertex -20.3411 48.3854 1.90735e-07
      vertex -20.8092 48.27 1.90735e-07
    endloop
  endfacet
  facet normal 0 0 -1
    outer loop
      vertex -19.8589 48.3854 1.90735e-07
      vertex -25.8 51.4 1.90735e-07
      vertex -13.3 51.4 1.90735e-07
    endloop
  endfacet
  facet normal 0 0 -1
    outer loop
      vertex -21.2361 48.046 1.90735e-07
      vertex -25.8 51.4 1.90735e-07
      vertex -20.8092 48.27 1.90735e-07
    endloop
  endfacet
  facet normal 0 0 -1
    outer loop
      vertex -21.597 47.7262 1.90735e-07
      vertex -25.8 51.4 1.90735e-07
      vertex -21.2361 48.046 1.90735e-07
    endloop
  endfacet
  facet normal 0 0 -1
    outer loop
      vertex -21.8709 47.3294 1.90735e-07
      vertex -25.8 51.4 1.90735e-07
      vertex -21.597 47.7262 1.90735e-07
    endloop
  endfacet
  facet normal 0 0 -1
    outer loop
      vertex -22.0419 46.8786 1.90735e-07
      vertex -25.8 51.4 1.90735e-07
      vertex -21.8709 47.3294 1.90735e-07
    endloop
  endfacet
  facet normal 0 0 -1
    outer loop
      vertex -22.1 46.4 1.90735e-07
      vertex -25.8 51.4 1.90735e-07
      vertex -22.0419 46.8786 1.90735e-07
    endloop
  endfacet
  facet normal 0 0 -1
    outer loop
      vertex -22.0419 45.9214 1.90735e-07
      vertex -25.8 51.4 1.90735e-07
      vertex -22.1 46.4 1.90735e-07
    endloop
  endfacet
  facet normal -1 0 0
    outer loop
      vertex -25.8 0 1.90735e-07
      vertex -25.8 51.4 1.2
      vertex -25.8 51.4 1.90735e-07
    endloop
  endfacet
  facet normal -1 -0 0
    outer loop
      vertex -25.8 51.4 1.2
      vertex -25.8 0 1.90735e-07
      vertex -25.8 0 1.2
    endloop
  endfacet
  facet normal 0 1 -0
    outer loop
      vertex -13.3 51.4 1.90735e-07
      vertex -25.8 51.4 1.2
      vertex -13.3 51.4 1.2
    endloop
  endfacet
  facet normal 0 1 0
    outer loop
      vertex -25.8 51.4 1.2
      vertex -13.3 51.4 1.90735e-07
      vertex -25.8 51.4 1.90735e-07
    endloop
  endfacet
  facet normal 0 0 1
    outer loop
      vertex -13.3 51.4 1.2
      vertex -18.3291 45.4706 1.2
      vertex -13.3 0 1.2
    endloop
  endfacet
  facet normal 0 0 1
    outer loop
      vertex -13.3 0 1.2
      vertex -18.1581 5.47863 1.2
      vertex -18.1 5 1.2
    endloop
  endfacet
  facet normal -0 0 1
    outer loop
      vertex -18.3291 5.92945 1.2
      vertex -13.3 0 1.2
      vertex -18.3291 45.4706 1.2
    endloop
  endfacet
  facet normal 0 0 1
    outer loop
      vertex -13.3 0 1.2
      vertex -18.3291 5.92945 1.2
      vertex -18.1581 5.47863 1.2
    endloop
  endfacet
  facet normal -0 0 1
    outer loop
      vertex -18.603 45.0738 1.2
      vertex -18.3291 5.92945 1.2
      vertex -18.3291 45.4706 1.2
    endloop
  endfacet
  facet normal 0 0 1
    outer loop
      vertex -18.603 45.0738 1.2
      vertex -18.603 6.32625 1.2
      vertex -18.3291 5.92945 1.2
    endloop
  endfacet
  facet normal -0 0 1
    outer loop
      vertex -18.9639 44.754 1.2
      vertex -18.603 6.32625 1.2
      vertex -18.603 45.0738 1.2
    endloop
  endfacet
  facet normal 0 0 1
    outer loop
      vertex -18.9639 44.754 1.2
      vertex -18.9639 6.64597 1.2
      vertex -18.603 6.32625 1.2
    endloop
  endfacet
  facet normal -0 0 1
    outer loop
      vertex -19.3908 44.53 1.2
      vertex -18.9639 6.64597 1.2
      vertex -18.9639 44.754 1.2
    endloop
  endfacet
  facet normal 0 0 1
    outer loop
      vertex -19.3908 44.53 1.2
      vertex -19.3908 6.87003 1.2
      vertex -18.9639 6.64597 1.2
    endloop
  endfacet
  facet normal -0 0 1
    outer loop
      vertex -19.8589 44.4146 1.2
      vertex -19.3908 6.87003 1.2
      vertex -19.3908 44.53 1.2
    endloop
  endfacet
  facet normal 0 0 1
    outer loop
      vertex -19.8589 44.4146 1.2
      vertex -19.8589 6.98542 1.2
      vertex -19.3908 6.87003 1.2
    endloop
  endfacet
  facet normal -0 0 1
    outer loop
      vertex -20.3411 44.4146 1.2
      vertex -19.8589 6.98542 1.2
      vertex -19.8589 44.4146 1.2
    endloop
  endfacet
  facet normal 0 0 1
    outer loop
      vertex -20.3411 44.4146 1.2
      vertex -20.3411 6.98542 1.2
      vertex -19.8589 6.98542 1.2
    endloop
  endfacet
  facet normal 0 0 1
    outer loop
      vertex -20.8092 44.53 1.2
      vertex -20.3411 6.98542 1.2
      vertex -20.3411 44.4146 1.2
    endloop
  endfacet
  facet normal 0 0 1
    outer loop
      vertex -20.8092 44.53 1.2
      vertex -20.8092 6.87003 1.2
      vertex -20.3411 6.98542 1.2
    endloop
  endfacet
  facet normal 0 0 1
    outer loop
      vertex -21.2361 44.754 1.2
      vertex -20.8092 6.87003 1.2
      vertex -20.8092 44.53 1.2
    endloop
  endfacet
  facet normal 0 0 1
    outer loop
      vertex -21.2361 44.754 1.2
      vertex -21.2361 6.64597 1.2
      vertex -20.8092 6.87003 1.2
    endloop
  endfacet
  facet normal 0 0 1
    outer loop
      vertex -21.597 45.0738 1.2
      vertex -21.2361 6.64597 1.2
      vertex -21.2361 44.754 1.2
    endloop
  endfacet
  facet normal 0 0 1
    outer loop
      vertex -21.597 45.0738 1.2
      vertex -21.597 6.32625 1.2
      vertex -21.2361 6.64597 1.2
    endloop
  endfacet
  facet normal 0 0 1
    outer loop
      vertex -21.8709 45.4706 1.2
      vertex -21.597 6.32625 1.2
      vertex -21.597 45.0738 1.2
    endloop
  endfacet
  facet normal 0 0 1
    outer loop
      vertex -21.8709 45.4706 1.2
      vertex -21.8709 5.92945 1.2
      vertex -21.597 6.32625 1.2
    endloop
  endfacet
  facet normal 0 0 1
    outer loop
      vertex -25.8 51.4 1.2
      vertex -21.8709 45.4706 1.2
      vertex -22.0419 45.9214 1.2
    endloop
  endfacet
  facet normal 0 0 1
    outer loop
      vertex -21.8709 45.4706 1.2
      vertex -25.8 51.4 1.2
      vertex -21.8709 5.92945 1.2
    endloop
  endfacet
  facet normal 0 0 1
    outer loop
      vertex -25.8 51.4 1.2
      vertex -22.0419 45.9214 1.2
      vertex -22.1 46.4 1.2
    endloop
  endfacet
  facet normal 0 0 1
    outer loop
      vertex -25.8 0 1.2
      vertex -21.8709 5.92945 1.2
      vertex -25.8 51.4 1.2
    endloop
  endfacet
  facet normal 0 0 1
    outer loop
      vertex -18.1581 45.9214 1.2
      vertex -13.3 51.4 1.2
      vertex -18.1 46.4 1.2
    endloop
  endfacet
  facet normal 0 0 1
    outer loop
      vertex -13.3 51.4 1.2
      vertex -18.1581 46.8786 1.2
      vertex -18.1 46.4 1.2
    endloop
  endfacet
  facet normal 0 0 1
    outer loop
      vertex -13.3 51.4 1.2
      vertex -18.3291 47.3294 1.2
      vertex -18.1581 46.8786 1.2
    endloop
  endfacet
  facet normal 0 0 1
    outer loop
      vertex -13.3 51.4 1.2
      vertex -18.603 47.7262 1.2
      vertex -18.3291 47.3294 1.2
    endloop
  endfacet
  facet normal 0 0 1
    outer loop
      vertex -13.3 51.4 1.2
      vertex -18.9639 48.046 1.2
      vertex -18.603 47.7262 1.2
    endloop
  endfacet
  facet normal 0 0 1
    outer loop
      vertex -13.3 51.4 1.2
      vertex -19.3908 48.27 1.2
      vertex -18.9639 48.046 1.2
    endloop
  endfacet
  facet normal 0 0 1
    outer loop
      vertex -13.3 51.4 1.2
      vertex -19.8589 48.3854 1.2
      vertex -19.3908 48.27 1.2
    endloop
  endfacet
  facet normal -0 0 1
    outer loop
      vertex -25.8 51.4 1.2
      vertex -19.8589 48.3854 1.2
      vertex -13.3 51.4 1.2
    endloop
  endfacet
  facet normal 0 0 1
    outer loop
      vertex -19.8589 48.3854 1.2
      vertex -25.8 51.4 1.2
      vertex -20.3411 48.3854 1.2
    endloop
  endfacet
  facet normal 0 0 1
    outer loop
      vertex -21.8709 5.92945 1.2
      vertex -25.8 0 1.2
      vertex -22.0419 5.47863 1.2
    endloop
  endfacet
  facet normal 0 0 1
    outer loop
      vertex -22.0419 46.8786 1.2
      vertex -25.8 51.4 1.2
      vertex -22.1 46.4 1.2
    endloop
  endfacet
  facet normal 0 0 1
    outer loop
      vertex -21.8709 47.3294 1.2
      vertex -25.8 51.4 1.2
      vertex -22.0419 46.8786 1.2
    endloop
  endfacet
  facet normal 0 0 1
    outer loop
      vertex -21.597 47.7262 1.2
      vertex -25.8 51.4 1.2
      vertex -21.8709 47.3294 1.2
    endloop
  endfacet
  facet normal 0 0 1
    outer loop
      vertex -21.2361 48.046 1.2
      vertex -25.8 51.4 1.2
      vertex -21.597 47.7262 1.2
    endloop
  endfacet
  facet normal 0 0 1
    outer loop
      vertex -20.8092 48.27 1.2
      vertex -25.8 51.4 1.2
      vertex -21.2361 48.046 1.2
    endloop
  endfacet
  facet normal 0 0 1
    outer loop
      vertex -20.3411 48.3854 1.2
      vertex -25.8 51.4 1.2
      vertex -20.8092 48.27 1.2
    endloop
  endfacet
  facet normal 0 0 1
    outer loop
      vertex -18.3291 45.4706 1.2
      vertex -13.3 51.4 1.2
      vertex -18.1581 45.9214 1.2
    endloop
  endfacet
  facet normal -0 0 1
    outer loop
      vertex -18.1581 4.52137 1.2
      vertex -13.3 0 1.2
      vertex -18.1 5 1.2
    endloop
  endfacet
  facet normal -0 0 1
    outer loop
      vertex -18.3291 4.07055 1.2
      vertex -13.3 0 1.2
      vertex -18.1581 4.52137 1.2
    endloop
  endfacet
  facet normal -0 0 1
    outer loop
      vertex -18.603 3.67375 1.2
      vertex -13.3 0 1.2
      vertex -18.3291 4.07055 1.2
    endloop
  endfacet
  facet normal -0 0 1
    outer loop
      vertex -18.9639 3.35403 1.2
      vertex -13.3 0 1.2
      vertex -18.603 3.67375 1.2
    endloop
  endfacet
  facet normal -0 0 1
    outer loop
      vertex -19.3908 3.12997 1.2
      vertex -13.3 0 1.2
      vertex -18.9639 3.35403 1.2
    endloop
  endfacet
  facet normal -0 0 1
    outer loop
      vertex -19.8589 3.01458 1.2
      vertex -13.3 0 1.2
      vertex -19.3908 3.12997 1.2
    endloop
  endfacet
  facet normal 0 0 1
    outer loop
      vertex -25.8 0 1.2
      vertex -19.8589 3.01458 1.2
      vertex -20.3411 3.01458 1.2
    endloop
  endfacet
  facet normal 0 0 1
    outer loop
      vertex -25.8 0 1.2
      vertex -20.3411 3.01458 1.2
      vertex -20.8092 3.12997 1.2
    endloop
  endfacet
  facet normal 0 0 1
    outer loop
      vertex -19.8589 3.01458 1.2
      vertex -25.8 0 1.2
      vertex -13.3 0 1.2
    endloop
  endfacet
  facet normal 0 0 1
    outer loop
      vertex -21.2361 3.35403 1.2
      vertex -25.8 0 1.2
      vertex -20.8092 3.12997 1.2
    endloop
  endfacet
  facet normal 0 0 1
    outer loop
      vertex -21.597 3.67375 1.2
      vertex -25.8 0 1.2
      vertex -21.2361 3.35403 1.2
    endloop
  endfacet
  facet normal 0 0 1
    outer loop
      vertex -21.8709 4.07055 1.2
      vertex -25.8 0 1.2
      vertex -21.597 3.67375 1.2
    endloop
  endfacet
  facet normal 0 0 1
    outer loop
      vertex -22.0419 4.52137 1.2
      vertex -25.8 0 1.2
      vertex -21.8709 4.07055 1.2
    endloop
  endfacet
  facet normal 0 0 1
    outer loop
      vertex -22.1 5 1.2
      vertex -25.8 0 1.2
      vertex -22.0419 4.52137 1.2
    endloop
  endfacet
  facet normal 0 0 1
    outer loop
      vertex -22.0419 5.47863 1.2
      vertex -25.8 0 1.2
      vertex -22.1 5 1.2
    endloop
  endfacet
  facet normal 0 -1 0
    outer loop
      vertex -25.8 0 1.90735e-07
      vertex -13.3 0 1.2
      vertex -25.8 0 1.2
    endloop
  endfacet
  facet normal 0 -1 -0
    outer loop
      vertex -13.3 0 1.2
      vertex -25.8 0 1.90735e-07
      vertex -13.3 0 1.90735e-07
    endloop
  endfacet
  facet normal -1 0 0
    outer loop
      vertex -2 0 1.2
      vertex -2 51.4 10
      vertex -2 51.4 1.2
    endloop
  endfacet
  facet normal -1 -0 0
    outer loop
      vertex -2 51.4 10
      vertex -2 0 1.2
      vertex -2 0 10
    endloop
  endfacet
  facet normal -0 0 1
    outer loop
      vertex -2 51.4 10
      vertex 0 0 10
      vertex 0 51.4 10
    endloop
  endfacet
  facet normal 0 0 1
    outer loop
      vertex 0 0 10
      vertex -2 51.4 10
      vertex -2 0 10
    endloop
  endfacet
  facet normal -1 0 0
    outer loop
      vertex -13.3 0 0
      vertex -13.3 51.4 1.2
      vertex -13.3 51.4 0
    endloop
  endfacet
  facet normal -1 -0 0
    outer loop
      vertex -13.3 51.4 1.2
      vertex -13.3 0 0
      vertex -13.3 0 1.2
    endloop
  endfacet
  facet normal -0 0 1
    outer loop
      vertex -13.3 51.4 1.2
      vertex -2 0 1.2
      vertex -2 51.4 1.2
    endloop
  endfacet
  facet normal 0 0 1
    outer loop
      vertex -2 0 1.2
      vertex -13.3 51.4 1.2
      vertex -13.3 0 1.2
    endloop
  endfacet
endsolid OpenSCAD_Model
