solid OpenSCAD_Model
  facet normal -1 0 0
    outer loop
      vertex 0 0 0
      vertex 0 74.4 24.3
      vertex 0 74.4 0
    endloop
  endfacet
  facet normal -1 -0 0
    outer loop
      vertex 0 74.4 24.3
      vertex 0 0 0
      vertex 0 0 24.3
    endloop
  endfacet
  facet normal 0 0 1
    outer loop
      vertex 16 74.4 24.3
      vertex 14.8 73.2 24.3
      vertex 16 0 24.3
    endloop
  endfacet
  facet normal 0 0 1
    outer loop
      vertex 16 74.4 24.3
      vertex 1.2 73.2 24.3
      vertex 14.8 73.2 24.3
    endloop
  endfacet
  facet normal 0 0 1
    outer loop
      vertex 1.2 73.2 24.3
      vertex 0 74.4 24.3
      vertex 1.2 1.2 24.3
    endloop
  endfacet
  facet normal -0 0 1
    outer loop
      vertex 0 74.4 24.3
      vertex 1.2 73.2 24.3
      vertex 16 74.4 24.3
    endloop
  endfacet
  facet normal -0 0 1
    outer loop
      vertex 14.8 1.2 24.3
      vertex 16 0 24.3
      vertex 14.8 73.2 24.3
    endloop
  endfacet
  facet normal -0 0 1
    outer loop
      vertex 1.2 1.2 24.3
      vertex 16 0 24.3
      vertex 14.8 1.2 24.3
    endloop
  endfacet
  facet normal 0 0 1
    outer loop
      vertex 1.2 1.2 24.3
      vertex 0 0 24.3
      vertex 16 0 24.3
    endloop
  endfacet
  facet normal 0 0 1
    outer loop
      vertex 0 0 24.3
      vertex 1.2 1.2 24.3
      vertex 0 74.4 24.3
    endloop
  endfacet
  facet normal 1 -0 0
    outer loop
      vertex 16 0 22.7
      vertex 16 74.4 0
      vertex 16 74.4 22.7
    endloop
  endfacet
  facet normal 1 0 0
    outer loop
      vertex 16 74.4 0
      vertex 16 0 22.7
      vertex 16 0 0
    endloop
  endfacet
  facet normal 1 -0 0
    outer loop
      vertex 16 0 24.3
      vertex 16 74.4 23.9
      vertex 16 74.4 24.3
    endloop
  endfacet
  facet normal 1 0 0
    outer loop
      vertex 16 74.4 23.9
      vertex 16 0 24.3
      vertex 16 0 23.9
    endloop
  endfacet
  facet normal 0 1 0
    outer loop
      vertex 27.8 74.4 23.9
      vertex 27.8 74.4 22.7
      vertex 16 74.4 23.9
    endloop
  endfacet
  facet normal 0 1 -0
    outer loop
      vertex 16 74.4 23.9
      vertex 0 74.4 24.3
      vertex 16 74.4 24.3
    endloop
  endfacet
  facet normal 0 1 0
    outer loop
      vertex 16 74.4 22.7
      vertex 16 74.4 23.9
      vertex 27.8 74.4 22.7
    endloop
  endfacet
  facet normal 0 1 0
    outer loop
      vertex 16 74.4 23.9
      vertex 16 74.4 22.7
      vertex 0 74.4 24.3
    endloop
  endfacet
  facet normal 0 1 0
    outer loop
      vertex 0 74.4 0
      vertex 16 74.4 22.7
      vertex 16 74.4 0
    endloop
  endfacet
  facet normal 0 1 0
    outer loop
      vertex 16 74.4 22.7
      vertex 0 74.4 0
      vertex 0 74.4 24.3
    endloop
  endfacet
  facet normal 0 0 -1
    outer loop
      vertex 10.6 11.5033 0
      vertex 10.8 29.7 0
      vertex 11.0163 11.2358 0
    endloop
  endfacet
  facet normal 0 0 -1
    outer loop
      vertex 10.1602 11.7301 0
      vertex 10.8 29.7 0
      vertex 10.6 11.5033 0
    endloop
  endfacet
  facet normal 0 0 -1
    outer loop
      vertex 9.70075 11.914 0
      vertex 10.8 29.7 0
      vertex 10.1602 11.7301 0
    endloop
  endfacet
  facet normal 0 0 -1
    outer loop
      vertex 9.22595 12.0534 0
      vertex 10.8 29.7 0
      vertex 9.70075 11.914 0
    endloop
  endfacet
  facet normal 0 0 -1
    outer loop
      vertex 8.74004 12.1471 0
      vertex 10.8 29.7 0
      vertex 9.22595 12.0534 0
    endloop
  endfacet
  facet normal 0 0 -1
    outer loop
      vertex 8.24743 12.1941 0
      vertex 10.8 29.7 0
      vertex 8.74004 12.1471 0
    endloop
  endfacet
  facet normal 0 0 -1
    outer loop
      vertex 7.75257 12.1941 0
      vertex 10.8 29.7 0
      vertex 8.24743 12.1941 0
    endloop
  endfacet
  facet normal 0 0 -1
    outer loop
      vertex 7.25996 12.1471 0
      vertex 10.8 29.7 0
      vertex 7.75257 12.1941 0
    endloop
  endfacet
  facet normal 0 0 -1
    outer loop
      vertex 1.8 29.7 0
      vertex 7.25996 12.1471 0
      vertex 6.77405 12.0534 0
    endloop
  endfacet
  facet normal 0 0 -1
    outer loop
      vertex 1.8 29.7 0
      vertex 6.77405 12.0534 0
      vertex 6.29925 11.914 0
    endloop
  endfacet
  facet normal 0 0 -1
    outer loop
      vertex 1.8 29.7 0
      vertex 6.29925 11.914 0
      vertex 5.83984 11.7301 0
    endloop
  endfacet
  facet normal 0 0 -1
    outer loop
      vertex 1.8 29.7 0
      vertex 5.83984 11.7301 0
      vertex 5.4 11.5033 0
    endloop
  endfacet
  facet normal 0 0 -1
    outer loop
      vertex 1.8 29.7 0
      vertex 5.4 11.5033 0
      vertex 4.9837 11.2358 0
    endloop
  endfacet
  facet normal 0 0 -1
    outer loop
      vertex 1.8 29.7 0
      vertex 4.9837 11.2358 0
      vertex 4.59472 10.9299 0
    endloop
  endfacet
  facet normal 0 0 -1
    outer loop
      vertex 1.8 29.7 0
      vertex 4.59472 10.9299 0
      vertex 4.23658 10.5884 0
    endloop
  endfacet
  facet normal 0 0 -1
    outer loop
      vertex 1.8 29.7 0
      vertex 4.23658 10.5884 0
      vertex 3.91252 10.2144 0
    endloop
  endfacet
  facet normal 0 0 -1
    outer loop
      vertex 1.8 29.7 0
      vertex 3.91252 10.2144 0
      vertex 3.62548 9.81133 0
    endloop
  endfacet
  facet normal 0 0 -1
    outer loop
      vertex 1.8 29.7 0
      vertex 3.62548 9.81133 0
      vertex 3.37806 9.38278 0
    endloop
  endfacet
  facet normal 0 0 -1
    outer loop
      vertex 1.8 29.7 0
      vertex 3.37806 9.38278 0
      vertex 3.17249 8.93264 0
    endloop
  endfacet
  facet normal 0 0 -1
    outer loop
      vertex 7.25996 12.1471 0
      vertex 1.8 29.7 0
      vertex 10.8 29.7 0
    endloop
  endfacet
  facet normal 0 0 -1
    outer loop
      vertex 3.01064 8.46501 0
      vertex 1.8 29.7 0
      vertex 3.17249 8.93264 0
    endloop
  endfacet
  facet normal 0 0 -1
    outer loop
      vertex 2.89397 7.98411 0
      vertex 1.8 29.7 0
      vertex 3.01064 8.46501 0
    endloop
  endfacet
  facet normal 0 0 -1
    outer loop
      vertex 0 0 0
      vertex 2.89397 7.98411 0
      vertex 2.82355 7.49429 0
    endloop
  endfacet
  facet normal 0 0 -1
    outer loop
      vertex 0 0 0
      vertex 2.82355 7.49429 0
      vertex 2.8 7 0
    endloop
  endfacet
  facet normal 0 0 -1
    outer loop
      vertex 13.1765 7.49429 0
      vertex 16 0 0
      vertex 13.2 7 0
    endloop
  endfacet
  facet normal 0 0 -1
    outer loop
      vertex 16 0 0
      vertex 13.1765 6.50571 0
      vertex 13.2 7 0
    endloop
  endfacet
  facet normal 0 0 -1
    outer loop
      vertex 16 0 0
      vertex 13.106 6.01589 0
      vertex 13.1765 6.50571 0
    endloop
  endfacet
  facet normal 0 0 -1
    outer loop
      vertex 16 0 0
      vertex 12.9894 5.53499 0
      vertex 13.106 6.01589 0
    endloop
  endfacet
  facet normal 0 0 -1
    outer loop
      vertex 16 0 0
      vertex 12.8275 5.06736 0
      vertex 12.9894 5.53499 0
    endloop
  endfacet
  facet normal 0 0 -1
    outer loop
      vertex 16 0 0
      vertex 12.6219 4.61722 0
      vertex 12.8275 5.06736 0
    endloop
  endfacet
  facet normal 0 0 -1
    outer loop
      vertex 16 0 0
      vertex 12.3745 4.18867 0
      vertex 12.6219 4.61722 0
    endloop
  endfacet
  facet normal 0 0 -1
    outer loop
      vertex 16 0 0
      vertex 12.0875 3.78557 0
      vertex 12.3745 4.18867 0
    endloop
  endfacet
  facet normal 0 0 -1
    outer loop
      vertex 16 0 0
      vertex 11.7634 3.41159 0
      vertex 12.0875 3.78557 0
    endloop
  endfacet
  facet normal 0 0 -1
    outer loop
      vertex 16 0 0
      vertex 11.4053 3.0701 0
      vertex 11.7634 3.41159 0
    endloop
  endfacet
  facet normal 0 0 -1
    outer loop
      vertex 16 0 0
      vertex 11.0163 2.7642 0
      vertex 11.4053 3.0701 0
    endloop
  endfacet
  facet normal 0 0 -1
    outer loop
      vertex 16 0 0
      vertex 10.6 2.49667 0
      vertex 11.0163 2.7642 0
    endloop
  endfacet
  facet normal 0 0 -1
    outer loop
      vertex 16 0 0
      vertex 10.1602 2.26991 0
      vertex 10.6 2.49667 0
    endloop
  endfacet
  facet normal 0 0 -1
    outer loop
      vertex 16 0 0
      vertex 9.70075 2.086 0
      vertex 10.1602 2.26991 0
    endloop
  endfacet
  facet normal 0 0 -1
    outer loop
      vertex 16 0 0
      vertex 9.22595 1.94658 0
      vertex 9.70075 2.086 0
    endloop
  endfacet
  facet normal 0 0 -1
    outer loop
      vertex 16 0 0
      vertex 8.74004 1.85293 0
      vertex 9.22595 1.94658 0
    endloop
  endfacet
  facet normal 0 0 -1
    outer loop
      vertex 16 0 0
      vertex 8.24743 1.80589 0
      vertex 8.74004 1.85293 0
    endloop
  endfacet
  facet normal 0 0 -1
    outer loop
      vertex 16 0 0
      vertex 7.75257 1.80589 0
      vertex 8.24743 1.80589 0
    endloop
  endfacet
  facet normal 0 0 -1
    outer loop
      vertex 0 0 0
      vertex 7.75257 1.80589 0
      vertex 16 0 0
    endloop
  endfacet
  facet normal -0 0 -1
    outer loop
      vertex 7.75257 1.80589 0
      vertex 0 0 0
      vertex 7.25996 1.85293 0
    endloop
  endfacet
  facet normal -0 0 -1
    outer loop
      vertex 1.8 29.7 0
      vertex 0 0 0
      vertex 1.8 48.7 0
    endloop
  endfacet
  facet normal -0 0 -1
    outer loop
      vertex 2.89397 7.98411 0
      vertex 0 0 0
      vertex 1.8 29.7 0
    endloop
  endfacet
  facet normal -0 0 -1
    outer loop
      vertex 2.82355 6.50571 0
      vertex 0 0 0
      vertex 2.8 7 0
    endloop
  endfacet
  facet normal -0 0 -1
    outer loop
      vertex 2.89397 6.01589 0
      vertex 0 0 0
      vertex 2.82355 6.50571 0
    endloop
  endfacet
  facet normal -0 0 -1
    outer loop
      vertex 3.01064 5.53499 0
      vertex 0 0 0
      vertex 2.89397 6.01589 0
    endloop
  endfacet
  facet normal -0 0 -1
    outer loop
      vertex 3.17249 5.06736 0
      vertex 0 0 0
      vertex 3.01064 5.53499 0
    endloop
  endfacet
  facet normal -0 0 -1
    outer loop
      vertex 3.37806 4.61722 0
      vertex 0 0 0
      vertex 3.17249 5.06736 0
    endloop
  endfacet
  facet normal -0 0 -1
    outer loop
      vertex 3.62548 4.18867 0
      vertex 0 0 0
      vertex 3.37806 4.61722 0
    endloop
  endfacet
  facet normal -0 0 -1
    outer loop
      vertex 3.91252 3.78557 0
      vertex 0 0 0
      vertex 3.62548 4.18867 0
    endloop
  endfacet
  facet normal -0 0 -1
    outer loop
      vertex 4.23658 3.41159 0
      vertex 0 0 0
      vertex 3.91252 3.78557 0
    endloop
  endfacet
  facet normal -0 0 -1
    outer loop
      vertex 4.59472 3.0701 0
      vertex 0 0 0
      vertex 4.23658 3.41159 0
    endloop
  endfacet
  facet normal -0 0 -1
    outer loop
      vertex 4.9837 2.7642 0
      vertex 0 0 0
      vertex 4.59472 3.0701 0
    endloop
  endfacet
  facet normal -0 0 -1
    outer loop
      vertex 5.4 2.49667 0
      vertex 0 0 0
      vertex 4.9837 2.7642 0
    endloop
  endfacet
  facet normal -0 0 -1
    outer loop
      vertex 5.83984 2.26991 0
      vertex 0 0 0
      vertex 5.4 2.49667 0
    endloop
  endfacet
  facet normal -0 0 -1
    outer loop
      vertex 6.29925 2.086 0
      vertex 0 0 0
      vertex 5.83984 2.26991 0
    endloop
  endfacet
  facet normal -0 0 -1
    outer loop
      vertex 6.77405 1.94658 0
      vertex 0 0 0
      vertex 6.29925 2.086 0
    endloop
  endfacet
  facet normal -0 0 -1
    outer loop
      vertex 7.25996 1.85293 0
      vertex 0 0 0
      vertex 6.77405 1.94658 0
    endloop
  endfacet
  facet normal 0 0 -1
    outer loop
      vertex 13.106 7.98411 0
      vertex 16 0 0
      vertex 13.1765 7.49429 0
    endloop
  endfacet
  facet normal 0 0 -1
    outer loop
      vertex 12.9894 8.46501 0
      vertex 16 0 0
      vertex 13.106 7.98411 0
    endloop
  endfacet
  facet normal 0 0 -1
    outer loop
      vertex 16 0 0
      vertex 12.9894 8.46501 0
      vertex 10.8 29.7 0
    endloop
  endfacet
  facet normal 0 0 -1
    outer loop
      vertex 10.8 29.7 0
      vertex 12.9894 8.46501 0
      vertex 12.8275 8.93264 0
    endloop
  endfacet
  facet normal 0 0 -1
    outer loop
      vertex 10.8 29.7 0
      vertex 12.8275 8.93264 0
      vertex 12.6219 9.38278 0
    endloop
  endfacet
  facet normal 0 0 -1
    outer loop
      vertex 10.8 29.7 0
      vertex 12.6219 9.38278 0
      vertex 12.3745 9.81133 0
    endloop
  endfacet
  facet normal 0 0 -1
    outer loop
      vertex 10.8 29.7 0
      vertex 12.3745 9.81133 0
      vertex 12.0875 10.2144 0
    endloop
  endfacet
  facet normal 0 0 -1
    outer loop
      vertex 10.8 29.7 0
      vertex 12.0875 10.2144 0
      vertex 11.7634 10.5884 0
    endloop
  endfacet
  facet normal 0 0 -1
    outer loop
      vertex 10.8 29.7 0
      vertex 11.7634 10.5884 0
      vertex 11.4053 10.9299 0
    endloop
  endfacet
  facet normal 0 0 -1
    outer loop
      vertex 10.8 29.7 0
      vertex 11.4053 10.9299 0
      vertex 11.0163 11.2358 0
    endloop
  endfacet
  facet normal 0 0 -1
    outer loop
      vertex 16 0 0
      vertex 10.8 29.7 0
      vertex 16 74.4 0
    endloop
  endfacet
  facet normal 0 0 -1
    outer loop
      vertex 10.8 48.7 0
      vertex 16 74.4 0
      vertex 10.8 29.7 0
    endloop
  endfacet
  facet normal 0 0 -1
    outer loop
      vertex 0 74.4 0
      vertex 10.8 48.7 0
      vertex 1.8 48.7 0
    endloop
  endfacet
  facet normal 0 0 -1
    outer loop
      vertex 10.8 48.7 0
      vertex 0 74.4 0
      vertex 16 74.4 0
    endloop
  endfacet
  facet normal 0 0 -1
    outer loop
      vertex 0 74.4 0
      vertex 1.8 48.7 0
      vertex 0 0 0
    endloop
  endfacet
  facet normal 0 -1 0
    outer loop
      vertex 0 0 24.3
      vertex 16 0 23.9
      vertex 16 0 24.3
    endloop
  endfacet
  facet normal 0 -1 0
    outer loop
      vertex 16 0 23.9
      vertex 16 0 22.7
      vertex 27.8 0 23.9
    endloop
  endfacet
  facet normal 0 -1 0
    outer loop
      vertex 0 0 24.3
      vertex 16 0 22.7
      vertex 16 0 23.9
    endloop
  endfacet
  facet normal 0 -1 0
    outer loop
      vertex 0 0 0
      vertex 16 0 22.7
      vertex 0 0 24.3
    endloop
  endfacet
  facet normal 0 -1 -0
    outer loop
      vertex 16 0 22.7
      vertex 0 0 0
      vertex 16 0 0
    endloop
  endfacet
  facet normal 0 -1 -0
    outer loop
      vertex 27.8 0 23.9
      vertex 16 0 22.7
      vertex 27.8 0 22.7
    endloop
  endfacet
  facet normal 1 -0 0
    outer loop
      vertex 1.2 1.2 24.3
      vertex 1.2 73.2 1.2
      vertex 1.2 73.2 24.3
    endloop
  endfacet
  facet normal 1 0 0
    outer loop
      vertex 1.2 73.2 1.2
      vertex 1.2 1.2 24.3
      vertex 1.2 1.2 1.2
    endloop
  endfacet
  facet normal -1 0 0
    outer loop
      vertex 14.8 1.2 1.2
      vertex 14.8 73.2 24.3
      vertex 14.8 73.2 1.2
    endloop
  endfacet
  facet normal -1 -0 0
    outer loop
      vertex 14.8 73.2 24.3
      vertex 14.8 1.2 1.2
      vertex 14.8 1.2 24.3
    endloop
  endfacet
  facet normal 0 -1 0
    outer loop
      vertex 1.2 73.2 1.2
      vertex 14.8 73.2 24.3
      vertex 1.2 73.2 24.3
    endloop
  endfacet
  facet normal 0 -1 -0
    outer loop
      vertex 14.8 73.2 24.3
      vertex 1.2 73.2 1.2
      vertex 14.8 73.2 1.2
    endloop
  endfacet
  facet normal -0 0 1
    outer loop
      vertex 10.8 29.7 1.2
      vertex 14.8 1.2 1.2
      vertex 14.8 73.2 1.2
    endloop
  endfacet
  facet normal 0 0 1
    outer loop
      vertex 14.8 1.2 1.2
      vertex 13.1765 7.49429 1.2
      vertex 13.2 7 1.2
    endloop
  endfacet
  facet normal 0 0 1
    outer loop
      vertex 14.8 1.2 1.2
      vertex 13.106 7.98411 1.2
      vertex 13.1765 7.49429 1.2
    endloop
  endfacet
  facet normal 0 0 1
    outer loop
      vertex 14.8 1.2 1.2
      vertex 10.8 29.7 1.2
      vertex 13.106 7.98411 1.2
    endloop
  endfacet
  facet normal 0 0 1
    outer loop
      vertex 13.106 7.98411 1.2
      vertex 10.8 29.7 1.2
      vertex 12.9894 8.46501 1.2
    endloop
  endfacet
  facet normal 0 0 1
    outer loop
      vertex 12.9894 8.46501 1.2
      vertex 10.8 29.7 1.2
      vertex 12.8275 8.93264 1.2
    endloop
  endfacet
  facet normal 0 0 1
    outer loop
      vertex 12.8275 8.93264 1.2
      vertex 10.8 29.7 1.2
      vertex 12.6219 9.38278 1.2
    endloop
  endfacet
  facet normal 0 0 1
    outer loop
      vertex 12.6219 9.38278 1.2
      vertex 10.8 29.7 1.2
      vertex 12.3745 9.81133 1.2
    endloop
  endfacet
  facet normal 0 0 1
    outer loop
      vertex 12.3745 9.81133 1.2
      vertex 10.8 29.7 1.2
      vertex 12.0875 10.2144 1.2
    endloop
  endfacet
  facet normal 0 0 1
    outer loop
      vertex 12.0875 10.2144 1.2
      vertex 10.8 29.7 1.2
      vertex 11.7634 10.5884 1.2
    endloop
  endfacet
  facet normal 0 0 1
    outer loop
      vertex 11.7634 10.5884 1.2
      vertex 10.8 29.7 1.2
      vertex 11.4053 10.9299 1.2
    endloop
  endfacet
  facet normal 0 0 1
    outer loop
      vertex 10.8 29.7 1.2
      vertex 14.8 73.2 1.2
      vertex 10.8 48.7 1.2
    endloop
  endfacet
  facet normal -0 0 1
    outer loop
      vertex 1.2 73.2 1.2
      vertex 10.8 48.7 1.2
      vertex 14.8 73.2 1.2
    endloop
  endfacet
  facet normal 0 0 1
    outer loop
      vertex 1.8 48.7 1.2
      vertex 1.2 73.2 1.2
      vertex 1.8 29.7 1.2
    endloop
  endfacet
  facet normal 0 0 1
    outer loop
      vertex 10.8 48.7 1.2
      vertex 1.2 73.2 1.2
      vertex 1.8 48.7 1.2
    endloop
  endfacet
  facet normal -0 0 1
    outer loop
      vertex 13.1765 6.50571 1.2
      vertex 14.8 1.2 1.2
      vertex 13.2 7 1.2
    endloop
  endfacet
  facet normal -0 0 1
    outer loop
      vertex 13.106 6.01589 1.2
      vertex 14.8 1.2 1.2
      vertex 13.1765 6.50571 1.2
    endloop
  endfacet
  facet normal -0 0 1
    outer loop
      vertex 12.9894 5.53499 1.2
      vertex 14.8 1.2 1.2
      vertex 13.106 6.01589 1.2
    endloop
  endfacet
  facet normal -0 0 1
    outer loop
      vertex 12.8275 5.06736 1.2
      vertex 14.8 1.2 1.2
      vertex 12.9894 5.53499 1.2
    endloop
  endfacet
  facet normal -0 0 1
    outer loop
      vertex 12.6219 4.61722 1.2
      vertex 14.8 1.2 1.2
      vertex 12.8275 5.06736 1.2
    endloop
  endfacet
  facet normal -0 0 1
    outer loop
      vertex 12.3745 4.18867 1.2
      vertex 14.8 1.2 1.2
      vertex 12.6219 4.61722 1.2
    endloop
  endfacet
  facet normal -0 0 1
    outer loop
      vertex 12.0875 3.78557 1.2
      vertex 14.8 1.2 1.2
      vertex 12.3745 4.18867 1.2
    endloop
  endfacet
  facet normal -0 0 1
    outer loop
      vertex 11.7634 3.41159 1.2
      vertex 14.8 1.2 1.2
      vertex 12.0875 3.78557 1.2
    endloop
  endfacet
  facet normal -0 0 1
    outer loop
      vertex 11.4053 3.0701 1.2
      vertex 14.8 1.2 1.2
      vertex 11.7634 3.41159 1.2
    endloop
  endfacet
  facet normal -0 0 1
    outer loop
      vertex 11.0163 2.7642 1.2
      vertex 14.8 1.2 1.2
      vertex 11.4053 3.0701 1.2
    endloop
  endfacet
  facet normal -0 0 1
    outer loop
      vertex 10.6 2.49667 1.2
      vertex 14.8 1.2 1.2
      vertex 11.0163 2.7642 1.2
    endloop
  endfacet
  facet normal -0 0 1
    outer loop
      vertex 10.1602 2.26991 1.2
      vertex 14.8 1.2 1.2
      vertex 10.6 2.49667 1.2
    endloop
  endfacet
  facet normal -0 0 1
    outer loop
      vertex 9.70075 2.086 1.2
      vertex 14.8 1.2 1.2
      vertex 10.1602 2.26991 1.2
    endloop
  endfacet
  facet normal -0 0 1
    outer loop
      vertex 9.22595 1.94658 1.2
      vertex 14.8 1.2 1.2
      vertex 9.70075 2.086 1.2
    endloop
  endfacet
  facet normal -0 0 1
    outer loop
      vertex 8.74004 1.85293 1.2
      vertex 14.8 1.2 1.2
      vertex 9.22595 1.94658 1.2
    endloop
  endfacet
  facet normal -0 0 1
    outer loop
      vertex 8.24743 1.80589 1.2
      vertex 14.8 1.2 1.2
      vertex 8.74004 1.85293 1.2
    endloop
  endfacet
  facet normal -0 0 1
    outer loop
      vertex 7.75257 1.80589 1.2
      vertex 14.8 1.2 1.2
      vertex 8.24743 1.80589 1.2
    endloop
  endfacet
  facet normal 0 0 1
    outer loop
      vertex 7.75257 1.80589 1.2
      vertex 1.2 1.2 1.2
      vertex 14.8 1.2 1.2
    endloop
  endfacet
  facet normal 0 0 1
    outer loop
      vertex 7.25996 1.85293 1.2
      vertex 1.2 1.2 1.2
      vertex 7.75257 1.80589 1.2
    endloop
  endfacet
  facet normal 0 0 1
    outer loop
      vertex 6.77405 1.94658 1.2
      vertex 1.2 1.2 1.2
      vertex 7.25996 1.85293 1.2
    endloop
  endfacet
  facet normal 0 0 1
    outer loop
      vertex 6.29925 2.086 1.2
      vertex 1.2 1.2 1.2
      vertex 6.77405 1.94658 1.2
    endloop
  endfacet
  facet normal 0 0 1
    outer loop
      vertex 5.83984 2.26991 1.2
      vertex 1.2 1.2 1.2
      vertex 6.29925 2.086 1.2
    endloop
  endfacet
  facet normal 0 0 1
    outer loop
      vertex 5.4 2.49667 1.2
      vertex 1.2 1.2 1.2
      vertex 5.83984 2.26991 1.2
    endloop
  endfacet
  facet normal 0 0 1
    outer loop
      vertex 4.9837 2.7642 1.2
      vertex 1.2 1.2 1.2
      vertex 5.4 2.49667 1.2
    endloop
  endfacet
  facet normal 0 0 1
    outer loop
      vertex 4.59472 3.0701 1.2
      vertex 1.2 1.2 1.2
      vertex 4.9837 2.7642 1.2
    endloop
  endfacet
  facet normal 0 0 1
    outer loop
      vertex 4.23658 3.41159 1.2
      vertex 1.2 1.2 1.2
      vertex 4.59472 3.0701 1.2
    endloop
  endfacet
  facet normal 0 0 1
    outer loop
      vertex 3.91252 3.78557 1.2
      vertex 1.2 1.2 1.2
      vertex 4.23658 3.41159 1.2
    endloop
  endfacet
  facet normal 0 0 1
    outer loop
      vertex 3.62548 4.18867 1.2
      vertex 1.2 1.2 1.2
      vertex 3.91252 3.78557 1.2
    endloop
  endfacet
  facet normal 0 0 1
    outer loop
      vertex 3.37806 4.61722 1.2
      vertex 1.2 1.2 1.2
      vertex 3.62548 4.18867 1.2
    endloop
  endfacet
  facet normal 0 0 1
    outer loop
      vertex 3.17249 5.06736 1.2
      vertex 1.2 1.2 1.2
      vertex 3.37806 4.61722 1.2
    endloop
  endfacet
  facet normal 0 0 1
    outer loop
      vertex 3.01064 5.53499 1.2
      vertex 1.2 1.2 1.2
      vertex 3.17249 5.06736 1.2
    endloop
  endfacet
  facet normal 0 0 1
    outer loop
      vertex 2.89397 6.01589 1.2
      vertex 1.2 1.2 1.2
      vertex 3.01064 5.53499 1.2
    endloop
  endfacet
  facet normal 0 0 1
    outer loop
      vertex 2.82355 6.50571 1.2
      vertex 1.2 1.2 1.2
      vertex 2.89397 6.01589 1.2
    endloop
  endfacet
  facet normal 0 0 1
    outer loop
      vertex 2.8 7 1.2
      vertex 1.2 1.2 1.2
      vertex 2.82355 6.50571 1.2
    endloop
  endfacet
  facet normal 0 0 1
    outer loop
      vertex 2.82355 7.49429 1.2
      vertex 1.2 1.2 1.2
      vertex 2.8 7 1.2
    endloop
  endfacet
  facet normal 0 0 1
    outer loop
      vertex 1.2 1.2 1.2
      vertex 1.8 29.7 1.2
      vertex 1.2 73.2 1.2
    endloop
  endfacet
  facet normal 0 0 1
    outer loop
      vertex 11.4053 10.9299 1.2
      vertex 10.8 29.7 1.2
      vertex 11.0163 11.2358 1.2
    endloop
  endfacet
  facet normal 0 0 1
    outer loop
      vertex 10.8 29.7 1.2
      vertex 10.6 11.5033 1.2
      vertex 11.0163 11.2358 1.2
    endloop
  endfacet
  facet normal 0 0 1
    outer loop
      vertex 10.8 29.7 1.2
      vertex 10.1602 11.7301 1.2
      vertex 10.6 11.5033 1.2
    endloop
  endfacet
  facet normal 0 0 1
    outer loop
      vertex 10.8 29.7 1.2
      vertex 9.70075 11.914 1.2
      vertex 10.1602 11.7301 1.2
    endloop
  endfacet
  facet normal 0 0 1
    outer loop
      vertex 10.8 29.7 1.2
      vertex 9.22595 12.0534 1.2
      vertex 9.70075 11.914 1.2
    endloop
  endfacet
  facet normal 0 0 1
    outer loop
      vertex 10.8 29.7 1.2
      vertex 8.74004 12.1471 1.2
      vertex 9.22595 12.0534 1.2
    endloop
  endfacet
  facet normal 0 0 1
    outer loop
      vertex 10.8 29.7 1.2
      vertex 8.24743 12.1941 1.2
      vertex 8.74004 12.1471 1.2
    endloop
  endfacet
  facet normal 0 0 1
    outer loop
      vertex 10.8 29.7 1.2
      vertex 7.75257 12.1941 1.2
      vertex 8.24743 12.1941 1.2
    endloop
  endfacet
  facet normal 0 0 1
    outer loop
      vertex 10.8 29.7 1.2
      vertex 7.25996 12.1471 1.2
      vertex 7.75257 12.1941 1.2
    endloop
  endfacet
  facet normal -0 0 1
    outer loop
      vertex 1.8 29.7 1.2
      vertex 7.25996 12.1471 1.2
      vertex 10.8 29.7 1.2
    endloop
  endfacet
  facet normal 0 0 1
    outer loop
      vertex 7.25996 12.1471 1.2
      vertex 1.8 29.7 1.2
      vertex 6.77405 12.0534 1.2
    endloop
  endfacet
  facet normal 0 0 1
    outer loop
      vertex 6.77405 12.0534 1.2
      vertex 1.8 29.7 1.2
      vertex 6.29925 11.914 1.2
    endloop
  endfacet
  facet normal 0 0 1
    outer loop
      vertex 6.29925 11.914 1.2
      vertex 1.8 29.7 1.2
      vertex 5.83984 11.7301 1.2
    endloop
  endfacet
  facet normal 0 0 1
    outer loop
      vertex 5.83984 11.7301 1.2
      vertex 1.8 29.7 1.2
      vertex 5.4 11.5033 1.2
    endloop
  endfacet
  facet normal 0 0 1
    outer loop
      vertex 5.4 11.5033 1.2
      vertex 1.8 29.7 1.2
      vertex 4.9837 11.2358 1.2
    endloop
  endfacet
  facet normal 0 0 1
    outer loop
      vertex 4.9837 11.2358 1.2
      vertex 1.8 29.7 1.2
      vertex 4.59472 10.9299 1.2
    endloop
  endfacet
  facet normal 0 0 1
    outer loop
      vertex 4.59472 10.9299 1.2
      vertex 1.8 29.7 1.2
      vertex 4.23658 10.5884 1.2
    endloop
  endfacet
  facet normal 0 0 1
    outer loop
      vertex 4.23658 10.5884 1.2
      vertex 1.8 29.7 1.2
      vertex 3.91252 10.2144 1.2
    endloop
  endfacet
  facet normal 0 0 1
    outer loop
      vertex 3.91252 10.2144 1.2
      vertex 1.8 29.7 1.2
      vertex 3.62548 9.81133 1.2
    endloop
  endfacet
  facet normal 0 0 1
    outer loop
      vertex 3.62548 9.81133 1.2
      vertex 1.8 29.7 1.2
      vertex 3.37806 9.38278 1.2
    endloop
  endfacet
  facet normal 0 0 1
    outer loop
      vertex 2.89397 7.98411 1.2
      vertex 1.2 1.2 1.2
      vertex 2.82355 7.49429 1.2
    endloop
  endfacet
  facet normal 0 0 1
    outer loop
      vertex 1.2 1.2 1.2
      vertex 2.89397 7.98411 1.2
      vertex 1.8 29.7 1.2
    endloop
  endfacet
  facet normal 0 0 1
    outer loop
      vertex 3.01064 8.46501 1.2
      vertex 1.8 29.7 1.2
      vertex 2.89397 7.98411 1.2
    endloop
  endfacet
  facet normal 0 0 1
    outer loop
      vertex 3.17249 8.93264 1.2
      vertex 1.8 29.7 1.2
      vertex 3.01064 8.46501 1.2
    endloop
  endfacet
  facet normal 0 0 1
    outer loop
      vertex 3.37806 9.38278 1.2
      vertex 1.8 29.7 1.2
      vertex 3.17249 8.93264 1.2
    endloop
  endfacet
  facet normal 0 1 -0
    outer loop
      vertex 14.8 1.2 1.2
      vertex 1.2 1.2 24.3
      vertex 14.8 1.2 24.3
    endloop
  endfacet
  facet normal 0 1 0
    outer loop
      vertex 1.2 1.2 24.3
      vertex 14.8 1.2 1.2
      vertex 1.2 1.2 1.2
    endloop
  endfacet
  facet normal -0.998867 -0.0475824 0
    outer loop
      vertex 13.2 7 0
      vertex 13.1765 7.49429 1.2
      vertex 13.1765 7.49429 0
    endloop
  endfacet
  facet normal -0.998867 -0.0475824 0
    outer loop
      vertex 13.1765 7.49429 1.2
      vertex 13.2 7 0
      vertex 13.2 7 1.2
    endloop
  endfacet
  facet normal 0 -1 0
    outer loop
      vertex 7.75257 12.1941 0
      vertex 8.24743 12.1941 1.2
      vertex 7.75257 12.1941 1.2
    endloop
  endfacet
  facet normal 0 -1 -0
    outer loop
      vertex 8.24743 12.1941 1.2
      vertex 7.75257 12.1941 0
      vertex 8.24743 12.1941 0
    endloop
  endfacet
  facet normal 0.690079 0.723734 -0
    outer loop
      vertex 4.59472 3.0701 0
      vertex 4.23658 3.41159 1.2
      vertex 4.59472 3.0701 1.2
    endloop
  endfacet
  facet normal 0.690079 0.723734 0
    outer loop
      vertex 4.23658 3.41159 1.2
      vertex 4.59472 3.0701 0
      vertex 4.23658 3.41159 0
    endloop
  endfacet
  facet normal -0.690079 -0.723734 0
    outer loop
      vertex 11.4053 10.9299 0
      vertex 11.7634 10.5884 1.2
      vertex 11.4053 10.9299 1.2
    endloop
  endfacet
  facet normal -0.690079 -0.723734 -0
    outer loop
      vertex 11.7634 10.5884 1.2
      vertex 11.4053 10.9299 0
      vertex 11.7634 10.5884 0
    endloop
  endfacet
  facet normal 0.755749 -0.654861 0
    outer loop
      vertex 3.91252 10.2144 1.2
      vertex 4.23658 10.5884 0
      vertex 4.23658 10.5884 1.2
    endloop
  endfacet
  facet normal 0.755749 -0.654861 0
    outer loop
      vertex 4.23658 10.5884 0
      vertex 3.91252 10.2144 1.2
      vertex 3.91252 10.2144 0
    endloop
  endfacet
  facet normal 0.371661 -0.928368 0
    outer loop
      vertex 5.83984 11.7301 0
      vertex 6.29925 11.914 1.2
      vertex 5.83984 11.7301 1.2
    endloop
  endfacet
  facet normal 0.371661 -0.928368 0
    outer loop
      vertex 6.29925 11.914 1.2
      vertex 5.83984 11.7301 0
      vertex 6.29925 11.914 0
    endloop
  endfacet
  facet normal -0.909632 -0.415415 0
    outer loop
      vertex 12.8275 8.93264 0
      vertex 12.6219 9.38278 1.2
      vertex 12.6219 9.38278 0
    endloop
  endfacet
  facet normal -0.909632 -0.415415 0
    outer loop
      vertex 12.6219 9.38278 1.2
      vertex 12.8275 8.93264 0
      vertex 12.8275 8.93264 1.2
    endloop
  endfacet
  facet normal -0.371661 -0.928368 0
    outer loop
      vertex 9.70075 11.914 0
      vertex 10.1602 11.7301 1.2
      vertex 9.70075 11.914 1.2
    endloop
  endfacet
  facet normal -0.371661 -0.928368 -0
    outer loop
      vertex 10.1602 11.7301 1.2
      vertex 9.70075 11.914 0
      vertex 10.1602 11.7301 0
    endloop
  endfacet
  facet normal -0.540641 -0.841254 0
    outer loop
      vertex 10.6 11.5033 0
      vertex 11.0163 11.2358 1.2
      vertex 10.6 11.5033 1.2
    endloop
  endfacet
  facet normal -0.540641 -0.841254 -0
    outer loop
      vertex 11.0163 11.2358 1.2
      vertex 10.6 11.5033 0
      vertex 11.0163 11.2358 0
    endloop
  endfacet
  facet normal 0.945001 -0.327068 0
    outer loop
      vertex 3.01064 8.46501 1.2
      vertex 3.17249 8.93264 0
      vertex 3.17249 8.93264 1.2
    endloop
  endfacet
  facet normal 0.945001 -0.327068 0
    outer loop
      vertex 3.17249 8.93264 0
      vertex 3.01064 8.46501 1.2
      vertex 3.01064 8.46501 0
    endloop
  endfacet
  facet normal 0.18925 -0.981929 0
    outer loop
      vertex 6.77405 12.0534 0
      vertex 7.25996 12.1471 1.2
      vertex 6.77405 12.0534 1.2
    endloop
  endfacet
  facet normal 0.18925 -0.981929 0
    outer loop
      vertex 7.25996 12.1471 1.2
      vertex 6.77405 12.0534 0
      vertex 7.25996 12.1471 0
    endloop
  endfacet
  facet normal -0.945001 0.327068 0
    outer loop
      vertex 12.8275 5.06736 0
      vertex 12.9894 5.53499 1.2
      vertex 12.9894 5.53499 0
    endloop
  endfacet
  facet normal -0.945001 0.327068 0
    outer loop
      vertex 12.9894 5.53499 1.2
      vertex 12.8275 5.06736 0
      vertex 12.8275 5.06736 1.2
    endloop
  endfacet
  facet normal -0.971812 0.235759 0
    outer loop
      vertex 12.9894 5.53499 0
      vertex 13.106 6.01589 1.2
      vertex 13.106 6.01589 0
    endloop
  endfacet
  facet normal -0.971812 0.235759 0
    outer loop
      vertex 13.106 6.01589 1.2
      vertex 12.9894 5.53499 0
      vertex 12.9894 5.53499 1.2
    endloop
  endfacet
  facet normal -0.971812 -0.235759 0
    outer loop
      vertex 13.106 7.98411 0
      vertex 12.9894 8.46501 1.2
      vertex 12.9894 8.46501 0
    endloop
  endfacet
  facet normal -0.971812 -0.235759 0
    outer loop
      vertex 12.9894 8.46501 1.2
      vertex 13.106 7.98411 0
      vertex 13.106 7.98411 1.2
    endloop
  endfacet
  facet normal -0.989821 -0.142315 0
    outer loop
      vertex 13.1765 7.49429 0
      vertex 13.106 7.98411 1.2
      vertex 13.106 7.98411 0
    endloop
  endfacet
  facet normal -0.989821 -0.142315 0
    outer loop
      vertex 13.106 7.98411 1.2
      vertex 13.1765 7.49429 0
      vertex 13.1765 7.49429 1.2
    endloop
  endfacet
  facet normal -0.945001 -0.327068 0
    outer loop
      vertex 12.9894 8.46501 0
      vertex 12.8275 8.93264 1.2
      vertex 12.8275 8.93264 0
    endloop
  endfacet
  facet normal -0.945001 -0.327068 0
    outer loop
      vertex 12.8275 8.93264 1.2
      vertex 12.9894 8.46501 0
      vertex 12.9894 8.46501 1.2
    endloop
  endfacet
  facet normal -0.814576 -0.580056 0
    outer loop
      vertex 12.3745 9.81133 0
      vertex 12.0875 10.2144 1.2
      vertex 12.0875 10.2144 0
    endloop
  endfacet
  facet normal -0.814576 -0.580056 0
    outer loop
      vertex 12.0875 10.2144 1.2
      vertex 12.3745 9.81133 0
      vertex 12.3745 9.81133 1.2
    endloop
  endfacet
  facet normal -0.755749 -0.654861 0
    outer loop
      vertex 12.0875 10.2144 0
      vertex 11.7634 10.5884 1.2
      vertex 11.7634 10.5884 0
    endloop
  endfacet
  facet normal -0.755749 -0.654861 0
    outer loop
      vertex 11.7634 10.5884 1.2
      vertex 12.0875 10.2144 0
      vertex 12.0875 10.2144 1.2
    endloop
  endfacet
  facet normal -0.866025 -0.5 0
    outer loop
      vertex 12.6219 9.38278 0
      vertex 12.3745 9.81133 1.2
      vertex 12.3745 9.81133 0
    endloop
  endfacet
  facet normal -0.866025 -0.5 0
    outer loop
      vertex 12.3745 9.81133 1.2
      vertex 12.6219 9.38278 0
      vertex 12.6219 9.38278 1.2
    endloop
  endfacet
  facet normal -0.18925 -0.981929 0
    outer loop
      vertex 8.74004 12.1471 0
      vertex 9.22595 12.0534 1.2
      vertex 8.74004 12.1471 1.2
    endloop
  endfacet
  facet normal -0.18925 -0.981929 -0
    outer loop
      vertex 9.22595 12.0534 1.2
      vertex 8.74004 12.1471 0
      vertex 9.22595 12.0534 0
    endloop
  endfacet
  facet normal -0.281734 -0.959493 0
    outer loop
      vertex 9.22595 12.0534 0
      vertex 9.70075 11.914 1.2
      vertex 9.22595 12.0534 1.2
    endloop
  endfacet
  facet normal -0.281734 -0.959493 -0
    outer loop
      vertex 9.70075 11.914 1.2
      vertex 9.22595 12.0534 0
      vertex 9.70075 11.914 0
    endloop
  endfacet
  facet normal -0.0950566 -0.995472 0
    outer loop
      vertex 8.24743 12.1941 0
      vertex 8.74004 12.1471 1.2
      vertex 8.24743 12.1941 1.2
    endloop
  endfacet
  facet normal -0.0950566 -0.995472 -0
    outer loop
      vertex 8.74004 12.1471 1.2
      vertex 8.24743 12.1941 0
      vertex 8.74004 12.1471 0
    endloop
  endfacet
  facet normal -0.458228 -0.888835 0
    outer loop
      vertex 10.1602 11.7301 0
      vertex 10.6 11.5033 1.2
      vertex 10.1602 11.7301 1.2
    endloop
  endfacet
  facet normal -0.458228 -0.888835 -0
    outer loop
      vertex 10.6 11.5033 1.2
      vertex 10.1602 11.7301 0
      vertex 10.6 11.5033 0
    endloop
  endfacet
  facet normal -0.618158 -0.786054 0
    outer loop
      vertex 11.0163 11.2358 0
      vertex 11.4053 10.9299 1.2
      vertex 11.0163 11.2358 1.2
    endloop
  endfacet
  facet normal -0.618158 -0.786054 -0
    outer loop
      vertex 11.4053 10.9299 1.2
      vertex 11.0163 11.2358 0
      vertex 11.4053 10.9299 0
    endloop
  endfacet
  facet normal 0.989821 -0.142315 0
    outer loop
      vertex 2.82355 7.49429 1.2
      vertex 2.89397 7.98411 0
      vertex 2.89397 7.98411 1.2
    endloop
  endfacet
  facet normal 0.989821 -0.142315 0
    outer loop
      vertex 2.89397 7.98411 0
      vertex 2.82355 7.49429 1.2
      vertex 2.82355 7.49429 0
    endloop
  endfacet
  facet normal 0.866025 -0.5 0
    outer loop
      vertex 3.37806 9.38278 1.2
      vertex 3.62548 9.81133 0
      vertex 3.62548 9.81133 1.2
    endloop
  endfacet
  facet normal 0.866025 -0.5 0
    outer loop
      vertex 3.62548 9.81133 0
      vertex 3.37806 9.38278 1.2
      vertex 3.37806 9.38278 0
    endloop
  endfacet
  facet normal 0.814576 -0.580056 0
    outer loop
      vertex 3.62548 9.81133 1.2
      vertex 3.91252 10.2144 0
      vertex 3.91252 10.2144 1.2
    endloop
  endfacet
  facet normal 0.814576 -0.580056 0
    outer loop
      vertex 3.91252 10.2144 0
      vertex 3.62548 9.81133 1.2
      vertex 3.62548 9.81133 0
    endloop
  endfacet
  facet normal 0.909632 -0.415415 0
    outer loop
      vertex 3.17249 8.93264 1.2
      vertex 3.37806 9.38278 0
      vertex 3.37806 9.38278 1.2
    endloop
  endfacet
  facet normal 0.909632 -0.415415 0
    outer loop
      vertex 3.37806 9.38278 0
      vertex 3.17249 8.93264 1.2
      vertex 3.17249 8.93264 0
    endloop
  endfacet
  facet normal 0.971812 -0.235759 0
    outer loop
      vertex 2.89397 7.98411 1.2
      vertex 3.01064 8.46501 0
      vertex 3.01064 8.46501 1.2
    endloop
  endfacet
  facet normal 0.971812 -0.235759 0
    outer loop
      vertex 3.01064 8.46501 0
      vertex 2.89397 7.98411 1.2
      vertex 2.89397 7.98411 0
    endloop
  endfacet
  facet normal 0.998867 -0.0475824 0
    outer loop
      vertex 2.8 7 1.2
      vertex 2.82355 7.49429 0
      vertex 2.82355 7.49429 1.2
    endloop
  endfacet
  facet normal 0.998867 -0.0475824 0
    outer loop
      vertex 2.82355 7.49429 0
      vertex 2.8 7 1.2
      vertex 2.8 7 0
    endloop
  endfacet
  facet normal 0.618158 -0.786054 0
    outer loop
      vertex 4.59472 10.9299 0
      vertex 4.9837 11.2358 1.2
      vertex 4.59472 10.9299 1.2
    endloop
  endfacet
  facet normal 0.618158 -0.786054 0
    outer loop
      vertex 4.9837 11.2358 1.2
      vertex 4.59472 10.9299 0
      vertex 4.9837 11.2358 0
    endloop
  endfacet
  facet normal 0.690079 -0.723734 0
    outer loop
      vertex 4.23658 10.5884 0
      vertex 4.59472 10.9299 1.2
      vertex 4.23658 10.5884 1.2
    endloop
  endfacet
  facet normal 0.690079 -0.723734 0
    outer loop
      vertex 4.59472 10.9299 1.2
      vertex 4.23658 10.5884 0
      vertex 4.59472 10.9299 0
    endloop
  endfacet
  facet normal 0.281734 -0.959493 0
    outer loop
      vertex 6.29925 11.914 0
      vertex 6.77405 12.0534 1.2
      vertex 6.29925 11.914 1.2
    endloop
  endfacet
  facet normal 0.281734 -0.959493 0
    outer loop
      vertex 6.77405 12.0534 1.2
      vertex 6.29925 11.914 0
      vertex 6.77405 12.0534 0
    endloop
  endfacet
  facet normal 0.0950566 -0.995472 0
    outer loop
      vertex 7.25996 12.1471 0
      vertex 7.75257 12.1941 1.2
      vertex 7.25996 12.1471 1.2
    endloop
  endfacet
  facet normal 0.0950566 -0.995472 0
    outer loop
      vertex 7.75257 12.1941 1.2
      vertex 7.25996 12.1471 0
      vertex 7.75257 12.1941 0
    endloop
  endfacet
  facet normal -0.0950566 0.995472 0
    outer loop
      vertex 8.74004 1.85293 0
      vertex 8.24743 1.80589 1.2
      vertex 8.74004 1.85293 1.2
    endloop
  endfacet
  facet normal -0.0950566 0.995472 0
    outer loop
      vertex 8.24743 1.80589 1.2
      vertex 8.74004 1.85293 0
      vertex 8.24743 1.80589 0
    endloop
  endfacet
  facet normal -0.281734 0.959493 0
    outer loop
      vertex 9.70075 2.086 0
      vertex 9.22595 1.94658 1.2
      vertex 9.70075 2.086 1.2
    endloop
  endfacet
  facet normal -0.281734 0.959493 0
    outer loop
      vertex 9.22595 1.94658 1.2
      vertex 9.70075 2.086 0
      vertex 9.22595 1.94658 0
    endloop
  endfacet
  facet normal -0.690079 0.723734 0
    outer loop
      vertex 11.7634 3.41159 0
      vertex 11.4053 3.0701 1.2
      vertex 11.7634 3.41159 1.2
    endloop
  endfacet
  facet normal -0.690079 0.723734 0
    outer loop
      vertex 11.4053 3.0701 1.2
      vertex 11.7634 3.41159 0
      vertex 11.4053 3.0701 0
    endloop
  endfacet
  facet normal -0.814576 0.580056 0
    outer loop
      vertex 12.0875 3.78557 0
      vertex 12.3745 4.18867 1.2
      vertex 12.3745 4.18867 0
    endloop
  endfacet
  facet normal -0.814576 0.580056 0
    outer loop
      vertex 12.3745 4.18867 1.2
      vertex 12.0875 3.78557 0
      vertex 12.0875 3.78557 1.2
    endloop
  endfacet
  facet normal -0.909632 0.415415 0
    outer loop
      vertex 12.6219 4.61722 0
      vertex 12.8275 5.06736 1.2
      vertex 12.8275 5.06736 0
    endloop
  endfacet
  facet normal -0.909632 0.415415 0
    outer loop
      vertex 12.8275 5.06736 1.2
      vertex 12.6219 4.61722 0
      vertex 12.6219 4.61722 1.2
    endloop
  endfacet
  facet normal 0.618158 0.786054 -0
    outer loop
      vertex 4.9837 2.7642 0
      vertex 4.59472 3.0701 1.2
      vertex 4.9837 2.7642 1.2
    endloop
  endfacet
  facet normal 0.618158 0.786054 0
    outer loop
      vertex 4.59472 3.0701 1.2
      vertex 4.9837 2.7642 0
      vertex 4.59472 3.0701 0
    endloop
  endfacet
  facet normal 0.458228 0.888835 -0
    outer loop
      vertex 5.83984 2.26991 0
      vertex 5.4 2.49667 1.2
      vertex 5.83984 2.26991 1.2
    endloop
  endfacet
  facet normal 0.458228 0.888835 0
    outer loop
      vertex 5.4 2.49667 1.2
      vertex 5.83984 2.26991 0
      vertex 5.4 2.49667 0
    endloop
  endfacet
  facet normal 0.281734 0.959493 -0
    outer loop
      vertex 6.77405 1.94658 0
      vertex 6.29925 2.086 1.2
      vertex 6.77405 1.94658 1.2
    endloop
  endfacet
  facet normal 0.281734 0.959493 0
    outer loop
      vertex 6.29925 2.086 1.2
      vertex 6.77405 1.94658 0
      vertex 6.29925 2.086 0
    endloop
  endfacet
  facet normal 0.0950566 0.995472 -0
    outer loop
      vertex 7.75257 1.80589 0
      vertex 7.25996 1.85293 1.2
      vertex 7.75257 1.80589 1.2
    endloop
  endfacet
  facet normal 0.0950566 0.995472 0
    outer loop
      vertex 7.25996 1.85293 1.2
      vertex 7.75257 1.80589 0
      vertex 7.25996 1.85293 0
    endloop
  endfacet
  facet normal 0.814576 0.580056 0
    outer loop
      vertex 3.91252 3.78557 1.2
      vertex 3.62548 4.18867 0
      vertex 3.62548 4.18867 1.2
    endloop
  endfacet
  facet normal 0.814576 0.580056 0
    outer loop
      vertex 3.62548 4.18867 0
      vertex 3.91252 3.78557 1.2
      vertex 3.91252 3.78557 0
    endloop
  endfacet
  facet normal 0.866025 0.5 0
    outer loop
      vertex 3.62548 4.18867 1.2
      vertex 3.37806 4.61722 0
      vertex 3.37806 4.61722 1.2
    endloop
  endfacet
  facet normal 0.866025 0.5 0
    outer loop
      vertex 3.37806 4.61722 0
      vertex 3.62548 4.18867 1.2
      vertex 3.62548 4.18867 0
    endloop
  endfacet
  facet normal 0.755749 0.654861 0
    outer loop
      vertex 4.23658 3.41159 1.2
      vertex 3.91252 3.78557 0
      vertex 3.91252 3.78557 1.2
    endloop
  endfacet
  facet normal 0.755749 0.654861 0
    outer loop
      vertex 3.91252 3.78557 0
      vertex 4.23658 3.41159 1.2
      vertex 4.23658 3.41159 0
    endloop
  endfacet
  facet normal 0.945001 0.327068 0
    outer loop
      vertex 3.17249 5.06736 1.2
      vertex 3.01064 5.53499 0
      vertex 3.01064 5.53499 1.2
    endloop
  endfacet
  facet normal 0.945001 0.327068 0
    outer loop
      vertex 3.01064 5.53499 0
      vertex 3.17249 5.06736 1.2
      vertex 3.17249 5.06736 0
    endloop
  endfacet
  facet normal 0.909632 0.415415 0
    outer loop
      vertex 3.37806 4.61722 1.2
      vertex 3.17249 5.06736 0
      vertex 3.17249 5.06736 1.2
    endloop
  endfacet
  facet normal 0.909632 0.415415 0
    outer loop
      vertex 3.17249 5.06736 0
      vertex 3.37806 4.61722 1.2
      vertex 3.37806 4.61722 0
    endloop
  endfacet
  facet normal 0.989821 0.142315 0
    outer loop
      vertex 2.89397 6.01589 1.2
      vertex 2.82355 6.50571 0
      vertex 2.82355 6.50571 1.2
    endloop
  endfacet
  facet normal 0.989821 0.142315 0
    outer loop
      vertex 2.82355 6.50571 0
      vertex 2.89397 6.01589 1.2
      vertex 2.89397 6.01589 0
    endloop
  endfacet
  facet normal 0.998867 0.0475823 0
    outer loop
      vertex 2.82355 6.50571 1.2
      vertex 2.8 7 0
      vertex 2.8 7 1.2
    endloop
  endfacet
  facet normal 0.998867 0.0475823 0
    outer loop
      vertex 2.8 7 0
      vertex 2.82355 6.50571 1.2
      vertex 2.82355 6.50571 0
    endloop
  endfacet
  facet normal 0.540641 -0.841254 0
    outer loop
      vertex 4.9837 11.2358 0
      vertex 5.4 11.5033 1.2
      vertex 4.9837 11.2358 1.2
    endloop
  endfacet
  facet normal 0.540641 -0.841254 0
    outer loop
      vertex 5.4 11.5033 1.2
      vertex 4.9837 11.2358 0
      vertex 5.4 11.5033 0
    endloop
  endfacet
  facet normal 0.458228 -0.888835 0
    outer loop
      vertex 5.4 11.5033 0
      vertex 5.83984 11.7301 1.2
      vertex 5.4 11.5033 1.2
    endloop
  endfacet
  facet normal 0.458228 -0.888835 0
    outer loop
      vertex 5.83984 11.7301 1.2
      vertex 5.4 11.5033 0
      vertex 5.83984 11.7301 0
    endloop
  endfacet
  facet normal -0.18925 0.981929 0
    outer loop
      vertex 9.22595 1.94658 0
      vertex 8.74004 1.85293 1.2
      vertex 9.22595 1.94658 1.2
    endloop
  endfacet
  facet normal -0.18925 0.981929 0
    outer loop
      vertex 8.74004 1.85293 1.2
      vertex 9.22595 1.94658 0
      vertex 8.74004 1.85293 0
    endloop
  endfacet
  facet normal -0.371661 0.928368 0
    outer loop
      vertex 10.1602 2.26991 0
      vertex 9.70075 2.086 1.2
      vertex 10.1602 2.26991 1.2
    endloop
  endfacet
  facet normal -0.371661 0.928368 0
    outer loop
      vertex 9.70075 2.086 1.2
      vertex 10.1602 2.26991 0
      vertex 9.70075 2.086 0
    endloop
  endfacet
  facet normal -0.755749 0.654861 0
    outer loop
      vertex 11.7634 3.41159 0
      vertex 12.0875 3.78557 1.2
      vertex 12.0875 3.78557 0
    endloop
  endfacet
  facet normal -0.755749 0.654861 0
    outer loop
      vertex 12.0875 3.78557 1.2
      vertex 11.7634 3.41159 0
      vertex 11.7634 3.41159 1.2
    endloop
  endfacet
  facet normal -0.618158 0.786054 0
    outer loop
      vertex 11.4053 3.0701 0
      vertex 11.0163 2.7642 1.2
      vertex 11.4053 3.0701 1.2
    endloop
  endfacet
  facet normal -0.618158 0.786054 0
    outer loop
      vertex 11.0163 2.7642 1.2
      vertex 11.4053 3.0701 0
      vertex 11.0163 2.7642 0
    endloop
  endfacet
  facet normal -0.458228 0.888835 0
    outer loop
      vertex 10.6 2.49667 0
      vertex 10.1602 2.26991 1.2
      vertex 10.6 2.49667 1.2
    endloop
  endfacet
  facet normal -0.458228 0.888835 0
    outer loop
      vertex 10.1602 2.26991 1.2
      vertex 10.6 2.49667 0
      vertex 10.1602 2.26991 0
    endloop
  endfacet
  facet normal -0.866025 0.5 0
    outer loop
      vertex 12.3745 4.18867 0
      vertex 12.6219 4.61722 1.2
      vertex 12.6219 4.61722 0
    endloop
  endfacet
  facet normal -0.866025 0.5 0
    outer loop
      vertex 12.6219 4.61722 1.2
      vertex 12.3745 4.18867 0
      vertex 12.3745 4.18867 1.2
    endloop
  endfacet
  facet normal -0.989821 0.142315 0
    outer loop
      vertex 13.106 6.01589 0
      vertex 13.1765 6.50571 1.2
      vertex 13.1765 6.50571 0
    endloop
  endfacet
  facet normal -0.989821 0.142315 0
    outer loop
      vertex 13.1765 6.50571 1.2
      vertex 13.106 6.01589 0
      vertex 13.106 6.01589 1.2
    endloop
  endfacet
  facet normal -0.998867 0.0475823 0
    outer loop
      vertex 13.1765 6.50571 0
      vertex 13.2 7 1.2
      vertex 13.2 7 0
    endloop
  endfacet
  facet normal -0.998867 0.0475823 0
    outer loop
      vertex 13.2 7 1.2
      vertex 13.1765 6.50571 0
      vertex 13.1765 6.50571 1.2
    endloop
  endfacet
  facet normal 0.540641 0.841254 -0
    outer loop
      vertex 5.4 2.49667 0
      vertex 4.9837 2.7642 1.2
      vertex 5.4 2.49667 1.2
    endloop
  endfacet
  facet normal 0.540641 0.841254 0
    outer loop
      vertex 4.9837 2.7642 1.2
      vertex 5.4 2.49667 0
      vertex 4.9837 2.7642 0
    endloop
  endfacet
  facet normal 0.371661 0.928368 -0
    outer loop
      vertex 6.29925 2.086 0
      vertex 5.83984 2.26991 1.2
      vertex 6.29925 2.086 1.2
    endloop
  endfacet
  facet normal 0.371661 0.928368 0
    outer loop
      vertex 5.83984 2.26991 1.2
      vertex 6.29925 2.086 0
      vertex 5.83984 2.26991 0
    endloop
  endfacet
  facet normal 0.18925 0.981929 -0
    outer loop
      vertex 7.25996 1.85293 0
      vertex 6.77405 1.94658 1.2
      vertex 7.25996 1.85293 1.2
    endloop
  endfacet
  facet normal 0.18925 0.981929 0
    outer loop
      vertex 6.77405 1.94658 1.2
      vertex 7.25996 1.85293 0
      vertex 6.77405 1.94658 0
    endloop
  endfacet
  facet normal 0 1 -0
    outer loop
      vertex 8.24743 1.80589 0
      vertex 7.75257 1.80589 1.2
      vertex 8.24743 1.80589 1.2
    endloop
  endfacet
  facet normal 0 1 0
    outer loop
      vertex 7.75257 1.80589 1.2
      vertex 8.24743 1.80589 0
      vertex 7.75257 1.80589 0
    endloop
  endfacet
  facet normal 0.971812 0.235759 0
    outer loop
      vertex 3.01064 5.53499 1.2
      vertex 2.89397 6.01589 0
      vertex 2.89397 6.01589 1.2
    endloop
  endfacet
  facet normal 0.971812 0.235759 0
    outer loop
      vertex 2.89397 6.01589 0
      vertex 3.01064 5.53499 1.2
      vertex 3.01064 5.53499 0
    endloop
  endfacet
  facet normal -0.540641 0.841254 0
    outer loop
      vertex 11.0163 2.7642 0
      vertex 10.6 2.49667 1.2
      vertex 11.0163 2.7642 1.2
    endloop
  endfacet
  facet normal -0.540641 0.841254 0
    outer loop
      vertex 10.6 2.49667 1.2
      vertex 11.0163 2.7642 0
      vertex 10.6 2.49667 0
    endloop
  endfacet
  facet normal 1 -0 0
    outer loop
      vertex 1.8 29.7 1.2
      vertex 1.8 48.7 0
      vertex 1.8 48.7 1.2
    endloop
  endfacet
  facet normal 1 0 0
    outer loop
      vertex 1.8 48.7 0
      vertex 1.8 29.7 1.2
      vertex 1.8 29.7 0
    endloop
  endfacet
  facet normal -1 0 0
    outer loop
      vertex 10.8 29.7 0
      vertex 10.8 48.7 1.2
      vertex 10.8 48.7 0
    endloop
  endfacet
  facet normal -1 -0 0
    outer loop
      vertex 10.8 48.7 1.2
      vertex 10.8 29.7 0
      vertex 10.8 29.7 1.2
    endloop
  endfacet
  facet normal 0 -1 0
    outer loop
      vertex 1.8 48.7 0
      vertex 10.8 48.7 1.2
      vertex 1.8 48.7 1.2
    endloop
  endfacet
  facet normal 0 -1 -0
    outer loop
      vertex 10.8 48.7 1.2
      vertex 1.8 48.7 0
      vertex 10.8 48.7 0
    endloop
  endfacet
  facet normal 0 1 -0
    outer loop
      vertex 10.8 29.7 0
      vertex 1.8 29.7 1.2
      vertex 10.8 29.7 1.2
    endloop
  endfacet
  facet normal 0 1 0
    outer loop
      vertex 1.8 29.7 1.2
      vertex 10.8 29.7 0
      vertex 1.8 29.7 0
    endloop
  endfacet
  facet normal -1 0 0
    outer loop
      vertex 27.8 0 0
      vertex 27.8 74.4 24.3
      vertex 27.8 74.4 0
    endloop
  endfacet
  facet normal -1 -0 0
    outer loop
      vertex 27.8 74.4 24.3
      vertex 27.8 0 0
      vertex 27.8 0 24.3
    endloop
  endfacet
  facet normal 0 0 1
    outer loop
      vertex 43.8 74.4 24.3
      vertex 42.6 73.2 24.3
      vertex 43.8 0 24.3
    endloop
  endfacet
  facet normal 0 0 1
    outer loop
      vertex 43.8 74.4 24.3
      vertex 29 73.2 24.3
      vertex 42.6 73.2 24.3
    endloop
  endfacet
  facet normal 0 0 1
    outer loop
      vertex 29 73.2 24.3
      vertex 27.8 74.4 24.3
      vertex 29 1.2 24.3
    endloop
  endfacet
  facet normal -0 0 1
    outer loop
      vertex 27.8 74.4 24.3
      vertex 29 73.2 24.3
      vertex 43.8 74.4 24.3
    endloop
  endfacet
  facet normal -0 0 1
    outer loop
      vertex 42.6 1.2 24.3
      vertex 43.8 0 24.3
      vertex 42.6 73.2 24.3
    endloop
  endfacet
  facet normal -0 0 1
    outer loop
      vertex 29 1.2 24.3
      vertex 43.8 0 24.3
      vertex 42.6 1.2 24.3
    endloop
  endfacet
  facet normal 0 0 1
    outer loop
      vertex 29 1.2 24.3
      vertex 27.8 0 24.3
      vertex 43.8 0 24.3
    endloop
  endfacet
  facet normal 0 0 1
    outer loop
      vertex 27.8 0 24.3
      vertex 29 1.2 24.3
      vertex 27.8 74.4 24.3
    endloop
  endfacet
  facet normal 1 -0 0
    outer loop
      vertex 43.8 0 24.3
      vertex 43.8 74.4 0
      vertex 43.8 74.4 24.3
    endloop
  endfacet
  facet normal 1 0 0
    outer loop
      vertex 43.8 74.4 0
      vertex 43.8 0 24.3
      vertex 43.8 0 0
    endloop
  endfacet
  facet normal 0 1 -0
    outer loop
      vertex 43.8 74.4 0
      vertex 27.8 74.4 24.3
      vertex 43.8 74.4 24.3
    endloop
  endfacet
  facet normal 0 1 0
    outer loop
      vertex 27.8 74.4 24.3
      vertex 43.8 74.4 0
      vertex 27.8 74.4 0
    endloop
  endfacet
  facet normal 0 0 -1
    outer loop
      vertex 38.4 11.5033 0
      vertex 38.6 29.7 0
      vertex 38.8163 11.2358 0
    endloop
  endfacet
  facet normal 0 0 -1
    outer loop
      vertex 37.9602 11.7301 0
      vertex 38.6 29.7 0
      vertex 38.4 11.5033 0
    endloop
  endfacet
  facet normal 0 0 -1
    outer loop
      vertex 37.5008 11.914 0
      vertex 38.6 29.7 0
      vertex 37.9602 11.7301 0
    endloop
  endfacet
  facet normal 0 0 -1
    outer loop
      vertex 37.0259 12.0534 0
      vertex 38.6 29.7 0
      vertex 37.5008 11.914 0
    endloop
  endfacet
  facet normal 0 0 -1
    outer loop
      vertex 36.54 12.1471 0
      vertex 38.6 29.7 0
      vertex 37.0259 12.0534 0
    endloop
  endfacet
  facet normal 0 0 -1
    outer loop
      vertex 36.0474 12.1941 0
      vertex 38.6 29.7 0
      vertex 36.54 12.1471 0
    endloop
  endfacet
  facet normal 0 0 -1
    outer loop
      vertex 35.5526 12.1941 0
      vertex 38.6 29.7 0
      vertex 36.0474 12.1941 0
    endloop
  endfacet
  facet normal 0 0 -1
    outer loop
      vertex 35.06 12.1471 0
      vertex 38.6 29.7 0
      vertex 35.5526 12.1941 0
    endloop
  endfacet
  facet normal 0 0 -1
    outer loop
      vertex 29.6 29.7 0
      vertex 35.06 12.1471 0
      vertex 34.5741 12.0534 0
    endloop
  endfacet
  facet normal 0 0 -1
    outer loop
      vertex 29.6 29.7 0
      vertex 34.5741 12.0534 0
      vertex 34.0992 11.914 0
    endloop
  endfacet
  facet normal 0 0 -1
    outer loop
      vertex 29.6 29.7 0
      vertex 34.0992 11.914 0
      vertex 33.6398 11.7301 0
    endloop
  endfacet
  facet normal 0 0 -1
    outer loop
      vertex 29.6 29.7 0
      vertex 33.6398 11.7301 0
      vertex 33.2 11.5033 0
    endloop
  endfacet
  facet normal 0 0 -1
    outer loop
      vertex 29.6 29.7 0
      vertex 33.2 11.5033 0
      vertex 32.7837 11.2358 0
    endloop
  endfacet
  facet normal 0 0 -1
    outer loop
      vertex 29.6 29.7 0
      vertex 32.7837 11.2358 0
      vertex 32.3947 10.9299 0
    endloop
  endfacet
  facet normal 0 0 -1
    outer loop
      vertex 29.6 29.7 0
      vertex 32.3947 10.9299 0
      vertex 32.0366 10.5884 0
    endloop
  endfacet
  facet normal 0 0 -1
    outer loop
      vertex 29.6 29.7 0
      vertex 32.0366 10.5884 0
      vertex 31.7125 10.2144 0
    endloop
  endfacet
  facet normal 0 0 -1
    outer loop
      vertex 29.6 29.7 0
      vertex 31.7125 10.2144 0
      vertex 31.4255 9.81133 0
    endloop
  endfacet
  facet normal 0 0 -1
    outer loop
      vertex 29.6 29.7 0
      vertex 31.4255 9.81133 0
      vertex 31.1781 9.38278 0
    endloop
  endfacet
  facet normal 0 0 -1
    outer loop
      vertex 29.6 29.7 0
      vertex 31.1781 9.38278 0
      vertex 30.9725 8.93264 0
    endloop
  endfacet
  facet normal 0 0 -1
    outer loop
      vertex 35.06 12.1471 0
      vertex 29.6 29.7 0
      vertex 38.6 29.7 0
    endloop
  endfacet
  facet normal 0 0 -1
    outer loop
      vertex 30.8106 8.46501 0
      vertex 29.6 29.7 0
      vertex 30.9725 8.93264 0
    endloop
  endfacet
  facet normal 0 0 -1
    outer loop
      vertex 30.694 7.98411 0
      vertex 29.6 29.7 0
      vertex 30.8106 8.46501 0
    endloop
  endfacet
  facet normal 0 0 -1
    outer loop
      vertex 27.8 0 0
      vertex 30.694 7.98411 0
      vertex 30.6235 7.49429 0
    endloop
  endfacet
  facet normal 0 0 -1
    outer loop
      vertex 27.8 0 0
      vertex 30.6235 7.49429 0
      vertex 30.6 7 0
    endloop
  endfacet
  facet normal 0 0 -1
    outer loop
      vertex 40.9765 7.49429 0
      vertex 43.8 0 0
      vertex 41 7 0
    endloop
  endfacet
  facet normal 0 0 -1
    outer loop
      vertex 43.8 0 0
      vertex 40.9765 6.50571 0
      vertex 41 7 0
    endloop
  endfacet
  facet normal 0 0 -1
    outer loop
      vertex 43.8 0 0
      vertex 40.906 6.01589 0
      vertex 40.9765 6.50571 0
    endloop
  endfacet
  facet normal 0 0 -1
    outer loop
      vertex 43.8 0 0
      vertex 40.7894 5.53499 0
      vertex 40.906 6.01589 0
    endloop
  endfacet
  facet normal 0 0 -1
    outer loop
      vertex 43.8 0 0
      vertex 40.6275 5.06736 0
      vertex 40.7894 5.53499 0
    endloop
  endfacet
  facet normal 0 0 -1
    outer loop
      vertex 43.8 0 0
      vertex 40.4219 4.61722 0
      vertex 40.6275 5.06736 0
    endloop
  endfacet
  facet normal 0 0 -1
    outer loop
      vertex 43.8 0 0
      vertex 40.1745 4.18867 0
      vertex 40.4219 4.61722 0
    endloop
  endfacet
  facet normal 0 0 -1
    outer loop
      vertex 43.8 0 0
      vertex 39.8875 3.78557 0
      vertex 40.1745 4.18867 0
    endloop
  endfacet
  facet normal 0 0 -1
    outer loop
      vertex 43.8 0 0
      vertex 39.5634 3.41159 0
      vertex 39.8875 3.78557 0
    endloop
  endfacet
  facet normal 0 0 -1
    outer loop
      vertex 43.8 0 0
      vertex 39.2053 3.0701 0
      vertex 39.5634 3.41159 0
    endloop
  endfacet
  facet normal 0 0 -1
    outer loop
      vertex 43.8 0 0
      vertex 38.8163 2.7642 0
      vertex 39.2053 3.0701 0
    endloop
  endfacet
  facet normal 0 0 -1
    outer loop
      vertex 43.8 0 0
      vertex 38.4 2.49667 0
      vertex 38.8163 2.7642 0
    endloop
  endfacet
  facet normal 0 0 -1
    outer loop
      vertex 43.8 0 0
      vertex 37.9602 2.26991 0
      vertex 38.4 2.49667 0
    endloop
  endfacet
  facet normal 0 0 -1
    outer loop
      vertex 43.8 0 0
      vertex 37.5008 2.086 0
      vertex 37.9602 2.26991 0
    endloop
  endfacet
  facet normal 0 0 -1
    outer loop
      vertex 43.8 0 0
      vertex 37.0259 1.94658 0
      vertex 37.5008 2.086 0
    endloop
  endfacet
  facet normal 0 0 -1
    outer loop
      vertex 43.8 0 0
      vertex 36.54 1.85293 0
      vertex 37.0259 1.94658 0
    endloop
  endfacet
  facet normal 0 0 -1
    outer loop
      vertex 43.8 0 0
      vertex 36.0474 1.80589 0
      vertex 36.54 1.85293 0
    endloop
  endfacet
  facet normal 0 0 -1
    outer loop
      vertex 43.8 0 0
      vertex 35.5526 1.80589 0
      vertex 36.0474 1.80589 0
    endloop
  endfacet
  facet normal 0 0 -1
    outer loop
      vertex 27.8 0 0
      vertex 35.5526 1.80589 0
      vertex 43.8 0 0
    endloop
  endfacet
  facet normal -0 0 -1
    outer loop
      vertex 35.5526 1.80589 0
      vertex 27.8 0 0
      vertex 35.06 1.85293 0
    endloop
  endfacet
  facet normal -0 0 -1
    outer loop
      vertex 29.6 29.7 0
      vertex 27.8 0 0
      vertex 29.6 48.7 0
    endloop
  endfacet
  facet normal -0 0 -1
    outer loop
      vertex 30.694 7.98411 0
      vertex 27.8 0 0
      vertex 29.6 29.7 0
    endloop
  endfacet
  facet normal -0 0 -1
    outer loop
      vertex 30.6235 6.50571 0
      vertex 27.8 0 0
      vertex 30.6 7 0
    endloop
  endfacet
  facet normal -0 0 -1
    outer loop
      vertex 30.694 6.01589 0
      vertex 27.8 0 0
      vertex 30.6235 6.50571 0
    endloop
  endfacet
  facet normal -0 0 -1
    outer loop
      vertex 30.8106 5.53499 0
      vertex 27.8 0 0
      vertex 30.694 6.01589 0
    endloop
  endfacet
  facet normal -0 0 -1
    outer loop
      vertex 30.9725 5.06736 0
      vertex 27.8 0 0
      vertex 30.8106 5.53499 0
    endloop
  endfacet
  facet normal -0 0 -1
    outer loop
      vertex 31.1781 4.61722 0
      vertex 27.8 0 0
      vertex 30.9725 5.06736 0
    endloop
  endfacet
  facet normal -0 0 -1
    outer loop
      vertex 31.4255 4.18867 0
      vertex 27.8 0 0
      vertex 31.1781 4.61722 0
    endloop
  endfacet
  facet normal -0 0 -1
    outer loop
      vertex 31.7125 3.78557 0
      vertex 27.8 0 0
      vertex 31.4255 4.18867 0
    endloop
  endfacet
  facet normal -0 0 -1
    outer loop
      vertex 32.0366 3.41159 0
      vertex 27.8 0 0
      vertex 31.7125 3.78557 0
    endloop
  endfacet
  facet normal -0 0 -1
    outer loop
      vertex 32.3947 3.0701 0
      vertex 27.8 0 0
      vertex 32.0366 3.41159 0
    endloop
  endfacet
  facet normal -0 0 -1
    outer loop
      vertex 32.7837 2.7642 0
      vertex 27.8 0 0
      vertex 32.3947 3.0701 0
    endloop
  endfacet
  facet normal -0 0 -1
    outer loop
      vertex 33.2 2.49667 0
      vertex 27.8 0 0
      vertex 32.7837 2.7642 0
    endloop
  endfacet
  facet normal -0 0 -1
    outer loop
      vertex 33.6398 2.26991 0
      vertex 27.8 0 0
      vertex 33.2 2.49667 0
    endloop
  endfacet
  facet normal -0 0 -1
    outer loop
      vertex 34.0992 2.086 0
      vertex 27.8 0 0
      vertex 33.6398 2.26991 0
    endloop
  endfacet
  facet normal -0 0 -1
    outer loop
      vertex 34.5741 1.94658 0
      vertex 27.8 0 0
      vertex 34.0992 2.086 0
    endloop
  endfacet
  facet normal -0 0 -1
    outer loop
      vertex 35.06 1.85293 0
      vertex 27.8 0 0
      vertex 34.5741 1.94658 0
    endloop
  endfacet
  facet normal 0 0 -1
    outer loop
      vertex 40.906 7.98411 0
      vertex 43.8 0 0
      vertex 40.9765 7.49429 0
    endloop
  endfacet
  facet normal 0 0 -1
    outer loop
      vertex 40.7894 8.46501 0
      vertex 43.8 0 0
      vertex 40.906 7.98411 0
    endloop
  endfacet
  facet normal 0 0 -1
    outer loop
      vertex 43.8 0 0
      vertex 40.7894 8.46501 0
      vertex 38.6 29.7 0
    endloop
  endfacet
  facet normal 0 0 -1
    outer loop
      vertex 38.6 29.7 0
      vertex 40.7894 8.46501 0
      vertex 40.6275 8.93264 0
    endloop
  endfacet
  facet normal 0 0 -1
    outer loop
      vertex 38.6 29.7 0
      vertex 40.6275 8.93264 0
      vertex 40.4219 9.38278 0
    endloop
  endfacet
  facet normal 0 0 -1
    outer loop
      vertex 38.6 29.7 0
      vertex 40.4219 9.38278 0
      vertex 40.1745 9.81133 0
    endloop
  endfacet
  facet normal 0 0 -1
    outer loop
      vertex 38.6 29.7 0
      vertex 40.1745 9.81133 0
      vertex 39.8875 10.2144 0
    endloop
  endfacet
  facet normal 0 0 -1
    outer loop
      vertex 38.6 29.7 0
      vertex 39.8875 10.2144 0
      vertex 39.5634 10.5884 0
    endloop
  endfacet
  facet normal 0 0 -1
    outer loop
      vertex 38.6 29.7 0
      vertex 39.5634 10.5884 0
      vertex 39.2053 10.9299 0
    endloop
  endfacet
  facet normal 0 0 -1
    outer loop
      vertex 38.6 29.7 0
      vertex 39.2053 10.9299 0
      vertex 38.8163 11.2358 0
    endloop
  endfacet
  facet normal 0 0 -1
    outer loop
      vertex 43.8 0 0
      vertex 38.6 29.7 0
      vertex 43.8 74.4 0
    endloop
  endfacet
  facet normal 0 0 -1
    outer loop
      vertex 38.6 48.7 0
      vertex 43.8 74.4 0
      vertex 38.6 29.7 0
    endloop
  endfacet
  facet normal 0 0 -1
    outer loop
      vertex 27.8 74.4 0
      vertex 38.6 48.7 0
      vertex 29.6 48.7 0
    endloop
  endfacet
  facet normal 0 0 -1
    outer loop
      vertex 38.6 48.7 0
      vertex 27.8 74.4 0
      vertex 43.8 74.4 0
    endloop
  endfacet
  facet normal 0 0 -1
    outer loop
      vertex 27.8 74.4 0
      vertex 29.6 48.7 0
      vertex 27.8 0 0
    endloop
  endfacet
  facet normal 0 -1 0
    outer loop
      vertex 27.8 0 0
      vertex 43.8 0 24.3
      vertex 27.8 0 24.3
    endloop
  endfacet
  facet normal 0 -1 -0
    outer loop
      vertex 43.8 0 24.3
      vertex 27.8 0 0
      vertex 43.8 0 0
    endloop
  endfacet
  facet normal 1 -0 0
    outer loop
      vertex 29 1.2 24.3
      vertex 29 73.2 1.2
      vertex 29 73.2 24.3
    endloop
  endfacet
  facet normal 1 0 0
    outer loop
      vertex 29 73.2 1.2
      vertex 29 1.2 24.3
      vertex 29 1.2 1.2
    endloop
  endfacet
  facet normal -1 0 0
    outer loop
      vertex 42.6 1.2 1.2
      vertex 42.6 73.2 24.3
      vertex 42.6 73.2 1.2
    endloop
  endfacet
  facet normal -1 -0 0
    outer loop
      vertex 42.6 73.2 24.3
      vertex 42.6 1.2 1.2
      vertex 42.6 1.2 24.3
    endloop
  endfacet
  facet normal 0 -1 0
    outer loop
      vertex 29 73.2 1.2
      vertex 42.6 73.2 24.3
      vertex 29 73.2 24.3
    endloop
  endfacet
  facet normal 0 -1 -0
    outer loop
      vertex 42.6 73.2 24.3
      vertex 29 73.2 1.2
      vertex 42.6 73.2 1.2
    endloop
  endfacet
  facet normal -0 0 1
    outer loop
      vertex 38.6 29.7 1.2
      vertex 42.6 1.2 1.2
      vertex 42.6 73.2 1.2
    endloop
  endfacet
  facet normal 0 0 1
    outer loop
      vertex 42.6 1.2 1.2
      vertex 40.9765 7.49429 1.2
      vertex 41 7 1.2
    endloop
  endfacet
  facet normal 0 0 1
    outer loop
      vertex 42.6 1.2 1.2
      vertex 40.906 7.98411 1.2
      vertex 40.9765 7.49429 1.2
    endloop
  endfacet
  facet normal 0 0 1
    outer loop
      vertex 42.6 1.2 1.2
      vertex 38.6 29.7 1.2
      vertex 40.906 7.98411 1.2
    endloop
  endfacet
  facet normal 0 0 1
    outer loop
      vertex 40.906 7.98411 1.2
      vertex 38.6 29.7 1.2
      vertex 40.7894 8.46501 1.2
    endloop
  endfacet
  facet normal 0 0 1
    outer loop
      vertex 40.7894 8.46501 1.2
      vertex 38.6 29.7 1.2
      vertex 40.6275 8.93264 1.2
    endloop
  endfacet
  facet normal 0 0 1
    outer loop
      vertex 40.6275 8.93264 1.2
      vertex 38.6 29.7 1.2
      vertex 40.4219 9.38278 1.2
    endloop
  endfacet
  facet normal 0 0 1
    outer loop
      vertex 40.4219 9.38278 1.2
      vertex 38.6 29.7 1.2
      vertex 40.1745 9.81133 1.2
    endloop
  endfacet
  facet normal 0 0 1
    outer loop
      vertex 40.1745 9.81133 1.2
      vertex 38.6 29.7 1.2
      vertex 39.8875 10.2144 1.2
    endloop
  endfacet
  facet normal 0 0 1
    outer loop
      vertex 39.8875 10.2144 1.2
      vertex 38.6 29.7 1.2
      vertex 39.5634 10.5884 1.2
    endloop
  endfacet
  facet normal 0 0 1
    outer loop
      vertex 39.5634 10.5884 1.2
      vertex 38.6 29.7 1.2
      vertex 39.2053 10.9299 1.2
    endloop
  endfacet
  facet normal 0 0 1
    outer loop
      vertex 38.6 29.7 1.2
      vertex 42.6 73.2 1.2
      vertex 38.6 48.7 1.2
    endloop
  endfacet
  facet normal -0 0 1
    outer loop
      vertex 29 73.2 1.2
      vertex 38.6 48.7 1.2
      vertex 42.6 73.2 1.2
    endloop
  endfacet
  facet normal 0 0 1
    outer loop
      vertex 29.6 48.7 1.2
      vertex 29 73.2 1.2
      vertex 29.6 29.7 1.2
    endloop
  endfacet
  facet normal 0 0 1
    outer loop
      vertex 38.6 48.7 1.2
      vertex 29 73.2 1.2
      vertex 29.6 48.7 1.2
    endloop
  endfacet
  facet normal -0 0 1
    outer loop
      vertex 40.9765 6.50571 1.2
      vertex 42.6 1.2 1.2
      vertex 41 7 1.2
    endloop
  endfacet
  facet normal -0 0 1
    outer loop
      vertex 40.906 6.01589 1.2
      vertex 42.6 1.2 1.2
      vertex 40.9765 6.50571 1.2
    endloop
  endfacet
  facet normal -0 0 1
    outer loop
      vertex 40.7894 5.53499 1.2
      vertex 42.6 1.2 1.2
      vertex 40.906 6.01589 1.2
    endloop
  endfacet
  facet normal -0 0 1
    outer loop
      vertex 40.6275 5.06736 1.2
      vertex 42.6 1.2 1.2
      vertex 40.7894 5.53499 1.2
    endloop
  endfacet
  facet normal -0 0 1
    outer loop
      vertex 40.4219 4.61722 1.2
      vertex 42.6 1.2 1.2
      vertex 40.6275 5.06736 1.2
    endloop
  endfacet
  facet normal -0 0 1
    outer loop
      vertex 40.1745 4.18867 1.2
      vertex 42.6 1.2 1.2
      vertex 40.4219 4.61722 1.2
    endloop
  endfacet
  facet normal -0 0 1
    outer loop
      vertex 39.8875 3.78557 1.2
      vertex 42.6 1.2 1.2
      vertex 40.1745 4.18867 1.2
    endloop
  endfacet
  facet normal -0 0 1
    outer loop
      vertex 39.5634 3.41159 1.2
      vertex 42.6 1.2 1.2
      vertex 39.8875 3.78557 1.2
    endloop
  endfacet
  facet normal -0 0 1
    outer loop
      vertex 39.2053 3.0701 1.2
      vertex 42.6 1.2 1.2
      vertex 39.5634 3.41159 1.2
    endloop
  endfacet
  facet normal -0 0 1
    outer loop
      vertex 38.8163 2.7642 1.2
      vertex 42.6 1.2 1.2
      vertex 39.2053 3.0701 1.2
    endloop
  endfacet
  facet normal -0 0 1
    outer loop
      vertex 38.4 2.49667 1.2
      vertex 42.6 1.2 1.2
      vertex 38.8163 2.7642 1.2
    endloop
  endfacet
  facet normal -0 0 1
    outer loop
      vertex 37.9602 2.26991 1.2
      vertex 42.6 1.2 1.2
      vertex 38.4 2.49667 1.2
    endloop
  endfacet
  facet normal -0 0 1
    outer loop
      vertex 37.5008 2.086 1.2
      vertex 42.6 1.2 1.2
      vertex 37.9602 2.26991 1.2
    endloop
  endfacet
  facet normal -0 0 1
    outer loop
      vertex 37.0259 1.94658 1.2
      vertex 42.6 1.2 1.2
      vertex 37.5008 2.086 1.2
    endloop
  endfacet
  facet normal -0 0 1
    outer loop
      vertex 36.54 1.85293 1.2
      vertex 42.6 1.2 1.2
      vertex 37.0259 1.94658 1.2
    endloop
  endfacet
  facet normal -0 0 1
    outer loop
      vertex 36.0474 1.80589 1.2
      vertex 42.6 1.2 1.2
      vertex 36.54 1.85293 1.2
    endloop
  endfacet
  facet normal -0 0 1
    outer loop
      vertex 35.5526 1.80589 1.2
      vertex 42.6 1.2 1.2
      vertex 36.0474 1.80589 1.2
    endloop
  endfacet
  facet normal 0 0 1
    outer loop
      vertex 35.5526 1.80589 1.2
      vertex 29 1.2 1.2
      vertex 42.6 1.2 1.2
    endloop
  endfacet
  facet normal 0 0 1
    outer loop
      vertex 35.06 1.85293 1.2
      vertex 29 1.2 1.2
      vertex 35.5526 1.80589 1.2
    endloop
  endfacet
  facet normal 0 0 1
    outer loop
      vertex 34.5741 1.94658 1.2
      vertex 29 1.2 1.2
      vertex 35.06 1.85293 1.2
    endloop
  endfacet
  facet normal 0 0 1
    outer loop
      vertex 34.0992 2.086 1.2
      vertex 29 1.2 1.2
      vertex 34.5741 1.94658 1.2
    endloop
  endfacet
  facet normal 0 0 1
    outer loop
      vertex 33.6398 2.26991 1.2
      vertex 29 1.2 1.2
      vertex 34.0992 2.086 1.2
    endloop
  endfacet
  facet normal 0 0 1
    outer loop
      vertex 33.2 2.49667 1.2
      vertex 29 1.2 1.2
      vertex 33.6398 2.26991 1.2
    endloop
  endfacet
  facet normal 0 0 1
    outer loop
      vertex 32.7837 2.7642 1.2
      vertex 29 1.2 1.2
      vertex 33.2 2.49667 1.2
    endloop
  endfacet
  facet normal 0 0 1
    outer loop
      vertex 32.3947 3.0701 1.2
      vertex 29 1.2 1.2
      vertex 32.7837 2.7642 1.2
    endloop
  endfacet
  facet normal 0 0 1
    outer loop
      vertex 32.0366 3.41159 1.2
      vertex 29 1.2 1.2
      vertex 32.3947 3.0701 1.2
    endloop
  endfacet
  facet normal 0 0 1
    outer loop
      vertex 31.7125 3.78557 1.2
      vertex 29 1.2 1.2
      vertex 32.0366 3.41159 1.2
    endloop
  endfacet
  facet normal 0 0 1
    outer loop
      vertex 31.4255 4.18867 1.2
      vertex 29 1.2 1.2
      vertex 31.7125 3.78557 1.2
    endloop
  endfacet
  facet normal 0 0 1
    outer loop
      vertex 31.1781 4.61722 1.2
      vertex 29 1.2 1.2
      vertex 31.4255 4.18867 1.2
    endloop
  endfacet
  facet normal 0 0 1
    outer loop
      vertex 30.9725 5.06736 1.2
      vertex 29 1.2 1.2
      vertex 31.1781 4.61722 1.2
    endloop
  endfacet
  facet normal 0 0 1
    outer loop
      vertex 30.8106 5.53499 1.2
      vertex 29 1.2 1.2
      vertex 30.9725 5.06736 1.2
    endloop
  endfacet
  facet normal 0 0 1
    outer loop
      vertex 30.694 6.01589 1.2
      vertex 29 1.2 1.2
      vertex 30.8106 5.53499 1.2
    endloop
  endfacet
  facet normal 0 0 1
    outer loop
      vertex 30.6235 6.50571 1.2
      vertex 29 1.2 1.2
      vertex 30.694 6.01589 1.2
    endloop
  endfacet
  facet normal 0 0 1
    outer loop
      vertex 30.6 7 1.2
      vertex 29 1.2 1.2
      vertex 30.6235 6.50571 1.2
    endloop
  endfacet
  facet normal 0 0 1
    outer loop
      vertex 30.6235 7.49429 1.2
      vertex 29 1.2 1.2
      vertex 30.6 7 1.2
    endloop
  endfacet
  facet normal 0 0 1
    outer loop
      vertex 29 1.2 1.2
      vertex 29.6 29.7 1.2
      vertex 29 73.2 1.2
    endloop
  endfacet
  facet normal 0 0 1
    outer loop
      vertex 39.2053 10.9299 1.2
      vertex 38.6 29.7 1.2
      vertex 38.8163 11.2358 1.2
    endloop
  endfacet
  facet normal 0 0 1
    outer loop
      vertex 38.6 29.7 1.2
      vertex 38.4 11.5033 1.2
      vertex 38.8163 11.2358 1.2
    endloop
  endfacet
  facet normal 0 0 1
    outer loop
      vertex 38.6 29.7 1.2
      vertex 37.9602 11.7301 1.2
      vertex 38.4 11.5033 1.2
    endloop
  endfacet
  facet normal 0 0 1
    outer loop
      vertex 38.6 29.7 1.2
      vertex 37.5008 11.914 1.2
      vertex 37.9602 11.7301 1.2
    endloop
  endfacet
  facet normal 0 0 1
    outer loop
      vertex 38.6 29.7 1.2
      vertex 37.0259 12.0534 1.2
      vertex 37.5008 11.914 1.2
    endloop
  endfacet
  facet normal 0 0 1
    outer loop
      vertex 38.6 29.7 1.2
      vertex 36.54 12.1471 1.2
      vertex 37.0259 12.0534 1.2
    endloop
  endfacet
  facet normal 0 0 1
    outer loop
      vertex 38.6 29.7 1.2
      vertex 36.0474 12.1941 1.2
      vertex 36.54 12.1471 1.2
    endloop
  endfacet
  facet normal 0 0 1
    outer loop
      vertex 38.6 29.7 1.2
      vertex 35.5526 12.1941 1.2
      vertex 36.0474 12.1941 1.2
    endloop
  endfacet
  facet normal 0 0 1
    outer loop
      vertex 38.6 29.7 1.2
      vertex 35.06 12.1471 1.2
      vertex 35.5526 12.1941 1.2
    endloop
  endfacet
  facet normal -0 0 1
    outer loop
      vertex 29.6 29.7 1.2
      vertex 35.06 12.1471 1.2
      vertex 38.6 29.7 1.2
    endloop
  endfacet
  facet normal 0 0 1
    outer loop
      vertex 35.06 12.1471 1.2
      vertex 29.6 29.7 1.2
      vertex 34.5741 12.0534 1.2
    endloop
  endfacet
  facet normal 0 0 1
    outer loop
      vertex 34.5741 12.0534 1.2
      vertex 29.6 29.7 1.2
      vertex 34.0992 11.914 1.2
    endloop
  endfacet
  facet normal 0 0 1
    outer loop
      vertex 34.0992 11.914 1.2
      vertex 29.6 29.7 1.2
      vertex 33.6398 11.7301 1.2
    endloop
  endfacet
  facet normal 0 0 1
    outer loop
      vertex 33.6398 11.7301 1.2
      vertex 29.6 29.7 1.2
      vertex 33.2 11.5033 1.2
    endloop
  endfacet
  facet normal 0 0 1
    outer loop
      vertex 33.2 11.5033 1.2
      vertex 29.6 29.7 1.2
      vertex 32.7837 11.2358 1.2
    endloop
  endfacet
  facet normal 0 0 1
    outer loop
      vertex 32.7837 11.2358 1.2
      vertex 29.6 29.7 1.2
      vertex 32.3947 10.9299 1.2
    endloop
  endfacet
  facet normal 0 0 1
    outer loop
      vertex 32.3947 10.9299 1.2
      vertex 29.6 29.7 1.2
      vertex 32.0366 10.5884 1.2
    endloop
  endfacet
  facet normal 0 0 1
    outer loop
      vertex 32.0366 10.5884 1.2
      vertex 29.6 29.7 1.2
      vertex 31.7125 10.2144 1.2
    endloop
  endfacet
  facet normal 0 0 1
    outer loop
      vertex 31.7125 10.2144 1.2
      vertex 29.6 29.7 1.2
      vertex 31.4255 9.81133 1.2
    endloop
  endfacet
  facet normal 0 0 1
    outer loop
      vertex 31.4255 9.81133 1.2
      vertex 29.6 29.7 1.2
      vertex 31.1781 9.38278 1.2
    endloop
  endfacet
  facet normal 0 0 1
    outer loop
      vertex 30.694 7.98411 1.2
      vertex 29 1.2 1.2
      vertex 30.6235 7.49429 1.2
    endloop
  endfacet
  facet normal 0 0 1
    outer loop
      vertex 29 1.2 1.2
      vertex 30.694 7.98411 1.2
      vertex 29.6 29.7 1.2
    endloop
  endfacet
  facet normal 0 0 1
    outer loop
      vertex 30.8106 8.46501 1.2
      vertex 29.6 29.7 1.2
      vertex 30.694 7.98411 1.2
    endloop
  endfacet
  facet normal 0 0 1
    outer loop
      vertex 30.9725 8.93264 1.2
      vertex 29.6 29.7 1.2
      vertex 30.8106 8.46501 1.2
    endloop
  endfacet
  facet normal 0 0 1
    outer loop
      vertex 31.1781 9.38278 1.2
      vertex 29.6 29.7 1.2
      vertex 30.9725 8.93264 1.2
    endloop
  endfacet
  facet normal 0 1 -0
    outer loop
      vertex 42.6 1.2 1.2
      vertex 29 1.2 24.3
      vertex 42.6 1.2 24.3
    endloop
  endfacet
  facet normal 0 1 0
    outer loop
      vertex 29 1.2 24.3
      vertex 42.6 1.2 1.2
      vertex 29 1.2 1.2
    endloop
  endfacet
  facet normal -0.998867 -0.0475862 0
    outer loop
      vertex 41 7 0
      vertex 40.9765 7.49429 1.2
      vertex 40.9765 7.49429 0
    endloop
  endfacet
  facet normal -0.998867 -0.0475862 0
    outer loop
      vertex 40.9765 7.49429 1.2
      vertex 41 7 0
      vertex 41 7 1.2
    endloop
  endfacet
  facet normal 0 -1 0
    outer loop
      vertex 35.5526 12.1941 0
      vertex 36.0474 12.1941 1.2
      vertex 35.5526 12.1941 1.2
    endloop
  endfacet
  facet normal 0 -1 -0
    outer loop
      vertex 36.0474 12.1941 1.2
      vertex 35.5526 12.1941 0
      vertex 36.0474 12.1941 0
    endloop
  endfacet
  facet normal 0.690081 0.723732 -0
    outer loop
      vertex 32.3947 3.0701 0
      vertex 32.0366 3.41159 1.2
      vertex 32.3947 3.0701 1.2
    endloop
  endfacet
  facet normal 0.690081 0.723732 0
    outer loop
      vertex 32.0366 3.41159 1.2
      vertex 32.3947 3.0701 0
      vertex 32.0366 3.41159 0
    endloop
  endfacet
  facet normal -0.690081 -0.723732 0
    outer loop
      vertex 39.2053 10.9299 0
      vertex 39.5634 10.5884 1.2
      vertex 39.2053 10.9299 1.2
    endloop
  endfacet
  facet normal -0.690081 -0.723732 -0
    outer loop
      vertex 39.5634 10.5884 1.2
      vertex 39.2053 10.9299 0
      vertex 39.5634 10.5884 0
    endloop
  endfacet
  facet normal 0.755748 -0.654862 0
    outer loop
      vertex 31.7125 10.2144 1.2
      vertex 32.0366 10.5884 0
      vertex 32.0366 10.5884 1.2
    endloop
  endfacet
  facet normal 0.755748 -0.654862 0
    outer loop
      vertex 32.0366 10.5884 0
      vertex 31.7125 10.2144 1.2
      vertex 31.7125 10.2144 0
    endloop
  endfacet
  facet normal 0.371661 -0.928368 0
    outer loop
      vertex 33.6398 11.7301 0
      vertex 34.0992 11.914 1.2
      vertex 33.6398 11.7301 1.2
    endloop
  endfacet
  facet normal 0.371661 -0.928368 0
    outer loop
      vertex 34.0992 11.914 1.2
      vertex 33.6398 11.7301 0
      vertex 34.0992 11.914 0
    endloop
  endfacet
  facet normal -0.909631 -0.415417 0
    outer loop
      vertex 40.6275 8.93264 0
      vertex 40.4219 9.38278 1.2
      vertex 40.4219 9.38278 0
    endloop
  endfacet
  facet normal -0.909631 -0.415417 0
    outer loop
      vertex 40.4219 9.38278 1.2
      vertex 40.6275 8.93264 0
      vertex 40.6275 8.93264 1.2
    endloop
  endfacet
  facet normal -0.371661 -0.928368 0
    outer loop
      vertex 37.5008 11.914 0
      vertex 37.9602 11.7301 1.2
      vertex 37.5008 11.914 1.2
    endloop
  endfacet
  facet normal -0.371661 -0.928368 -0
    outer loop
      vertex 37.9602 11.7301 1.2
      vertex 37.5008 11.914 0
      vertex 37.9602 11.7301 0
    endloop
  endfacet
  facet normal -0.540639 -0.841255 0
    outer loop
      vertex 38.4 11.5033 0
      vertex 38.8163 11.2358 1.2
      vertex 38.4 11.5033 1.2
    endloop
  endfacet
  facet normal -0.540639 -0.841255 -0
    outer loop
      vertex 38.8163 11.2358 1.2
      vertex 38.4 11.5033 0
      vertex 38.8163 11.2358 0
    endloop
  endfacet
  facet normal 0.945001 -0.327068 0
    outer loop
      vertex 30.8106 8.46501 1.2
      vertex 30.9725 8.93264 0
      vertex 30.9725 8.93264 1.2
    endloop
  endfacet
  facet normal 0.945001 -0.327068 0
    outer loop
      vertex 30.9725 8.93264 0
      vertex 30.8106 8.46501 1.2
      vertex 30.8106 8.46501 0
    endloop
  endfacet
  facet normal 0.189249 -0.981929 0
    outer loop
      vertex 34.5741 12.0534 0
      vertex 35.06 12.1471 1.2
      vertex 34.5741 12.0534 1.2
    endloop
  endfacet
  facet normal 0.189249 -0.981929 0
    outer loop
      vertex 35.06 12.1471 1.2
      vertex 34.5741 12.0534 0
      vertex 35.06 12.1471 0
    endloop
  endfacet
  facet normal -0.945001 0.327068 0
    outer loop
      vertex 40.6275 5.06736 0
      vertex 40.7894 5.53499 1.2
      vertex 40.7894 5.53499 0
    endloop
  endfacet
  facet normal -0.945001 0.327068 0
    outer loop
      vertex 40.7894 5.53499 1.2
      vertex 40.6275 5.06736 0
      vertex 40.6275 5.06736 1.2
    endloop
  endfacet
  facet normal -0.971812 0.235757 0
    outer loop
      vertex 40.7894 5.53499 0
      vertex 40.906 6.01589 1.2
      vertex 40.906 6.01589 0
    endloop
  endfacet
  facet normal -0.971812 0.235757 0
    outer loop
      vertex 40.906 6.01589 1.2
      vertex 40.7894 5.53499 0
      vertex 40.7894 5.53499 1.2
    endloop
  endfacet
  facet normal -0.971812 -0.235757 0
    outer loop
      vertex 40.906 7.98411 0
      vertex 40.7894 8.46501 1.2
      vertex 40.7894 8.46501 0
    endloop
  endfacet
  facet normal -0.971812 -0.235757 0
    outer loop
      vertex 40.7894 8.46501 1.2
      vertex 40.906 7.98411 0
      vertex 40.906 7.98411 1.2
    endloop
  endfacet
  facet normal -0.989822 -0.142312 0
    outer loop
      vertex 40.9765 7.49429 0
      vertex 40.906 7.98411 1.2
      vertex 40.906 7.98411 0
    endloop
  endfacet
  facet normal -0.989822 -0.142312 0
    outer loop
      vertex 40.906 7.98411 1.2
      vertex 40.9765 7.49429 0
      vertex 40.9765 7.49429 1.2
    endloop
  endfacet
  facet normal -0.945001 -0.327068 0
    outer loop
      vertex 40.7894 8.46501 0
      vertex 40.6275 8.93264 1.2
      vertex 40.6275 8.93264 0
    endloop
  endfacet
  facet normal -0.945001 -0.327068 0
    outer loop
      vertex 40.6275 8.93264 1.2
      vertex 40.7894 8.46501 0
      vertex 40.7894 8.46501 1.2
    endloop
  endfacet
  facet normal -0.814574 -0.58006 0
    outer loop
      vertex 40.1745 9.81133 0
      vertex 39.8875 10.2144 1.2
      vertex 39.8875 10.2144 0
    endloop
  endfacet
  facet normal -0.814574 -0.58006 0
    outer loop
      vertex 39.8875 10.2144 1.2
      vertex 40.1745 9.81133 0
      vertex 40.1745 9.81133 1.2
    endloop
  endfacet
  facet normal -0.75575 -0.65486 0
    outer loop
      vertex 39.8875 10.2144 0
      vertex 39.5634 10.5884 1.2
      vertex 39.5634 10.5884 0
    endloop
  endfacet
  facet normal -0.75575 -0.65486 0
    outer loop
      vertex 39.5634 10.5884 1.2
      vertex 39.8875 10.2144 0
      vertex 39.8875 10.2144 1.2
    endloop
  endfacet
  facet normal -0.866026 -0.499998 0
    outer loop
      vertex 40.4219 9.38278 0
      vertex 40.1745 9.81133 1.2
      vertex 40.1745 9.81133 0
    endloop
  endfacet
  facet normal -0.866026 -0.499998 0
    outer loop
      vertex 40.1745 9.81133 1.2
      vertex 40.4219 9.38278 0
      vertex 40.4219 9.38278 1.2
    endloop
  endfacet
  facet normal -0.189249 -0.981929 0
    outer loop
      vertex 36.54 12.1471 0
      vertex 37.0259 12.0534 1.2
      vertex 36.54 12.1471 1.2
    endloop
  endfacet
  facet normal -0.189249 -0.981929 -0
    outer loop
      vertex 37.0259 12.0534 1.2
      vertex 36.54 12.1471 0
      vertex 37.0259 12.0534 0
    endloop
  endfacet
  facet normal -0.281736 -0.959492 0
    outer loop
      vertex 37.0259 12.0534 0
      vertex 37.5008 11.914 1.2
      vertex 37.0259 12.0534 1.2
    endloop
  endfacet
  facet normal -0.281736 -0.959492 -0
    outer loop
      vertex 37.5008 11.914 1.2
      vertex 37.0259 12.0534 0
      vertex 37.5008 11.914 0
    endloop
  endfacet
  facet normal -0.0950568 -0.995472 0
    outer loop
      vertex 36.0474 12.1941 0
      vertex 36.54 12.1471 1.2
      vertex 36.0474 12.1941 1.2
    endloop
  endfacet
  facet normal -0.0950568 -0.995472 -0
    outer loop
      vertex 36.54 12.1471 1.2
      vertex 36.0474 12.1941 0
      vertex 36.54 12.1471 0
    endloop
  endfacet
  facet normal -0.458228 -0.888835 0
    outer loop
      vertex 37.9602 11.7301 0
      vertex 38.4 11.5033 1.2
      vertex 37.9602 11.7301 1.2
    endloop
  endfacet
  facet normal -0.458228 -0.888835 -0
    outer loop
      vertex 38.4 11.5033 1.2
      vertex 37.9602 11.7301 0
      vertex 38.4 11.5033 0
    endloop
  endfacet
  facet normal -0.618158 -0.786054 0
    outer loop
      vertex 38.8163 11.2358 0
      vertex 39.2053 10.9299 1.2
      vertex 38.8163 11.2358 1.2
    endloop
  endfacet
  facet normal -0.618158 -0.786054 -0
    outer loop
      vertex 39.2053 10.9299 1.2
      vertex 38.8163 11.2358 0
      vertex 39.2053 10.9299 0
    endloop
  endfacet
  facet normal 0.989821 -0.142315 0
    outer loop
      vertex 30.6235 7.49429 1.2
      vertex 30.694 7.98411 0
      vertex 30.694 7.98411 1.2
    endloop
  endfacet
  facet normal 0.989821 -0.142315 0
    outer loop
      vertex 30.694 7.98411 0
      vertex 30.6235 7.49429 1.2
      vertex 30.6235 7.49429 0
    endloop
  endfacet
  facet normal 0.866025 -0.500001 0
    outer loop
      vertex 31.1781 9.38278 1.2
      vertex 31.4255 9.81133 0
      vertex 31.4255 9.81133 1.2
    endloop
  endfacet
  facet normal 0.866025 -0.500001 0
    outer loop
      vertex 31.4255 9.81133 0
      vertex 31.1781 9.38278 1.2
      vertex 31.1781 9.38278 0
    endloop
  endfacet
  facet normal 0.814577 -0.580055 0
    outer loop
      vertex 31.4255 9.81133 1.2
      vertex 31.7125 10.2144 0
      vertex 31.7125 10.2144 1.2
    endloop
  endfacet
  facet normal 0.814577 -0.580055 0
    outer loop
      vertex 31.7125 10.2144 0
      vertex 31.4255 9.81133 1.2
      vertex 31.4255 9.81133 0
    endloop
  endfacet
  facet normal 0.909633 -0.415414 0
    outer loop
      vertex 30.9725 8.93264 1.2
      vertex 31.1781 9.38278 0
      vertex 31.1781 9.38278 1.2
    endloop
  endfacet
  facet normal 0.909633 -0.415414 0
    outer loop
      vertex 31.1781 9.38278 0
      vertex 30.9725 8.93264 1.2
      vertex 30.9725 8.93264 0
    endloop
  endfacet
  facet normal 0.971811 -0.235761 0
    outer loop
      vertex 30.694 7.98411 1.2
      vertex 30.8106 8.46501 0
      vertex 30.8106 8.46501 1.2
    endloop
  endfacet
  facet normal 0.971811 -0.235761 0
    outer loop
      vertex 30.8106 8.46501 0
      vertex 30.694 7.98411 1.2
      vertex 30.694 7.98411 0
    endloop
  endfacet
  facet normal 0.998867 -0.0475824 0
    outer loop
      vertex 30.6 7 1.2
      vertex 30.6235 7.49429 0
      vertex 30.6235 7.49429 1.2
    endloop
  endfacet
  facet normal 0.998867 -0.0475824 0
    outer loop
      vertex 30.6235 7.49429 0
      vertex 30.6 7 1.2
      vertex 30.6 7 0
    endloop
  endfacet
  facet normal 0.618158 -0.786054 0
    outer loop
      vertex 32.3947 10.9299 0
      vertex 32.7837 11.2358 1.2
      vertex 32.3947 10.9299 1.2
    endloop
  endfacet
  facet normal 0.618158 -0.786054 0
    outer loop
      vertex 32.7837 11.2358 1.2
      vertex 32.3947 10.9299 0
      vertex 32.7837 11.2358 0
    endloop
  endfacet
  facet normal 0.690081 -0.723732 0
    outer loop
      vertex 32.0366 10.5884 0
      vertex 32.3947 10.9299 1.2
      vertex 32.0366 10.5884 1.2
    endloop
  endfacet
  facet normal 0.690081 -0.723732 0
    outer loop
      vertex 32.3947 10.9299 1.2
      vertex 32.0366 10.5884 0
      vertex 32.3947 10.9299 0
    endloop
  endfacet
  facet normal 0.281736 -0.959492 0
    outer loop
      vertex 34.0992 11.914 0
      vertex 34.5741 12.0534 1.2
      vertex 34.0992 11.914 1.2
    endloop
  endfacet
  facet normal 0.281736 -0.959492 0
    outer loop
      vertex 34.5741 12.0534 1.2
      vertex 34.0992 11.914 0
      vertex 34.5741 12.0534 0
    endloop
  endfacet
  facet normal 0.0950568 -0.995472 0
    outer loop
      vertex 35.06 12.1471 0
      vertex 35.5526 12.1941 1.2
      vertex 35.06 12.1471 1.2
    endloop
  endfacet
  facet normal 0.0950568 -0.995472 0
    outer loop
      vertex 35.5526 12.1941 1.2
      vertex 35.06 12.1471 0
      vertex 35.5526 12.1941 0
    endloop
  endfacet
  facet normal -0.0950568 0.995472 0
    outer loop
      vertex 36.54 1.85293 0
      vertex 36.0474 1.80589 1.2
      vertex 36.54 1.85293 1.2
    endloop
  endfacet
  facet normal -0.0950568 0.995472 0
    outer loop
      vertex 36.0474 1.80589 1.2
      vertex 36.54 1.85293 0
      vertex 36.0474 1.80589 0
    endloop
  endfacet
  facet normal -0.281736 0.959492 0
    outer loop
      vertex 37.5008 2.086 0
      vertex 37.0259 1.94658 1.2
      vertex 37.5008 2.086 1.2
    endloop
  endfacet
  facet normal -0.281736 0.959492 0
    outer loop
      vertex 37.0259 1.94658 1.2
      vertex 37.5008 2.086 0
      vertex 37.0259 1.94658 0
    endloop
  endfacet
  facet normal -0.690081 0.723732 0
    outer loop
      vertex 39.5634 3.41159 0
      vertex 39.2053 3.0701 1.2
      vertex 39.5634 3.41159 1.2
    endloop
  endfacet
  facet normal -0.690081 0.723732 0
    outer loop
      vertex 39.2053 3.0701 1.2
      vertex 39.5634 3.41159 0
      vertex 39.2053 3.0701 0
    endloop
  endfacet
  facet normal -0.814574 0.58006 0
    outer loop
      vertex 39.8875 3.78557 0
      vertex 40.1745 4.18867 1.2
      vertex 40.1745 4.18867 0
    endloop
  endfacet
  facet normal -0.814574 0.58006 0
    outer loop
      vertex 40.1745 4.18867 1.2
      vertex 39.8875 3.78557 0
      vertex 39.8875 3.78557 1.2
    endloop
  endfacet
  facet normal -0.909631 0.415417 0
    outer loop
      vertex 40.4219 4.61722 0
      vertex 40.6275 5.06736 1.2
      vertex 40.6275 5.06736 0
    endloop
  endfacet
  facet normal -0.909631 0.415417 0
    outer loop
      vertex 40.6275 5.06736 1.2
      vertex 40.4219 4.61722 0
      vertex 40.4219 4.61722 1.2
    endloop
  endfacet
  facet normal 0.618158 0.786054 -0
    outer loop
      vertex 32.7837 2.7642 0
      vertex 32.3947 3.0701 1.2
      vertex 32.7837 2.7642 1.2
    endloop
  endfacet
  facet normal 0.618158 0.786054 0
    outer loop
      vertex 32.3947 3.0701 1.2
      vertex 32.7837 2.7642 0
      vertex 32.3947 3.0701 0
    endloop
  endfacet
  facet normal 0.458228 0.888835 -0
    outer loop
      vertex 33.6398 2.26991 0
      vertex 33.2 2.49667 1.2
      vertex 33.6398 2.26991 1.2
    endloop
  endfacet
  facet normal 0.458228 0.888835 0
    outer loop
      vertex 33.2 2.49667 1.2
      vertex 33.6398 2.26991 0
      vertex 33.2 2.49667 0
    endloop
  endfacet
  facet normal 0.281736 0.959492 -0
    outer loop
      vertex 34.5741 1.94658 0
      vertex 34.0992 2.086 1.2
      vertex 34.5741 1.94658 1.2
    endloop
  endfacet
  facet normal 0.281736 0.959492 0
    outer loop
      vertex 34.0992 2.086 1.2
      vertex 34.5741 1.94658 0
      vertex 34.0992 2.086 0
    endloop
  endfacet
  facet normal 0.0950568 0.995472 -0
    outer loop
      vertex 35.5526 1.80589 0
      vertex 35.06 1.85293 1.2
      vertex 35.5526 1.80589 1.2
    endloop
  endfacet
  facet normal 0.0950568 0.995472 0
    outer loop
      vertex 35.06 1.85293 1.2
      vertex 35.5526 1.80589 0
      vertex 35.06 1.85293 0
    endloop
  endfacet
  facet normal 0.814577 0.580055 0
    outer loop
      vertex 31.7125 3.78557 1.2
      vertex 31.4255 4.18867 0
      vertex 31.4255 4.18867 1.2
    endloop
  endfacet
  facet normal 0.814577 0.580055 0
    outer loop
      vertex 31.4255 4.18867 0
      vertex 31.7125 3.78557 1.2
      vertex 31.7125 3.78557 0
    endloop
  endfacet
  facet normal 0.866025 0.500001 0
    outer loop
      vertex 31.4255 4.18867 1.2
      vertex 31.1781 4.61722 0
      vertex 31.1781 4.61722 1.2
    endloop
  endfacet
  facet normal 0.866025 0.500001 0
    outer loop
      vertex 31.1781 4.61722 0
      vertex 31.4255 4.18867 1.2
      vertex 31.4255 4.18867 0
    endloop
  endfacet
  facet normal 0.755748 0.654862 0
    outer loop
      vertex 32.0366 3.41159 1.2
      vertex 31.7125 3.78557 0
      vertex 31.7125 3.78557 1.2
    endloop
  endfacet
  facet normal 0.755748 0.654862 0
    outer loop
      vertex 31.7125 3.78557 0
      vertex 32.0366 3.41159 1.2
      vertex 32.0366 3.41159 0
    endloop
  endfacet
  facet normal 0.945001 0.327068 0
    outer loop
      vertex 30.9725 5.06736 1.2
      vertex 30.8106 5.53499 0
      vertex 30.8106 5.53499 1.2
    endloop
  endfacet
  facet normal 0.945001 0.327068 0
    outer loop
      vertex 30.8106 5.53499 0
      vertex 30.9725 5.06736 1.2
      vertex 30.9725 5.06736 0
    endloop
  endfacet
  facet normal 0.909633 0.415414 0
    outer loop
      vertex 31.1781 4.61722 1.2
      vertex 30.9725 5.06736 0
      vertex 30.9725 5.06736 1.2
    endloop
  endfacet
  facet normal 0.909633 0.415414 0
    outer loop
      vertex 30.9725 5.06736 0
      vertex 31.1781 4.61722 1.2
      vertex 31.1781 4.61722 0
    endloop
  endfacet
  facet normal 0.989821 0.142315 0
    outer loop
      vertex 30.694 6.01589 1.2
      vertex 30.6235 6.50571 0
      vertex 30.6235 6.50571 1.2
    endloop
  endfacet
  facet normal 0.989821 0.142315 0
    outer loop
      vertex 30.6235 6.50571 0
      vertex 30.694 6.01589 1.2
      vertex 30.694 6.01589 0
    endloop
  endfacet
  facet normal 0.998867 0.0475823 0
    outer loop
      vertex 30.6235 6.50571 1.2
      vertex 30.6 7 0
      vertex 30.6 7 1.2
    endloop
  endfacet
  facet normal 0.998867 0.0475823 0
    outer loop
      vertex 30.6 7 0
      vertex 30.6235 6.50571 1.2
      vertex 30.6235 6.50571 0
    endloop
  endfacet
  facet normal 0.540639 -0.841255 0
    outer loop
      vertex 32.7837 11.2358 0
      vertex 33.2 11.5033 1.2
      vertex 32.7837 11.2358 1.2
    endloop
  endfacet
  facet normal 0.540639 -0.841255 0
    outer loop
      vertex 33.2 11.5033 1.2
      vertex 32.7837 11.2358 0
      vertex 33.2 11.5033 0
    endloop
  endfacet
  facet normal 0.458228 -0.888835 0
    outer loop
      vertex 33.2 11.5033 0
      vertex 33.6398 11.7301 1.2
      vertex 33.2 11.5033 1.2
    endloop
  endfacet
  facet normal 0.458228 -0.888835 0
    outer loop
      vertex 33.6398 11.7301 1.2
      vertex 33.2 11.5033 0
      vertex 33.6398 11.7301 0
    endloop
  endfacet
  facet normal -0.189249 0.981929 0
    outer loop
      vertex 37.0259 1.94658 0
      vertex 36.54 1.85293 1.2
      vertex 37.0259 1.94658 1.2
    endloop
  endfacet
  facet normal -0.189249 0.981929 0
    outer loop
      vertex 36.54 1.85293 1.2
      vertex 37.0259 1.94658 0
      vertex 36.54 1.85293 0
    endloop
  endfacet
  facet normal -0.371661 0.928368 0
    outer loop
      vertex 37.9602 2.26991 0
      vertex 37.5008 2.086 1.2
      vertex 37.9602 2.26991 1.2
    endloop
  endfacet
  facet normal -0.371661 0.928368 0
    outer loop
      vertex 37.5008 2.086 1.2
      vertex 37.9602 2.26991 0
      vertex 37.5008 2.086 0
    endloop
  endfacet
  facet normal -0.75575 0.65486 0
    outer loop
      vertex 39.5634 3.41159 0
      vertex 39.8875 3.78557 1.2
      vertex 39.8875 3.78557 0
    endloop
  endfacet
  facet normal -0.75575 0.65486 0
    outer loop
      vertex 39.8875 3.78557 1.2
      vertex 39.5634 3.41159 0
      vertex 39.5634 3.41159 1.2
    endloop
  endfacet
  facet normal -0.618158 0.786054 0
    outer loop
      vertex 39.2053 3.0701 0
      vertex 38.8163 2.7642 1.2
      vertex 39.2053 3.0701 1.2
    endloop
  endfacet
  facet normal -0.618158 0.786054 0
    outer loop
      vertex 38.8163 2.7642 1.2
      vertex 39.2053 3.0701 0
      vertex 38.8163 2.7642 0
    endloop
  endfacet
  facet normal -0.458228 0.888835 0
    outer loop
      vertex 38.4 2.49667 0
      vertex 37.9602 2.26991 1.2
      vertex 38.4 2.49667 1.2
    endloop
  endfacet
  facet normal -0.458228 0.888835 0
    outer loop
      vertex 37.9602 2.26991 1.2
      vertex 38.4 2.49667 0
      vertex 37.9602 2.26991 0
    endloop
  endfacet
  facet normal -0.866026 0.499998 0
    outer loop
      vertex 40.1745 4.18867 0
      vertex 40.4219 4.61722 1.2
      vertex 40.4219 4.61722 0
    endloop
  endfacet
  facet normal -0.866026 0.499998 0
    outer loop
      vertex 40.4219 4.61722 1.2
      vertex 40.1745 4.18867 0
      vertex 40.1745 4.18867 1.2
    endloop
  endfacet
  facet normal -0.989822 0.142312 0
    outer loop
      vertex 40.906 6.01589 0
      vertex 40.9765 6.50571 1.2
      vertex 40.9765 6.50571 0
    endloop
  endfacet
  facet normal -0.989822 0.142312 0
    outer loop
      vertex 40.9765 6.50571 1.2
      vertex 40.906 6.01589 0
      vertex 40.906 6.01589 1.2
    endloop
  endfacet
  facet normal -0.998867 0.0475861 0
    outer loop
      vertex 40.9765 6.50571 0
      vertex 41 7 1.2
      vertex 41 7 0
    endloop
  endfacet
  facet normal -0.998867 0.0475861 0
    outer loop
      vertex 41 7 1.2
      vertex 40.9765 6.50571 0
      vertex 40.9765 6.50571 1.2
    endloop
  endfacet
  facet normal 0.540639 0.841255 -0
    outer loop
      vertex 33.2 2.49667 0
      vertex 32.7837 2.7642 1.2
      vertex 33.2 2.49667 1.2
    endloop
  endfacet
  facet normal 0.540639 0.841255 0
    outer loop
      vertex 32.7837 2.7642 1.2
      vertex 33.2 2.49667 0
      vertex 32.7837 2.7642 0
    endloop
  endfacet
  facet normal 0.371661 0.928368 -0
    outer loop
      vertex 34.0992 2.086 0
      vertex 33.6398 2.26991 1.2
      vertex 34.0992 2.086 1.2
    endloop
  endfacet
  facet normal 0.371661 0.928368 0
    outer loop
      vertex 33.6398 2.26991 1.2
      vertex 34.0992 2.086 0
      vertex 33.6398 2.26991 0
    endloop
  endfacet
  facet normal 0.189249 0.981929 -0
    outer loop
      vertex 35.06 1.85293 0
      vertex 34.5741 1.94658 1.2
      vertex 35.06 1.85293 1.2
    endloop
  endfacet
  facet normal 0.189249 0.981929 0
    outer loop
      vertex 34.5741 1.94658 1.2
      vertex 35.06 1.85293 0
      vertex 34.5741 1.94658 0
    endloop
  endfacet
  facet normal 0 1 -0
    outer loop
      vertex 36.0474 1.80589 0
      vertex 35.5526 1.80589 1.2
      vertex 36.0474 1.80589 1.2
    endloop
  endfacet
  facet normal 0 1 0
    outer loop
      vertex 35.5526 1.80589 1.2
      vertex 36.0474 1.80589 0
      vertex 35.5526 1.80589 0
    endloop
  endfacet
  facet normal 0.971811 0.235761 0
    outer loop
      vertex 30.8106 5.53499 1.2
      vertex 30.694 6.01589 0
      vertex 30.694 6.01589 1.2
    endloop
  endfacet
  facet normal 0.971811 0.235761 0
    outer loop
      vertex 30.694 6.01589 0
      vertex 30.8106 5.53499 1.2
      vertex 30.8106 5.53499 0
    endloop
  endfacet
  facet normal -0.540639 0.841255 0
    outer loop
      vertex 38.8163 2.7642 0
      vertex 38.4 2.49667 1.2
      vertex 38.8163 2.7642 1.2
    endloop
  endfacet
  facet normal -0.540639 0.841255 0
    outer loop
      vertex 38.4 2.49667 1.2
      vertex 38.8163 2.7642 0
      vertex 38.4 2.49667 0
    endloop
  endfacet
  facet normal 1 -0 0
    outer loop
      vertex 29.6 29.7 1.2
      vertex 29.6 48.7 0
      vertex 29.6 48.7 1.2
    endloop
  endfacet
  facet normal 1 0 0
    outer loop
      vertex 29.6 48.7 0
      vertex 29.6 29.7 1.2
      vertex 29.6 29.7 0
    endloop
  endfacet
  facet normal -1 0 0
    outer loop
      vertex 38.6 29.7 0
      vertex 38.6 48.7 1.2
      vertex 38.6 48.7 0
    endloop
  endfacet
  facet normal -1 -0 0
    outer loop
      vertex 38.6 48.7 1.2
      vertex 38.6 29.7 0
      vertex 38.6 29.7 1.2
    endloop
  endfacet
  facet normal 0 -1 0
    outer loop
      vertex 29.6 48.7 0
      vertex 38.6 48.7 1.2
      vertex 29.6 48.7 1.2
    endloop
  endfacet
  facet normal 0 -1 -0
    outer loop
      vertex 38.6 48.7 1.2
      vertex 29.6 48.7 0
      vertex 38.6 48.7 0
    endloop
  endfacet
  facet normal 0 1 -0
    outer loop
      vertex 38.6 29.7 0
      vertex 29.6 29.7 1.2
      vertex 38.6 29.7 1.2
    endloop
  endfacet
  facet normal 0 1 0
    outer loop
      vertex 29.6 29.7 1.2
      vertex 38.6 29.7 0
      vertex 29.6 29.7 0
    endloop
  endfacet
  facet normal -0 0 1
    outer loop
      vertex 16 74.4 23.9
      vertex 27.8 0 23.9
      vertex 27.8 74.4 23.9
    endloop
  endfacet
  facet normal 0 0 1
    outer loop
      vertex 27.8 0 23.9
      vertex 16 74.4 23.9
      vertex 16 0 23.9
    endloop
  endfacet
  facet normal 1 -0 0
    outer loop
      vertex 27.8 0 23.9
      vertex 27.8 74.4 22.7
      vertex 27.8 74.4 23.9
    endloop
  endfacet
  facet normal 1 0 0
    outer loop
      vertex 27.8 74.4 22.7
      vertex 27.8 0 23.9
      vertex 27.8 0 22.7
    endloop
  endfacet
  facet normal 0 0 -1
    outer loop
      vertex 16 0 22.7
      vertex 27.8 74.4 22.7
      vertex 27.8 0 22.7
    endloop
  endfacet
  facet normal -0 0 -1
    outer loop
      vertex 27.8 74.4 22.7
      vertex 16 0 22.7
      vertex 16 74.4 22.7
    endloop
  endfacet
endsolid OpenSCAD_Model
