solid OpenSCAD_Model
  facet normal -0.986361 0.164596 0
    outer loop
      vertex -4.58127 -100.487 7.62939e-07
      vertex -4.5 -100 2.8
      vertex -4.5 -100 7.62939e-07
    endloop
  endfacet
  facet normal -0.986361 0.164596 0
    outer loop
      vertex -4.5 -100 2.8
      vertex -4.58127 -100.487 7.62939e-07
      vertex -4.58127 -100.487 2.8
    endloop
  endfacet
  facet normal -0.879475 0.475945 0
    outer loop
      vertex -4.81629 -100.921 7.62939e-07
      vertex -4.58127 -100.487 2.8
      vertex -4.58127 -100.487 7.62939e-07
    endloop
  endfacet
  facet normal -0.879475 0.475945 0
    outer loop
      vertex -4.58127 -100.487 2.8
      vertex -4.81629 -100.921 7.62939e-07
      vertex -4.81629 -100.921 2.8
    endloop
  endfacet
  facet normal 1 -0 0
    outer loop
      vertex -7.47954 -100.247 2.8
      vertex -7.47954 -99.7531 7.62939e-07
      vertex -7.47954 -99.7531 2.8
    endloop
  endfacet
  facet normal 1 0 0
    outer loop
      vertex -7.47954 -99.7531 7.62939e-07
      vertex -7.47954 -100.247 2.8
      vertex -7.47954 -100.247 7.62939e-07
    endloop
  endfacet
  facet normal -0.0825695 0.996585 0
    outer loop
      vertex -5.63177 -101.454 7.62939e-07
      vertex -6.12387 -101.495 2.8
      vertex -5.63177 -101.454 2.8
    endloop
  endfacet
  facet normal -0.0825695 0.996585 0
    outer loop
      vertex -6.12387 -101.495 2.8
      vertex -5.63177 -101.454 7.62939e-07
      vertex -6.12387 -101.495 7.62939e-07
    endloop
  endfacet
  facet normal -0.677286 0.735719 0
    outer loop
      vertex -4.81629 -100.921 7.62939e-07
      vertex -5.17958 -101.256 2.8
      vertex -4.81629 -100.921 2.8
    endloop
  endfacet
  facet normal -0.677286 0.735719 0
    outer loop
      vertex -5.17958 -101.256 2.8
      vertex -4.81629 -100.921 7.62939e-07
      vertex -5.17958 -101.256 7.62939e-07
    endloop
  endfacet
  facet normal 0.789139 0.614214 0
    outer loop
      vertex -7.01592 -101.104 2.8
      vertex -7.31921 -100.714 7.62939e-07
      vertex -7.31921 -100.714 2.8
    endloop
  endfacet
  facet normal 0.789139 0.614214 0
    outer loop
      vertex -7.31921 -100.714 7.62939e-07
      vertex -7.01592 -101.104 2.8
      vertex -7.01592 -101.104 7.62939e-07
    endloop
  endfacet
  facet normal 0.245484 0.969401 -0
    outer loop
      vertex -6.12387 -101.495 7.62939e-07
      vertex -6.60254 -101.374 2.8
      vertex -6.12387 -101.495 2.8
    endloop
  endfacet
  facet normal 0.245484 0.969401 0
    outer loop
      vertex -6.60254 -101.374 2.8
      vertex -6.12387 -101.495 7.62939e-07
      vertex -6.60254 -101.374 7.62939e-07
    endloop
  endfacet
  facet normal -0.401692 -0.915775 0
    outer loop
      vertex -5.63177 -98.5459 7.62939e-07
      vertex -5.17958 -98.7442 2.8
      vertex -5.63177 -98.5459 2.8
    endloop
  endfacet
  facet normal -0.401692 -0.915775 -0
    outer loop
      vertex -5.17958 -98.7442 2.8
      vertex -5.63177 -98.5459 7.62939e-07
      vertex -5.17958 -98.7442 7.62939e-07
    endloop
  endfacet
  facet normal 0.945816 -0.324702 0
    outer loop
      vertex -7.47954 -99.7531 2.8
      vertex -7.31921 -99.2861 7.62939e-07
      vertex -7.31921 -99.2861 2.8
    endloop
  endfacet
  facet normal 0.945816 -0.324702 0
    outer loop
      vertex -7.31921 -99.2861 7.62939e-07
      vertex -7.47954 -99.7531 2.8
      vertex -7.47954 -99.7531 7.62939e-07
    endloop
  endfacet
  facet normal -0.401692 0.915775 0
    outer loop
      vertex -5.17958 -101.256 7.62939e-07
      vertex -5.63177 -101.454 2.8
      vertex -5.17958 -101.256 2.8
    endloop
  endfacet
  facet normal -0.401692 0.915775 0
    outer loop
      vertex -5.63177 -101.454 2.8
      vertex -5.17958 -101.256 7.62939e-07
      vertex -5.63177 -101.454 7.62939e-07
    endloop
  endfacet
  facet normal 0.945818 0.324698 0
    outer loop
      vertex -7.31921 -100.714 2.8
      vertex -7.47954 -100.247 7.62939e-07
      vertex -7.47954 -100.247 2.8
    endloop
  endfacet
  facet normal 0.945818 0.324698 0
    outer loop
      vertex -7.47954 -100.247 7.62939e-07
      vertex -7.31921 -100.714 2.8
      vertex -7.31921 -100.714 7.62939e-07
    endloop
  endfacet
  facet normal -0.677286 -0.735719 0
    outer loop
      vertex -5.17958 -98.7442 7.62939e-07
      vertex -4.81629 -99.0787 2.8
      vertex -5.17958 -98.7442 2.8
    endloop
  endfacet
  facet normal -0.677286 -0.735719 -0
    outer loop
      vertex -4.81629 -99.0787 2.8
      vertex -5.17958 -98.7442 7.62939e-07
      vertex -4.81629 -99.0787 7.62939e-07
    endloop
  endfacet
  facet normal -0.879472 -0.475951 0
    outer loop
      vertex -4.58127 -99.5129 7.62939e-07
      vertex -4.81629 -99.0787 2.8
      vertex -4.81629 -99.0787 7.62939e-07
    endloop
  endfacet
  facet normal -0.879472 -0.475951 0
    outer loop
      vertex -4.81629 -99.0787 2.8
      vertex -4.58127 -99.5129 7.62939e-07
      vertex -4.58127 -99.5129 2.8
    endloop
  endfacet
  facet normal -0.986362 -0.164593 0
    outer loop
      vertex -4.5 -100 7.62939e-07
      vertex -4.58127 -99.5129 2.8
      vertex -4.58127 -99.5129 7.62939e-07
    endloop
  endfacet
  facet normal -0.986362 -0.164593 0
    outer loop
      vertex -4.58127 -99.5129 2.8
      vertex -4.5 -100 7.62939e-07
      vertex -4.5 -100 2.8
    endloop
  endfacet
  facet normal 0.245484 -0.969401 0
    outer loop
      vertex -6.60254 -98.6263 7.62939e-07
      vertex -6.12387 -98.5051 2.8
      vertex -6.60254 -98.6263 2.8
    endloop
  endfacet
  facet normal 0.245484 -0.969401 0
    outer loop
      vertex -6.12387 -98.5051 2.8
      vertex -6.60254 -98.6263 7.62939e-07
      vertex -6.12387 -98.5051 7.62939e-07
    endloop
  endfacet
  facet normal -0.0825695 -0.996585 0
    outer loop
      vertex -6.12387 -98.5051 7.62939e-07
      vertex -5.63177 -98.5459 2.8
      vertex -6.12387 -98.5051 2.8
    endloop
  endfacet
  facet normal -0.0825695 -0.996585 -0
    outer loop
      vertex -5.63177 -98.5459 2.8
      vertex -6.12387 -98.5051 7.62939e-07
      vertex -5.63177 -98.5459 7.62939e-07
    endloop
  endfacet
  facet normal 0.546947 0.837167 -0
    outer loop
      vertex -6.60254 -101.374 7.62939e-07
      vertex -7.01592 -101.104 2.8
      vertex -6.60254 -101.374 2.8
    endloop
  endfacet
  facet normal 0.546947 0.837167 0
    outer loop
      vertex -7.01592 -101.104 2.8
      vertex -6.60254 -101.374 7.62939e-07
      vertex -7.01592 -101.104 7.62939e-07
    endloop
  endfacet
  facet normal 0.789139 -0.614214 0
    outer loop
      vertex -7.31921 -99.2861 2.8
      vertex -7.01592 -98.8964 7.62939e-07
      vertex -7.01592 -98.8964 2.8
    endloop
  endfacet
  facet normal 0.789139 -0.614214 0
    outer loop
      vertex -7.01592 -98.8964 7.62939e-07
      vertex -7.31921 -99.2861 2.8
      vertex -7.31921 -99.2861 7.62939e-07
    endloop
  endfacet
  facet normal 0.546947 -0.837167 0
    outer loop
      vertex -7.01592 -98.8964 7.62939e-07
      vertex -6.60254 -98.6263 2.8
      vertex -7.01592 -98.8964 2.8
    endloop
  endfacet
  facet normal 0.546947 -0.837167 0
    outer loop
      vertex -6.60254 -98.6263 2.8
      vertex -7.01592 -98.8964 7.62939e-07
      vertex -6.60254 -98.6263 7.62939e-07
    endloop
  endfacet
  facet normal -0.98636 0.164599 0
    outer loop
      vertex 68.9187 -100.487 7.62939e-07
      vertex 69 -100 2.8
      vertex 69 -100 7.62939e-07
    endloop
  endfacet
  facet normal -0.98636 0.164599 0
    outer loop
      vertex 69 -100 2.8
      vertex 68.9187 -100.487 7.62939e-07
      vertex 68.9187 -100.487 2.8
    endloop
  endfacet
  facet normal -0.879474 0.475946 0
    outer loop
      vertex 68.6837 -100.921 7.62939e-07
      vertex 68.9187 -100.487 2.8
      vertex 68.9187 -100.487 7.62939e-07
    endloop
  endfacet
  facet normal -0.879474 0.475946 0
    outer loop
      vertex 68.9187 -100.487 2.8
      vertex 68.6837 -100.921 7.62939e-07
      vertex 68.6837 -100.921 2.8
    endloop
  endfacet
  facet normal 1 -0 0
    outer loop
      vertex 66.0205 -100.247 2.8
      vertex 66.0205 -99.7531 7.62939e-07
      vertex 66.0205 -99.7531 2.8
    endloop
  endfacet
  facet normal 1 0 0
    outer loop
      vertex 66.0205 -99.7531 7.62939e-07
      vertex 66.0205 -100.247 2.8
      vertex 66.0205 -100.247 7.62939e-07
    endloop
  endfacet
  facet normal -0.0825698 0.996585 0
    outer loop
      vertex 67.8682 -101.454 7.62939e-07
      vertex 67.3761 -101.495 2.8
      vertex 67.8682 -101.454 2.8
    endloop
  endfacet
  facet normal -0.0825698 0.996585 0
    outer loop
      vertex 67.3761 -101.495 2.8
      vertex 67.8682 -101.454 7.62939e-07
      vertex 67.3761 -101.495 7.62939e-07
    endloop
  endfacet
  facet normal -0.677285 0.73572 0
    outer loop
      vertex 68.6837 -100.921 7.62939e-07
      vertex 68.3204 -101.256 2.8
      vertex 68.6837 -100.921 2.8
    endloop
  endfacet
  facet normal -0.677285 0.73572 0
    outer loop
      vertex 68.3204 -101.256 2.8
      vertex 68.6837 -100.921 7.62939e-07
      vertex 68.3204 -101.256 7.62939e-07
    endloop
  endfacet
  facet normal 0.245483 0.969401 -0
    outer loop
      vertex 67.3761 -101.495 7.62939e-07
      vertex 66.8975 -101.374 2.8
      vertex 67.3761 -101.495 2.8
    endloop
  endfacet
  facet normal 0.245483 0.969401 0
    outer loop
      vertex 66.8975 -101.374 2.8
      vertex 67.3761 -101.495 7.62939e-07
      vertex 66.8975 -101.374 7.62939e-07
    endloop
  endfacet
  facet normal -0.401692 -0.915775 0
    outer loop
      vertex 67.8682 -98.5459 7.62939e-07
      vertex 68.3204 -98.7442 2.8
      vertex 67.8682 -98.5459 2.8
    endloop
  endfacet
  facet normal -0.401692 -0.915775 -0
    outer loop
      vertex 68.3204 -98.7442 2.8
      vertex 67.8682 -98.5459 7.62939e-07
      vertex 68.3204 -98.7442 7.62939e-07
    endloop
  endfacet
  facet normal 0.945816 -0.324702 0
    outer loop
      vertex 66.0205 -99.7531 2.8
      vertex 66.1808 -99.2861 7.62939e-07
      vertex 66.1808 -99.2861 2.8
    endloop
  endfacet
  facet normal 0.945816 -0.324702 0
    outer loop
      vertex 66.1808 -99.2861 7.62939e-07
      vertex 66.0205 -99.7531 2.8
      vertex 66.0205 -99.7531 7.62939e-07
    endloop
  endfacet
  facet normal -0.401692 0.915775 0
    outer loop
      vertex 68.3204 -101.256 7.62939e-07
      vertex 67.8682 -101.454 2.8
      vertex 68.3204 -101.256 2.8
    endloop
  endfacet
  facet normal -0.401692 0.915775 0
    outer loop
      vertex 67.8682 -101.454 2.8
      vertex 68.3204 -101.256 7.62939e-07
      vertex 67.8682 -101.454 7.62939e-07
    endloop
  endfacet
  facet normal 0.945818 0.324698 0
    outer loop
      vertex 66.1808 -100.714 2.8
      vertex 66.0205 -100.247 7.62939e-07
      vertex 66.0205 -100.247 2.8
    endloop
  endfacet
  facet normal 0.945818 0.324698 0
    outer loop
      vertex 66.0205 -100.247 7.62939e-07
      vertex 66.1808 -100.714 2.8
      vertex 66.1808 -100.714 7.62939e-07
    endloop
  endfacet
  facet normal -0.677285 -0.73572 0
    outer loop
      vertex 68.3204 -98.7442 7.62939e-07
      vertex 68.6837 -99.0787 2.8
      vertex 68.3204 -98.7442 2.8
    endloop
  endfacet
  facet normal -0.677285 -0.73572 -0
    outer loop
      vertex 68.6837 -99.0787 2.8
      vertex 68.3204 -98.7442 7.62939e-07
      vertex 68.6837 -99.0787 7.62939e-07
    endloop
  endfacet
  facet normal 0.245483 -0.969401 0
    outer loop
      vertex 66.8975 -98.6263 7.62939e-07
      vertex 67.3761 -98.5051 2.8
      vertex 66.8975 -98.6263 2.8
    endloop
  endfacet
  facet normal 0.245483 -0.969401 0
    outer loop
      vertex 67.3761 -98.5051 2.8
      vertex 66.8975 -98.6263 7.62939e-07
      vertex 67.3761 -98.5051 7.62939e-07
    endloop
  endfacet
  facet normal -0.0825698 -0.996585 0
    outer loop
      vertex 67.3761 -98.5051 7.62939e-07
      vertex 67.8682 -98.5459 2.8
      vertex 67.3761 -98.5051 2.8
    endloop
  endfacet
  facet normal -0.0825698 -0.996585 -0
    outer loop
      vertex 67.8682 -98.5459 2.8
      vertex 67.3761 -98.5051 7.62939e-07
      vertex 67.8682 -98.5459 7.62939e-07
    endloop
  endfacet
  facet normal 0.54695 0.837166 -0
    outer loop
      vertex 66.8975 -101.374 7.62939e-07
      vertex 66.4841 -101.104 2.8
      vertex 66.8975 -101.374 2.8
    endloop
  endfacet
  facet normal 0.54695 0.837166 0
    outer loop
      vertex 66.4841 -101.104 2.8
      vertex 66.8975 -101.374 7.62939e-07
      vertex 66.4841 -101.104 7.62939e-07
    endloop
  endfacet
  facet normal 0.789137 0.614218 0
    outer loop
      vertex 66.4841 -101.104 2.8
      vertex 66.1808 -100.714 7.62939e-07
      vertex 66.1808 -100.714 2.8
    endloop
  endfacet
  facet normal 0.789137 0.614218 0
    outer loop
      vertex 66.1808 -100.714 7.62939e-07
      vertex 66.4841 -101.104 2.8
      vertex 66.4841 -101.104 7.62939e-07
    endloop
  endfacet
  facet normal -0.879471 -0.475953 0
    outer loop
      vertex 68.9187 -99.5129 7.62939e-07
      vertex 68.6837 -99.0787 2.8
      vertex 68.6837 -99.0787 7.62939e-07
    endloop
  endfacet
  facet normal -0.879471 -0.475953 0
    outer loop
      vertex 68.6837 -99.0787 2.8
      vertex 68.9187 -99.5129 7.62939e-07
      vertex 68.9187 -99.5129 2.8
    endloop
  endfacet
  facet normal -0.986361 -0.164597 0
    outer loop
      vertex 69 -100 7.62939e-07
      vertex 68.9187 -99.5129 2.8
      vertex 68.9187 -99.5129 7.62939e-07
    endloop
  endfacet
  facet normal -0.986361 -0.164597 0
    outer loop
      vertex 68.9187 -99.5129 2.8
      vertex 69 -100 7.62939e-07
      vertex 69 -100 2.8
    endloop
  endfacet
  facet normal 0.789137 -0.614218 0
    outer loop
      vertex 66.1808 -99.2861 2.8
      vertex 66.4841 -98.8964 7.62939e-07
      vertex 66.4841 -98.8964 2.8
    endloop
  endfacet
  facet normal 0.789137 -0.614218 0
    outer loop
      vertex 66.4841 -98.8964 7.62939e-07
      vertex 66.1808 -99.2861 2.8
      vertex 66.1808 -99.2861 7.62939e-07
    endloop
  endfacet
  facet normal 0.54695 -0.837166 0
    outer loop
      vertex 66.4841 -98.8964 7.62939e-07
      vertex 66.8975 -98.6263 2.8
      vertex 66.4841 -98.8964 2.8
    endloop
  endfacet
  facet normal 0.54695 -0.837166 0
    outer loop
      vertex 66.8975 -98.6263 2.8
      vertex 66.4841 -98.8964 7.62939e-07
      vertex 66.8975 -98.6263 7.62939e-07
    endloop
  endfacet
  facet normal -0.986361 0.164594 0
    outer loop
      vertex -4.58127 -10.487 7.62939e-07
      vertex -4.5 -10 2.8
      vertex -4.5 -10 7.62939e-07
    endloop
  endfacet
  facet normal -0.986361 0.164594 0
    outer loop
      vertex -4.5 -10 2.8
      vertex -4.58127 -10.487 7.62939e-07
      vertex -4.58127 -10.487 2.8
    endloop
  endfacet
  facet normal -0.879474 0.475947 0
    outer loop
      vertex -4.81629 -10.9213 7.62939e-07
      vertex -4.58127 -10.487 2.8
      vertex -4.58127 -10.487 7.62939e-07
    endloop
  endfacet
  facet normal -0.879474 0.475947 0
    outer loop
      vertex -4.58127 -10.487 2.8
      vertex -4.81629 -10.9213 7.62939e-07
      vertex -4.81629 -10.9213 2.8
    endloop
  endfacet
  facet normal 1 -0 0
    outer loop
      vertex -7.47954 -10.2469 2.8
      vertex -7.47954 -9.75311 7.62939e-07
      vertex -7.47954 -9.75311 2.8
    endloop
  endfacet
  facet normal 1 0 0
    outer loop
      vertex -7.47954 -9.75311 7.62939e-07
      vertex -7.47954 -10.2469 2.8
      vertex -7.47954 -10.2469 7.62939e-07
    endloop
  endfacet
  facet normal -0.0825791 0.996585 0
    outer loop
      vertex -5.63177 -11.4541 7.62939e-07
      vertex -6.12387 -11.4949 2.8
      vertex -5.63177 -11.4541 2.8
    endloop
  endfacet
  facet normal -0.0825791 0.996585 0
    outer loop
      vertex -6.12387 -11.4949 2.8
      vertex -5.63177 -11.4541 7.62939e-07
      vertex -6.12387 -11.4949 7.62939e-07
    endloop
  endfacet
  facet normal -0.677282 0.735723 0
    outer loop
      vertex -4.81629 -10.9213 7.62939e-07
      vertex -5.17958 -11.2557 2.8
      vertex -4.81629 -10.9213 2.8
    endloop
  endfacet
  facet normal -0.677282 0.735723 0
    outer loop
      vertex -5.17958 -11.2557 2.8
      vertex -4.81629 -10.9213 7.62939e-07
      vertex -5.17958 -11.2557 7.62939e-07
    endloop
  endfacet
  facet normal 0.245486 0.9694 -0
    outer loop
      vertex -6.12387 -11.4949 7.62939e-07
      vertex -6.60254 -11.3737 2.8
      vertex -6.12387 -11.4949 2.8
    endloop
  endfacet
  facet normal 0.245486 0.9694 0
    outer loop
      vertex -6.60254 -11.3737 2.8
      vertex -6.12387 -11.4949 7.62939e-07
      vertex -6.60254 -11.3737 7.62939e-07
    endloop
  endfacet
  facet normal -0.401694 -0.915774 0
    outer loop
      vertex -5.63177 -8.5459 7.62939e-07
      vertex -5.17958 -8.74425 2.8
      vertex -5.63177 -8.5459 2.8
    endloop
  endfacet
  facet normal -0.401694 -0.915774 -0
    outer loop
      vertex -5.17958 -8.74425 2.8
      vertex -5.63177 -8.5459 7.62939e-07
      vertex -5.17958 -8.74425 7.62939e-07
    endloop
  endfacet
  facet normal 0.945817 -0.3247 0
    outer loop
      vertex -7.47954 -9.75311 2.8
      vertex -7.31921 -9.28608 7.62939e-07
      vertex -7.31921 -9.28608 2.8
    endloop
  endfacet
  facet normal 0.945817 -0.3247 0
    outer loop
      vertex -7.31921 -9.28608 7.62939e-07
      vertex -7.47954 -9.75311 2.8
      vertex -7.47954 -9.75311 7.62939e-07
    endloop
  endfacet
  facet normal -0.401694 0.915774 0
    outer loop
      vertex -5.17958 -11.2557 7.62939e-07
      vertex -5.63177 -11.4541 2.8
      vertex -5.17958 -11.2557 2.8
    endloop
  endfacet
  facet normal -0.401694 0.915774 0
    outer loop
      vertex -5.63177 -11.4541 2.8
      vertex -5.17958 -11.2557 7.62939e-07
      vertex -5.63177 -11.4541 7.62939e-07
    endloop
  endfacet
  facet normal 0.945817 0.3247 0
    outer loop
      vertex -7.31921 -10.7139 2.8
      vertex -7.47954 -10.2469 7.62939e-07
      vertex -7.47954 -10.2469 2.8
    endloop
  endfacet
  facet normal 0.945817 0.3247 0
    outer loop
      vertex -7.47954 -10.2469 7.62939e-07
      vertex -7.31921 -10.7139 2.8
      vertex -7.31921 -10.7139 7.62939e-07
    endloop
  endfacet
  facet normal -0.677282 -0.735723 0
    outer loop
      vertex -5.17958 -8.74425 7.62939e-07
      vertex -4.81629 -9.07868 2.8
      vertex -5.17958 -8.74425 2.8
    endloop
  endfacet
  facet normal -0.677282 -0.735723 -0
    outer loop
      vertex -4.81629 -9.07868 2.8
      vertex -5.17958 -8.74425 7.62939e-07
      vertex -4.81629 -9.07868 7.62939e-07
    endloop
  endfacet
  facet normal -0.879474 -0.475947 0
    outer loop
      vertex -4.58127 -9.51295 7.62939e-07
      vertex -4.81629 -9.07868 2.8
      vertex -4.81629 -9.07868 7.62939e-07
    endloop
  endfacet
  facet normal -0.879474 -0.475947 0
    outer loop
      vertex -4.81629 -9.07868 2.8
      vertex -4.58127 -9.51295 7.62939e-07
      vertex -4.58127 -9.51295 2.8
    endloop
  endfacet
  facet normal -0.986361 -0.164594 0
    outer loop
      vertex -4.5 -10 7.62939e-07
      vertex -4.58127 -9.51295 2.8
      vertex -4.58127 -9.51295 7.62939e-07
    endloop
  endfacet
  facet normal -0.986361 -0.164594 0
    outer loop
      vertex -4.58127 -9.51295 2.8
      vertex -4.5 -10 7.62939e-07
      vertex -4.5 -10 2.8
    endloop
  endfacet
  facet normal 0.245486 -0.9694 0
    outer loop
      vertex -6.60254 -8.62634 7.62939e-07
      vertex -6.12387 -8.50512 2.8
      vertex -6.60254 -8.62634 2.8
    endloop
  endfacet
  facet normal 0.245486 -0.9694 0
    outer loop
      vertex -6.12387 -8.50512 2.8
      vertex -6.60254 -8.62634 7.62939e-07
      vertex -6.12387 -8.50512 7.62939e-07
    endloop
  endfacet
  facet normal -0.0825791 -0.996585 0
    outer loop
      vertex -6.12387 -8.50512 7.62939e-07
      vertex -5.63177 -8.5459 2.8
      vertex -6.12387 -8.50512 2.8
    endloop
  endfacet
  facet normal -0.0825791 -0.996585 -0
    outer loop
      vertex -5.63177 -8.5459 2.8
      vertex -6.12387 -8.50512 7.62939e-07
      vertex -5.63177 -8.5459 7.62939e-07
    endloop
  endfacet
  facet normal 0.546948 0.837166 -0
    outer loop
      vertex -6.60254 -11.3737 7.62939e-07
      vertex -7.01592 -11.1036 2.8
      vertex -6.60254 -11.3737 2.8
    endloop
  endfacet
  facet normal 0.546948 0.837166 0
    outer loop
      vertex -7.01592 -11.1036 2.8
      vertex -6.60254 -11.3737 7.62939e-07
      vertex -7.01592 -11.1036 7.62939e-07
    endloop
  endfacet
  facet normal 0.78914 0.614213 0
    outer loop
      vertex -7.01592 -11.1036 2.8
      vertex -7.31921 -10.7139 7.62939e-07
      vertex -7.31921 -10.7139 2.8
    endloop
  endfacet
  facet normal 0.78914 0.614213 0
    outer loop
      vertex -7.31921 -10.7139 7.62939e-07
      vertex -7.01592 -11.1036 2.8
      vertex -7.01592 -11.1036 7.62939e-07
    endloop
  endfacet
  facet normal 0.78914 -0.614213 0
    outer loop
      vertex -7.31921 -9.28608 2.8
      vertex -7.01592 -8.89641 7.62939e-07
      vertex -7.01592 -8.89641 2.8
    endloop
  endfacet
  facet normal 0.78914 -0.614213 0
    outer loop
      vertex -7.01592 -8.89641 7.62939e-07
      vertex -7.31921 -9.28608 2.8
      vertex -7.31921 -9.28608 7.62939e-07
    endloop
  endfacet
  facet normal 0.546948 -0.837166 0
    outer loop
      vertex -7.01592 -8.89641 7.62939e-07
      vertex -6.60254 -8.62634 2.8
      vertex -7.01592 -8.89641 2.8
    endloop
  endfacet
  facet normal 0.546948 -0.837166 0
    outer loop
      vertex -6.60254 -8.62634 2.8
      vertex -7.01592 -8.89641 7.62939e-07
      vertex -6.60254 -8.62634 7.62939e-07
    endloop
  endfacet
  facet normal -0.986361 0.164598 0
    outer loop
      vertex 68.9187 -10.487 7.62939e-07
      vertex 69 -10 2.8
      vertex 69 -10 7.62939e-07
    endloop
  endfacet
  facet normal -0.986361 0.164598 0
    outer loop
      vertex 69 -10 2.8
      vertex 68.9187 -10.487 7.62939e-07
      vertex 68.9187 -10.487 2.8
    endloop
  endfacet
  facet normal -0.879473 0.475949 0
    outer loop
      vertex 68.6837 -10.9213 7.62939e-07
      vertex 68.9187 -10.487 2.8
      vertex 68.9187 -10.487 7.62939e-07
    endloop
  endfacet
  facet normal -0.879473 0.475949 0
    outer loop
      vertex 68.9187 -10.487 2.8
      vertex 68.6837 -10.9213 7.62939e-07
      vertex 68.6837 -10.9213 2.8
    endloop
  endfacet
  facet normal 1 -0 0
    outer loop
      vertex 66.0205 -10.2469 2.8
      vertex 66.0205 -9.75311 7.62939e-07
      vertex 66.0205 -9.75311 2.8
    endloop
  endfacet
  facet normal 1 0 0
    outer loop
      vertex 66.0205 -9.75311 7.62939e-07
      vertex 66.0205 -10.2469 2.8
      vertex 66.0205 -10.2469 7.62939e-07
    endloop
  endfacet
  facet normal -0.0825794 0.996584 0
    outer loop
      vertex 67.8682 -11.4541 7.62939e-07
      vertex 67.3761 -11.4949 2.8
      vertex 67.8682 -11.4541 2.8
    endloop
  endfacet
  facet normal -0.0825794 0.996584 0
    outer loop
      vertex 67.3761 -11.4949 2.8
      vertex 67.8682 -11.4541 7.62939e-07
      vertex 67.3761 -11.4949 7.62939e-07
    endloop
  endfacet
  facet normal -0.677281 0.735724 0
    outer loop
      vertex 68.6837 -10.9213 7.62939e-07
      vertex 68.3204 -11.2557 2.8
      vertex 68.6837 -10.9213 2.8
    endloop
  endfacet
  facet normal -0.677281 0.735724 0
    outer loop
      vertex 68.3204 -11.2557 2.8
      vertex 68.6837 -10.9213 7.62939e-07
      vertex 68.3204 -11.2557 7.62939e-07
    endloop
  endfacet
  facet normal 0.245485 0.9694 -0
    outer loop
      vertex 67.3761 -11.4949 7.62939e-07
      vertex 66.8975 -11.3737 2.8
      vertex 67.3761 -11.4949 2.8
    endloop
  endfacet
  facet normal 0.245485 0.9694 0
    outer loop
      vertex 66.8975 -11.3737 2.8
      vertex 67.3761 -11.4949 7.62939e-07
      vertex 66.8975 -11.3737 7.62939e-07
    endloop
  endfacet
  facet normal -0.401694 -0.915774 0
    outer loop
      vertex 67.8682 -8.5459 7.62939e-07
      vertex 68.3204 -8.74425 2.8
      vertex 67.8682 -8.5459 2.8
    endloop
  endfacet
  facet normal -0.401694 -0.915774 -0
    outer loop
      vertex 68.3204 -8.74425 2.8
      vertex 67.8682 -8.5459 7.62939e-07
      vertex 68.3204 -8.74425 7.62939e-07
    endloop
  endfacet
  facet normal 0.945817 -0.3247 0
    outer loop
      vertex 66.0205 -9.75311 2.8
      vertex 66.1808 -9.28608 7.62939e-07
      vertex 66.1808 -9.28608 2.8
    endloop
  endfacet
  facet normal 0.945817 -0.3247 0
    outer loop
      vertex 66.1808 -9.28608 7.62939e-07
      vertex 66.0205 -9.75311 2.8
      vertex 66.0205 -9.75311 7.62939e-07
    endloop
  endfacet
  facet normal -0.401694 0.915774 0
    outer loop
      vertex 68.3204 -11.2557 7.62939e-07
      vertex 67.8682 -11.4541 2.8
      vertex 68.3204 -11.2557 2.8
    endloop
  endfacet
  facet normal -0.401694 0.915774 0
    outer loop
      vertex 67.8682 -11.4541 2.8
      vertex 68.3204 -11.2557 7.62939e-07
      vertex 67.8682 -11.4541 7.62939e-07
    endloop
  endfacet
  facet normal 0.945817 0.3247 0
    outer loop
      vertex 66.1808 -10.7139 2.8
      vertex 66.0205 -10.2469 7.62939e-07
      vertex 66.0205 -10.2469 2.8
    endloop
  endfacet
  facet normal 0.945817 0.3247 0
    outer loop
      vertex 66.0205 -10.2469 7.62939e-07
      vertex 66.1808 -10.7139 2.8
      vertex 66.1808 -10.7139 7.62939e-07
    endloop
  endfacet
  facet normal -0.677281 -0.735724 0
    outer loop
      vertex 68.3204 -8.74425 7.62939e-07
      vertex 68.6837 -9.07868 2.8
      vertex 68.3204 -8.74425 2.8
    endloop
  endfacet
  facet normal -0.677281 -0.735724 -0
    outer loop
      vertex 68.6837 -9.07868 2.8
      vertex 68.3204 -8.74425 7.62939e-07
      vertex 68.6837 -9.07868 7.62939e-07
    endloop
  endfacet
  facet normal 0.245485 -0.9694 0
    outer loop
      vertex 66.8975 -8.62634 7.62939e-07
      vertex 67.3761 -8.50512 2.8
      vertex 66.8975 -8.62634 2.8
    endloop
  endfacet
  facet normal 0.245485 -0.9694 0
    outer loop
      vertex 67.3761 -8.50512 2.8
      vertex 66.8975 -8.62634 7.62939e-07
      vertex 67.3761 -8.50512 7.62939e-07
    endloop
  endfacet
  facet normal -0.0825794 -0.996584 0
    outer loop
      vertex 67.3761 -8.50512 7.62939e-07
      vertex 67.8682 -8.5459 2.8
      vertex 67.3761 -8.50512 2.8
    endloop
  endfacet
  facet normal -0.0825794 -0.996584 -0
    outer loop
      vertex 67.8682 -8.5459 2.8
      vertex 67.3761 -8.50512 7.62939e-07
      vertex 67.8682 -8.5459 7.62939e-07
    endloop
  endfacet
  facet normal 0.546951 0.837165 -0
    outer loop
      vertex 66.8975 -11.3737 7.62939e-07
      vertex 66.4841 -11.1036 2.8
      vertex 66.8975 -11.3737 2.8
    endloop
  endfacet
  facet normal 0.546951 0.837165 0
    outer loop
      vertex 66.4841 -11.1036 2.8
      vertex 66.8975 -11.3737 7.62939e-07
      vertex 66.4841 -11.1036 7.62939e-07
    endloop
  endfacet
  facet normal 0.789137 0.614217 0
    outer loop
      vertex 66.4841 -11.1036 2.8
      vertex 66.1808 -10.7139 7.62939e-07
      vertex 66.1808 -10.7139 2.8
    endloop
  endfacet
  facet normal 0.789137 0.614217 0
    outer loop
      vertex 66.1808 -10.7139 7.62939e-07
      vertex 66.4841 -11.1036 2.8
      vertex 66.4841 -11.1036 7.62939e-07
    endloop
  endfacet
  facet normal -0.879473 -0.475949 0
    outer loop
      vertex 68.9187 -9.51295 7.62939e-07
      vertex 68.6837 -9.07868 2.8
      vertex 68.6837 -9.07868 7.62939e-07
    endloop
  endfacet
  facet normal -0.879473 -0.475949 0
    outer loop
      vertex 68.6837 -9.07868 2.8
      vertex 68.9187 -9.51295 7.62939e-07
      vertex 68.9187 -9.51295 2.8
    endloop
  endfacet
  facet normal -0.986361 -0.164598 0
    outer loop
      vertex 69 -10 7.62939e-07
      vertex 68.9187 -9.51295 2.8
      vertex 68.9187 -9.51295 7.62939e-07
    endloop
  endfacet
  facet normal -0.986361 -0.164598 0
    outer loop
      vertex 68.9187 -9.51295 2.8
      vertex 69 -10 7.62939e-07
      vertex 69 -10 2.8
    endloop
  endfacet
  facet normal 0.789137 -0.614217 0
    outer loop
      vertex 66.1808 -9.28608 2.8
      vertex 66.4841 -8.89641 7.62939e-07
      vertex 66.4841 -8.89641 2.8
    endloop
  endfacet
  facet normal 0.789137 -0.614217 0
    outer loop
      vertex 66.4841 -8.89641 7.62939e-07
      vertex 66.1808 -9.28608 2.8
      vertex 66.1808 -9.28608 7.62939e-07
    endloop
  endfacet
  facet normal 0.546951 -0.837165 0
    outer loop
      vertex 66.4841 -8.89641 7.62939e-07
      vertex 66.8975 -8.62634 2.8
      vertex 66.4841 -8.89641 2.8
    endloop
  endfacet
  facet normal 0.546951 -0.837165 0
    outer loop
      vertex 66.8975 -8.62634 2.8
      vertex 66.4841 -8.89641 7.62939e-07
      vertex 66.8975 -8.62634 7.62939e-07
    endloop
  endfacet
  facet normal -1 0 0
    outer loop
      vertex -11.5 -110 7.62939e-07
      vertex -11.5 0 2.8
      vertex -11.5 -1.71451e-16 7.62939e-07
    endloop
  endfacet
  facet normal -1 -0 0
    outer loop
      vertex -11.5 0 2.8
      vertex -11.5 -110 7.62939e-07
      vertex -11.5 -110 2.8
    endloop
  endfacet
  facet normal 0 -1 0
    outer loop
      vertex -11.5 -110 7.62939e-07
      vertex -5.4 -110 2.8
      vertex -11.5 -110 2.8
    endloop
  endfacet
  facet normal 0 -1 -0
    outer loop
      vertex -5.4 -110 2.8
      vertex -11.5 -110 7.62939e-07
      vertex -5.4 -110 7.62939e-07
    endloop
  endfacet
  facet normal 0 -1 0
    outer loop
      vertex 65.9 -110 7.62939e-07
      vertex 72 -110 2.8
      vertex 65.9 -110 2.8
    endloop
  endfacet
  facet normal 0 -1 -0
    outer loop
      vertex 72 -110 2.8
      vertex 65.9 -110 7.62939e-07
      vertex 72 -110 7.62939e-07
    endloop
  endfacet
  facet normal 0 1 0
    outer loop
      vertex 50 -110 2.8
      vertex 32.5 -110 1.4
      vertex 5 -110 2.8
    endloop
  endfacet
  facet normal 0 1 -0
    outer loop
      vertex 50 -110 7.62939e-07
      vertex 32.5 -110 1.4
      vertex 50 -110 2.8
    endloop
  endfacet
  facet normal 0 1 0
    outer loop
      vertex 32.5 -110 1.4
      vertex 50 -110 7.62939e-07
      vertex 32.5 -110 7.62939e-07
    endloop
  endfacet
  facet normal 0 1 -0
    outer loop
      vertex 23.5 -110 1.4
      vertex 5 -110 2.8
      vertex 32.5 -110 1.4
    endloop
  endfacet
  facet normal 0 1 0
    outer loop
      vertex 5 -110 7.62939e-07
      vertex 23.5 -110 1.4
      vertex 23.5 -110 7.62939e-07
    endloop
  endfacet
  facet normal 0 1 0
    outer loop
      vertex 23.5 -110 1.4
      vertex 5 -110 7.62939e-07
      vertex 5 -110 2.8
    endloop
  endfacet
  facet normal 1 -0 0
    outer loop
      vertex 72 -110 2.8
      vertex 72 -1.71451e-16 7.62939e-07
      vertex 72 0 2.8
    endloop
  endfacet
  facet normal 1 0 0
    outer loop
      vertex 72 -1.71451e-16 7.62939e-07
      vertex 72 -110 2.8
      vertex 72 -110 7.62939e-07
    endloop
  endfacet
  facet normal 0 1 -6.12323e-17
    outer loop
      vertex 72 -1.71451e-16 7.62939e-07
      vertex -11.5 0 2.8
      vertex 72 0 2.8
    endloop
  endfacet
  facet normal 0 1 -6.12323e-17
    outer loop
      vertex -11.5 0 2.8
      vertex 72 -1.71451e-16 7.62939e-07
      vertex -11.5 -1.71451e-16 7.62939e-07
    endloop
  endfacet
  facet normal -0 0 -1
    outer loop
      vertex 65.9 -112.8 7.62939e-07
      vertex 62 -115.3 7.62939e-07
      vertex 65.9 -110 7.62939e-07
    endloop
  endfacet
  facet normal 0 0 -1
    outer loop
      vertex 5 -110 7.62939e-07
      vertex -4.81629 -99.0787 7.62939e-07
      vertex 5 -33 7.62939e-07
    endloop
  endfacet
  facet normal 0 0 -1
    outer loop
      vertex 5 -33 7.62939e-07
      vertex -4.58127 -10.487 7.62939e-07
      vertex -4.5 -10 7.62939e-07
    endloop
  endfacet
  facet normal 0 0 -1
    outer loop
      vertex -5.17958 -98.7442 7.62939e-07
      vertex 5 -33 7.62939e-07
      vertex -4.81629 -99.0787 7.62939e-07
    endloop
  endfacet
  facet normal 0 0 -1
    outer loop
      vertex 5 -33 7.62939e-07
      vertex -4.81629 -10.9213 7.62939e-07
      vertex -4.58127 -10.487 7.62939e-07
    endloop
  endfacet
  facet normal 0 0 -1
    outer loop
      vertex -5.63177 -98.5459 7.62939e-07
      vertex 5 -33 7.62939e-07
      vertex -5.17958 -98.7442 7.62939e-07
    endloop
  endfacet
  facet normal 0 0 -1
    outer loop
      vertex 5 -33 7.62939e-07
      vertex -5.17958 -11.2557 7.62939e-07
      vertex -4.81629 -10.9213 7.62939e-07
    endloop
  endfacet
  facet normal 0 0 -1
    outer loop
      vertex -6.12387 -98.5051 7.62939e-07
      vertex 5 -33 7.62939e-07
      vertex -5.63177 -98.5459 7.62939e-07
    endloop
  endfacet
  facet normal 0 0 -1
    outer loop
      vertex 5 -33 7.62939e-07
      vertex -5.63177 -11.4541 7.62939e-07
      vertex -5.17958 -11.2557 7.62939e-07
    endloop
  endfacet
  facet normal 0 0 -1
    outer loop
      vertex -6.60254 -98.6263 7.62939e-07
      vertex 5 -33 7.62939e-07
      vertex -6.12387 -98.5051 7.62939e-07
    endloop
  endfacet
  facet normal 0 0 -1
    outer loop
      vertex 5 -33 7.62939e-07
      vertex -6.12387 -11.4949 7.62939e-07
      vertex -5.63177 -11.4541 7.62939e-07
    endloop
  endfacet
  facet normal 0 0 -1
    outer loop
      vertex -7.01592 -98.8964 7.62939e-07
      vertex 5 -33 7.62939e-07
      vertex -6.60254 -98.6263 7.62939e-07
    endloop
  endfacet
  facet normal 0 0 -1
    outer loop
      vertex 5 -33 7.62939e-07
      vertex -6.60254 -11.3737 7.62939e-07
      vertex -6.12387 -11.4949 7.62939e-07
    endloop
  endfacet
  facet normal 0 0 -1
    outer loop
      vertex -7.01592 -11.1036 7.62939e-07
      vertex 5 -33 7.62939e-07
      vertex -7.01592 -98.8964 7.62939e-07
    endloop
  endfacet
  facet normal 0 0 -1
    outer loop
      vertex 5 -33 7.62939e-07
      vertex -7.01592 -11.1036 7.62939e-07
      vertex -6.60254 -11.3737 7.62939e-07
    endloop
  endfacet
  facet normal 0 0 -1
    outer loop
      vertex -7.31921 -99.2861 7.62939e-07
      vertex -7.01592 -11.1036 7.62939e-07
      vertex -7.01592 -98.8964 7.62939e-07
    endloop
  endfacet
  facet normal 0 0 -1
    outer loop
      vertex -7.31921 -99.2861 7.62939e-07
      vertex -7.31921 -10.7139 7.62939e-07
      vertex -7.01592 -11.1036 7.62939e-07
    endloop
  endfacet
  facet normal 0 0 -1
    outer loop
      vertex -7.47954 -99.7531 7.62939e-07
      vertex -7.31921 -10.7139 7.62939e-07
      vertex -7.31921 -99.2861 7.62939e-07
    endloop
  endfacet
  facet normal -0 0 -1
    outer loop
      vertex -7.31921 -10.7139 7.62939e-07
      vertex -7.47954 -99.7531 7.62939e-07
      vertex -7.47954 -10.2469 7.62939e-07
    endloop
  endfacet
  facet normal 0 0 -1
    outer loop
      vertex 5 -110 7.62939e-07
      vertex -4.58127 -100.487 7.62939e-07
      vertex -4.5 -100 7.62939e-07
    endloop
  endfacet
  facet normal 0 0 -1
    outer loop
      vertex 5 -110 7.62939e-07
      vertex -4.81629 -100.921 7.62939e-07
      vertex -4.58127 -100.487 7.62939e-07
    endloop
  endfacet
  facet normal 0 0 -1
    outer loop
      vertex 5 -110 7.62939e-07
      vertex -5.4 -110 7.62939e-07
      vertex -4.81629 -100.921 7.62939e-07
    endloop
  endfacet
  facet normal 0 0 -1
    outer loop
      vertex -5.4 -110 7.62939e-07
      vertex -1.5 -115.3 7.62939e-07
      vertex -5.4 -112.8 7.62939e-07
    endloop
  endfacet
  facet normal 0 0 -1
    outer loop
      vertex -4.81629 -100.921 7.62939e-07
      vertex -5.4 -110 7.62939e-07
      vertex -5.17958 -101.256 7.62939e-07
    endloop
  endfacet
  facet normal 0 0 -1
    outer loop
      vertex -5.4 -110 7.62939e-07
      vertex -5.63177 -101.454 7.62939e-07
      vertex -5.17958 -101.256 7.62939e-07
    endloop
  endfacet
  facet normal 0 0 -1
    outer loop
      vertex -5.4 -110 7.62939e-07
      vertex -6.12387 -101.495 7.62939e-07
      vertex -5.63177 -101.454 7.62939e-07
    endloop
  endfacet
  facet normal 0 0 -1
    outer loop
      vertex -5.4 -110 7.62939e-07
      vertex -6.60254 -101.374 7.62939e-07
      vertex -6.12387 -101.495 7.62939e-07
    endloop
  endfacet
  facet normal 0 0 -1
    outer loop
      vertex -11.5 -110 7.62939e-07
      vertex -6.60254 -101.374 7.62939e-07
      vertex -5.4 -110 7.62939e-07
    endloop
  endfacet
  facet normal -0 0 -1
    outer loop
      vertex -6.60254 -101.374 7.62939e-07
      vertex -11.5 -110 7.62939e-07
      vertex -7.01592 -101.104 7.62939e-07
    endloop
  endfacet
  facet normal -0 0 -1
    outer loop
      vertex -7.01592 -101.104 7.62939e-07
      vertex -11.5 -110 7.62939e-07
      vertex -7.31921 -100.714 7.62939e-07
    endloop
  endfacet
  facet normal 0 0 -1
    outer loop
      vertex -11.5 -110 7.62939e-07
      vertex -7.47954 -99.7531 7.62939e-07
      vertex -7.47954 -100.247 7.62939e-07
    endloop
  endfacet
  facet normal -0 0 -1
    outer loop
      vertex -7.47954 -99.7531 7.62939e-07
      vertex -11.5 -110 7.62939e-07
      vertex -7.47954 -10.2469 7.62939e-07
    endloop
  endfacet
  facet normal 0 0 -1
    outer loop
      vertex -11.5 -1.71451e-16 7.62939e-07
      vertex -7.47954 -10.2469 7.62939e-07
      vertex -11.5 -110 7.62939e-07
    endloop
  endfacet
  facet normal -0 0 -1
    outer loop
      vertex -7.31921 -100.714 7.62939e-07
      vertex -11.5 -110 7.62939e-07
      vertex -7.47954 -100.247 7.62939e-07
    endloop
  endfacet
  facet normal 0 0 -1
    outer loop
      vertex 62 -115.3 7.62939e-07
      vertex 32.5 -110 7.62939e-07
      vertex 50 -110 7.62939e-07
    endloop
  endfacet
  facet normal 0 0 -1
    outer loop
      vertex 32.5 -110 7.62939e-07
      vertex 23.5 -110 7.62939e-07
      vertex 32.5 -33 7.62939e-07
    endloop
  endfacet
  facet normal 0 0 -1
    outer loop
      vertex -1.5 -115.3 7.62939e-07
      vertex 32.5 -110 7.62939e-07
      vertex 62 -115.3 7.62939e-07
    endloop
  endfacet
  facet normal -0 0 -1
    outer loop
      vertex 32.5 -110 7.62939e-07
      vertex -1.5 -115.3 7.62939e-07
      vertex 23.5 -110 7.62939e-07
    endloop
  endfacet
  facet normal 0 0 -1
    outer loop
      vertex -5.4 -110 7.62939e-07
      vertex 5 -110 7.62939e-07
      vertex -1.5 -115.3 7.62939e-07
    endloop
  endfacet
  facet normal -0 0 -1
    outer loop
      vertex 23.5 -110 7.62939e-07
      vertex -1.5 -115.3 7.62939e-07
      vertex 5 -110 7.62939e-07
    endloop
  endfacet
  facet normal 0 0 -1
    outer loop
      vertex 68.9187 -10.487 7.62939e-07
      vertex 72 -1.71451e-16 7.62939e-07
      vertex 68.9187 -99.5129 7.62939e-07
    endloop
  endfacet
  facet normal 0 0 -1
    outer loop
      vertex 72 -1.71451e-16 7.62939e-07
      vertex 68.9187 -10.487 7.62939e-07
      vertex 69 -10 7.62939e-07
    endloop
  endfacet
  facet normal 0 0 -1
    outer loop
      vertex 68.6837 -99.0787 7.62939e-07
      vertex 68.9187 -10.487 7.62939e-07
      vertex 68.9187 -99.5129 7.62939e-07
    endloop
  endfacet
  facet normal 0 0 -1
    outer loop
      vertex 68.6837 -99.0787 7.62939e-07
      vertex 68.6837 -10.9213 7.62939e-07
      vertex 68.9187 -10.487 7.62939e-07
    endloop
  endfacet
  facet normal 0 0 -1
    outer loop
      vertex 68.3204 -98.7442 7.62939e-07
      vertex 68.6837 -10.9213 7.62939e-07
      vertex 68.6837 -99.0787 7.62939e-07
    endloop
  endfacet
  facet normal 0 0 -1
    outer loop
      vertex 68.3204 -98.7442 7.62939e-07
      vertex 68.3204 -11.2557 7.62939e-07
      vertex 68.6837 -10.9213 7.62939e-07
    endloop
  endfacet
  facet normal 0 0 -1
    outer loop
      vertex 50 -33 7.62939e-07
      vertex 68.3204 -98.7442 7.62939e-07
      vertex 67.8682 -98.5459 7.62939e-07
    endloop
  endfacet
  facet normal 0 0 -1
    outer loop
      vertex 68.3204 -98.7442 7.62939e-07
      vertex 50 -33 7.62939e-07
      vertex 68.3204 -11.2557 7.62939e-07
    endloop
  endfacet
  facet normal 0 0 -1
    outer loop
      vertex 50 -33 7.62939e-07
      vertex 67.8682 -98.5459 7.62939e-07
      vertex 67.3761 -98.5051 7.62939e-07
    endloop
  endfacet
  facet normal 0 0 -1
    outer loop
      vertex 68.3204 -11.2557 7.62939e-07
      vertex 50 -33 7.62939e-07
      vertex 67.8682 -11.4541 7.62939e-07
    endloop
  endfacet
  facet normal 0 0 -1
    outer loop
      vertex 50 -33 7.62939e-07
      vertex 67.3761 -98.5051 7.62939e-07
      vertex 66.8975 -98.6263 7.62939e-07
    endloop
  endfacet
  facet normal 0 0 -1
    outer loop
      vertex 67.8682 -11.4541 7.62939e-07
      vertex 50 -33 7.62939e-07
      vertex 67.3761 -11.4949 7.62939e-07
    endloop
  endfacet
  facet normal 0 0 -1
    outer loop
      vertex 50 -33 7.62939e-07
      vertex 66.8975 -98.6263 7.62939e-07
      vertex 66.4841 -98.8964 7.62939e-07
    endloop
  endfacet
  facet normal -0 0 -1
    outer loop
      vertex 67.3761 -11.4949 7.62939e-07
      vertex 50 -33 7.62939e-07
      vertex 66.8975 -11.3737 7.62939e-07
    endloop
  endfacet
  facet normal 0 0 -1
    outer loop
      vertex 50 -110 7.62939e-07
      vertex 66.4841 -98.8964 7.62939e-07
      vertex 66.1808 -99.2861 7.62939e-07
    endloop
  endfacet
  facet normal -0 0 -1
    outer loop
      vertex 66.8975 -11.3737 7.62939e-07
      vertex 50 -33 7.62939e-07
      vertex 66.4841 -11.1036 7.62939e-07
    endloop
  endfacet
  facet normal 0 0 -1
    outer loop
      vertex 50 -110 7.62939e-07
      vertex 66.1808 -99.2861 7.62939e-07
      vertex 66.0205 -99.7531 7.62939e-07
    endloop
  endfacet
  facet normal -0 0 -1
    outer loop
      vertex 66.4841 -11.1036 7.62939e-07
      vertex 50 -33 7.62939e-07
      vertex 66.1808 -10.7139 7.62939e-07
    endloop
  endfacet
  facet normal 0 0 -1
    outer loop
      vertex 68.9187 -99.5129 7.62939e-07
      vertex 72 -110 7.62939e-07
      vertex 69 -100 7.62939e-07
    endloop
  endfacet
  facet normal 0 0 -1
    outer loop
      vertex 72 -110 7.62939e-07
      vertex 68.9187 -100.487 7.62939e-07
      vertex 69 -100 7.62939e-07
    endloop
  endfacet
  facet normal 0 0 -1
    outer loop
      vertex 72 -110 7.62939e-07
      vertex 68.6837 -100.921 7.62939e-07
      vertex 68.9187 -100.487 7.62939e-07
    endloop
  endfacet
  facet normal 0 0 -1
    outer loop
      vertex 72 -110 7.62939e-07
      vertex 68.3204 -101.256 7.62939e-07
      vertex 68.6837 -100.921 7.62939e-07
    endloop
  endfacet
  facet normal 0 0 -1
    outer loop
      vertex 72 -110 7.62939e-07
      vertex 67.8682 -101.454 7.62939e-07
      vertex 68.3204 -101.256 7.62939e-07
    endloop
  endfacet
  facet normal 0 0 -1
    outer loop
      vertex 65.9 -110 7.62939e-07
      vertex 67.8682 -101.454 7.62939e-07
      vertex 72 -110 7.62939e-07
    endloop
  endfacet
  facet normal 0 0 -1
    outer loop
      vertex 67.8682 -101.454 7.62939e-07
      vertex 65.9 -110 7.62939e-07
      vertex 67.3761 -101.495 7.62939e-07
    endloop
  endfacet
  facet normal -0 0 -1
    outer loop
      vertex 67.3761 -101.495 7.62939e-07
      vertex 65.9 -110 7.62939e-07
      vertex 66.8975 -101.374 7.62939e-07
    endloop
  endfacet
  facet normal -0 0 -1
    outer loop
      vertex 66.8975 -101.374 7.62939e-07
      vertex 65.9 -110 7.62939e-07
      vertex 66.4841 -101.104 7.62939e-07
    endloop
  endfacet
  facet normal 0 0 -1
    outer loop
      vertex 50 -110 7.62939e-07
      vertex 66.0205 -99.7531 7.62939e-07
      vertex 66.0205 -100.247 7.62939e-07
    endloop
  endfacet
  facet normal -0 0 -1
    outer loop
      vertex 66.1808 -10.7139 7.62939e-07
      vertex 50 -33 7.62939e-07
      vertex 66.0205 -10.2469 7.62939e-07
    endloop
  endfacet
  facet normal -0 0 -1
    outer loop
      vertex 66.1808 -100.714 7.62939e-07
      vertex 50 -110 7.62939e-07
      vertex 66.0205 -100.247 7.62939e-07
    endloop
  endfacet
  facet normal 0 0 -1
    outer loop
      vertex 50 -110 7.62939e-07
      vertex 66.1808 -100.714 7.62939e-07
      vertex 65.9 -110 7.62939e-07
    endloop
  endfacet
  facet normal -0 0 -1
    outer loop
      vertex 66.4841 -101.104 7.62939e-07
      vertex 65.9 -110 7.62939e-07
      vertex 66.1808 -100.714 7.62939e-07
    endloop
  endfacet
  facet normal 0 0 -1
    outer loop
      vertex 72 -110 7.62939e-07
      vertex 68.9187 -99.5129 7.62939e-07
      vertex 72 -1.71451e-16 7.62939e-07
    endloop
  endfacet
  facet normal 0 0 -1
    outer loop
      vertex 68.9187 -9.51295 7.62939e-07
      vertex 72 -1.71451e-16 7.62939e-07
      vertex 69 -10 7.62939e-07
    endloop
  endfacet
  facet normal 0 0 -1
    outer loop
      vertex 68.6837 -9.07868 7.62939e-07
      vertex 72 -1.71451e-16 7.62939e-07
      vertex 68.9187 -9.51295 7.62939e-07
    endloop
  endfacet
  facet normal 0 0 -1
    outer loop
      vertex 68.3204 -8.74425 7.62939e-07
      vertex 72 -1.71451e-16 7.62939e-07
      vertex 68.6837 -9.07868 7.62939e-07
    endloop
  endfacet
  facet normal 0 0 -1
    outer loop
      vertex 67.8682 -8.5459 7.62939e-07
      vertex 72 -1.71451e-16 7.62939e-07
      vertex 68.3204 -8.74425 7.62939e-07
    endloop
  endfacet
  facet normal 0 0 -1
    outer loop
      vertex 67.3761 -8.50512 7.62939e-07
      vertex 72 -1.71451e-16 7.62939e-07
      vertex 67.8682 -8.5459 7.62939e-07
    endloop
  endfacet
  facet normal 0 0 -1
    outer loop
      vertex 66.8975 -8.62634 7.62939e-07
      vertex 72 -1.71451e-16 7.62939e-07
      vertex 67.3761 -8.50512 7.62939e-07
    endloop
  endfacet
  facet normal 0 0 -1
    outer loop
      vertex 66.4841 -8.89641 7.62939e-07
      vertex 72 -1.71451e-16 7.62939e-07
      vertex 66.8975 -8.62634 7.62939e-07
    endloop
  endfacet
  facet normal 0 0 -1
    outer loop
      vertex -4.81629 -9.07868 7.62939e-07
      vertex 66.4841 -8.89641 7.62939e-07
      vertex 66.1808 -9.28608 7.62939e-07
    endloop
  endfacet
  facet normal 0 0 -1
    outer loop
      vertex 50 -110 7.62939e-07
      vertex 65.9 -110 7.62939e-07
      vertex 62 -115.3 7.62939e-07
    endloop
  endfacet
  facet normal -0 0 -1
    outer loop
      vertex 66.4841 -98.8964 7.62939e-07
      vertex 50 -110 7.62939e-07
      vertex 50 -33 7.62939e-07
    endloop
  endfacet
  facet normal -0 0 -1
    outer loop
      vertex 66.0205 -10.2469 7.62939e-07
      vertex 50 -33 7.62939e-07
      vertex 66.0205 -9.75311 7.62939e-07
    endloop
  endfacet
  facet normal 0 0 -1
    outer loop
      vertex 32.5 -33 7.62939e-07
      vertex 66.0205 -9.75311 7.62939e-07
      vertex 50 -33 7.62939e-07
    endloop
  endfacet
  facet normal -0 0 -1
    outer loop
      vertex 66.0205 -9.75311 7.62939e-07
      vertex 32.5 -33 7.62939e-07
      vertex 66.1808 -9.28608 7.62939e-07
    endloop
  endfacet
  facet normal 0 0 -1
    outer loop
      vertex -4.58127 -9.51295 7.62939e-07
      vertex 66.1808 -9.28608 7.62939e-07
      vertex 32.5 -33 7.62939e-07
    endloop
  endfacet
  facet normal 0 0 -1
    outer loop
      vertex 23.5 -33 7.62939e-07
      vertex 32.5 -33 7.62939e-07
      vertex 23.5 -110 7.62939e-07
    endloop
  endfacet
  facet normal 0 0 -1
    outer loop
      vertex -4.58127 -9.51295 7.62939e-07
      vertex 32.5 -33 7.62939e-07
      vertex 23.5 -33 7.62939e-07
    endloop
  endfacet
  facet normal 0 0 -1
    outer loop
      vertex -4.5 -10 7.62939e-07
      vertex 23.5 -33 7.62939e-07
      vertex 5 -33 7.62939e-07
    endloop
  endfacet
  facet normal 0 0 -1
    outer loop
      vertex -4.58127 -99.5129 7.62939e-07
      vertex 5 -110 7.62939e-07
      vertex -4.5 -100 7.62939e-07
    endloop
  endfacet
  facet normal 0 0 -1
    outer loop
      vertex -4.81629 -99.0787 7.62939e-07
      vertex 5 -110 7.62939e-07
      vertex -4.58127 -99.5129 7.62939e-07
    endloop
  endfacet
  facet normal 0 0 -1
    outer loop
      vertex -4.58127 -9.51295 7.62939e-07
      vertex 23.5 -33 7.62939e-07
      vertex -4.5 -10 7.62939e-07
    endloop
  endfacet
  facet normal 0 0 -1
    outer loop
      vertex -4.81629 -9.07868 7.62939e-07
      vertex 66.1808 -9.28608 7.62939e-07
      vertex -4.58127 -9.51295 7.62939e-07
    endloop
  endfacet
  facet normal -0 0 -1
    outer loop
      vertex 66.4841 -8.89641 7.62939e-07
      vertex -4.81629 -9.07868 7.62939e-07
      vertex 72 -1.71451e-16 7.62939e-07
    endloop
  endfacet
  facet normal 0 0 -1
    outer loop
      vertex -11.5 -1.71451e-16 7.62939e-07
      vertex -4.81629 -9.07868 7.62939e-07
      vertex -5.17958 -8.74425 7.62939e-07
    endloop
  endfacet
  facet normal 0 0 -1
    outer loop
      vertex -11.5 -1.71451e-16 7.62939e-07
      vertex -5.17958 -8.74425 7.62939e-07
      vertex -5.63177 -8.5459 7.62939e-07
    endloop
  endfacet
  facet normal 0 0 -1
    outer loop
      vertex -11.5 -1.71451e-16 7.62939e-07
      vertex -5.63177 -8.5459 7.62939e-07
      vertex -6.12387 -8.50512 7.62939e-07
    endloop
  endfacet
  facet normal 0 0 -1
    outer loop
      vertex -4.81629 -9.07868 7.62939e-07
      vertex -11.5 -1.71451e-16 7.62939e-07
      vertex 72 -1.71451e-16 7.62939e-07
    endloop
  endfacet
  facet normal 0 0 -1
    outer loop
      vertex -6.60254 -8.62634 7.62939e-07
      vertex -11.5 -1.71451e-16 7.62939e-07
      vertex -6.12387 -8.50512 7.62939e-07
    endloop
  endfacet
  facet normal 0 0 -1
    outer loop
      vertex -7.01592 -8.89641 7.62939e-07
      vertex -11.5 -1.71451e-16 7.62939e-07
      vertex -6.60254 -8.62634 7.62939e-07
    endloop
  endfacet
  facet normal 0 0 -1
    outer loop
      vertex -7.31921 -9.28608 7.62939e-07
      vertex -11.5 -1.71451e-16 7.62939e-07
      vertex -7.01592 -8.89641 7.62939e-07
    endloop
  endfacet
  facet normal 0 0 -1
    outer loop
      vertex -7.47954 -9.75311 7.62939e-07
      vertex -11.5 -1.71451e-16 7.62939e-07
      vertex -7.31921 -9.28608 7.62939e-07
    endloop
  endfacet
  facet normal 0 0 -1
    outer loop
      vertex -7.47954 -10.2469 7.62939e-07
      vertex -11.5 -1.71451e-16 7.62939e-07
      vertex -7.47954 -9.75311 7.62939e-07
    endloop
  endfacet
  facet normal -0 0 1
    outer loop
      vertex -5.63177 -101.454 2.8
      vertex -5.4 -110 2.8
      vertex -5.17958 -101.256 2.8
    endloop
  endfacet
  facet normal -0 0 1
    outer loop
      vertex -6.12387 -101.495 2.8
      vertex -5.4 -110 2.8
      vertex -5.63177 -101.454 2.8
    endloop
  endfacet
  facet normal 0 0 1
    outer loop
      vertex -6.60254 -101.374 2.8
      vertex -5.4 -110 2.8
      vertex -6.12387 -101.495 2.8
    endloop
  endfacet
  facet normal 0 0 1
    outer loop
      vertex -11.5 -110 2.8
      vertex -6.60254 -101.374 2.8
      vertex -7.01592 -101.104 2.8
    endloop
  endfacet
  facet normal 0 0 1
    outer loop
      vertex -11.5 -110 2.8
      vertex -7.01592 -101.104 2.8
      vertex -7.31921 -100.714 2.8
    endloop
  endfacet
  facet normal 0 0 1
    outer loop
      vertex -11.5 -110 2.8
      vertex -7.31921 -100.714 2.8
      vertex -7.47954 -100.247 2.8
    endloop
  endfacet
  facet normal 0 0 1
    outer loop
      vertex -6.60254 -101.374 2.8
      vertex -11.5 -110 2.8
      vertex -5.4 -110 2.8
    endloop
  endfacet
  facet normal 0 0 1
    outer loop
      vertex -7.47954 -99.7531 2.8
      vertex -11.5 -110 2.8
      vertex -7.47954 -100.247 2.8
    endloop
  endfacet
  facet normal -0 0 1
    outer loop
      vertex -4.81629 -10.9213 2.8
      vertex 5 -33 2.8
      vertex -4.58127 -10.487 2.8
    endloop
  endfacet
  facet normal 0 0 1
    outer loop
      vertex 5 -33 2.8
      vertex -4.58127 -99.5129 2.8
      vertex -4.5 -100 2.8
    endloop
  endfacet
  facet normal -0 0 1
    outer loop
      vertex -5.17958 -11.2557 2.8
      vertex 5 -33 2.8
      vertex -4.81629 -10.9213 2.8
    endloop
  endfacet
  facet normal 0 0 1
    outer loop
      vertex 5 -33 2.8
      vertex -4.81629 -99.0787 2.8
      vertex -4.58127 -99.5129 2.8
    endloop
  endfacet
  facet normal -0 0 1
    outer loop
      vertex -5.63177 -11.4541 2.8
      vertex 5 -33 2.8
      vertex -5.17958 -11.2557 2.8
    endloop
  endfacet
  facet normal 0 0 1
    outer loop
      vertex 5 -33 2.8
      vertex -5.17958 -98.7442 2.8
      vertex -4.81629 -99.0787 2.8
    endloop
  endfacet
  facet normal -0 0 1
    outer loop
      vertex -6.12387 -11.4949 2.8
      vertex 5 -33 2.8
      vertex -5.63177 -11.4541 2.8
    endloop
  endfacet
  facet normal 0 0 1
    outer loop
      vertex 5 -33 2.8
      vertex -5.63177 -98.5459 2.8
      vertex -5.17958 -98.7442 2.8
    endloop
  endfacet
  facet normal 0 0 1
    outer loop
      vertex -6.60254 -11.3737 2.8
      vertex 5 -33 2.8
      vertex -6.12387 -11.4949 2.8
    endloop
  endfacet
  facet normal 0 0 1
    outer loop
      vertex 5 -33 2.8
      vertex -6.12387 -98.5051 2.8
      vertex -5.63177 -98.5459 2.8
    endloop
  endfacet
  facet normal 0 0 1
    outer loop
      vertex -7.01592 -11.1036 2.8
      vertex 5 -33 2.8
      vertex -6.60254 -11.3737 2.8
    endloop
  endfacet
  facet normal 0 0 1
    outer loop
      vertex 5 -33 2.8
      vertex -6.60254 -98.6263 2.8
      vertex -6.12387 -98.5051 2.8
    endloop
  endfacet
  facet normal 0 0 1
    outer loop
      vertex -7.01592 -98.8964 2.8
      vertex 5 -33 2.8
      vertex -7.01592 -11.1036 2.8
    endloop
  endfacet
  facet normal 0 0 1
    outer loop
      vertex 5 -33 2.8
      vertex -7.01592 -98.8964 2.8
      vertex -6.60254 -98.6263 2.8
    endloop
  endfacet
  facet normal 0 0 1
    outer loop
      vertex -7.31921 -10.7139 2.8
      vertex -7.01592 -98.8964 2.8
      vertex -7.01592 -11.1036 2.8
    endloop
  endfacet
  facet normal 0 0 1
    outer loop
      vertex -7.31921 -10.7139 2.8
      vertex -7.31921 -99.2861 2.8
      vertex -7.01592 -98.8964 2.8
    endloop
  endfacet
  facet normal 0 0 1
    outer loop
      vertex -7.47954 -10.2469 2.8
      vertex -7.31921 -99.2861 2.8
      vertex -7.31921 -10.7139 2.8
    endloop
  endfacet
  facet normal 0 0 1
    outer loop
      vertex -7.31921 -99.2861 2.8
      vertex -7.47954 -10.2469 2.8
      vertex -7.47954 -99.7531 2.8
    endloop
  endfacet
  facet normal -0 0 1
    outer loop
      vertex 68.9187 -99.5129 2.8
      vertex 72 -110 2.8
      vertex 68.9187 -10.487 2.8
    endloop
  endfacet
  facet normal 0 0 1
    outer loop
      vertex 72 -110 2.8
      vertex 68.9187 -99.5129 2.8
      vertex 69 -100 2.8
    endloop
  endfacet
  facet normal -0 0 1
    outer loop
      vertex 68.6837 -10.9213 2.8
      vertex 68.9187 -99.5129 2.8
      vertex 68.9187 -10.487 2.8
    endloop
  endfacet
  facet normal 0 0 1
    outer loop
      vertex 68.6837 -10.9213 2.8
      vertex 68.6837 -99.0787 2.8
      vertex 68.9187 -99.5129 2.8
    endloop
  endfacet
  facet normal -0 0 1
    outer loop
      vertex 68.3204 -11.2557 2.8
      vertex 68.6837 -99.0787 2.8
      vertex 68.6837 -10.9213 2.8
    endloop
  endfacet
  facet normal 0 0 1
    outer loop
      vertex 68.3204 -11.2557 2.8
      vertex 68.3204 -98.7442 2.8
      vertex 68.6837 -99.0787 2.8
    endloop
  endfacet
  facet normal 0 0 1
    outer loop
      vertex 50 -33 2.8
      vertex 68.3204 -11.2557 2.8
      vertex 67.8682 -11.4541 2.8
    endloop
  endfacet
  facet normal 0 0 1
    outer loop
      vertex 68.3204 -11.2557 2.8
      vertex 50 -33 2.8
      vertex 68.3204 -98.7442 2.8
    endloop
  endfacet
  facet normal 0 0 1
    outer loop
      vertex 50 -33 2.8
      vertex 67.8682 -11.4541 2.8
      vertex 67.3761 -11.4949 2.8
    endloop
  endfacet
  facet normal 0 0 1
    outer loop
      vertex 68.3204 -98.7442 2.8
      vertex 50 -33 2.8
      vertex 67.8682 -98.5459 2.8
    endloop
  endfacet
  facet normal 0 0 1
    outer loop
      vertex 50 -33 2.8
      vertex 67.3761 -11.4949 2.8
      vertex 66.8975 -11.3737 2.8
    endloop
  endfacet
  facet normal 0 0 1
    outer loop
      vertex 67.8682 -98.5459 2.8
      vertex 50 -33 2.8
      vertex 67.3761 -98.5051 2.8
    endloop
  endfacet
  facet normal 0 0 1
    outer loop
      vertex 50 -33 2.8
      vertex 66.8975 -11.3737 2.8
      vertex 66.4841 -11.1036 2.8
    endloop
  endfacet
  facet normal 0 0 1
    outer loop
      vertex 67.3761 -98.5051 2.8
      vertex 50 -33 2.8
      vertex 66.8975 -98.6263 2.8
    endloop
  endfacet
  facet normal 0 0 1
    outer loop
      vertex 50 -33 2.8
      vertex 66.4841 -11.1036 2.8
      vertex 66.1808 -10.7139 2.8
    endloop
  endfacet
  facet normal 0 0 1
    outer loop
      vertex 66.8975 -98.6263 2.8
      vertex 50 -33 2.8
      vertex 66.4841 -98.8964 2.8
    endloop
  endfacet
  facet normal 0 0 1
    outer loop
      vertex 50 -33 2.8
      vertex 66.1808 -10.7139 2.8
      vertex 66.0205 -10.2469 2.8
    endloop
  endfacet
  facet normal 0 0 1
    outer loop
      vertex 50 -110 2.8
      vertex 66.4841 -98.8964 2.8
      vertex 50 -33 2.8
    endloop
  endfacet
  facet normal 0 0 1
    outer loop
      vertex 68.9187 -10.487 2.8
      vertex 72 0 2.8
      vertex 69 -10 2.8
    endloop
  endfacet
  facet normal 0 0 1
    outer loop
      vertex 72 0 2.8
      vertex 68.9187 -9.51295 2.8
      vertex 69 -10 2.8
    endloop
  endfacet
  facet normal 0 0 1
    outer loop
      vertex 72 0 2.8
      vertex 68.6837 -9.07868 2.8
      vertex 68.9187 -9.51295 2.8
    endloop
  endfacet
  facet normal 0 0 1
    outer loop
      vertex 72 0 2.8
      vertex 68.3204 -8.74425 2.8
      vertex 68.6837 -9.07868 2.8
    endloop
  endfacet
  facet normal 0 0 1
    outer loop
      vertex 72 0 2.8
      vertex 67.8682 -8.5459 2.8
      vertex 68.3204 -8.74425 2.8
    endloop
  endfacet
  facet normal 0 0 1
    outer loop
      vertex 72 0 2.8
      vertex 67.3761 -8.50512 2.8
      vertex 67.8682 -8.5459 2.8
    endloop
  endfacet
  facet normal 0 0 1
    outer loop
      vertex 72 0 2.8
      vertex 66.8975 -8.62634 2.8
      vertex 67.3761 -8.50512 2.8
    endloop
  endfacet
  facet normal 0 0 1
    outer loop
      vertex 72 0 2.8
      vertex 66.4841 -8.89641 2.8
      vertex 66.8975 -8.62634 2.8
    endloop
  endfacet
  facet normal 0 0 1
    outer loop
      vertex -4.81629 -9.07868 2.8
      vertex 66.4841 -8.89641 2.8
      vertex 72 0 2.8
    endloop
  endfacet
  facet normal 0 0 1
    outer loop
      vertex 50 -33 2.8
      vertex 66.0205 -10.2469 2.8
      vertex 66.0205 -9.75311 2.8
    endloop
  endfacet
  facet normal 0 0 1
    outer loop
      vertex 66.4841 -98.8964 2.8
      vertex 50 -110 2.8
      vertex 66.1808 -99.2861 2.8
    endloop
  endfacet
  facet normal 0 0 1
    outer loop
      vertex 66.1808 -99.2861 2.8
      vertex 50 -110 2.8
      vertex 66.0205 -99.7531 2.8
    endloop
  endfacet
  facet normal 0 0 1
    outer loop
      vertex 65.9 -110 2.8
      vertex 62 -115.3 2.8
      vertex 65.9 -112.8 2.8
    endloop
  endfacet
  facet normal 0 0 1
    outer loop
      vertex 66.0205 -99.7531 2.8
      vertex 50 -110 2.8
      vertex 66.0205 -100.247 2.8
    endloop
  endfacet
  facet normal 0 0 1
    outer loop
      vertex 66.0205 -100.247 2.8
      vertex 50 -110 2.8
      vertex 65.9 -110 2.8
    endloop
  endfacet
  facet normal -0 0 1
    outer loop
      vertex -4.58127 -9.51295 2.8
      vertex 66.0205 -9.75311 2.8
      vertex 66.1808 -9.28608 2.8
    endloop
  endfacet
  facet normal 0 0 1
    outer loop
      vertex 66.4841 -8.89641 2.8
      vertex -4.81629 -9.07868 2.8
      vertex 66.1808 -9.28608 2.8
    endloop
  endfacet
  facet normal 0 0 1
    outer loop
      vertex 66.0205 -9.75311 2.8
      vertex -4.58127 -9.51295 2.8
      vertex 50 -33 2.8
    endloop
  endfacet
  facet normal -0 0 1
    outer loop
      vertex -4.5 -100 2.8
      vertex 5 -110 2.8
      vertex 5 -33 2.8
    endloop
  endfacet
  facet normal -0 0 1
    outer loop
      vertex -4.58127 -10.487 2.8
      vertex 5 -33 2.8
      vertex -4.5 -10 2.8
    endloop
  endfacet
  facet normal 0 0 1
    outer loop
      vertex 50 -33 2.8
      vertex -4.5 -10 2.8
      vertex 5 -33 2.8
    endloop
  endfacet
  facet normal 0 0 1
    outer loop
      vertex 50 -33 2.8
      vertex -4.58127 -9.51295 2.8
      vertex -4.5 -10 2.8
    endloop
  endfacet
  facet normal 0 0 1
    outer loop
      vertex 66.1808 -9.28608 2.8
      vertex -4.81629 -9.07868 2.8
      vertex -4.58127 -9.51295 2.8
    endloop
  endfacet
  facet normal -0 0 1
    outer loop
      vertex -11.5 0 2.8
      vertex -4.81629 -9.07868 2.8
      vertex 72 0 2.8
    endloop
  endfacet
  facet normal 0 0 1
    outer loop
      vertex -4.81629 -9.07868 2.8
      vertex -11.5 0 2.8
      vertex -5.17958 -8.74425 2.8
    endloop
  endfacet
  facet normal 0 0 1
    outer loop
      vertex -5.17958 -8.74425 2.8
      vertex -11.5 0 2.8
      vertex -5.63177 -8.5459 2.8
    endloop
  endfacet
  facet normal 0 0 1
    outer loop
      vertex -11.5 0 2.8
      vertex -7.47954 -10.2469 2.8
      vertex -7.47954 -9.75311 2.8
    endloop
  endfacet
  facet normal 0 0 1
    outer loop
      vertex -7.47954 -10.2469 2.8
      vertex -11.5 0 2.8
      vertex -7.47954 -99.7531 2.8
    endloop
  endfacet
  facet normal 0 0 1
    outer loop
      vertex -11.5 -110 2.8
      vertex -7.47954 -99.7531 2.8
      vertex -11.5 0 2.8
    endloop
  endfacet
  facet normal 0 0 1
    outer loop
      vertex -7.31921 -9.28608 2.8
      vertex -11.5 0 2.8
      vertex -7.47954 -9.75311 2.8
    endloop
  endfacet
  facet normal 0 0 1
    outer loop
      vertex -7.01592 -8.89641 2.8
      vertex -11.5 0 2.8
      vertex -7.31921 -9.28608 2.8
    endloop
  endfacet
  facet normal 0 0 1
    outer loop
      vertex -6.60254 -8.62634 2.8
      vertex -11.5 0 2.8
      vertex -7.01592 -8.89641 2.8
    endloop
  endfacet
  facet normal 0 0 1
    outer loop
      vertex -6.12387 -8.50512 2.8
      vertex -11.5 0 2.8
      vertex -6.60254 -8.62634 2.8
    endloop
  endfacet
  facet normal 0 0 1
    outer loop
      vertex -5.63177 -8.5459 2.8
      vertex -11.5 0 2.8
      vertex -6.12387 -8.50512 2.8
    endloop
  endfacet
  facet normal 0 0 1
    outer loop
      vertex 72 0 2.8
      vertex 68.9187 -10.487 2.8
      vertex 72 -110 2.8
    endloop
  endfacet
  facet normal -0 0 1
    outer loop
      vertex 68.9187 -100.487 2.8
      vertex 72 -110 2.8
      vertex 69 -100 2.8
    endloop
  endfacet
  facet normal -0 0 1
    outer loop
      vertex 68.6837 -100.921 2.8
      vertex 72 -110 2.8
      vertex 68.9187 -100.487 2.8
    endloop
  endfacet
  facet normal -0 0 1
    outer loop
      vertex 68.3204 -101.256 2.8
      vertex 72 -110 2.8
      vertex 68.6837 -100.921 2.8
    endloop
  endfacet
  facet normal -0 0 1
    outer loop
      vertex 67.8682 -101.454 2.8
      vertex 72 -110 2.8
      vertex 68.3204 -101.256 2.8
    endloop
  endfacet
  facet normal 0 0 1
    outer loop
      vertex 65.9 -110 2.8
      vertex 67.8682 -101.454 2.8
      vertex 67.3761 -101.495 2.8
    endloop
  endfacet
  facet normal 0 0 1
    outer loop
      vertex 65.9 -110 2.8
      vertex 67.3761 -101.495 2.8
      vertex 66.8975 -101.374 2.8
    endloop
  endfacet
  facet normal 0 0 1
    outer loop
      vertex 65.9 -110 2.8
      vertex 66.8975 -101.374 2.8
      vertex 66.4841 -101.104 2.8
    endloop
  endfacet
  facet normal 0 0 1
    outer loop
      vertex 65.9 -110 2.8
      vertex 66.4841 -101.104 2.8
      vertex 66.1808 -100.714 2.8
    endloop
  endfacet
  facet normal 0 0 1
    outer loop
      vertex 67.8682 -101.454 2.8
      vertex 65.9 -110 2.8
      vertex 72 -110 2.8
    endloop
  endfacet
  facet normal 0 0 1
    outer loop
      vertex 65.9 -110 2.8
      vertex 66.1808 -100.714 2.8
      vertex 66.0205 -100.247 2.8
    endloop
  endfacet
  facet normal 0 0 1
    outer loop
      vertex 65.9 -110 2.8
      vertex 50 -110 2.8
      vertex 62 -115.3 2.8
    endloop
  endfacet
  facet normal 0 0 1
    outer loop
      vertex -1.5 -115.3 2.8
      vertex 50 -110 2.8
      vertex 5 -110 2.8
    endloop
  endfacet
  facet normal 0 0 1
    outer loop
      vertex 50 -110 2.8
      vertex -1.5 -115.3 2.8
      vertex 62 -115.3 2.8
    endloop
  endfacet
  facet normal -0 0 1
    outer loop
      vertex -4.58127 -100.487 2.8
      vertex 5 -110 2.8
      vertex -4.5 -100 2.8
    endloop
  endfacet
  facet normal -0 0 1
    outer loop
      vertex -4.81629 -100.921 2.8
      vertex 5 -110 2.8
      vertex -4.58127 -100.487 2.8
    endloop
  endfacet
  facet normal 0 0 1
    outer loop
      vertex -5.4 -110 2.8
      vertex 5 -110 2.8
      vertex -4.81629 -100.921 2.8
    endloop
  endfacet
  facet normal 0 0 1
    outer loop
      vertex -5.4 -110 2.8
      vertex -4.81629 -100.921 2.8
      vertex -5.17958 -101.256 2.8
    endloop
  endfacet
  facet normal 0 0 1
    outer loop
      vertex 5 -110 2.8
      vertex -5.4 -110 2.8
      vertex -1.5 -115.3 2.8
    endloop
  endfacet
  facet normal 0 0 1
    outer loop
      vertex -1.5 -115.3 2.8
      vertex -5.4 -110 2.8
      vertex -5.4 -112.8 2.8
    endloop
  endfacet
  facet normal 1 -0 0
    outer loop
      vertex 5 -110 2.8
      vertex 5 -33 7.62939e-07
      vertex 5 -33 2.8
    endloop
  endfacet
  facet normal 1 0 0
    outer loop
      vertex 5 -33 7.62939e-07
      vertex 5 -110 2.8
      vertex 5 -110 7.62939e-07
    endloop
  endfacet
  facet normal -1 0 0
    outer loop
      vertex 50 -110 7.62939e-07
      vertex 50 -33 2.8
      vertex 50 -33 7.62939e-07
    endloop
  endfacet
  facet normal -1 -0 0
    outer loop
      vertex 50 -33 2.8
      vertex 50 -110 7.62939e-07
      vertex 50 -110 2.8
    endloop
  endfacet
  facet normal 0 -1 0
    outer loop
      vertex 5 -33 2.8
      vertex 23.5 -33 1.4
      vertex 50 -33 2.8
    endloop
  endfacet
  facet normal 0 -1 0
    outer loop
      vertex 5 -33 7.62939e-07
      vertex 23.5 -33 1.4
      vertex 5 -33 2.8
    endloop
  endfacet
  facet normal 0 -1 -0
    outer loop
      vertex 23.5 -33 1.4
      vertex 5 -33 7.62939e-07
      vertex 23.5 -33 7.62939e-07
    endloop
  endfacet
  facet normal 0 -1 0
    outer loop
      vertex 32.5 -33 1.4
      vertex 50 -33 2.8
      vertex 23.5 -33 1.4
    endloop
  endfacet
  facet normal 0 -1 0
    outer loop
      vertex 50 -33 7.62939e-07
      vertex 32.5 -33 1.4
      vertex 32.5 -33 7.62939e-07
    endloop
  endfacet
  facet normal 0 -1 0
    outer loop
      vertex 32.5 -33 1.4
      vertex 50 -33 7.62939e-07
      vertex 50 -33 2.8
    endloop
  endfacet
  facet normal -1 0 0
    outer loop
      vertex 23.5 -110 7.62939e-07
      vertex 23.5 -33 1.4
      vertex 23.5 -33 7.62939e-07
    endloop
  endfacet
  facet normal -1 -0 0
    outer loop
      vertex 23.5 -33 1.4
      vertex 23.5 -110 7.62939e-07
      vertex 23.5 -110 1.4
    endloop
  endfacet
  facet normal 1 -0 0
    outer loop
      vertex 32.5 -110 1.4
      vertex 32.5 -33 7.62939e-07
      vertex 32.5 -33 1.4
    endloop
  endfacet
  facet normal 1 0 0
    outer loop
      vertex 32.5 -33 7.62939e-07
      vertex 32.5 -110 1.4
      vertex 32.5 -110 7.62939e-07
    endloop
  endfacet
  facet normal -0 0 1
    outer loop
      vertex 23.5 -33 1.4
      vertex 32.5 -110 1.4
      vertex 32.5 -33 1.4
    endloop
  endfacet
  facet normal 0 0 1
    outer loop
      vertex 32.5 -110 1.4
      vertex 23.5 -33 1.4
      vertex 23.5 -110 1.4
    endloop
  endfacet
  facet normal -0.30525 -0.451061 -0.838669
    outer loop
      vertex -2.15778 -115.479 0.260684
      vertex -5.4 -112.8 7.62939e-07
      vertex -1.72845 -115.479 0.104418
    endloop
  endfacet
  facet normal 0.30022 -0.937988 -0.173342
    outer loop
      vertex 62.2284 -116.379 1.31685
      vertex 62.1862 -116.379 1.24373
      vertex 62.5362 -116.212 0.950049
    endloop
  endfacet
  facet normal -0.00966047 -0.49498 0.868851
    outer loop
      vertex -1.5 -115.3 2.8
      vertex -1.72845 -115.479 2.69558
      vertex -1.68623 -115.9 2.45617
    endloop
  endfacet
  facet normal -1 0 0
    outer loop
      vertex -5.4 -112.8 7.62939e-07
      vertex -5.4 -110 2.8
      vertex -5.4 -110 7.62939e-07
    endloop
  endfacet
  facet normal -1 -0 0
    outer loop
      vertex -5.4 -110 2.8
      vertex -5.4 -112.8 7.62939e-07
      vertex -5.4 -112.8 2.8
    endloop
  endfacet
  facet normal 0.305251 -0.451062 -0.838668
    outer loop
      vertex 62.6578 -115.479 0.260684
      vertex 62.2284 -115.479 0.104418
      vertex 65.9 -112.8 7.62939e-07
    endloop
  endfacet
  facet normal 0.297322 -0.494269 -0.816883
    outer loop
      vertex 62.5362 -115.9 0.471221
      vertex 62.2284 -115.479 0.104418
      vertex 62.6578 -115.479 0.260684
    endloop
  endfacet
  facet normal 0.00966373 -0.49498 -0.868851
    outer loop
      vertex 62.1862 -115.9 0.343832
      vertex 62 -115.3 7.62939e-07
      vertex 62.2284 -115.479 0.104418
    endloop
  endfacet
  facet normal 0.341405 -0.937986 0.0602019
    outer loop
      vertex 62.6578 -116.212 1.63941
      vertex 62.2284 -116.379 1.48315
      vertex 62.7 -116.212 1.4
    endloop
  endfacet
  facet normal -0.192278 -0.299954 -0.934375
    outer loop
      vertex -1.72845 -115.479 0.104418
      vertex -5.4 -112.8 7.62939e-07
      vertex -1.5 -115.3 7.62939e-07
    endloop
  endfacet
  facet normal 0.192276 -0.299951 0.934376
    outer loop
      vertex 65.9 -112.8 2.8
      vertex 62 -115.3 2.8
      vertex 62.2284 -115.479 2.69558
    endloop
  endfacet
  facet normal 0 -0.497262 0.8676
    outer loop
      vertex -1.5 -115.3 2.8
      vertex 62.1862 -115.9 2.45617
      vertex 62 -115.3 2.8
    endloop
  endfacet
  facet normal 0 -0.497262 0.8676
    outer loop
      vertex 62.1862 -115.9 2.45617
      vertex -1.5 -115.3 2.8
      vertex -1.68623 -115.9 2.45617
    endloop
  endfacet
  facet normal 0.192278 -0.299953 -0.934375
    outer loop
      vertex 62.2284 -115.479 0.104418
      vertex 62 -115.3 7.62939e-07
      vertex 65.9 -112.8 7.62939e-07
    endloop
  endfacet
  facet normal -0.704521 -0.698726 0.124228
    outer loop
      vertex -2.50778 -115.9 1.7668
      vertex -5.4 -112.8 2.8
      vertex -2.57246 -115.9 1.4
    endloop
  endfacet
  facet normal 0.638694 -0.761174 0.112625
    outer loop
      vertex 63.0725 -115.9 1.4
      vertex 62.6578 -116.212 1.63941
      vertex 62.7 -116.212 1.4
    endloop
  endfacet
  facet normal -0.221816 -0.761173 -0.609437
    outer loop
      vertex -1.62155 -116.212 0.710635
      vertex -2.03623 -115.9 0.471221
      vertex -1.68623 -115.9 0.343832
    endloop
  endfacet
  facet normal 1 -0 0
    outer loop
      vertex 65.9 -112.8 2.8
      vertex 65.9 -110 7.62939e-07
      vertex 65.9 -110 2.8
    endloop
  endfacet
  facet normal 1 0 0
    outer loop
      vertex 65.9 -110 7.62939e-07
      vertex 65.9 -112.8 2.8
      vertex 65.9 -112.8 7.62939e-07
    endloop
  endfacet
  facet normal 0.620182 -0.697974 0.35806
    outer loop
      vertex 65.9 -112.8 2.8
      vertex 62.8216 -115.9 2.08937
      vertex 63.0078 -115.9 1.7668
    endloop
  endfacet
  facet normal -0.297321 -0.494271 0.816882
    outer loop
      vertex -1.72845 -115.479 2.69558
      vertex -2.03623 -115.9 2.32878
      vertex -1.68623 -115.9 2.45617
    endloop
  endfacet
  facet normal -0.416877 -0.761174 -0.496817
    outer loop
      vertex -2.03623 -116.212 0.950049
      vertex -2.03623 -115.9 0.471221
      vertex -1.85 -116.212 0.793783
    endloop
  endfacet
  facet normal 0 -0.497263 -0.8676
    outer loop
      vertex 62.1862 -115.9 0.343832
      vertex -1.5 -115.3 7.62939e-07
      vertex 62 -115.3 7.62939e-07
    endloop
  endfacet
  facet normal 0 -0.497263 -0.8676
    outer loop
      vertex -1.5 -115.3 7.62939e-07
      vertex 62.1862 -115.9 0.343832
      vertex -1.68623 -115.9 0.343832
    endloop
  endfacet
  facet normal 0.297324 -0.49427 0.816882
    outer loop
      vertex 62.6578 -115.479 2.53932
      vertex 62.2284 -115.479 2.69558
      vertex 62.5362 -115.9 2.32878
    endloop
  endfacet
  facet normal 0 -0.937987 -0.346671
    outer loop
      vertex -1.62155 -116.212 0.710635
      vertex 62.0422 -116.379 1.16059
      vertex -1.54221 -116.379 1.16059
    endloop
  endfacet
  facet normal 0 -0.937987 -0.346671
    outer loop
      vertex 62.0422 -116.379 1.16059
      vertex -1.62155 -116.212 0.710635
      vertex 62.1216 -116.212 0.710635
    endloop
  endfacet
  facet normal 0.416882 -0.761172 -0.496816
    outer loop
      vertex 62.5362 -116.212 0.950049
      vertex 62.5362 -115.9 0.471221
      vertex 62.8216 -115.9 0.710635
    endloop
  endfacet
  facet normal 0.347275 -0.497657 -0.794819
    outer loop
      vertex 65.9 -112.8 7.62939e-07
      vertex 62.5362 -115.9 0.471221
      vertex 62.6578 -115.479 0.260684
    endloop
  endfacet
  facet normal 0.300228 -0.937986 0.173334
    outer loop
      vertex 62.5362 -116.212 1.84995
      vertex 62.2284 -116.379 1.48315
      vertex 62.6578 -116.212 1.63941
    endloop
  endfacet
  facet normal 0.561664 -0.761171 -0.324271
    outer loop
      vertex 62.6578 -116.212 1.16059
      vertex 62.5362 -116.212 0.950049
      vertex 62.8216 -115.9 0.710635
    endloop
  endfacet
  facet normal 0 -0.761173 -0.648549
    outer loop
      vertex -1.68623 -115.9 0.343832
      vertex 62.1216 -116.212 0.710635
      vertex -1.62155 -116.212 0.710635
    endloop
  endfacet
  facet normal 0 -0.761173 -0.648549
    outer loop
      vertex 62.1216 -116.212 0.710635
      vertex -1.68623 -115.9 0.343832
      vertex 62.1862 -115.9 0.343832
    endloop
  endfacet
  facet normal 0.416882 -0.761172 0.496816
    outer loop
      vertex 62.5362 -115.9 2.32878
      vertex 62.5362 -116.212 1.84995
      vertex 62.8216 -115.9 2.08937
    endloop
  endfacet
  facet normal -0.192277 -0.299951 0.934376
    outer loop
      vertex -1.5 -115.3 2.8
      vertex -5.4 -112.8 2.8
      vertex -1.72845 -115.479 2.69558
    endloop
  endfacet
  facet normal -0.498523 -0.63127 0.594115
    outer loop
      vertex -2.03623 -115.9 2.32878
      vertex -5.4 -112.8 2.8
      vertex -2.32155 -115.9 2.08937
    endloop
  endfacet
  facet normal -0.297321 -0.49427 -0.816883
    outer loop
      vertex -2.03623 -115.9 0.471221
      vertex -2.15778 -115.479 0.260684
      vertex -1.72845 -115.479 0.104418
    endloop
  endfacet
  facet normal -0.347277 -0.497659 -0.794817
    outer loop
      vertex -2.03623 -115.9 0.471221
      vertex -5.4 -112.8 7.62939e-07
      vertex -2.15778 -115.479 0.260684
    endloop
  endfacet
  facet normal -0.297322 -0.49427 0.816882
    outer loop
      vertex -1.72845 -115.479 2.69558
      vertex -2.15778 -115.479 2.53932
      vertex -2.03623 -115.9 2.32878
    endloop
  endfacet
  facet normal -0.620182 -0.697973 -0.358061
    outer loop
      vertex -2.50778 -115.9 1.0332
      vertex -5.4 -112.8 7.62939e-07
      vertex -2.32155 -115.9 0.710635
    endloop
  endfacet
  facet normal 0.297318 -0.494272 -0.816883
    outer loop
      vertex 62.5362 -115.9 0.471221
      vertex 62.1862 -115.9 0.343832
      vertex 62.2284 -115.479 0.104418
    endloop
  endfacet
  facet normal 0.738818 -0.673905 0
    outer loop
      vertex 65.9 -112.8 2.8
      vertex 63.0725 -115.9 1.4
      vertex 65.9 -112.8 7.62939e-07
    endloop
  endfacet
  facet normal 0.498524 -0.631272 -0.594113
    outer loop
      vertex 62.8216 -115.9 0.710635
      vertex 62.5362 -115.9 0.471221
      vertex 65.9 -112.8 7.62939e-07
    endloop
  endfacet
  facet normal 0.305253 -0.451064 0.838667
    outer loop
      vertex 65.9 -112.8 2.8
      vertex 62.2284 -115.479 2.69558
      vertex 62.6578 -115.479 2.53932
    endloop
  endfacet
  facet normal 0.29732 -0.494272 0.816882
    outer loop
      vertex 62.2284 -115.479 2.69558
      vertex 62.1862 -115.9 2.45617
      vertex 62.5362 -115.9 2.32878
    endloop
  endfacet
  facet normal -0.56166 -0.761173 0.324274
    outer loop
      vertex -2.32155 -115.9 2.08937
      vertex -2.50778 -115.9 1.7668
      vertex -2.03623 -116.212 1.84995
    endloop
  endfacet
  facet normal 0.221814 -0.761174 0.609436
    outer loop
      vertex 62.1862 -115.9 2.45617
      vertex 62.1216 -116.212 2.08937
      vertex 62.35 -116.212 2.00622
    endloop
  endfacet
  facet normal 0.118568 -0.937987 0.325765
    outer loop
      vertex 62.1216 -116.212 2.08937
      vertex 62.0422 -116.379 1.63941
      vertex 62.35 -116.212 2.00622
    endloop
  endfacet
  facet normal -0.305252 -0.451063 0.838668
    outer loop
      vertex -1.72845 -115.479 2.69558
      vertex -5.4 -112.8 2.8
      vertex -2.15778 -115.479 2.53932
    endloop
  endfacet
  facet normal -0.341405 -0.937987 -0.0601991
    outer loop
      vertex -1.72845 -116.379 1.31685
      vertex -2.2 -116.212 1.4
      vertex -2.15778 -116.212 1.16059
    endloop
  endfacet
  facet normal -0.0096638 -0.49498 -0.868851
    outer loop
      vertex -1.68623 -115.9 0.343832
      vertex -1.72845 -115.479 0.104418
      vertex -1.5 -115.3 7.62939e-07
    endloop
  endfacet
  facet normal -0.297319 -0.494271 -0.816883
    outer loop
      vertex -1.68623 -115.9 0.343832
      vertex -2.03623 -115.9 0.471221
      vertex -1.72845 -115.479 0.104418
    endloop
  endfacet
  facet normal -0.347277 -0.497659 0.794817
    outer loop
      vertex -2.15778 -115.479 2.53932
      vertex -5.4 -112.8 2.8
      vertex -2.03623 -115.9 2.32878
    endloop
  endfacet
  facet normal -0.738818 -0.673905 -0
    outer loop
      vertex -5.4 -112.8 2.8
      vertex -5.4 -112.8 7.62939e-07
      vertex -2.57246 -115.9 1.4
    endloop
  endfacet
  facet normal -0.221817 -0.761174 -0.609435
    outer loop
      vertex -1.85 -116.212 0.793783
      vertex -2.03623 -115.9 0.471221
      vertex -1.62155 -116.212 0.710635
    endloop
  endfacet
  facet normal 0.221814 -0.761173 -0.609437
    outer loop
      vertex 62.5362 -115.9 0.471221
      vertex 62.1216 -116.212 0.710635
      vertex 62.1862 -115.9 0.343832
    endloop
  endfacet
  facet normal 0.11857 -0.937987 -0.325763
    outer loop
      vertex 62.1216 -116.379 1.18946
      vertex 62.0422 -116.379 1.16059
      vertex 62.35 -116.212 0.793783
    endloop
  endfacet
  facet normal 0.620182 -0.697974 -0.358059
    outer loop
      vertex 63.0078 -115.9 1.0332
      vertex 62.8216 -115.9 0.710635
      vertex 65.9 -112.8 7.62939e-07
    endloop
  endfacet
  facet normal 0.704519 -0.698727 0.124234
    outer loop
      vertex 65.9 -112.8 2.8
      vertex 63.0078 -115.9 1.7668
      vertex 63.0725 -115.9 1.4
    endloop
  endfacet
  facet normal 0.347275 -0.497657 0.794819
    outer loop
      vertex 62.6578 -115.479 2.53932
      vertex 62.5362 -115.9 2.32878
      vertex 65.9 -112.8 2.8
    endloop
  endfacet
  facet normal 0.498524 -0.631272 0.594113
    outer loop
      vertex 65.9 -112.8 2.8
      vertex 62.5362 -115.9 2.32878
      vertex 62.8216 -115.9 2.08937
    endloop
  endfacet
  facet normal 0.0096604 -0.49498 0.868851
    outer loop
      vertex 62.2284 -115.479 2.69558
      vertex 62 -115.3 2.8
      vertex 62.1862 -115.9 2.45617
    endloop
  endfacet
  facet normal 0.221816 -0.761174 0.609436
    outer loop
      vertex 62.5362 -115.9 2.32878
      vertex 62.1862 -115.9 2.45617
      vertex 62.35 -116.212 2.00622
    endloop
  endfacet
  facet normal -0.118569 -0.937987 0.325764
    outer loop
      vertex -1.54221 -116.379 1.63941
      vertex -1.85 -116.212 2.00622
      vertex -1.62155 -116.379 1.61054
    endloop
  endfacet
  facet normal -0.638696 -0.761173 -0.112621
    outer loop
      vertex -2.15778 -116.212 1.16059
      vertex -2.57246 -115.9 1.4
      vertex -2.50778 -115.9 1.0332
    endloop
  endfacet
  facet normal -0.498523 -0.63127 -0.594115
    outer loop
      vertex -2.32155 -115.9 0.710635
      vertex -5.4 -112.8 7.62939e-07
      vertex -2.03623 -115.9 0.471221
    endloop
  endfacet
  facet normal -0.620182 -0.697973 0.358062
    outer loop
      vertex -2.32155 -115.9 2.08937
      vertex -5.4 -112.8 2.8
      vertex -2.50778 -115.9 1.7668
    endloop
  endfacet
  facet normal -0.300226 -0.937987 0.173336
    outer loop
      vertex -2.03623 -116.212 1.84995
      vertex -2.15778 -116.212 1.63941
      vertex -1.72845 -116.379 1.48315
    endloop
  endfacet
  facet normal -0.221817 -0.761173 0.609436
    outer loop
      vertex -1.68623 -115.9 2.45617
      vertex -2.03623 -115.9 2.32878
      vertex -1.85 -116.212 2.00622
    endloop
  endfacet
  facet normal -0.222836 -0.937987 -0.265566
    outer loop
      vertex -1.62155 -116.379 1.18946
      vertex -2.03623 -116.212 0.950049
      vertex -1.85 -116.212 0.793783
    endloop
  endfacet
  facet normal -0.638695 -0.761173 -0.11262
    outer loop
      vertex -2.2 -116.212 1.4
      vertex -2.57246 -115.9 1.4
      vertex -2.15778 -116.212 1.16059
    endloop
  endfacet
  facet normal 0.118569 -0.937987 -0.325765
    outer loop
      vertex 62.35 -116.212 0.793783
      vertex 62.0422 -116.379 1.16059
      vertex 62.1216 -116.212 0.710635
    endloop
  endfacet
  facet normal 0.222834 -0.937987 -0.265567
    outer loop
      vertex 62.5362 -116.212 0.950049
      vertex 62.1216 -116.379 1.18946
      vertex 62.35 -116.212 0.793783
    endloop
  endfacet
  facet normal 0.638695 -0.761173 0.112627
    outer loop
      vertex 63.0078 -115.9 1.7668
      vertex 62.6578 -116.212 1.63941
      vertex 63.0725 -115.9 1.4
    endloop
  endfacet
  facet normal 0.561662 -0.761172 -0.324273
    outer loop
      vertex 63.0078 -115.9 1.0332
      vertex 62.6578 -116.212 1.16059
      vertex 62.8216 -115.9 0.710635
    endloop
  endfacet
  facet normal 0.341404 -0.937987 0.0601931
    outer loop
      vertex 62.7 -116.212 1.4
      vertex 62.2284 -116.379 1.48315
      vertex 62.2431 -116.379 1.4
    endloop
  endfacet
  facet normal 0.300219 -0.937988 0.173342
    outer loop
      vertex 62.5362 -116.212 1.84995
      vertex 62.1862 -116.379 1.55627
      vertex 62.2284 -116.379 1.48315
    endloop
  endfacet
  facet normal 0.416876 -0.761175 0.496817
    outer loop
      vertex 62.5362 -115.9 2.32878
      vertex 62.35 -116.212 2.00622
      vertex 62.5362 -116.212 1.84995
    endloop
  endfacet
  facet normal -0.56166 -0.761173 -0.324274
    outer loop
      vertex -2.15778 -116.212 1.16059
      vertex -2.32155 -115.9 0.710635
      vertex -2.03623 -116.212 0.950049
    endloop
  endfacet
  facet normal -0.704521 -0.698726 -0.124228
    outer loop
      vertex -2.57246 -115.9 1.4
      vertex -5.4 -112.8 7.62939e-07
      vertex -2.50778 -115.9 1.0332
    endloop
  endfacet
  facet normal -0.638696 -0.761173 0.112621
    outer loop
      vertex -2.50778 -115.9 1.7668
      vertex -2.57246 -115.9 1.4
      vertex -2.15778 -116.212 1.63941
    endloop
  endfacet
  facet normal -0.638695 -0.761173 0.11262
    outer loop
      vertex -2.15778 -116.212 1.63941
      vertex -2.57246 -115.9 1.4
      vertex -2.2 -116.212 1.4
    endloop
  endfacet
  facet normal -0.561661 -0.761173 -0.324274
    outer loop
      vertex -2.15778 -116.212 1.16059
      vertex -2.50778 -115.9 1.0332
      vertex -2.32155 -115.9 0.710635
    endloop
  endfacet
  facet normal -0.416879 -0.761173 -0.496817
    outer loop
      vertex -2.03623 -116.212 0.950049
      vertex -2.32155 -115.9 0.710635
      vertex -2.03623 -115.9 0.471221
    endloop
  endfacet
  facet normal 0.222834 -0.937987 -0.265567
    outer loop
      vertex 62.1862 -116.379 1.24373
      vertex 62.1216 -116.379 1.18946
      vertex 62.5362 -116.212 0.950049
    endloop
  endfacet
  facet normal -0.222836 -0.937987 -0.265565
    outer loop
      vertex -1.68623 -116.379 1.24373
      vertex -2.03623 -116.212 0.950049
      vertex -1.62155 -116.379 1.18946
    endloop
  endfacet
  facet normal -0.118569 -0.937987 -0.325764
    outer loop
      vertex -1.54221 -116.379 1.16059
      vertex -1.85 -116.212 0.793783
      vertex -1.62155 -116.212 0.710635
    endloop
  endfacet
  facet normal 0.221816 -0.761175 -0.609435
    outer loop
      vertex 62.35 -116.212 0.793783
      vertex 62.1216 -116.212 0.710635
      vertex 62.5362 -115.9 0.471221
    endloop
  endfacet
  facet normal 0.416874 -0.761176 -0.496818
    outer loop
      vertex 62.5362 -116.212 0.950049
      vertex 62.35 -116.212 0.793783
      vertex 62.5362 -115.9 0.471221
    endloop
  endfacet
  facet normal 0.704519 -0.698727 -0.124235
    outer loop
      vertex 63.0725 -115.9 1.4
      vertex 63.0078 -115.9 1.0332
      vertex 65.9 -112.8 7.62939e-07
    endloop
  endfacet
  facet normal 0.638695 -0.761173 -0.112627
    outer loop
      vertex 63.0725 -115.9 1.4
      vertex 62.6578 -116.212 1.16059
      vertex 63.0078 -115.9 1.0332
    endloop
  endfacet
  facet normal 0.341404 -0.937987 -0.0601931
    outer loop
      vertex 62.2431 -116.379 1.4
      vertex 62.2284 -116.379 1.31685
      vertex 62.7 -116.212 1.4
    endloop
  endfacet
  facet normal 0.638694 -0.761174 -0.112625
    outer loop
      vertex 62.7 -116.212 1.4
      vertex 62.6578 -116.212 1.16059
      vertex 63.0725 -115.9 1.4
    endloop
  endfacet
  facet normal 0.561662 -0.761173 0.32427
    outer loop
      vertex 63.0078 -115.9 1.7668
      vertex 62.5362 -116.212 1.84995
      vertex 62.6578 -116.212 1.63941
    endloop
  endfacet
  facet normal 0.561662 -0.761172 0.324274
    outer loop
      vertex 62.8216 -115.9 2.08937
      vertex 62.5362 -116.212 1.84995
      vertex 63.0078 -115.9 1.7668
    endloop
  endfacet
  facet normal 0.222834 -0.937987 0.265566
    outer loop
      vertex 62.35 -116.212 2.00622
      vertex 62.1862 -116.379 1.55627
      vertex 62.5362 -116.212 1.84995
    endloop
  endfacet
  facet normal 0.11857 -0.937987 0.325763
    outer loop
      vertex 62.35 -116.212 2.00622
      vertex 62.0422 -116.379 1.63941
      vertex 62.1216 -116.379 1.61054
    endloop
  endfacet
  facet normal -0.56166 -0.761173 0.324274
    outer loop
      vertex -2.03623 -116.212 1.84995
      vertex -2.50778 -115.9 1.7668
      vertex -2.15778 -116.212 1.63941
    endloop
  endfacet
  facet normal -0.341405 -0.937987 0.0601991
    outer loop
      vertex -2.15778 -116.212 1.63941
      vertex -2.2 -116.212 1.4
      vertex -1.72845 -116.379 1.48315
    endloop
  endfacet
  facet normal -0.221815 -0.761174 0.609436
    outer loop
      vertex -1.68623 -115.9 2.45617
      vertex -1.85 -116.212 2.00622
      vertex -1.62155 -116.212 2.08937
    endloop
  endfacet
  facet normal -0.118568 -0.937987 0.325765
    outer loop
      vertex -1.62155 -116.212 2.08937
      vertex -1.85 -116.212 2.00622
      vertex -1.54221 -116.379 1.63941
    endloop
  endfacet
  facet normal -0.300225 -0.937987 -0.173337
    outer loop
      vertex -1.72845 -116.379 1.31685
      vertex -2.03623 -116.212 0.950049
      vertex -1.68623 -116.379 1.24373
    endloop
  endfacet
  facet normal -0.300226 -0.937987 -0.173336
    outer loop
      vertex -1.72845 -116.379 1.31685
      vertex -2.15778 -116.212 1.16059
      vertex -2.03623 -116.212 0.950049
    endloop
  endfacet
  facet normal -0.118569 -0.937987 -0.325764
    outer loop
      vertex -1.62155 -116.379 1.18946
      vertex -1.85 -116.212 0.793783
      vertex -1.54221 -116.379 1.16059
    endloop
  endfacet
  facet normal 0.341405 -0.937986 -0.0602019
    outer loop
      vertex 62.7 -116.212 1.4
      vertex 62.2284 -116.379 1.31685
      vertex 62.6578 -116.212 1.16059
    endloop
  endfacet
  facet normal 0.300228 -0.937986 -0.173334
    outer loop
      vertex 62.6578 -116.212 1.16059
      vertex 62.2284 -116.379 1.31685
      vertex 62.5362 -116.212 0.950049
    endloop
  endfacet
  facet normal 0.222834 -0.937987 0.265566
    outer loop
      vertex 62.35 -116.212 2.00622
      vertex 62.1216 -116.379 1.61054
      vertex 62.1862 -116.379 1.55627
    endloop
  endfacet
  facet normal -0.341404 -0.937987 -0.0601972
    outer loop
      vertex -1.74311 -116.379 1.4
      vertex -2.2 -116.212 1.4
      vertex -1.72845 -116.379 1.31685
    endloop
  endfacet
  facet normal -0.416879 -0.761173 0.496817
    outer loop
      vertex -2.03623 -115.9 2.32878
      vertex -2.03623 -116.212 1.84995
      vertex -1.85 -116.212 2.00622
    endloop
  endfacet
  facet normal -0.416879 -0.761173 0.496817
    outer loop
      vertex -2.03623 -115.9 2.32878
      vertex -2.32155 -115.9 2.08937
      vertex -2.03623 -116.212 1.84995
    endloop
  endfacet
  facet normal -0.222836 -0.937987 0.265565
    outer loop
      vertex -1.62155 -116.379 1.61054
      vertex -1.85 -116.212 2.00622
      vertex -1.68623 -116.379 1.55627
    endloop
  endfacet
  facet normal 0 -0.937987 0.346671
    outer loop
      vertex -1.54221 -116.379 1.63941
      vertex 62.1216 -116.212 2.08937
      vertex -1.62155 -116.212 2.08937
    endloop
  endfacet
  facet normal 0 -0.937987 0.346671
    outer loop
      vertex 62.1216 -116.212 2.08937
      vertex -1.54221 -116.379 1.63941
      vertex 62.0422 -116.379 1.63941
    endloop
  endfacet
  facet normal 0 -0.761174 0.648548
    outer loop
      vertex -1.62155 -116.212 2.08937
      vertex 62.1862 -115.9 2.45617
      vertex -1.68623 -115.9 2.45617
    endloop
  endfacet
  facet normal 0 -0.761174 0.648548
    outer loop
      vertex 62.1862 -115.9 2.45617
      vertex -1.62155 -116.212 2.08937
      vertex 62.1216 -116.212 2.08937
    endloop
  endfacet
  facet normal 0 -1 0
    outer loop
      vertex -1.54221 -116.379 1.16059
      vertex -1.54221 -116.379 1.63941
      vertex -1.62155 -116.379 1.61054
    endloop
  endfacet
  facet normal 0 -1 0
    outer loop
      vertex -1.54221 -116.379 1.63941
      vertex -1.54221 -116.379 1.16059
      vertex 62.0422 -116.379 1.63941
    endloop
  endfacet
  facet normal 0 -1 0
    outer loop
      vertex -1.54221 -116.379 1.16059
      vertex -1.62155 -116.379 1.61054
      vertex -1.68623 -116.379 1.55627
    endloop
  endfacet
  facet normal 0 -1 0
    outer loop
      vertex 62.0422 -116.379 1.16059
      vertex 62.0422 -116.379 1.63941
      vertex -1.54221 -116.379 1.16059
    endloop
  endfacet
  facet normal 0 -1 0
    outer loop
      vertex -1.54221 -116.379 1.16059
      vertex -1.68623 -116.379 1.55627
      vertex -1.72845 -116.379 1.48315
    endloop
  endfacet
  facet normal 0 -1 0
    outer loop
      vertex 62.0422 -116.379 1.63941
      vertex 62.0422 -116.379 1.16059
      vertex 62.1216 -116.379 1.61054
    endloop
  endfacet
  facet normal 0 -1 0
    outer loop
      vertex -1.54221 -116.379 1.16059
      vertex -1.72845 -116.379 1.48315
      vertex -1.74311 -116.379 1.4
    endloop
  endfacet
  facet normal 0 -1 -0
    outer loop
      vertex 62.1216 -116.379 1.61054
      vertex 62.0422 -116.379 1.16059
      vertex 62.1862 -116.379 1.55627
    endloop
  endfacet
  facet normal 0 -1 0
    outer loop
      vertex -1.54221 -116.379 1.16059
      vertex -1.74311 -116.379 1.4
      vertex -1.72845 -116.379 1.31685
    endloop
  endfacet
  facet normal 0 -1 -0
    outer loop
      vertex 62.1862 -116.379 1.55627
      vertex 62.0422 -116.379 1.16059
      vertex 62.2284 -116.379 1.48315
    endloop
  endfacet
  facet normal 0 -1 0
    outer loop
      vertex -1.54221 -116.379 1.16059
      vertex -1.72845 -116.379 1.31685
      vertex -1.68623 -116.379 1.24373
    endloop
  endfacet
  facet normal 0 -1 -0
    outer loop
      vertex 62.2284 -116.379 1.48315
      vertex 62.0422 -116.379 1.16059
      vertex 62.2431 -116.379 1.4
    endloop
  endfacet
  facet normal 0 -1 0
    outer loop
      vertex -1.54221 -116.379 1.16059
      vertex -1.68623 -116.379 1.24373
      vertex -1.62155 -116.379 1.18946
    endloop
  endfacet
  facet normal 0 -1 0
    outer loop
      vertex 62.2431 -116.379 1.4
      vertex 62.0422 -116.379 1.16059
      vertex 62.2284 -116.379 1.31685
    endloop
  endfacet
  facet normal 0 -1 0
    outer loop
      vertex 62.2284 -116.379 1.31685
      vertex 62.0422 -116.379 1.16059
      vertex 62.1862 -116.379 1.24373
    endloop
  endfacet
  facet normal 0 -1 0
    outer loop
      vertex 62.1862 -116.379 1.24373
      vertex 62.0422 -116.379 1.16059
      vertex 62.1216 -116.379 1.18946
    endloop
  endfacet
  facet normal -0.341404 -0.937987 0.0601972
    outer loop
      vertex -1.72845 -116.379 1.48315
      vertex -2.2 -116.212 1.4
      vertex -1.74311 -116.379 1.4
    endloop
  endfacet
  facet normal -0.222836 -0.937987 0.265565
    outer loop
      vertex -1.85 -116.212 2.00622
      vertex -2.03623 -116.212 1.84995
      vertex -1.68623 -116.379 1.55627
    endloop
  endfacet
  facet normal -0.300225 -0.937987 0.173337
    outer loop
      vertex -1.68623 -116.379 1.55627
      vertex -2.03623 -116.212 1.84995
      vertex -1.72845 -116.379 1.48315
    endloop
  endfacet
endsolid OpenSCAD_Model
