solid Untitled-5f517e41
facet normal -2.4572936278368e-014 1.0 -5.55111512312578e-016
  outer loop
    vertex 30.4332175974494 -37.9454833333326 -1.43853540190975e-012
    vertex 22.8441209307829 -37.9454833333328 2.04321833333226
    vertex 30.4332175974495 -37.9454833333326 2.0432183333319
  endloop
endfacet
facet normal -2.4572936278368e-014 1.0 -5.55111512312578e-016
  outer loop
    vertex 22.8441209307829 -37.9454833333328 2.04321833333226
    vertex 30.4332175974494 -37.9454833333326 -1.43853540190975e-012
    vertex 22.8441209307828 -37.9454833333328 -1.0754647172817e-012
  endloop
endfacet
facet normal -1.0 -2.4572936278368e-014 4.78321086442755e-014
  outer loop
    vertex 22.8441209307827 -29.7726099999994 2.04321833333227
    vertex 22.8441209307827 -36.7779299999994 -1.05924991000705e-012
    vertex 22.8441209307828 -36.7779299999994 2.04321833333227
  endloop
endfacet
facet normal -1.0 -2.4572936278368e-014 4.78321086442755e-014
  outer loop
    vertex 22.8441209307827 -36.7779299999994 -1.05924991000705e-012
    vertex 22.8441209307827 -29.7726099999994 2.04321833333227
    vertex 22.8441209307826 -29.7726099999995 -1.06312736392056e-012
  endloop
endfacet
facet normal 1.0 2.4572936278368e-014 -4.78321086442755e-014
  outer loop
    vertex 30.4332175974494 -37.9454833333326 -1.43853540190975e-012
    vertex 30.4332175974497 -44.9508033333326 2.0432183333319
    vertex 30.4332175974496 -44.9508033333326 -1.43465794799624e-012
  endloop
endfacet
facet normal 1.0 2.4572936278368e-014 -4.78321086442755e-014
  outer loop
    vertex 30.4332175974497 -44.9508033333326 2.0432183333319
    vertex 30.4332175974494 -37.9454833333326 -1.43853540190975e-012
    vertex 30.4332175974495 -37.9454833333326 2.0432183333319
  endloop
endfacet
facet normal 4.78321086442755e-014 6.10622663543836e-016 1.0
  outer loop
    vertex 22.8441209307827 -29.7726099999994 2.04321833333227
    vertex 30.4332175974495 -36.7779299999992 2.04321833333191
    vertex 30.4332175974493 -29.7726099999993 2.04321833333191
  endloop
endfacet
facet normal 4.78321086442755e-014 6.10622663543836e-016 1.0
  outer loop
    vertex 30.4332175974495 -36.7779299999992 2.04321833333191
    vertex 22.8441209307827 -29.7726099999994 2.04321833333227
    vertex 22.8441209307828 -36.7779299999994 2.04321833333227
  endloop
endfacet
facet normal 1.0 2.4572936278368e-014 -4.78321086442755e-014
  outer loop
    vertex 30.4332175974492 -29.7726099999993 -1.4261980485486e-012
    vertex 30.4332175974495 -36.7779299999992 2.04321833333191
    vertex 30.4332175974494 -36.7779299999992 -1.4223205946351e-012
  endloop
endfacet
facet normal 1.0 2.4572936278368e-014 -4.78321086442755e-014
  outer loop
    vertex 30.4332175974495 -36.7779299999992 2.04321833333191
    vertex 30.4332175974492 -29.7726099999993 -1.4261980485486e-012
    vertex 30.4332175974493 -29.7726099999993 2.04321833333191
  endloop
endfacet
facet normal 2.4572936278368e-014 -1.0 5.55111512312578e-016
  outer loop
    vertex 22.8441209307829 -44.9508033333328 -1.0715872633682e-012
    vertex 30.4332175974497 -44.9508033333326 2.0432183333319
    vertex 22.844120930783 -44.9508033333328 2.04321833333226
  endloop
endfacet
facet normal 2.4572936278368e-014 -1.0 5.55111512312578e-016
  outer loop
    vertex 30.4332175974497 -44.9508033333326 2.0432183333319
    vertex 22.8441209307829 -44.9508033333328 -1.0715872633682e-012
    vertex 30.4332175974496 -44.9508033333326 -1.43465794799624e-012
  endloop
endfacet
facet normal 2.4572936278368e-014 -1.0 5.55111512312578e-016
  outer loop
    vertex 22.8441209307827 -36.7779299999994 -1.05924991000705e-012
    vertex 30.4332175974495 -36.7779299999992 2.04321833333191
    vertex 22.8441209307828 -36.7779299999994 2.04321833333227
  endloop
endfacet
facet normal 2.4572936278368e-014 -1.0 5.55111512312578e-016
  outer loop
    vertex 30.4332175974495 -36.7779299999992 2.04321833333191
    vertex 22.8441209307827 -36.7779299999994 -1.05924991000705e-012
    vertex 30.4332175974494 -36.7779299999992 -1.4223205946351e-012
  endloop
endfacet
facet normal -1.0 -2.4572936278368e-014 4.78321086442755e-014
  outer loop
    vertex 22.8441209307829 -37.9454833333328 2.04321833333226
    vertex 22.8441209307829 -44.9508033333328 -1.0715872633682e-012
    vertex 22.844120930783 -44.9508033333328 2.04321833333226
  endloop
endfacet
facet normal -1.0 -2.4572936278368e-014 4.78321086442755e-014
  outer loop
    vertex 22.8441209307829 -44.9508033333328 -1.0715872633682e-012
    vertex 22.8441209307829 -37.9454833333328 2.04321833333226
    vertex 22.8441209307828 -37.9454833333328 -1.0754647172817e-012
  endloop
endfacet
facet normal -4.78321086442755e-014 -6.10622663543836e-016 -1.0
  outer loop
    vertex 22.8441209307829 -44.9508033333328 -1.0715872633682e-012
    vertex 30.4332175974494 -37.9454833333326 -1.43853540190975e-012
    vertex 30.4332175974496 -44.9508033333326 -1.43465794799624e-012
  endloop
endfacet
facet normal -4.78321086442755e-014 -6.10622663543836e-016 -1.0
  outer loop
    vertex 30.4332175974494 -37.9454833333326 -1.43853540190975e-012
    vertex 22.8441209307829 -44.9508033333328 -1.0715872633682e-012
    vertex 22.8441209307828 -37.9454833333328 -1.0754647172817e-012
  endloop
endfacet
facet normal -2.4572936278368e-014 1.0 -5.55111512312578e-016
  outer loop
    vertex 30.4332175974492 -29.7726099999993 -1.4261980485486e-012
    vertex 22.8441209307827 -29.7726099999994 2.04321833333227
    vertex 30.4332175974493 -29.7726099999993 2.04321833333191
  endloop
endfacet
facet normal -2.4572936278368e-014 1.0 -5.55111512312578e-016
  outer loop
    vertex 22.8441209307827 -29.7726099999994 2.04321833333227
    vertex 30.4332175974492 -29.7726099999993 -1.4261980485486e-012
    vertex 22.8441209307826 -29.7726099999995 -1.06312736392056e-012
  endloop
endfacet
facet normal 4.78321086442755e-014 6.10622663543836e-016 1.0
  outer loop
    vertex 22.8441209307829 -37.9454833333328 2.04321833333226
    vertex 30.4332175974497 -44.9508033333326 2.0432183333319
    vertex 30.4332175974495 -37.9454833333326 2.0432183333319
  endloop
endfacet
facet normal 4.78321086442755e-014 6.10622663543836e-016 1.0
  outer loop
    vertex 30.4332175974497 -44.9508033333326 2.0432183333319
    vertex 22.8441209307829 -37.9454833333328 2.04321833333226
    vertex 22.844120930783 -44.9508033333328 2.04321833333226
  endloop
endfacet
facet normal -4.78321086442755e-014 -6.10622663543836e-016 -1.0
  outer loop
    vertex 22.8441209307827 -36.7779299999994 -1.05924991000705e-012
    vertex 30.4332175974492 -29.7726099999993 -1.4261980485486e-012
    vertex 30.4332175974494 -36.7779299999992 -1.4223205946351e-012
  endloop
endfacet
facet normal -4.78321086442755e-014 -6.10622663543836e-016 -1.0
  outer loop
    vertex 30.4332175974492 -29.7726099999993 -1.4261980485486e-012
    vertex 22.8441209307827 -36.7779299999994 -1.05924991000705e-012
    vertex 22.8441209307826 -29.7726099999995 -1.06312736392056e-012
  endloop
endfacet
facet normal -2.4572936278368e-014 1.0 -5.55111512312578e-016
  outer loop
    vertex 2.41193759744942 -37.9454833333333 -9.83463310788579e-014
    vertex -5.17715906921715 -37.9454833333335 2.0432183333336
    vertex 2.41193759744952 -37.9454833333333 2.04321833333324
  endloop
endfacet
facet normal -2.4572936278368e-014 1.0 -5.55111512312578e-016
  outer loop
    vertex -5.17715906921715 -37.9454833333335 2.0432183333336
    vertex 2.41193759744942 -37.9454833333333 -9.83463310788579e-014
    vertex -5.17715906921724 -37.9454833333335 2.64724353549184e-013
  endloop
endfacet
facet normal -1.0 -2.4572936278368e-014 4.78321086442755e-014
  outer loop
    vertex -5.17715906921735 -29.7726100000001 2.04321833333361
    vertex -5.17715906921727 -36.7779300000001 2.80939160823834e-013
    vertex -5.17715906921718 -36.7779300000001 2.04321833333361
  endloop
endfacet
facet normal -1.0 -2.4572936278368e-014 4.78321086442755e-014
  outer loop
    vertex -5.17715906921727 -36.7779300000001 2.80939160823834e-013
    vertex -5.17715906921735 -29.7726100000001 2.04321833333361
    vertex -5.17715906921744 -29.7726100000001 2.77061706910331e-013
  endloop
endfacet
facet normal 1.0 2.4572936278368e-014 -4.78321086442755e-014
  outer loop
    vertex 2.41193759744942 -37.9454833333333 -9.83463310788579e-014
    vertex 2.4119375974497 -44.9508033333333 2.04321833333324
    vertex 2.4119375974496 -44.9508033333333 -9.44688771653546e-014
  endloop
endfacet
facet normal 1.0 2.4572936278368e-014 -4.78321086442755e-014
  outer loop
    vertex 2.4119375974497 -44.9508033333333 2.04321833333324
    vertex 2.41193759744942 -37.9454833333333 -9.83463310788579e-014
    vertex 2.41193759744952 -37.9454833333333 2.04321833333324
  endloop
endfacet
facet normal 4.78321086442755e-014 6.10622663543836e-016 1.0
  outer loop
    vertex -5.17715906921735 -29.7726100000001 2.04321833333361
    vertex 2.41193759744949 -36.7779299999999 2.04321833333325
    vertex 2.41193759744932 -29.7726099999999 2.04321833333325
  endloop
endfacet
facet normal 4.78321086442755e-014 6.10622663543836e-016 1.0
  outer loop
    vertex 2.41193759744949 -36.7779299999999 2.04321833333325
    vertex -5.17715906921735 -29.7726100000001 2.04321833333361
    vertex -5.17715906921718 -36.7779300000001 2.04321833333361
  endloop
endfacet
facet normal 1.0 2.4572936278368e-014 -4.78321086442755e-014
  outer loop
    vertex 2.41193759744923 -29.7726099999999 -8.60089777177109e-014
    vertex 2.41193759744949 -36.7779299999999 2.04321833333325
    vertex 2.4119375974494 -36.7779299999999 -8.21315238042075e-014
  endloop
endfacet
facet normal 1.0 2.4572936278368e-014 -4.78321086442755e-014
  outer loop
    vertex 2.41193759744949 -36.7779299999999 2.04321833333325
    vertex 2.41193759744923 -29.7726099999999 -8.60089777177109e-014
    vertex 2.41193759744932 -29.7726099999999 2.04321833333325
  endloop
endfacet
facet normal 4.78321086442755e-014 6.10622663543836e-016 1.0
  outer loop
    vertex -5.17715906921715 -37.9454833333335 2.0432183333336
    vertex 2.4119375974497 -44.9508033333333 2.04321833333324
    vertex 2.41193759744952 -37.9454833333333 2.04321833333324
  endloop
endfacet
facet normal 4.78321086442755e-014 6.10622663543836e-016 1.0
  outer loop
    vertex 2.4119375974497 -44.9508033333333 2.04321833333324
    vertex -5.17715906921715 -37.9454833333335 2.0432183333336
    vertex -5.17715906921697 -44.9508033333334 2.0432183333336
  endloop
endfacet
facet normal 2.4572936278368e-014 -1.0 5.55111512312578e-016
  outer loop
    vertex -5.17715906921707 -44.9508033333334 2.68601807462687e-013
    vertex 2.4119375974497 -44.9508033333333 2.04321833333324
    vertex -5.17715906921697 -44.9508033333334 2.0432183333336
  endloop
endfacet
facet normal 2.4572936278368e-014 -1.0 5.55111512312578e-016
  outer loop
    vertex 2.4119375974497 -44.9508033333333 2.04321833333324
    vertex -5.17715906921707 -44.9508033333334 2.68601807462687e-013
    vertex 2.4119375974496 -44.9508033333333 -9.44688771653546e-014
  endloop
endfacet
facet normal -4.78321086442755e-014 -6.10622663543836e-016 -1.0
  outer loop
    vertex -5.17715906921707 -44.9508033333334 2.68601807462687e-013
    vertex 2.41193759744942 -37.9454833333333 -9.83463310788579e-014
    vertex 2.4119375974496 -44.9508033333333 -9.44688771653546e-014
  endloop
endfacet
facet normal -4.78321086442755e-014 -6.10622663543836e-016 -1.0
  outer loop
    vertex 2.41193759744942 -37.9454833333333 -9.83463310788579e-014
    vertex -5.17715906921707 -44.9508033333334 2.68601807462687e-013
    vertex -5.17715906921724 -37.9454833333335 2.64724353549184e-013
  endloop
endfacet
facet normal 2.4572936278368e-014 -1.0 5.55111512312578e-016
  outer loop
    vertex -5.17715906921727 -36.7779300000001 2.80939160823834e-013
    vertex 2.41193759744949 -36.7779299999999 2.04321833333325
    vertex -5.17715906921718 -36.7779300000001 2.04321833333361
  endloop
endfacet
facet normal 2.4572936278368e-014 -1.0 5.55111512312578e-016
  outer loop
    vertex 2.41193759744949 -36.7779299999999 2.04321833333325
    vertex -5.17715906921727 -36.7779300000001 2.80939160823834e-013
    vertex 2.4119375974494 -36.7779299999999 -8.21315238042075e-014
  endloop
endfacet
facet normal -4.78321086442755e-014 -6.10622663543836e-016 -1.0
  outer loop
    vertex -5.17715906921727 -36.7779300000001 2.80939160823834e-013
    vertex 2.41193759744923 -29.7726099999999 -8.60089777177109e-014
    vertex 2.4119375974494 -36.7779299999999 -8.21315238042075e-014
  endloop
endfacet
facet normal -4.78321086442755e-014 -6.10622663543836e-016 -1.0
  outer loop
    vertex 2.41193759744923 -29.7726099999999 -8.60089777177109e-014
    vertex -5.17715906921727 -36.7779300000001 2.80939160823834e-013
    vertex -5.17715906921744 -29.7726100000001 2.77061706910331e-013
  endloop
endfacet
facet normal -2.4572936278368e-014 1.0 -5.55111512312578e-016
  outer loop
    vertex 2.41193759744923 -29.7726099999999 -8.60089777177109e-014
    vertex -5.17715906921735 -29.7726100000001 2.04321833333361
    vertex 2.41193759744932 -29.7726099999999 2.04321833333325
  endloop
endfacet
facet normal -2.4572936278368e-014 1.0 -5.55111512312578e-016
  outer loop
    vertex -5.17715906921735 -29.7726100000001 2.04321833333361
    vertex 2.41193759744923 -29.7726099999999 -8.60089777177109e-014
    vertex -5.17715906921744 -29.7726100000001 2.77061706910331e-013
  endloop
endfacet
facet normal -1.0 -2.4572936278368e-014 4.78321086442755e-014
  outer loop
    vertex -5.17715906921715 -37.9454833333335 2.0432183333336
    vertex -5.17715906921707 -44.9508033333334 2.68601807462687e-013
    vertex -5.17715906921697 -44.9508033333334 2.0432183333336
  endloop
endfacet
facet normal -1.0 -2.4572936278368e-014 4.78321086442755e-014
  outer loop
    vertex -5.17715906921707 -44.9508033333334 2.68601807462687e-013
    vertex -5.17715906921715 -37.9454833333335 2.0432183333336
    vertex -5.17715906921724 -37.9454833333335 2.64724353549184e-013
  endloop
endfacet
facet normal -4.78321086442755e-014 -6.10622663543836e-016 -1.0
  outer loop
    vertex -33.1984390692173 -36.7779300000008 1.62148072746504e-012
    vertex -25.6093424025508 -29.7726100000006 1.2545325889235e-012
    vertex -25.6093424025506 -36.7779300000006 1.258410042837e-012
  endloop
endfacet
facet normal -4.78321086442755e-014 -6.10622663543836e-016 -1.0
  outer loop
    vertex -25.6093424025508 -29.7726100000006 1.2545325889235e-012
    vertex -33.1984390692173 -36.7779300000008 1.62148072746504e-012
    vertex -33.1984390692174 -29.7726100000008 1.61760327355154e-012
  endloop
endfacet
facet normal 4.78321086442755e-014 6.10622663543836e-016 1.0
  outer loop
    vertex -33.1984390692173 -29.7726100000008 2.04321833333495
    vertex -25.6093424025505 -36.7779300000006 2.04321833333459
    vertex -25.6093424025507 -29.7726100000006 2.04321833333459
  endloop
endfacet
facet normal 4.78321086442755e-014 6.10622663543836e-016 1.0
  outer loop
    vertex -25.6093424025505 -36.7779300000006 2.04321833333459
    vertex -33.1984390692173 -29.7726100000008 2.04321833333495
    vertex -33.1984390692172 -36.7779300000008 2.04321833333496
  endloop
endfacet
facet normal 1.0 2.4572936278368e-014 -4.78321086442755e-014
  outer loop
    vertex -25.6093424025506 -37.945483333334 1.24219523556235e-012
    vertex -25.6093424025503 -44.950803333334 2.04321833333458
    vertex -25.6093424025504 -44.950803333334 1.24607268947585e-012
  endloop
endfacet
facet normal 1.0 2.4572936278368e-014 -4.78321086442755e-014
  outer loop
    vertex -25.6093424025503 -44.950803333334 2.04321833333458
    vertex -25.6093424025506 -37.945483333334 1.24219523556235e-012
    vertex -25.6093424025505 -37.945483333334 2.04321833333458
  endloop
endfacet
facet normal 1.0 2.4572936278368e-014 -4.78321086442755e-014
  outer loop
    vertex -25.6093424025508 -29.7726100000006 1.2545325889235e-012
    vertex -25.6093424025505 -36.7779300000006 2.04321833333459
    vertex -25.6093424025506 -36.7779300000006 1.258410042837e-012
  endloop
endfacet
facet normal 1.0 2.4572936278368e-014 -4.78321086442755e-014
  outer loop
    vertex -25.6093424025505 -36.7779300000006 2.04321833333459
    vertex -25.6093424025508 -29.7726100000006 1.2545325889235e-012
    vertex -25.6093424025507 -29.7726100000006 2.04321833333459
  endloop
endfacet
facet normal 2.4572936278368e-014 -1.0 5.55111512312578e-016
  outer loop
    vertex -33.1984390692171 -44.9508033333341 1.60914337410389e-012
    vertex -25.6093424025503 -44.950803333334 2.04321833333458
    vertex -33.198439069217 -44.9508033333341 2.04321833333494
  endloop
endfacet
facet normal 2.4572936278368e-014 -1.0 5.55111512312578e-016
  outer loop
    vertex -25.6093424025503 -44.950803333334 2.04321833333458
    vertex -33.1984390692171 -44.9508033333341 1.60914337410389e-012
    vertex -25.6093424025504 -44.950803333334 1.24607268947585e-012
  endloop
endfacet
facet normal -2.4572936278368e-014 1.0 -5.55111512312578e-016
  outer loop
    vertex -25.6093424025508 -29.7726100000006 1.2545325889235e-012
    vertex -33.1984390692173 -29.7726100000008 2.04321833333495
    vertex -25.6093424025507 -29.7726100000006 2.04321833333459
  endloop
endfacet
facet normal -2.4572936278368e-014 1.0 -5.55111512312578e-016
  outer loop
    vertex -33.1984390692173 -29.7726100000008 2.04321833333495
    vertex -25.6093424025508 -29.7726100000006 1.2545325889235e-012
    vertex -33.1984390692174 -29.7726100000008 1.61760327355154e-012
  endloop
endfacet
facet normal -1.0 -2.4572936278368e-014 4.78321086442755e-014
  outer loop
    vertex -33.1984390692173 -29.7726100000008 2.04321833333495
    vertex -33.1984390692173 -36.7779300000008 1.62148072746504e-012
    vertex -33.1984390692172 -36.7779300000008 2.04321833333496
  endloop
endfacet
facet normal -1.0 -2.4572936278368e-014 4.78321086442755e-014
  outer loop
    vertex -33.1984390692173 -36.7779300000008 1.62148072746504e-012
    vertex -33.1984390692173 -29.7726100000008 2.04321833333495
    vertex -33.1984390692174 -29.7726100000008 1.61760327355154e-012
  endloop
endfacet
facet normal 4.78321086442755e-014 6.10622663543836e-016 1.0
  outer loop
    vertex -33.1984390692171 -37.9454833333342 2.04321833333494
    vertex -25.6093424025503 -44.950803333334 2.04321833333458
    vertex -25.6093424025505 -37.945483333334 2.04321833333458
  endloop
endfacet
facet normal 4.78321086442755e-014 6.10622663543836e-016 1.0
  outer loop
    vertex -25.6093424025503 -44.950803333334 2.04321833333458
    vertex -33.1984390692171 -37.9454833333342 2.04321833333494
    vertex -33.198439069217 -44.9508033333341 2.04321833333494
  endloop
endfacet
facet normal -1.0 -2.4572936278368e-014 4.78321086442755e-014
  outer loop
    vertex -33.1984390692171 -37.9454833333342 2.04321833333494
    vertex -33.1984390692171 -44.9508033333341 1.60914337410389e-012
    vertex -33.198439069217 -44.9508033333341 2.04321833333494
  endloop
endfacet
facet normal -1.0 -2.4572936278368e-014 4.78321086442755e-014
  outer loop
    vertex -33.1984390692171 -44.9508033333341 1.60914337410389e-012
    vertex -33.1984390692171 -37.9454833333342 2.04321833333494
    vertex -33.1984390692172 -37.9454833333342 1.60526592019039e-012
  endloop
endfacet
facet normal -2.4572936278368e-014 1.0 -5.55111512312578e-016
  outer loop
    vertex -25.6093424025506 -37.945483333334 1.24219523556235e-012
    vertex -33.1984390692171 -37.9454833333342 2.04321833333494
    vertex -25.6093424025505 -37.945483333334 2.04321833333458
  endloop
endfacet
facet normal -2.4572936278368e-014 1.0 -5.55111512312578e-016
  outer loop
    vertex -33.1984390692171 -37.9454833333342 2.04321833333494
    vertex -25.6093424025506 -37.945483333334 1.24219523556235e-012
    vertex -33.1984390692172 -37.9454833333342 1.60526592019039e-012
  endloop
endfacet
facet normal 2.4572936278368e-014 -1.0 5.55111512312578e-016
  outer loop
    vertex -33.1984390692173 -36.7779300000008 1.62148072746504e-012
    vertex -25.6093424025505 -36.7779300000006 2.04321833333459
    vertex -33.1984390692172 -36.7779300000008 2.04321833333496
  endloop
endfacet
facet normal 2.4572936278368e-014 -1.0 5.55111512312578e-016
  outer loop
    vertex -25.6093424025505 -36.7779300000006 2.04321833333459
    vertex -33.1984390692173 -36.7779300000008 1.62148072746504e-012
    vertex -25.6093424025506 -36.7779300000006 1.258410042837e-012
  endloop
endfacet
facet normal -4.78321086442755e-014 -6.10622663543836e-016 -1.0
  outer loop
    vertex -33.1984390692171 -44.9508033333341 1.60914337410389e-012
    vertex -25.6093424025506 -37.945483333334 1.24219523556235e-012
    vertex -25.6093424025504 -44.950803333334 1.24607268947585e-012
  endloop
endfacet
facet normal -4.78321086442755e-014 -6.10622663543836e-016 -1.0
  outer loop
    vertex -25.6093424025506 -37.945483333334 1.24219523556235e-012
    vertex -33.1984390692171 -44.9508033333341 1.60914337410389e-012
    vertex -33.1984390692172 -37.9454833333342 1.60526592019039e-012
  endloop
endfacet
facet normal -2.4572936278368e-014 1.0 -5.55111512312578e-016
  outer loop
    vertex 19.5565183333336 -9.92420333333284 1.45944166666574
    vertex 12.5511983333336 -9.92420333333301 -5.88491755326714e-013
    vertex 12.5511983333336 -9.92420333333301 1.45944166666608
  endloop
endfacet
facet normal -2.4572936278368e-014 1.0 -5.55111512312578e-016
  outer loop
    vertex 12.5511983333336 -9.92420333333301 -5.88491755326714e-013
    vertex 19.5565183333336 -9.92420333333284 1.45944166666574
    vertex 19.5565183333336 -9.92420333333284 -9.22481535603481e-013
  endloop
endfacet
facet normal -1.0 -2.4572936278368e-014 4.76655751905818e-014
  outer loop
    vertex 12.5511983333336 -9.92420333333301 -5.88491755326714e-013
    vertex 12.551198333334 -22.7672899999997 1.45944166666609
    vertex 12.5511983333336 -9.92420333333301 1.45944166666608
  endloop
endfacet
facet normal -1.0 -2.4572936278368e-014 4.76655751905818e-014
  outer loop
    vertex 12.551198333334 -22.7672899999997 1.45944166666609
    vertex 12.5511983333336 -9.92420333333301 -5.88491755326714e-013
    vertex 12.5511983333339 -22.7672899999997 -5.81265591215185e-013
  endloop
endfacet
facet normal 2.47209660149847e-014 -1.0 5.55111512312571e-016
  outer loop
    vertex 19.5565183333339 -22.7672899999995 -9.15255371491952e-013
    vertex 12.551198333334 -22.7672899999997 1.45944166666609
    vertex 12.5511983333339 -22.7672899999997 -5.81265591215185e-013
  endloop
endfacet
facet normal 2.47209660149847e-014 -1.0 5.55111512312571e-016
  outer loop
    vertex 12.551198333334 -22.7672899999997 1.45944166666609
    vertex 19.5565183333339 -22.7672899999995 -9.15255371491952e-013
    vertex 19.5565183333339 -22.7672899999995 1.45944166666575
  endloop
endfacet
facet normal 4.76655751905817e-014 5.55111512312578e-016 1.0
  outer loop
    vertex 19.5565183333339 -22.7672899999995 1.45944166666575
    vertex 12.5511983333336 -9.92420333333301 1.45944166666608
    vertex 12.551198333334 -22.7672899999997 1.45944166666609
  endloop
endfacet
facet normal 4.76655751905817e-014 5.55111512312578e-016 1.0
  outer loop
    vertex 12.5511983333336 -9.92420333333301 1.45944166666608
    vertex 19.5565183333339 -22.7672899999995 1.45944166666575
    vertex 19.5565183333336 -9.92420333333284 1.45944166666574
  endloop
endfacet
facet normal 1.0 2.4572936278368e-014 -4.76655751905818e-014
  outer loop
    vertex 19.5565183333339 -22.7672899999995 -9.15255371491952e-013
    vertex 19.5565183333336 -9.92420333333284 1.45944166666574
    vertex 19.5565183333339 -22.7672899999995 1.45944166666575
  endloop
endfacet
facet normal 1.0 2.4572936278368e-014 -4.76655751905818e-014
  outer loop
    vertex 19.5565183333336 -9.92420333333284 1.45944166666574
    vertex 19.5565183333339 -22.7672899999995 -9.15255371491952e-013
    vertex 19.5565183333336 -9.92420333333284 -9.22481535603481e-013
  endloop
endfacet
facet normal 4.76655751905817e-014 5.55111512312578e-016 1.0
  outer loop
    vertex 8.17287333333351 -4.67021333333312 1.45944166666628
    vertex 0.4378325000007 -25.6861733333333 1.45944166666666
    vertex 8.17287333333403 -25.6861733333331 1.45944166666629
  endloop
endfacet
facet normal 4.76655751905817e-014 5.55111512312578e-016 1.0
  outer loop
    vertex 0.4378325000007 -25.6861733333333 1.45944166666666
    vertex 8.17287333333351 -4.67021333333312 1.45944166666628
    vertex 0.437832500000184 -4.67021333333331 1.45944166666665
  endloop
endfacet
facet normal 4.76655751905817e-014 5.55111512312578e-016 1.0
  outer loop
    vertex 8.4647616666666 4.67021333333355 1.45944166666624
    vertex -8.46476166666659 -1.97397653778353e-013 1.45944166666705
    vertex 8.46476166666671 2.19957385638736e-013 1.45944166666624
  endloop
endfacet
facet normal 4.76655751905817e-014 5.55111512312578e-016 1.0
  outer loop
    vertex -8.46476166666659 -1.97397653778353e-013 1.45944166666705
    vertex 8.4647616666666 4.67021333333355 1.45944166666624
    vertex -8.46476166666671 4.67021333333313 1.45944166666705
  endloop
endfacet
facet normal 2.4572936278368e-014 -1.0 5.55111512312578e-016
  outer loop
    vertex 8.46476166666664 2.19957385638736e-013 -3.97086530323776e-013
    vertex -8.46476166666659 -1.97397653778353e-013 1.45944166666705
    vertex -8.46476166666666 -1.97397653778353e-013 4.09776379495241e-013
  endloop
endfacet
facet normal 2.4572936278368e-014 -1.0 5.55111512312578e-016
  outer loop
    vertex -8.46476166666659 -1.97397653778353e-013 1.45944166666705
    vertex 8.46476166666664 2.19957385638736e-013 -3.97086530323776e-013
    vertex 8.46476166666671 2.19957385638736e-013 1.45944166666624
  endloop
endfacet
facet normal 1.0 2.4572936278368e-014 -4.76655751905818e-014
  outer loop
    vertex 8.17287333333396 -25.6861733333331 -3.77346764945941e-013
    vertex 8.17287333333351 -4.67021333333312 1.45944166666628
    vertex 8.17287333333403 -25.6861733333331 1.45944166666629
  endloop
endfacet
facet normal 1.0 2.4572936278368e-014 -4.76655751905818e-014
  outer loop
    vertex 8.17287333333351 -4.67021333333312 1.45944166666628
    vertex 8.17287333333396 -25.6861733333331 -3.77346764945941e-013
    vertex 8.17287333333344 -4.67021333333312 -3.88979126686451e-013
  endloop
endfacet
facet normal 1.0 2.4572936278368e-014 -4.76655751905818e-014
  outer loop
    vertex 19.5565183333334 -5.25398999999951 -9.31293930861443e-013
    vertex 19.5565183333333 4.67021333333382 1.45944166666573
    vertex 19.5565183333335 -5.25398999999951 1.45944166666574
  endloop
endfacet
facet normal 1.0 2.4572936278368e-014 -4.76655751905818e-014
  outer loop
    vertex 19.5565183333333 4.67021333333382 1.45944166666573
    vertex 19.5565183333334 -5.25398999999951 -9.31293930861443e-013
    vertex 19.5565183333332 4.67021333333382 -9.36933863826539e-013
  endloop
endfacet
facet normal 2.4572936278368e-014 -1.0 5.55111512312578e-016
  outer loop
    vertex 19.5565183333334 -5.25398999999951 -9.31293930861443e-013
    vertex 12.5511983333335 -5.25398999999968 1.45944166666607
    vertex 12.5511983333334 -5.25398999999968 -5.97304150584677e-013
  endloop
endfacet
facet normal 2.4572936278368e-014 -1.0 5.55111512312578e-016
  outer loop
    vertex 12.5511983333335 -5.25398999999968 1.45944166666607
    vertex 19.5565183333334 -5.25398999999951 -9.31293930861443e-013
    vertex 19.5565183333335 -5.25398999999951 1.45944166666574
  endloop
endfacet
facet normal -1.0 -2.4572936278368e-014 4.76655751905818e-014
  outer loop
    vertex -8.46476166666678 4.67021333333313 4.07132660917853e-013
    vertex -8.46476166666659 -1.97397653778353e-013 1.45944166666705
    vertex -8.46476166666671 4.67021333333313 1.45944166666705
  endloop
endfacet
facet normal -1.0 -2.4572936278368e-014 4.76655751905818e-014
  outer loop
    vertex -8.46476166666659 -1.97397653778353e-013 1.45944166666705
    vertex -8.46476166666678 4.67021333333313 4.07132660917853e-013
    vertex -8.46476166666666 -1.97397653778353e-013 4.09776379495241e-013
  endloop
endfacet
facet normal -1.0 -2.4572936278368e-014 4.76655751905818e-014
  outer loop
    vertex 12.5511983333332 4.67021333333365 -6.02944083549772e-013
    vertex 12.5511983333335 -5.25398999999968 1.45944166666607
    vertex 12.5511983333333 4.67021333333365 1.45944166666606
  endloop
endfacet
facet normal -1.0 -2.4572936278368e-014 4.76655751905818e-014
  outer loop
    vertex 12.5511983333335 -5.25398999999968 1.45944166666607
    vertex 12.5511983333332 4.67021333333365 -6.02944083549772e-013
    vertex 12.5511983333334 -5.25398999999968 -5.97304150584677e-013
  endloop
endfacet
facet normal -2.4572936278368e-014 1.0 -5.55111512312578e-016
  outer loop
    vertex 8.4647616666666 4.67021333333355 1.45944166666624
    vertex -8.46476166666678 4.67021333333313 4.07132660917853e-013
    vertex -8.46476166666671 4.67021333333313 1.45944166666705
  endloop
endfacet
facet normal -2.4572936278368e-014 1.0 -5.55111512312578e-016
  outer loop
    vertex -8.46476166666678 4.67021333333313 4.07132660917853e-013
    vertex 8.4647616666666 4.67021333333355 1.45944166666624
    vertex 8.46476166666653 4.67021333333355 -3.99730248901164e-013
  endloop
endfacet
facet normal -2.4572936278368e-014 1.0 -5.55111512312578e-016
  outer loop
    vertex 19.5565183333333 4.67021333333382 1.45944166666573
    vertex 12.5511983333332 4.67021333333365 -6.02944083549772e-013
    vertex 12.5511983333333 4.67021333333365 1.45944166666606
  endloop
endfacet
facet normal -2.4572936278368e-014 1.0 -5.55111512312578e-016
  outer loop
    vertex 12.5511983333332 4.67021333333365 -6.02944083549772e-013
    vertex 19.5565183333333 4.67021333333382 1.45944166666573
    vertex 19.5565183333332 4.67021333333382 -9.36933863826539e-013
  endloop
endfacet
facet normal 1.0 2.4572936278368e-014 -4.76655751905818e-014
  outer loop
    vertex 8.46476166666664 2.19957385638736e-013 -3.97086530323776e-013
    vertex 8.4647616666666 4.67021333333355 1.45944166666624
    vertex 8.46476166666671 2.19957385638736e-013 1.45944166666624
  endloop
endfacet
facet normal 1.0 2.4572936278368e-014 -4.76655751905818e-014
  outer loop
    vertex 8.4647616666666 4.67021333333355 1.45944166666624
    vertex 8.46476166666664 2.19957385638736e-013 -3.97086530323776e-013
    vertex 8.46476166666653 4.67021333333355 -3.99730248901164e-013
  endloop
endfacet
facet normal 4.76655751905817e-014 5.55111512312578e-016 1.0
  outer loop
    vertex 19.5565183333333 4.67021333333382 1.45944166666573
    vertex 12.5511983333335 -5.25398999999968 1.45944166666607
    vertex 19.5565183333335 -5.25398999999951 1.45944166666574
  endloop
endfacet
facet normal 4.76655751905817e-014 5.55111512312578e-016 1.0
  outer loop
    vertex 12.5511983333335 -5.25398999999968 1.45944166666607
    vertex 19.5565183333333 4.67021333333382 1.45944166666573
    vertex 12.5511983333333 4.67021333333365 1.45944166666606
  endloop
endfacet
facet normal -2.4572936278368e-014 1.0 -5.55111512312578e-016
  outer loop
    vertex 8.17287333333351 -4.67021333333312 1.45944166666628
    vertex 0.437832500000113 -4.67021333333331 -2.0268509093313e-014
    vertex 0.437832500000184 -4.67021333333331 1.45944166666665
  endloop
endfacet
facet normal -2.4572936278368e-014 1.0 -5.55111512312578e-016
  outer loop
    vertex 0.437832500000113 -4.67021333333331 -2.0268509093313e-014
    vertex 8.17287333333351 -4.67021333333312 1.45944166666628
    vertex 8.17287333333344 -4.67021333333312 -3.88979126686451e-013
  endloop
endfacet
facet normal -1.0 -2.4572936278368e-014 4.76655751905818e-014
  outer loop
    vertex 0.437832500000113 -4.67021333333331 -2.0268509093313e-014
    vertex 0.4378325000007 -25.6861733333333 1.45944166666666
    vertex 0.437832500000184 -4.67021333333331 1.45944166666665
  endloop
endfacet
facet normal -1.0 -2.4572936278368e-014 4.76655751905818e-014
  outer loop
    vertex 0.4378325000007 -25.6861733333333 1.45944166666666
    vertex 0.437832500000113 -4.67021333333331 -2.0268509093313e-014
    vertex 0.437832500000629 -25.6861733333333 -8.63614735280294e-015
  endloop
endfacet
facet normal 2.4572936278368e-014 -1.0 5.55111512312578e-016
  outer loop
    vertex 8.17287333333396 -25.6861733333331 -3.77346764945941e-013
    vertex 0.4378325000007 -25.6861733333333 1.45944166666666
    vertex 0.437832500000629 -25.6861733333333 -8.63614735280294e-015
  endloop
endfacet
facet normal 2.4572936278368e-014 -1.0 5.55111512312578e-016
  outer loop
    vertex 0.4378325000007 -25.6861733333333 1.45944166666666
    vertex 8.17287333333396 -25.6861733333331 -3.77346764945941e-013
    vertex 8.17287333333403 -25.6861733333331 1.45944166666629
  endloop
endfacet
facet normal 4.76655751905817e-014 5.55111512312578e-016 1.0
  outer loop
    vertex -12.551198333333 -9.92420333333363 1.45944166666727
    vertex -19.5565183333327 -22.7672900000005 1.45944166666761
    vertex -12.5511983333327 -22.7672900000003 1.45944166666727
  endloop
endfacet
facet normal 4.76655751905817e-014 5.55111512312578e-016 1.0
  outer loop
    vertex -19.5565183333327 -22.7672900000005 1.45944166666761
    vertex -12.551198333333 -9.92420333333363 1.45944166666727
    vertex -19.556518333333 -9.9242033333338 1.4594416666676
  endloop
endfacet
facet normal 4.76655751905817e-014 5.55111512312578e-016 1.0
  outer loop
    vertex -12.5511983333334 4.67021333333303 1.45944166666724
    vertex -19.5565183333331 -5.25399000000047 1.45944166666758
    vertex -12.5511983333331 -5.25399000000029 1.45944166666725
  endloop
endfacet
facet normal 4.76655751905817e-014 5.55111512312578e-016 1.0
  outer loop
    vertex -19.5565183333331 -5.25399000000047 1.45944166666758
    vertex -12.5511983333334 4.67021333333303 1.45944166666724
    vertex -19.5565183333334 4.67021333333286 1.45944166666758
  endloop
endfacet
facet normal -2.4572936278368e-014 1.0 -5.55111512312578e-016
  outer loop
    vertex -12.551198333333 -9.92420333333363 1.45944166666727
    vertex -19.5565183333331 -9.9242033333338 9.18427833784818e-013
    vertex -19.556518333333 -9.9242033333338 1.4594416666676
  endloop
endfacet
facet normal -2.4572936278368e-014 1.0 -5.55111512312578e-016
  outer loop
    vertex -19.5565183333331 -9.9242033333338 9.18427833784818e-013
    vertex -12.551198333333 -9.92420333333363 1.45944166666727
    vertex -12.5511983333331 -9.92420333333363 5.84438053508052e-013
  endloop
endfacet
facet normal -2.4572936278368e-014 1.0 -5.55111512312578e-016
  outer loop
    vertex -0.437832499999817 -4.67021333333333 1.45944166666669
    vertex -8.17287333333321 -4.67021333333352 3.90036614117406e-013
    vertex -8.17287333333315 -4.67021333333352 1.45944166666706
  endloop
endfacet
facet normal -2.4572936278368e-014 1.0 -5.55111512312578e-016
  outer loop
    vertex -8.17287333333321 -4.67021333333352 3.90036614117406e-013
    vertex -0.437832499999817 -4.67021333333333 1.45944166666669
    vertex -0.437832499999888 -4.67021333333333 2.13259965242685e-014
  endloop
endfacet
facet normal 1.0 2.4572936278368e-014 -4.76655751905818e-014
  outer loop
    vertex -12.5511983333328 -22.7672900000003 5.91664217619581e-013
    vertex -12.551198333333 -9.92420333333363 1.45944166666727
    vertex -12.5511983333327 -22.7672900000003 1.45944166666727
  endloop
endfacet
facet normal 1.0 2.4572936278368e-014 -4.76655751905818e-014
  outer loop
    vertex -12.551198333333 -9.92420333333363 1.45944166666727
    vertex -12.5511983333328 -22.7672900000003 5.91664217619581e-013
    vertex -12.5511983333331 -9.92420333333363 5.84438053508052e-013
  endloop
endfacet
facet normal 2.4572936278368e-014 -1.0 5.55111512312578e-016
  outer loop
    vertex -12.5511983333328 -22.7672900000003 5.91664217619581e-013
    vertex -19.5565183333327 -22.7672900000005 1.45944166666761
    vertex -19.5565183333328 -22.7672900000005 9.25653997896347e-013
  endloop
endfacet
facet normal 2.4572936278368e-014 -1.0 5.55111512312578e-016
  outer loop
    vertex -19.5565183333327 -22.7672900000005 1.45944166666761
    vertex -12.5511983333328 -22.7672900000003 5.91664217619581e-013
    vertex -12.5511983333327 -22.7672900000003 1.45944166666727
  endloop
endfacet
facet normal -2.4572936278368e-014 1.0 -5.55111512312578e-016
  outer loop
    vertex -12.5511983333334 4.67021333333303 1.45944166666724
    vertex -19.5565183333334 4.67021333333286 9.35876376395584e-013
    vertex -19.5565183333334 4.67021333333286 1.45944166666758
  endloop
endfacet
facet normal -2.4572936278368e-014 1.0 -5.55111512312578e-016
  outer loop
    vertex -19.5565183333334 4.67021333333286 9.35876376395584e-013
    vertex -12.5511983333334 4.67021333333303 1.45944166666724
    vertex -12.5511983333334 4.67021333333303 6.01886596118817e-013
  endloop
endfacet
facet normal 1.0 2.4572936278368e-014 -4.76655751905818e-014
  outer loop
    vertex -12.5511983333332 -5.25399000000029 6.07526529083913e-013
    vertex -12.5511983333334 4.67021333333303 1.45944166666724
    vertex -12.5511983333331 -5.25399000000029 1.45944166666725
  endloop
endfacet
facet normal 1.0 2.4572936278368e-014 -4.76655751905818e-014
  outer loop
    vertex -12.5511983333334 4.67021333333303 1.45944166666724
    vertex -12.5511983333332 -5.25399000000029 6.07526529083913e-013
    vertex -12.5511983333334 4.67021333333303 6.01886596118817e-013
  endloop
endfacet
facet normal 1.0 2.4572936278368e-014 -4.76655751905818e-014
  outer loop
    vertex -0.437832499999372 -25.6861733333333 3.29583582647786e-014
    vertex -0.437832499999817 -4.67021333333333 1.45944166666669
    vertex -0.437832499999301 -25.6861733333333 1.4594416666667
  endloop
endfacet
facet normal 1.0 2.4572936278368e-014 -4.76655751905818e-014
  outer loop
    vertex -0.437832499999817 -4.67021333333333 1.45944166666669
    vertex -0.437832499999372 -25.6861733333333 3.29583582647786e-014
    vertex -0.437832499999888 -4.67021333333333 2.13259965242685e-014
  endloop
endfacet
facet normal -1.0 -2.4572936278368e-014 4.76655751905818e-014
  outer loop
    vertex -8.17287333333321 -4.67021333333352 3.90036614117406e-013
    vertex -8.17287333333263 -25.6861733333335 1.45944166666707
    vertex -8.17287333333315 -4.67021333333352 1.45944166666706
  endloop
endfacet
facet normal -1.0 -2.4572936278368e-014 4.76655751905818e-014
  outer loop
    vertex -8.17287333333263 -25.6861733333335 1.45944166666707
    vertex -8.17287333333321 -4.67021333333352 3.90036614117406e-013
    vertex -8.1728733333327 -25.6861733333335 4.01668975857916e-013
  endloop
endfacet
facet normal 2.4572936278368e-014 -1.0 5.55111512312578e-016
  outer loop
    vertex -12.5511983333332 -5.25399000000029 6.07526529083913e-013
    vertex -19.5565183333331 -5.25399000000047 1.45944166666758
    vertex -19.5565183333332 -5.25399000000047 9.41516309360679e-013
  endloop
endfacet
facet normal 2.4572936278368e-014 -1.0 5.55111512312578e-016
  outer loop
    vertex -19.5565183333331 -5.25399000000047 1.45944166666758
    vertex -12.5511983333332 -5.25399000000029 6.07526529083913e-013
    vertex -12.5511983333331 -5.25399000000029 1.45944166666725
  endloop
endfacet
facet normal -1.0 -2.4572936278368e-014 4.76655751905818e-014
  outer loop
    vertex -19.5565183333334 4.67021333333286 9.35876376395584e-013
    vertex -19.5565183333331 -5.25399000000047 1.45944166666758
    vertex -19.5565183333334 4.67021333333286 1.45944166666758
  endloop
endfacet
facet normal -1.0 -2.4572936278368e-014 4.76655751905818e-014
  outer loop
    vertex -19.5565183333331 -5.25399000000047 1.45944166666758
    vertex -19.5565183333334 4.67021333333286 9.35876376395584e-013
    vertex -19.5565183333332 -5.25399000000047 9.41516309360679e-013
  endloop
endfacet
facet normal 2.4572936278368e-014 -1.0 5.55111512312578e-016
  outer loop
    vertex -0.437832499999372 -25.6861733333333 3.29583582647786e-014
    vertex -8.17287333333263 -25.6861733333335 1.45944166666707
    vertex -8.1728733333327 -25.6861733333335 4.01668975857916e-013
  endloop
endfacet
facet normal 2.4572936278368e-014 -1.0 5.55111512312578e-016
  outer loop
    vertex -8.17287333333263 -25.6861733333335 1.45944166666707
    vertex -0.437832499999372 -25.6861733333333 3.29583582647786e-014
    vertex -0.437832499999301 -25.6861733333333 1.4594416666667
  endloop
endfacet
facet normal -1.0 -2.4572936278368e-014 4.76655751905818e-014
  outer loop
    vertex -19.5565183333331 -9.9242033333338 9.18427833784818e-013
    vertex -19.5565183333327 -22.7672900000005 1.45944166666761
    vertex -19.556518333333 -9.9242033333338 1.4594416666676
  endloop
endfacet
facet normal -1.0 -2.4572936278368e-014 4.76655751905818e-014
  outer loop
    vertex -19.5565183333327 -22.7672900000005 1.45944166666761
    vertex -19.5565183333331 -9.9242033333338 9.18427833784818e-013
    vertex -19.5565183333328 -22.7672900000005 9.25653997896347e-013
  endloop
endfacet
facet normal 4.76655751905817e-014 5.55111512312578e-016 1.0
  outer loop
    vertex -0.437832499999817 -4.67021333333333 1.45944166666669
    vertex -8.17287333333263 -25.6861733333335 1.45944166666707
    vertex -0.437832499999301 -25.6861733333333 1.4594416666667
  endloop
endfacet
facet normal 4.76655751905817e-014 5.55111512312578e-016 1.0
  outer loop
    vertex -8.17287333333263 -25.6861733333335 1.45944166666707
    vertex -0.437832499999817 -4.67021333333333 1.45944166666669
    vertex -8.17287333333315 -4.67021333333352 1.45944166666706
  endloop
endfacet
facet normal -4.76655751905817e-014 -5.55111512312578e-016 -1.0
  outer loop
    vertex 0.437832500000113 -4.67021333333331 -2.0268509093313e-014
    vertex 8.17287333333396 -25.6861733333331 -3.77346764945941e-013
    vertex 0.437832500000629 -25.6861733333333 -8.63614735280294e-015
  endloop
endfacet
facet normal -4.76655751905817e-014 -5.55111512312578e-016 -1.0
  outer loop
    vertex 8.17287333333396 -25.6861733333331 -3.77346764945941e-013
    vertex 0.437832500000113 -4.67021333333331 -2.0268509093313e-014
    vertex 8.17287333333344 -4.67021333333312 -3.88979126686451e-013
  endloop
endfacet
facet normal -4.76655751905817e-014 -5.55111512312578e-016 -1.0
  outer loop
    vertex -8.17287333333321 -4.67021333333352 3.90036614117406e-013
    vertex -0.437832499999372 -25.6861733333333 3.29583582647786e-014
    vertex -8.1728733333327 -25.6861733333335 4.01668975857916e-013
  endloop
endfacet
facet normal -4.76655751905817e-014 -5.55111512312578e-016 -1.0
  outer loop
    vertex -0.437832499999372 -25.6861733333333 3.29583582647786e-014
    vertex -8.17287333333321 -4.67021333333352 3.90036614117406e-013
    vertex -0.437832499999888 -4.67021333333333 2.13259965242685e-014
  endloop
endfacet
facet normal -4.76655751905817e-014 -5.55111512312578e-016 -1.0
  outer loop
    vertex 12.5511983333332 4.67021333333365 -6.02944083549772e-013
    vertex 19.5565183333334 -5.25398999999951 -9.31293930861443e-013
    vertex 12.5511983333334 -5.25398999999968 -5.97304150584677e-013
  endloop
endfacet
facet normal -4.76655751905817e-014 -5.55111512312578e-016 -1.0
  outer loop
    vertex 19.5565183333334 -5.25398999999951 -9.31293930861443e-013
    vertex 12.5511983333332 4.67021333333365 -6.02944083549772e-013
    vertex 19.5565183333332 4.67021333333382 -9.36933863826539e-013
  endloop
endfacet
facet normal -4.76655751905817e-014 -5.55111512312578e-016 -1.0
  outer loop
    vertex -19.5565183333334 4.67021333333286 9.35876376395584e-013
    vertex -12.5511983333332 -5.25399000000029 6.07526529083913e-013
    vertex -19.5565183333332 -5.25399000000047 9.41516309360679e-013
  endloop
endfacet
facet normal -4.76655751905817e-014 -5.55111512312578e-016 -1.0
  outer loop
    vertex -12.5511983333332 -5.25399000000029 6.07526529083913e-013
    vertex -19.5565183333334 4.67021333333286 9.35876376395584e-013
    vertex -12.5511983333334 4.67021333333303 6.01886596118817e-013
  endloop
endfacet
facet normal -4.76655751905817e-014 -5.55111512312578e-016 -1.0
  outer loop
    vertex 12.5511983333336 -9.92420333333301 -5.88491755326714e-013
    vertex 19.5565183333339 -22.7672899999995 -9.15255371491952e-013
    vertex 12.5511983333339 -22.7672899999997 -5.81265591215185e-013
  endloop
endfacet
facet normal -4.76655751905817e-014 -5.55111512312578e-016 -1.0
  outer loop
    vertex 19.5565183333339 -22.7672899999995 -9.15255371491952e-013
    vertex 12.5511983333336 -9.92420333333301 -5.88491755326714e-013
    vertex 19.5565183333336 -9.92420333333284 -9.22481535603481e-013
  endloop
endfacet
facet normal -4.76655751905817e-014 -5.55111512312578e-016 -1.0
  outer loop
    vertex -19.5565183333331 -9.9242033333338 9.18427833784818e-013
    vertex -12.5511983333328 -22.7672900000003 5.91664217619581e-013
    vertex -19.5565183333328 -22.7672900000005 9.25653997896347e-013
  endloop
endfacet
facet normal -4.76655751905817e-014 -5.55111512312578e-016 -1.0
  outer loop
    vertex -12.5511983333328 -22.7672900000003 5.91664217619581e-013
    vertex -19.5565183333331 -9.9242033333338 9.18427833784818e-013
    vertex -12.5511983333331 -9.92420333333363 5.84438053508052e-013
  endloop
endfacet
facet normal -4.76655751905817e-014 -5.55111512312578e-016 -1.0
  outer loop
    vertex -8.46476166666678 4.67021333333313 4.07132660917853e-013
    vertex 8.46476166666664 2.19957385638736e-013 -3.97086530323776e-013
    vertex -8.46476166666666 -1.97397653778353e-013 4.09776379495241e-013
  endloop
endfacet
facet normal -4.76655751905817e-014 -5.55111512312578e-016 -1.0
  outer loop
    vertex 8.46476166666664 2.19957385638736e-013 -3.97086530323776e-013
    vertex -8.46476166666678 4.67021333333313 4.07132660917853e-013
    vertex 8.46476166666653 4.67021333333355 -3.99730248901164e-013
  endloop
endfacet
facet normal -4.76655751905817e-014 -5.55111512312578e-016 -1.0
  outer loop
    vertex 22.3462507989663 -60.4208849999998 -3.73645558937596e-013
    vertex 28.1840174656331 -68.3018699999996 -6.47887299365379e-013
    vertex 22.3462507989665 -68.3018699999998 -3.69415609213775e-013
  endloop
endfacet
facet normal -4.76655751905817e-014 -5.55111512312578e-016 -1.0
  outer loop
    vertex 28.1840174656331 -68.3018699999996 -6.47887299365379e-013
    vertex 22.3462507989663 -60.4208849999998 -3.73645558937596e-013
    vertex 28.1840174656329 -60.4208849999996 -6.52117249089201e-013
  endloop
endfacet
facet normal -4.76655751905817e-014 -5.55111512312578e-016 -1.0
  outer loop
    vertex 22.346250798966 -51.3723466666664 -3.87040399729699e-013
    vertex 28.1840174656329 -59.2533316666663 -6.60929644347164e-013
    vertex 22.3462507989662 -59.2533316666664 -3.82457954195559e-013
  endloop
endfacet
facet normal -4.76655751905817e-014 -5.55111512312578e-016 -1.0
  outer loop
    vertex 28.1840174656329 -59.2533316666663 -6.60929644347164e-013
    vertex 22.346250798966 -51.3723466666664 -3.87040399729699e-013
    vertex 28.1840174656327 -51.3723466666663 -6.65512089881304e-013
  endloop
endfacet
facet normal 4.76655751905817e-014 5.55111512312578e-016 1.0
  outer loop
    vertex 28.1840174656328 -51.3723466666663 2.91888333333267
    vertex 22.3462507989663 -59.2533316666664 2.91888333333295
    vertex 28.184017465633 -59.2533316666663 2.91888333333267
  endloop
endfacet
facet normal 4.76655751905817e-014 5.55111512312578e-016 1.0
  outer loop
    vertex 22.3462507989663 -59.2533316666664 2.91888333333295
    vertex 28.1840174656328 -51.3723466666663 2.91888333333267
    vertex 22.3462507989661 -51.3723466666664 2.91888333333295
  endloop
endfacet
facet normal 1.0 2.4572936278368e-014 -4.76655751905818e-014
  outer loop
    vertex 28.1840174656329 -59.2533316666663 -6.60929644347164e-013
    vertex 28.1840174656328 -51.3723466666663 2.91888333333267
    vertex 28.184017465633 -59.2533316666663 2.91888333333267
  endloop
endfacet
facet normal 1.0 2.4572936278368e-014 -4.76655751905818e-014
  outer loop
    vertex 28.1840174656328 -51.3723466666663 2.91888333333267
    vertex 28.1840174656329 -59.2533316666663 -6.60929644347164e-013
    vertex 28.1840174656327 -51.3723466666663 -6.65512089881304e-013
  endloop
endfacet
facet normal -2.4572936278368e-014 1.0 -5.55111512312578e-016
  outer loop
    vertex 28.1840174656328 -51.3723466666663 2.91888333333267
    vertex 22.346250798966 -51.3723466666664 -3.87040399729699e-013
    vertex 22.3462507989661 -51.3723466666664 2.91888333333295
  endloop
endfacet
facet normal -2.4572936278368e-014 1.0 -5.55111512312578e-016
  outer loop
    vertex 22.346250798966 -51.3723466666664 -3.87040399729699e-013
    vertex 28.1840174656328 -51.3723466666663 2.91888333333267
    vertex 28.1840174656327 -51.3723466666663 -6.65512089881304e-013
  endloop
endfacet
facet normal 2.4572936278368e-014 -1.0 5.55111512312578e-016
  outer loop
    vertex 28.1840174656329 -59.2533316666663 -6.60929644347164e-013
    vertex 22.3462507989663 -59.2533316666664 2.91888333333295
    vertex 22.3462507989662 -59.2533316666664 -3.82457954195559e-013
  endloop
endfacet
facet normal 2.4572936278368e-014 -1.0 5.55111512312578e-016
  outer loop
    vertex 22.3462507989663 -59.2533316666664 2.91888333333295
    vertex 28.1840174656329 -59.2533316666663 -6.60929644347164e-013
    vertex 28.184017465633 -59.2533316666663 2.91888333333267
  endloop
endfacet
facet normal -1.0 -2.4572936278368e-014 4.76655751905818e-014
  outer loop
    vertex 22.346250798966 -51.3723466666664 -3.87040399729699e-013
    vertex 22.3462507989663 -59.2533316666664 2.91888333333295
    vertex 22.3462507989661 -51.3723466666664 2.91888333333295
  endloop
endfacet
facet normal -1.0 -2.4572936278368e-014 4.76655751905818e-014
  outer loop
    vertex 22.3462507989663 -59.2533316666664 2.91888333333295
    vertex 22.346250798966 -51.3723466666664 -3.87040399729699e-013
    vertex 22.3462507989662 -59.2533316666664 -3.82457954195559e-013
  endloop
endfacet
facet normal 4.76655751905817e-014 5.55111512312578e-016 1.0
  outer loop
    vertex 28.184017465633 -60.4208849999996 2.91888333333269
    vertex 22.3462507989666 -68.3018699999998 2.91888333333297
    vertex 28.1840174656332 -68.3018699999996 2.91888333333269
  endloop
endfacet
facet normal 4.76655751905817e-014 5.55111512312578e-016 1.0
  outer loop
    vertex 22.3462507989666 -68.3018699999998 2.91888333333297
    vertex 28.184017465633 -60.4208849999996 2.91888333333269
    vertex 22.3462507989664 -60.4208849999998 2.91888333333297
  endloop
endfacet
facet normal 1.0 2.4572936278368e-014 -4.76655751905818e-014
  outer loop
    vertex 28.1840174656331 -68.3018699999996 -6.47887299365379e-013
    vertex 28.184017465633 -60.4208849999996 2.91888333333269
    vertex 28.1840174656332 -68.3018699999996 2.91888333333269
  endloop
endfacet
facet normal 1.0 2.4572936278368e-014 -4.76655751905818e-014
  outer loop
    vertex 28.184017465633 -60.4208849999996 2.91888333333269
    vertex 28.1840174656331 -68.3018699999996 -6.47887299365379e-013
    vertex 28.1840174656329 -60.4208849999996 -6.52117249089201e-013
  endloop
endfacet
facet normal -2.4572936278368e-014 1.0 -5.55111512312578e-016
  outer loop
    vertex 28.184017465633 -60.4208849999996 2.91888333333269
    vertex 22.3462507989663 -60.4208849999998 -3.73645558937596e-013
    vertex 22.3462507989664 -60.4208849999998 2.91888333333297
  endloop
endfacet
facet normal -2.4572936278368e-014 1.0 -5.55111512312578e-016
  outer loop
    vertex 22.3462507989663 -60.4208849999998 -3.73645558937596e-013
    vertex 28.184017465633 -60.4208849999996 2.91888333333269
    vertex 28.1840174656329 -60.4208849999996 -6.52117249089201e-013
  endloop
endfacet
facet normal 2.4572936278368e-014 -1.0 5.55111512312578e-016
  outer loop
    vertex 28.1840174656331 -68.3018699999996 -6.47887299365379e-013
    vertex 22.3462507989666 -68.3018699999998 2.91888333333297
    vertex 22.3462507989665 -68.3018699999998 -3.69415609213775e-013
  endloop
endfacet
facet normal 2.4572936278368e-014 -1.0 5.55111512312578e-016
  outer loop
    vertex 22.3462507989666 -68.3018699999998 2.91888333333297
    vertex 28.1840174656331 -68.3018699999996 -6.47887299365379e-013
    vertex 28.1840174656332 -68.3018699999996 2.91888333333269
  endloop
endfacet
facet normal -1.0 -2.4572936278368e-014 4.76655751905818e-014
  outer loop
    vertex 22.3462507989663 -60.4208849999998 -3.73645558937596e-013
    vertex 22.3462507989666 -68.3018699999998 2.91888333333297
    vertex 22.3462507989664 -60.4208849999998 2.91888333333297
  endloop
endfacet
facet normal -1.0 -2.4572936278368e-014 4.76655751905818e-014
  outer loop
    vertex 22.3462507989666 -68.3018699999998 2.91888333333297
    vertex 22.3462507989663 -60.4208849999998 -3.73645558937596e-013
    vertex 22.3462507989665 -68.3018699999998 -3.69415609213775e-013
  endloop
endfacet
facet normal -4.76655751905817e-014 -5.55111512312578e-016 -1.0
  outer loop
    vertex -5.09125253436722 -51.3723466666671 9.20719056551889e-013
    vertex 0.746514132299644 -59.253331666667 6.47182307744742e-013
    vertex -5.09125253436702 -59.2533316666671 9.25301502086029e-013
  endloop
endfacet
facet normal -4.76655751905817e-014 -5.55111512312578e-016 -1.0
  outer loop
    vertex 0.746514132299644 -59.253331666667 6.47182307744742e-013
    vertex -5.09125253436722 -51.3723466666671 9.20719056551889e-013
    vertex 0.74651413229945 -51.372346666667 6.42599862210602e-013
  endloop
endfacet
facet normal 4.76655751905817e-014 5.55111512312578e-016 1.0
  outer loop
    vertex 0.746514132299589 -51.372346666667 2.91888333333398
    vertex -5.09125253436688 -59.2533316666671 2.91888333333426
    vertex 0.746514132299783 -59.253331666667 2.91888333333398
  endloop
endfacet
facet normal 4.76655751905817e-014 5.55111512312578e-016 1.0
  outer loop
    vertex -5.09125253436688 -59.2533316666671 2.91888333333426
    vertex 0.746514132299589 -51.372346666667 2.91888333333398
    vertex -5.09125253436708 -51.3723466666671 2.91888333333425
  endloop
endfacet
facet normal 1.0 2.4572936278368e-014 -4.76655751905818e-014
  outer loop
    vertex 0.746514132299644 -59.253331666667 6.47182307744742e-013
    vertex 0.746514132299589 -51.372346666667 2.91888333333398
    vertex 0.746514132299783 -59.253331666667 2.91888333333398
  endloop
endfacet
facet normal 1.0 2.4572936278368e-014 -4.76655751905818e-014
  outer loop
    vertex 0.746514132299589 -51.372346666667 2.91888333333398
    vertex 0.746514132299644 -59.253331666667 6.47182307744742e-013
    vertex 0.74651413229945 -51.372346666667 6.42599862210602e-013
  endloop
endfacet
facet normal 4.76655751905817e-014 5.55111512312578e-016 1.0
  outer loop
    vertex 14.4652657989662 -51.3723466666666 2.91888333333332
    vertex 8.62749913229971 -59.2533316666668 2.9188833333336
    vertex 14.4652657989664 -59.2533316666666 2.91888333333333
  endloop
endfacet
facet normal 4.76655751905817e-014 5.55111512312578e-016 1.0
  outer loop
    vertex 8.62749913229971 -59.2533316666668 2.9188833333336
    vertex 14.4652657989662 -51.3723466666666 2.91888333333332
    vertex 8.62749913229952 -51.3723466666668 2.9188833333336
  endloop
endfacet
facet normal -2.4572936278368e-014 1.0 -5.55111512312578e-016
  outer loop
    vertex 0.746514132299589 -51.372346666667 2.91888333333398
    vertex -5.09125253436722 -51.3723466666671 9.20719056551889e-013
    vertex -5.09125253436708 -51.3723466666671 2.91888333333425
  endloop
endfacet
facet normal -2.4572936278368e-014 1.0 -5.55111512312578e-016
  outer loop
    vertex -5.09125253436722 -51.3723466666671 9.20719056551889e-013
    vertex 0.746514132299589 -51.372346666667 2.91888333333398
    vertex 0.74651413229945 -51.372346666667 6.42599862210602e-013
  endloop
endfacet
facet normal -2.4572936278368e-014 1.0 -5.55111512312578e-016
  outer loop
    vertex 14.4652657989664 -60.420885 2.91888333333334
    vertex 8.62749913229969 -60.4208850000001 2.80234169203197e-013
    vertex 8.62749913229983 -60.4208850000001 2.91888333333362
  endloop
endfacet
facet normal -2.4572936278368e-014 1.0 -5.55111512312578e-016
  outer loop
    vertex 8.62749913229969 -60.4208850000001 2.80234169203197e-013
    vertex 14.4652657989664 -60.420885 2.91888333333334
    vertex 14.4652657989663 -60.420885 2.11497486191092e-015
  endloop
endfacet
facet normal -2.4572936278368e-014 1.0 -5.55111512312578e-016
  outer loop
    vertex 14.4652657989662 -51.3723466666666 2.91888333333332
    vertex 8.62749913229938 -51.3723466666668 2.66839328411095e-013
    vertex 8.62749913229952 -51.3723466666668 2.9188833333336
  endloop
endfacet
facet normal -2.4572936278368e-014 1.0 -5.55111512312578e-016
  outer loop
    vertex 8.62749913229938 -51.3723466666668 2.66839328411095e-013
    vertex 14.4652657989662 -51.3723466666666 2.91888333333332
    vertex 14.465265798966 -51.3723466666666 -1.12798659301916e-014
  endloop
endfacet
facet normal -4.76655751905817e-014 -5.55111512312578e-016 -1.0
  outer loop
    vertex 8.62749913229938 -51.3723466666668 2.66839328411095e-013
    vertex 14.4652657989662 -59.2533316666666 -6.69742039605126e-015
    vertex 8.62749913229958 -59.2533316666668 2.71421773945235e-013
  endloop
endfacet
facet normal -4.76655751905817e-014 -5.55111512312578e-016 -1.0
  outer loop
    vertex 14.4652657989662 -59.2533316666666 -6.69742039605126e-015
    vertex 8.62749913229938 -51.3723466666668 2.66839328411095e-013
    vertex 14.465265798966 -51.3723466666666 -1.12798659301916e-014
  endloop
endfacet
facet normal 4.76655751905817e-014 5.55111512312578e-016 1.0
  outer loop
    vertex 14.4652657989664 -60.420885 2.91888333333334
    vertex 8.62749913230002 -68.3018700000001 2.91888333333363
    vertex 14.4652657989666 -68.30187 2.91888333333335
  endloop
endfacet
facet normal 4.76655751905817e-014 5.55111512312578e-016 1.0
  outer loop
    vertex 8.62749913230002 -68.3018700000001 2.91888333333363
    vertex 14.4652657989664 -60.420885 2.91888333333334
    vertex 8.62749913229983 -60.4208850000001 2.91888333333362
  endloop
endfacet
facet normal 2.4572936278368e-014 -1.0 5.55111512312578e-016
  outer loop
    vertex 14.4652657989665 -68.30187 6.34492458573277e-015
    vertex 8.62749913230002 -68.3018700000001 2.91888333333363
    vertex 8.62749913229988 -68.3018700000001 2.84464118927019e-013
  endloop
endfacet
facet normal 2.4572936278368e-014 -1.0 5.55111512312578e-016
  outer loop
    vertex 8.62749913230002 -68.3018700000001 2.91888333333363
    vertex 14.4652657989665 -68.30187 6.34492458573277e-015
    vertex 14.4652657989666 -68.30187 2.91888333333335
  endloop
endfacet
facet normal -1.0 -2.4572936278368e-014 4.76655751905818e-014
  outer loop
    vertex 8.62749913229938 -51.3723466666668 2.66839328411095e-013
    vertex 8.62749913229971 -59.2533316666668 2.9188833333336
    vertex 8.62749913229952 -51.3723466666668 2.9188833333336
  endloop
endfacet
facet normal -1.0 -2.4572936278368e-014 4.76655751905818e-014
  outer loop
    vertex 8.62749913229971 -59.2533316666668 2.9188833333336
    vertex 8.62749913229938 -51.3723466666668 2.66839328411095e-013
    vertex 8.62749913229958 -59.2533316666668 2.71421773945235e-013
  endloop
endfacet
facet normal -4.76655751905817e-014 -5.55111512312578e-016 -1.0
  outer loop
    vertex 8.62749913229969 -60.4208850000001 2.80234169203197e-013
    vertex 14.4652657989665 -68.30187 6.34492458573277e-015
    vertex 8.62749913229988 -68.3018700000001 2.84464118927019e-013
  endloop
endfacet
facet normal -4.76655751905817e-014 -5.55111512312578e-016 -1.0
  outer loop
    vertex 14.4652657989665 -68.30187 6.34492458573277e-015
    vertex 8.62749913229969 -60.4208850000001 2.80234169203197e-013
    vertex 14.4652657989663 -60.420885 2.11497486191092e-015
  endloop
endfacet
facet normal 1.0 2.4572936278368e-014 -4.76655751905818e-014
  outer loop
    vertex 14.4652657989665 -68.30187 6.34492458573277e-015
    vertex 14.4652657989664 -60.420885 2.91888333333334
    vertex 14.4652657989666 -68.30187 2.91888333333335
  endloop
endfacet
facet normal 1.0 2.4572936278368e-014 -4.76655751905818e-014
  outer loop
    vertex 14.4652657989664 -60.420885 2.91888333333334
    vertex 14.4652657989665 -68.30187 6.34492458573277e-015
    vertex 14.4652657989663 -60.420885 2.11497486191092e-015
  endloop
endfacet
facet normal -1.0 -2.4572936278368e-014 4.76655751905818e-014
  outer loop
    vertex 8.62749913229969 -60.4208850000001 2.80234169203197e-013
    vertex 8.62749913230002 -68.3018700000001 2.91888333333363
    vertex 8.62749913229983 -60.4208850000001 2.91888333333362
  endloop
endfacet
facet normal -1.0 -2.4572936278368e-014 4.76655751905818e-014
  outer loop
    vertex 8.62749913230002 -68.3018700000001 2.91888333333363
    vertex 8.62749913229969 -60.4208850000001 2.80234169203197e-013
    vertex 8.62749913229988 -68.3018700000001 2.84464118927019e-013
  endloop
endfacet
facet normal -4.76655751905817e-014 -5.55111512312578e-016 -1.0
  outer loop
    vertex -5.09125253436691 -60.4208850000005 9.34113897343991e-013
    vertex 0.746514132299866 -68.3018700000003 6.60224652726526e-013
    vertex -5.09125253436672 -68.3018700000004 9.38343847067813e-013
  endloop
endfacet
facet normal -4.76655751905817e-014 -5.55111512312578e-016 -1.0
  outer loop
    vertex 0.746514132299866 -68.3018700000003 6.60224652726526e-013
    vertex -5.09125253436691 -60.4208850000005 9.34113897343991e-013
    vertex 0.746514132299672 -60.4208850000003 6.55994703002705e-013
  endloop
endfacet
facet normal 2.4572936278368e-014 -1.0 5.55111512312578e-016
  outer loop
    vertex 14.4652657989662 -59.2533316666666 -6.69742039605126e-015
    vertex 8.62749913229971 -59.2533316666668 2.9188833333336
    vertex 8.62749913229958 -59.2533316666668 2.71421773945235e-013
  endloop
endfacet
facet normal 2.4572936278368e-014 -1.0 5.55111512312578e-016
  outer loop
    vertex 8.62749913229971 -59.2533316666668 2.9188833333336
    vertex 14.4652657989662 -59.2533316666666 -6.69742039605126e-015
    vertex 14.4652657989664 -59.2533316666666 2.91888333333333
  endloop
endfacet
facet normal 1.0 2.4572936278368e-014 -4.76655751905818e-014
  outer loop
    vertex 14.4652657989662 -59.2533316666666 -6.69742039605126e-015
    vertex 14.4652657989662 -51.3723466666666 2.91888333333332
    vertex 14.4652657989664 -59.2533316666666 2.91888333333333
  endloop
endfacet
facet normal 1.0 2.4572936278368e-014 -4.76655751905818e-014
  outer loop
    vertex 14.4652657989662 -51.3723466666666 2.91888333333332
    vertex 14.4652657989662 -59.2533316666666 -6.69742039605126e-015
    vertex 14.465265798966 -51.3723466666666 -1.12798659301916e-014
  endloop
endfacet
facet normal -2.4572936278368e-014 1.0 -5.55111512312578e-016
  outer loop
    vertex 0.746514132299811 -60.4208850000003 2.918883333334
    vertex -5.09125253436691 -60.4208850000005 9.34113897343991e-013
    vertex -5.09125253436677 -60.4208850000005 2.91888333333428
  endloop
endfacet
facet normal -2.4572936278368e-014 1.0 -5.55111512312578e-016
  outer loop
    vertex -5.09125253436691 -60.4208850000005 9.34113897343991e-013
    vertex 0.746514132299811 -60.4208850000003 2.918883333334
    vertex 0.746514132299672 -60.4208850000003 6.55994703002705e-013
  endloop
endfacet
facet normal 2.4572936278368e-014 -1.0 5.55111512312578e-016
  outer loop
    vertex 0.746514132299866 -68.3018700000003 6.60224652726526e-013
    vertex -5.09125253436658 -68.3018700000004 2.91888333333428
    vertex -5.09125253436672 -68.3018700000004 9.38343847067813e-013
  endloop
endfacet
facet normal 2.4572936278368e-014 -1.0 5.55111512312578e-016
  outer loop
    vertex -5.09125253436658 -68.3018700000004 2.91888333333428
    vertex 0.746514132299866 -68.3018700000003 6.60224652726526e-013
    vertex 0.746514132300005 -68.3018700000003 2.918883333334
  endloop
endfacet
facet normal 4.76655751905817e-014 5.55111512312578e-016 1.0
  outer loop
    vertex 0.746514132299811 -60.4208850000003 2.918883333334
    vertex -5.09125253436658 -68.3018700000004 2.91888333333428
    vertex 0.746514132300005 -68.3018700000003 2.918883333334
  endloop
endfacet
facet normal 4.76655751905817e-014 5.55111512312578e-016 1.0
  outer loop
    vertex -5.09125253436658 -68.3018700000004 2.91888333333428
    vertex 0.746514132299811 -60.4208850000003 2.918883333334
    vertex -5.09125253436677 -60.4208850000005 2.91888333333428
  endloop
endfacet
facet normal 1.0 2.4572936278368e-014 -4.76655751905818e-014
  outer loop
    vertex 0.746514132299866 -68.3018700000003 6.60224652726526e-013
    vertex 0.746514132299811 -60.4208850000003 2.918883333334
    vertex 0.746514132300005 -68.3018700000003 2.918883333334
  endloop
endfacet
facet normal 1.0 2.4572936278368e-014 -4.76655751905818e-014
  outer loop
    vertex 0.746514132299811 -60.4208850000003 2.918883333334
    vertex 0.746514132299866 -68.3018700000003 6.60224652726526e-013
    vertex 0.746514132299672 -60.4208850000003 6.55994703002705e-013
  endloop
endfacet
facet normal -1.0 -2.4572936278368e-014 4.76655751905818e-014
  outer loop
    vertex -5.09125253436691 -60.4208850000005 9.34113897343991e-013
    vertex -5.09125253436658 -68.3018700000004 2.91888333333428
    vertex -5.09125253436677 -60.4208850000005 2.91888333333428
  endloop
endfacet
facet normal -1.0 -2.4572936278368e-014 4.76655751905818e-014
  outer loop
    vertex -5.09125253436658 -68.3018700000004 2.91888333333428
    vertex -5.09125253436691 -60.4208850000005 9.34113897343991e-013
    vertex -5.09125253436672 -68.3018700000004 9.38343847067813e-013
  endloop
endfacet
facet normal -1.0 -2.4572936278368e-014 4.76655751905818e-014
  outer loop
    vertex -5.09125253436722 -51.3723466666671 9.20719056551889e-013
    vertex -5.09125253436688 -59.2533316666671 2.91888333333426
    vertex -5.09125253436708 -51.3723466666671 2.91888333333425
  endloop
endfacet
facet normal -1.0 -2.4572936278368e-014 4.76655751905818e-014
  outer loop
    vertex -5.09125253436688 -59.2533316666671 2.91888333333426
    vertex -5.09125253436722 -51.3723466666671 9.20719056551889e-013
    vertex -5.09125253436702 -59.2533316666671 9.25301502086029e-013
  endloop
endfacet
facet normal 2.4572936278368e-014 -1.0 5.55111512312578e-016
  outer loop
    vertex 0.746514132299644 -59.253331666667 6.47182307744742e-013
    vertex -5.09125253436688 -59.2533316666671 2.91888333333426
    vertex -5.09125253436702 -59.2533316666671 9.25301502086029e-013
  endloop
endfacet
facet normal 2.4572936278368e-014 -1.0 5.55111512312578e-016
  outer loop
    vertex -5.09125253436688 -59.2533316666671 2.91888333333426
    vertex 0.746514132299644 -59.253331666667 6.47182307744742e-013
    vertex 0.746514132299783 -59.253331666667 2.91888333333398
  endloop
endfacet
endsolid Untitled-5f517e41
