solid Untitled-5f8f82bb
facet normal 2.5120197729556e-016 -5.10028025439013e-014 1.0
  outer loop
    vertex 5.63143612887185 -11.550649954379 4.0864366666712
    vertex 3.88010612887159 -9.21554328771254 4.08643666667124
    vertex -4.87654387112768 -11.5506499543802 4.08643666667003
  endloop
endfacet
facet normal 2.5120197729556e-016 -5.10028025439013e-014 1.0
  outer loop
    vertex 3.88010612887159 -9.21554328771254 4.08643666667124
    vertex 5.63143612887185 -11.550649954379 4.0864366666712
    vertex 5.63143612886932 11.508528378957 4.08643666667121
  endloop
endfacet
facet normal 2.5120197729556e-016 -5.10028025439013e-014 1.0
  outer loop
    vertex 3.88010612887159 -9.21554328771254 4.08643666667124
    vertex 5.63143612886932 11.508528378957 4.08643666667121
    vertex 3.88010612886952 9.75719837895677 4.08643666667131
  endloop
endfacet
facet normal 2.5120197729556e-016 -5.10028025439013e-014 1.0
  outer loop
    vertex 3.88010612886952 9.75719837895677 4.08643666667131
    vertex 5.63143612886932 11.508528378957 4.08643666667121
    vertex -3.12521387113002 9.757198378956 4.08643666667219
  endloop
endfacet
facet normal 2.5120197729556e-016 -5.10028025439013e-014 1.0
  outer loop
    vertex -4.87654387112768 -11.5506499543802 4.08643666667003
    vertex -3.12521387112794 -9.2155432877133 4.08643666667034
    vertex -4.87654387113021 11.5085283789558 4.08643666667238
  endloop
endfacet
facet normal 2.5120197729556e-016 -5.10028025439013e-014 1.0
  outer loop
    vertex -3.12521387112794 -9.2155432877133 4.08643666667034
    vertex -4.87654387112768 -11.5506499543802 4.08643666667003
    vertex 3.88010612887159 -9.21554328771254 4.08643666667124
  endloop
endfacet
facet normal 2.5120197729556e-016 -5.10028025439013e-014 1.0
  outer loop
    vertex -4.87654387113021 11.5085283789558 4.08643666667238
    vertex -3.12521387112794 -9.2155432877133 4.08643666667034
    vertex -3.12521387113002 9.757198378956 4.08643666667219
  endloop
endfacet
facet normal 2.5120197729556e-016 -5.10028025439013e-014 1.0
  outer loop
    vertex -4.87654387113021 11.5085283789558 4.08643666667238
    vertex -3.12521387113002 9.757198378956 4.08643666667219
    vertex 5.63143612886932 11.508528378957 4.08643666667121
  endloop
endfacet
facet normal -1.0 -1.09488176101231e-013 1.04146562820043e-015
  outer loop
    vertex -4.87654387112768 -11.5506499543802 4.08643666667003
    vertex -4.87654387113021 11.508528378956 1.1675533333345
    vertex -4.87654387112769 -11.55064995438 1.16755333333215
  endloop
endfacet
facet normal -1.0 -1.09488176101231e-013 1.04146562820043e-015
  outer loop
    vertex -4.87654387113021 11.508528378956 1.1675533333345
    vertex -4.87654387112768 -11.5506499543802 4.08643666667003
    vertex -4.87654387113021 11.5085283789558 4.08643666667238
  endloop
endfacet
facet normal -1.09488176101214e-013 1.0 5.21360732363155e-014
  outer loop
    vertex 5.63143612886932 11.5085283789571 1.16755333333333
    vertex -4.87654387113021 11.5085283789558 4.08643666667238
    vertex 5.63143612886932 11.508528378957 4.08643666667121
  endloop
endfacet
facet normal -1.09488176101214e-013 1.0 5.21360732363155e-014
  outer loop
    vertex -4.87654387113021 11.5085283789558 4.08643666667238
    vertex 5.63143612886932 11.5085283789571 1.16755333333333
    vertex -4.87654387113021 11.508528378956 1.1675533333345
  endloop
endfacet
facet normal 1.0 1.0948817610122e-013 -1.35649067718386e-015
  outer loop
    vertex 5.63143612886932 11.5085283789571 1.16755333333333
    vertex 5.63143612887185 -11.550649954379 4.0864366666712
    vertex 5.63143612887184 -11.5506499543789 1.16755333333332
  endloop
endfacet
facet normal 1.0 1.0948817610122e-013 -1.35649067718386e-015
  outer loop
    vertex 5.63143612887185 -11.550649954379 4.0864366666712
    vertex 5.63143612886932 11.5085283789571 1.16755333333333
    vertex 5.63143612886932 11.508528378957 4.08643666667121
  endloop
endfacet
facet normal 1.00729505750691e-016 -5.10851319636372e-014 1.0
  outer loop
    vertex 6.79898946220252 12.6760817122906 1.16755333333333
    vertex 5.63143612887184 -11.5506499543789 1.16755333333332
    vertex 6.79898946220518 -11.5506499543787 1.16755333333345
  endloop
endfacet
facet normal 1.00729505750691e-016 -5.10851319636372e-014 1.0
  outer loop
    vertex 5.63143612887184 -11.5506499543789 1.16755333333332
    vertex 6.79898946220252 12.6760817122906 1.16755333333333
    vertex 5.63143612886932 11.5085283789571 1.16755333333333
  endloop
endfacet
facet normal 1.00729505750691e-016 -5.10851319636372e-014 1.0
  outer loop
    vertex 5.63143612886932 11.5085283789571 1.16755333333333
    vertex 6.79898946220252 12.6760817122906 1.16755333333333
    vertex -4.87654387113021 11.508528378956 1.1675533333345
  endloop
endfacet
facet normal 1.00729505750691e-016 -5.10851319636372e-014 1.0
  outer loop
    vertex -4.87654387113021 11.508528378956 1.1675533333345
    vertex -6.04409720446102 -11.5506499543801 1.16755333333209
    vertex -4.87654387112769 -11.55064995438 1.16755333333215
  endloop
endfacet
facet normal 1.00729505750691e-016 -5.10851319636372e-014 1.0
  outer loop
    vertex -6.04409720446102 -11.5506499543801 1.16755333333209
    vertex -4.87654387113021 11.508528378956 1.1675533333345
    vertex -6.04409720446367 12.6760817122892 1.16755333333469
  endloop
endfacet
facet normal 1.00729505750691e-016 -5.10851319636372e-014 1.0
  outer loop
    vertex -6.04409720446367 12.6760817122892 1.16755333333469
    vertex -4.87654387113021 11.508528378956 1.1675533333345
    vertex 6.79898946220252 12.6760817122906 1.16755333333333
  endloop
endfacet
facet normal 1.0 1.09488176101219e-013 -3.0890854881751e-028
  outer loop
    vertex 6.79898946220252 12.6760817122906 1.16755333333333
    vertex 6.79898946220518 -11.5506499543787 1.14069524196704e-013
    vertex 6.79898946220253 12.6760817122906 -4.5368560760207e-015
  endloop
endfacet
facet normal 1.0 1.09488176101219e-013 -3.0890854881751e-028
  outer loop
    vertex 6.79898946220518 -11.5506499543787 1.14069524196704e-013
    vertex 6.79898946220252 12.6760817122906 1.16755333333333
    vertex 6.79898946220518 -11.5506499543787 1.16755333333345
  endloop
endfacet
facet normal -1.09488176101214e-013 1.0 5.10090054486346e-014
  outer loop
    vertex 6.79898946220253 12.6760817122906 -4.5368560760207e-015
    vertex -6.04409720446367 12.6760817122892 1.16755333333469
    vertex 6.79898946220252 12.6760817122906 1.16755333333333
  endloop
endfacet
facet normal -1.09488176101214e-013 1.0 5.10090054486346e-014
  outer loop
    vertex -6.04409720446367 12.6760817122892 1.16755333333469
    vertex 6.79898946220253 12.6760817122906 -4.5368560760207e-015
    vertex -6.04409720446367 12.6760817122892 1.35185348619041e-012
  endloop
endfacet
facet normal -1.0 -1.09488176101231e-013 3.08908548817515e-028
  outer loop
    vertex -6.04409720446102 -11.5506499543801 1.16755333333209
    vertex -6.04409720446367 12.6760817122892 1.35185348619041e-012
    vertex -6.04409720446102 -11.5506499543801 -1.24232081806972e-012
  endloop
endfacet
facet normal -1.0 -1.09488176101231e-013 3.08908548817515e-028
  outer loop
    vertex -6.04409720446367 12.6760817122892 1.35185348619041e-012
    vertex -6.04409720446102 -11.5506499543801 1.16755333333209
    vertex -6.04409720446367 12.6760817122892 1.16755333333469
  endloop
endfacet
facet normal 1.09488176101225e-013 -1.0 -5.10702591327572e-014
  outer loop
    vertex -4.87654387112768 -11.5506499543802 4.08643666667003
    vertex 5.63143612887184 -11.5506499543789 1.16755333333332
    vertex 5.63143612887185 -11.550649954379 4.0864366666712
  endloop
endfacet
facet normal 1.09488176101225e-013 -1.0 -5.10702591327572e-014
  outer loop
    vertex 5.63143612887184 -11.5506499543789 1.16755333333332
    vertex 6.79898946220518 -11.5506499543787 1.14069524196704e-013
    vertex 6.79898946220518 -11.5506499543787 1.16755333333345
  endloop
endfacet
facet normal 1.09488176101225e-013 -1.0 -5.10702591327572e-014
  outer loop
    vertex 6.79898946220518 -11.5506499543787 1.14069524196704e-013
    vertex 5.63143612887184 -11.5506499543789 1.16755333333332
    vertex -6.04409720446102 -11.5506499543801 -1.24232081806972e-012
  endloop
endfacet
facet normal 1.09488176101225e-013 -1.0 -5.10702591327572e-014
  outer loop
    vertex -6.04409720446102 -11.5506499543801 -1.24232081806972e-012
    vertex 5.63143612887184 -11.5506499543789 1.16755333333332
    vertex -4.87654387112769 -11.55064995438 1.16755333333215
  endloop
endfacet
facet normal 1.09488176101225e-013 -1.0 -5.10702591327572e-014
  outer loop
    vertex -4.87654387112769 -11.55064995438 1.16755333333215
    vertex 5.63143612887184 -11.5506499543789 1.16755333333332
    vertex -4.87654387112768 -11.5506499543802 4.08643666667003
  endloop
endfacet
facet normal 1.09488176101225e-013 -1.0 -5.10702591327572e-014
  outer loop
    vertex -6.04409720446102 -11.5506499543801 -1.24232081806972e-012
    vertex -4.87654387112769 -11.55064995438 1.16755333333215
    vertex -6.04409720446102 -11.5506499543801 1.16755333333209
  endloop
endfacet
facet normal 2.78527552836953e-014 5.17765214905764e-014 -1.0
  outer loop
    vertex -6.04409720446367 12.6760817122892 1.35185348619041e-012
    vertex 6.79898946220518 -11.5506499543787 1.14069524196704e-013
    vertex -6.04409720446102 -11.5506499543801 -1.24232081806972e-012
  endloop
endfacet
facet normal 2.78527552836953e-014 5.17765214905764e-014 -1.0
  outer loop
    vertex 6.79898946220518 -11.5506499543787 1.14069524196704e-013
    vertex -6.04409720446367 12.6760817122892 1.35185348619041e-012
    vertex 6.79898946220253 12.6760817122906 -4.5368560760207e-015
  endloop
endfacet
facet normal -1.09488176101226e-013 1.0 5.071498776487e-014
  outer loop
    vertex 3.8801061288716 -9.21554328771249 3.21077166667124
    vertex -3.12521387112794 -9.2155432877133 4.08643666667034
    vertex 3.88010612887159 -9.21554328771254 4.08643666667124
  endloop
endfacet
facet normal -1.09488176101226e-013 1.0 5.071498776487e-014
  outer loop
    vertex -3.12521387112794 -9.2155432877133 4.08643666667034
    vertex 3.8801061288716 -9.21554328771249 3.21077166667124
    vertex -3.12521387112794 -9.21554328771326 3.21077166667034
  endloop
endfacet
facet normal -1.0 -1.0948817610122e-013 -1.72252784426341e-015
  outer loop
    vertex 3.88010612887159 -9.21554328771254 4.08643666667124
    vertex 3.88010612886952 9.75719837895682 3.21077166667131
    vertex 3.8801061288716 -9.21554328771249 3.21077166667124
  endloop
endfacet
facet normal -1.0 -1.0948817610122e-013 -1.72252784426341e-015
  outer loop
    vertex 3.88010612886952 9.75719837895682 3.21077166667131
    vertex 3.88010612887159 -9.21554328771254 4.08643666667124
    vertex 3.88010612886952 9.75719837895677 4.08643666667131
  endloop
endfacet
facet normal -1.72252784425798e-015 -5.07149877648583e-014 1.0
  outer loop
    vertex 3.88010612886952 9.75719837895682 3.21077166667131
    vertex -3.12521387112794 -9.21554328771326 3.21077166667034
    vertex 3.8801061288716 -9.21554328771249 3.21077166667124
  endloop
endfacet
facet normal -1.72252784425798e-015 -5.07149877648583e-014 1.0
  outer loop
    vertex -3.12521387112794 -9.21554328771326 3.21077166667034
    vertex 3.88010612886952 9.75719837895682 3.21077166667131
    vertex -3.12521387113001 9.75719837895605 3.21077166667219
  endloop
endfacet
facet normal 1.0 1.0948817610123e-013 1.72252784426341e-015
  outer loop
    vertex -3.12521387113001 9.75719837895605 3.21077166667219
    vertex -3.12521387112794 -9.2155432877133 4.08643666667034
    vertex -3.12521387112794 -9.21554328771326 3.21077166667034
  endloop
endfacet
facet normal 1.0 1.0948817610123e-013 1.72252784426341e-015
  outer loop
    vertex -3.12521387112794 -9.2155432877133 4.08643666667034
    vertex -3.12521387113001 9.75719837895605 3.21077166667219
    vertex -3.12521387113002 9.757198378956 4.08643666667219
  endloop
endfacet
facet normal 1.09488176101213e-013 -1.0 -5.071498776487e-014
  outer loop
    vertex -3.12521387113002 9.757198378956 4.08643666667219
    vertex 3.88010612886952 9.75719837895682 3.21077166667131
    vertex 3.88010612886952 9.75719837895677 4.08643666667131
  endloop
endfacet
facet normal 1.09488176101213e-013 -1.0 -5.071498776487e-014
  outer loop
    vertex 3.88010612886952 9.75719837895682 3.21077166667131
    vertex -3.12521387113002 9.757198378956 4.08643666667219
    vertex -3.12521387113001 9.75719837895605 3.21077166667219
  endloop
endfacet
facet normal 2.51201977295629e-016 -5.10028025439133e-014 1.0
  outer loop
    vertex 20.6262993621402 -11.550649954379 4.0864366666712
    vertex 18.8749693621399 -9.21554328771254 4.08643666667124
    vertex 10.1183193621406 -11.5506499543802 4.08643666667003
  endloop
endfacet
facet normal 2.51201977295629e-016 -5.10028025439133e-014 1.0
  outer loop
    vertex 18.8749693621399 -9.21554328771254 4.08643666667124
    vertex 20.6262993621402 -11.550649954379 4.0864366666712
    vertex 20.6262993621377 11.5085283789569 4.08643666667121
  endloop
endfacet
facet normal 2.51201977295629e-016 -5.10028025439133e-014 1.0
  outer loop
    vertex 18.8749693621399 -9.21554328771254 4.08643666667124
    vertex 20.6262993621377 11.5085283789569 4.08643666667121
    vertex 18.8749693621378 9.75719837895676 4.08643666667131
  endloop
endfacet
facet normal 2.51201977295629e-016 -5.10028025439133e-014 1.0
  outer loop
    vertex 18.8749693621378 9.75719837895676 4.08643666667131
    vertex 20.6262993621377 11.5085283789569 4.08643666667121
    vertex 11.8696493621383 9.75719837895599 4.08643666667219
  endloop
endfacet
facet normal 2.51201977295629e-016 -5.10028025439133e-014 1.0
  outer loop
    vertex 10.1183193621406 -11.5506499543802 4.08643666667003
    vertex 11.8696493621404 -9.21554328771331 4.08643666667034
    vertex 10.1183193621381 11.5085283789558 4.08643666667238
  endloop
endfacet
facet normal 2.51201977295629e-016 -5.10028025439133e-014 1.0
  outer loop
    vertex 11.8696493621404 -9.21554328771331 4.08643666667034
    vertex 10.1183193621406 -11.5506499543802 4.08643666667003
    vertex 18.8749693621399 -9.21554328771254 4.08643666667124
  endloop
endfacet
facet normal 2.51201977295629e-016 -5.10028025439133e-014 1.0
  outer loop
    vertex 10.1183193621381 11.5085283789558 4.08643666667238
    vertex 11.8696493621404 -9.21554328771331 4.08643666667034
    vertex 11.8696493621383 9.75719837895599 4.08643666667219
  endloop
endfacet
facet normal 2.51201977295629e-016 -5.10028025439133e-014 1.0
  outer loop
    vertex 10.1183193621381 11.5085283789558 4.08643666667238
    vertex 11.8696493621383 9.75719837895599 4.08643666667219
    vertex 20.6262993621377 11.5085283789569 4.08643666667121
  endloop
endfacet
facet normal -1.0 -1.09488176101231e-013 1.04146562820038e-015
  outer loop
    vertex 10.1183193621406 -11.5506499543802 4.08643666667003
    vertex 10.1183193621381 11.508528378956 1.1675533333345
    vertex 10.1183193621406 -11.55064995438 1.16755333333215
  endloop
endfacet
facet normal -1.0 -1.09488176101231e-013 1.04146562820038e-015
  outer loop
    vertex 10.1183193621381 11.508528378956 1.1675533333345
    vertex 10.1183193621406 -11.5506499543802 4.08643666667003
    vertex 10.1183193621381 11.5085283789558 4.08643666667238
  endloop
endfacet
facet normal -1.09488176101214e-013 1.0 5.21360732363155e-014
  outer loop
    vertex 20.6262993621377 11.5085283789571 1.16755333333333
    vertex 10.1183193621381 11.5085283789558 4.08643666667238
    vertex 20.6262993621377 11.5085283789569 4.08643666667121
  endloop
endfacet
facet normal -1.09488176101214e-013 1.0 5.21360732363155e-014
  outer loop
    vertex 10.1183193621381 11.5085283789558 4.08643666667238
    vertex 20.6262993621377 11.5085283789571 1.16755333333333
    vertex 10.1183193621381 11.508528378956 1.1675533333345
  endloop
endfacet
facet normal 1.0 1.0948817610122e-013 -1.35649067718381e-015
  outer loop
    vertex 20.6262993621377 11.5085283789571 1.16755333333333
    vertex 20.6262993621402 -11.550649954379 4.0864366666712
    vertex 20.6262993621402 -11.5506499543789 1.16755333333332
  endloop
endfacet
facet normal 1.0 1.0948817610122e-013 -1.35649067718381e-015
  outer loop
    vertex 20.6262993621402 -11.550649954379 4.0864366666712
    vertex 20.6262993621377 11.5085283789571 1.16755333333333
    vertex 20.6262993621377 11.5085283789569 4.08643666667121
  endloop
endfacet
facet normal 1.0072950575076e-016 -5.10851319636492e-014 1.0
  outer loop
    vertex 21.7938526954709 12.6760817122906 1.16755333333333
    vertex 20.6262993621402 -11.5506499543789 1.16755333333332
    vertex 21.7938526954735 -11.5506499543787 1.16755333333345
  endloop
endfacet
facet normal 1.0072950575076e-016 -5.10851319636492e-014 1.0
  outer loop
    vertex 20.6262993621402 -11.5506499543789 1.16755333333332
    vertex 21.7938526954709 12.6760817122906 1.16755333333333
    vertex 20.6262993621377 11.5085283789571 1.16755333333333
  endloop
endfacet
facet normal 1.0072950575076e-016 -5.10851319636492e-014 1.0
  outer loop
    vertex 20.6262993621377 11.5085283789571 1.16755333333333
    vertex 21.7938526954709 12.6760817122906 1.16755333333333
    vertex 10.1183193621381 11.508528378956 1.1675533333345
  endloop
endfacet
facet normal 1.0072950575076e-016 -5.10851319636492e-014 1.0
  outer loop
    vertex 10.1183193621381 11.508528378956 1.1675533333345
    vertex 8.95076602880731 -11.5506499543801 1.16755333333209
    vertex 10.1183193621406 -11.55064995438 1.16755333333215
  endloop
endfacet
facet normal 1.0072950575076e-016 -5.10851319636492e-014 1.0
  outer loop
    vertex 8.95076602880731 -11.5506499543801 1.16755333333209
    vertex 10.1183193621381 11.508528378956 1.1675533333345
    vertex 8.95076602880466 12.6760817122892 1.16755333333469
  endloop
endfacet
facet normal 1.0072950575076e-016 -5.10851319636492e-014 1.0
  outer loop
    vertex 8.95076602880466 12.6760817122892 1.16755333333469
    vertex 10.1183193621381 11.508528378956 1.1675533333345
    vertex 21.7938526954709 12.6760817122906 1.16755333333333
  endloop
endfacet
facet normal 1.0 1.09488176101219e-013 -2.57423790681258e-028
  outer loop
    vertex 21.7938526954709 12.6760817122906 1.16755333333333
    vertex 21.7938526954735 -11.5506499543787 1.14069524196704e-013
    vertex 21.7938526954709 12.6760817122906 -4.53685607602069e-015
  endloop
endfacet
facet normal 1.0 1.09488176101219e-013 -2.57423790681258e-028
  outer loop
    vertex 21.7938526954735 -11.5506499543787 1.14069524196704e-013
    vertex 21.7938526954709 12.6760817122906 1.16755333333333
    vertex 21.7938526954735 -11.5506499543787 1.16755333333345
  endloop
endfacet
facet normal -1.09488176101214e-013 1.0 5.10090054486346e-014
  outer loop
    vertex 21.7938526954709 12.6760817122906 -4.53685607602069e-015
    vertex 8.95076602880466 12.6760817122892 1.16755333333469
    vertex 21.7938526954709 12.6760817122906 1.16755333333333
  endloop
endfacet
facet normal -1.09488176101214e-013 1.0 5.10090054486346e-014
  outer loop
    vertex 8.95076602880466 12.6760817122892 1.16755333333469
    vertex 21.7938526954709 12.6760817122906 -4.53685607602069e-015
    vertex 8.95076602880466 12.6760817122892 1.3518534861904e-012
  endloop
endfacet
facet normal -1.0 -1.09488176101231e-013 2.57423790681263e-028
  outer loop
    vertex 8.95076602880731 -11.5506499543801 1.16755333333209
    vertex 8.95076602880466 12.6760817122892 1.3518534861904e-012
    vertex 8.95076602880731 -11.5506499543801 -1.24232081806972e-012
  endloop
endfacet
facet normal -1.0 -1.09488176101231e-013 2.57423790681263e-028
  outer loop
    vertex 8.95076602880466 12.6760817122892 1.3518534861904e-012
    vertex 8.95076602880731 -11.5506499543801 1.16755333333209
    vertex 8.95076602880466 12.6760817122892 1.16755333333469
  endloop
endfacet
facet normal 1.09488176101225e-013 -1.0 -5.10702591327572e-014
  outer loop
    vertex 10.1183193621406 -11.5506499543802 4.08643666667003
    vertex 20.6262993621402 -11.5506499543789 1.16755333333332
    vertex 20.6262993621402 -11.550649954379 4.0864366666712
  endloop
endfacet
facet normal 1.09488176101225e-013 -1.0 -5.10702591327572e-014
  outer loop
    vertex 20.6262993621402 -11.5506499543789 1.16755333333332
    vertex 21.7938526954735 -11.5506499543787 1.14069524196704e-013
    vertex 21.7938526954735 -11.5506499543787 1.16755333333345
  endloop
endfacet
facet normal 1.09488176101225e-013 -1.0 -5.10702591327572e-014
  outer loop
    vertex 21.7938526954735 -11.5506499543787 1.14069524196704e-013
    vertex 20.6262993621402 -11.5506499543789 1.16755333333332
    vertex 8.95076602880731 -11.5506499543801 -1.24232081806972e-012
  endloop
endfacet
facet normal 1.09488176101225e-013 -1.0 -5.10702591327572e-014
  outer loop
    vertex 8.95076602880731 -11.5506499543801 -1.24232081806972e-012
    vertex 20.6262993621402 -11.5506499543789 1.16755333333332
    vertex 10.1183193621406 -11.55064995438 1.16755333333215
  endloop
endfacet
facet normal 1.09488176101225e-013 -1.0 -5.10702591327572e-014
  outer loop
    vertex 10.1183193621406 -11.55064995438 1.16755333333215
    vertex 20.6262993621402 -11.5506499543789 1.16755333333332
    vertex 10.1183193621406 -11.5506499543802 4.08643666667003
  endloop
endfacet
facet normal 1.09488176101225e-013 -1.0 -5.10702591327572e-014
  outer loop
    vertex 8.95076602880731 -11.5506499543801 -1.24232081806972e-012
    vertex 10.1183193621406 -11.55064995438 1.16755333333215
    vertex 8.95076602880731 -11.5506499543801 1.16755333333209
  endloop
endfacet
facet normal 2.78527552836953e-014 5.17765214905884e-014 -1.0
  outer loop
    vertex 8.95076602880466 12.6760817122892 1.3518534861904e-012
    vertex 21.7938526954735 -11.5506499543787 1.14069524196704e-013
    vertex 8.95076602880731 -11.5506499543801 -1.24232081806972e-012
  endloop
endfacet
facet normal 2.78527552836953e-014 5.17765214905884e-014 -1.0
  outer loop
    vertex 21.7938526954735 -11.5506499543787 1.14069524196704e-013
    vertex 8.95076602880466 12.6760817122892 1.3518534861904e-012
    vertex 21.7938526954709 12.6760817122906 -4.53685607602069e-015
  endloop
endfacet
facet normal -1.09488176101226e-013 1.0 5.07149877648701e-014
  outer loop
    vertex 18.8749693621399 -9.21554328771249 3.21077166667124
    vertex 11.8696493621404 -9.21554328771331 4.08643666667034
    vertex 18.8749693621399 -9.21554328771254 4.08643666667124
  endloop
endfacet
facet normal -1.09488176101226e-013 1.0 5.07149877648701e-014
  outer loop
    vertex 11.8696493621404 -9.21554328771331 4.08643666667034
    vertex 18.8749693621399 -9.21554328771249 3.21077166667124
    vertex 11.8696493621404 -9.21554328771326 3.21077166667034
  endloop
endfacet
facet normal -1.0 -1.0948817610122e-013 -1.72252784426346e-015
  outer loop
    vertex 18.8749693621399 -9.21554328771254 4.08643666667124
    vertex 18.8749693621379 9.7571983789568 3.21077166667131
    vertex 18.8749693621399 -9.21554328771249 3.21077166667124
  endloop
endfacet
facet normal -1.0 -1.0948817610122e-013 -1.72252784426346e-015
  outer loop
    vertex 18.8749693621379 9.7571983789568 3.21077166667131
    vertex 18.8749693621399 -9.21554328771254 4.08643666667124
    vertex 18.8749693621378 9.75719837895676 4.08643666667131
  endloop
endfacet
facet normal -1.72252784425791e-015 -5.07149877648702e-014 1.0
  outer loop
    vertex 18.8749693621379 9.7571983789568 3.21077166667131
    vertex 11.8696493621404 -9.21554328771326 3.21077166667034
    vertex 18.8749693621399 -9.21554328771249 3.21077166667124
  endloop
endfacet
facet normal -1.72252784425791e-015 -5.07149877648702e-014 1.0
  outer loop
    vertex 11.8696493621404 -9.21554328771326 3.21077166667034
    vertex 18.8749693621379 9.7571983789568 3.21077166667131
    vertex 11.8696493621383 9.75719837895604 3.21077166667219
  endloop
endfacet
facet normal 1.0 1.0948817610123e-013 1.72252784426346e-015
  outer loop
    vertex 11.8696493621383 9.75719837895604 3.21077166667219
    vertex 11.8696493621404 -9.21554328771331 4.08643666667034
    vertex 11.8696493621404 -9.21554328771326 3.21077166667034
  endloop
endfacet
facet normal 1.0 1.0948817610123e-013 1.72252784426346e-015
  outer loop
    vertex 11.8696493621404 -9.21554328771331 4.08643666667034
    vertex 11.8696493621383 9.75719837895604 3.21077166667219
    vertex 11.8696493621383 9.75719837895599 4.08643666667219
  endloop
endfacet
facet normal 1.09488176101213e-013 -1.0 -5.07149877648701e-014
  outer loop
    vertex 11.8696493621383 9.75719837895599 4.08643666667219
    vertex 18.8749693621379 9.7571983789568 3.21077166667131
    vertex 18.8749693621378 9.75719837895676 4.08643666667131
  endloop
endfacet
facet normal 1.09488176101213e-013 -1.0 -5.07149877648701e-014
  outer loop
    vertex 18.8749693621379 9.7571983789568 3.21077166667131
    vertex 11.8696493621383 9.75719837895599 4.08643666667219
    vertex 11.8696493621383 9.75719837895604 3.21077166667219
  endloop
endfacet
facet normal 2.51201977295629e-016 -5.10028025439133e-014 1.0
  outer loop
    vertex 35.6211625954085 -11.550649954379 4.0864366666712
    vertex 33.8698325954082 -9.21554328771254 4.08643666667124
    vertex 25.113182595409 -11.5506499543802 4.08643666667003
  endloop
endfacet
facet normal 2.51201977295629e-016 -5.10028025439133e-014 1.0
  outer loop
    vertex 33.8698325954082 -9.21554328771254 4.08643666667124
    vertex 35.6211625954085 -11.550649954379 4.0864366666712
    vertex 35.621162595406 11.5085283789569 4.08643666667121
  endloop
endfacet
facet normal 2.51201977295629e-016 -5.10028025439133e-014 1.0
  outer loop
    vertex 33.8698325954082 -9.21554328771254 4.08643666667124
    vertex 35.621162595406 11.5085283789569 4.08643666667121
    vertex 33.8698325954062 9.75719837895676 4.08643666667131
  endloop
endfacet
facet normal 2.51201977295629e-016 -5.10028025439133e-014 1.0
  outer loop
    vertex 33.8698325954062 9.75719837895676 4.08643666667131
    vertex 35.621162595406 11.5085283789569 4.08643666667121
    vertex 26.8645125954066 9.75719837895599 4.08643666667219
  endloop
endfacet
facet normal 2.51201977295629e-016 -5.10028025439133e-014 1.0
  outer loop
    vertex 25.113182595409 -11.5506499543802 4.08643666667003
    vertex 26.8645125954087 -9.21554328771331 4.08643666667034
    vertex 25.1131825954064 11.5085283789558 4.08643666667238
  endloop
endfacet
facet normal 2.51201977295629e-016 -5.10028025439133e-014 1.0
  outer loop
    vertex 26.8645125954087 -9.21554328771331 4.08643666667034
    vertex 25.113182595409 -11.5506499543802 4.08643666667003
    vertex 33.8698325954082 -9.21554328771254 4.08643666667124
  endloop
endfacet
facet normal 2.51201977295629e-016 -5.10028025439133e-014 1.0
  outer loop
    vertex 25.1131825954064 11.5085283789558 4.08643666667238
    vertex 26.8645125954087 -9.21554328771331 4.08643666667034
    vertex 26.8645125954066 9.75719837895599 4.08643666667219
  endloop
endfacet
facet normal 2.51201977295629e-016 -5.10028025439133e-014 1.0
  outer loop
    vertex 25.1131825954064 11.5085283789558 4.08643666667238
    vertex 26.8645125954066 9.75719837895599 4.08643666667219
    vertex 35.621162595406 11.5085283789569 4.08643666667121
  endloop
endfacet
facet normal -1.0 -1.09488176101231e-013 1.04146562820038e-015
  outer loop
    vertex 25.113182595409 -11.5506499543802 4.08643666667003
    vertex 25.1131825954064 11.508528378956 1.1675533333345
    vertex 25.113182595409 -11.55064995438 1.16755333333215
  endloop
endfacet
facet normal -1.0 -1.09488176101231e-013 1.04146562820038e-015
  outer loop
    vertex 25.1131825954064 11.508528378956 1.1675533333345
    vertex 25.113182595409 -11.5506499543802 4.08643666667003
    vertex 25.1131825954064 11.5085283789558 4.08643666667238
  endloop
endfacet
facet normal -1.09488176101214e-013 1.0 5.21360732363155e-014
  outer loop
    vertex 35.621162595406 11.5085283789571 1.16755333333333
    vertex 25.1131825954064 11.5085283789558 4.08643666667238
    vertex 35.621162595406 11.5085283789569 4.08643666667121
  endloop
endfacet
facet normal -1.09488176101214e-013 1.0 5.21360732363155e-014
  outer loop
    vertex 25.1131825954064 11.5085283789558 4.08643666667238
    vertex 35.621162595406 11.5085283789571 1.16755333333333
    vertex 25.1131825954064 11.508528378956 1.1675533333345
  endloop
endfacet
facet normal 1.0 1.0948817610122e-013 -1.35649067718381e-015
  outer loop
    vertex 35.621162595406 11.5085283789571 1.16755333333333
    vertex 35.6211625954085 -11.550649954379 4.0864366666712
    vertex 35.6211625954085 -11.5506499543789 1.16755333333332
  endloop
endfacet
facet normal 1.0 1.0948817610122e-013 -1.35649067718381e-015
  outer loop
    vertex 35.6211625954085 -11.550649954379 4.0864366666712
    vertex 35.621162595406 11.5085283789571 1.16755333333333
    vertex 35.621162595406 11.5085283789569 4.08643666667121
  endloop
endfacet
facet normal 1.0072950575076e-016 -5.10851319636492e-014 1.0
  outer loop
    vertex 36.7887159287392 12.6760817122906 1.16755333333333
    vertex 35.6211625954085 -11.5506499543789 1.16755333333332
    vertex 36.7887159287418 -11.5506499543787 1.16755333333345
  endloop
endfacet
facet normal 1.0072950575076e-016 -5.10851319636492e-014 1.0
  outer loop
    vertex 35.6211625954085 -11.5506499543789 1.16755333333332
    vertex 36.7887159287392 12.6760817122906 1.16755333333333
    vertex 35.621162595406 11.5085283789571 1.16755333333333
  endloop
endfacet
facet normal 1.0072950575076e-016 -5.10851319636492e-014 1.0
  outer loop
    vertex 35.621162595406 11.5085283789571 1.16755333333333
    vertex 36.7887159287392 12.6760817122906 1.16755333333333
    vertex 25.1131825954064 11.508528378956 1.1675533333345
  endloop
endfacet
facet normal 1.0072950575076e-016 -5.10851319636492e-014 1.0
  outer loop
    vertex 25.1131825954064 11.508528378956 1.1675533333345
    vertex 23.9456292620756 -11.5506499543801 1.16755333333209
    vertex 25.113182595409 -11.55064995438 1.16755333333215
  endloop
endfacet
facet normal 1.0072950575076e-016 -5.10851319636492e-014 1.0
  outer loop
    vertex 23.9456292620756 -11.5506499543801 1.16755333333209
    vertex 25.1131825954064 11.508528378956 1.1675533333345
    vertex 23.945629262073 12.6760817122892 1.16755333333469
  endloop
endfacet
facet normal 1.0072950575076e-016 -5.10851319636492e-014 1.0
  outer loop
    vertex 23.945629262073 12.6760817122892 1.16755333333469
    vertex 25.1131825954064 11.508528378956 1.1675533333345
    vertex 36.7887159287392 12.6760817122906 1.16755333333333
  endloop
endfacet
facet normal 1.0 1.09488176101219e-013 -2.57423790681258e-028
  outer loop
    vertex 36.7887159287392 12.6760817122906 1.16755333333333
    vertex 36.7887159287418 -11.5506499543787 1.14069524196704e-013
    vertex 36.7887159287392 12.6760817122906 -4.53685607602069e-015
  endloop
endfacet
facet normal 1.0 1.09488176101219e-013 -2.57423790681258e-028
  outer loop
    vertex 36.7887159287418 -11.5506499543787 1.14069524196704e-013
    vertex 36.7887159287392 12.6760817122906 1.16755333333333
    vertex 36.7887159287418 -11.5506499543787 1.16755333333345
  endloop
endfacet
facet normal -1.09488176101214e-013 1.0 5.10090054486346e-014
  outer loop
    vertex 36.7887159287392 12.6760817122906 -4.53685607602069e-015
    vertex 23.945629262073 12.6760817122892 1.16755333333469
    vertex 36.7887159287392 12.6760817122906 1.16755333333333
  endloop
endfacet
facet normal -1.09488176101214e-013 1.0 5.10090054486346e-014
  outer loop
    vertex 23.945629262073 12.6760817122892 1.16755333333469
    vertex 36.7887159287392 12.6760817122906 -4.53685607602069e-015
    vertex 23.945629262073 12.6760817122892 1.3518534861904e-012
  endloop
endfacet
facet normal -1.0 -1.09488176101231e-013 2.57423790681263e-028
  outer loop
    vertex 23.9456292620756 -11.5506499543801 1.16755333333209
    vertex 23.945629262073 12.6760817122892 1.3518534861904e-012
    vertex 23.9456292620756 -11.5506499543801 -1.24232081806972e-012
  endloop
endfacet
facet normal -1.0 -1.09488176101231e-013 2.57423790681263e-028
  outer loop
    vertex 23.945629262073 12.6760817122892 1.3518534861904e-012
    vertex 23.9456292620756 -11.5506499543801 1.16755333333209
    vertex 23.945629262073 12.6760817122892 1.16755333333469
  endloop
endfacet
facet normal 1.09488176101225e-013 -1.0 -5.10702591327572e-014
  outer loop
    vertex 25.113182595409 -11.5506499543802 4.08643666667003
    vertex 35.6211625954085 -11.5506499543789 1.16755333333332
    vertex 35.6211625954085 -11.550649954379 4.0864366666712
  endloop
endfacet
facet normal 1.09488176101225e-013 -1.0 -5.10702591327572e-014
  outer loop
    vertex 35.6211625954085 -11.5506499543789 1.16755333333332
    vertex 36.7887159287418 -11.5506499543787 1.14069524196704e-013
    vertex 36.7887159287418 -11.5506499543787 1.16755333333345
  endloop
endfacet
facet normal 1.09488176101225e-013 -1.0 -5.10702591327572e-014
  outer loop
    vertex 36.7887159287418 -11.5506499543787 1.14069524196704e-013
    vertex 35.6211625954085 -11.5506499543789 1.16755333333332
    vertex 23.9456292620756 -11.5506499543801 -1.24232081806972e-012
  endloop
endfacet
facet normal 1.09488176101225e-013 -1.0 -5.10702591327572e-014
  outer loop
    vertex 23.9456292620756 -11.5506499543801 -1.24232081806972e-012
    vertex 35.6211625954085 -11.5506499543789 1.16755333333332
    vertex 25.113182595409 -11.55064995438 1.16755333333215
  endloop
endfacet
facet normal 1.09488176101225e-013 -1.0 -5.10702591327572e-014
  outer loop
    vertex 25.113182595409 -11.55064995438 1.16755333333215
    vertex 35.6211625954085 -11.5506499543789 1.16755333333332
    vertex 25.113182595409 -11.5506499543802 4.08643666667003
  endloop
endfacet
facet normal 1.09488176101225e-013 -1.0 -5.10702591327572e-014
  outer loop
    vertex 23.9456292620756 -11.5506499543801 -1.24232081806972e-012
    vertex 25.113182595409 -11.55064995438 1.16755333333215
    vertex 23.9456292620756 -11.5506499543801 1.16755333333209
  endloop
endfacet
facet normal 2.78527552836953e-014 5.17765214905884e-014 -1.0
  outer loop
    vertex 23.945629262073 12.6760817122892 1.3518534861904e-012
    vertex 36.7887159287418 -11.5506499543787 1.14069524196704e-013
    vertex 23.9456292620756 -11.5506499543801 -1.24232081806972e-012
  endloop
endfacet
facet normal 2.78527552836953e-014 5.17765214905884e-014 -1.0
  outer loop
    vertex 36.7887159287418 -11.5506499543787 1.14069524196704e-013
    vertex 23.945629262073 12.6760817122892 1.3518534861904e-012
    vertex 36.7887159287392 12.6760817122906 -4.53685607602069e-015
  endloop
endfacet
facet normal -1.09488176101226e-013 1.0 5.07149877648701e-014
  outer loop
    vertex 33.8698325954083 -9.21554328771249 3.21077166667124
    vertex 26.8645125954087 -9.21554328771331 4.08643666667034
    vertex 33.8698325954082 -9.21554328771254 4.08643666667124
  endloop
endfacet
facet normal -1.09488176101226e-013 1.0 5.07149877648701e-014
  outer loop
    vertex 26.8645125954087 -9.21554328771331 4.08643666667034
    vertex 33.8698325954083 -9.21554328771249 3.21077166667124
    vertex 26.8645125954087 -9.21554328771326 3.21077166667034
  endloop
endfacet
facet normal -1.0 -1.0948817610122e-013 -1.72252784426346e-015
  outer loop
    vertex 33.8698325954082 -9.21554328771254 4.08643666667124
    vertex 33.8698325954062 9.7571983789568 3.21077166667131
    vertex 33.8698325954083 -9.21554328771249 3.21077166667124
  endloop
endfacet
facet normal -1.0 -1.0948817610122e-013 -1.72252784426346e-015
  outer loop
    vertex 33.8698325954062 9.7571983789568 3.21077166667131
    vertex 33.8698325954082 -9.21554328771254 4.08643666667124
    vertex 33.8698325954062 9.75719837895676 4.08643666667131
  endloop
endfacet
facet normal -1.72252784425791e-015 -5.07149877648702e-014 1.0
  outer loop
    vertex 33.8698325954062 9.7571983789568 3.21077166667131
    vertex 26.8645125954087 -9.21554328771326 3.21077166667034
    vertex 33.8698325954083 -9.21554328771249 3.21077166667124
  endloop
endfacet
facet normal -1.72252784425791e-015 -5.07149877648702e-014 1.0
  outer loop
    vertex 26.8645125954087 -9.21554328771326 3.21077166667034
    vertex 33.8698325954062 9.7571983789568 3.21077166667131
    vertex 26.8645125954066 9.75719837895604 3.21077166667219
  endloop
endfacet
facet normal 1.0 1.0948817610123e-013 1.72252784426346e-015
  outer loop
    vertex 26.8645125954066 9.75719837895604 3.21077166667219
    vertex 26.8645125954087 -9.21554328771331 4.08643666667034
    vertex 26.8645125954087 -9.21554328771326 3.21077166667034
  endloop
endfacet
facet normal 1.0 1.0948817610123e-013 1.72252784426346e-015
  outer loop
    vertex 26.8645125954087 -9.21554328771331 4.08643666667034
    vertex 26.8645125954066 9.75719837895604 3.21077166667219
    vertex 26.8645125954066 9.75719837895599 4.08643666667219
  endloop
endfacet
facet normal 1.09488176101213e-013 -1.0 -5.07149877648701e-014
  outer loop
    vertex 26.8645125954066 9.75719837895599 4.08643666667219
    vertex 33.8698325954062 9.7571983789568 3.21077166667131
    vertex 33.8698325954062 9.75719837895676 4.08643666667131
  endloop
endfacet
facet normal 1.09488176101213e-013 -1.0 -5.07149877648701e-014
  outer loop
    vertex 33.8698325954062 9.7571983789568 3.21077166667131
    vertex 26.8645125954066 9.75719837895599 4.08643666667219
    vertex 26.8645125954066 9.75719837895604 3.21077166667219
  endloop
endfacet
endsolid Untitled-5f8f82bb
