solid Untitled-5f7b4d46
facet normal -1.31918092924756e-016 -9.85322934354827e-016 -1.0
  outer loop
    vertex 11.5295891666666 21.2121914727231 1.19848575508286e-014
    vertex 19.1186858333333 14.1565841666667 1.79772863262428e-014
    vertex 11.5295891666666 14.1565841666667 1.90347737571983e-014
  endloop
endfacet
facet normal -1.31918092924756e-016 -9.85322934354827e-016 -1.0
  outer loop
    vertex 19.1186858333333 14.1565841666667 1.79772863262428e-014
    vertex 11.5295891666666 21.2121914727231 1.19848575508286e-014
    vertex 19.1186858333333 21.212191472723 1.09273701198731e-014
  endloop
endfacet
facet normal -1.31918092924756e-016 -9.85322934354827e-016 -1.0
  outer loop
    vertex 19.1186858333333 21.212191472723 1.09273701198731e-014
    vertex 11.5295891666666 21.2121914727231 1.19848575508286e-014
    vertex 18.9893897342688 22.1942928489517 9.86988268891764e-015
  endloop
endfacet
facet normal -1.31918092924756e-016 -9.85322934354827e-016 -1.0
  outer loop
    vertex 18.9893897342688 22.1942928489517 9.86988268891764e-015
    vertex 11.5295891666666 21.2121914727231 1.19848575508286e-014
    vertex 11.6588852657312 22.1942928489518 1.09273701198731e-014
  endloop
endfacet
facet normal -1.31918092924756e-016 -9.85322934354827e-016 -1.0
  outer loop
    vertex 18.9893897342688 22.1942928489517 9.86988268891764e-015
    vertex 11.6588852657312 22.1942928489518 1.09273701198731e-014
    vertex 18.6103127525546 23.1094656393897 9.16489106828067e-015
  endloop
endfacet
facet normal -1.31918092924756e-016 -9.85322934354827e-016 -1.0
  outer loop
    vertex 18.6103127525546 23.1094656393897 9.16489106828067e-015
    vertex 11.6588852657312 22.1942928489518 1.09273701198731e-014
    vertex 12.0379622474454 23.1094656393897 1.02223784992361e-014
  endloop
endfacet
facet normal -1.31918092924756e-016 -9.85322934354827e-016 -1.0
  outer loop
    vertex 18.6103127525546 23.1094656393897 9.16489106828067e-015
    vertex 12.0379622474454 23.1094656393897 1.02223784992361e-014
    vertex 18.0072883580401 23.8953423307631 8.81239525796218e-015
  endloop
endfacet
facet normal -1.31918092924756e-016 -9.85322934354827e-016 -1.0
  outer loop
    vertex 18.0072883580401 23.8953423307631 8.81239525796218e-015
    vertex 12.0379622474454 23.1094656393897 1.02223784992361e-014
    vertex 12.6409866419599 23.8953423307632 9.51738687859915e-015
  endloop
endfacet
facet normal -1.31918092924756e-016 -9.85322934354827e-016 -1.0
  outer loop
    vertex 18.0072883580401 23.8953423307631 8.81239525796218e-015
    vertex 12.6409866419599 23.8953423307632 9.51738687859915e-015
    vertex 17.2214116666667 24.4983667252776 8.1074036373252e-015
  endloop
endfacet
facet normal -1.31918092924756e-016 -9.85322934354827e-016 -1.0
  outer loop
    vertex 17.2214116666667 24.4983667252776 8.1074036373252e-015
    vertex 12.6409866419599 23.8953423307632 9.51738687859915e-015
    vertex 13.4268633333333 24.4983667252776 8.45989944764369e-015
  endloop
endfacet
facet normal -1.31918092924756e-016 -9.85322934354827e-016 -1.0
  outer loop
    vertex 17.2214116666667 24.4983667252776 8.1074036373252e-015
    vertex 13.4268633333333 24.4983667252776 8.45989944764369e-015
    vertex 16.3062388762287 24.8774437069919 7.75490782700672e-015
  endloop
endfacet
facet normal -1.31918092924756e-016 -9.85322934354827e-016 -1.0
  outer loop
    vertex 16.3062388762287 24.8774437069919 7.75490782700672e-015
    vertex 13.4268633333333 24.4983667252776 8.45989944764369e-015
    vertex 14.3420361237713 24.8774437069919 8.1074036373252e-015
  endloop
endfacet
facet normal -1.31918092924756e-016 -9.85322934354827e-016 -1.0
  outer loop
    vertex 16.3062388762287 24.8774437069919 7.75490782700672e-015
    vertex 14.3420361237713 24.8774437069919 8.1074036373252e-015
    vertex 15.3241375 25.0067398060564 8.1074036373252e-015
  endloop
endfacet
facet normal 1.0 1.03295968681346e-015 -1.22506076332491e-015
  outer loop
    vertex 19.1186858333333 2.33510666666669 4.58244553414033e-015
    vertex 19.1186858333333 13.2809191666667 2.3351066666667
    vertex 19.1186858333333 2.33510666666669 2.33510666666671
  endloop
endfacet
facet normal 1.0 1.03295968681346e-015 -1.22506076332491e-015
  outer loop
    vertex 19.1186858333333 13.2809191666667 2.3351066666667
    vertex 19.1186858333333 2.33510666666669 4.58244553414033e-015
    vertex 19.1186858333333 13.2809191666667 -6.34492458573277e-015
  endloop
endfacet
facet normal 1.22506076332491e-015 1.74323518583227e-015 1.0
  outer loop
    vertex 19.1186858333333 13.2809191666667 2.3351066666667
    vertex 11.5295891666667 2.33510666666668 2.33510666666673
    vertex 19.1186858333333 2.33510666666669 2.33510666666671
  endloop
endfacet
facet normal 1.22506076332491e-015 1.74323518583227e-015 1.0
  outer loop
    vertex 11.5295891666667 2.33510666666668 2.33510666666673
    vertex 19.1186858333333 13.2809191666667 2.3351066666667
    vertex 11.5295891666666 13.2809191666667 2.3351066666667
  endloop
endfacet
facet normal -1.03295968681347e-015 1.0 -1.74323518583227e-015
  outer loop
    vertex 19.1186858333333 13.2809191666667 2.3351066666667
    vertex 11.5295891666666 13.2809191666667 -5.28743715477731e-015
    vertex 11.5295891666666 13.2809191666667 2.3351066666667
  endloop
endfacet
facet normal -1.03295968681347e-015 1.0 -1.74323518583227e-015
  outer loop
    vertex 11.5295891666666 13.2809191666667 -5.28743715477731e-015
    vertex 19.1186858333333 13.2809191666667 2.3351066666667
    vertex 19.1186858333333 13.2809191666667 -6.34492458573277e-015
  endloop
endfacet
facet normal -1.0 -1.03295968681346e-015 1.22506076332491e-015
  outer loop
    vertex 11.5295891666666 13.2809191666667 2.3351066666667
    vertex 11.5295891666667 2.33510666666668 2.22072360500647e-014
    vertex 11.5295891666667 2.33510666666668 2.33510666666673
  endloop
endfacet
facet normal -1.0 -1.03295968681346e-015 1.22506076332491e-015
  outer loop
    vertex 11.5295891666667 2.33510666666668 2.22072360500647e-014
    vertex 11.5295891666666 13.2809191666667 2.3351066666667
    vertex 11.5295891666666 13.2809191666667 -5.28743715477731e-015
  endloop
endfacet
facet normal 1.03295968681347e-015 -1.0 1.74323518583227e-015
  outer loop
    vertex 19.1186858333333 2.33510666666669 4.58244553414033e-015
    vertex 11.5295891666667 2.33510666666668 2.33510666666673
    vertex 11.5295891666667 2.33510666666668 2.22072360500647e-014
  endloop
endfacet
facet normal 1.03295968681347e-015 -1.0 1.74323518583227e-015
  outer loop
    vertex 11.5295891666667 2.33510666666668 2.33510666666673
    vertex 19.1186858333333 2.33510666666669 4.58244553414033e-015
    vertex 19.1186858333333 2.33510666666669 2.33510666666671
  endloop
endfacet
facet normal 1.31918092924756e-016 9.85322934354827e-016 1.0
  outer loop
    vertex 19.1186858333333 21.212191472723 2.33510666666668
    vertex 11.5295891666666 14.1565841666667 2.33510666666669
    vertex 19.1186858333333 14.1565841666667 2.33510666666668
  endloop
endfacet
facet normal 1.31918092924756e-016 9.85322934354827e-016 1.0
  outer loop
    vertex 11.5295891666666 14.1565841666667 2.33510666666669
    vertex 19.1186858333333 21.212191472723 2.33510666666668
    vertex 11.5295891666666 21.2121914727231 2.33510666666668
  endloop
endfacet
facet normal 1.31918092924756e-016 9.85322934354827e-016 1.0
  outer loop
    vertex 11.5295891666666 21.2121914727231 2.33510666666668
    vertex 19.1186858333333 21.212191472723 2.33510666666668
    vertex 18.9893897342688 22.1942928489517 2.33510666666668
  endloop
endfacet
facet normal 1.31918092924756e-016 9.85322934354827e-016 1.0
  outer loop
    vertex 11.5295891666666 21.2121914727231 2.33510666666668
    vertex 18.9893897342688 22.1942928489517 2.33510666666668
    vertex 11.6588852657312 22.1942928489518 2.33510666666668
  endloop
endfacet
facet normal 1.31918092924756e-016 9.85322934354827e-016 1.0
  outer loop
    vertex 11.6588852657312 22.1942928489518 2.33510666666668
    vertex 18.9893897342688 22.1942928489517 2.33510666666668
    vertex 18.6103127525546 23.1094656393897 2.33510666666668
  endloop
endfacet
facet normal 1.31918092924756e-016 9.85322934354827e-016 1.0
  outer loop
    vertex 11.6588852657312 22.1942928489518 2.33510666666668
    vertex 18.6103127525546 23.1094656393897 2.33510666666668
    vertex 12.0379622474454 23.1094656393898 2.33510666666668
  endloop
endfacet
facet normal 1.31918092924756e-016 9.85322934354827e-016 1.0
  outer loop
    vertex 12.0379622474454 23.1094656393898 2.33510666666668
    vertex 18.6103127525546 23.1094656393897 2.33510666666668
    vertex 18.0072883580401 23.8953423307631 2.33510666666667
  endloop
endfacet
facet normal 1.31918092924756e-016 9.85322934354827e-016 1.0
  outer loop
    vertex 12.0379622474454 23.1094656393898 2.33510666666668
    vertex 18.0072883580401 23.8953423307631 2.33510666666667
    vertex 12.6409866419599 23.8953423307632 2.33510666666668
  endloop
endfacet
facet normal 1.31918092924756e-016 9.85322934354827e-016 1.0
  outer loop
    vertex 12.6409866419599 23.8953423307632 2.33510666666668
    vertex 18.0072883580401 23.8953423307631 2.33510666666667
    vertex 17.2214116666667 24.4983667252776 2.33510666666667
  endloop
endfacet
facet normal 1.31918092924756e-016 9.85322934354827e-016 1.0
  outer loop
    vertex 12.6409866419599 23.8953423307632 2.33510666666668
    vertex 17.2214116666667 24.4983667252776 2.33510666666667
    vertex 13.4268633333333 24.4983667252776 2.33510666666667
  endloop
endfacet
facet normal 1.31918092924756e-016 9.85322934354827e-016 1.0
  outer loop
    vertex 13.4268633333333 24.4983667252776 2.33510666666667
    vertex 17.2214116666667 24.4983667252776 2.33510666666667
    vertex 16.3062388762287 24.8774437069919 2.33510666666667
  endloop
endfacet
facet normal 1.31918092924756e-016 9.85322934354827e-016 1.0
  outer loop
    vertex 13.4268633333333 24.4983667252776 2.33510666666667
    vertex 16.3062388762287 24.8774437069919 2.33510666666667
    vertex 14.3420361237713 24.8774437069919 2.33510666666667
  endloop
endfacet
facet normal 1.31918092924756e-016 9.85322934354827e-016 1.0
  outer loop
    vertex 14.3420361237713 24.8774437069919 2.33510666666667
    vertex 16.3062388762287 24.8774437069919 2.33510666666667
    vertex 15.3241375 25.0067398060564 2.33510666666667
  endloop
endfacet
facet normal 0.608761429008725 0.793353340291232 -8.6201588799694e-016
  outer loop
    vertex 18.0072883580401 23.8953423307631 2.33510666666667
    vertex 17.2214116666667 24.4983667252776 8.1074036373252e-015
    vertex 17.2214116666667 24.4983667252776 2.33510666666667
  endloop
endfacet
facet normal 0.608761429008725 0.793353340291232 -8.6201588799694e-016
  outer loop
    vertex 17.2214116666667 24.4983667252776 8.1074036373252e-015
    vertex 18.0072883580401 23.8953423307631 2.33510666666667
    vertex 18.0072883580401 23.8953423307631 8.81239525796218e-015
  endloop
endfacet
facet normal 0.382683432365108 0.923879532511279 -9.60802560555884e-016
  outer loop
    vertex 17.2214116666667 24.4983667252776 2.33510666666667
    vertex 16.3062388762287 24.8774437069919 7.75490782700672e-015
    vertex 16.3062388762287 24.8774437069919 2.33510666666667
  endloop
endfacet
facet normal 0.382683432365108 0.923879532511279 -9.60802560555884e-016
  outer loop
    vertex 16.3062388762287 24.8774437069919 7.75490782700672e-015
    vertex 17.2214116666667 24.4983667252776 2.33510666666667
    vertex 17.2214116666667 24.4983667252776 8.1074036373252e-015
  endloop
endfacet
facet normal 0.130526192220051 0.99144486137381 -9.94112126414256e-016
  outer loop
    vertex 16.3062388762287 24.8774437069919 2.33510666666667
    vertex 15.3241375 25.0067398060564 8.1074036373252e-015
    vertex 15.3241375 25.0067398060564 2.33510666666667
  endloop
endfacet
facet normal 0.130526192220051 0.99144486137381 -9.94112126414256e-016
  outer loop
    vertex 15.3241375 25.0067398060564 8.1074036373252e-015
    vertex 16.3062388762287 24.8774437069919 2.33510666666667
    vertex 16.3062388762287 24.8774437069919 7.75490782700672e-015
  endloop
endfacet
facet normal -0.130526192220036 0.991444861373812 -9.59674593705462e-016
  outer loop
    vertex 15.3241375 25.0067398060564 2.33510666666667
    vertex 14.3420361237713 24.8774437069919 8.1074036373252e-015
    vertex 14.3420361237713 24.8774437069919 2.33510666666667
  endloop
endfacet
facet normal -0.130526192220036 0.991444861373812 -9.59674593705462e-016
  outer loop
    vertex 14.3420361237713 24.8774437069919 8.1074036373252e-015
    vertex 15.3241375 25.0067398060564 2.33510666666667
    vertex 15.3241375 25.0067398060564 8.1074036373252e-015
  endloop
endfacet
facet normal -0.793353340291227 0.608761429008732 -4.95168937886218e-016
  outer loop
    vertex 12.6409866419599 23.8953423307632 9.51738687859915e-015
    vertex 12.0379622474454 23.1094656393898 2.33510666666668
    vertex 12.6409866419599 23.8953423307632 2.33510666666668
  endloop
endfacet
facet normal -0.793353340291227 0.608761429008732 -4.95168937886218e-016
  outer loop
    vertex 12.0379622474454 23.1094656393898 2.33510666666668
    vertex 12.6409866419599 23.8953423307632 9.51738687859915e-015
    vertex 12.0379622474454 23.1094656393897 1.02223784992361e-014
  endloop
endfacet
facet normal -1.0 -1.03295968681347e-015 1.31918092924757e-016
  outer loop
    vertex 11.5295891666666 21.2121914727231 1.19848575508286e-014
    vertex 11.5295891666666 14.1565841666667 2.33510666666669
    vertex 11.5295891666666 21.2121914727231 2.33510666666668
  endloop
endfacet
facet normal -1.0 -1.03295968681347e-015 1.31918092924757e-016
  outer loop
    vertex 11.5295891666666 14.1565841666667 2.33510666666669
    vertex 11.5295891666666 21.2121914727231 1.19848575508286e-014
    vertex 11.5295891666666 14.1565841666667 1.90347737571983e-014
  endloop
endfacet
facet normal 1.0 4.45060939316288e-016 -1.31918092924756e-016
  outer loop
    vertex 19.1186858333333 14.1565841666667 1.79772863262428e-014
    vertex 19.1186858333333 21.212191472723 2.33510666666668
    vertex 19.1186858333333 14.1565841666667 2.33510666666668
  endloop
endfacet
facet normal 1.0 4.45060939316288e-016 -1.31918092924756e-016
  outer loop
    vertex 19.1186858333333 21.212191472723 2.33510666666668
    vertex 19.1186858333333 14.1565841666667 1.79772863262428e-014
    vertex 19.1186858333333 21.212191472723 1.09273701198731e-014
  endloop
endfacet
facet normal -0.382683432365093 0.923879532511285 -8.59836823372882e-016
  outer loop
    vertex 14.3420361237713 24.8774437069919 2.33510666666667
    vertex 13.4268633333333 24.4983667252776 8.45989944764369e-015
    vertex 13.4268633333333 24.4983667252776 2.33510666666667
  endloop
endfacet
facet normal -0.382683432365093 0.923879532511285 -8.59836823372882e-016
  outer loop
    vertex 13.4268633333333 24.4983667252776 8.45989944764369e-015
    vertex 14.3420361237713 24.8774437069919 2.33510666666667
    vertex 14.3420361237713 24.8774437069919 8.1074036373252e-015
  endloop
endfacet
facet normal 0.991444861373812 0.13052619222004 -2.59399966080894e-016
  outer loop
    vertex 19.1186858333333 21.212191472723 1.09273701198731e-014
    vertex 18.9893897342688 22.1942928489517 2.33510666666668
    vertex 19.1186858333333 21.212191472723 2.33510666666668
  endloop
endfacet
facet normal 0.991444861373812 0.13052619222004 -2.59399966080894e-016
  outer loop
    vertex 18.9893897342688 22.1942928489517 2.33510666666668
    vertex 19.1186858333333 21.212191472723 1.09273701198731e-014
    vertex 18.9893897342688 22.1942928489517 9.86988268891764e-015
  endloop
endfacet
facet normal 1.03295968681347e-015 -1.0 9.85322934354826e-016
  outer loop
    vertex 19.1186858333333 14.1565841666667 1.79772863262428e-014
    vertex 11.5295891666666 14.1565841666667 2.33510666666669
    vertex 11.5295891666666 14.1565841666667 1.90347737571983e-014
  endloop
endfacet
facet normal 1.03295968681347e-015 -1.0 9.85322934354826e-016
  outer loop
    vertex 11.5295891666666 14.1565841666667 2.33510666666669
    vertex 19.1186858333333 14.1565841666667 1.79772863262428e-014
    vertex 19.1186858333333 14.1565841666667 2.33510666666668
  endloop
endfacet
facet normal 0.92387953251129 0.382683432365082 -4.98943188528044e-016
  outer loop
    vertex 18.9893897342688 22.1942928489517 9.86988268891764e-015
    vertex 18.6103127525546 23.1094656393897 2.33510666666668
    vertex 18.9893897342688 22.1942928489517 2.33510666666668
  endloop
endfacet
facet normal 0.92387953251129 0.382683432365082 -4.98943188528044e-016
  outer loop
    vertex 18.6103127525546 23.1094656393897 2.33510666666668
    vertex 18.9893897342688 22.1942928489517 9.86988268891764e-015
    vertex 18.6103127525546 23.1094656393897 9.16489106828067e-015
  endloop
endfacet
facet normal -0.60876142900871 0.793353340291243 -7.01402594474993e-016
  outer loop
    vertex 13.4268633333333 24.4983667252776 2.33510666666667
    vertex 12.6409866419599 23.8953423307632 9.51738687859915e-015
    vertex 12.6409866419599 23.8953423307632 2.33510666666668
  endloop
endfacet
facet normal -0.60876142900871 0.793353340291243 -7.01402594474993e-016
  outer loop
    vertex 12.6409866419599 23.8953423307632 9.51738687859915e-015
    vertex 13.4268633333333 24.4983667252776 2.33510666666667
    vertex 13.4268633333333 24.4983667252776 8.45989944764369e-015
  endloop
endfacet
facet normal -0.923879532511286 0.382683432365091 -2.55190336485845e-016
  outer loop
    vertex 12.0379622474454 23.1094656393897 1.02223784992361e-014
    vertex 11.6588852657312 22.1942928489518 2.33510666666668
    vertex 12.0379622474454 23.1094656393898 2.33510666666668
  endloop
endfacet
facet normal -0.923879532511286 0.382683432365091 -2.55190336485845e-016
  outer loop
    vertex 11.6588852657312 22.1942928489518 2.33510666666668
    vertex 12.0379622474454 23.1094656393897 1.02223784992361e-014
    vertex 11.6588852657312 22.1942928489518 1.09273701198731e-014
  endloop
endfacet
facet normal -0.991444861373809 0.130526192220059 2.17906462405098e-018
  outer loop
    vertex 11.6588852657312 22.1942928489518 1.09273701198731e-014
    vertex 11.5295891666666 21.2121914727231 2.33510666666668
    vertex 11.6588852657312 22.1942928489518 2.33510666666668
  endloop
endfacet
facet normal -0.991444861373809 0.130526192220059 2.17906462405098e-018
  outer loop
    vertex 11.5295891666666 21.2121914727231 2.33510666666668
    vertex 11.6588852657312 22.1942928489518 1.09273701198731e-014
    vertex 11.5295891666666 21.2121914727231 1.19848575508286e-014
  endloop
endfacet
facet normal 0.793353340291238 0.608761429008718 -7.04484257219612e-016
  outer loop
    vertex 18.6103127525546 23.1094656393897 9.16489106828067e-015
    vertex 18.0072883580401 23.8953423307631 2.33510666666667
    vertex 18.6103127525546 23.1094656393897 2.33510666666668
  endloop
endfacet
facet normal 0.793353340291238 0.608761429008718 -7.04484257219612e-016
  outer loop
    vertex 18.0072883580401 23.8953423307631 2.33510666666667
    vertex 18.6103127525546 23.1094656393897 9.16489106828067e-015
    vertex 18.0072883580401 23.8953423307631 8.81239525796218e-015
  endloop
endfacet
facet normal -1.22506076332491e-015 -1.74323518583227e-015 -1.0
  outer loop
    vertex 11.5295891666666 13.2809191666667 -5.28743715477731e-015
    vertex 19.1186858333333 2.33510666666669 4.58244553414033e-015
    vertex 11.5295891666667 2.33510666666668 2.22072360500647e-014
  endloop
endfacet
facet normal -1.22506076332491e-015 -1.74323518583227e-015 -1.0
  outer loop
    vertex 19.1186858333333 2.33510666666669 4.58244553414033e-015
    vertex 11.5295891666666 13.2809191666667 -5.28743715477731e-015
    vertex 19.1186858333333 13.2809191666667 -6.34492458573277e-015
  endloop
endfacet
facet normal -1.31918092924756e-016 -9.85322934354827e-016 -1.0
  outer loop
    vertex -31.3779958333334 21.212191472723 3.66595642731227e-014
    vertex -23.7888991666667 14.1565841666666 4.26519930485369e-014
    vertex -31.3779958333334 14.1565841666666 4.37094804794924e-014
  endloop
endfacet
facet normal -1.31918092924756e-016 -9.85322934354827e-016 -1.0
  outer loop
    vertex -23.7888991666667 14.1565841666666 4.26519930485369e-014
    vertex -31.3779958333334 21.212191472723 3.66595642731227e-014
    vertex -23.7888991666667 21.212191472723 3.56020768421672e-014
  endloop
endfacet
facet normal -1.31918092924756e-016 -9.85322934354827e-016 -1.0
  outer loop
    vertex -23.7888991666667 21.212191472723 3.56020768421672e-014
    vertex -31.3779958333334 21.212191472723 3.66595642731227e-014
    vertex -23.9181952657312 22.1942928489517 3.45445894112117e-014
  endloop
endfacet
facet normal -1.31918092924756e-016 -9.85322934354827e-016 -1.0
  outer loop
    vertex -23.9181952657312 22.1942928489517 3.45445894112117e-014
    vertex -31.3779958333334 21.212191472723 3.66595642731227e-014
    vertex -31.2486997342688 22.1942928489517 3.56020768421672e-014
  endloop
endfacet
facet normal -1.31918092924756e-016 -9.85322934354827e-016 -1.0
  outer loop
    vertex -23.9181952657312 22.1942928489517 3.45445894112117e-014
    vertex -31.2486997342688 22.1942928489517 3.56020768421672e-014
    vertex -24.2972722474454 23.1094656393896 3.38395977905748e-014
  endloop
endfacet
facet normal -1.31918092924756e-016 -9.85322934354827e-016 -1.0
  outer loop
    vertex -24.2972722474454 23.1094656393896 3.38395977905748e-014
    vertex -31.2486997342688 22.1942928489517 3.56020768421672e-014
    vertex -30.8696227525546 23.1094656393897 3.48970852215302e-014
  endloop
endfacet
facet normal -1.31918092924756e-016 -9.85322934354827e-016 -1.0
  outer loop
    vertex -24.2972722474454 23.1094656393896 3.38395977905748e-014
    vertex -30.8696227525546 23.1094656393897 3.48970852215302e-014
    vertex -24.9002966419599 23.8953423307631 3.34871019802563e-014
  endloop
endfacet
facet normal -1.31918092924756e-016 -9.85322934354827e-016 -1.0
  outer loop
    vertex -24.9002966419599 23.8953423307631 3.34871019802563e-014
    vertex -30.8696227525546 23.1094656393897 3.48970852215302e-014
    vertex -30.2665983580401 23.8953423307631 3.41920936008933e-014
  endloop
endfacet
facet normal -1.31918092924756e-016 -9.85322934354827e-016 -1.0
  outer loop
    vertex -24.9002966419599 23.8953423307631 3.34871019802563e-014
    vertex -30.2665983580401 23.8953423307631 3.41920936008933e-014
    vertex -25.6861733333333 24.4983667252775 3.27821103596193e-014
  endloop
endfacet
facet normal -1.31918092924756e-016 -9.85322934354827e-016 -1.0
  outer loop
    vertex -25.6861733333333 24.4983667252775 3.27821103596193e-014
    vertex -30.2665983580401 23.8953423307631 3.41920936008933e-014
    vertex -29.4807216666667 24.4983667252776 3.31346061699378e-014
  endloop
endfacet
facet normal -1.31918092924756e-016 -9.85322934354827e-016 -1.0
  outer loop
    vertex -25.6861733333333 24.4983667252775 3.27821103596193e-014
    vertex -29.4807216666667 24.4983667252776 3.31346061699378e-014
    vertex -26.6013461237713 24.8774437069918 3.24296145493008e-014
  endloop
endfacet
facet normal -1.31918092924756e-016 -9.85322934354827e-016 -1.0
  outer loop
    vertex -26.6013461237713 24.8774437069918 3.24296145493008e-014
    vertex -29.4807216666667 24.4983667252776 3.31346061699378e-014
    vertex -28.5655488762287 24.8774437069918 3.27821103596193e-014
  endloop
endfacet
facet normal -1.31918092924756e-016 -9.85322934354827e-016 -1.0
  outer loop
    vertex -26.6013461237713 24.8774437069918 3.24296145493008e-014
    vertex -28.5655488762287 24.8774437069918 3.27821103596193e-014
    vertex -27.5834475 25.0067398060563 3.27821103596193e-014
  endloop
endfacet
facet normal 1.0 1.03295968681346e-015 -1.22506076332491e-015
  outer loop
    vertex -23.7888991666667 2.33510666666664 2.92571522564344e-014
    vertex -23.7888991666667 13.2809191666666 2.33510666666673
    vertex -23.7888991666667 2.33510666666664 2.33510666666674
  endloop
endfacet
facet normal 1.0 1.03295968681346e-015 -1.22506076332491e-015
  outer loop
    vertex -23.7888991666667 13.2809191666666 2.33510666666673
    vertex -23.7888991666667 2.33510666666664 2.92571522564344e-014
    vertex -23.7888991666667 13.2809191666666 1.83297821365613e-014
  endloop
endfacet
facet normal 1.22506076332491e-015 1.74323518583227e-015 1.0
  outer loop
    vertex -23.7888991666667 13.2809191666666 2.33510666666673
    vertex -31.3779958333333 2.33510666666663 2.33510666666675
    vertex -23.7888991666667 2.33510666666664 2.33510666666674
  endloop
endfacet
facet normal 1.22506076332491e-015 1.74323518583227e-015 1.0
  outer loop
    vertex -31.3779958333333 2.33510666666663 2.33510666666675
    vertex -23.7888991666667 13.2809191666666 2.33510666666673
    vertex -31.3779958333334 13.2809191666666 2.33510666666673
  endloop
endfacet
facet normal -1.03295968681347e-015 1.0 -1.74323518583227e-015
  outer loop
    vertex -23.7888991666667 13.2809191666666 2.33510666666673
    vertex -31.3779958333334 13.2809191666666 1.93872695675168e-014
    vertex -31.3779958333334 13.2809191666666 2.33510666666673
  endloop
endfacet
facet normal -1.03295968681347e-015 1.0 -1.74323518583227e-015
  outer loop
    vertex -31.3779958333334 13.2809191666666 1.93872695675168e-014
    vertex -23.7888991666667 13.2809191666666 2.33510666666673
    vertex -23.7888991666667 13.2809191666666 1.83297821365613e-014
  endloop
endfacet
facet normal -1.0 -1.03295968681346e-015 1.22506076332491e-015
  outer loop
    vertex -31.3779958333334 13.2809191666666 2.33510666666673
    vertex -31.3779958333333 2.33510666666663 4.68819427723588e-014
    vertex -31.3779958333333 2.33510666666663 2.33510666666675
  endloop
endfacet
facet normal -1.0 -1.03295968681346e-015 1.22506076332491e-015
  outer loop
    vertex -31.3779958333333 2.33510666666663 4.68819427723588e-014
    vertex -31.3779958333334 13.2809191666666 2.33510666666673
    vertex -31.3779958333334 13.2809191666666 1.93872695675168e-014
  endloop
endfacet
facet normal 1.03295968681347e-015 -1.0 1.74323518583227e-015
  outer loop
    vertex -23.7888991666667 2.33510666666664 2.92571522564344e-014
    vertex -31.3779958333333 2.33510666666663 2.33510666666675
    vertex -31.3779958333333 2.33510666666663 4.68819427723588e-014
  endloop
endfacet
facet normal 1.03295968681347e-015 -1.0 1.74323518583227e-015
  outer loop
    vertex -31.3779958333333 2.33510666666663 2.33510666666675
    vertex -23.7888991666667 2.33510666666664 2.92571522564344e-014
    vertex -23.7888991666667 2.33510666666664 2.33510666666674
  endloop
endfacet
facet normal 1.31918092924756e-016 9.85322934354827e-016 1.0
  outer loop
    vertex -23.7888991666667 21.212191472723 2.3351066666667
    vertex -31.3779958333334 14.1565841666666 2.33510666666671
    vertex -23.7888991666667 14.1565841666666 2.33510666666671
  endloop
endfacet
facet normal 1.31918092924756e-016 9.85322934354827e-016 1.0
  outer loop
    vertex -31.3779958333334 14.1565841666666 2.33510666666671
    vertex -23.7888991666667 21.212191472723 2.3351066666667
    vertex -31.3779958333334 21.212191472723 2.3351066666667
  endloop
endfacet
facet normal 1.31918092924756e-016 9.85322934354827e-016 1.0
  outer loop
    vertex -31.3779958333334 21.212191472723 2.3351066666667
    vertex -23.7888991666667 21.212191472723 2.3351066666667
    vertex -23.9181952657312 22.1942928489517 2.3351066666667
  endloop
endfacet
facet normal 1.31918092924756e-016 9.85322934354827e-016 1.0
  outer loop
    vertex -31.3779958333334 21.212191472723 2.3351066666667
    vertex -23.9181952657312 22.1942928489517 2.3351066666667
    vertex -31.2486997342688 22.1942928489517 2.3351066666667
  endloop
endfacet
facet normal 1.31918092924756e-016 9.85322934354827e-016 1.0
  outer loop
    vertex -31.2486997342688 22.1942928489517 2.3351066666667
    vertex -23.9181952657312 22.1942928489517 2.3351066666667
    vertex -24.2972722474454 23.1094656393896 2.3351066666667
  endloop
endfacet
facet normal 1.31918092924756e-016 9.85322934354827e-016 1.0
  outer loop
    vertex -31.2486997342688 22.1942928489517 2.3351066666667
    vertex -24.2972722474454 23.1094656393896 2.3351066666667
    vertex -30.8696227525546 23.1094656393897 2.3351066666667
  endloop
endfacet
facet normal 1.31918092924756e-016 9.85322934354827e-016 1.0
  outer loop
    vertex -30.8696227525546 23.1094656393897 2.3351066666667
    vertex -24.2972722474454 23.1094656393896 2.3351066666667
    vertex -24.9002966419599 23.8953423307631 2.3351066666667
  endloop
endfacet
facet normal 1.31918092924756e-016 9.85322934354827e-016 1.0
  outer loop
    vertex -30.8696227525546 23.1094656393897 2.3351066666667
    vertex -24.9002966419599 23.8953423307631 2.3351066666667
    vertex -30.2665983580401 23.8953423307631 2.3351066666667
  endloop
endfacet
facet normal 1.31918092924756e-016 9.85322934354827e-016 1.0
  outer loop
    vertex -30.2665983580401 23.8953423307631 2.3351066666667
    vertex -24.9002966419599 23.8953423307631 2.3351066666667
    vertex -25.6861733333333 24.4983667252776 2.3351066666667
  endloop
endfacet
facet normal 1.31918092924756e-016 9.85322934354827e-016 1.0
  outer loop
    vertex -30.2665983580401 23.8953423307631 2.3351066666667
    vertex -25.6861733333333 24.4983667252776 2.3351066666667
    vertex -29.4807216666667 24.4983667252776 2.3351066666667
  endloop
endfacet
facet normal 1.31918092924756e-016 9.85322934354827e-016 1.0
  outer loop
    vertex -29.4807216666667 24.4983667252776 2.3351066666667
    vertex -25.6861733333333 24.4983667252776 2.3351066666667
    vertex -26.6013461237713 24.8774437069918 2.3351066666667
  endloop
endfacet
facet normal 1.31918092924756e-016 9.85322934354827e-016 1.0
  outer loop
    vertex -29.4807216666667 24.4983667252776 2.3351066666667
    vertex -26.6013461237713 24.8774437069918 2.3351066666667
    vertex -28.5655488762287 24.8774437069918 2.3351066666667
  endloop
endfacet
facet normal 1.31918092924756e-016 9.85322934354827e-016 1.0
  outer loop
    vertex -28.5655488762287 24.8774437069918 2.3351066666667
    vertex -26.6013461237713 24.8774437069918 2.3351066666667
    vertex -27.5834475 25.0067398060563 2.3351066666667
  endloop
endfacet
facet normal 0.608761429008725 0.793353340291232 -8.6201588799694e-016
  outer loop
    vertex -24.9002966419599 23.8953423307631 2.3351066666667
    vertex -25.6861733333333 24.4983667252775 3.27821103596193e-014
    vertex -25.6861733333333 24.4983667252776 2.3351066666667
  endloop
endfacet
facet normal 0.608761429008725 0.793353340291232 -8.6201588799694e-016
  outer loop
    vertex -25.6861733333333 24.4983667252775 3.27821103596193e-014
    vertex -24.9002966419599 23.8953423307631 2.3351066666667
    vertex -24.9002966419599 23.8953423307631 3.34871019802563e-014
  endloop
endfacet
facet normal 0.382683432365108 0.923879532511279 -9.60802560555884e-016
  outer loop
    vertex -25.6861733333333 24.4983667252776 2.3351066666667
    vertex -26.6013461237713 24.8774437069918 3.24296145493008e-014
    vertex -26.6013461237713 24.8774437069918 2.3351066666667
  endloop
endfacet
facet normal 0.382683432365108 0.923879532511279 -9.60802560555884e-016
  outer loop
    vertex -26.6013461237713 24.8774437069918 3.24296145493008e-014
    vertex -25.6861733333333 24.4983667252776 2.3351066666667
    vertex -25.6861733333333 24.4983667252775 3.27821103596193e-014
  endloop
endfacet
facet normal 0.130526192220051 0.99144486137381 -9.94112126414256e-016
  outer loop
    vertex -26.6013461237713 24.8774437069918 2.3351066666667
    vertex -27.5834475 25.0067398060563 3.27821103596193e-014
    vertex -27.5834475 25.0067398060563 2.3351066666667
  endloop
endfacet
facet normal 0.130526192220051 0.99144486137381 -9.94112126414256e-016
  outer loop
    vertex -27.5834475 25.0067398060563 3.27821103596193e-014
    vertex -26.6013461237713 24.8774437069918 2.3351066666667
    vertex -26.6013461237713 24.8774437069918 3.24296145493008e-014
  endloop
endfacet
facet normal -0.130526192220036 0.991444861373812 -9.59674593705462e-016
  outer loop
    vertex -27.5834475 25.0067398060563 2.3351066666667
    vertex -28.5655488762287 24.8774437069918 3.27821103596193e-014
    vertex -28.5655488762287 24.8774437069918 2.3351066666667
  endloop
endfacet
facet normal -0.130526192220036 0.991444861373812 -9.59674593705462e-016
  outer loop
    vertex -28.5655488762287 24.8774437069918 3.27821103596193e-014
    vertex -27.5834475 25.0067398060563 2.3351066666667
    vertex -27.5834475 25.0067398060563 3.27821103596193e-014
  endloop
endfacet
facet normal -0.793353340291227 0.608761429008732 -4.95168937886218e-016
  outer loop
    vertex -30.2665983580401 23.8953423307631 3.41920936008933e-014
    vertex -30.8696227525546 23.1094656393897 2.3351066666667
    vertex -30.2665983580401 23.8953423307631 2.3351066666667
  endloop
endfacet
facet normal -0.793353340291227 0.608761429008732 -4.95168937886218e-016
  outer loop
    vertex -30.8696227525546 23.1094656393897 2.3351066666667
    vertex -30.2665983580401 23.8953423307631 3.41920936008933e-014
    vertex -30.8696227525546 23.1094656393897 3.48970852215302e-014
  endloop
endfacet
facet normal -1.0 -1.03295968681347e-015 1.31918092924757e-016
  outer loop
    vertex -31.3779958333334 21.212191472723 3.66595642731227e-014
    vertex -31.3779958333334 14.1565841666666 2.33510666666671
    vertex -31.3779958333334 21.212191472723 2.3351066666667
  endloop
endfacet
facet normal -1.0 -1.03295968681347e-015 1.31918092924757e-016
  outer loop
    vertex -31.3779958333334 14.1565841666666 2.33510666666671
    vertex -31.3779958333334 21.212191472723 3.66595642731227e-014
    vertex -31.3779958333334 14.1565841666666 4.37094804794924e-014
  endloop
endfacet
facet normal 1.0 4.45060939316288e-016 -1.31918092924756e-016
  outer loop
    vertex -23.7888991666667 14.1565841666666 4.26519930485369e-014
    vertex -23.7888991666667 21.212191472723 2.3351066666667
    vertex -23.7888991666667 14.1565841666666 2.33510666666671
  endloop
endfacet
facet normal 1.0 4.45060939316288e-016 -1.31918092924756e-016
  outer loop
    vertex -23.7888991666667 21.212191472723 2.3351066666667
    vertex -23.7888991666667 14.1565841666666 4.26519930485369e-014
    vertex -23.7888991666667 21.212191472723 3.56020768421672e-014
  endloop
endfacet
facet normal -0.382683432365093 0.923879532511285 -8.59836823372882e-016
  outer loop
    vertex -28.5655488762287 24.8774437069918 2.3351066666667
    vertex -29.4807216666667 24.4983667252776 3.31346061699378e-014
    vertex -29.4807216666667 24.4983667252776 2.3351066666667
  endloop
endfacet
facet normal -0.382683432365093 0.923879532511285 -8.59836823372882e-016
  outer loop
    vertex -29.4807216666667 24.4983667252776 3.31346061699378e-014
    vertex -28.5655488762287 24.8774437069918 2.3351066666667
    vertex -28.5655488762287 24.8774437069918 3.27821103596193e-014
  endloop
endfacet
facet normal 0.991444861373812 0.13052619222004 -2.59399966080894e-016
  outer loop
    vertex -23.7888991666667 21.212191472723 3.56020768421672e-014
    vertex -23.9181952657312 22.1942928489517 2.3351066666667
    vertex -23.7888991666667 21.212191472723 2.3351066666667
  endloop
endfacet
facet normal 0.991444861373812 0.13052619222004 -2.59399966080894e-016
  outer loop
    vertex -23.9181952657312 22.1942928489517 2.3351066666667
    vertex -23.7888991666667 21.212191472723 3.56020768421672e-014
    vertex -23.9181952657312 22.1942928489517 3.45445894112117e-014
  endloop
endfacet
facet normal 1.03295968681347e-015 -1.0 9.85322934354826e-016
  outer loop
    vertex -23.7888991666667 14.1565841666666 4.26519930485369e-014
    vertex -31.3779958333334 14.1565841666666 2.33510666666671
    vertex -31.3779958333334 14.1565841666666 4.37094804794924e-014
  endloop
endfacet
facet normal 1.03295968681347e-015 -1.0 9.85322934354826e-016
  outer loop
    vertex -31.3779958333334 14.1565841666666 2.33510666666671
    vertex -23.7888991666667 14.1565841666666 4.26519930485369e-014
    vertex -23.7888991666667 14.1565841666666 2.33510666666671
  endloop
endfacet
facet normal 0.92387953251129 0.382683432365082 -4.98943188528044e-016
  outer loop
    vertex -23.9181952657312 22.1942928489517 3.45445894112117e-014
    vertex -24.2972722474454 23.1094656393896 2.3351066666667
    vertex -23.9181952657312 22.1942928489517 2.3351066666667
  endloop
endfacet
facet normal 0.92387953251129 0.382683432365082 -4.98943188528044e-016
  outer loop
    vertex -24.2972722474454 23.1094656393896 2.3351066666667
    vertex -23.9181952657312 22.1942928489517 3.45445894112117e-014
    vertex -24.2972722474454 23.1094656393896 3.38395977905748e-014
  endloop
endfacet
facet normal -0.60876142900871 0.793353340291243 -7.01402594474993e-016
  outer loop
    vertex -29.4807216666667 24.4983667252776 2.3351066666667
    vertex -30.2665983580401 23.8953423307631 3.41920936008933e-014
    vertex -30.2665983580401 23.8953423307631 2.3351066666667
  endloop
endfacet
facet normal -0.60876142900871 0.793353340291243 -7.01402594474993e-016
  outer loop
    vertex -30.2665983580401 23.8953423307631 3.41920936008933e-014
    vertex -29.4807216666667 24.4983667252776 2.3351066666667
    vertex -29.4807216666667 24.4983667252776 3.31346061699378e-014
  endloop
endfacet
facet normal -0.923879532511286 0.382683432365091 -2.55190336485845e-016
  outer loop
    vertex -30.8696227525546 23.1094656393897 3.48970852215302e-014
    vertex -31.2486997342688 22.1942928489517 2.3351066666667
    vertex -30.8696227525546 23.1094656393897 2.3351066666667
  endloop
endfacet
facet normal -0.923879532511286 0.382683432365091 -2.55190336485845e-016
  outer loop
    vertex -31.2486997342688 22.1942928489517 2.3351066666667
    vertex -30.8696227525546 23.1094656393897 3.48970852215302e-014
    vertex -31.2486997342688 22.1942928489517 3.56020768421672e-014
  endloop
endfacet
facet normal -0.991444861373809 0.130526192220059 2.17906462405098e-018
  outer loop
    vertex -31.2486997342688 22.1942928489517 3.56020768421672e-014
    vertex -31.3779958333334 21.212191472723 2.3351066666667
    vertex -31.2486997342688 22.1942928489517 2.3351066666667
  endloop
endfacet
facet normal -0.991444861373809 0.130526192220059 2.17906462405098e-018
  outer loop
    vertex -31.3779958333334 21.212191472723 2.3351066666667
    vertex -31.2486997342688 22.1942928489517 3.56020768421672e-014
    vertex -31.3779958333334 21.212191472723 3.66595642731227e-014
  endloop
endfacet
facet normal 0.793353340291238 0.608761429008718 -7.04484257219612e-016
  outer loop
    vertex -24.2972722474454 23.1094656393896 3.38395977905748e-014
    vertex -24.9002966419599 23.8953423307631 2.3351066666667
    vertex -24.2972722474454 23.1094656393896 2.3351066666667
  endloop
endfacet
facet normal 0.793353340291238 0.608761429008718 -7.04484257219612e-016
  outer loop
    vertex -24.9002966419599 23.8953423307631 2.3351066666667
    vertex -24.2972722474454 23.1094656393896 3.38395977905748e-014
    vertex -24.9002966419599 23.8953423307631 3.34871019802563e-014
  endloop
endfacet
facet normal -1.22506076332491e-015 -1.74323518583227e-015 -1.0
  outer loop
    vertex -31.3779958333334 13.2809191666666 1.93872695675168e-014
    vertex -23.7888991666667 2.33510666666664 2.92571522564344e-014
    vertex -31.3779958333333 2.33510666666663 4.68819427723588e-014
  endloop
endfacet
facet normal -1.22506076332491e-015 -1.74323518583227e-015 -1.0
  outer loop
    vertex -23.7888991666667 2.33510666666664 2.92571522564344e-014
    vertex -31.3779958333334 13.2809191666666 1.93872695675168e-014
    vertex -23.7888991666667 13.2809191666666 1.83297821365613e-014
  endloop
endfacet
facet normal -1.31918092924756e-016 -9.85322934354827e-016 -1.0
  outer loop
    vertex -9.92420333333335 21.212191472723 1.19848575508286e-014
    vertex -2.33510666666667 14.1565841666666 1.79772863262428e-014
    vertex -9.92420333333334 14.1565841666666 1.90347737571983e-014
  endloop
endfacet
facet normal -1.31918092924756e-016 -9.85322934354827e-016 -1.0
  outer loop
    vertex -2.33510666666667 14.1565841666666 1.79772863262428e-014
    vertex -9.92420333333335 21.212191472723 1.19848575508286e-014
    vertex -2.33510666666667 21.212191472723 1.09273701198731e-014
  endloop
endfacet
facet normal -1.31918092924756e-016 -9.85322934354827e-016 -1.0
  outer loop
    vertex -2.33510666666667 21.212191472723 1.09273701198731e-014
    vertex -9.92420333333335 21.212191472723 1.19848575508286e-014
    vertex -2.46440276573118 22.1942928489517 9.86988268891764e-015
  endloop
endfacet
facet normal -1.31918092924756e-016 -9.85322934354827e-016 -1.0
  outer loop
    vertex -2.46440276573118 22.1942928489517 9.86988268891764e-015
    vertex -9.92420333333335 21.212191472723 1.19848575508286e-014
    vertex -9.79490723426882 22.1942928489517 1.09273701198731e-014
  endloop
endfacet
facet normal -1.31918092924756e-016 -9.85322934354827e-016 -1.0
  outer loop
    vertex -2.46440276573118 22.1942928489517 9.86988268891764e-015
    vertex -9.79490723426882 22.1942928489517 1.09273701198731e-014
    vertex -2.84347974744542 23.1094656393897 9.16489106828067e-015
  endloop
endfacet
facet normal -1.31918092924756e-016 -9.85322934354827e-016 -1.0
  outer loop
    vertex -2.84347974744542 23.1094656393897 9.16489106828067e-015
    vertex -9.79490723426882 22.1942928489517 1.09273701198731e-014
    vertex -9.41583025255457 23.1094656393897 1.02223784992361e-014
  endloop
endfacet
facet normal -1.31918092924756e-016 -9.85322934354827e-016 -1.0
  outer loop
    vertex -2.84347974744542 23.1094656393897 9.16489106828067e-015
    vertex -9.41583025255457 23.1094656393897 1.02223784992361e-014
    vertex -3.44650414195987 23.8953423307631 8.81239525796218e-015
  endloop
endfacet
facet normal -1.31918092924756e-016 -9.85322934354827e-016 -1.0
  outer loop
    vertex -3.44650414195987 23.8953423307631 8.81239525796218e-015
    vertex -9.41583025255457 23.1094656393897 1.02223784992361e-014
    vertex -8.81280585804011 23.8953423307632 9.51738687859915e-015
  endloop
endfacet
facet normal -1.31918092924756e-016 -9.85322934354827e-016 -1.0
  outer loop
    vertex -3.44650414195987 23.8953423307631 8.81239525796218e-015
    vertex -8.81280585804011 23.8953423307632 9.51738687859915e-015
    vertex -4.23238083333331 24.4983667252776 8.1074036373252e-015
  endloop
endfacet
facet normal -1.31918092924756e-016 -9.85322934354827e-016 -1.0
  outer loop
    vertex -4.23238083333331 24.4983667252776 8.1074036373252e-015
    vertex -8.81280585804011 23.8953423307632 9.51738687859915e-015
    vertex -8.02692916666665 24.4983667252776 8.45989944764369e-015
  endloop
endfacet
facet normal -1.31918092924756e-016 -9.85322934354827e-016 -1.0
  outer loop
    vertex -4.23238083333331 24.4983667252776 8.1074036373252e-015
    vertex -8.02692916666665 24.4983667252776 8.45989944764369e-015
    vertex -5.14755362377128 24.8774437069918 7.75490782700672e-015
  endloop
endfacet
facet normal -1.31918092924756e-016 -9.85322934354827e-016 -1.0
  outer loop
    vertex -5.14755362377128 24.8774437069918 7.75490782700672e-015
    vertex -8.02692916666665 24.4983667252776 8.45989944764369e-015
    vertex -7.11175637622868 24.8774437069918 8.1074036373252e-015
  endloop
endfacet
facet normal -1.31918092924756e-016 -9.85322934354827e-016 -1.0
  outer loop
    vertex -5.14755362377128 24.8774437069918 7.75490782700672e-015
    vertex -7.11175637622868 24.8774437069918 8.1074036373252e-015
    vertex -6.12965499999998 25.0067398060564 8.1074036373252e-015
  endloop
endfacet
facet normal 1.0 1.03295968681346e-015 -1.22506076332491e-015
  outer loop
    vertex -2.33510666666666 2.33510666666666 4.58244553414033e-015
    vertex -2.33510666666667 13.2809191666667 2.3351066666667
    vertex -2.33510666666666 2.33510666666666 2.33510666666671
  endloop
endfacet
facet normal 1.0 1.03295968681346e-015 -1.22506076332491e-015
  outer loop
    vertex -2.33510666666667 13.2809191666667 2.3351066666667
    vertex -2.33510666666666 2.33510666666666 4.58244553414033e-015
    vertex -2.33510666666667 13.2809191666667 -6.34492458573277e-015
  endloop
endfacet
facet normal 1.22506076332491e-015 1.74323518583227e-015 1.0
  outer loop
    vertex -2.33510666666667 13.2809191666667 2.3351066666667
    vertex -9.92420333333333 2.33510666666665 2.33510666666673
    vertex -2.33510666666666 2.33510666666666 2.33510666666671
  endloop
endfacet
facet normal 1.22506076332491e-015 1.74323518583227e-015 1.0
  outer loop
    vertex -9.92420333333333 2.33510666666665 2.33510666666673
    vertex -2.33510666666667 13.2809191666667 2.3351066666667
    vertex -9.92420333333334 13.2809191666667 2.3351066666667
  endloop
endfacet
facet normal -1.03295968681347e-015 1.0 -1.74323518583227e-015
  outer loop
    vertex -2.33510666666667 13.2809191666667 2.3351066666667
    vertex -9.92420333333334 13.2809191666666 -5.28743715477731e-015
    vertex -9.92420333333334 13.2809191666667 2.3351066666667
  endloop
endfacet
facet normal -1.03295968681347e-015 1.0 -1.74323518583227e-015
  outer loop
    vertex -9.92420333333334 13.2809191666666 -5.28743715477731e-015
    vertex -2.33510666666667 13.2809191666667 2.3351066666667
    vertex -2.33510666666667 13.2809191666667 -6.34492458573277e-015
  endloop
endfacet
facet normal -1.0 -1.03295968681346e-015 1.22506076332491e-015
  outer loop
    vertex -9.92420333333334 13.2809191666667 2.3351066666667
    vertex -9.92420333333333 2.33510666666665 2.22072360500647e-014
    vertex -9.92420333333333 2.33510666666665 2.33510666666673
  endloop
endfacet
facet normal -1.0 -1.03295968681346e-015 1.22506076332491e-015
  outer loop
    vertex -9.92420333333333 2.33510666666665 2.22072360500647e-014
    vertex -9.92420333333334 13.2809191666667 2.3351066666667
    vertex -9.92420333333334 13.2809191666666 -5.28743715477731e-015
  endloop
endfacet
facet normal 1.03295968681347e-015 -1.0 1.74323518583227e-015
  outer loop
    vertex -2.33510666666666 2.33510666666666 4.58244553414033e-015
    vertex -9.92420333333333 2.33510666666665 2.33510666666673
    vertex -9.92420333333333 2.33510666666665 2.22072360500647e-014
  endloop
endfacet
facet normal 1.03295968681347e-015 -1.0 1.74323518583227e-015
  outer loop
    vertex -9.92420333333333 2.33510666666665 2.33510666666673
    vertex -2.33510666666666 2.33510666666666 4.58244553414033e-015
    vertex -2.33510666666666 2.33510666666666 2.33510666666671
  endloop
endfacet
facet normal 1.31918092924756e-016 9.85322934354827e-016 1.0
  outer loop
    vertex -2.33510666666667 21.212191472723 2.33510666666668
    vertex -9.92420333333334 14.1565841666666 2.33510666666669
    vertex -2.33510666666667 14.1565841666666 2.33510666666668
  endloop
endfacet
facet normal 1.31918092924756e-016 9.85322934354827e-016 1.0
  outer loop
    vertex -9.92420333333334 14.1565841666666 2.33510666666669
    vertex -2.33510666666667 21.212191472723 2.33510666666668
    vertex -9.92420333333335 21.212191472723 2.33510666666668
  endloop
endfacet
facet normal 1.31918092924756e-016 9.85322934354827e-016 1.0
  outer loop
    vertex -9.92420333333335 21.212191472723 2.33510666666668
    vertex -2.33510666666667 21.212191472723 2.33510666666668
    vertex -2.46440276573118 22.1942928489517 2.33510666666668
  endloop
endfacet
facet normal 1.31918092924756e-016 9.85322934354827e-016 1.0
  outer loop
    vertex -9.92420333333335 21.212191472723 2.33510666666668
    vertex -2.46440276573118 22.1942928489517 2.33510666666668
    vertex -9.79490723426882 22.1942928489517 2.33510666666668
  endloop
endfacet
facet normal 1.31918092924756e-016 9.85322934354827e-016 1.0
  outer loop
    vertex -9.79490723426882 22.1942928489517 2.33510666666668
    vertex -2.46440276573118 22.1942928489517 2.33510666666668
    vertex -2.84347974744542 23.1094656393897 2.33510666666668
  endloop
endfacet
facet normal 1.31918092924756e-016 9.85322934354827e-016 1.0
  outer loop
    vertex -9.79490723426882 22.1942928489517 2.33510666666668
    vertex -2.84347974744542 23.1094656393897 2.33510666666668
    vertex -9.41583025255457 23.1094656393897 2.33510666666668
  endloop
endfacet
facet normal 1.31918092924756e-016 9.85322934354827e-016 1.0
  outer loop
    vertex -9.41583025255457 23.1094656393897 2.33510666666668
    vertex -2.84347974744542 23.1094656393897 2.33510666666668
    vertex -3.44650414195987 23.8953423307631 2.33510666666667
  endloop
endfacet
facet normal 1.31918092924756e-016 9.85322934354827e-016 1.0
  outer loop
    vertex -9.41583025255457 23.1094656393897 2.33510666666668
    vertex -3.44650414195987 23.8953423307631 2.33510666666667
    vertex -8.81280585804011 23.8953423307632 2.33510666666668
  endloop
endfacet
facet normal 1.31918092924756e-016 9.85322934354827e-016 1.0
  outer loop
    vertex -8.81280585804011 23.8953423307632 2.33510666666668
    vertex -3.44650414195987 23.8953423307631 2.33510666666667
    vertex -4.23238083333331 24.4983667252776 2.33510666666667
  endloop
endfacet
facet normal 1.31918092924756e-016 9.85322934354827e-016 1.0
  outer loop
    vertex -8.81280585804011 23.8953423307632 2.33510666666668
    vertex -4.23238083333331 24.4983667252776 2.33510666666667
    vertex -8.02692916666665 24.4983667252776 2.33510666666667
  endloop
endfacet
facet normal 1.31918092924756e-016 9.85322934354827e-016 1.0
  outer loop
    vertex -8.02692916666665 24.4983667252776 2.33510666666667
    vertex -4.23238083333331 24.4983667252776 2.33510666666667
    vertex -5.14755362377128 24.8774437069918 2.33510666666667
  endloop
endfacet
facet normal 1.31918092924756e-016 9.85322934354827e-016 1.0
  outer loop
    vertex -8.02692916666665 24.4983667252776 2.33510666666667
    vertex -5.14755362377128 24.8774437069918 2.33510666666667
    vertex -7.11175637622868 24.8774437069918 2.33510666666667
  endloop
endfacet
facet normal 1.31918092924756e-016 9.85322934354827e-016 1.0
  outer loop
    vertex -7.11175637622868 24.8774437069918 2.33510666666667
    vertex -5.14755362377128 24.8774437069918 2.33510666666667
    vertex -6.12965499999998 25.0067398060564 2.33510666666667
  endloop
endfacet
facet normal 0.608761429008725 0.793353340291232 -8.6201588799694e-016
  outer loop
    vertex -3.44650414195987 23.8953423307631 2.33510666666667
    vertex -4.23238083333331 24.4983667252776 8.1074036373252e-015
    vertex -4.23238083333331 24.4983667252776 2.33510666666667
  endloop
endfacet
facet normal 0.608761429008725 0.793353340291232 -8.6201588799694e-016
  outer loop
    vertex -4.23238083333331 24.4983667252776 8.1074036373252e-015
    vertex -3.44650414195987 23.8953423307631 2.33510666666667
    vertex -3.44650414195987 23.8953423307631 8.81239525796218e-015
  endloop
endfacet
facet normal 0.382683432365108 0.923879532511279 -9.60802560555884e-016
  outer loop
    vertex -4.23238083333331 24.4983667252776 2.33510666666667
    vertex -5.14755362377128 24.8774437069918 7.75490782700672e-015
    vertex -5.14755362377128 24.8774437069918 2.33510666666667
  endloop
endfacet
facet normal 0.382683432365108 0.923879532511279 -9.60802560555884e-016
  outer loop
    vertex -5.14755362377128 24.8774437069918 7.75490782700672e-015
    vertex -4.23238083333331 24.4983667252776 2.33510666666667
    vertex -4.23238083333331 24.4983667252776 8.1074036373252e-015
  endloop
endfacet
facet normal 0.130526192220051 0.99144486137381 -9.94112126414256e-016
  outer loop
    vertex -5.14755362377128 24.8774437069918 2.33510666666667
    vertex -6.12965499999998 25.0067398060564 8.1074036373252e-015
    vertex -6.12965499999998 25.0067398060564 2.33510666666667
  endloop
endfacet
facet normal 0.130526192220051 0.99144486137381 -9.94112126414256e-016
  outer loop
    vertex -6.12965499999998 25.0067398060564 8.1074036373252e-015
    vertex -5.14755362377128 24.8774437069918 2.33510666666667
    vertex -5.14755362377128 24.8774437069918 7.75490782700672e-015
  endloop
endfacet
facet normal -0.130526192220036 0.991444861373812 -9.59674593705462e-016
  outer loop
    vertex -6.12965499999998 25.0067398060564 2.33510666666667
    vertex -7.11175637622868 24.8774437069918 8.1074036373252e-015
    vertex -7.11175637622868 24.8774437069918 2.33510666666667
  endloop
endfacet
facet normal -0.130526192220036 0.991444861373812 -9.59674593705462e-016
  outer loop
    vertex -7.11175637622868 24.8774437069918 8.1074036373252e-015
    vertex -6.12965499999998 25.0067398060564 2.33510666666667
    vertex -6.12965499999998 25.0067398060564 8.1074036373252e-015
  endloop
endfacet
facet normal -0.793353340291227 0.608761429008732 -4.95168937886218e-016
  outer loop
    vertex -8.81280585804011 23.8953423307632 9.51738687859915e-015
    vertex -9.41583025255457 23.1094656393897 2.33510666666668
    vertex -8.81280585804011 23.8953423307632 2.33510666666668
  endloop
endfacet
facet normal -0.793353340291227 0.608761429008732 -4.95168937886218e-016
  outer loop
    vertex -9.41583025255457 23.1094656393897 2.33510666666668
    vertex -8.81280585804011 23.8953423307632 9.51738687859915e-015
    vertex -9.41583025255457 23.1094656393897 1.02223784992361e-014
  endloop
endfacet
facet normal -1.0 -1.03295968681347e-015 1.31918092924757e-016
  outer loop
    vertex -9.92420333333335 21.212191472723 1.19848575508286e-014
    vertex -9.92420333333334 14.1565841666666 2.33510666666669
    vertex -9.92420333333335 21.212191472723 2.33510666666668
  endloop
endfacet
facet normal -1.0 -1.03295968681347e-015 1.31918092924757e-016
  outer loop
    vertex -9.92420333333334 14.1565841666666 2.33510666666669
    vertex -9.92420333333335 21.212191472723 1.19848575508286e-014
    vertex -9.92420333333334 14.1565841666666 1.90347737571983e-014
  endloop
endfacet
facet normal 1.0 4.45060939316288e-016 -1.31918092924756e-016
  outer loop
    vertex -2.33510666666667 14.1565841666666 1.79772863262428e-014
    vertex -2.33510666666667 21.212191472723 2.33510666666668
    vertex -2.33510666666667 14.1565841666666 2.33510666666668
  endloop
endfacet
facet normal 1.0 4.45060939316288e-016 -1.31918092924756e-016
  outer loop
    vertex -2.33510666666667 21.212191472723 2.33510666666668
    vertex -2.33510666666667 14.1565841666666 1.79772863262428e-014
    vertex -2.33510666666667 21.212191472723 1.09273701198731e-014
  endloop
endfacet
facet normal -0.382683432365093 0.923879532511285 -8.59836823372882e-016
  outer loop
    vertex -7.11175637622868 24.8774437069918 2.33510666666667
    vertex -8.02692916666665 24.4983667252776 8.45989944764369e-015
    vertex -8.02692916666665 24.4983667252776 2.33510666666667
  endloop
endfacet
facet normal -0.382683432365093 0.923879532511285 -8.59836823372882e-016
  outer loop
    vertex -8.02692916666665 24.4983667252776 8.45989944764369e-015
    vertex -7.11175637622868 24.8774437069918 2.33510666666667
    vertex -7.11175637622868 24.8774437069918 8.1074036373252e-015
  endloop
endfacet
facet normal 0.991444861373812 0.13052619222004 -2.59399966080894e-016
  outer loop
    vertex -2.33510666666667 21.212191472723 1.09273701198731e-014
    vertex -2.46440276573118 22.1942928489517 2.33510666666668
    vertex -2.33510666666667 21.212191472723 2.33510666666668
  endloop
endfacet
facet normal 0.991444861373812 0.13052619222004 -2.59399966080894e-016
  outer loop
    vertex -2.46440276573118 22.1942928489517 2.33510666666668
    vertex -2.33510666666667 21.212191472723 1.09273701198731e-014
    vertex -2.46440276573118 22.1942928489517 9.86988268891764e-015
  endloop
endfacet
facet normal 1.03295968681347e-015 -1.0 9.85322934354826e-016
  outer loop
    vertex -2.33510666666667 14.1565841666666 1.79772863262428e-014
    vertex -9.92420333333334 14.1565841666666 2.33510666666669
    vertex -9.92420333333334 14.1565841666666 1.90347737571983e-014
  endloop
endfacet
facet normal 1.03295968681347e-015 -1.0 9.85322934354826e-016
  outer loop
    vertex -9.92420333333334 14.1565841666666 2.33510666666669
    vertex -2.33510666666667 14.1565841666666 1.79772863262428e-014
    vertex -2.33510666666667 14.1565841666666 2.33510666666668
  endloop
endfacet
facet normal 0.92387953251129 0.382683432365082 -4.98943188528044e-016
  outer loop
    vertex -2.46440276573118 22.1942928489517 9.86988268891764e-015
    vertex -2.84347974744542 23.1094656393897 2.33510666666668
    vertex -2.46440276573118 22.1942928489517 2.33510666666668
  endloop
endfacet
facet normal 0.92387953251129 0.382683432365082 -4.98943188528044e-016
  outer loop
    vertex -2.84347974744542 23.1094656393897 2.33510666666668
    vertex -2.46440276573118 22.1942928489517 9.86988268891764e-015
    vertex -2.84347974744542 23.1094656393897 9.16489106828067e-015
  endloop
endfacet
facet normal -0.60876142900871 0.793353340291243 -7.01402594474993e-016
  outer loop
    vertex -8.02692916666665 24.4983667252776 2.33510666666667
    vertex -8.81280585804011 23.8953423307632 9.51738687859915e-015
    vertex -8.81280585804011 23.8953423307632 2.33510666666668
  endloop
endfacet
facet normal -0.60876142900871 0.793353340291243 -7.01402594474993e-016
  outer loop
    vertex -8.81280585804011 23.8953423307632 9.51738687859915e-015
    vertex -8.02692916666665 24.4983667252776 2.33510666666667
    vertex -8.02692916666665 24.4983667252776 8.45989944764369e-015
  endloop
endfacet
facet normal -0.923879532511286 0.382683432365091 -2.55190336485845e-016
  outer loop
    vertex -9.41583025255457 23.1094656393897 1.02223784992361e-014
    vertex -9.79490723426882 22.1942928489517 2.33510666666668
    vertex -9.41583025255457 23.1094656393897 2.33510666666668
  endloop
endfacet
facet normal -0.923879532511286 0.382683432365091 -2.55190336485845e-016
  outer loop
    vertex -9.79490723426882 22.1942928489517 2.33510666666668
    vertex -9.41583025255457 23.1094656393897 1.02223784992361e-014
    vertex -9.79490723426882 22.1942928489517 1.09273701198731e-014
  endloop
endfacet
facet normal -0.991444861373809 0.130526192220059 2.17906462405098e-018
  outer loop
    vertex -9.79490723426882 22.1942928489517 1.09273701198731e-014
    vertex -9.92420333333335 21.212191472723 2.33510666666668
    vertex -9.79490723426882 22.1942928489517 2.33510666666668
  endloop
endfacet
facet normal -0.991444861373809 0.130526192220059 2.17906462405098e-018
  outer loop
    vertex -9.92420333333335 21.212191472723 2.33510666666668
    vertex -9.79490723426882 22.1942928489517 1.09273701198731e-014
    vertex -9.92420333333335 21.212191472723 1.19848575508286e-014
  endloop
endfacet
facet normal 0.793353340291238 0.608761429008718 -7.04484257219612e-016
  outer loop
    vertex -2.84347974744542 23.1094656393897 9.16489106828067e-015
    vertex -3.44650414195987 23.8953423307631 2.33510666666667
    vertex -2.84347974744542 23.1094656393897 2.33510666666668
  endloop
endfacet
facet normal 0.793353340291238 0.608761429008718 -7.04484257219612e-016
  outer loop
    vertex -3.44650414195987 23.8953423307631 2.33510666666667
    vertex -2.84347974744542 23.1094656393897 9.16489106828067e-015
    vertex -3.44650414195987 23.8953423307631 8.81239525796218e-015
  endloop
endfacet
facet normal -1.22506076332491e-015 -1.74323518583227e-015 -1.0
  outer loop
    vertex -9.92420333333334 13.2809191666666 -5.28743715477731e-015
    vertex -2.33510666666666 2.33510666666666 4.58244553414033e-015
    vertex -9.92420333333333 2.33510666666665 2.22072360500647e-014
  endloop
endfacet
facet normal -1.22506076332491e-015 -1.74323518583227e-015 -1.0
  outer loop
    vertex -2.33510666666666 2.33510666666666 4.58244553414033e-015
    vertex -9.92420333333334 13.2809191666666 -5.28743715477731e-015
    vertex -2.33510666666667 13.2809191666667 -6.34492458573277e-015
  endloop
endfacet
endsolid Untitled-5f7b4d46
