solid Untitled-5f8f825d
facet normal -1.0 0.0 0.0
  outer loop
    vertex 21.891625 70.4910325000001 -1.76247905159244e-014
    vertex 21.891625 55.8966158333334 2.33510666666667
    vertex 21.891625 70.4910325000001 2.33510666666666
  endloop
endfacet
facet normal -1.0 0.0 0.0
  outer loop
    vertex 21.891625 55.8966158333334 2.33510666666667
    vertex 21.891625 70.4910325000001 -1.76247905159244e-014
    vertex 21.891625 55.8966158333334 -9.51738687859915e-015
  endloop
endfacet
facet normal 1.0 0.0 0.0
  outer loop
    vertex 24.0807875 55.8966158333334 -9.51738687859915e-015
    vertex 24.0807875 70.4910325000001 2.33510666666666
    vertex 24.0807875 55.8966158333334 2.33510666666667
  endloop
endfacet
facet normal 1.0 0.0 0.0
  outer loop
    vertex 24.0807875 70.4910325000001 2.33510666666666
    vertex 24.0807875 55.8966158333334 -9.51738687859915e-015
    vertex 24.0807875 70.4910325000001 -1.76247905159244e-014
  endloop
endfacet
facet normal 0.0 -1.0 5.55111512312578e-016
  outer loop
    vertex 24.0807875 55.8966158333334 -9.51738687859915e-015
    vertex 21.891625 55.8966158333334 2.33510666666667
    vertex 21.891625 55.8966158333334 -9.51738687859915e-015
  endloop
endfacet
facet normal 0.0 -1.0 5.55111512312578e-016
  outer loop
    vertex 21.891625 55.8966158333334 2.33510666666667
    vertex 24.0807875 55.8966158333334 -9.51738687859915e-015
    vertex 24.0807875 55.8966158333334 2.33510666666667
  endloop
endfacet
facet normal 0.0 1.0 -5.55111512312578e-016
  outer loop
    vertex 24.0807875 70.4910325000001 2.33510666666666
    vertex 21.891625 70.4910325000001 -1.76247905159244e-014
    vertex 21.891625 70.4910325000001 2.33510666666666
  endloop
endfacet
facet normal 0.0 1.0 -5.55111512312578e-016
  outer loop
    vertex 21.891625 70.4910325000001 -1.76247905159244e-014
    vertex 24.0807875 70.4910325000001 2.33510666666666
    vertex 24.0807875 70.4910325000001 -1.76247905159244e-014
  endloop
endfacet
facet normal 0.0 5.55111512312578e-016 1.0
  outer loop
    vertex 24.0807875 70.4910325000001 2.33510666666666
    vertex 21.891625 55.8966158333334 2.33510666666667
    vertex 24.0807875 55.8966158333334 2.33510666666667
  endloop
endfacet
facet normal 0.0 5.55111512312578e-016 1.0
  outer loop
    vertex 21.891625 55.8966158333334 2.33510666666667
    vertex 24.0807875 70.4910325000001 2.33510666666666
    vertex 21.891625 70.4910325000001 2.33510666666666
  endloop
endfacet
facet normal 0.0 -5.55111512312578e-016 -1.0
  outer loop
    vertex 24.9564525 70.4910325000001 -2.57321941532496e-014
    vertex 27.145615 55.8966158333334 -1.76247905159244e-014
    vertex 24.9564525 55.8966158333334 -1.76247905159244e-014
  endloop
endfacet
facet normal 0.0 -5.55111512312578e-016 -1.0
  outer loop
    vertex 27.145615 55.8966158333334 -1.76247905159244e-014
    vertex 24.9564525 70.4910325000001 -2.57321941532496e-014
    vertex 27.145615 70.4910325000001 -2.57321941532496e-014
  endloop
endfacet
facet normal 0.0 -1.0 5.55111512312578e-016
  outer loop
    vertex 27.145615 55.8966158333334 -1.76247905159244e-014
    vertex 24.9564525 55.8966158333334 2.33510666666665
    vertex 24.9564525 55.8966158333334 -1.76247905159244e-014
  endloop
endfacet
facet normal 0.0 -1.0 5.55111512312578e-016
  outer loop
    vertex 24.9564525 55.8966158333334 2.33510666666665
    vertex 27.145615 55.8966158333334 -1.76247905159244e-014
    vertex 27.145615 55.8966158333334 2.33510666666665
  endloop
endfacet
facet normal 0.0 5.55111512312578e-016 1.0
  outer loop
    vertex 27.145615 70.4910325000001 2.33510666666664
    vertex 24.9564525 55.8966158333334 2.33510666666665
    vertex 27.145615 55.8966158333334 2.33510666666665
  endloop
endfacet
facet normal 0.0 5.55111512312578e-016 1.0
  outer loop
    vertex 24.9564525 55.8966158333334 2.33510666666665
    vertex 27.145615 70.4910325000001 2.33510666666664
    vertex 24.9564525 70.4910325000001 2.33510666666664
  endloop
endfacet
facet normal -1.0 0.0 0.0
  outer loop
    vertex 24.9564525 70.4910325000001 -2.57321941532496e-014
    vertex 24.9564525 55.8966158333334 2.33510666666665
    vertex 24.9564525 70.4910325000001 2.33510666666664
  endloop
endfacet
facet normal -1.0 0.0 0.0
  outer loop
    vertex 24.9564525 55.8966158333334 2.33510666666665
    vertex 24.9564525 70.4910325000001 -2.57321941532496e-014
    vertex 24.9564525 55.8966158333334 -1.76247905159244e-014
  endloop
endfacet
facet normal 0.0 1.0 -5.55111512312578e-016
  outer loop
    vertex 27.145615 70.4910325000001 2.33510666666664
    vertex 24.9564525 70.4910325000001 -2.57321941532496e-014
    vertex 24.9564525 70.4910325000001 2.33510666666664
  endloop
endfacet
facet normal 0.0 1.0 -5.55111512312578e-016
  outer loop
    vertex 24.9564525 70.4910325000001 -2.57321941532496e-014
    vertex 27.145615 70.4910325000001 2.33510666666664
    vertex 27.145615 70.4910325000001 -2.57321941532496e-014
  endloop
endfacet
facet normal 1.0 0.0 0.0
  outer loop
    vertex 27.145615 55.8966158333334 -1.76247905159244e-014
    vertex 27.145615 70.4910325000001 2.33510666666664
    vertex 27.145615 55.8966158333334 2.33510666666665
  endloop
endfacet
facet normal 1.0 0.0 0.0
  outer loop
    vertex 27.145615 70.4910325000001 2.33510666666664
    vertex 27.145615 55.8966158333334 -1.76247905159244e-014
    vertex 27.145615 70.4910325000001 -2.57321941532496e-014
  endloop
endfacet
facet normal 0.0 -5.55111512312578e-016 -1.0
  outer loop
    vertex 21.891625 70.4910325000001 -1.76247905159244e-014
    vertex 24.0807875 55.8966158333334 -9.51738687859915e-015
    vertex 21.891625 55.8966158333334 -9.51738687859915e-015
  endloop
endfacet
facet normal 0.0 -5.55111512312578e-016 -1.0
  outer loop
    vertex 24.0807875 55.8966158333334 -9.51738687859915e-015
    vertex 21.891625 70.4910325000001 -1.76247905159244e-014
    vertex 24.0807875 70.4910325000001 -1.76247905159244e-014
  endloop
endfacet
facet normal 0.0 -5.55111512312578e-016 -1.0
  outer loop
    vertex -7.88098500000001 70.4910325000001 -3.80695475143966e-014
    vertex -4.59724125 55.8966158333334 -2.99621438770714e-014
    vertex -7.88098500000001 55.8966158333334 -2.99621438770714e-014
  endloop
endfacet
facet normal 0.0 -5.55111512312578e-016 -1.0
  outer loop
    vertex -4.59724125 55.8966158333334 -2.99621438770714e-014
    vertex -7.88098500000001 70.4910325000001 -3.80695475143966e-014
    vertex -4.59724125 70.4910325000001 -3.80695475143966e-014
  endloop
endfacet
facet normal 0.0 -5.55111512312578e-016 -1.0
  outer loop
    vertex 0.437832499999992 70.4910325000001 -2.15022444294277e-014
    vertex 3.72157624999995 55.8966158333334 -1.33948407921025e-014
    vertex 0.437832499999992 55.8966158333334 -1.33948407921025e-014
  endloop
endfacet
facet normal 0.0 -5.55111512312578e-016 -1.0
  outer loop
    vertex 3.72157624999995 55.8966158333334 -1.33948407921025e-014
    vertex 0.437832499999992 70.4910325000001 -2.15022444294277e-014
    vertex 3.72157624999995 70.4910325000001 -2.15022444294277e-014
  endloop
endfacet
facet normal 0.0 -5.55111512312578e-016 -1.0
  outer loop
    vertex 4.59724124999995 70.4910325000001 -5.4989346409684e-014
    vertex 7.88098499999995 55.8966158333334 -4.68819427723588e-014
    vertex 4.59724124999995 55.8966158333334 -4.68819427723588e-014
  endloop
endfacet
facet normal 0.0 -5.55111512312578e-016 -1.0
  outer loop
    vertex 7.88098499999995 55.8966158333334 -4.68819427723588e-014
    vertex 4.59724124999995 70.4910325000001 -5.4989346409684e-014
    vertex 7.88098499999995 70.4910325000001 -5.4989346409684e-014
  endloop
endfacet
facet normal 0.0 -5.55111512312578e-016 -1.0
  outer loop
    vertex -3.72157625000001 70.4910325000001 -3.80695475143966e-014
    vertex -0.437832500000009 55.8966158333334 -2.99621438770714e-014
    vertex -3.72157625000001 55.8966158333334 -2.99621438770714e-014
  endloop
endfacet
facet normal 0.0 -5.55111512312578e-016 -1.0
  outer loop
    vertex -0.437832500000009 55.8966158333334 -2.99621438770714e-014
    vertex -3.72157625000001 70.4910325000001 -3.80695475143966e-014
    vertex -0.437832500000009 70.4910325000001 -3.80695475143966e-014
  endloop
endfacet
facet normal -1.0 0.0 0.0
  outer loop
    vertex -3.72157625000001 70.4910325000001 -3.80695475143966e-014
    vertex -3.72157625000001 55.8966158333334 2.33510666666663
    vertex -3.72157625000001 70.4910325000001 2.33510666666662
  endloop
endfacet
facet normal -1.0 0.0 0.0
  outer loop
    vertex -3.72157625000001 55.8966158333334 2.33510666666663
    vertex -3.72157625000001 70.4910325000001 -3.80695475143966e-014
    vertex -3.72157625000001 55.8966158333334 -2.99621438770714e-014
  endloop
endfacet
facet normal 0.0 1.0 -5.55111512312578e-016
  outer loop
    vertex -0.437832500000009 70.4910325000001 2.33510666666662
    vertex -3.72157625000001 70.4910325000001 -3.80695475143966e-014
    vertex -3.72157625000001 70.4910325000001 2.33510666666662
  endloop
endfacet
facet normal 0.0 1.0 -5.55111512312578e-016
  outer loop
    vertex -3.72157625000001 70.4910325000001 -3.80695475143966e-014
    vertex -0.437832500000009 70.4910325000001 2.33510666666662
    vertex -0.437832500000009 70.4910325000001 -3.80695475143966e-014
  endloop
endfacet
facet normal 0.0 -1.0 5.55111512312578e-016
  outer loop
    vertex -0.437832500000009 55.8966158333334 -2.99621438770714e-014
    vertex -3.72157625000001 55.8966158333334 2.33510666666663
    vertex -3.72157625000001 55.8966158333334 -2.99621438770714e-014
  endloop
endfacet
facet normal 0.0 -1.0 5.55111512312578e-016
  outer loop
    vertex -3.72157625000001 55.8966158333334 2.33510666666663
    vertex -0.437832500000009 55.8966158333334 -2.99621438770714e-014
    vertex -0.437832500000009 55.8966158333334 2.33510666666663
  endloop
endfacet
facet normal 1.0 0.0 0.0
  outer loop
    vertex -0.437832500000009 55.8966158333334 -2.99621438770714e-014
    vertex -0.437832500000009 70.4910325000001 2.33510666666662
    vertex -0.437832500000009 55.8966158333334 2.33510666666663
  endloop
endfacet
facet normal 1.0 0.0 0.0
  outer loop
    vertex -0.437832500000009 70.4910325000001 2.33510666666662
    vertex -0.437832500000009 55.8966158333334 -2.99621438770714e-014
    vertex -0.437832500000009 70.4910325000001 -3.80695475143966e-014
  endloop
endfacet
facet normal 0.0 5.55111512312578e-016 1.0
  outer loop
    vertex -0.437832500000009 70.4910325000001 2.33510666666662
    vertex -3.72157625000001 55.8966158333334 2.33510666666663
    vertex -0.437832500000009 55.8966158333334 2.33510666666663
  endloop
endfacet
facet normal 0.0 5.55111512312578e-016 1.0
  outer loop
    vertex -3.72157625000001 55.8966158333334 2.33510666666663
    vertex -0.437832500000009 70.4910325000001 2.33510666666662
    vertex -3.72157625000001 70.4910325000001 2.33510666666662
  endloop
endfacet
facet normal 1.0 0.0 0.0
  outer loop
    vertex 7.88098499999995 55.8966158333334 -4.68819427723588e-014
    vertex 7.88098499999995 70.4910325000001 2.33510666666661
    vertex 7.88098499999995 55.8966158333334 2.33510666666662
  endloop
endfacet
facet normal 1.0 0.0 0.0
  outer loop
    vertex 7.88098499999995 70.4910325000001 2.33510666666661
    vertex 7.88098499999995 55.8966158333334 -4.68819427723588e-014
    vertex 7.88098499999995 70.4910325000001 -5.4989346409684e-014
  endloop
endfacet
facet normal 0.0 1.0 -5.55111512312578e-016
  outer loop
    vertex 3.72157624999995 70.4910325000001 2.33510666666661
    vertex 0.437832499999992 70.4910325000001 -2.15022444294277e-014
    vertex 0.437832499999992 70.4910325000001 2.33510666666661
  endloop
endfacet
facet normal 0.0 1.0 -5.55111512312578e-016
  outer loop
    vertex 0.437832499999992 70.4910325000001 -2.15022444294277e-014
    vertex 3.72157624999995 70.4910325000001 2.33510666666661
    vertex 3.72157624999995 70.4910325000001 -2.15022444294277e-014
  endloop
endfacet
facet normal -1.0 0.0 0.0
  outer loop
    vertex 4.59724124999995 70.4910325000001 -5.4989346409684e-014
    vertex 4.59724124999995 55.8966158333334 2.33510666666662
    vertex 4.59724124999995 70.4910325000001 2.33510666666661
  endloop
endfacet
facet normal -1.0 0.0 0.0
  outer loop
    vertex 4.59724124999995 55.8966158333334 2.33510666666662
    vertex 4.59724124999995 70.4910325000001 -5.4989346409684e-014
    vertex 4.59724124999995 55.8966158333334 -4.68819427723588e-014
  endloop
endfacet
facet normal 0.0 1.0 -5.55111512312578e-016
  outer loop
    vertex 7.88098499999995 70.4910325000001 2.33510666666661
    vertex 4.59724124999995 70.4910325000001 -5.4989346409684e-014
    vertex 4.59724124999995 70.4910325000001 2.33510666666661
  endloop
endfacet
facet normal 0.0 1.0 -5.55111512312578e-016
  outer loop
    vertex 4.59724124999995 70.4910325000001 -5.4989346409684e-014
    vertex 7.88098499999995 70.4910325000001 2.33510666666661
    vertex 7.88098499999995 70.4910325000001 -5.4989346409684e-014
  endloop
endfacet
facet normal 1.0 0.0 0.0
  outer loop
    vertex 3.72157624999995 55.8966158333334 -1.33948407921025e-014
    vertex 3.72157624999995 70.4910325000001 2.33510666666661
    vertex 3.72157624999995 55.8966158333334 2.33510666666662
  endloop
endfacet
facet normal 1.0 0.0 0.0
  outer loop
    vertex 3.72157624999995 70.4910325000001 2.33510666666661
    vertex 3.72157624999995 55.8966158333334 -1.33948407921025e-014
    vertex 3.72157624999995 70.4910325000001 -2.15022444294277e-014
  endloop
endfacet
facet normal 0.0 -1.0 5.55111512312578e-016
  outer loop
    vertex 7.88098499999995 55.8966158333334 -4.68819427723588e-014
    vertex 4.59724124999995 55.8966158333334 2.33510666666662
    vertex 4.59724124999995 55.8966158333334 -4.68819427723588e-014
  endloop
endfacet
facet normal 0.0 -1.0 5.55111512312578e-016
  outer loop
    vertex 4.59724124999995 55.8966158333334 2.33510666666662
    vertex 7.88098499999995 55.8966158333334 -4.68819427723588e-014
    vertex 7.88098499999995 55.8966158333334 2.33510666666662
  endloop
endfacet
facet normal 0.0 5.55111512312578e-016 1.0
  outer loop
    vertex 3.72157624999995 70.4910325000001 2.33510666666661
    vertex 0.437832499999992 55.8966158333334 2.33510666666662
    vertex 3.72157624999995 55.8966158333334 2.33510666666662
  endloop
endfacet
facet normal 0.0 5.55111512312578e-016 1.0
  outer loop
    vertex 0.437832499999992 55.8966158333334 2.33510666666662
    vertex 3.72157624999995 70.4910325000001 2.33510666666661
    vertex 0.437832499999992 70.4910325000001 2.33510666666661
  endloop
endfacet
facet normal 0.0 -1.0 5.55111512312578e-016
  outer loop
    vertex 3.72157624999995 55.8966158333334 -1.33948407921025e-014
    vertex 0.437832499999992 55.8966158333334 2.33510666666662
    vertex 0.437832499999992 55.8966158333334 -1.33948407921025e-014
  endloop
endfacet
facet normal 0.0 -1.0 5.55111512312578e-016
  outer loop
    vertex 0.437832499999992 55.8966158333334 2.33510666666662
    vertex 3.72157624999995 55.8966158333334 -1.33948407921025e-014
    vertex 3.72157624999995 55.8966158333334 2.33510666666662
  endloop
endfacet
facet normal -1.0 0.0 0.0
  outer loop
    vertex 0.437832499999992 70.4910325000001 -2.15022444294277e-014
    vertex 0.437832499999992 55.8966158333334 2.33510666666662
    vertex 0.437832499999992 70.4910325000001 2.33510666666661
  endloop
endfacet
facet normal -1.0 0.0 0.0
  outer loop
    vertex 0.437832499999992 55.8966158333334 2.33510666666662
    vertex 0.437832499999992 70.4910325000001 -2.15022444294277e-014
    vertex 0.437832499999992 55.8966158333334 -1.33948407921025e-014
  endloop
endfacet
facet normal 0.0 5.55111512312578e-016 1.0
  outer loop
    vertex 7.88098499999995 70.4910325000001 2.33510666666661
    vertex 4.59724124999995 55.8966158333334 2.33510666666662
    vertex 7.88098499999995 55.8966158333334 2.33510666666662
  endloop
endfacet
facet normal 0.0 5.55111512312578e-016 1.0
  outer loop
    vertex 4.59724124999995 55.8966158333334 2.33510666666662
    vertex 7.88098499999995 70.4910325000001 2.33510666666661
    vertex 4.59724124999995 70.4910325000001 2.33510666666661
  endloop
endfacet
facet normal -1.0 0.0 0.0
  outer loop
    vertex -7.88098500000001 70.4910325000001 -3.80695475143966e-014
    vertex -7.88098500000001 55.8966158333334 2.33510666666663
    vertex -7.88098500000001 70.4910325000001 2.33510666666662
  endloop
endfacet
facet normal -1.0 0.0 0.0
  outer loop
    vertex -7.88098500000001 55.8966158333334 2.33510666666663
    vertex -7.88098500000001 70.4910325000001 -3.80695475143966e-014
    vertex -7.88098500000001 55.8966158333334 -2.99621438770714e-014
  endloop
endfacet
facet normal 1.0 0.0 0.0
  outer loop
    vertex -4.59724125 55.8966158333334 -2.99621438770714e-014
    vertex -4.59724125 70.4910325000001 2.33510666666662
    vertex -4.59724125 55.8966158333334 2.33510666666663
  endloop
endfacet
facet normal 1.0 0.0 0.0
  outer loop
    vertex -4.59724125 70.4910325000001 2.33510666666662
    vertex -4.59724125 55.8966158333334 -2.99621438770714e-014
    vertex -4.59724125 70.4910325000001 -3.80695475143966e-014
  endloop
endfacet
facet normal 0.0 1.0 -5.55111512312578e-016
  outer loop
    vertex -4.59724125 70.4910325000001 2.33510666666662
    vertex -7.88098500000001 70.4910325000001 -3.80695475143966e-014
    vertex -7.88098500000001 70.4910325000001 2.33510666666662
  endloop
endfacet
facet normal 0.0 1.0 -5.55111512312578e-016
  outer loop
    vertex -7.88098500000001 70.4910325000001 -3.80695475143966e-014
    vertex -4.59724125 70.4910325000001 2.33510666666662
    vertex -4.59724125 70.4910325000001 -3.80695475143966e-014
  endloop
endfacet
facet normal 0.0 5.55111512312578e-016 1.0
  outer loop
    vertex -4.59724125 70.4910325000001 2.33510666666662
    vertex -7.88098500000001 55.8966158333334 2.33510666666663
    vertex -4.59724125 55.8966158333334 2.33510666666663
  endloop
endfacet
facet normal 0.0 5.55111512312578e-016 1.0
  outer loop
    vertex -7.88098500000001 55.8966158333334 2.33510666666663
    vertex -4.59724125 70.4910325000001 2.33510666666662
    vertex -7.88098500000001 70.4910325000001 2.33510666666662
  endloop
endfacet
facet normal 0.0 -1.0 5.55111512312578e-016
  outer loop
    vertex -4.59724125 55.8966158333334 -2.99621438770714e-014
    vertex -7.88098500000001 55.8966158333334 2.33510666666663
    vertex -7.88098500000001 55.8966158333334 -2.99621438770714e-014
  endloop
endfacet
facet normal 0.0 -1.0 5.55111512312578e-016
  outer loop
    vertex -7.88098500000001 55.8966158333334 2.33510666666663
    vertex -4.59724125 55.8966158333334 -2.99621438770714e-014
    vertex -4.59724125 55.8966158333334 2.33510666666663
  endloop
endfacet
facet normal -1.0 0.0 0.0
  outer loop
    vertex -27.145615 70.4910325000001 -1.76247905159244e-014
    vertex -27.145615 55.8966158333334 2.33510666666667
    vertex -27.145615 70.4910325000001 2.33510666666666
  endloop
endfacet
facet normal -1.0 0.0 0.0
  outer loop
    vertex -27.145615 55.8966158333334 2.33510666666667
    vertex -27.145615 70.4910325000001 -1.76247905159244e-014
    vertex -27.145615 55.8966158333334 -9.51738687859915e-015
  endloop
endfacet
facet normal 1.0 0.0 0.0
  outer loop
    vertex -24.9564525 55.8966158333334 -9.51738687859915e-015
    vertex -24.9564525 70.4910325000001 2.33510666666666
    vertex -24.9564525 55.8966158333334 2.33510666666667
  endloop
endfacet
facet normal 1.0 0.0 0.0
  outer loop
    vertex -24.9564525 70.4910325000001 2.33510666666666
    vertex -24.9564525 55.8966158333334 -9.51738687859915e-015
    vertex -24.9564525 70.4910325000001 -1.76247905159244e-014
  endloop
endfacet
facet normal 0.0 -1.0 5.55111512312578e-016
  outer loop
    vertex -24.9564525 55.8966158333334 -9.51738687859915e-015
    vertex -27.145615 55.8966158333334 2.33510666666667
    vertex -27.145615 55.8966158333334 -9.51738687859915e-015
  endloop
endfacet
facet normal 0.0 -1.0 5.55111512312578e-016
  outer loop
    vertex -27.145615 55.8966158333334 2.33510666666667
    vertex -24.9564525 55.8966158333334 -9.51738687859915e-015
    vertex -24.9564525 55.8966158333334 2.33510666666667
  endloop
endfacet
facet normal 0.0 1.0 -5.55111512312578e-016
  outer loop
    vertex -24.9564525 70.4910325000001 2.33510666666666
    vertex -27.145615 70.4910325000001 -1.76247905159244e-014
    vertex -27.145615 70.4910325000001 2.33510666666666
  endloop
endfacet
facet normal 0.0 1.0 -5.55111512312578e-016
  outer loop
    vertex -27.145615 70.4910325000001 -1.76247905159244e-014
    vertex -24.9564525 70.4910325000001 2.33510666666666
    vertex -24.9564525 70.4910325000001 -1.76247905159244e-014
  endloop
endfacet
facet normal 0.0 5.55111512312578e-016 1.0
  outer loop
    vertex -24.9564525 70.4910325000001 2.33510666666666
    vertex -27.145615 55.8966158333334 2.33510666666667
    vertex -24.9564525 55.8966158333334 2.33510666666667
  endloop
endfacet
facet normal 0.0 5.55111512312578e-016 1.0
  outer loop
    vertex -27.145615 55.8966158333334 2.33510666666667
    vertex -24.9564525 70.4910325000001 2.33510666666666
    vertex -27.145615 70.4910325000001 2.33510666666666
  endloop
endfacet
facet normal 0.0 -5.55111512312578e-016 -1.0
  outer loop
    vertex -24.0807875 70.4910325000001 -2.57321941532496e-014
    vertex -21.891625 55.8966158333334 -1.76247905159244e-014
    vertex -24.0807875 55.8966158333334 -1.76247905159244e-014
  endloop
endfacet
facet normal 0.0 -5.55111512312578e-016 -1.0
  outer loop
    vertex -21.891625 55.8966158333334 -1.76247905159244e-014
    vertex -24.0807875 70.4910325000001 -2.57321941532496e-014
    vertex -21.891625 70.4910325000001 -2.57321941532496e-014
  endloop
endfacet
facet normal 0.0 -1.0 5.55111512312578e-016
  outer loop
    vertex -21.891625 55.8966158333334 -1.76247905159244e-014
    vertex -24.0807875 55.8966158333334 2.33510666666665
    vertex -24.0807875 55.8966158333334 -1.76247905159244e-014
  endloop
endfacet
facet normal 0.0 -1.0 5.55111512312578e-016
  outer loop
    vertex -24.0807875 55.8966158333334 2.33510666666665
    vertex -21.891625 55.8966158333334 -1.76247905159244e-014
    vertex -21.891625 55.8966158333334 2.33510666666665
  endloop
endfacet
facet normal 0.0 5.55111512312578e-016 1.0
  outer loop
    vertex -21.891625 70.4910325000001 2.33510666666664
    vertex -24.0807875 55.8966158333334 2.33510666666665
    vertex -21.891625 55.8966158333334 2.33510666666665
  endloop
endfacet
facet normal 0.0 5.55111512312578e-016 1.0
  outer loop
    vertex -24.0807875 55.8966158333334 2.33510666666665
    vertex -21.891625 70.4910325000001 2.33510666666664
    vertex -24.0807875 70.4910325000001 2.33510666666664
  endloop
endfacet
facet normal -1.0 0.0 0.0
  outer loop
    vertex -24.0807875 70.4910325000001 -2.57321941532496e-014
    vertex -24.0807875 55.8966158333334 2.33510666666665
    vertex -24.0807875 70.4910325000001 2.33510666666664
  endloop
endfacet
facet normal -1.0 0.0 0.0
  outer loop
    vertex -24.0807875 55.8966158333334 2.33510666666665
    vertex -24.0807875 70.4910325000001 -2.57321941532496e-014
    vertex -24.0807875 55.8966158333334 -1.76247905159244e-014
  endloop
endfacet
facet normal 0.0 1.0 -5.55111512312578e-016
  outer loop
    vertex -21.891625 70.4910325000001 2.33510666666664
    vertex -24.0807875 70.4910325000001 -2.57321941532496e-014
    vertex -24.0807875 70.4910325000001 2.33510666666664
  endloop
endfacet
facet normal 0.0 1.0 -5.55111512312578e-016
  outer loop
    vertex -24.0807875 70.4910325000001 -2.57321941532496e-014
    vertex -21.891625 70.4910325000001 2.33510666666664
    vertex -21.891625 70.4910325000001 -2.57321941532496e-014
  endloop
endfacet
facet normal 1.0 0.0 0.0
  outer loop
    vertex -21.891625 55.8966158333334 -1.76247905159244e-014
    vertex -21.891625 70.4910325000001 2.33510666666664
    vertex -21.891625 55.8966158333334 2.33510666666665
  endloop
endfacet
facet normal 1.0 0.0 0.0
  outer loop
    vertex -21.891625 70.4910325000001 2.33510666666664
    vertex -21.891625 55.8966158333334 -1.76247905159244e-014
    vertex -21.891625 70.4910325000001 -2.57321941532496e-014
  endloop
endfacet
facet normal 0.0 -5.55111512312578e-016 -1.0
  outer loop
    vertex -27.145615 70.4910325000001 -1.76247905159244e-014
    vertex -24.9564525 55.8966158333334 -9.51738687859915e-015
    vertex -27.145615 55.8966158333334 -9.51738687859915e-015
  endloop
endfacet
facet normal 0.0 -5.55111512312578e-016 -1.0
  outer loop
    vertex -24.9564525 55.8966158333334 -9.51738687859915e-015
    vertex -27.145615 70.4910325000001 -1.76247905159244e-014
    vertex -24.9564525 70.4910325000001 -1.76247905159244e-014
  endloop
endfacet
facet normal 0.0 1.0 -5.55111512312578e-016
  outer loop
    vertex 9.04853833333336 23.8541994511456 2.33510666666669
    vertex 2.3351066666666 23.8541994511456 -1.93872695675168e-014
    vertex 2.3351066666666 23.8541994511456 2.33510666666669
  endloop
endfacet
facet normal 0.0 1.0 -5.55111512312578e-016
  outer loop
    vertex 2.3351066666666 23.8541994511456 -1.93872695675168e-014
    vertex 9.04853833333336 23.8541994511456 2.33510666666669
    vertex 9.04853833333336 23.8541994511456 -1.93872695675168e-014
  endloop
endfacet
facet normal 0.0 1.0 -5.55111512312578e-016
  outer loop
    vertex -2.33510666666667 23.8541994511456 2.33510666666667
    vertex -9.04853833333341 23.8541994511456 5.63993296509579e-015
    vertex -9.04853833333341 23.8541994511456 2.33510666666667
  endloop
endfacet
facet normal 0.0 1.0 -5.55111512312578e-016
  outer loop
    vertex -9.04853833333341 23.8541994511456 5.63993296509579e-015
    vertex -2.33510666666667 23.8541994511456 2.33510666666667
    vertex -2.33510666666667 23.8541994511456 5.63993296509579e-015
  endloop
endfacet
facet normal 1.0 0.0 0.0
  outer loop
    vertex -2.33510666666667 2.91888333333333 1.72722947056059e-014
    vertex -2.33510666666667 23.8541994511456 2.33510666666667
    vertex -2.33510666666667 2.91888333333333 2.33510666666668
  endloop
endfacet
facet normal 1.0 0.0 0.0
  outer loop
    vertex -2.33510666666667 23.8541994511456 2.33510666666667
    vertex -2.33510666666667 2.91888333333333 1.72722947056059e-014
    vertex -2.33510666666667 23.8541994511456 5.63993296509579e-015
  endloop
endfacet
facet normal 0.0 -5.55111512312578e-016 -1.0
  outer loop
    vertex 2.3351066666666 23.8541994511456 -1.93872695675168e-014
    vertex 9.04853833333336 2.91888333333333 -7.75490782700672e-015
    vertex 2.3351066666666 2.91888333333333 -7.75490782700672e-015
  endloop
endfacet
facet normal 0.0 -5.55111512312578e-016 -1.0
  outer loop
    vertex 9.04853833333336 2.91888333333333 -7.75490782700672e-015
    vertex 2.3351066666666 23.8541994511456 -1.93872695675168e-014
    vertex 9.04853833333336 23.8541994511456 -1.93872695675168e-014
  endloop
endfacet
facet normal 0.0 -5.55111512312578e-016 -1.0
  outer loop
    vertex -9.04853833333341 2.91888333333333 1.72722947056059e-014
    vertex -2.33510666666667 23.8541994511456 5.63993296509579e-015
    vertex -2.33510666666667 2.91888333333333 1.72722947056059e-014
  endloop
endfacet
facet normal 0.0 -5.55111512312578e-016 -1.0
  outer loop
    vertex -2.33510666666667 23.8541994511456 5.63993296509579e-015
    vertex -9.04853833333341 2.91888333333333 1.72722947056059e-014
    vertex -9.04853833333341 23.8541994511456 5.63993296509579e-015
  endloop
endfacet
facet normal 0.0 -1.0 5.55111512312578e-016
  outer loop
    vertex 9.04853833333336 2.91888333333333 -7.75490782700672e-015
    vertex 2.3351066666666 2.91888333333333 2.3351066666667
    vertex 2.3351066666666 2.91888333333333 -7.75490782700672e-015
  endloop
endfacet
facet normal 0.0 -1.0 5.55111512312578e-016
  outer loop
    vertex 2.3351066666666 2.91888333333333 2.3351066666667
    vertex 9.04853833333336 2.91888333333333 -7.75490782700672e-015
    vertex 9.04853833333336 2.91888333333333 2.3351066666667
  endloop
endfacet
facet normal 1.0 0.0 0.0
  outer loop
    vertex 9.04853833333336 2.91888333333333 -7.75490782700672e-015
    vertex 9.04853833333336 23.8541994511456 2.33510666666669
    vertex 9.04853833333336 2.91888333333333 2.3351066666667
  endloop
endfacet
facet normal 1.0 0.0 0.0
  outer loop
    vertex 9.04853833333336 23.8541994511456 2.33510666666669
    vertex 9.04853833333336 2.91888333333333 -7.75490782700672e-015
    vertex 9.04853833333336 23.8541994511456 -1.93872695675168e-014
  endloop
endfacet
facet normal -1.0 0.0 0.0
  outer loop
    vertex 2.3351066666666 23.8541994511456 -1.93872695675168e-014
    vertex 2.3351066666666 2.91888333333333 2.3351066666667
    vertex 2.3351066666666 23.8541994511456 2.33510666666669
  endloop
endfacet
facet normal -1.0 0.0 0.0
  outer loop
    vertex 2.3351066666666 2.91888333333333 2.3351066666667
    vertex 2.3351066666666 23.8541994511456 -1.93872695675168e-014
    vertex 2.3351066666666 2.91888333333333 -7.75490782700672e-015
  endloop
endfacet
facet normal 0.0 5.55111512312578e-016 1.0
  outer loop
    vertex 9.04853833333336 23.8541994511456 2.33510666666669
    vertex 2.3351066666666 2.91888333333333 2.3351066666667
    vertex 9.04853833333336 2.91888333333333 2.3351066666667
  endloop
endfacet
facet normal 0.0 5.55111512312578e-016 1.0
  outer loop
    vertex 2.3351066666666 2.91888333333333 2.3351066666667
    vertex 9.04853833333336 23.8541994511456 2.33510666666669
    vertex 2.3351066666666 23.8541994511456 2.33510666666669
  endloop
endfacet
facet normal -3.08931624243518e-016 -1.0 5.55111512312578e-016
  outer loop
    vertex -2.33510666666667 2.91888333333333 1.72722947056059e-014
    vertex -9.04853833333341 2.91888333333334 2.33510666666668
    vertex -9.04853833333341 2.91888333333333 1.72722947056059e-014
  endloop
endfacet
facet normal -3.08931624243518e-016 -1.0 5.55111512312578e-016
  outer loop
    vertex -9.04853833333341 2.91888333333334 2.33510666666668
    vertex -2.33510666666667 2.91888333333333 1.72722947056059e-014
    vertex -2.33510666666667 2.91888333333333 2.33510666666668
  endloop
endfacet
facet normal 0.0 5.55111512312578e-016 1.0
  outer loop
    vertex -2.33510666666667 23.8541994511456 2.33510666666667
    vertex -9.04853833333341 2.91888333333334 2.33510666666668
    vertex -2.33510666666667 2.91888333333333 2.33510666666668
  endloop
endfacet
facet normal 0.0 5.55111512312578e-016 1.0
  outer loop
    vertex -9.04853833333341 2.91888333333334 2.33510666666668
    vertex -2.33510666666667 23.8541994511456 2.33510666666667
    vertex -9.04853833333341 23.8541994511456 2.33510666666667
  endloop
endfacet
facet normal -1.0 0.0 0.0
  outer loop
    vertex -9.04853833333341 23.8541994511456 5.63993296509579e-015
    vertex -9.04853833333341 2.91888333333334 2.33510666666668
    vertex -9.04853833333341 23.8541994511456 2.33510666666667
  endloop
endfacet
facet normal -1.0 0.0 0.0
  outer loop
    vertex -9.04853833333341 2.91888333333334 2.33510666666668
    vertex -9.04853833333341 23.8541994511456 5.63993296509579e-015
    vertex -9.04853833333341 2.91888333333333 1.72722947056059e-014
  endloop
endfacet
facet normal 0.0 1.0 -5.55111512312578e-016
  outer loop
    vertex 27.145615 26.5618383333333 2.33510666666665
    vertex 24.9564525 26.5618383333333 -2.11497486191092e-014
    vertex 24.9564525 26.5618383333333 2.33510666666665
  endloop
endfacet
facet normal 0.0 1.0 -5.55111512312578e-016
  outer loop
    vertex 24.9564525 26.5618383333333 -2.11497486191092e-014
    vertex 27.145615 26.5618383333333 2.33510666666665
    vertex 27.145615 26.5618383333333 -2.11497486191092e-014
  endloop
endfacet
facet normal -0.0 5.55111512312578e-016 1.0
  outer loop
    vertex 27.145615 26.5618383333333 2.33510666666665
    vertex 24.9564525 9.632315 2.33510666666665
    vertex 27.145615 9.632315 2.33510666666665
  endloop
endfacet
facet normal -0.0 5.55111512312578e-016 1.0
  outer loop
    vertex 24.9564525 9.632315 2.33510666666665
    vertex 27.145615 26.5618383333333 2.33510666666665
    vertex 24.9564525 26.5618383333333 2.33510666666665
  endloop
endfacet
facet normal -1.0 0.0 0.0
  outer loop
    vertex 24.9564525 26.5618383333333 -2.11497486191092e-014
    vertex 24.9564525 9.632315 2.33510666666665
    vertex 24.9564525 26.5618383333333 2.33510666666665
  endloop
endfacet
facet normal -1.0 0.0 0.0
  outer loop
    vertex 24.9564525 9.632315 2.33510666666665
    vertex 24.9564525 26.5618383333333 -2.11497486191092e-014
    vertex 24.9564525 9.632315 -1.16323617405101e-014
  endloop
endfacet
facet normal 1.0 0.0 0.0
  outer loop
    vertex 27.145615 9.632315 -1.16323617405101e-014
    vertex 27.145615 26.5618383333333 2.33510666666665
    vertex 27.145615 9.632315 2.33510666666665
  endloop
endfacet
facet normal 1.0 0.0 0.0
  outer loop
    vertex 27.145615 26.5618383333333 2.33510666666665
    vertex 27.145615 9.632315 -1.16323617405101e-014
    vertex 27.145615 26.5618383333333 -2.11497486191092e-014
  endloop
endfacet
facet normal 0.0 -1.0 5.55111512312578e-016
  outer loop
    vertex 27.145615 9.632315 -1.16323617405101e-014
    vertex 24.9564525 9.632315 2.33510666666665
    vertex 24.9564525 9.632315 -1.16323617405101e-014
  endloop
endfacet
facet normal 0.0 -1.0 5.55111512312578e-016
  outer loop
    vertex 24.9564525 9.632315 2.33510666666665
    vertex 27.145615 9.632315 -1.16323617405101e-014
    vertex 27.145615 9.632315 2.33510666666665
  endloop
endfacet
facet normal 0.0 -5.55111512312578e-016 -1.0
  outer loop
    vertex 21.891625 26.5618383333333 -1.26898491714655e-014
    vertex 24.0807875 9.632315 -3.17246229286638e-015
    vertex 21.891625 9.632315 -3.17246229286638e-015
  endloop
endfacet
facet normal 0.0 -5.55111512312578e-016 -1.0
  outer loop
    vertex 24.0807875 9.632315 -3.17246229286638e-015
    vertex 21.891625 26.5618383333333 -1.26898491714655e-014
    vertex 24.0807875 26.5618383333333 -1.26898491714655e-014
  endloop
endfacet
facet normal 0.0 -5.55111512312578e-016 -1.0
  outer loop
    vertex 24.9564525 26.5618383333333 -2.11497486191092e-014
    vertex 27.145615 9.632315 -1.16323617405101e-014
    vertex 24.9564525 9.632315 -1.16323617405101e-014
  endloop
endfacet
facet normal 0.0 -5.55111512312578e-016 -1.0
  outer loop
    vertex 27.145615 9.632315 -1.16323617405101e-014
    vertex 24.9564525 26.5618383333333 -2.11497486191092e-014
    vertex 27.145615 26.5618383333333 -2.11497486191092e-014
  endloop
endfacet
facet normal -0.0 5.55111512312578e-016 1.0
  outer loop
    vertex 24.0807875 26.5618383333333 2.33510666666665
    vertex 21.891625 9.632315 2.33510666666666
    vertex 24.0807875 9.632315 2.33510666666666
  endloop
endfacet
facet normal -0.0 5.55111512312578e-016 1.0
  outer loop
    vertex 21.891625 9.632315 2.33510666666666
    vertex 24.0807875 26.5618383333333 2.33510666666665
    vertex 21.891625 26.5618383333333 2.33510666666665
  endloop
endfacet
facet normal -1.0 0.0 -0.0
  outer loop
    vertex 21.891625 26.5618383333333 -1.26898491714655e-014
    vertex 21.891625 9.632315 2.33510666666666
    vertex 21.891625 26.5618383333333 2.33510666666665
  endloop
endfacet
facet normal -1.0 0.0 -0.0
  outer loop
    vertex 21.891625 9.632315 2.33510666666666
    vertex 21.891625 26.5618383333333 -1.26898491714655e-014
    vertex 21.891625 9.632315 -3.17246229286638e-015
  endloop
endfacet
facet normal 0.0 1.0 -5.55111512312578e-016
  outer loop
    vertex 24.0807875 26.5618383333333 2.33510666666665
    vertex 21.891625 26.5618383333333 -1.26898491714655e-014
    vertex 21.891625 26.5618383333333 2.33510666666665
  endloop
endfacet
facet normal 0.0 1.0 -5.55111512312578e-016
  outer loop
    vertex 21.891625 26.5618383333333 -1.26898491714655e-014
    vertex 24.0807875 26.5618383333333 2.33510666666665
    vertex 24.0807875 26.5618383333333 -1.26898491714655e-014
  endloop
endfacet
facet normal -0.0 -1.0 5.55111512312578e-016
  outer loop
    vertex 24.0807875 9.632315 -3.17246229286638e-015
    vertex 21.891625 9.632315 2.33510666666666
    vertex 21.891625 9.632315 -3.17246229286638e-015
  endloop
endfacet
facet normal -0.0 -1.0 5.55111512312578e-016
  outer loop
    vertex 21.891625 9.632315 2.33510666666666
    vertex 24.0807875 9.632315 -3.17246229286638e-015
    vertex 24.0807875 9.632315 2.33510666666666
  endloop
endfacet
facet normal 1.0 0.0 0.0
  outer loop
    vertex 24.0807875 9.632315 -3.17246229286638e-015
    vertex 24.0807875 26.5618383333333 2.33510666666665
    vertex 24.0807875 9.632315 2.33510666666666
  endloop
endfacet
facet normal 1.0 0.0 0.0
  outer loop
    vertex 24.0807875 26.5618383333333 2.33510666666665
    vertex 24.0807875 9.632315 -3.17246229286638e-015
    vertex 24.0807875 26.5618383333333 -1.26898491714655e-014
  endloop
endfacet
facet normal 0.0 1.0 -5.55111512312578e-016
  outer loop
    vertex 31.8158283333333 -12.25931 -7.40241201668823e-015
    vertex 24.2267316666666 -12.25931 2.04321833333333
    vertex 31.8158283333333 -12.25931 2.04321833333333
  endloop
endfacet
facet normal 0.0 1.0 -5.55111512312578e-016
  outer loop
    vertex 24.2267316666666 -12.25931 2.04321833333333
    vertex 31.8158283333333 -12.25931 -7.40241201668823e-015
    vertex 24.2267316666666 -12.25931 -4.58244553414033e-015
  endloop
endfacet
facet normal -1.0 2.1570415377137e-031 3.88578058618805e-016
  outer loop
    vertex 24.2267316666666 -4.08643666666663 2.04321833333334
    vertex 24.2267316666666 -11.0917566666666 1.12798659301916e-014
    vertex 24.2267316666666 -11.0917566666666 2.04321833333334
  endloop
endfacet
facet normal -1.0 2.1570415377137e-031 3.88578058618805e-016
  outer loop
    vertex 24.2267316666666 -11.0917566666666 1.12798659301916e-014
    vertex 24.2267316666666 -4.08643666666663 2.04321833333334
    vertex 24.2267316666666 -4.08643666666663 7.40241201668823e-015
  endloop
endfacet
facet normal 1.0 -2.1570415377137e-031 -3.88578058618805e-016
  outer loop
    vertex 31.8158283333333 -12.25931 -7.40241201668823e-015
    vertex 31.8158283333333 -19.2646299999999 2.04321833333333
    vertex 31.8158283333333 -19.2646299999999 -3.52495810318487e-015
  endloop
endfacet
facet normal 1.0 -2.1570415377137e-031 -3.88578058618805e-016
  outer loop
    vertex 31.8158283333333 -19.2646299999999 2.04321833333333
    vertex 31.8158283333333 -12.25931 -7.40241201668823e-015
    vertex 31.8158283333333 -12.25931 2.04321833333333
  endloop
endfacet
facet normal 3.88578058618805e-016 5.55111512312578e-016 1.0
  outer loop
    vertex 24.2267316666666 -4.08643666666663 2.04321833333334
    vertex 31.8158283333333 -11.0917566666666 2.04321833333334
    vertex 31.8158283333333 -4.08643666666663 2.04321833333334
  endloop
endfacet
facet normal 3.88578058618805e-016 5.55111512312578e-016 1.0
  outer loop
    vertex 31.8158283333333 -11.0917566666666 2.04321833333334
    vertex 24.2267316666666 -4.08643666666663 2.04321833333334
    vertex 24.2267316666666 -11.0917566666666 2.04321833333334
  endloop
endfacet
facet normal 1.0 -2.1570415377137e-031 -3.88578058618805e-016
  outer loop
    vertex 31.8158283333333 -4.08643666666663 4.58244553414033e-015
    vertex 31.8158283333333 -11.0917566666666 2.04321833333334
    vertex 31.8158283333333 -11.0917566666666 8.45989944764369e-015
  endloop
endfacet
facet normal 1.0 -2.1570415377137e-031 -3.88578058618805e-016
  outer loop
    vertex 31.8158283333333 -11.0917566666666 2.04321833333334
    vertex 31.8158283333333 -4.08643666666663 4.58244553414033e-015
    vertex 31.8158283333333 -4.08643666666663 2.04321833333334
  endloop
endfacet
facet normal -0.0 -1.0 5.55111512312578e-016
  outer loop
    vertex 24.2267316666666 -19.2646299999999 -7.04991620636974e-016
    vertex 31.8158283333333 -19.2646299999999 2.04321833333333
    vertex 24.2267316666666 -19.2646299999999 2.04321833333333
  endloop
endfacet
facet normal -0.0 -1.0 5.55111512312578e-016
  outer loop
    vertex 31.8158283333333 -19.2646299999999 2.04321833333333
    vertex 24.2267316666666 -19.2646299999999 -7.04991620636974e-016
    vertex 31.8158283333333 -19.2646299999999 -3.52495810318487e-015
  endloop
endfacet
facet normal -0.0 -1.0 5.55111512312578e-016
  outer loop
    vertex 24.2267316666666 -11.0917566666666 1.12798659301916e-014
    vertex 31.8158283333333 -11.0917566666666 2.04321833333334
    vertex 24.2267316666666 -11.0917566666666 2.04321833333334
  endloop
endfacet
facet normal -0.0 -1.0 5.55111512312578e-016
  outer loop
    vertex 31.8158283333333 -11.0917566666666 2.04321833333334
    vertex 24.2267316666666 -11.0917566666666 1.12798659301916e-014
    vertex 31.8158283333333 -11.0917566666666 8.45989944764369e-015
  endloop
endfacet
facet normal -1.0 2.1570415377137e-031 3.88578058618805e-016
  outer loop
    vertex 24.2267316666666 -12.25931 2.04321833333333
    vertex 24.2267316666666 -19.2646299999999 -7.04991620636974e-016
    vertex 24.2267316666666 -19.2646299999999 2.04321833333333
  endloop
endfacet
facet normal -1.0 2.1570415377137e-031 3.88578058618805e-016
  outer loop
    vertex 24.2267316666666 -19.2646299999999 -7.04991620636974e-016
    vertex 24.2267316666666 -12.25931 2.04321833333333
    vertex 24.2267316666666 -12.25931 -4.58244553414033e-015
  endloop
endfacet
facet normal -3.88578058618805e-016 -5.55111512312578e-016 -1.0
  outer loop
    vertex 24.2267316666666 -19.2646299999999 -7.04991620636974e-016
    vertex 31.8158283333333 -12.25931 -7.40241201668823e-015
    vertex 31.8158283333333 -19.2646299999999 -3.52495810318487e-015
  endloop
endfacet
facet normal -3.88578058618805e-016 -5.55111512312578e-016 -1.0
  outer loop
    vertex 31.8158283333333 -12.25931 -7.40241201668823e-015
    vertex 24.2267316666666 -19.2646299999999 -7.04991620636974e-016
    vertex 24.2267316666666 -12.25931 -4.58244553414033e-015
  endloop
endfacet
facet normal 0.0 1.0 -5.55111512312578e-016
  outer loop
    vertex 31.8158283333333 -4.08643666666663 4.58244553414033e-015
    vertex 24.2267316666666 -4.08643666666663 2.04321833333334
    vertex 31.8158283333333 -4.08643666666663 2.04321833333334
  endloop
endfacet
facet normal 0.0 1.0 -5.55111512312578e-016
  outer loop
    vertex 24.2267316666666 -4.08643666666663 2.04321833333334
    vertex 31.8158283333333 -4.08643666666663 4.58244553414033e-015
    vertex 24.2267316666666 -4.08643666666663 7.40241201668823e-015
  endloop
endfacet
facet normal 3.88578058618805e-016 5.55111512312578e-016 1.0
  outer loop
    vertex 24.2267316666666 -12.25931 2.04321833333333
    vertex 31.8158283333333 -19.2646299999999 2.04321833333333
    vertex 31.8158283333333 -12.25931 2.04321833333333
  endloop
endfacet
facet normal 3.88578058618805e-016 5.55111512312578e-016 1.0
  outer loop
    vertex 31.8158283333333 -19.2646299999999 2.04321833333333
    vertex 24.2267316666666 -12.25931 2.04321833333333
    vertex 24.2267316666666 -19.2646299999999 2.04321833333333
  endloop
endfacet
facet normal -3.88578058618805e-016 -5.55111512312578e-016 -1.0
  outer loop
    vertex 24.2267316666666 -11.0917566666666 1.12798659301916e-014
    vertex 31.8158283333333 -4.08643666666663 4.58244553414033e-015
    vertex 31.8158283333333 -11.0917566666666 8.45989944764369e-015
  endloop
endfacet
facet normal -3.88578058618805e-016 -5.55111512312578e-016 -1.0
  outer loop
    vertex 31.8158283333333 -4.08643666666663 4.58244553414033e-015
    vertex 24.2267316666666 -11.0917566666666 1.12798659301916e-014
    vertex 24.2267316666666 -4.08643666666663 7.40241201668823e-015
  endloop
endfacet
facet normal 0.0 1.0 -5.55111512312578e-016
  outer loop
    vertex 3.79454833333328 -12.25931 3.52495810318487e-015
    vertex -3.79454833333339 -12.25931 2.04321833333334
    vertex 3.79454833333328 -12.25931 2.04321833333334
  endloop
endfacet
facet normal 0.0 1.0 -5.55111512312578e-016
  outer loop
    vertex -3.79454833333339 -12.25931 2.04321833333334
    vertex 3.79454833333328 -12.25931 3.52495810318487e-015
    vertex -3.79454833333339 -12.25931 6.34492458573277e-015
  endloop
endfacet
facet normal -1.0 2.1570415377137e-031 3.88578058618805e-016
  outer loop
    vertex -3.79454833333339 -4.08643666666663 2.04321833333335
    vertex -3.79454833333339 -11.0917566666666 2.22072360500647e-014
    vertex -3.79454833333339 -11.0917566666666 2.04321833333336
  endloop
endfacet
facet normal -1.0 2.1570415377137e-031 3.88578058618805e-016
  outer loop
    vertex -3.79454833333339 -11.0917566666666 2.22072360500647e-014
    vertex -3.79454833333339 -4.08643666666663 2.04321833333335
    vertex -3.79454833333339 -4.08643666666663 1.83297821365613e-014
  endloop
endfacet
facet normal 1.0 -2.1570415377137e-031 -3.88578058618805e-016
  outer loop
    vertex 3.79454833333328 -12.25931 3.52495810318487e-015
    vertex 3.79454833333328 -19.2646299999999 2.04321833333334
    vertex 3.79454833333328 -19.2646299999999 7.40241201668823e-015
  endloop
endfacet
facet normal 1.0 -2.1570415377137e-031 -3.88578058618805e-016
  outer loop
    vertex 3.79454833333328 -19.2646299999999 2.04321833333334
    vertex 3.79454833333328 -12.25931 3.52495810318487e-015
    vertex 3.79454833333328 -12.25931 2.04321833333334
  endloop
endfacet
facet normal 3.88578058618805e-016 5.55111512312578e-016 1.0
  outer loop
    vertex -3.79454833333339 -4.08643666666663 2.04321833333335
    vertex 3.79454833333328 -11.0917566666666 2.04321833333335
    vertex 3.79454833333328 -4.08643666666663 2.04321833333335
  endloop
endfacet
facet normal 3.88578058618805e-016 5.55111512312578e-016 1.0
  outer loop
    vertex 3.79454833333328 -11.0917566666666 2.04321833333335
    vertex -3.79454833333339 -4.08643666666663 2.04321833333335
    vertex -3.79454833333339 -11.0917566666666 2.04321833333336
  endloop
endfacet
facet normal 1.0 -2.1570415377137e-031 -3.88578058618805e-016
  outer loop
    vertex 3.79454833333328 -4.08643666666663 1.55098156540134e-014
    vertex 3.79454833333328 -11.0917566666666 2.04321833333335
    vertex 3.79454833333328 -11.0917566666666 1.93872695675168e-014
  endloop
endfacet
facet normal 1.0 -2.1570415377137e-031 -3.88578058618805e-016
  outer loop
    vertex 3.79454833333328 -11.0917566666666 2.04321833333335
    vertex 3.79454833333328 -4.08643666666663 1.55098156540134e-014
    vertex 3.79454833333328 -4.08643666666663 2.04321833333335
  endloop
endfacet
facet normal 3.88578058618805e-016 5.55111512312578e-016 1.0
  outer loop
    vertex -3.79454833333339 -12.25931 2.04321833333334
    vertex 3.79454833333328 -19.2646299999999 2.04321833333334
    vertex 3.79454833333328 -12.25931 2.04321833333334
  endloop
endfacet
facet normal 3.88578058618805e-016 5.55111512312578e-016 1.0
  outer loop
    vertex 3.79454833333328 -19.2646299999999 2.04321833333334
    vertex -3.79454833333339 -12.25931 2.04321833333334
    vertex -3.79454833333339 -19.2646299999999 2.04321833333334
  endloop
endfacet
facet normal -0.0 -1.0 5.55111512312578e-016
  outer loop
    vertex -3.79454833333339 -19.2646299999999 1.02223784992361e-014
    vertex 3.79454833333328 -19.2646299999999 2.04321833333334
    vertex -3.79454833333339 -19.2646299999999 2.04321833333334
  endloop
endfacet
facet normal -0.0 -1.0 5.55111512312578e-016
  outer loop
    vertex 3.79454833333328 -19.2646299999999 2.04321833333334
    vertex -3.79454833333339 -19.2646299999999 1.02223784992361e-014
    vertex 3.79454833333328 -19.2646299999999 7.40241201668823e-015
  endloop
endfacet
facet normal -3.88578058618805e-016 -5.55111512312578e-016 -1.0
  outer loop
    vertex -3.79454833333339 -19.2646299999999 1.02223784992361e-014
    vertex 3.79454833333328 -12.25931 3.52495810318487e-015
    vertex 3.79454833333328 -19.2646299999999 7.40241201668823e-015
  endloop
endfacet
facet normal -3.88578058618805e-016 -5.55111512312578e-016 -1.0
  outer loop
    vertex 3.79454833333328 -12.25931 3.52495810318487e-015
    vertex -3.79454833333339 -19.2646299999999 1.02223784992361e-014
    vertex -3.79454833333339 -12.25931 6.34492458573277e-015
  endloop
endfacet
facet normal -0.0 -1.0 5.55111512312578e-016
  outer loop
    vertex -3.79454833333339 -11.0917566666666 2.22072360500647e-014
    vertex 3.79454833333328 -11.0917566666666 2.04321833333335
    vertex -3.79454833333339 -11.0917566666666 2.04321833333336
  endloop
endfacet
facet normal -0.0 -1.0 5.55111512312578e-016
  outer loop
    vertex 3.79454833333328 -11.0917566666666 2.04321833333335
    vertex -3.79454833333339 -11.0917566666666 2.22072360500647e-014
    vertex 3.79454833333328 -11.0917566666666 1.93872695675168e-014
  endloop
endfacet
facet normal -3.88578058618805e-016 -5.55111512312578e-016 -1.0
  outer loop
    vertex -3.79454833333339 -11.0917566666666 2.22072360500647e-014
    vertex 3.79454833333328 -4.08643666666663 1.55098156540134e-014
    vertex 3.79454833333328 -11.0917566666666 1.93872695675168e-014
  endloop
endfacet
facet normal -3.88578058618805e-016 -5.55111512312578e-016 -1.0
  outer loop
    vertex 3.79454833333328 -4.08643666666663 1.55098156540134e-014
    vertex -3.79454833333339 -11.0917566666666 2.22072360500647e-014
    vertex -3.79454833333339 -4.08643666666663 1.83297821365613e-014
  endloop
endfacet
facet normal 0.0 1.0 -5.55111512312578e-016
  outer loop
    vertex 3.79454833333328 -4.08643666666663 1.55098156540134e-014
    vertex -3.79454833333339 -4.08643666666663 2.04321833333335
    vertex 3.79454833333328 -4.08643666666663 2.04321833333335
  endloop
endfacet
facet normal 0.0 1.0 -5.55111512312578e-016
  outer loop
    vertex -3.79454833333339 -4.08643666666663 2.04321833333335
    vertex 3.79454833333328 -4.08643666666663 1.55098156540134e-014
    vertex -3.79454833333339 -4.08643666666663 1.83297821365613e-014
  endloop
endfacet
facet normal -1.0 2.1570415377137e-031 3.88578058618805e-016
  outer loop
    vertex -3.79454833333339 -12.25931 2.04321833333334
    vertex -3.79454833333339 -19.2646299999999 1.02223784992361e-014
    vertex -3.79454833333339 -19.2646299999999 2.04321833333334
  endloop
endfacet
facet normal -1.0 2.1570415377137e-031 3.88578058618805e-016
  outer loop
    vertex -3.79454833333339 -19.2646299999999 1.02223784992361e-014
    vertex -3.79454833333339 -12.25931 2.04321833333334
    vertex -3.79454833333339 -12.25931 6.34492458573277e-015
  endloop
endfacet
facet normal -3.88578058618805e-016 -5.55111512312578e-016 -1.0
  outer loop
    vertex -31.8158283333334 -11.0917566666666 3.31346061699378e-014
    vertex -24.2267316666667 -4.08643666666663 2.64371857738865e-014
    vertex -24.2267316666667 -11.0917566666666 3.03146396873899e-014
  endloop
endfacet
facet normal -3.88578058618805e-016 -5.55111512312578e-016 -1.0
  outer loop
    vertex -24.2267316666667 -4.08643666666663 2.64371857738865e-014
    vertex -31.8158283333334 -11.0917566666666 3.31346061699378e-014
    vertex -31.8158283333334 -4.08643666666663 2.92571522564344e-014
  endloop
endfacet
facet normal 3.88578058618805e-016 5.55111512312578e-016 1.0
  outer loop
    vertex -31.8158283333334 -4.08643666666663 2.04321833333336
    vertex -24.2267316666667 -11.0917566666666 2.04321833333336
    vertex -24.2267316666667 -4.08643666666663 2.04321833333336
  endloop
endfacet
facet normal 3.88578058618805e-016 5.55111512312578e-016 1.0
  outer loop
    vertex -24.2267316666667 -11.0917566666666 2.04321833333336
    vertex -31.8158283333334 -4.08643666666663 2.04321833333336
    vertex -31.8158283333334 -11.0917566666666 2.04321833333337
  endloop
endfacet
facet normal 1.0 -2.1570415377137e-031 -3.88578058618805e-016
  outer loop
    vertex -24.2267316666667 -12.25931 1.4452328223058e-014
    vertex -24.2267316666667 -19.2646299999999 2.04321833333335
    vertex -24.2267316666667 -19.2646299999999 1.83297821365613e-014
  endloop
endfacet
facet normal 1.0 -2.1570415377137e-031 -3.88578058618805e-016
  outer loop
    vertex -24.2267316666667 -19.2646299999999 2.04321833333335
    vertex -24.2267316666667 -12.25931 1.4452328223058e-014
    vertex -24.2267316666667 -12.25931 2.04321833333335
  endloop
endfacet
facet normal 1.0 -2.1570415377137e-031 -3.88578058618805e-016
  outer loop
    vertex -24.2267316666667 -4.08643666666663 2.64371857738865e-014
    vertex -24.2267316666667 -11.0917566666666 2.04321833333336
    vertex -24.2267316666667 -11.0917566666666 3.03146396873899e-014
  endloop
endfacet
facet normal 1.0 -2.1570415377137e-031 -3.88578058618805e-016
  outer loop
    vertex -24.2267316666667 -11.0917566666666 2.04321833333336
    vertex -24.2267316666667 -4.08643666666663 2.64371857738865e-014
    vertex -24.2267316666667 -4.08643666666663 2.04321833333336
  endloop
endfacet
facet normal -0.0 -1.0 5.55111512312578e-016
  outer loop
    vertex -31.8158283333334 -19.2646299999999 2.11497486191092e-014
    vertex -24.2267316666667 -19.2646299999999 2.04321833333335
    vertex -31.8158283333334 -19.2646299999999 2.04321833333335
  endloop
endfacet
facet normal -0.0 -1.0 5.55111512312578e-016
  outer loop
    vertex -24.2267316666667 -19.2646299999999 2.04321833333335
    vertex -31.8158283333334 -19.2646299999999 2.11497486191092e-014
    vertex -24.2267316666667 -19.2646299999999 1.83297821365613e-014
  endloop
endfacet
facet normal 0.0 1.0 -5.55111512312578e-016
  outer loop
    vertex -24.2267316666667 -4.08643666666663 2.64371857738865e-014
    vertex -31.8158283333334 -4.08643666666663 2.04321833333336
    vertex -24.2267316666667 -4.08643666666663 2.04321833333336
  endloop
endfacet
facet normal 0.0 1.0 -5.55111512312578e-016
  outer loop
    vertex -31.8158283333334 -4.08643666666663 2.04321833333336
    vertex -24.2267316666667 -4.08643666666663 2.64371857738865e-014
    vertex -31.8158283333334 -4.08643666666663 2.92571522564344e-014
  endloop
endfacet
facet normal -1.0 2.1570415377137e-031 3.88578058618805e-016
  outer loop
    vertex -31.8158283333334 -4.08643666666663 2.04321833333336
    vertex -31.8158283333334 -11.0917566666666 3.31346061699378e-014
    vertex -31.8158283333334 -11.0917566666666 2.04321833333337
  endloop
endfacet
facet normal -1.0 2.1570415377137e-031 3.88578058618805e-016
  outer loop
    vertex -31.8158283333334 -11.0917566666666 3.31346061699378e-014
    vertex -31.8158283333334 -4.08643666666663 2.04321833333336
    vertex -31.8158283333334 -4.08643666666663 2.92571522564344e-014
  endloop
endfacet
facet normal 3.88578058618805e-016 5.55111512312578e-016 1.0
  outer loop
    vertex -31.8158283333334 -12.25931 2.04321833333335
    vertex -24.2267316666667 -19.2646299999999 2.04321833333335
    vertex -24.2267316666667 -12.25931 2.04321833333335
  endloop
endfacet
facet normal 3.88578058618805e-016 5.55111512312578e-016 1.0
  outer loop
    vertex -24.2267316666667 -19.2646299999999 2.04321833333335
    vertex -31.8158283333334 -12.25931 2.04321833333335
    vertex -31.8158283333334 -19.2646299999999 2.04321833333335
  endloop
endfacet
facet normal -1.0 2.1570415377137e-031 3.88578058618805e-016
  outer loop
    vertex -31.8158283333334 -12.25931 2.04321833333335
    vertex -31.8158283333334 -19.2646299999999 2.11497486191092e-014
    vertex -31.8158283333334 -19.2646299999999 2.04321833333335
  endloop
endfacet
facet normal -1.0 2.1570415377137e-031 3.88578058618805e-016
  outer loop
    vertex -31.8158283333334 -19.2646299999999 2.11497486191092e-014
    vertex -31.8158283333334 -12.25931 2.04321833333335
    vertex -31.8158283333334 -12.25931 1.72722947056059e-014
  endloop
endfacet
facet normal 0.0 1.0 -5.55111512312578e-016
  outer loop
    vertex -24.2267316666667 -12.25931 1.4452328223058e-014
    vertex -31.8158283333334 -12.25931 2.04321833333335
    vertex -24.2267316666667 -12.25931 2.04321833333335
  endloop
endfacet
facet normal 0.0 1.0 -5.55111512312578e-016
  outer loop
    vertex -31.8158283333334 -12.25931 2.04321833333335
    vertex -24.2267316666667 -12.25931 1.4452328223058e-014
    vertex -31.8158283333334 -12.25931 1.72722947056059e-014
  endloop
endfacet
facet normal -0.0 -1.0 5.55111512312578e-016
  outer loop
    vertex -31.8158283333334 -11.0917566666666 3.31346061699378e-014
    vertex -24.2267316666667 -11.0917566666666 2.04321833333336
    vertex -31.8158283333334 -11.0917566666666 2.04321833333337
  endloop
endfacet
facet normal -0.0 -1.0 5.55111512312578e-016
  outer loop
    vertex -24.2267316666667 -11.0917566666666 2.04321833333336
    vertex -31.8158283333334 -11.0917566666666 3.31346061699378e-014
    vertex -24.2267316666667 -11.0917566666666 3.03146396873899e-014
  endloop
endfacet
facet normal -3.88578058618805e-016 -5.55111512312578e-016 -1.0
  outer loop
    vertex -31.8158283333334 -19.2646299999999 2.11497486191092e-014
    vertex -24.2267316666667 -12.25931 1.4452328223058e-014
    vertex -24.2267316666667 -19.2646299999999 1.83297821365613e-014
  endloop
endfacet
facet normal -3.88578058618805e-016 -5.55111512312578e-016 -1.0
  outer loop
    vertex -24.2267316666667 -12.25931 1.4452328223058e-014
    vertex -31.8158283333334 -19.2646299999999 2.11497486191092e-014
    vertex -31.8158283333334 -12.25931 1.72722947056059e-014
  endloop
endfacet
facet normal 0.0 1.0 -5.55111512312578e-016
  outer loop
    vertex -21.891625 26.5618383333333 2.33510666666665
    vertex -24.0807875 26.5618383333333 -2.11497486191092e-014
    vertex -24.0807875 26.5618383333333 2.33510666666665
  endloop
endfacet
facet normal 0.0 1.0 -5.55111512312578e-016
  outer loop
    vertex -24.0807875 26.5618383333333 -2.11497486191092e-014
    vertex -21.891625 26.5618383333333 2.33510666666665
    vertex -21.891625 26.5618383333333 -2.11497486191092e-014
  endloop
endfacet
facet normal -0.0 5.55111512312578e-016 1.0
  outer loop
    vertex -21.891625 26.5618383333333 2.33510666666665
    vertex -24.0807875 9.632315 2.33510666666665
    vertex -21.891625 9.632315 2.33510666666665
  endloop
endfacet
facet normal -0.0 5.55111512312578e-016 1.0
  outer loop
    vertex -24.0807875 9.632315 2.33510666666665
    vertex -21.891625 26.5618383333333 2.33510666666665
    vertex -24.0807875 26.5618383333333 2.33510666666665
  endloop
endfacet
facet normal -1.0 0.0 0.0
  outer loop
    vertex -24.0807875 26.5618383333333 -2.11497486191092e-014
    vertex -24.0807875 9.632315 2.33510666666665
    vertex -24.0807875 26.5618383333333 2.33510666666665
  endloop
endfacet
facet normal -1.0 0.0 0.0
  outer loop
    vertex -24.0807875 9.632315 2.33510666666665
    vertex -24.0807875 26.5618383333333 -2.11497486191092e-014
    vertex -24.0807875 9.632315 -1.16323617405101e-014
  endloop
endfacet
facet normal 1.0 0.0 0.0
  outer loop
    vertex -21.891625 9.632315 -1.16323617405101e-014
    vertex -21.891625 26.5618383333333 2.33510666666665
    vertex -21.891625 9.632315 2.33510666666665
  endloop
endfacet
facet normal 1.0 0.0 0.0
  outer loop
    vertex -21.891625 26.5618383333333 2.33510666666665
    vertex -21.891625 9.632315 -1.16323617405101e-014
    vertex -21.891625 26.5618383333333 -2.11497486191092e-014
  endloop
endfacet
facet normal 0.0 -1.0 5.55111512312578e-016
  outer loop
    vertex -21.891625 9.632315 -1.16323617405101e-014
    vertex -24.0807875 9.632315 2.33510666666665
    vertex -24.0807875 9.632315 -1.16323617405101e-014
  endloop
endfacet
facet normal 0.0 -1.0 5.55111512312578e-016
  outer loop
    vertex -24.0807875 9.632315 2.33510666666665
    vertex -21.891625 9.632315 -1.16323617405101e-014
    vertex -21.891625 9.632315 2.33510666666665
  endloop
endfacet
facet normal 0.0 -5.55111512312578e-016 -1.0
  outer loop
    vertex -27.145615 26.5618383333333 -1.26898491714655e-014
    vertex -24.9564525 9.632315 -3.17246229286638e-015
    vertex -27.145615 9.632315 -3.17246229286638e-015
  endloop
endfacet
facet normal 0.0 -5.55111512312578e-016 -1.0
  outer loop
    vertex -24.9564525 9.632315 -3.17246229286638e-015
    vertex -27.145615 26.5618383333333 -1.26898491714655e-014
    vertex -24.9564525 26.5618383333333 -1.26898491714655e-014
  endloop
endfacet
facet normal 0.0 -5.55111512312578e-016 -1.0
  outer loop
    vertex -24.0807875 26.5618383333333 -2.11497486191092e-014
    vertex -21.891625 9.632315 -1.16323617405101e-014
    vertex -24.0807875 9.632315 -1.16323617405101e-014
  endloop
endfacet
facet normal 0.0 -5.55111512312578e-016 -1.0
  outer loop
    vertex -21.891625 9.632315 -1.16323617405101e-014
    vertex -24.0807875 26.5618383333333 -2.11497486191092e-014
    vertex -21.891625 26.5618383333333 -2.11497486191092e-014
  endloop
endfacet
facet normal -0.0 5.55111512312578e-016 1.0
  outer loop
    vertex -24.9564525 26.5618383333333 2.33510666666665
    vertex -27.145615 9.632315 2.33510666666666
    vertex -24.9564525 9.632315 2.33510666666666
  endloop
endfacet
facet normal -0.0 5.55111512312578e-016 1.0
  outer loop
    vertex -27.145615 9.632315 2.33510666666666
    vertex -24.9564525 26.5618383333333 2.33510666666665
    vertex -27.145615 26.5618383333333 2.33510666666665
  endloop
endfacet
facet normal -1.0 0.0 -0.0
  outer loop
    vertex -27.145615 26.5618383333333 -1.26898491714655e-014
    vertex -27.145615 9.632315 2.33510666666666
    vertex -27.145615 26.5618383333333 2.33510666666665
  endloop
endfacet
facet normal -1.0 0.0 -0.0
  outer loop
    vertex -27.145615 9.632315 2.33510666666666
    vertex -27.145615 26.5618383333333 -1.26898491714655e-014
    vertex -27.145615 9.632315 -3.17246229286638e-015
  endloop
endfacet
facet normal 0.0 1.0 -5.55111512312578e-016
  outer loop
    vertex -24.9564525 26.5618383333333 2.33510666666665
    vertex -27.145615 26.5618383333333 -1.26898491714655e-014
    vertex -27.145615 26.5618383333333 2.33510666666665
  endloop
endfacet
facet normal 0.0 1.0 -5.55111512312578e-016
  outer loop
    vertex -27.145615 26.5618383333333 -1.26898491714655e-014
    vertex -24.9564525 26.5618383333333 2.33510666666665
    vertex -24.9564525 26.5618383333333 -1.26898491714655e-014
  endloop
endfacet
facet normal -0.0 -1.0 5.55111512312578e-016
  outer loop
    vertex -24.9564525 9.632315 -3.17246229286638e-015
    vertex -27.145615 9.632315 2.33510666666666
    vertex -27.145615 9.632315 -3.17246229286638e-015
  endloop
endfacet
facet normal -0.0 -1.0 5.55111512312578e-016
  outer loop
    vertex -27.145615 9.632315 2.33510666666666
    vertex -24.9564525 9.632315 -3.17246229286638e-015
    vertex -24.9564525 9.632315 2.33510666666666
  endloop
endfacet
facet normal 1.0 0.0 0.0
  outer loop
    vertex -24.9564525 9.632315 -3.17246229286638e-015
    vertex -24.9564525 26.5618383333333 2.33510666666665
    vertex -24.9564525 9.632315 2.33510666666666
  endloop
endfacet
facet normal 1.0 0.0 0.0
  outer loop
    vertex -24.9564525 26.5618383333333 2.33510666666665
    vertex -24.9564525 9.632315 -3.17246229286638e-015
    vertex -24.9564525 26.5618383333333 -1.26898491714655e-014
  endloop
endfacet
endsolid Untitled-5f8f825e
