solid Untitled-5f7a6d7e
facet normal 0.707106781186547 3.14018491736755e-016 -0.707106781186548
  outer loop
    vertex 49.3696620541382 1.75132999999992 2.33510666666663
    vertex 47.0345553874716 2.097350071395e-014 -1.81425388360945e-014
    vertex 47.0345553874716 1.75132999999992 -1.81425388360945e-014
  endloop
endfacet
facet normal 0.707106781186547 3.14018491736755e-016 -0.707106781186548
  outer loop
    vertex 47.0345553874716 2.097350071395e-014 -1.81425388360945e-014
    vertex 49.3696620541382 1.75132999999992 2.33510666666663
    vertex 49.3696620541382 2.20309881449055e-014 2.33510666666663
  endloop
endfacet
facet normal 4.44089209850063e-016 -1.0 -6.16297582203915e-032
  outer loop
    vertex -42.3540985983132 -1.86822779468798e-014 1.75132999999998
    vertex -42.3540985983132 -1.86822779468798e-014 1.65919307922498e-014
    vertex 46.3091307492807 2.06210049036315e-014 1.75132999999995
  endloop
endfacet
facet normal 4.44089209850063e-016 -1.0 -6.16297582203915e-032
  outer loop
    vertex 54.2609397350429 2.41459630068164e-014 4.08643666666663
    vertex 49.3696620541382 2.20309881449055e-014 2.33510666666663
    vertex 54.2609397350427 2.41459630068164e-014 2.33510666666663
  endloop
endfacet
facet normal 4.44089209850063e-016 -1.0 -6.16297582203915e-032
  outer loop
    vertex 47.0345553874716 2.097350071395e-014 -1.81425388360945e-014
    vertex 46.3091307492807 2.06210049036315e-014 1.75132999999995
    vertex -42.3540985983132 -1.86822779468798e-014 1.65919307922498e-014
  endloop
endfacet
facet normal 4.44089209850063e-016 -1.0 -6.16297582203915e-032
  outer loop
    vertex 46.3091307492807 2.06210049036315e-014 1.75132999999995
    vertex 47.0345553874716 2.097350071395e-014 -1.81425388360945e-014
    vertex 49.3696620541382 2.20309881449055e-014 2.33510666666663
  endloop
endfacet
facet normal 4.44089209850063e-016 -1.0 -6.16297582203915e-032
  outer loop
    vertex 46.3091307492807 2.06210049036315e-014 1.75132999999995
    vertex 49.3696620541382 2.20309881449055e-014 2.33510666666663
    vertex 48.6442374159474 2.1678492334587e-014 4.08643666666663
  endloop
endfacet
facet normal 4.44089209850063e-016 -1.0 -6.16297582203915e-032
  outer loop
    vertex 48.6442374159474 2.1678492334587e-014 4.08643666666663
    vertex 49.3696620541382 2.20309881449055e-014 2.33510666666663
    vertex 54.2609397350429 2.41459630068164e-014 4.08643666666663
  endloop
endfacet
facet normal 1.0 4.44089209850063e-016 -3.88578058618805e-016
  outer loop
    vertex 54.2609397350427 1.75132999999992 2.33510666666663
    vertex 54.2609397350429 2.41459630068164e-014 4.08643666666663
    vertex 54.2609397350427 2.41459630068164e-014 2.33510666666663
  endloop
endfacet
facet normal 1.0 4.44089209850063e-016 -3.88578058618805e-016
  outer loop
    vertex 54.2609397350429 2.41459630068164e-014 4.08643666666663
    vertex 54.2609397350427 1.75132999999992 2.33510666666663
    vertex 54.2609397350428 1.75132999999992 4.08643666666663
  endloop
endfacet
facet normal -3.88578058618805e-016 -1.10933564796705e-031 -1.0
  outer loop
    vertex 54.2609397350427 1.75132999999992 2.33510666666663
    vertex 49.3696620541382 2.20309881449055e-014 2.33510666666663
    vertex 49.3696620541382 1.75132999999992 2.33510666666663
  endloop
endfacet
facet normal -3.88578058618805e-016 -1.10933564796705e-031 -1.0
  outer loop
    vertex 49.3696620541382 2.20309881449055e-014 2.33510666666663
    vertex 54.2609397350427 1.75132999999992 2.33510666666663
    vertex 54.2609397350427 2.41459630068164e-014 2.33510666666663
  endloop
endfacet
facet normal 3.88578058618805e-016 1.10933564796705e-031 1.0
  outer loop
    vertex 46.3091307492807 2.06210049036315e-014 1.75132999999995
    vertex -42.3540985983132 1.75132999999988 1.75132999999998
    vertex -42.3540985983132 -1.86822779468798e-014 1.75132999999998
  endloop
endfacet
facet normal 3.88578058618805e-016 1.10933564796705e-031 1.0
  outer loop
    vertex -42.3540985983132 1.75132999999988 1.75132999999998
    vertex 46.3091307492807 2.06210049036315e-014 1.75132999999995
    vertex 46.3091307492807 1.75132999999992 1.75132999999995
  endloop
endfacet
facet normal -1.0 -4.44089209850063e-016 3.88578058618805e-016
  outer loop
    vertex -42.3540985983132 1.75132999999988 1.75132999999998
    vertex -42.3540985983132 -1.86822779468798e-014 1.65919307922498e-014
    vertex -42.3540985983132 -1.86822779468798e-014 1.75132999999998
  endloop
endfacet
facet normal -1.0 -4.44089209850063e-016 3.88578058618805e-016
  outer loop
    vertex -42.3540985983132 -1.86822779468798e-014 1.65919307922498e-014
    vertex -42.3540985983132 1.75132999999988 1.75132999999998
    vertex -42.3540985983132 1.75132999999988 1.65919307922498e-014
  endloop
endfacet
facet normal -0.707106781186547 -3.14018491736755e-016 0.707106781186548
  outer loop
    vertex 48.6442374159474 2.1678492334587e-014 4.08643666666663
    vertex 46.3091307492807 1.75132999999992 1.75132999999995
    vertex 46.3091307492807 2.06210049036315e-014 1.75132999999995
  endloop
endfacet
facet normal -0.707106781186547 -3.14018491736755e-016 0.707106781186548
  outer loop
    vertex 46.3091307492807 1.75132999999992 1.75132999999995
    vertex 48.6442374159474 2.1678492334587e-014 4.08643666666663
    vertex 48.6442374159474 1.75132999999992 4.08643666666663
  endloop
endfacet
facet normal -4.44089209850063e-016 1.0 6.16297582203915e-032
  outer loop
    vertex -42.3540985983132 1.75132999999988 1.75132999999998
    vertex 47.0345553874716 1.75132999999992 -1.81425388360945e-014
    vertex -42.3540985983132 1.75132999999988 1.65919307922498e-014
  endloop
endfacet
facet normal -4.44089209850063e-016 1.0 6.16297582203915e-032
  outer loop
    vertex 47.0345553874716 1.75132999999992 -1.81425388360945e-014
    vertex -42.3540985983132 1.75132999999988 1.75132999999998
    vertex 46.3091307492807 1.75132999999992 1.75132999999995
  endloop
endfacet
facet normal -4.44089209850063e-016 1.0 6.16297582203915e-032
  outer loop
    vertex 47.0345553874716 1.75132999999992 -1.81425388360945e-014
    vertex 46.3091307492807 1.75132999999992 1.75132999999995
    vertex 49.3696620541382 1.75132999999992 2.33510666666663
  endloop
endfacet
facet normal -4.44089209850063e-016 1.0 6.16297582203915e-032
  outer loop
    vertex 49.3696620541382 1.75132999999992 2.33510666666663
    vertex 46.3091307492807 1.75132999999992 1.75132999999995
    vertex 48.6442374159474 1.75132999999992 4.08643666666663
  endloop
endfacet
facet normal -4.44089209850063e-016 1.0 6.16297582203915e-032
  outer loop
    vertex 49.3696620541382 1.75132999999992 2.33510666666663
    vertex 48.6442374159474 1.75132999999992 4.08643666666663
    vertex 54.2609397350427 1.75132999999992 2.33510666666663
  endloop
endfacet
facet normal -4.44089209850063e-016 1.0 6.16297582203915e-032
  outer loop
    vertex 54.2609397350427 1.75132999999992 2.33510666666663
    vertex 48.6442374159474 1.75132999999992 4.08643666666663
    vertex 54.2609397350428 1.75132999999992 4.08643666666663
  endloop
endfacet
facet normal 3.88578058618805e-016 1.10933564796705e-031 1.0
  outer loop
    vertex 54.2609397350429 2.41459630068164e-014 4.08643666666663
    vertex 48.6442374159474 1.75132999999992 4.08643666666663
    vertex 48.6442374159474 2.1678492334587e-014 4.08643666666663
  endloop
endfacet
facet normal 3.88578058618805e-016 1.10933564796705e-031 1.0
  outer loop
    vertex 48.6442374159474 1.75132999999992 4.08643666666663
    vertex 54.2609397350429 2.41459630068164e-014 4.08643666666663
    vertex 54.2609397350428 1.75132999999992 4.08643666666663
  endloop
endfacet
facet normal -3.88578058618805e-016 -1.10933564796705e-031 -1.0
  outer loop
    vertex 47.0345553874716 1.75132999999992 -1.81425388360945e-014
    vertex -42.3540985983132 -1.86822779468798e-014 1.65919307922498e-014
    vertex -42.3540985983132 1.75132999999988 1.65919307922498e-014
  endloop
endfacet
facet normal -3.88578058618805e-016 -1.10933564796705e-031 -1.0
  outer loop
    vertex -42.3540985983132 -1.86822779468798e-014 1.65919307922498e-014
    vertex 47.0345553874716 1.75132999999992 -1.81425388360945e-014
    vertex 47.0345553874716 2.097350071395e-014 -1.81425388360945e-014
  endloop
endfacet
facet normal -0.70710678118843 -0.707106781184665 1.04056664465228e-013
  outer loop
    vertex 54.260939735043 2.41459630068164e-014 4.6702133333333
    vertex 55.136604735038 -0.875664999999975 2.3351066666665
    vertex 55.1366047350384 -0.875664999999975 4.67021333333316
  endloop
endfacet
facet normal -0.70710678118843 -0.707106781184665 1.04056664465228e-013
  outer loop
    vertex 55.136604735038 -0.875664999999975 2.3351066666665
    vertex 54.260939735043 2.41459630068164e-014 4.6702133333333
    vertex 54.2609397350427 2.41459630068164e-014 2.33510666666663
  endloop
endfacet
facet normal -0.70710678118843 -0.707106781184665 1.04056664465228e-013
  outer loop
    vertex 54.2609397350427 2.41459630068164e-014 2.33510666666663
    vertex 54.260939735043 2.41459630068164e-014 4.6702133333333
    vertex 54.2609397350429 2.41459630068164e-014 4.08643666666663
  endloop
endfacet
facet normal 4.44089209850375e-016 -1.0 2.10531180957224e-015
  outer loop
    vertex 58.0554880683757 -0.875664999999974 4.67021333333273
    vertex 55.136604735038 -0.875664999999975 2.3351066666665
    vertex 58.0554880683753 -0.875664999999974 2.33510666666606
  endloop
endfacet
facet normal 4.44089209850375e-016 -1.0 2.10531180957224e-015
  outer loop
    vertex 55.136604735038 -0.875664999999975 2.3351066666665
    vertex 58.0554880683757 -0.875664999999974 4.67021333333273
    vertex 55.1366047350384 -0.875664999999975 4.67021333333316
  endloop
endfacet
facet normal -1.0 -1.93918954967871e-014 2.84605672362659e-013
  outer loop
    vertex 54.260939735043 1.75132999999992 4.6702133333333
    vertex 54.2609397350429 2.41459630068164e-014 4.08643666666663
    vertex 54.260939735043 2.41459630068164e-014 4.6702133333333
  endloop
endfacet
facet normal -1.0 -1.93918954967871e-014 2.84605672362659e-013
  outer loop
    vertex 54.2609397350429 2.41459630068164e-014 4.08643666666663
    vertex 54.260939735043 1.75132999999992 4.6702133333333
    vertex 54.2609397350428 1.75132999999992 4.08643666666663
  endloop
endfacet
facet normal -1.45053034332079e-013 -2.1053118095723e-015 -1.0
  outer loop
    vertex 55.1366047350428 2.62699500000002 2.33510666666646
    vertex 55.4993170541382 1.75133000000002 2.33510666666641
    vertex 55.4993170541348 2.48509546274533e-014 2.33510666666645
  endloop
endfacet
facet normal -1.45053034332079e-013 -2.1053118095723e-015 -1.0
  outer loop
    vertex 55.4993170541382 1.75133000000002 2.33510666666641
    vertex 55.1366047350428 2.62699500000002 2.33510666666646
    vertex 58.0554880683753 2.62699500000003 2.33510666666608
  endloop
endfacet
facet normal -1.45053034332079e-013 -2.1053118095723e-015 -1.0
  outer loop
    vertex 55.4993170541382 1.75133000000002 2.33510666666641
    vertex 58.0554880683753 2.62699500000003 2.33510666666608
    vertex 57.1798230683753 1.75133000000002 2.33510666666621
  endloop
endfacet
facet normal -1.45053034332079e-013 -2.1053118095723e-015 -1.0
  outer loop
    vertex 57.1798230683753 1.75133000000002 2.33510666666621
    vertex 58.0554880683753 2.62699500000003 2.33510666666608
    vertex 57.1798230683753 2.55559462480903e-014 2.3351066666662
  endloop
endfacet
facet normal -1.45053034332079e-013 -2.1053118095723e-015 -1.0
  outer loop
    vertex 55.1366047350428 2.62699500000002 2.33510666666646
    vertex 54.2609397350427 2.41459630068164e-014 2.33510666666663
    vertex 54.2609397350427 1.75132999999992 2.33510666666663
  endloop
endfacet
facet normal -1.45053034332079e-013 -2.1053118095723e-015 -1.0
  outer loop
    vertex 54.2609397350427 2.41459630068164e-014 2.33510666666663
    vertex 55.1366047350428 2.62699500000002 2.33510666666646
    vertex 55.136604735038 -0.875664999999975 2.3351066666665
  endloop
endfacet
facet normal -1.45053034332079e-013 -2.1053118095723e-015 -1.0
  outer loop
    vertex 55.136604735038 -0.875664999999975 2.3351066666665
    vertex 55.1366047350428 2.62699500000002 2.33510666666646
    vertex 55.4993170541348 2.48509546274533e-014 2.33510666666645
  endloop
endfacet
facet normal -1.45053034332079e-013 -2.1053118095723e-015 -1.0
  outer loop
    vertex 55.136604735038 -0.875664999999975 2.3351066666665
    vertex 55.4993170541348 2.48509546274533e-014 2.33510666666645
    vertex 58.0554880683753 -0.875664999999974 2.33510666666606
  endloop
endfacet
facet normal -1.45053034332079e-013 -2.1053118095723e-015 -1.0
  outer loop
    vertex 58.0554880683753 -0.875664999999974 2.33510666666606
    vertex 55.4993170541348 2.48509546274533e-014 2.33510666666645
    vertex 57.1798230683753 2.55559462480903e-014 2.3351066666662
  endloop
endfacet
facet normal -1.45053034332079e-013 -2.1053118095723e-015 -1.0
  outer loop
    vertex 58.0554880683753 -0.875664999999974 2.33510666666606
    vertex 57.1798230683753 2.55559462480903e-014 2.3351066666662
    vertex 58.0554880683753 2.62699500000003 2.33510666666608
  endloop
endfacet
facet normal 1.0 4.44089209850748e-016 -1.45053034332079e-013
  outer loop
    vertex 58.0554880683753 2.62699500000003 2.33510666666608
    vertex 58.0554880683757 -0.875664999999974 4.67021333333273
    vertex 58.0554880683753 -0.875664999999974 2.33510666666606
  endloop
endfacet
facet normal 1.0 4.44089209850748e-016 -1.45053034332079e-013
  outer loop
    vertex 58.0554880683757 -0.875664999999974 4.67021333333273
    vertex 58.0554880683753 2.62699500000003 2.33510666666608
    vertex 58.0554880683757 2.62699500000003 4.67021333333275
  endloop
endfacet
facet normal -4.44089209850339e-016 1.0 -2.10531180957224e-015
  outer loop
    vertex 55.1366047350428 2.62699500000002 2.33510666666646
    vertex 58.0554880683757 2.62699500000003 4.67021333333275
    vertex 58.0554880683753 2.62699500000003 2.33510666666608
  endloop
endfacet
facet normal -4.44089209850339e-016 1.0 -2.10531180957224e-015
  outer loop
    vertex 58.0554880683757 2.62699500000003 4.67021333333275
    vertex 55.1366047350428 2.62699500000002 2.33510666666646
    vertex 55.1366047350431 2.62699500000002 4.67021333333313
  endloop
endfacet
facet normal -0.707106781186548 0.707106781186547 1.01079303950837e-013
  outer loop
    vertex 54.2609397350427 1.75132999999992 2.33510666666663
    vertex 55.1366047350431 2.62699500000002 4.67021333333313
    vertex 55.1366047350428 2.62699500000002 2.33510666666646
  endloop
endfacet
facet normal -0.707106781186548 0.707106781186547 1.01079303950837e-013
  outer loop
    vertex 55.1366047350431 2.62699500000002 4.67021333333313
    vertex 54.2609397350427 1.75132999999992 2.33510666666663
    vertex 54.2609397350428 1.75132999999992 4.08643666666663
  endloop
endfacet
facet normal -0.707106781186548 0.707106781186547 1.01079303950837e-013
  outer loop
    vertex 55.1366047350431 2.62699500000002 4.67021333333313
    vertex 54.2609397350428 1.75132999999992 4.08643666666663
    vertex 54.260939735043 1.75132999999992 4.6702133333333
  endloop
endfacet
facet normal 1.45053034332079e-013 2.1053118095723e-015 1.0
  outer loop
    vertex 55.1366047350384 -0.875664999999975 4.67021333333316
    vertex 54.260939735043 1.75132999999992 4.6702133333333
    vertex 54.260939735043 2.41459630068164e-014 4.6702133333333
  endloop
endfacet
facet normal 1.45053034332079e-013 2.1053118095723e-015 1.0
  outer loop
    vertex 54.260939735043 1.75132999999992 4.6702133333333
    vertex 55.1366047350384 -0.875664999999975 4.67021333333316
    vertex 55.1366047350431 2.62699500000002 4.67021333333313
  endloop
endfacet
facet normal 1.45053034332079e-013 2.1053118095723e-015 1.0
  outer loop
    vertex 55.1366047350431 2.62699500000002 4.67021333333313
    vertex 55.1366047350384 -0.875664999999975 4.67021333333316
    vertex 58.0554880683757 -0.875664999999974 4.67021333333273
  endloop
endfacet
facet normal 1.45053034332079e-013 2.1053118095723e-015 1.0
  outer loop
    vertex 55.1366047350431 2.62699500000002 4.67021333333313
    vertex 58.0554880683757 -0.875664999999974 4.67021333333273
    vertex 58.0554880683757 2.62699500000003 4.67021333333275
  endloop
endfacet
facet normal -1.33676447187047e-013 -4.736951571604e-015 -1.0
  outer loop
    vertex 55.499317054138 1.75133000000009 -3.86454236920695e-013
    vertex 57.1798230683751 9.18251585879659e-014 -6.02802344984452e-013
    vertex 55.4993170541346 9.11201669673289e-014 -3.53270375336194e-013
  endloop
endfacet
facet normal -1.33676447187047e-013 -4.736951571604e-015 -1.0
  outer loop
    vertex 57.1798230683751 9.18251585879659e-014 -6.02802344984452e-013
    vertex 55.499317054138 1.75133000000009 -3.86454236920695e-013
    vertex 57.1798230683751 1.75133000000009 -5.86210414192202e-013
  endloop
endfacet
facet normal 4.44089209850766e-016 -1.0 4.73695157160394e-015
  outer loop
    vertex 57.1798230683753 2.55559462480903e-014 2.3351066666662
    vertex 55.4993170541346 9.11201669673289e-014 -3.53270375336194e-013
    vertex 57.1798230683751 9.18251585879659e-014 -6.02802344984452e-013
  endloop
endfacet
facet normal 4.44089209850766e-016 -1.0 4.73695157160394e-015
  outer loop
    vertex 55.4993170541346 9.11201669673289e-014 -3.53270375336194e-013
    vertex 57.1798230683753 2.55559462480903e-014 2.3351066666662
    vertex 55.4993170541348 2.48509546274533e-014 2.33510666666645
  endloop
endfacet
facet normal -1.0 1.95117995834456e-012 1.33676447187038e-013
  outer loop
    vertex 55.4993170541382 1.75133000000002 2.33510666666641
    vertex 55.4993170541346 9.11201669673289e-014 -3.53270375336194e-013
    vertex 55.4993170541348 2.48509546274533e-014 2.33510666666645
  endloop
endfacet
facet normal -1.0 1.95117995834456e-012 1.33676447187038e-013
  outer loop
    vertex 55.4993170541346 9.11201669673289e-014 -3.53270375336194e-013
    vertex 55.4993170541382 1.75133000000002 2.33510666666641
    vertex 55.499317054138 1.75133000000009 -3.86454236920695e-013
  endloop
endfacet
facet normal -4.44089209850626e-016 1.0 -4.73695157160394e-015
  outer loop
    vertex 55.499317054138 1.75133000000009 -3.86454236920695e-013
    vertex 57.1798230683753 1.75133000000002 2.33510666666621
    vertex 57.1798230683751 1.75133000000009 -5.86210414192202e-013
  endloop
endfacet
facet normal -4.44089209850626e-016 1.0 -4.73695157160394e-015
  outer loop
    vertex 57.1798230683753 1.75133000000002 2.33510666666621
    vertex 55.499317054138 1.75133000000009 -3.86454236920695e-013
    vertex 55.4993170541382 1.75133000000002 2.33510666666641
  endloop
endfacet
facet normal 1.0 4.44089209851325e-016 -1.33676447187047e-013
  outer loop
    vertex 57.1798230683751 9.18251585879659e-014 -6.02802344984452e-013
    vertex 57.1798230683753 1.75133000000002 2.33510666666621
    vertex 57.1798230683753 2.55559462480903e-014 2.3351066666662
  endloop
endfacet
facet normal 1.0 4.44089209851325e-016 -1.33676447187047e-013
  outer loop
    vertex 57.1798230683753 1.75133000000002 2.33510666666621
    vertex 57.1798230683751 9.18251585879659e-014 -6.02802344984452e-013
    vertex 57.1798230683751 1.75133000000009 -5.86210414192202e-013
  endloop
endfacet
facet normal 0.707106781186547 3.14018491736755e-016 -0.707106781186548
  outer loop
    vertex 49.3696620541382 -8.75665000000008 2.33510666666663
    vertex 47.0345553874716 -10.50798 -1.81425388360945e-014
    vertex 47.0345553874716 -8.75665000000008 -1.81425388360945e-014
  endloop
endfacet
facet normal 0.707106781186547 3.14018491736755e-016 -0.707106781186548
  outer loop
    vertex 47.0345553874716 -10.50798 -1.81425388360945e-014
    vertex 49.3696620541382 -8.75665000000008 2.33510666666663
    vertex 49.3696620541382 -10.50798 2.33510666666663
  endloop
endfacet
facet normal 4.44089209850063e-016 -1.0 -6.16297582203915e-032
  outer loop
    vertex -42.3540985983132 -10.50798 1.75132999999998
    vertex -42.3540985983132 -10.50798 1.65919307922498e-014
    vertex 46.3091307492807 -10.50798 1.75132999999995
  endloop
endfacet
facet normal 4.44089209850063e-016 -1.0 -6.16297582203915e-032
  outer loop
    vertex 54.2609397350429 -10.50798 4.08643666666663
    vertex 49.3696620541382 -10.50798 2.33510666666663
    vertex 54.2609397350427 -10.50798 2.33510666666663
  endloop
endfacet
facet normal 4.44089209850063e-016 -1.0 -6.16297582203915e-032
  outer loop
    vertex 47.0345553874716 -10.50798 -1.81425388360945e-014
    vertex 46.3091307492807 -10.50798 1.75132999999995
    vertex -42.3540985983132 -10.50798 1.65919307922498e-014
  endloop
endfacet
facet normal 4.44089209850063e-016 -1.0 -6.16297582203915e-032
  outer loop
    vertex 46.3091307492807 -10.50798 1.75132999999995
    vertex 47.0345553874716 -10.50798 -1.81425388360945e-014
    vertex 49.3696620541382 -10.50798 2.33510666666663
  endloop
endfacet
facet normal 4.44089209850063e-016 -1.0 -6.16297582203915e-032
  outer loop
    vertex 46.3091307492807 -10.50798 1.75132999999995
    vertex 49.3696620541382 -10.50798 2.33510666666663
    vertex 48.6442374159474 -10.50798 4.08643666666663
  endloop
endfacet
facet normal 4.44089209850063e-016 -1.0 -6.16297582203915e-032
  outer loop
    vertex 48.6442374159474 -10.50798 4.08643666666663
    vertex 49.3696620541382 -10.50798 2.33510666666663
    vertex 54.2609397350429 -10.50798 4.08643666666663
  endloop
endfacet
facet normal 1.0 4.44089209850063e-016 -3.88578058618805e-016
  outer loop
    vertex 54.2609397350427 -8.75665000000008 2.33510666666663
    vertex 54.2609397350429 -10.50798 4.08643666666663
    vertex 54.2609397350427 -10.50798 2.33510666666663
  endloop
endfacet
facet normal 1.0 4.44089209850063e-016 -3.88578058618805e-016
  outer loop
    vertex 54.2609397350429 -10.50798 4.08643666666663
    vertex 54.2609397350427 -8.75665000000008 2.33510666666663
    vertex 54.2609397350428 -8.75665000000008 4.08643666666663
  endloop
endfacet
facet normal -3.88578058618805e-016 -1.10933564796705e-031 -1.0
  outer loop
    vertex 54.2609397350427 -8.75665000000008 2.33510666666663
    vertex 49.3696620541382 -10.50798 2.33510666666663
    vertex 49.3696620541382 -8.75665000000008 2.33510666666663
  endloop
endfacet
facet normal -3.88578058618805e-016 -1.10933564796705e-031 -1.0
  outer loop
    vertex 49.3696620541382 -10.50798 2.33510666666663
    vertex 54.2609397350427 -8.75665000000008 2.33510666666663
    vertex 54.2609397350427 -10.50798 2.33510666666663
  endloop
endfacet
facet normal 3.88578058618805e-016 1.10933564796705e-031 1.0
  outer loop
    vertex 46.3091307492807 -10.50798 1.75132999999995
    vertex -42.3540985983132 -8.75665000000012 1.75132999999998
    vertex -42.3540985983132 -10.50798 1.75132999999998
  endloop
endfacet
facet normal 3.88578058618805e-016 1.10933564796705e-031 1.0
  outer loop
    vertex -42.3540985983132 -8.75665000000012 1.75132999999998
    vertex 46.3091307492807 -10.50798 1.75132999999995
    vertex 46.3091307492807 -8.75665000000008 1.75132999999995
  endloop
endfacet
facet normal -1.0 -4.44089209850063e-016 3.88578058618805e-016
  outer loop
    vertex -42.3540985983132 -8.75665000000012 1.75132999999998
    vertex -42.3540985983132 -10.50798 1.65919307922498e-014
    vertex -42.3540985983132 -10.50798 1.75132999999998
  endloop
endfacet
facet normal -1.0 -4.44089209850063e-016 3.88578058618805e-016
  outer loop
    vertex -42.3540985983132 -10.50798 1.65919307922498e-014
    vertex -42.3540985983132 -8.75665000000012 1.75132999999998
    vertex -42.3540985983132 -8.75665000000012 1.65919307922498e-014
  endloop
endfacet
facet normal -0.707106781186547 -3.14018491736755e-016 0.707106781186548
  outer loop
    vertex 48.6442374159474 -10.50798 4.08643666666663
    vertex 46.3091307492807 -8.75665000000008 1.75132999999995
    vertex 46.3091307492807 -10.50798 1.75132999999995
  endloop
endfacet
facet normal -0.707106781186547 -3.14018491736755e-016 0.707106781186548
  outer loop
    vertex 46.3091307492807 -8.75665000000008 1.75132999999995
    vertex 48.6442374159474 -10.50798 4.08643666666663
    vertex 48.6442374159474 -8.75665000000008 4.08643666666663
  endloop
endfacet
facet normal -4.44089209850063e-016 1.0 6.16297582203915e-032
  outer loop
    vertex -42.3540985983132 -8.75665000000012 1.75132999999998
    vertex 47.0345553874716 -8.75665000000008 -1.81425388360945e-014
    vertex -42.3540985983132 -8.75665000000012 1.65919307922498e-014
  endloop
endfacet
facet normal -4.44089209850063e-016 1.0 6.16297582203915e-032
  outer loop
    vertex 47.0345553874716 -8.75665000000008 -1.81425388360945e-014
    vertex -42.3540985983132 -8.75665000000012 1.75132999999998
    vertex 46.3091307492807 -8.75665000000008 1.75132999999995
  endloop
endfacet
facet normal -4.44089209850063e-016 1.0 6.16297582203915e-032
  outer loop
    vertex 47.0345553874716 -8.75665000000008 -1.81425388360945e-014
    vertex 46.3091307492807 -8.75665000000008 1.75132999999995
    vertex 49.3696620541382 -8.75665000000008 2.33510666666663
  endloop
endfacet
facet normal -4.44089209850063e-016 1.0 6.16297582203915e-032
  outer loop
    vertex 49.3696620541382 -8.75665000000008 2.33510666666663
    vertex 46.3091307492807 -8.75665000000008 1.75132999999995
    vertex 48.6442374159474 -8.75665000000008 4.08643666666663
  endloop
endfacet
facet normal -4.44089209850063e-016 1.0 6.16297582203915e-032
  outer loop
    vertex 49.3696620541382 -8.75665000000008 2.33510666666663
    vertex 48.6442374159474 -8.75665000000008 4.08643666666663
    vertex 54.2609397350427 -8.75665000000008 2.33510666666663
  endloop
endfacet
facet normal -4.44089209850063e-016 1.0 6.16297582203915e-032
  outer loop
    vertex 54.2609397350427 -8.75665000000008 2.33510666666663
    vertex 48.6442374159474 -8.75665000000008 4.08643666666663
    vertex 54.2609397350428 -8.75665000000008 4.08643666666663
  endloop
endfacet
facet normal 3.88578058618805e-016 1.10933564796705e-031 1.0
  outer loop
    vertex 54.2609397350429 -10.50798 4.08643666666663
    vertex 48.6442374159474 -8.75665000000008 4.08643666666663
    vertex 48.6442374159474 -10.50798 4.08643666666663
  endloop
endfacet
facet normal 3.88578058618805e-016 1.10933564796705e-031 1.0
  outer loop
    vertex 48.6442374159474 -8.75665000000008 4.08643666666663
    vertex 54.2609397350429 -10.50798 4.08643666666663
    vertex 54.2609397350428 -8.75665000000008 4.08643666666663
  endloop
endfacet
facet normal -3.88578058618805e-016 -1.10933564796705e-031 -1.0
  outer loop
    vertex 47.0345553874716 -8.75665000000008 -1.81425388360945e-014
    vertex -42.3540985983132 -10.50798 1.65919307922498e-014
    vertex -42.3540985983132 -8.75665000000012 1.65919307922498e-014
  endloop
endfacet
facet normal -3.88578058618805e-016 -1.10933564796705e-031 -1.0
  outer loop
    vertex -42.3540985983132 -10.50798 1.65919307922498e-014
    vertex 47.0345553874716 -8.75665000000008 -1.81425388360945e-014
    vertex 47.0345553874716 -10.50798 -1.81425388360945e-014
  endloop
endfacet
facet normal -0.70710678118843 -0.707106781184665 1.04056664465228e-013
  outer loop
    vertex 54.260939735043 -10.50798 4.6702133333333
    vertex 55.136604735038 -11.383645 2.3351066666665
    vertex 55.1366047350384 -11.383645 4.67021333333316
  endloop
endfacet
facet normal -0.70710678118843 -0.707106781184665 1.04056664465228e-013
  outer loop
    vertex 55.136604735038 -11.383645 2.3351066666665
    vertex 54.260939735043 -10.50798 4.6702133333333
    vertex 54.2609397350427 -10.50798 2.33510666666663
  endloop
endfacet
facet normal -0.70710678118843 -0.707106781184665 1.04056664465228e-013
  outer loop
    vertex 54.2609397350427 -10.50798 2.33510666666663
    vertex 54.260939735043 -10.50798 4.6702133333333
    vertex 54.2609397350429 -10.50798 4.08643666666663
  endloop
endfacet
facet normal 4.44089209850375e-016 -1.0 2.10531180957224e-015
  outer loop
    vertex 58.0554880683757 -11.383645 4.67021333333273
    vertex 55.136604735038 -11.383645 2.3351066666665
    vertex 58.0554880683753 -11.383645 2.33510666666606
  endloop
endfacet
facet normal 4.44089209850375e-016 -1.0 2.10531180957224e-015
  outer loop
    vertex 55.136604735038 -11.383645 2.3351066666665
    vertex 58.0554880683757 -11.383645 4.67021333333273
    vertex 55.1366047350384 -11.383645 4.67021333333316
  endloop
endfacet
facet normal -1.0 -1.93918954967871e-014 2.84605672362659e-013
  outer loop
    vertex 54.260939735043 -8.75665000000008 4.6702133333333
    vertex 54.2609397350429 -10.50798 4.08643666666663
    vertex 54.260939735043 -10.50798 4.6702133333333
  endloop
endfacet
facet normal -1.0 -1.93918954967871e-014 2.84605672362659e-013
  outer loop
    vertex 54.2609397350429 -10.50798 4.08643666666663
    vertex 54.260939735043 -8.75665000000008 4.6702133333333
    vertex 54.2609397350428 -8.75665000000008 4.08643666666663
  endloop
endfacet
facet normal -1.45053034332079e-013 -2.1053118095723e-015 -1.0
  outer loop
    vertex 55.1366047350428 -7.88098499999998 2.33510666666646
    vertex 55.4993170541382 -8.75664999999997 2.33510666666641
    vertex 55.4993170541348 -10.50798 2.33510666666645
  endloop
endfacet
facet normal -1.45053034332079e-013 -2.1053118095723e-015 -1.0
  outer loop
    vertex 55.4993170541382 -8.75664999999997 2.33510666666641
    vertex 55.1366047350428 -7.88098499999998 2.33510666666646
    vertex 58.0554880683753 -7.88098499999997 2.33510666666608
  endloop
endfacet
facet normal -1.45053034332079e-013 -2.1053118095723e-015 -1.0
  outer loop
    vertex 55.4993170541382 -8.75664999999997 2.33510666666641
    vertex 58.0554880683753 -7.88098499999997 2.33510666666608
    vertex 57.1798230683753 -8.75664999999997 2.33510666666621
  endloop
endfacet
facet normal -1.45053034332079e-013 -2.1053118095723e-015 -1.0
  outer loop
    vertex 57.1798230683753 -8.75664999999997 2.33510666666621
    vertex 58.0554880683753 -7.88098499999997 2.33510666666608
    vertex 57.1798230683753 -10.50798 2.3351066666662
  endloop
endfacet
facet normal -1.45053034332079e-013 -2.1053118095723e-015 -1.0
  outer loop
    vertex 55.1366047350428 -7.88098499999998 2.33510666666646
    vertex 54.2609397350427 -10.50798 2.33510666666663
    vertex 54.2609397350427 -8.75665000000008 2.33510666666663
  endloop
endfacet
facet normal -1.45053034332079e-013 -2.1053118095723e-015 -1.0
  outer loop
    vertex 54.2609397350427 -10.50798 2.33510666666663
    vertex 55.1366047350428 -7.88098499999998 2.33510666666646
    vertex 55.136604735038 -11.383645 2.3351066666665
  endloop
endfacet
facet normal -1.45053034332079e-013 -2.1053118095723e-015 -1.0
  outer loop
    vertex 55.136604735038 -11.383645 2.3351066666665
    vertex 55.1366047350428 -7.88098499999998 2.33510666666646
    vertex 55.4993170541348 -10.50798 2.33510666666645
  endloop
endfacet
facet normal -1.45053034332079e-013 -2.1053118095723e-015 -1.0
  outer loop
    vertex 55.136604735038 -11.383645 2.3351066666665
    vertex 55.4993170541348 -10.50798 2.33510666666645
    vertex 58.0554880683753 -11.383645 2.33510666666606
  endloop
endfacet
facet normal -1.45053034332079e-013 -2.1053118095723e-015 -1.0
  outer loop
    vertex 58.0554880683753 -11.383645 2.33510666666606
    vertex 55.4993170541348 -10.50798 2.33510666666645
    vertex 57.1798230683753 -10.50798 2.3351066666662
  endloop
endfacet
facet normal -1.45053034332079e-013 -2.1053118095723e-015 -1.0
  outer loop
    vertex 58.0554880683753 -11.383645 2.33510666666606
    vertex 57.1798230683753 -10.50798 2.3351066666662
    vertex 58.0554880683753 -7.88098499999997 2.33510666666608
  endloop
endfacet
facet normal 1.0 4.44089209850748e-016 -1.45053034332079e-013
  outer loop
    vertex 58.0554880683753 -7.88098499999997 2.33510666666608
    vertex 58.0554880683757 -11.383645 4.67021333333273
    vertex 58.0554880683753 -11.383645 2.33510666666606
  endloop
endfacet
facet normal 1.0 4.44089209850748e-016 -1.45053034332079e-013
  outer loop
    vertex 58.0554880683757 -11.383645 4.67021333333273
    vertex 58.0554880683753 -7.88098499999997 2.33510666666608
    vertex 58.0554880683757 -7.88098499999997 4.67021333333275
  endloop
endfacet
facet normal -4.44089209850339e-016 1.0 -2.10531180957224e-015
  outer loop
    vertex 55.1366047350428 -7.88098499999998 2.33510666666646
    vertex 58.0554880683757 -7.88098499999997 4.67021333333275
    vertex 58.0554880683753 -7.88098499999997 2.33510666666608
  endloop
endfacet
facet normal -4.44089209850339e-016 1.0 -2.10531180957224e-015
  outer loop
    vertex 58.0554880683757 -7.88098499999997 4.67021333333275
    vertex 55.1366047350428 -7.88098499999998 2.33510666666646
    vertex 55.1366047350431 -7.88098499999998 4.67021333333313
  endloop
endfacet
facet normal -0.707106781186548 0.707106781186547 1.01079303950837e-013
  outer loop
    vertex 54.2609397350427 -8.75665000000008 2.33510666666663
    vertex 55.1366047350431 -7.88098499999998 4.67021333333313
    vertex 55.1366047350428 -7.88098499999998 2.33510666666646
  endloop
endfacet
facet normal -0.707106781186548 0.707106781186547 1.01079303950837e-013
  outer loop
    vertex 55.1366047350431 -7.88098499999998 4.67021333333313
    vertex 54.2609397350427 -8.75665000000008 2.33510666666663
    vertex 54.2609397350428 -8.75665000000008 4.08643666666663
  endloop
endfacet
facet normal -0.707106781186548 0.707106781186547 1.01079303950837e-013
  outer loop
    vertex 55.1366047350431 -7.88098499999998 4.67021333333313
    vertex 54.2609397350428 -8.75665000000008 4.08643666666663
    vertex 54.260939735043 -8.75665000000008 4.6702133333333
  endloop
endfacet
facet normal 1.45053034332079e-013 2.1053118095723e-015 1.0
  outer loop
    vertex 55.1366047350384 -11.383645 4.67021333333316
    vertex 54.260939735043 -8.75665000000008 4.6702133333333
    vertex 54.260939735043 -10.50798 4.6702133333333
  endloop
endfacet
facet normal 1.45053034332079e-013 2.1053118095723e-015 1.0
  outer loop
    vertex 54.260939735043 -8.75665000000008 4.6702133333333
    vertex 55.1366047350384 -11.383645 4.67021333333316
    vertex 55.1366047350431 -7.88098499999998 4.67021333333313
  endloop
endfacet
facet normal 1.45053034332079e-013 2.1053118095723e-015 1.0
  outer loop
    vertex 55.1366047350431 -7.88098499999998 4.67021333333313
    vertex 55.1366047350384 -11.383645 4.67021333333316
    vertex 58.0554880683757 -11.383645 4.67021333333273
  endloop
endfacet
facet normal 1.45053034332079e-013 2.1053118095723e-015 1.0
  outer loop
    vertex 55.1366047350431 -7.88098499999998 4.67021333333313
    vertex 58.0554880683757 -11.383645 4.67021333333273
    vertex 58.0554880683757 -7.88098499999997 4.67021333333275
  endloop
endfacet
facet normal -1.33676447187047e-013 -4.736951571604e-015 -1.0
  outer loop
    vertex 55.499317054138 -8.75664999999991 -3.86454236920695e-013
    vertex 57.1798230683751 -10.5079799999999 -6.02802344984452e-013
    vertex 55.4993170541346 -10.5079799999999 -3.53270375336194e-013
  endloop
endfacet
facet normal -1.33676447187047e-013 -4.736951571604e-015 -1.0
  outer loop
    vertex 57.1798230683751 -10.5079799999999 -6.02802344984452e-013
    vertex 55.499317054138 -8.75664999999991 -3.86454236920695e-013
    vertex 57.1798230683751 -8.75664999999991 -5.86210414192202e-013
  endloop
endfacet
facet normal 4.44089209850766e-016 -1.0 4.73695157160394e-015
  outer loop
    vertex 57.1798230683753 -10.50798 2.3351066666662
    vertex 55.4993170541346 -10.5079799999999 -3.53270375336194e-013
    vertex 57.1798230683751 -10.5079799999999 -6.02802344984452e-013
  endloop
endfacet
facet normal 4.44089209850766e-016 -1.0 4.73695157160394e-015
  outer loop
    vertex 55.4993170541346 -10.5079799999999 -3.53270375336194e-013
    vertex 57.1798230683753 -10.50798 2.3351066666662
    vertex 55.4993170541348 -10.50798 2.33510666666645
  endloop
endfacet
facet normal -1.0 1.95117995834456e-012 1.33676447187038e-013
  outer loop
    vertex 55.4993170541382 -8.75664999999997 2.33510666666641
    vertex 55.4993170541346 -10.5079799999999 -3.53270375336194e-013
    vertex 55.4993170541348 -10.50798 2.33510666666645
  endloop
endfacet
facet normal -1.0 1.95117995834456e-012 1.33676447187038e-013
  outer loop
    vertex 55.4993170541346 -10.5079799999999 -3.53270375336194e-013
    vertex 55.4993170541382 -8.75664999999997 2.33510666666641
    vertex 55.499317054138 -8.75664999999991 -3.86454236920695e-013
  endloop
endfacet
facet normal -4.44089209850626e-016 1.0 -4.73695157160394e-015
  outer loop
    vertex 55.499317054138 -8.75664999999991 -3.86454236920695e-013
    vertex 57.1798230683753 -8.75664999999997 2.33510666666621
    vertex 57.1798230683751 -8.75664999999991 -5.86210414192202e-013
  endloop
endfacet
facet normal -4.44089209850626e-016 1.0 -4.73695157160394e-015
  outer loop
    vertex 57.1798230683753 -8.75664999999997 2.33510666666621
    vertex 55.499317054138 -8.75664999999991 -3.86454236920695e-013
    vertex 55.4993170541382 -8.75664999999997 2.33510666666641
  endloop
endfacet
facet normal 1.0 4.44089209851325e-016 -1.33676447187047e-013
  outer loop
    vertex 57.1798230683751 -10.5079799999999 -6.02802344984452e-013
    vertex 57.1798230683753 -8.75664999999997 2.33510666666621
    vertex 57.1798230683753 -10.50798 2.3351066666662
  endloop
endfacet
facet normal 1.0 4.44089209851325e-016 -1.33676447187047e-013
  outer loop
    vertex 57.1798230683753 -8.75664999999997 2.33510666666621
    vertex 57.1798230683751 -10.5079799999999 -6.02802344984452e-013
    vertex 57.1798230683751 -8.75664999999991 -5.86210414192202e-013
  endloop
endfacet
facet normal 0.707106781186547 3.14018491736755e-016 -0.707106781186548
  outer loop
    vertex 49.3696620541382 -19.2646300000001 2.33510666666663
    vertex 47.0345553874716 -21.01596 -1.81425388360945e-014
    vertex 47.0345553874716 -19.2646300000001 -1.81425388360945e-014
  endloop
endfacet
facet normal 0.707106781186547 3.14018491736755e-016 -0.707106781186548
  outer loop
    vertex 47.0345553874716 -21.01596 -1.81425388360945e-014
    vertex 49.3696620541382 -19.2646300000001 2.33510666666663
    vertex 49.3696620541382 -21.01596 2.33510666666663
  endloop
endfacet
facet normal 4.44089209850063e-016 -1.0 -6.16297582203915e-032
  outer loop
    vertex -42.3540985983132 -21.01596 1.75132999999998
    vertex -42.3540985983132 -21.01596 1.65919307922498e-014
    vertex 46.3091307492807 -21.01596 1.75132999999995
  endloop
endfacet
facet normal 4.44089209850063e-016 -1.0 -6.16297582203915e-032
  outer loop
    vertex 54.2609397350429 -21.01596 4.08643666666663
    vertex 49.3696620541382 -21.01596 2.33510666666663
    vertex 54.2609397350427 -21.01596 2.33510666666663
  endloop
endfacet
facet normal 4.44089209850063e-016 -1.0 -6.16297582203915e-032
  outer loop
    vertex 47.0345553874716 -21.01596 -1.81425388360945e-014
    vertex 46.3091307492807 -21.01596 1.75132999999995
    vertex -42.3540985983132 -21.01596 1.65919307922498e-014
  endloop
endfacet
facet normal 4.44089209850063e-016 -1.0 -6.16297582203915e-032
  outer loop
    vertex 46.3091307492807 -21.01596 1.75132999999995
    vertex 47.0345553874716 -21.01596 -1.81425388360945e-014
    vertex 49.3696620541382 -21.01596 2.33510666666663
  endloop
endfacet
facet normal 4.44089209850063e-016 -1.0 -6.16297582203915e-032
  outer loop
    vertex 46.3091307492807 -21.01596 1.75132999999995
    vertex 49.3696620541382 -21.01596 2.33510666666663
    vertex 48.6442374159474 -21.01596 4.08643666666663
  endloop
endfacet
facet normal 4.44089209850063e-016 -1.0 -6.16297582203915e-032
  outer loop
    vertex 48.6442374159474 -21.01596 4.08643666666663
    vertex 49.3696620541382 -21.01596 2.33510666666663
    vertex 54.2609397350429 -21.01596 4.08643666666663
  endloop
endfacet
facet normal 1.0 4.44089209850063e-016 -3.88578058618805e-016
  outer loop
    vertex 54.2609397350427 -19.2646300000001 2.33510666666663
    vertex 54.2609397350429 -21.01596 4.08643666666663
    vertex 54.2609397350427 -21.01596 2.33510666666663
  endloop
endfacet
facet normal 1.0 4.44089209850063e-016 -3.88578058618805e-016
  outer loop
    vertex 54.2609397350429 -21.01596 4.08643666666663
    vertex 54.2609397350427 -19.2646300000001 2.33510666666663
    vertex 54.2609397350428 -19.2646300000001 4.08643666666663
  endloop
endfacet
facet normal -3.88578058618805e-016 -1.10933564796705e-031 -1.0
  outer loop
    vertex 54.2609397350427 -19.2646300000001 2.33510666666663
    vertex 49.3696620541382 -21.01596 2.33510666666663
    vertex 49.3696620541382 -19.2646300000001 2.33510666666663
  endloop
endfacet
facet normal -3.88578058618805e-016 -1.10933564796705e-031 -1.0
  outer loop
    vertex 49.3696620541382 -21.01596 2.33510666666663
    vertex 54.2609397350427 -19.2646300000001 2.33510666666663
    vertex 54.2609397350427 -21.01596 2.33510666666663
  endloop
endfacet
facet normal 3.88578058618805e-016 1.10933564796705e-031 1.0
  outer loop
    vertex 46.3091307492807 -21.01596 1.75132999999995
    vertex -42.3540985983132 -19.2646300000001 1.75132999999998
    vertex -42.3540985983132 -21.01596 1.75132999999998
  endloop
endfacet
facet normal 3.88578058618805e-016 1.10933564796705e-031 1.0
  outer loop
    vertex -42.3540985983132 -19.2646300000001 1.75132999999998
    vertex 46.3091307492807 -21.01596 1.75132999999995
    vertex 46.3091307492807 -19.2646300000001 1.75132999999995
  endloop
endfacet
facet normal -1.0 -4.44089209850063e-016 3.88578058618805e-016
  outer loop
    vertex -42.3540985983132 -19.2646300000001 1.75132999999998
    vertex -42.3540985983132 -21.01596 1.65919307922498e-014
    vertex -42.3540985983132 -21.01596 1.75132999999998
  endloop
endfacet
facet normal -1.0 -4.44089209850063e-016 3.88578058618805e-016
  outer loop
    vertex -42.3540985983132 -21.01596 1.65919307922498e-014
    vertex -42.3540985983132 -19.2646300000001 1.75132999999998
    vertex -42.3540985983132 -19.2646300000001 1.65919307922498e-014
  endloop
endfacet
facet normal -0.707106781186547 -3.14018491736755e-016 0.707106781186548
  outer loop
    vertex 48.6442374159474 -21.01596 4.08643666666663
    vertex 46.3091307492807 -19.2646300000001 1.75132999999995
    vertex 46.3091307492807 -21.01596 1.75132999999995
  endloop
endfacet
facet normal -0.707106781186547 -3.14018491736755e-016 0.707106781186548
  outer loop
    vertex 46.3091307492807 -19.2646300000001 1.75132999999995
    vertex 48.6442374159474 -21.01596 4.08643666666663
    vertex 48.6442374159474 -19.2646300000001 4.08643666666663
  endloop
endfacet
facet normal -4.44089209850063e-016 1.0 6.16297582203915e-032
  outer loop
    vertex -42.3540985983132 -19.2646300000001 1.75132999999998
    vertex 47.0345553874716 -19.2646300000001 -1.81425388360945e-014
    vertex -42.3540985983132 -19.2646300000001 1.65919307922498e-014
  endloop
endfacet
facet normal -4.44089209850063e-016 1.0 6.16297582203915e-032
  outer loop
    vertex 47.0345553874716 -19.2646300000001 -1.81425388360945e-014
    vertex -42.3540985983132 -19.2646300000001 1.75132999999998
    vertex 46.3091307492807 -19.2646300000001 1.75132999999995
  endloop
endfacet
facet normal -4.44089209850063e-016 1.0 6.16297582203915e-032
  outer loop
    vertex 47.0345553874716 -19.2646300000001 -1.81425388360945e-014
    vertex 46.3091307492807 -19.2646300000001 1.75132999999995
    vertex 49.3696620541382 -19.2646300000001 2.33510666666663
  endloop
endfacet
facet normal -4.44089209850063e-016 1.0 6.16297582203915e-032
  outer loop
    vertex 49.3696620541382 -19.2646300000001 2.33510666666663
    vertex 46.3091307492807 -19.2646300000001 1.75132999999995
    vertex 48.6442374159474 -19.2646300000001 4.08643666666663
  endloop
endfacet
facet normal -4.44089209850063e-016 1.0 6.16297582203915e-032
  outer loop
    vertex 49.3696620541382 -19.2646300000001 2.33510666666663
    vertex 48.6442374159474 -19.2646300000001 4.08643666666663
    vertex 54.2609397350427 -19.2646300000001 2.33510666666663
  endloop
endfacet
facet normal -4.44089209850063e-016 1.0 6.16297582203915e-032
  outer loop
    vertex 54.2609397350427 -19.2646300000001 2.33510666666663
    vertex 48.6442374159474 -19.2646300000001 4.08643666666663
    vertex 54.2609397350428 -19.2646300000001 4.08643666666663
  endloop
endfacet
facet normal 3.88578058618805e-016 1.10933564796705e-031 1.0
  outer loop
    vertex 54.2609397350429 -21.01596 4.08643666666663
    vertex 48.6442374159474 -19.2646300000001 4.08643666666663
    vertex 48.6442374159474 -21.01596 4.08643666666663
  endloop
endfacet
facet normal 3.88578058618805e-016 1.10933564796705e-031 1.0
  outer loop
    vertex 48.6442374159474 -19.2646300000001 4.08643666666663
    vertex 54.2609397350429 -21.01596 4.08643666666663
    vertex 54.2609397350428 -19.2646300000001 4.08643666666663
  endloop
endfacet
facet normal -3.88578058618805e-016 -1.10933564796705e-031 -1.0
  outer loop
    vertex 47.0345553874716 -19.2646300000001 -1.81425388360945e-014
    vertex -42.3540985983132 -21.01596 1.65919307922498e-014
    vertex -42.3540985983132 -19.2646300000001 1.65919307922498e-014
  endloop
endfacet
facet normal -3.88578058618805e-016 -1.10933564796705e-031 -1.0
  outer loop
    vertex -42.3540985983132 -21.01596 1.65919307922498e-014
    vertex 47.0345553874716 -19.2646300000001 -1.81425388360945e-014
    vertex 47.0345553874716 -21.01596 -1.81425388360945e-014
  endloop
endfacet
facet normal -0.70710678118843 -0.707106781184665 1.04056664465228e-013
  outer loop
    vertex 54.260939735043 -21.01596 4.6702133333333
    vertex 55.136604735038 -21.891625 2.3351066666665
    vertex 55.1366047350384 -21.891625 4.67021333333316
  endloop
endfacet
facet normal -0.70710678118843 -0.707106781184665 1.04056664465228e-013
  outer loop
    vertex 55.136604735038 -21.891625 2.3351066666665
    vertex 54.260939735043 -21.01596 4.6702133333333
    vertex 54.2609397350427 -21.01596 2.33510666666663
  endloop
endfacet
facet normal -0.70710678118843 -0.707106781184665 1.04056664465228e-013
  outer loop
    vertex 54.2609397350427 -21.01596 2.33510666666663
    vertex 54.260939735043 -21.01596 4.6702133333333
    vertex 54.2609397350429 -21.01596 4.08643666666663
  endloop
endfacet
facet normal 4.44089209850375e-016 -1.0 2.10531180957224e-015
  outer loop
    vertex 58.0554880683757 -21.891625 4.67021333333273
    vertex 55.136604735038 -21.891625 2.3351066666665
    vertex 58.0554880683753 -21.891625 2.33510666666606
  endloop
endfacet
facet normal 4.44089209850375e-016 -1.0 2.10531180957224e-015
  outer loop
    vertex 55.136604735038 -21.891625 2.3351066666665
    vertex 58.0554880683757 -21.891625 4.67021333333273
    vertex 55.1366047350384 -21.891625 4.67021333333316
  endloop
endfacet
facet normal -1.0 -1.93918954967871e-014 2.84605672362659e-013
  outer loop
    vertex 54.260939735043 -19.2646300000001 4.6702133333333
    vertex 54.2609397350429 -21.01596 4.08643666666663
    vertex 54.260939735043 -21.01596 4.6702133333333
  endloop
endfacet
facet normal -1.0 -1.93918954967871e-014 2.84605672362659e-013
  outer loop
    vertex 54.2609397350429 -21.01596 4.08643666666663
    vertex 54.260939735043 -19.2646300000001 4.6702133333333
    vertex 54.2609397350428 -19.2646300000001 4.08643666666663
  endloop
endfacet
facet normal -1.45053034332079e-013 -2.1053118095723e-015 -1.0
  outer loop
    vertex 55.1366047350428 -18.388965 2.33510666666646
    vertex 55.4993170541382 -19.26463 2.33510666666641
    vertex 55.4993170541348 -21.01596 2.33510666666645
  endloop
endfacet
facet normal -1.45053034332079e-013 -2.1053118095723e-015 -1.0
  outer loop
    vertex 55.4993170541382 -19.26463 2.33510666666641
    vertex 55.1366047350428 -18.388965 2.33510666666646
    vertex 58.0554880683753 -18.388965 2.33510666666608
  endloop
endfacet
facet normal -1.45053034332079e-013 -2.1053118095723e-015 -1.0
  outer loop
    vertex 55.4993170541382 -19.26463 2.33510666666641
    vertex 58.0554880683753 -18.388965 2.33510666666608
    vertex 57.1798230683753 -19.26463 2.33510666666621
  endloop
endfacet
facet normal -1.45053034332079e-013 -2.1053118095723e-015 -1.0
  outer loop
    vertex 57.1798230683753 -19.26463 2.33510666666621
    vertex 58.0554880683753 -18.388965 2.33510666666608
    vertex 57.1798230683753 -21.01596 2.3351066666662
  endloop
endfacet
facet normal -1.45053034332079e-013 -2.1053118095723e-015 -1.0
  outer loop
    vertex 55.1366047350428 -18.388965 2.33510666666646
    vertex 54.2609397350427 -21.01596 2.33510666666663
    vertex 54.2609397350427 -19.2646300000001 2.33510666666663
  endloop
endfacet
facet normal -1.45053034332079e-013 -2.1053118095723e-015 -1.0
  outer loop
    vertex 54.2609397350427 -21.01596 2.33510666666663
    vertex 55.1366047350428 -18.388965 2.33510666666646
    vertex 55.136604735038 -21.891625 2.3351066666665
  endloop
endfacet
facet normal -1.45053034332079e-013 -2.1053118095723e-015 -1.0
  outer loop
    vertex 55.136604735038 -21.891625 2.3351066666665
    vertex 55.1366047350428 -18.388965 2.33510666666646
    vertex 55.4993170541348 -21.01596 2.33510666666645
  endloop
endfacet
facet normal -1.45053034332079e-013 -2.1053118095723e-015 -1.0
  outer loop
    vertex 55.136604735038 -21.891625 2.3351066666665
    vertex 55.4993170541348 -21.01596 2.33510666666645
    vertex 58.0554880683753 -21.891625 2.33510666666606
  endloop
endfacet
facet normal -1.45053034332079e-013 -2.1053118095723e-015 -1.0
  outer loop
    vertex 58.0554880683753 -21.891625 2.33510666666606
    vertex 55.4993170541348 -21.01596 2.33510666666645
    vertex 57.1798230683753 -21.01596 2.3351066666662
  endloop
endfacet
facet normal -1.45053034332079e-013 -2.1053118095723e-015 -1.0
  outer loop
    vertex 58.0554880683753 -21.891625 2.33510666666606
    vertex 57.1798230683753 -21.01596 2.3351066666662
    vertex 58.0554880683753 -18.388965 2.33510666666608
  endloop
endfacet
facet normal 1.0 4.44089209850748e-016 -1.45053034332079e-013
  outer loop
    vertex 58.0554880683753 -18.388965 2.33510666666608
    vertex 58.0554880683757 -21.891625 4.67021333333273
    vertex 58.0554880683753 -21.891625 2.33510666666606
  endloop
endfacet
facet normal 1.0 4.44089209850748e-016 -1.45053034332079e-013
  outer loop
    vertex 58.0554880683757 -21.891625 4.67021333333273
    vertex 58.0554880683753 -18.388965 2.33510666666608
    vertex 58.0554880683757 -18.388965 4.67021333333275
  endloop
endfacet
facet normal -4.44089209850339e-016 1.0 -2.10531180957224e-015
  outer loop
    vertex 55.1366047350428 -18.388965 2.33510666666646
    vertex 58.0554880683757 -18.388965 4.67021333333275
    vertex 58.0554880683753 -18.388965 2.33510666666608
  endloop
endfacet
facet normal -4.44089209850339e-016 1.0 -2.10531180957224e-015
  outer loop
    vertex 58.0554880683757 -18.388965 4.67021333333275
    vertex 55.1366047350428 -18.388965 2.33510666666646
    vertex 55.1366047350431 -18.388965 4.67021333333313
  endloop
endfacet
facet normal -0.707106781186548 0.707106781186547 1.01079303950837e-013
  outer loop
    vertex 54.2609397350427 -19.2646300000001 2.33510666666663
    vertex 55.1366047350431 -18.388965 4.67021333333313
    vertex 55.1366047350428 -18.388965 2.33510666666646
  endloop
endfacet
facet normal -0.707106781186548 0.707106781186547 1.01079303950837e-013
  outer loop
    vertex 55.1366047350431 -18.388965 4.67021333333313
    vertex 54.2609397350427 -19.2646300000001 2.33510666666663
    vertex 54.2609397350428 -19.2646300000001 4.08643666666663
  endloop
endfacet
facet normal -0.707106781186548 0.707106781186547 1.01079303950837e-013
  outer loop
    vertex 55.1366047350431 -18.388965 4.67021333333313
    vertex 54.2609397350428 -19.2646300000001 4.08643666666663
    vertex 54.260939735043 -19.2646300000001 4.6702133333333
  endloop
endfacet
facet normal 1.45053034332079e-013 2.1053118095723e-015 1.0
  outer loop
    vertex 55.1366047350384 -21.891625 4.67021333333316
    vertex 54.260939735043 -19.2646300000001 4.6702133333333
    vertex 54.260939735043 -21.01596 4.6702133333333
  endloop
endfacet
facet normal 1.45053034332079e-013 2.1053118095723e-015 1.0
  outer loop
    vertex 54.260939735043 -19.2646300000001 4.6702133333333
    vertex 55.1366047350384 -21.891625 4.67021333333316
    vertex 55.1366047350431 -18.388965 4.67021333333313
  endloop
endfacet
facet normal 1.45053034332079e-013 2.1053118095723e-015 1.0
  outer loop
    vertex 55.1366047350431 -18.388965 4.67021333333313
    vertex 55.1366047350384 -21.891625 4.67021333333316
    vertex 58.0554880683757 -21.891625 4.67021333333273
  endloop
endfacet
facet normal 1.45053034332079e-013 2.1053118095723e-015 1.0
  outer loop
    vertex 55.1366047350431 -18.388965 4.67021333333313
    vertex 58.0554880683757 -21.891625 4.67021333333273
    vertex 58.0554880683757 -18.388965 4.67021333333275
  endloop
endfacet
facet normal -1.33676447187047e-013 -4.736951571604e-015 -1.0
  outer loop
    vertex 55.499317054138 -19.2646299999999 -3.86454236920695e-013
    vertex 57.1798230683751 -21.0159599999999 -6.02802344984452e-013
    vertex 55.4993170541346 -21.0159599999999 -3.53270375336194e-013
  endloop
endfacet
facet normal -1.33676447187047e-013 -4.736951571604e-015 -1.0
  outer loop
    vertex 57.1798230683751 -21.0159599999999 -6.02802344984452e-013
    vertex 55.499317054138 -19.2646299999999 -3.86454236920695e-013
    vertex 57.1798230683751 -19.2646299999999 -5.86210414192202e-013
  endloop
endfacet
facet normal 4.44089209850766e-016 -1.0 4.73695157160394e-015
  outer loop
    vertex 57.1798230683753 -21.01596 2.3351066666662
    vertex 55.4993170541346 -21.0159599999999 -3.53270375336194e-013
    vertex 57.1798230683751 -21.0159599999999 -6.02802344984452e-013
  endloop
endfacet
facet normal 4.44089209850766e-016 -1.0 4.73695157160394e-015
  outer loop
    vertex 55.4993170541346 -21.0159599999999 -3.53270375336194e-013
    vertex 57.1798230683753 -21.01596 2.3351066666662
    vertex 55.4993170541348 -21.01596 2.33510666666645
  endloop
endfacet
facet normal -1.0 1.95117995834456e-012 1.33676447187038e-013
  outer loop
    vertex 55.4993170541382 -19.26463 2.33510666666641
    vertex 55.4993170541346 -21.0159599999999 -3.53270375336194e-013
    vertex 55.4993170541348 -21.01596 2.33510666666645
  endloop
endfacet
facet normal -1.0 1.95117995834456e-012 1.33676447187038e-013
  outer loop
    vertex 55.4993170541346 -21.0159599999999 -3.53270375336194e-013
    vertex 55.4993170541382 -19.26463 2.33510666666641
    vertex 55.499317054138 -19.2646299999999 -3.86454236920695e-013
  endloop
endfacet
facet normal -4.44089209850626e-016 1.0 -4.73695157160394e-015
  outer loop
    vertex 55.499317054138 -19.2646299999999 -3.86454236920695e-013
    vertex 57.1798230683753 -19.26463 2.33510666666621
    vertex 57.1798230683751 -19.2646299999999 -5.86210414192202e-013
  endloop
endfacet
facet normal -4.44089209850626e-016 1.0 -4.73695157160394e-015
  outer loop
    vertex 57.1798230683753 -19.26463 2.33510666666621
    vertex 55.499317054138 -19.2646299999999 -3.86454236920695e-013
    vertex 55.4993170541382 -19.26463 2.33510666666641
  endloop
endfacet
facet normal 1.0 4.44089209851325e-016 -1.33676447187047e-013
  outer loop
    vertex 57.1798230683751 -21.0159599999999 -6.02802344984452e-013
    vertex 57.1798230683753 -19.26463 2.33510666666621
    vertex 57.1798230683753 -21.01596 2.3351066666662
  endloop
endfacet
facet normal 1.0 4.44089209851325e-016 -1.33676447187047e-013
  outer loop
    vertex 57.1798230683753 -19.26463 2.33510666666621
    vertex 57.1798230683751 -21.0159599999999 -6.02802344984452e-013
    vertex 57.1798230683751 -19.2646299999999 -5.86210414192202e-013
  endloop
endfacet
endsolid Untitled-5f7a6d7e
