solid Untitled-5f7a61ae
facet normal 8.45884209238212e-017 1.0 -6.54846056711122e-017
  outer loop
    vertex -100.13806982202 79.4542507393175 -7.59467540987153e-015
    vertex 99.8054385113141 79.4542507393175 1.75132999999997
    vertex 99.8054385113141 79.4542507393175 -2.39273572834924e-014
  endloop
endfacet
facet normal 8.45884209238212e-017 1.0 -6.54846056711122e-017
  outer loop
    vertex 99.8054385113141 79.4542507393175 1.75132999999997
    vertex -100.13806982202 79.4542507393175 -7.59467540987153e-015
    vertex -100.13806982202 79.4542507393175 1.75132999999999
  endloop
endfacet
facet normal 1.0 -5.44005822450244e-033 -4.15369243561183e-017
  outer loop
    vertex 99.8054385113141 79.4542507393175 -2.39273572834924e-014
    vertex 99.8054385113141 -51.8139669681974 1.75132999999999
    vertex 99.8054385113141 -51.8139669681974 -7.5182186402382e-015
  endloop
endfacet
facet normal 1.0 -5.44005822450244e-033 -4.15369243561183e-017
  outer loop
    vertex 99.8054385113141 -51.8139669681974 1.75132999999999
    vertex 99.8054385113141 79.4542507393175 -2.39273572834924e-014
    vertex 99.8054385113141 79.4542507393175 1.75132999999997
  endloop
endfacet
facet normal 0.0 -1.0 0.0
  outer loop
    vertex 99.8054385113141 -51.8139669681974 1.75132999999999
    vertex -100.13806982202 -51.8139669681974 -7.5182186402382e-015
    vertex 99.8054385113141 -51.8139669681974 -7.5182186402382e-015
  endloop
endfacet
facet normal 0.0 -1.0 0.0
  outer loop
    vertex -100.13806982202 -51.8139669681974 -7.5182186402382e-015
    vertex 99.8054385113141 -51.8139669681974 1.75132999999999
    vertex -100.13806982202 -51.8139669681974 1.75132999999999
  endloop
endfacet
facet normal -4.08432411978889e-017 -6.27935523952185e-017 -1.0
  outer loop
    vertex 36.757558511314 -28.6174046773491 -5.88309137892899e-015
    vertex -20.160666488686 -41.3145471773491 -3.31780690675473e-015
    vertex -20.160666488686 -28.6174046773491 -3.31780690675473e-015
  endloop
endfacet
facet normal -4.08432411978889e-017 -6.27935523952185e-017 -1.0
  outer loop
    vertex -100.13806982202 79.4542507393175 -7.59467540987153e-015
    vertex -94.1543589886862 71.4273215726509 -8.29596539612491e-015
    vertex -100.13806982202 -51.8139669681974 -7.5182186402382e-015
  endloop
endfacet
facet normal -4.08432411978889e-017 -6.27935523952185e-017 -1.0
  outer loop
    vertex -94.1543589886862 71.4273215726509 -8.29596539612491e-015
    vertex -100.13806982202 79.4542507393175 -7.59467540987153e-015
    vertex -89.7760339886822 78.1407532393149 -1.99621667344256e-014
  endloop
endfacet
facet normal -4.08432411978889e-017 -6.27935523952185e-017 -1.0
  outer loop
    vertex -89.7760339886822 78.1407532393149 -1.99621667344256e-014
    vertex -100.13806982202 79.4542507393175 -7.59467540987153e-015
    vertex 99.8054385113141 79.4542507393175 -2.39273572834924e-014
  endloop
endfacet
facet normal -4.08432411978889e-017 -6.27935523952185e-017 -1.0
  outer loop
    vertex -89.7760339886822 78.1407532393149 -1.99621667344256e-014
    vertex 99.8054385113141 79.4542507393175 -2.39273572834924e-014
    vertex -87.1490389886823 78.1407532393149 -1.99621667344256e-014
  endloop
endfacet
facet normal -4.08432411978889e-017 -6.27935523952185e-017 -1.0
  outer loop
    vertex -87.1490389886823 78.1407532393149 -1.99621667344256e-014
    vertex 99.8054385113141 79.4542507393175 -2.39273572834924e-014
    vertex -21.4741639886378 78.1407532393149 -2.12584113275701e-014
  endloop
endfacet
facet normal -4.08432411978889e-017 -6.27935523952185e-017 -1.0
  outer loop
    vertex -87.1490389886823 78.1407532393149 -1.99621667344256e-014
    vertex -21.4741639886378 78.1407532393149 -2.12584113275701e-014
    vertex -87.1490389886823 75.5137582393149 -1.99621667344256e-014
  endloop
endfacet
facet normal -4.08432411978889e-017 -6.27935523952185e-017 -1.0
  outer loop
    vertex -21.4741639886378 78.1407532393149 -2.12584113275701e-014
    vertex 99.8054385113141 79.4542507393175 -2.39273572834924e-014
    vertex -18.8471689886379 78.1407532393149 -2.12584113275701e-014
  endloop
endfacet
facet normal -4.08432411978889e-017 -6.27935523952185e-017 -1.0
  outer loop
    vertex -18.8471689886379 78.1407532393149 -2.12584113275701e-014
    vertex 99.8054385113141 79.4542507393175 -2.39273572834924e-014
    vertex 46.8277060114066 78.1407532393149 -2.22954070020857e-014
  endloop
endfacet
facet normal -4.08432411978889e-017 -6.27935523952185e-017 -1.0
  outer loop
    vertex -18.8471689886379 78.1407532393149 -2.12584113275701e-014
    vertex 46.8277060114066 78.1407532393149 -2.22954070020857e-014
    vertex -18.8471689886379 75.5137582393149 -2.12584113275701e-014
  endloop
endfacet
facet normal -4.08432411978889e-017 -6.27935523952185e-017 -1.0
  outer loop
    vertex 46.8277060114066 78.1407532393149 -2.22954070020857e-014
    vertex 99.8054385113141 79.4542507393175 -2.39273572834924e-014
    vertex 49.4547010114065 78.1407532393149 -2.22954070020857e-014
  endloop
endfacet
facet normal -4.08432411978889e-017 -6.27935523952185e-017 -1.0
  outer loop
    vertex 49.4547010114065 78.1407532393149 -2.22954070020857e-014
    vertex 99.8054385113141 79.4542507393175 -2.39273572834924e-014
    vertex 49.4547010114065 75.5137582393149 -2.22954070020857e-014
  endloop
endfacet
facet normal -4.08432411978889e-017 -6.27935523952185e-017 -1.0
  outer loop
    vertex 49.4547010114065 75.5137582393149 -2.22954070020857e-014
    vertex 99.8054385113141 79.4542507393175 -2.39273572834924e-014
    vertex 93.8328010580587 71.4273215726509 -8.29596539612491e-015
  endloop
endfacet
facet normal -4.08432411978889e-017 -6.27935523952185e-017 -1.0
  outer loop
    vertex 93.8328010580587 71.4273215726509 -8.29596539612491e-015
    vertex 99.8054385113141 79.4542507393175 -2.39273572834924e-014
    vertex 93.8328010580587 -41.3145471773491 -8.29596539612491e-015
  endloop
endfacet
facet normal -4.08432411978889e-017 -6.27935523952185e-017 -1.0
  outer loop
    vertex -100.13806982202 -51.8139669681974 -7.5182186402382e-015
    vertex -94.1543589886862 -41.3145471773491 0.0
    vertex 99.8054385113141 -51.8139669681974 -7.5182186402382e-015
  endloop
endfacet
facet normal -4.08432411978889e-017 -6.27935523952185e-017 -1.0
  outer loop
    vertex -94.1543589886862 -41.3145471773491 0.0
    vertex -100.13806982202 -51.8139669681974 -7.5182186402382e-015
    vertex -94.1543589886862 71.4273215726509 -8.29596539612491e-015
  endloop
endfacet
facet normal -4.08432411978889e-017 -6.27935523952185e-017 -1.0
  outer loop
    vertex 99.8054385113141 -51.8139669681974 -7.5182186402382e-015
    vertex -94.1543589886862 -41.3145471773491 0.0
    vertex -20.160666488686 -41.3145471773491 -3.31780690675473e-015
  endloop
endfacet
facet normal -4.08432411978889e-017 -6.27935523952185e-017 -1.0
  outer loop
    vertex 99.8054385113141 -51.8139669681974 -7.5182186402382e-015
    vertex -20.160666488686 -41.3145471773491 -3.31780690675473e-015
    vertex 36.757558511314 -41.3145471773491 -5.88309137892899e-015
  endloop
endfacet
facet normal -4.08432411978889e-017 -6.27935523952185e-017 -1.0
  outer loop
    vertex 36.757558511314 -41.3145471773491 -5.88309137892899e-015
    vertex -20.160666488686 -41.3145471773491 -3.31780690675473e-015
    vertex 36.757558511314 -28.6174046773491 -5.88309137892899e-015
  endloop
endfacet
facet normal -4.08432411978889e-017 -6.27935523952185e-017 -1.0
  outer loop
    vertex 99.8054385113141 -51.8139669681974 -7.5182186402382e-015
    vertex 36.757558511314 -41.3145471773491 -5.88309137892899e-015
    vertex 93.8328010580587 -41.3145471773491 -8.29596539612491e-015
  endloop
endfacet
facet normal -4.08432411978889e-017 -6.27935523952185e-017 -1.0
  outer loop
    vertex 99.8054385113141 -51.8139669681974 -7.5182186402382e-015
    vertex 93.8328010580587 -41.3145471773491 -8.29596539612491e-015
    vertex 99.8054385113141 79.4542507393175 -2.39273572834924e-014
  endloop
endfacet
facet normal -4.08432411978889e-017 -6.27935523952185e-017 -1.0
  outer loop
    vertex -94.1543589886862 71.4273215726509 -8.29596539612491e-015
    vertex -89.7760339886822 75.5137582393149 -1.99621667344256e-014
    vertex 93.8328010580587 71.4273215726509 -8.29596539612491e-015
  endloop
endfacet
facet normal -4.08432411978889e-017 -6.27935523952185e-017 -1.0
  outer loop
    vertex -89.7760339886822 75.5137582393149 -1.99621667344256e-014
    vertex -94.1543589886862 71.4273215726509 -8.29596539612491e-015
    vertex -89.7760339886822 78.1407532393149 -1.99621667344256e-014
  endloop
endfacet
facet normal -4.08432411978889e-017 -6.27935523952185e-017 -1.0
  outer loop
    vertex 93.8328010580587 71.4273215726509 -8.29596539612491e-015
    vertex -89.7760339886822 75.5137582393149 -1.99621667344256e-014
    vertex -87.1490389886823 75.5137582393149 -1.99621667344256e-014
  endloop
endfacet
facet normal -4.08432411978889e-017 -6.27935523952185e-017 -1.0
  outer loop
    vertex 93.8328010580587 71.4273215726509 -8.29596539612491e-015
    vertex -87.1490389886823 75.5137582393149 -1.99621667344256e-014
    vertex -21.4741639886378 75.5137582393149 -2.12584113275701e-014
  endloop
endfacet
facet normal -4.08432411978889e-017 -6.27935523952185e-017 -1.0
  outer loop
    vertex -21.4741639886378 75.5137582393149 -2.12584113275701e-014
    vertex -87.1490389886823 75.5137582393149 -1.99621667344256e-014
    vertex -21.4741639886378 78.1407532393149 -2.12584113275701e-014
  endloop
endfacet
facet normal -4.08432411978889e-017 -6.27935523952185e-017 -1.0
  outer loop
    vertex 93.8328010580587 71.4273215726509 -8.29596539612491e-015
    vertex -21.4741639886378 75.5137582393149 -2.12584113275701e-014
    vertex -18.8471689886379 75.5137582393149 -2.12584113275701e-014
  endloop
endfacet
facet normal -4.08432411978889e-017 -6.27935523952185e-017 -1.0
  outer loop
    vertex 93.8328010580587 71.4273215726509 -8.29596539612491e-015
    vertex -18.8471689886379 75.5137582393149 -2.12584113275701e-014
    vertex 46.8277060114066 75.5137582393149 -2.22954070020857e-014
  endloop
endfacet
facet normal -4.08432411978889e-017 -6.27935523952185e-017 -1.0
  outer loop
    vertex 46.8277060114066 75.5137582393149 -2.22954070020857e-014
    vertex -18.8471689886379 75.5137582393149 -2.12584113275701e-014
    vertex 46.8277060114066 78.1407532393149 -2.22954070020857e-014
  endloop
endfacet
facet normal -4.08432411978889e-017 -6.27935523952185e-017 -1.0
  outer loop
    vertex 93.8328010580587 71.4273215726509 -8.29596539612491e-015
    vertex 46.8277060114066 75.5137582393149 -2.22954070020857e-014
    vertex 49.4547010114065 75.5137582393149 -2.22954070020857e-014
  endloop
endfacet
facet normal -1.0 0.0 4.15369243561183e-017
  outer loop
    vertex -100.13806982202 79.4542507393175 1.75132999999999
    vertex -100.13806982202 -51.8139669681974 -7.5182186402382e-015
    vertex -100.13806982202 -51.8139669681974 1.75132999999999
  endloop
endfacet
facet normal -1.0 0.0 4.15369243561183e-017
  outer loop
    vertex -100.13806982202 -51.8139669681974 -7.5182186402382e-015
    vertex -100.13806982202 79.4542507393175 1.75132999999999
    vertex -100.13806982202 79.4542507393175 -7.59467540987153e-015
  endloop
endfacet
facet normal -1.0 7.44273606837157e-034 1.15077438989067e-017
  outer loop
    vertex -95.9056889886863 73.1786515726509 3.50265999999997
    vertex -95.9056889886863 -43.0658771773491 1.75132999999997
    vertex -95.9056889886863 -43.0658771773491 3.50265999999997
  endloop
endfacet
facet normal -1.0 7.44273606837157e-034 1.15077438989067e-017
  outer loop
    vertex -95.9056889886863 -43.0658771773491 1.75132999999997
    vertex -95.9056889886863 73.1786515726509 3.50265999999997
    vertex -95.9056889886863 73.1786515726509 1.75132999999997
  endloop
endfacet
facet normal 1.0 0.0 0.0
  outer loop
    vertex -94.1543589886862 71.4273215726509 -8.29596539612491e-015
    vertex -94.1543589886862 -41.3145471773491 1.75132999999996
    vertex -94.1543589886862 -41.3145471773491 0.0
  endloop
endfacet
facet normal 1.0 0.0 0.0
  outer loop
    vertex -94.1543589886862 -41.3145471773491 1.75132999999996
    vertex -94.1543589886862 -43.0658771773491 3.50265999999997
    vertex -94.1543589886862 -43.0658771773491 1.75132999999996
  endloop
endfacet
facet normal 1.0 0.0 0.0
  outer loop
    vertex -94.1543589886862 -43.0658771773491 3.50265999999997
    vertex -94.1543589886862 -41.3145471773491 1.75132999999996
    vertex -94.1543589886862 71.4273215726509 3.50265999999997
  endloop
endfacet
facet normal 1.0 0.0 0.0
  outer loop
    vertex -94.1543589886862 71.4273215726509 3.50265999999997
    vertex -94.1543589886862 -41.3145471773491 1.75132999999996
    vertex -94.1543589886862 71.4273215726509 -8.29596539612491e-015
  endloop
endfacet
facet normal -1.0 1.73068986100453e-016 -1.54833083108259e-015
  outer loop
    vertex 93.8328010580587 71.4273215726509 3.50265999999997
    vertex 93.8328010580586 -43.0658771773491 1.75132999999997
    vertex 93.8328010580586 -43.0658771773491 3.50265999999997
  endloop
endfacet
facet normal -1.0 1.73068986100453e-016 -1.54833083108259e-015
  outer loop
    vertex 93.8328010580586 -43.0658771773491 1.75132999999997
    vertex 93.8328010580587 71.4273215726509 3.50265999999997
    vertex 93.8328010580586 -41.3145471773491 1.75132999999997
  endloop
endfacet
facet normal -1.0 1.73068986100453e-016 -1.54833083108259e-015
  outer loop
    vertex 93.8328010580586 -41.3145471773491 1.75132999999997
    vertex 93.8328010580587 71.4273215726509 3.50265999999997
    vertex 93.8328010580587 -41.3145471773491 -8.29596539612491e-015
  endloop
endfacet
facet normal -1.0 1.73068986100453e-016 -1.54833083108259e-015
  outer loop
    vertex 93.8328010580587 -41.3145471773491 -8.29596539612491e-015
    vertex 93.8328010580587 71.4273215726509 3.50265999999997
    vertex 93.8328010580587 71.4273215726509 -8.29596539612491e-015
  endloop
endfacet
facet normal -3.04184765211152e-017 -1.0 7.72668657434659e-016
  outer loop
    vertex 93.8328010580587 71.4273215726509 -8.29596539612491e-015
    vertex 70.3357902247244 71.4273215726509 1.75132999999997
    vertex -94.1543589886862 71.4273215726509 -8.29596539612491e-015
  endloop
endfacet
facet normal -3.04184765211152e-017 -1.0 7.72668657434659e-016
  outer loop
    vertex 70.3357902247244 71.4273215726509 1.75132999999997
    vertex 93.8328010580587 71.4273215726509 -8.29596539612491e-015
    vertex 93.8328010580587 71.4273215726509 3.50265999999997
  endloop
endfacet
facet normal -3.04184765211152e-017 -1.0 7.72668657434659e-016
  outer loop
    vertex 70.3357902247244 71.4273215726509 1.75132999999997
    vertex 93.8328010580587 71.4273215726509 3.50265999999997
    vertex 70.3357902247244 71.4273215726509 3.50265999999997
  endloop
endfacet
facet normal -3.04184765211152e-017 -1.0 7.72668657434659e-016
  outer loop
    vertex 52.8224902247248 71.4273215726509 3.50265999999997
    vertex 34.7254135580592 71.4273215726509 1.75132999999997
    vertex 52.8224902247248 71.4273215726509 1.75132999999997
  endloop
endfacet
facet normal -3.04184765211152e-017 -1.0 7.72668657434659e-016
  outer loop
    vertex 34.7254135580592 71.4273215726509 1.75132999999997
    vertex 52.8224902247248 71.4273215726509 3.50265999999997
    vertex 34.7254135580592 71.4273215726509 3.50265999999997
  endloop
endfacet
facet normal -3.04184765211152e-017 -1.0 7.72668657434659e-016
  outer loop
    vertex 17.2121135580596 71.4273215726509 3.50265999999997
    vertex -52.5851348164309 71.4273215726509 1.75132999999997
    vertex 17.2121135580596 71.4273215726509 1.75132999999997
  endloop
endfacet
facet normal -3.04184765211152e-017 -1.0 7.72668657434659e-016
  outer loop
    vertex -52.5851348164309 71.4273215726509 1.75132999999997
    vertex 17.2121135580596 71.4273215726509 3.50265999999997
    vertex -52.5851348164309 71.4273215726509 3.50265999999997
  endloop
endfacet
facet normal -3.04184765211152e-017 -1.0 7.72668657434659e-016
  outer loop
    vertex -94.1543589886862 71.4273215726509 -8.29596539612491e-015
    vertex -70.0984348164304 71.4273215726509 1.75132999999997
    vertex -94.1543589886862 71.4273215726509 3.50265999999997
  endloop
endfacet
facet normal -3.04184765211152e-017 -1.0 7.72668657434659e-016
  outer loop
    vertex -70.0984348164304 71.4273215726509 1.75132999999997
    vertex -94.1543589886862 71.4273215726509 -8.29596539612491e-015
    vertex 70.3357902247244 71.4273215726509 1.75132999999997
  endloop
endfacet
facet normal -3.04184765211152e-017 -1.0 7.72668657434659e-016
  outer loop
    vertex -70.0984348164304 71.4273215726509 1.75132999999997
    vertex 70.3357902247244 71.4273215726509 1.75132999999997
    vertex 52.8224902247248 71.4273215726509 1.75132999999997
  endloop
endfacet
facet normal -3.04184765211152e-017 -1.0 7.72668657434659e-016
  outer loop
    vertex -70.0984348164304 71.4273215726509 1.75132999999997
    vertex 52.8224902247248 71.4273215726509 1.75132999999997
    vertex 34.7254135580592 71.4273215726509 1.75132999999997
  endloop
endfacet
facet normal -3.04184765211152e-017 -1.0 7.72668657434659e-016
  outer loop
    vertex -70.0984348164304 71.4273215726509 1.75132999999997
    vertex 34.7254135580592 71.4273215726509 1.75132999999997
    vertex 17.2121135580596 71.4273215726509 1.75132999999997
  endloop
endfacet
facet normal -3.04184765211152e-017 -1.0 7.72668657434659e-016
  outer loop
    vertex -70.0984348164304 71.4273215726509 1.75132999999997
    vertex 17.2121135580596 71.4273215726509 1.75132999999997
    vertex -52.5851348164309 71.4273215726509 1.75132999999997
  endloop
endfacet
facet normal -3.04184765211152e-017 -1.0 7.72668657434659e-016
  outer loop
    vertex -94.1543589886862 71.4273215726509 3.50265999999997
    vertex -70.0984348164304 71.4273215726509 1.75132999999997
    vertex -70.0984348164304 71.4273215726509 3.50265999999997
  endloop
endfacet
facet normal 0.0 -1.0 0.0
  outer loop
    vertex -94.1543589886862 -43.0658771773491 3.50265999999997
    vertex -95.9056889886863 -43.0658771773491 1.75132999999997
    vertex -94.1543589886862 -43.0658771773491 1.75132999999996
  endloop
endfacet
facet normal 0.0 -1.0 0.0
  outer loop
    vertex -95.9056889886863 -43.0658771773491 1.75132999999997
    vertex -94.1543589886862 -43.0658771773491 3.50265999999997
    vertex -95.9056889886863 -43.0658771773491 3.50265999999997
  endloop
endfacet
facet normal 5.29231780757182e-019 6.05867201287642e-017 1.0
  outer loop
    vertex -94.1543589886862 -43.0658771773491 3.50265999999997
    vertex -95.9056889886863 73.1786515726509 3.50265999999997
    vertex -95.9056889886863 -43.0658771773491 3.50265999999997
  endloop
endfacet
facet normal 5.29231780757182e-019 6.05867201287642e-017 1.0
  outer loop
    vertex -95.9056889886863 73.1786515726509 3.50265999999997
    vertex -94.1543589886862 -43.0658771773491 3.50265999999997
    vertex -94.1543589886862 71.4273215726509 3.50265999999997
  endloop
endfacet
facet normal 5.29231780757182e-019 6.05867201287642e-017 1.0
  outer loop
    vertex -95.9056889886863 73.1786515726509 3.50265999999997
    vertex -94.1543589886862 71.4273215726509 3.50265999999997
    vertex -70.0984348164304 73.1786515726509 3.50265999999997
  endloop
endfacet
facet normal 5.29231780757182e-019 6.05867201287642e-017 1.0
  outer loop
    vertex -70.0984348164304 73.1786515726509 3.50265999999997
    vertex -94.1543589886862 71.4273215726509 3.50265999999997
    vertex -70.0984348164304 71.4273215726509 3.50265999999997
  endloop
endfacet
facet normal 4.21398520295679e-017 7.40608398465923e-017 1.0
  outer loop
    vertex 52.8224902247248 73.1786515726509 1.75132999999997
    vertex 46.8277060114066 75.5137582393149 1.75132999999998
    vertex 34.7254135580592 73.1786515726509 1.75132999999997
  endloop
endfacet
facet normal 4.21398520295679e-017 7.40608398465923e-017 1.0
  outer loop
    vertex 46.8277060114066 75.5137582393149 1.75132999999998
    vertex 52.8224902247248 73.1786515726509 1.75132999999997
    vertex 49.4547010114065 75.5137582393149 1.75132999999998
  endloop
endfacet
facet normal 4.21398520295679e-017 7.40608398465923e-017 1.0
  outer loop
    vertex 49.4547010114065 75.5137582393149 1.75132999999998
    vertex 52.8224902247248 73.1786515726509 1.75132999999997
    vertex 49.4547010114065 78.1407532393149 1.75132999999998
  endloop
endfacet
facet normal 4.21398520295679e-017 7.40608398465923e-017 1.0
  outer loop
    vertex 70.3357902247244 71.4273215726509 1.75132999999997
    vertex 52.8224902247248 73.1786515726509 1.75132999999997
    vertex 52.8224902247248 71.4273215726509 1.75132999999997
  endloop
endfacet
facet normal 4.21398520295679e-017 7.40608398465923e-017 1.0
  outer loop
    vertex 93.8328010580586 -41.3145471773491 1.75132999999997
    vertex 36.7575585113141 -41.3145471773491 1.75132999999997
    vertex 93.8328010580586 -43.0658771773491 1.75132999999997
  endloop
endfacet
facet normal 4.21398520295679e-017 7.40608398465923e-017 1.0
  outer loop
    vertex -100.13806982202 -51.8139669681974 1.75132999999999
    vertex -95.9056889886863 -43.0658771773491 1.75132999999997
    vertex -100.13806982202 79.4542507393175 1.75132999999999
  endloop
endfacet
facet normal 4.21398520295679e-017 7.40608398465923e-017 1.0
  outer loop
    vertex -95.9056889886863 -43.0658771773491 1.75132999999997
    vertex -100.13806982202 -51.8139669681974 1.75132999999999
    vertex 99.8054385113141 -51.8139669681974 1.75132999999999
  endloop
endfacet
facet normal 4.21398520295679e-017 7.40608398465923e-017 1.0
  outer loop
    vertex -95.9056889886863 -43.0658771773491 1.75132999999997
    vertex 99.8054385113141 -51.8139669681974 1.75132999999999
    vertex -94.1543589886862 -43.0658771773491 1.75132999999996
  endloop
endfacet
facet normal 4.21398520295679e-017 7.40608398465923e-017 1.0
  outer loop
    vertex -94.1543589886862 -43.0658771773491 1.75132999999996
    vertex 99.8054385113141 -51.8139669681974 1.75132999999999
    vertex -94.1543589886862 -41.3145471773491 1.75132999999996
  endloop
endfacet
facet normal 4.21398520295679e-017 7.40608398465923e-017 1.0
  outer loop
    vertex -94.1543589886862 -41.3145471773491 1.75132999999996
    vertex 99.8054385113141 -51.8139669681974 1.75132999999999
    vertex -20.160666488686 -41.3145471773491 1.75132999999997
  endloop
endfacet
facet normal 4.21398520295679e-017 7.40608398465923e-017 1.0
  outer loop
    vertex -20.160666488686 -41.3145471773491 1.75132999999997
    vertex 99.8054385113141 -51.8139669681974 1.75132999999999
    vertex 36.7575585113141 -41.3145471773491 1.75132999999997
  endloop
endfacet
facet normal 4.21398520295679e-017 7.40608398465923e-017 1.0
  outer loop
    vertex -20.160666488686 -41.3145471773491 1.75132999999997
    vertex 36.7575585113141 -41.3145471773491 1.75132999999997
    vertex -20.160666488686 -28.6174046773491 1.75132999999997
  endloop
endfacet
facet normal 4.21398520295679e-017 7.40608398465923e-017 1.0
  outer loop
    vertex 36.7575585113141 -41.3145471773491 1.75132999999997
    vertex 99.8054385113141 -51.8139669681974 1.75132999999999
    vertex 93.8328010580586 -43.0658771773491 1.75132999999997
  endloop
endfacet
facet normal 4.21398520295679e-017 7.40608398465923e-017 1.0
  outer loop
    vertex 93.8328010580586 -43.0658771773491 1.75132999999997
    vertex 99.8054385113141 -51.8139669681974 1.75132999999999
    vertex 95.5841310580587 -43.0658771773491 1.75132999999997
  endloop
endfacet
facet normal 4.21398520295679e-017 7.40608398465923e-017 1.0
  outer loop
    vertex 95.5841310580587 -43.0658771773491 1.75132999999997
    vertex 99.8054385113141 -51.8139669681974 1.75132999999999
    vertex 95.5841310580587 73.1786515726509 1.75132999999997
  endloop
endfacet
facet normal 4.21398520295679e-017 7.40608398465923e-017 1.0
  outer loop
    vertex -100.13806982202 79.4542507393175 1.75132999999999
    vertex -89.7760339886822 78.1407532393149 1.75132999999998
    vertex 99.8054385113141 79.4542507393175 1.75132999999997
  endloop
endfacet
facet normal 4.21398520295679e-017 7.40608398465923e-017 1.0
  outer loop
    vertex -89.7760339886822 78.1407532393149 1.75132999999998
    vertex -100.13806982202 79.4542507393175 1.75132999999999
    vertex -95.9056889886863 73.1786515726509 1.75132999999997
  endloop
endfacet
facet normal 4.21398520295679e-017 7.40608398465923e-017 1.0
  outer loop
    vertex -95.9056889886863 73.1786515726509 1.75132999999997
    vertex -100.13806982202 79.4542507393175 1.75132999999999
    vertex -95.9056889886863 -43.0658771773491 1.75132999999997
  endloop
endfacet
facet normal 4.21398520295679e-017 7.40608398465923e-017 1.0
  outer loop
    vertex -89.7760339886822 78.1407532393149 1.75132999999998
    vertex -95.9056889886863 73.1786515726509 1.75132999999997
    vertex -89.7760339886822 75.5137582393149 1.75132999999998
  endloop
endfacet
facet normal 4.21398520295679e-017 7.40608398465923e-017 1.0
  outer loop
    vertex 99.8054385113141 79.4542507393175 1.75132999999997
    vertex -89.7760339886822 78.1407532393149 1.75132999999998
    vertex -87.1490389886823 78.1407532393149 1.75132999999998
  endloop
endfacet
facet normal 4.21398520295679e-017 7.40608398465923e-017 1.0
  outer loop
    vertex 99.8054385113141 79.4542507393175 1.75132999999997
    vertex -87.1490389886823 78.1407532393149 1.75132999999998
    vertex -21.4741639886378 78.1407532393149 1.75132999999998
  endloop
endfacet
facet normal 4.21398520295679e-017 7.40608398465923e-017 1.0
  outer loop
    vertex -21.4741639886378 78.1407532393149 1.75132999999998
    vertex -87.1490389886823 78.1407532393149 1.75132999999998
    vertex -70.0984348164304 73.1786515726509 1.75132999999997
  endloop
endfacet
facet normal 4.21398520295679e-017 7.40608398465923e-017 1.0
  outer loop
    vertex -21.4741639886378 78.1407532393149 1.75132999999998
    vertex -70.0984348164304 73.1786515726509 1.75132999999997
    vertex -52.5851348164309 73.1786515726509 1.75132999999997
  endloop
endfacet
facet normal 4.21398520295679e-017 7.40608398465923e-017 1.0
  outer loop
    vertex -52.5851348164309 73.1786515726509 1.75132999999997
    vertex -70.0984348164304 73.1786515726509 1.75132999999997
    vertex -52.5851348164309 71.4273215726509 1.75132999999997
  endloop
endfacet
facet normal 4.21398520295679e-017 7.40608398465923e-017 1.0
  outer loop
    vertex -21.4741639886378 78.1407532393149 1.75132999999998
    vertex -52.5851348164309 73.1786515726509 1.75132999999997
    vertex -21.4741639886378 75.5137582393149 1.75132999999998
  endloop
endfacet
facet normal 4.21398520295679e-017 7.40608398465923e-017 1.0
  outer loop
    vertex 99.8054385113141 79.4542507393175 1.75132999999997
    vertex -21.4741639886378 78.1407532393149 1.75132999999998
    vertex -18.8471689886379 78.1407532393149 1.75132999999998
  endloop
endfacet
facet normal 4.21398520295679e-017 7.40608398465923e-017 1.0
  outer loop
    vertex 99.8054385113141 79.4542507393175 1.75132999999997
    vertex -18.8471689886379 78.1407532393149 1.75132999999998
    vertex 46.8277060114066 78.1407532393149 1.75132999999998
  endloop
endfacet
facet normal 4.21398520295679e-017 7.40608398465923e-017 1.0
  outer loop
    vertex 46.8277060114066 78.1407532393149 1.75132999999998
    vertex -18.8471689886379 78.1407532393149 1.75132999999998
    vertex 17.2121135580596 73.1786515726509 1.75132999999997
  endloop
endfacet
facet normal 4.21398520295679e-017 7.40608398465923e-017 1.0
  outer loop
    vertex 46.8277060114066 78.1407532393149 1.75132999999998
    vertex 17.2121135580596 73.1786515726509 1.75132999999997
    vertex 34.7254135580592 73.1786515726509 1.75132999999997
  endloop
endfacet
facet normal 4.21398520295679e-017 7.40608398465923e-017 1.0
  outer loop
    vertex 34.7254135580592 73.1786515726509 1.75132999999997
    vertex 17.2121135580596 73.1786515726509 1.75132999999997
    vertex 34.7254135580592 71.4273215726509 1.75132999999997
  endloop
endfacet
facet normal 4.21398520295679e-017 7.40608398465923e-017 1.0
  outer loop
    vertex 46.8277060114066 78.1407532393149 1.75132999999998
    vertex 34.7254135580592 73.1786515726509 1.75132999999997
    vertex 46.8277060114066 75.5137582393149 1.75132999999998
  endloop
endfacet
facet normal 4.21398520295679e-017 7.40608398465923e-017 1.0
  outer loop
    vertex 99.8054385113141 79.4542507393175 1.75132999999997
    vertex 46.8277060114066 78.1407532393149 1.75132999999998
    vertex 49.4547010114065 78.1407532393149 1.75132999999998
  endloop
endfacet
facet normal 4.21398520295679e-017 7.40608398465923e-017 1.0
  outer loop
    vertex 99.8054385113141 79.4542507393175 1.75132999999997
    vertex 49.4547010114065 78.1407532393149 1.75132999999998
    vertex 52.8224902247248 73.1786515726509 1.75132999999997
  endloop
endfacet
facet normal 4.21398520295679e-017 7.40608398465923e-017 1.0
  outer loop
    vertex 99.8054385113141 79.4542507393175 1.75132999999997
    vertex 52.8224902247248 73.1786515726509 1.75132999999997
    vertex 70.3357902247244 73.1786515726509 1.75132999999997
  endloop
endfacet
facet normal 4.21398520295679e-017 7.40608398465923e-017 1.0
  outer loop
    vertex 70.3357902247244 73.1786515726509 1.75132999999997
    vertex 52.8224902247248 73.1786515726509 1.75132999999997
    vertex 70.3357902247244 71.4273215726509 1.75132999999997
  endloop
endfacet
facet normal 4.21398520295679e-017 7.40608398465923e-017 1.0
  outer loop
    vertex 99.8054385113141 79.4542507393175 1.75132999999997
    vertex 70.3357902247244 73.1786515726509 1.75132999999997
    vertex 95.5841310580587 73.1786515726509 1.75132999999997
  endloop
endfacet
facet normal 4.21398520295679e-017 7.40608398465923e-017 1.0
  outer loop
    vertex 99.8054385113141 79.4542507393175 1.75132999999997
    vertex 95.5841310580587 73.1786515726509 1.75132999999997
    vertex 99.8054385113141 -51.8139669681974 1.75132999999999
  endloop
endfacet
facet normal 4.21398520295679e-017 7.40608398465923e-017 1.0
  outer loop
    vertex 36.7575585113141 -28.6174046773491 1.75132999999997
    vertex -20.160666488686 -28.6174046773491 1.75132999999997
    vertex 36.7575585113141 -41.3145471773491 1.75132999999997
  endloop
endfacet
facet normal 4.21398520295679e-017 7.40608398465923e-017 1.0
  outer loop
    vertex -70.0984348164304 73.1786515726509 1.75132999999997
    vertex -89.7760339886822 75.5137582393149 1.75132999999998
    vertex -95.9056889886863 73.1786515726509 1.75132999999997
  endloop
endfacet
facet normal 4.21398520295679e-017 7.40608398465923e-017 1.0
  outer loop
    vertex -89.7760339886822 75.5137582393149 1.75132999999998
    vertex -70.0984348164304 73.1786515726509 1.75132999999997
    vertex -87.1490389886823 75.5137582393149 1.75132999999998
  endloop
endfacet
facet normal 4.21398520295679e-017 7.40608398465923e-017 1.0
  outer loop
    vertex -87.1490389886823 75.5137582393149 1.75132999999998
    vertex -70.0984348164304 73.1786515726509 1.75132999999997
    vertex -87.1490389886823 78.1407532393149 1.75132999999998
  endloop
endfacet
facet normal 4.21398520295679e-017 7.40608398465923e-017 1.0
  outer loop
    vertex -52.5851348164309 71.4273215726509 1.75132999999997
    vertex -70.0984348164304 73.1786515726509 1.75132999999997
    vertex -70.0984348164304 71.4273215726509 1.75132999999997
  endloop
endfacet
facet normal 4.21398520295679e-017 7.40608398465923e-017 1.0
  outer loop
    vertex 17.2121135580596 73.1786515726509 1.75132999999997
    vertex -21.4741639886378 75.5137582393149 1.75132999999998
    vertex -52.5851348164309 73.1786515726509 1.75132999999997
  endloop
endfacet
facet normal 4.21398520295679e-017 7.40608398465923e-017 1.0
  outer loop
    vertex -21.4741639886378 75.5137582393149 1.75132999999998
    vertex 17.2121135580596 73.1786515726509 1.75132999999997
    vertex -18.8471689886379 75.5137582393149 1.75132999999998
  endloop
endfacet
facet normal 4.21398520295679e-017 7.40608398465923e-017 1.0
  outer loop
    vertex -18.8471689886379 75.5137582393149 1.75132999999998
    vertex 17.2121135580596 73.1786515726509 1.75132999999997
    vertex -18.8471689886379 78.1407532393149 1.75132999999998
  endloop
endfacet
facet normal 4.21398520295679e-017 7.40608398465923e-017 1.0
  outer loop
    vertex 34.7254135580592 71.4273215726509 1.75132999999997
    vertex 17.2121135580596 73.1786515726509 1.75132999999997
    vertex 17.2121135580596 71.4273215726509 1.75132999999997
  endloop
endfacet
facet normal 1.0 0.0 0.0
  outer loop
    vertex 52.8224902247248 73.1786515726509 1.75132999999997
    vertex 52.8224902247248 71.4273215726509 3.50265999999997
    vertex 52.8224902247248 71.4273215726509 1.75132999999997
  endloop
endfacet
facet normal 1.0 0.0 0.0
  outer loop
    vertex 52.8224902247248 71.4273215726509 3.50265999999997
    vertex 52.8224902247248 73.1786515726509 1.75132999999997
    vertex 52.8224902247248 73.1786515726509 3.50265999999997
  endloop
endfacet
facet normal -4.33434606307926e-020 2.70918133361432e-017 1.0
  outer loop
    vertex 95.5841310580587 -43.0658771773491 3.50265999999997
    vertex 93.8328010580587 71.4273215726509 3.50265999999997
    vertex 93.8328010580586 -43.0658771773491 3.50265999999997
  endloop
endfacet
facet normal -4.33434606307926e-020 2.70918133361432e-017 1.0
  outer loop
    vertex 93.8328010580587 71.4273215726509 3.50265999999997
    vertex 70.3357902247244 73.1786515726509 3.50265999999997
    vertex 70.3357902247244 71.4273215726509 3.50265999999997
  endloop
endfacet
facet normal -4.33434606307926e-020 2.70918133361432e-017 1.0
  outer loop
    vertex 70.3357902247244 73.1786515726509 3.50265999999997
    vertex 93.8328010580587 71.4273215726509 3.50265999999997
    vertex 95.5841310580587 73.1786515726509 3.50265999999997
  endloop
endfacet
facet normal -4.33434606307926e-020 2.70918133361432e-017 1.0
  outer loop
    vertex 95.5841310580587 73.1786515726509 3.50265999999997
    vertex 93.8328010580587 71.4273215726509 3.50265999999997
    vertex 95.5841310580587 -43.0658771773491 3.50265999999997
  endloop
endfacet
facet normal 0.0 1.0 0.0
  outer loop
    vertex 34.7254135580592 73.1786515726509 3.50265999999997
    vertex 52.8224902247248 73.1786515726509 1.75132999999997
    vertex 34.7254135580592 73.1786515726509 1.75132999999997
  endloop
endfacet
facet normal 0.0 1.0 0.0
  outer loop
    vertex 52.8224902247248 73.1786515726509 1.75132999999997
    vertex 34.7254135580592 73.1786515726509 3.50265999999997
    vertex 52.8224902247248 73.1786515726509 3.50265999999997
  endloop
endfacet
facet normal 0.0 1.0 0.0
  outer loop
    vertex -52.5851348164309 73.1786515726509 3.50265999999997
    vertex 17.2121135580596 73.1786515726509 1.75132999999997
    vertex -52.5851348164309 73.1786515726509 1.75132999999997
  endloop
endfacet
facet normal 0.0 1.0 0.0
  outer loop
    vertex 17.2121135580596 73.1786515726509 1.75132999999997
    vertex -52.5851348164309 73.1786515726509 3.50265999999997
    vertex 17.2121135580596 73.1786515726509 3.50265999999997
  endloop
endfacet
facet normal 0.0 1.0 0.0
  outer loop
    vertex -95.9056889886863 73.1786515726509 3.50265999999997
    vertex -70.0984348164304 73.1786515726509 1.75132999999997
    vertex -95.9056889886863 73.1786515726509 1.75132999999997
  endloop
endfacet
facet normal 0.0 1.0 0.0
  outer loop
    vertex -70.0984348164304 73.1786515726509 1.75132999999997
    vertex -95.9056889886863 73.1786515726509 3.50265999999997
    vertex -70.0984348164304 73.1786515726509 3.50265999999997
  endloop
endfacet
facet normal 1.0 0.0 0.0
  outer loop
    vertex 17.2121135580596 73.1786515726509 1.75132999999997
    vertex 17.2121135580596 71.4273215726509 3.50265999999997
    vertex 17.2121135580596 71.4273215726509 1.75132999999997
  endloop
endfacet
facet normal 1.0 0.0 0.0
  outer loop
    vertex 17.2121135580596 71.4273215726509 3.50265999999997
    vertex 17.2121135580596 73.1786515726509 1.75132999999997
    vertex 17.2121135580596 73.1786515726509 3.50265999999997
  endloop
endfacet
facet normal -1.0 0.0 0.0
  outer loop
    vertex 34.7254135580592 73.1786515726509 3.50265999999997
    vertex 34.7254135580592 71.4273215726509 1.75132999999997
    vertex 34.7254135580592 71.4273215726509 3.50265999999997
  endloop
endfacet
facet normal -1.0 0.0 0.0
  outer loop
    vertex 34.7254135580592 71.4273215726509 1.75132999999997
    vertex 34.7254135580592 73.1786515726509 3.50265999999997
    vertex 34.7254135580592 73.1786515726509 1.75132999999997
  endloop
endfacet
facet normal 0.0 0.0 1.0
  outer loop
    vertex 52.8224902247248 71.4273215726509 3.50265999999997
    vertex 34.7254135580592 73.1786515726509 3.50265999999997
    vertex 34.7254135580592 71.4273215726509 3.50265999999997
  endloop
endfacet
facet normal 0.0 0.0 1.0
  outer loop
    vertex 34.7254135580592 73.1786515726509 3.50265999999997
    vertex 52.8224902247248 71.4273215726509 3.50265999999997
    vertex 52.8224902247248 73.1786515726509 3.50265999999997
  endloop
endfacet
facet normal 1.0 0.0 0.0
  outer loop
    vertex -70.0984348164304 73.1786515726509 1.75132999999997
    vertex -70.0984348164304 71.4273215726509 3.50265999999997
    vertex -70.0984348164304 71.4273215726509 1.75132999999997
  endloop
endfacet
facet normal 1.0 0.0 0.0
  outer loop
    vertex -70.0984348164304 71.4273215726509 3.50265999999997
    vertex -70.0984348164304 73.1786515726509 1.75132999999997
    vertex -70.0984348164304 73.1786515726509 3.50265999999997
  endloop
endfacet
facet normal -1.0 0.0 0.0
  outer loop
    vertex -52.5851348164309 73.1786515726509 3.50265999999997
    vertex -52.5851348164309 71.4273215726509 1.75132999999997
    vertex -52.5851348164309 71.4273215726509 3.50265999999997
  endloop
endfacet
facet normal -1.0 0.0 0.0
  outer loop
    vertex -52.5851348164309 71.4273215726509 1.75132999999997
    vertex -52.5851348164309 73.1786515726509 3.50265999999997
    vertex -52.5851348164309 73.1786515726509 1.75132999999997
  endloop
endfacet
facet normal 0.0 0.0 1.0
  outer loop
    vertex 17.2121135580596 71.4273215726509 3.50265999999997
    vertex -52.5851348164309 73.1786515726509 3.50265999999997
    vertex -52.5851348164309 71.4273215726509 3.50265999999997
  endloop
endfacet
facet normal 0.0 0.0 1.0
  outer loop
    vertex -52.5851348164309 73.1786515726509 3.50265999999997
    vertex 17.2121135580596 71.4273215726509 3.50265999999997
    vertex 17.2121135580596 73.1786515726509 3.50265999999997
  endloop
endfacet
facet normal 1.0 0.0 0.0
  outer loop
    vertex 46.8277060114066 78.1407532393149 -2.22954070020857e-014
    vertex 46.8277060114066 75.5137582393149 1.75132999999998
    vertex 46.8277060114066 75.5137582393149 -2.22954070020857e-014
  endloop
endfacet
facet normal 1.0 0.0 0.0
  outer loop
    vertex 46.8277060114066 75.5137582393149 1.75132999999998
    vertex 46.8277060114066 78.1407532393149 -2.22954070020857e-014
    vertex 46.8277060114066 78.1407532393149 1.75132999999998
  endloop
endfacet
facet normal 0.0 -1.0 0.0
  outer loop
    vertex 49.4547010114065 78.1407532393149 1.75132999999998
    vertex 46.8277060114066 78.1407532393149 -2.22954070020857e-014
    vertex 49.4547010114065 78.1407532393149 -2.22954070020857e-014
  endloop
endfacet
facet normal 0.0 -1.0 0.0
  outer loop
    vertex 46.8277060114066 78.1407532393149 -2.22954070020857e-014
    vertex 49.4547010114065 78.1407532393149 1.75132999999998
    vertex 46.8277060114066 78.1407532393149 1.75132999999998
  endloop
endfacet
facet normal -1.0 0.0 0.0
  outer loop
    vertex 49.4547010114065 78.1407532393149 1.75132999999998
    vertex 49.4547010114065 75.5137582393149 -2.22954070020857e-014
    vertex 49.4547010114065 75.5137582393149 1.75132999999998
  endloop
endfacet
facet normal -1.0 0.0 0.0
  outer loop
    vertex 49.4547010114065 75.5137582393149 -2.22954070020857e-014
    vertex 49.4547010114065 78.1407532393149 1.75132999999998
    vertex 49.4547010114065 78.1407532393149 -2.22954070020857e-014
  endloop
endfacet
facet normal 0.0 1.0 0.0
  outer loop
    vertex 46.8277060114066 75.5137582393149 1.75132999999998
    vertex 49.4547010114065 75.5137582393149 -2.22954070020857e-014
    vertex 46.8277060114066 75.5137582393149 -2.22954070020857e-014
  endloop
endfacet
facet normal 0.0 1.0 0.0
  outer loop
    vertex 49.4547010114065 75.5137582393149 -2.22954070020857e-014
    vertex 46.8277060114066 75.5137582393149 1.75132999999998
    vertex 49.4547010114065 75.5137582393149 1.75132999999998
  endloop
endfacet
facet normal 0.0 1.0 0.0
  outer loop
    vertex -21.4741639886378 75.5137582393149 1.75132999999998
    vertex -18.8471689886379 75.5137582393149 -2.12584113275701e-014
    vertex -21.4741639886378 75.5137582393149 -2.12584113275701e-014
  endloop
endfacet
facet normal 0.0 1.0 0.0
  outer loop
    vertex -18.8471689886379 75.5137582393149 -2.12584113275701e-014
    vertex -21.4741639886378 75.5137582393149 1.75132999999998
    vertex -18.8471689886379 75.5137582393149 1.75132999999998
  endloop
endfacet
facet normal 1.0 0.0 0.0
  outer loop
    vertex -21.4741639886378 78.1407532393149 -2.12584113275701e-014
    vertex -21.4741639886378 75.5137582393149 1.75132999999998
    vertex -21.4741639886378 75.5137582393149 -2.12584113275701e-014
  endloop
endfacet
facet normal 1.0 0.0 0.0
  outer loop
    vertex -21.4741639886378 75.5137582393149 1.75132999999998
    vertex -21.4741639886378 78.1407532393149 -2.12584113275701e-014
    vertex -21.4741639886378 78.1407532393149 1.75132999999998
  endloop
endfacet
facet normal 0.0 -1.0 0.0
  outer loop
    vertex -18.8471689886379 78.1407532393149 1.75132999999998
    vertex -21.4741639886378 78.1407532393149 -2.12584113275701e-014
    vertex -18.8471689886379 78.1407532393149 -2.12584113275701e-014
  endloop
endfacet
facet normal 0.0 -1.0 0.0
  outer loop
    vertex -21.4741639886378 78.1407532393149 -2.12584113275701e-014
    vertex -18.8471689886379 78.1407532393149 1.75132999999998
    vertex -21.4741639886378 78.1407532393149 1.75132999999998
  endloop
endfacet
facet normal -1.0 0.0 0.0
  outer loop
    vertex -18.8471689886379 78.1407532393149 1.75132999999998
    vertex -18.8471689886379 75.5137582393149 -2.12584113275701e-014
    vertex -18.8471689886379 75.5137582393149 1.75132999999998
  endloop
endfacet
facet normal -1.0 0.0 0.0
  outer loop
    vertex -18.8471689886379 75.5137582393149 -2.12584113275701e-014
    vertex -18.8471689886379 78.1407532393149 1.75132999999998
    vertex -18.8471689886379 78.1407532393149 -2.12584113275701e-014
  endloop
endfacet
facet normal 0.0 1.0 0.0
  outer loop
    vertex -89.7760339886822 75.5137582393149 1.75132999999998
    vertex -87.1490389886823 75.5137582393149 -1.99621667344256e-014
    vertex -89.7760339886822 75.5137582393149 -1.99621667344256e-014
  endloop
endfacet
facet normal 0.0 1.0 0.0
  outer loop
    vertex -87.1490389886823 75.5137582393149 -1.99621667344256e-014
    vertex -89.7760339886822 75.5137582393149 1.75132999999998
    vertex -87.1490389886823 75.5137582393149 1.75132999999998
  endloop
endfacet
facet normal 1.0 0.0 0.0
  outer loop
    vertex -89.7760339886822 78.1407532393149 -1.99621667344256e-014
    vertex -89.7760339886822 75.5137582393149 1.75132999999998
    vertex -89.7760339886822 75.5137582393149 -1.99621667344256e-014
  endloop
endfacet
facet normal 1.0 0.0 0.0
  outer loop
    vertex -89.7760339886822 75.5137582393149 1.75132999999998
    vertex -89.7760339886822 78.1407532393149 -1.99621667344256e-014
    vertex -89.7760339886822 78.1407532393149 1.75132999999998
  endloop
endfacet
facet normal 0.0 -1.0 0.0
  outer loop
    vertex -87.1490389886823 78.1407532393149 1.75132999999998
    vertex -89.7760339886822 78.1407532393149 -1.99621667344256e-014
    vertex -87.1490389886823 78.1407532393149 -1.99621667344256e-014
  endloop
endfacet
facet normal 0.0 -1.0 0.0
  outer loop
    vertex -89.7760339886822 78.1407532393149 -1.99621667344256e-014
    vertex -87.1490389886823 78.1407532393149 1.75132999999998
    vertex -89.7760339886822 78.1407532393149 1.75132999999998
  endloop
endfacet
facet normal -1.0 0.0 0.0
  outer loop
    vertex -87.1490389886823 78.1407532393149 1.75132999999998
    vertex -87.1490389886823 75.5137582393149 -1.99621667344256e-014
    vertex -87.1490389886823 75.5137582393149 1.75132999999998
  endloop
endfacet
facet normal -1.0 0.0 0.0
  outer loop
    vertex -87.1490389886823 75.5137582393149 -1.99621667344256e-014
    vertex -87.1490389886823 78.1407532393149 1.75132999999998
    vertex -87.1490389886823 78.1407532393149 -1.99621667344256e-014
  endloop
endfacet
facet normal 0.0 1.0 0.0
  outer loop
    vertex -94.1543589886862 -41.3145471773491 0.0
    vertex -20.160666488686 -41.3145471773491 1.75132999999997
    vertex -20.160666488686 -41.3145471773491 -3.31780690675473e-015
  endloop
endfacet
facet normal 0.0 1.0 0.0
  outer loop
    vertex -20.160666488686 -41.3145471773491 1.75132999999997
    vertex -94.1543589886862 -41.3145471773491 0.0
    vertex -94.1543589886862 -41.3145471773491 1.75132999999996
  endloop
endfacet
facet normal 0.0 -1.0 0.0
  outer loop
    vertex 95.5841310580587 -43.0658771773491 3.50265999999997
    vertex 93.8328010580586 -43.0658771773491 1.75132999999997
    vertex 95.5841310580587 -43.0658771773491 1.75132999999997
  endloop
endfacet
facet normal 0.0 -1.0 0.0
  outer loop
    vertex 93.8328010580586 -43.0658771773491 1.75132999999997
    vertex 95.5841310580587 -43.0658771773491 3.50265999999997
    vertex 93.8328010580586 -43.0658771773491 3.50265999999997
  endloop
endfacet
facet normal 1.0 -1.42733004044716e-016 -1.15077438989067e-017
  outer loop
    vertex 95.5841310580587 73.1786515726509 1.75132999999997
    vertex 95.5841310580587 -43.0658771773491 3.50265999999997
    vertex 95.5841310580587 -43.0658771773491 1.75132999999997
  endloop
endfacet
facet normal 1.0 -1.42733004044716e-016 -1.15077438989067e-017
  outer loop
    vertex 95.5841310580587 -43.0658771773491 3.50265999999997
    vertex 95.5841310580587 73.1786515726509 1.75132999999997
    vertex 95.5841310580587 73.1786515726509 3.50265999999997
  endloop
endfacet
facet normal 0.0 1.0 0.0
  outer loop
    vertex 70.3357902247244 73.1786515726509 3.50265999999997
    vertex 95.5841310580587 73.1786515726509 1.75132999999997
    vertex 70.3357902247244 73.1786515726509 1.75132999999997
  endloop
endfacet
facet normal 0.0 1.0 0.0
  outer loop
    vertex 95.5841310580587 73.1786515726509 1.75132999999997
    vertex 70.3357902247244 73.1786515726509 3.50265999999997
    vertex 95.5841310580587 73.1786515726509 3.50265999999997
  endloop
endfacet
facet normal -1.0 0.0 0.0
  outer loop
    vertex 70.3357902247244 73.1786515726509 3.50265999999997
    vertex 70.3357902247244 71.4273215726509 1.75132999999997
    vertex 70.3357902247244 71.4273215726509 3.50265999999997
  endloop
endfacet
facet normal -1.0 0.0 0.0
  outer loop
    vertex 70.3357902247244 71.4273215726509 1.75132999999997
    vertex 70.3357902247244 73.1786515726509 3.50265999999997
    vertex 70.3357902247244 73.1786515726509 1.75132999999997
  endloop
endfacet
facet normal 0.0 1.0 0.0
  outer loop
    vertex 36.757558511314 -41.3145471773491 -5.88309137892899e-015
    vertex 93.8328010580586 -41.3145471773491 1.75132999999997
    vertex 93.8328010580587 -41.3145471773491 -8.29596539612491e-015
  endloop
endfacet
facet normal 0.0 1.0 0.0
  outer loop
    vertex 93.8328010580586 -41.3145471773491 1.75132999999997
    vertex 36.757558511314 -41.3145471773491 -5.88309137892899e-015
    vertex 36.7575585113141 -41.3145471773491 1.75132999999997
  endloop
endfacet
facet normal 0.0 1.0 0.0
  outer loop
    vertex -20.160666488686 -28.6174046773491 -3.31780690675473e-015
    vertex 36.7575585113141 -28.6174046773491 1.75132999999997
    vertex 36.757558511314 -28.6174046773491 -5.88309137892899e-015
  endloop
endfacet
facet normal 0.0 1.0 0.0
  outer loop
    vertex 36.7575585113141 -28.6174046773491 1.75132999999997
    vertex -20.160666488686 -28.6174046773491 -3.31780690675473e-015
    vertex -20.160666488686 -28.6174046773491 1.75132999999997
  endloop
endfacet
facet normal 1.0 0.0 -4.73695157173406e-015
  outer loop
    vertex 36.757558511314 -28.6174046773491 -5.88309137892899e-015
    vertex 36.7575585113141 -41.3145471773491 1.75132999999997
    vertex 36.757558511314 -41.3145471773491 -5.88309137892899e-015
  endloop
endfacet
facet normal 1.0 0.0 -4.73695157173406e-015
  outer loop
    vertex 36.7575585113141 -41.3145471773491 1.75132999999997
    vertex 36.757558511314 -28.6174046773491 -5.88309137892899e-015
    vertex 36.7575585113141 -28.6174046773491 1.75132999999997
  endloop
endfacet
facet normal -1.0 0.0 0.0
  outer loop
    vertex -20.160666488686 -28.6174046773491 1.75132999999997
    vertex -20.160666488686 -41.3145471773491 -3.31780690675473e-015
    vertex -20.160666488686 -41.3145471773491 1.75132999999997
  endloop
endfacet
facet normal -1.0 0.0 0.0
  outer loop
    vertex -20.160666488686 -41.3145471773491 -3.31780690675473e-015
    vertex -20.160666488686 -28.6174046773491 1.75132999999997
    vertex -20.160666488686 -28.6174046773491 -3.31780690675473e-015
  endloop
endfacet
endsolid Untitled-5f7a61ae
