solid Untitled-5f9b4e95
facet normal 1.26882631385732e-015 1.0 5.6392280615881e-016
  outer loop
    vertex -4.08643666666667 -5.35793631684101e-014 21.5997366666667
    vertex 4.08643666666666 -5.35793631684101e-014 3.21077166666667
    vertex -4.08643666666667 -2.8199664825479e-014 3.21077166666667
  endloop
endfacet
facet normal 1.26882631385732e-015 1.0 5.6392280615881e-016
  outer loop
    vertex 4.08643666666666 -5.35793631684101e-014 3.21077166666667
    vertex -4.08643666666667 -5.35793631684101e-014 21.5997366666667
    vertex 4.08643666666666 -5.35793631684101e-014 21.5997366666667
  endloop
endfacet
facet normal 2.28388736494318e-015 1.0 3.55271367880052e-015
  outer loop
    vertex -4.08643666666666 -1.69197988952874e-014 31.52394
    vertex 4.08643666666666 -1.69197988952874e-014 26.26995
    vertex -4.08643666666666 1.69197988952874e-014 26.26995
  endloop
endfacet
facet normal 2.28388736494318e-015 1.0 3.55271367880052e-015
  outer loop
    vertex 4.08643666666666 -1.69197988952874e-014 26.26995
    vertex -4.08643666666666 -1.69197988952874e-014 31.52394
    vertex 4.08643666666666 -1.69197988952874e-014 31.52394
  endloop
endfacet
facet normal -1.0 2.28388736494318e-015 1.62279957645466e-029
  outer loop
    vertex -4.08643666666666 -1.69197988952874e-014 31.52394
    vertex -4.08643666666666 -1.16755333333339 26.26995
    vertex -4.08643666666666 -1.16755333333342 31.52394
  endloop
endfacet
facet normal -1.0 2.28388736494318e-015 1.62279957645466e-029
  outer loop
    vertex -4.08643666666666 -1.16755333333339 26.26995
    vertex -4.08643666666666 -1.69197988952874e-014 31.52394
    vertex -4.08643666666666 1.69197988952874e-014 26.26995
  endloop
endfacet
facet normal 1.62279957645466e-029 3.55271367880052e-015 -1.0
  outer loop
    vertex 4.08643666666666 -1.69197988952874e-014 26.26995
    vertex -4.08643666666666 -1.16755333333339 26.26995
    vertex -4.08643666666666 1.69197988952874e-014 26.26995
  endloop
endfacet
facet normal 1.62279957645466e-029 3.55271367880052e-015 -1.0
  outer loop
    vertex -4.08643666666666 -1.16755333333339 26.26995
    vertex 4.08643666666666 -1.69197988952874e-014 26.26995
    vertex 4.08643666666666 -1.16755333333342 26.26995
  endloop
endfacet
facet normal 1.0 -2.28388736494318e-015 0.0
  outer loop
    vertex 4.08643666666666 -1.69197988952874e-014 26.26995
    vertex 4.08643666666666 -1.16755333333342 31.52394
    vertex 4.08643666666666 -1.16755333333342 26.26995
  endloop
endfacet
facet normal 1.0 -2.28388736494318e-015 0.0
  outer loop
    vertex 4.08643666666666 -1.16755333333342 31.52394
    vertex 4.08643666666666 -1.69197988952874e-014 26.26995
    vertex 4.08643666666666 -1.69197988952874e-014 31.52394
  endloop
endfacet
facet normal -2.28388736494318e-015 -1.0 -3.55271367880052e-015
  outer loop
    vertex 4.08643666666666 -1.16755333333342 31.52394
    vertex -4.08643666666666 -1.16755333333339 26.26995
    vertex 4.08643666666666 -1.16755333333342 26.26995
  endloop
endfacet
facet normal -2.28388736494318e-015 -1.0 -3.55271367880052e-015
  outer loop
    vertex -4.08643666666666 -1.16755333333339 26.26995
    vertex 4.08643666666666 -1.16755333333342 31.52394
    vertex -4.08643666666666 -1.16755333333342 31.52394
  endloop
endfacet
facet normal 0.0 -3.55271367880052e-015 1.0
  outer loop
    vertex 4.08643666666666 -1.16755333333342 31.52394
    vertex -4.08643666666666 -1.69197988952874e-014 31.52394
    vertex -4.08643666666666 -1.16755333333342 31.52394
  endloop
endfacet
facet normal 0.0 -3.55271367880052e-015 1.0
  outer loop
    vertex -4.08643666666666 -1.69197988952874e-014 31.52394
    vertex 4.08643666666666 -1.16755333333342 31.52394
    vertex 4.08643666666666 -1.69197988952874e-014 31.52394
  endloop
endfacet
facet normal 1.43104019087712e-030 5.6392280615881e-016 -1.0
  outer loop
    vertex 4.08643666666666 -5.35793631684101e-014 3.21077166666667
    vertex -4.08643666666667 -1.16755333333336 3.21077166666666
    vertex -4.08643666666667 -2.8199664825479e-014 3.21077166666667
  endloop
endfacet
facet normal 1.43104019087712e-030 5.6392280615881e-016 -1.0
  outer loop
    vertex -4.08643666666667 -1.16755333333336 3.21077166666666
    vertex 4.08643666666666 -5.35793631684101e-014 3.21077166666667
    vertex 4.08643666666666 -1.16755333333339 3.21077166666666
  endloop
endfacet
facet normal 1.0 -1.26882631385732e-015 0.0
  outer loop
    vertex 4.08643666666666 -5.35793631684101e-014 3.21077166666667
    vertex 4.08643666666666 -1.16755333333339 21.5997366666667
    vertex 4.08643666666666 -1.16755333333339 3.21077166666666
  endloop
endfacet
facet normal 1.0 -1.26882631385732e-015 0.0
  outer loop
    vertex 4.08643666666666 -1.16755333333339 21.5997366666667
    vertex 4.08643666666666 -5.35793631684101e-014 3.21077166666667
    vertex 4.08643666666666 -5.35793631684101e-014 21.5997366666667
  endloop
endfacet
facet normal -1.26882631385732e-015 -1.0 -5.6392280615881e-016
  outer loop
    vertex 4.08643666666666 -1.16755333333339 21.5997366666667
    vertex -4.08643666666667 -1.16755333333336 3.21077166666666
    vertex 4.08643666666666 -1.16755333333339 3.21077166666666
  endloop
endfacet
facet normal -1.26882631385732e-015 -1.0 -5.6392280615881e-016
  outer loop
    vertex -4.08643666666667 -1.16755333333336 3.21077166666666
    vertex 4.08643666666666 -1.16755333333339 21.5997366666667
    vertex -4.08643666666667 -1.16755333333339 21.5997366666667
  endloop
endfacet
facet normal -1.0 1.26882631385732e-015 1.43104019087712e-030
  outer loop
    vertex -4.08643666666667 -5.35793631684101e-014 21.5997366666667
    vertex -4.08643666666667 -1.16755333333336 3.21077166666666
    vertex -4.08643666666667 -1.16755333333339 21.5997366666667
  endloop
endfacet
facet normal -1.0 1.26882631385732e-015 1.43104019087712e-030
  outer loop
    vertex -4.08643666666667 -1.16755333333336 3.21077166666666
    vertex -4.08643666666667 -5.35793631684101e-014 21.5997366666667
    vertex -4.08643666666667 -2.8199664825479e-014 3.21077166666667
  endloop
endfacet
facet normal 0.0 -5.6392280615881e-016 1.0
  outer loop
    vertex 4.08643666666666 -1.16755333333339 21.5997366666667
    vertex -4.08643666666667 -5.35793631684101e-014 21.5997366666667
    vertex -4.08643666666667 -1.16755333333339 21.5997366666667
  endloop
endfacet
facet normal 0.0 -5.6392280615881e-016 1.0
  outer loop
    vertex -4.08643666666667 -5.35793631684101e-014 21.5997366666667
    vertex 4.08643666666666 -1.16755333333339 21.5997366666667
    vertex 4.08643666666666 -5.35793631684101e-014 21.5997366666667
  endloop
endfacet
facet normal -5.68434188608079e-015 -1.0 -1.306745261168e-015
  outer loop
    vertex -22.9132341666667 -11.6755333333335 32.9833816666666
    vertex -28.7510008333333 -11.6755333333334 7.58909666666667
    vertex -22.9132341666667 -11.6755333333335 7.58909666666667
  endloop
endfacet
facet normal -5.68434188608079e-015 -1.0 -1.306745261168e-015
  outer loop
    vertex -28.7510008333333 -11.6755333333334 7.58909666666667
    vertex -22.9132341666667 -11.6755333333335 32.9833816666666
    vertex -28.7510008333333 -11.6755333333335 32.9833816666666
  endloop
endfacet
facet normal -7.28348005556747e-016 1.56857852910159e-016 1.0
  outer loop
    vertex -12.5672605753665 -12.482734502244 32.9833816666666
    vertex -10.5242698941863 -2.99638644633339 32.9833816666666
    vertex -15.1037260917263 -11.038358305428 32.9833816666666
  endloop
endfacet
facet normal -7.28348005556747e-016 1.56857852910159e-016 1.0
  outer loop
    vertex -10.5242698941863 -2.99638644633339 32.9833816666666
    vertex -12.5672605753665 -12.482734502244 32.9833816666666
    vertex -7.98780437782649 -4.44076264314938 32.9833816666666
  endloop
endfacet
facet normal -0.868984891377346 0.494838618700988 -7.10542735760102e-016
  outer loop
    vertex -10.5242698941863 -2.99638644633339 32.9833816666666
    vertex -15.1037260917262 -11.038358305428 7.58909666666665
    vertex -15.1037260917263 -11.038358305428 32.9833816666666
  endloop
endfacet
facet normal -0.868984891377346 0.494838618700988 -7.10542735760102e-016
  outer loop
    vertex -15.1037260917262 -11.038358305428 7.58909666666665
    vertex -10.5242698941863 -2.99638644633339 32.9833816666666
    vertex -10.5242698941863 -2.99638644633339 7.58909666666666
  endloop
endfacet
facet normal 1.0 -5.68434188608079e-015 0.0
  outer loop
    vertex -22.9132341666666 -9.34042666666685 7.58909666666667
    vertex -22.9132341666667 -11.6755333333335 32.9833816666666
    vertex -22.9132341666667 -11.6755333333335 7.58909666666667
  endloop
endfacet
facet normal 1.0 -5.68434188608079e-015 0.0
  outer loop
    vertex -22.9132341666667 -11.6755333333335 32.9833816666666
    vertex -22.9132341666666 -9.34042666666685 7.58909666666667
    vertex -22.9132341666666 -9.34042666666685 32.9833816666666
  endloop
endfacet
facet normal 0.0 -1.306745261168e-015 1.0
  outer loop
    vertex -22.9132341666667 -11.6755333333335 32.9833816666666
    vertex -28.7510008333333 -9.34042666666685 32.9833816666666
    vertex -28.7510008333333 -11.6755333333335 32.9833816666666
  endloop
endfacet
facet normal 0.0 -1.306745261168e-015 1.0
  outer loop
    vertex -28.7510008333333 -9.34042666666685 32.9833816666666
    vertex -22.9132341666667 -11.6755333333335 32.9833816666666
    vertex -22.9132341666666 -9.34042666666685 32.9833816666666
  endloop
endfacet
facet normal 7.28348005556747e-016 -1.56857852910159e-016 -1.0
  outer loop
    vertex -10.5242698941863 -2.99638644633339 7.58909666666666
    vertex -12.5672605753664 -12.482734502244 7.58909666666666
    vertex -15.1037260917262 -11.038358305428 7.58909666666665
  endloop
endfacet
facet normal 7.28348005556747e-016 -1.56857852910159e-016 -1.0
  outer loop
    vertex -12.5672605753664 -12.482734502244 7.58909666666666
    vertex -10.5242698941863 -2.99638644633339 7.58909666666666
    vertex -7.98780437782648 -4.44076264314938 7.58909666666666
  endloop
endfacet
facet normal 5.68434188608079e-015 1.0 1.306745261168e-015
  outer loop
    vertex -28.7510008333333 -9.34042666666685 32.9833816666666
    vertex -22.9132341666666 -9.34042666666685 7.58909666666667
    vertex -28.7510008333333 -9.34042666666678 7.58909666666667
  endloop
endfacet
facet normal 5.68434188608079e-015 1.0 1.306745261168e-015
  outer loop
    vertex -22.9132341666666 -9.34042666666685 7.58909666666667
    vertex -28.7510008333333 -9.34042666666685 32.9833816666666
    vertex -22.9132341666666 -9.34042666666685 32.9833816666666
  endloop
endfacet
facet normal 1.48559736449897e-029 1.306745261168e-015 -1.0
  outer loop
    vertex -28.7510008333333 -9.34042666666678 7.58909666666667
    vertex -22.9132341666667 -11.6755333333335 7.58909666666667
    vertex -28.7510008333333 -11.6755333333334 7.58909666666667
  endloop
endfacet
facet normal 1.48559736449897e-029 1.306745261168e-015 -1.0
  outer loop
    vertex -22.9132341666667 -11.6755333333335 7.58909666666667
    vertex -28.7510008333333 -9.34042666666678 7.58909666666667
    vertex -22.9132341666666 -9.34042666666685 7.58909666666667
  endloop
endfacet
facet normal 0.0 9.80058945876001e-016 -1.0
  outer loop
    vertex -16.0351221402825 -9.34042666666681 7.58909666666665
    vertex -21.8728888069492 -11.6755333333335 7.58909666666665
    vertex -21.8728888069492 -9.34042666666681 7.58909666666665
  endloop
endfacet
facet normal 0.0 9.80058945876001e-016 -1.0
  outer loop
    vertex -21.8728888069492 -11.6755333333335 7.58909666666665
    vertex -16.0351221402825 -9.34042666666681 7.58909666666665
    vertex -16.0351221402825 -11.6755333333335 7.58909666666665
  endloop
endfacet
facet normal -1.0 -4.26325641456057e-015 -8.35648517530666e-030
  outer loop
    vertex -21.8728888069492 -9.34042666666685 32.9833816666666
    vertex -21.8728888069492 -11.6755333333335 7.58909666666665
    vertex -21.8728888069492 -11.6755333333335 32.9833816666666
  endloop
endfacet
facet normal -1.0 -4.26325641456057e-015 -8.35648517530666e-030
  outer loop
    vertex -21.8728888069492 -11.6755333333335 7.58909666666665
    vertex -21.8728888069492 -9.34042666666685 32.9833816666666
    vertex -21.8728888069492 -9.34042666666681 7.58909666666665
  endloop
endfacet
facet normal 1.0 4.26325641456057e-015 0.0
  outer loop
    vertex -16.0351221402825 -9.34042666666681 7.58909666666665
    vertex -16.0351221402825 -11.6755333333335 32.9833816666666
    vertex -16.0351221402825 -11.6755333333335 7.58909666666665
  endloop
endfacet
facet normal 1.0 4.26325641456057e-015 0.0
  outer loop
    vertex -16.0351221402825 -11.6755333333335 32.9833816666666
    vertex -16.0351221402825 -9.34042666666681 7.58909666666665
    vertex -16.0351221402825 -9.34042666666681 32.9833816666666
  endloop
endfacet
facet normal 0.494838618700985 0.868984891377348 2.241076167305e-016
  outer loop
    vertex -10.5242698941863 -2.99638644633339 32.9833816666666
    vertex -7.98780437782648 -4.44076264314938 7.58909666666666
    vertex -10.5242698941863 -2.99638644633339 7.58909666666666
  endloop
endfacet
facet normal 0.494838618700985 0.868984891377348 2.241076167305e-016
  outer loop
    vertex -7.98780437782648 -4.44076264314938 7.58909666666666
    vertex -10.5242698941863 -2.99638644633339 32.9833816666666
    vertex -7.98780437782649 -4.44076264314938 32.9833816666666
  endloop
endfacet
facet normal -0.494838618700986 -0.868984891377347 -2.24107616730501e-016
  outer loop
    vertex -12.5672605753664 -12.482734502244 7.58909666666666
    vertex -15.1037260917263 -11.038358305428 32.9833816666666
    vertex -15.1037260917262 -11.038358305428 7.58909666666665
  endloop
endfacet
facet normal -0.494838618700986 -0.868984891377347 -2.24107616730501e-016
  outer loop
    vertex -15.1037260917263 -11.038358305428 32.9833816666666
    vertex -12.5672605753664 -12.482734502244 7.58909666666666
    vertex -12.5672605753665 -12.482734502244 32.9833816666666
  endloop
endfacet
facet normal 8.35648517530666e-030 -9.80058945876001e-016 1.0
  outer loop
    vertex -21.8728888069492 -11.6755333333335 32.9833816666666
    vertex -16.0351221402825 -9.34042666666681 32.9833816666666
    vertex -21.8728888069492 -9.34042666666685 32.9833816666666
  endloop
endfacet
facet normal 8.35648517530666e-030 -9.80058945876001e-016 1.0
  outer loop
    vertex -16.0351221402825 -9.34042666666681 32.9833816666666
    vertex -21.8728888069492 -11.6755333333335 32.9833816666666
    vertex -16.0351221402825 -11.6755333333335 32.9833816666666
  endloop
endfacet
facet normal -4.26325641456057e-015 1.0 9.80058945876001e-016
  outer loop
    vertex -21.8728888069492 -9.34042666666685 32.9833816666666
    vertex -16.0351221402825 -9.34042666666681 7.58909666666665
    vertex -21.8728888069492 -9.34042666666681 7.58909666666665
  endloop
endfacet
facet normal -4.26325641456057e-015 1.0 9.80058945876001e-016
  outer loop
    vertex -16.0351221402825 -9.34042666666681 7.58909666666665
    vertex -21.8728888069492 -9.34042666666685 32.9833816666666
    vertex -16.0351221402825 -9.34042666666681 32.9833816666666
  endloop
endfacet
facet normal 4.26325641456057e-015 -1.0 -9.80058945876001e-016
  outer loop
    vertex -16.0351221402825 -11.6755333333335 32.9833816666666
    vertex -21.8728888069492 -11.6755333333335 7.58909666666665
    vertex -16.0351221402825 -11.6755333333335 7.58909666666665
  endloop
endfacet
facet normal 4.26325641456057e-015 -1.0 -9.80058945876001e-016
  outer loop
    vertex -21.8728888069492 -11.6755333333335 7.58909666666665
    vertex -16.0351221402825 -11.6755333333335 32.9833816666666
    vertex -21.8728888069492 -11.6755333333335 32.9833816666666
  endloop
endfacet
facet normal -1.0 5.68434188608079e-015 1.48559736449897e-029
  outer loop
    vertex -28.7510008333333 -9.34042666666685 32.9833816666666
    vertex -28.7510008333333 -11.6755333333334 7.58909666666667
    vertex -28.7510008333333 -11.6755333333335 32.9833816666666
  endloop
endfacet
facet normal -1.0 5.68434188608079e-015 1.48559736449897e-029
  outer loop
    vertex -28.7510008333333 -11.6755333333334 7.58909666666667
    vertex -28.7510008333333 -9.34042666666685 32.9833816666666
    vertex -28.7510008333333 -9.34042666666678 7.58909666666667
  endloop
endfacet
facet normal 0.868984891377346 -0.494838618700988 7.10542735760103e-016
  outer loop
    vertex -7.98780437782648 -4.44076264314938 7.58909666666666
    vertex -12.5672605753665 -12.482734502244 32.9833816666666
    vertex -12.5672605753664 -12.482734502244 7.58909666666666
  endloop
endfacet
facet normal 0.868984891377346 -0.494838618700988 7.10542735760103e-016
  outer loop
    vertex -12.5672605753665 -12.482734502244 32.9833816666666
    vertex -7.98780437782648 -4.44076264314938 7.58909666666666
    vertex -7.98780437782649 -4.44076264314938 32.9833816666666
  endloop
endfacet
facet normal -1.0 4.26325641456057e-015 0.0
  outer loop
    vertex 16.0351221402826 -9.34042666666674 32.9833816666666
    vertex 16.0351221402826 -11.6755333333334 7.58909666666663
    vertex 16.0351221402826 -11.6755333333334 32.9833816666666
  endloop
endfacet
facet normal -1.0 4.26325641456057e-015 0.0
  outer loop
    vertex 16.0351221402826 -11.6755333333334 7.58909666666663
    vertex 16.0351221402826 -9.34042666666674 32.9833816666666
    vertex 16.0351221402826 -9.34042666666674 7.58909666666664
  endloop
endfacet
facet normal 0.868984891377346 0.494838618700988 -7.10542735760102e-016
  outer loop
    vertex 10.5242698941863 -2.99638644633333 7.58909666666664
    vertex 15.1037260917263 -11.0383583054279 32.9833816666666
    vertex 15.1037260917263 -11.0383583054279 7.58909666666664
  endloop
endfacet
facet normal 0.868984891377346 0.494838618700988 -7.10542735760102e-016
  outer loop
    vertex 15.1037260917263 -11.0383583054279 32.9833816666666
    vertex 10.5242698941863 -2.99638644633333 7.58909666666664
    vertex 10.5242698941863 -2.99638644633333 32.9833816666666
  endloop
endfacet
facet normal 0.494838618700986 -0.868984891377347 -2.24107616730501e-016
  outer loop
    vertex 15.1037260917263 -11.0383583054279 32.9833816666666
    vertex 12.5672605753665 -12.4827345022439 7.58909666666664
    vertex 15.1037260917263 -11.0383583054279 7.58909666666664
  endloop
endfacet
facet normal 0.494838618700986 -0.868984891377347 -2.24107616730501e-016
  outer loop
    vertex 12.5672605753665 -12.4827345022439 7.58909666666664
    vertex 15.1037260917263 -11.0383583054279 32.9833816666666
    vertex 12.5672605753665 -12.4827345022439 32.9833816666666
  endloop
endfacet
facet normal 4.26325641456057e-015 1.0 9.80058945876001e-016
  outer loop
    vertex 16.0351221402826 -9.34042666666674 32.9833816666666
    vertex 21.8728888069493 -9.34042666666674 7.58909666666664
    vertex 16.0351221402826 -9.34042666666674 7.58909666666664
  endloop
endfacet
facet normal 4.26325641456057e-015 1.0 9.80058945876001e-016
  outer loop
    vertex 21.8728888069493 -9.34042666666674 7.58909666666664
    vertex 16.0351221402826 -9.34042666666674 32.9833816666666
    vertex 21.8728888069493 -9.34042666666678 32.9833816666666
  endloop
endfacet
facet normal -1.48559736449897e-029 1.306745261168e-015 -1.0
  outer loop
    vertex 28.7510008333334 -9.34042666666672 7.58909666666665
    vertex 22.9132341666667 -11.6755333333334 7.58909666666665
    vertex 22.9132341666667 -9.34042666666678 7.58909666666665
  endloop
endfacet
facet normal -1.48559736449897e-029 1.306745261168e-015 -1.0
  outer loop
    vertex 22.9132341666667 -11.6755333333334 7.58909666666665
    vertex 28.7510008333334 -9.34042666666672 7.58909666666665
    vertex 28.7510008333334 -11.6755333333334 7.58909666666665
  endloop
endfacet
facet normal -0.868984891377346 -0.494838618700988 7.10542735760103e-016
  outer loop
    vertex 7.98780437782654 -4.44076264314931 32.9833816666666
    vertex 12.5672605753665 -12.4827345022439 7.58909666666664
    vertex 12.5672605753665 -12.4827345022439 32.9833816666666
  endloop
endfacet
facet normal -0.868984891377346 -0.494838618700988 7.10542735760103e-016
  outer loop
    vertex 12.5672605753665 -12.4827345022439 7.58909666666664
    vertex 7.98780437782654 -4.44076264314931 32.9833816666666
    vertex 7.98780437782652 -4.44076264314931 7.58909666666664
  endloop
endfacet
facet normal 0.0 9.80058945876001e-016 -1.0
  outer loop
    vertex 16.0351221402826 -9.34042666666674 7.58909666666664
    vertex 21.8728888069493 -11.6755333333334 7.58909666666663
    vertex 16.0351221402826 -11.6755333333334 7.58909666666663
  endloop
endfacet
facet normal 0.0 9.80058945876001e-016 -1.0
  outer loop
    vertex 21.8728888069493 -11.6755333333334 7.58909666666663
    vertex 16.0351221402826 -9.34042666666674 7.58909666666664
    vertex 21.8728888069493 -9.34042666666674 7.58909666666664
  endloop
endfacet
facet normal -4.26325641456057e-015 -1.0 -9.80058945876001e-016
  outer loop
    vertex 21.8728888069493 -11.6755333333334 32.9833816666666
    vertex 16.0351221402826 -11.6755333333334 7.58909666666663
    vertex 21.8728888069493 -11.6755333333334 7.58909666666663
  endloop
endfacet
facet normal -4.26325641456057e-015 -1.0 -9.80058945876001e-016
  outer loop
    vertex 16.0351221402826 -11.6755333333334 7.58909666666663
    vertex 21.8728888069493 -11.6755333333334 32.9833816666666
    vertex 16.0351221402826 -11.6755333333334 32.9833816666666
  endloop
endfacet
facet normal 1.0 -4.26325641456057e-015 -8.35648517530666e-030
  outer loop
    vertex 21.8728888069493 -11.6755333333334 7.58909666666663
    vertex 21.8728888069493 -9.34042666666678 32.9833816666666
    vertex 21.8728888069493 -11.6755333333334 32.9833816666666
  endloop
endfacet
facet normal 1.0 -4.26325641456057e-015 -8.35648517530666e-030
  outer loop
    vertex 21.8728888069493 -9.34042666666678 32.9833816666666
    vertex 21.8728888069493 -11.6755333333334 7.58909666666663
    vertex 21.8728888069493 -9.34042666666674 7.58909666666664
  endloop
endfacet
facet normal -7.28348005556747e-016 -1.56857852910159e-016 -1.0
  outer loop
    vertex 10.5242698941863 -2.99638644633333 7.58909666666664
    vertex 12.5672605753665 -12.4827345022439 7.58909666666664
    vertex 7.98780437782652 -4.44076264314931 7.58909666666664
  endloop
endfacet
facet normal -7.28348005556747e-016 -1.56857852910159e-016 -1.0
  outer loop
    vertex 12.5672605753665 -12.4827345022439 7.58909666666664
    vertex 10.5242698941863 -2.99638644633333 7.58909666666664
    vertex 15.1037260917263 -11.0383583054279 7.58909666666664
  endloop
endfacet
facet normal -1.0 -5.68434188608079e-015 0.0
  outer loop
    vertex 22.9132341666667 -9.34042666666678 32.9833816666666
    vertex 22.9132341666667 -11.6755333333334 7.58909666666665
    vertex 22.9132341666667 -11.6755333333334 32.9833816666666
  endloop
endfacet
facet normal -1.0 -5.68434188608079e-015 0.0
  outer loop
    vertex 22.9132341666667 -11.6755333333334 7.58909666666665
    vertex 22.9132341666667 -9.34042666666678 32.9833816666666
    vertex 22.9132341666667 -9.34042666666678 7.58909666666665
  endloop
endfacet
facet normal -0.494838618700985 0.868984891377348 2.241076167305e-016
  outer loop
    vertex 7.98780437782654 -4.44076264314931 32.9833816666666
    vertex 10.5242698941863 -2.99638644633333 7.58909666666664
    vertex 7.98780437782652 -4.44076264314931 7.58909666666664
  endloop
endfacet
facet normal -0.494838618700985 0.868984891377348 2.241076167305e-016
  outer loop
    vertex 10.5242698941863 -2.99638644633333 7.58909666666664
    vertex 7.98780437782654 -4.44076264314931 32.9833816666666
    vertex 10.5242698941863 -2.99638644633333 32.9833816666666
  endloop
endfacet
facet normal 1.0 5.68434188608079e-015 1.48559736449897e-029
  outer loop
    vertex 28.7510008333334 -11.6755333333334 7.58909666666665
    vertex 28.7510008333334 -9.34042666666678 32.9833816666666
    vertex 28.7510008333334 -11.6755333333334 32.9833816666666
  endloop
endfacet
facet normal 1.0 5.68434188608079e-015 1.48559736449897e-029
  outer loop
    vertex 28.7510008333334 -9.34042666666678 32.9833816666666
    vertex 28.7510008333334 -11.6755333333334 7.58909666666665
    vertex 28.7510008333334 -9.34042666666672 7.58909666666665
  endloop
endfacet
facet normal 0.0 -1.306745261168e-015 1.0
  outer loop
    vertex 22.9132341666667 -11.6755333333334 32.9833816666666
    vertex 28.7510008333334 -9.34042666666678 32.9833816666666
    vertex 22.9132341666667 -9.34042666666678 32.9833816666666
  endloop
endfacet
facet normal 0.0 -1.306745261168e-015 1.0
  outer loop
    vertex 28.7510008333334 -9.34042666666678 32.9833816666666
    vertex 22.9132341666667 -11.6755333333334 32.9833816666666
    vertex 28.7510008333334 -11.6755333333334 32.9833816666666
  endloop
endfacet
facet normal 5.68434188608079e-015 -1.0 -1.306745261168e-015
  outer loop
    vertex 28.7510008333334 -11.6755333333334 32.9833816666666
    vertex 22.9132341666667 -11.6755333333334 7.58909666666665
    vertex 28.7510008333334 -11.6755333333334 7.58909666666665
  endloop
endfacet
facet normal 5.68434188608079e-015 -1.0 -1.306745261168e-015
  outer loop
    vertex 22.9132341666667 -11.6755333333334 7.58909666666665
    vertex 28.7510008333334 -11.6755333333334 32.9833816666666
    vertex 22.9132341666667 -11.6755333333334 32.9833816666666
  endloop
endfacet
facet normal -5.68434188608079e-015 1.0 1.306745261168e-015
  outer loop
    vertex 22.9132341666667 -9.34042666666678 32.9833816666666
    vertex 28.7510008333334 -9.34042666666672 7.58909666666665
    vertex 22.9132341666667 -9.34042666666678 7.58909666666665
  endloop
endfacet
facet normal -5.68434188608079e-015 1.0 1.306745261168e-015
  outer loop
    vertex 28.7510008333334 -9.34042666666672 7.58909666666665
    vertex 22.9132341666667 -9.34042666666678 32.9833816666666
    vertex 28.7510008333334 -9.34042666666678 32.9833816666666
  endloop
endfacet
facet normal -8.35648517530666e-030 -9.80058945876001e-016 1.0
  outer loop
    vertex 21.8728888069493 -11.6755333333334 32.9833816666666
    vertex 16.0351221402826 -9.34042666666674 32.9833816666666
    vertex 16.0351221402826 -11.6755333333334 32.9833816666666
  endloop
endfacet
facet normal -8.35648517530666e-030 -9.80058945876001e-016 1.0
  outer loop
    vertex 16.0351221402826 -9.34042666666674 32.9833816666666
    vertex 21.8728888069493 -11.6755333333334 32.9833816666666
    vertex 21.8728888069493 -9.34042666666678 32.9833816666666
  endloop
endfacet
facet normal 7.28348005556747e-016 1.56857852910159e-016 1.0
  outer loop
    vertex 12.5672605753665 -12.4827345022439 32.9833816666666
    vertex 10.5242698941863 -2.99638644633333 32.9833816666666
    vertex 7.98780437782654 -4.44076264314931 32.9833816666666
  endloop
endfacet
facet normal 7.28348005556747e-016 1.56857852910159e-016 1.0
  outer loop
    vertex 10.5242698941863 -2.99638644633333 32.9833816666666
    vertex 12.5672605753665 -12.4827345022439 32.9833816666666
    vertex 15.1037260917263 -11.0383583054279 32.9833816666666
  endloop
endfacet
endsolid Untitled-5f9b4e95
