solid Untitled-5f908dd0
facet normal -7.68559722789868e-016 -1.79990702477147e-016 -1.0
  outer loop
    vertex 20.8357583689529 6.42154333333399 1.24959764757904e-013
    vertex 28.4248550356196 -6.42154333333375 1.1879108807733e-013
    vertex 20.835758368953 -6.42154333333377 1.3271467258491e-013
  endloop
endfacet
facet normal -7.68559722789868e-016 -1.79990702477147e-016 -1.0
  outer loop
    vertex 28.4248550356196 -6.42154333333375 1.1879108807733e-013
    vertex 20.8357583689529 6.42154333333399 1.24959764757904e-013
    vertex 28.4248550356196 6.42154333333401 1.27603483335292e-013
  endloop
endfacet
facet normal -2.11803672018099e-016 -2.49360526876561e-016 -1.0
  outer loop
    vertex -28.2014816310471 6.42154333333387 -7.75490782700672e-015
    vertex -20.6123849643804 -6.42154333333388 -5.63993296509579e-015
    vertex -28.201481631047 -6.4215433333339 0.0
  endloop
endfacet
facet normal -2.11803672018099e-016 -2.49360526876561e-016 -1.0
  outer loop
    vertex -20.6123849643804 -6.42154333333388 -5.63993296509579e-015
    vertex -28.2014816310471 6.42154333333387 -7.75490782700672e-015
    vertex -20.6123849643804 6.42154333333388 -5.11118924961806e-015
  endloop
endfacet
facet normal 6.88011537635598e-016 -5.45480419404669e-016 -1.0
  outer loop
    vertex -8.93685163104704 6.42154333333391 9.07676711570105e-014
    vertex 9.16022503561964 -6.4215433333338 1.11388676060642e-013
    vertex -8.93685163104701 -6.42154333333385 9.85225789840172e-014
  endloop
endfacet
facet normal 6.88011537635598e-016 -5.45480419404669e-016 -1.0
  outer loop
    vertex 9.16022503561964 -6.4215433333338 1.11388676060642e-013
    vertex -8.93685163104704 6.42154333333391 9.07676711570105e-014
    vertex 9.1602250356196 6.42154333333396 1.03633768233635e-013
  endloop
endfacet
facet normal -2.53765262771465e-015 1.0 -3.01691039300339e-016
  outer loop
    vertex 9.16022503561959 6.42154333333396 0.875665000000062
    vertex -8.93685163104704 6.42154333333391 9.07676711570105e-014
    vertex -8.93685163104705 6.42154333333391 0.875665000000049
  endloop
endfacet
facet normal -2.53765262771465e-015 1.0 -3.01691039300339e-016
  outer loop
    vertex -8.93685163104704 6.42154333333391 9.07676711570105e-014
    vertex 9.16022503561959 6.42154333333396 0.875665000000062
    vertex 9.1602250356196 6.42154333333396 1.03633768233635e-013
  endloop
endfacet
facet normal 2.53765262771465e-015 -1.0 3.01691039300339e-016
  outer loop
    vertex -8.93685163104701 -6.42154333333385 9.85225789840172e-014
    vertex 9.16022503561963 -6.4215433333338 0.87566500000007
    vertex -8.93685163104702 -6.42154333333385 0.875665000000057
  endloop
endfacet
facet normal 2.53765262771465e-015 -1.0 3.01691039300339e-016
  outer loop
    vertex 9.16022503561963 -6.4215433333338 0.87566500000007
    vertex -8.93685163104701 -6.42154333333385 9.85225789840172e-014
    vertex 9.16022503561964 -6.4215433333338 1.11388676060642e-013
  endloop
endfacet
facet normal -1.0 -2.53765262771465e-015 1.60889869175786e-030
  outer loop
    vertex -8.93685163104704 6.42154333333391 9.07676711570105e-014
    vertex -8.93685163104702 -6.42154333333385 0.875665000000057
    vertex -8.93685163104705 6.42154333333391 0.875665000000049
  endloop
endfacet
facet normal -1.0 -2.53765262771465e-015 1.60889869175786e-030
  outer loop
    vertex -8.93685163104702 -6.42154333333385 0.875665000000057
    vertex -8.93685163104704 6.42154333333391 9.07676711570105e-014
    vertex -8.93685163104701 -6.42154333333385 9.85225789840172e-014
  endloop
endfacet
facet normal 1.0 2.53765262771465e-015 -1.60889869175786e-030
  outer loop
    vertex 9.16022503561964 -6.4215433333338 1.11388676060642e-013
    vertex 9.16022503561959 6.42154333333396 0.875665000000062
    vertex 9.16022503561963 -6.4215433333338 0.87566500000007
  endloop
endfacet
facet normal 1.0 2.53765262771465e-015 -1.60889869175786e-030
  outer loop
    vertex 9.16022503561959 6.42154333333396 0.875665000000062
    vertex 9.16022503561964 -6.4215433333338 1.11388676060642e-013
    vertex 9.1602250356196 6.42154333333396 1.03633768233635e-013
  endloop
endfacet
facet normal 1.95204048285752e-016 2.87648692743819e-016 1.0
  outer loop
    vertex 28.4248550356196 6.42154333333401 0.875665000000111
    vertex 20.835758368953 -6.42154333333377 0.875665000000116
    vertex 28.4248550356196 -6.42154333333375 0.87566500000011
  endloop
endfacet
facet normal 1.95204048285752e-016 2.87648692743819e-016 1.0
  outer loop
    vertex 20.835758368953 -6.42154333333377 0.875665000000116
    vertex 28.4248550356196 6.42154333333401 0.875665000000111
    vertex 20.8357583689529 6.42154333333399 0.875665000000108
  endloop
endfacet
facet normal -1.0 -2.53765262771465e-015 1.60889869175786e-030
  outer loop
    vertex 20.8357583689529 6.42154333333399 1.24959764757904e-013
    vertex 20.835758368953 -6.42154333333377 0.875665000000116
    vertex 20.8357583689529 6.42154333333399 0.875665000000108
  endloop
endfacet
facet normal -1.0 -2.53765262771465e-015 1.60889869175786e-030
  outer loop
    vertex 20.835758368953 -6.42154333333377 0.875665000000116
    vertex 20.8357583689529 6.42154333333399 1.24959764757904e-013
    vertex 20.835758368953 -6.42154333333377 1.3271467258491e-013
  endloop
endfacet
facet normal -2.53765262771465e-015 1.0 -3.01691039300339e-016
  outer loop
    vertex 28.4248550356196 6.42154333333401 0.875665000000111
    vertex 20.8357583689529 6.42154333333399 1.24959764757904e-013
    vertex 20.8357583689529 6.42154333333399 0.875665000000108
  endloop
endfacet
facet normal -2.53765262771465e-015 1.0 -3.01691039300339e-016
  outer loop
    vertex 20.8357583689529 6.42154333333399 1.24959764757904e-013
    vertex 28.4248550356196 6.42154333333401 0.875665000000111
    vertex 28.4248550356196 6.42154333333401 1.27603483335292e-013
  endloop
endfacet
facet normal 1.0 2.53765262771465e-015 -1.60889869175787e-030
  outer loop
    vertex 28.4248550356196 -6.42154333333375 0.87566500000011
    vertex 28.4248550356196 6.42154333333401 1.27603483335292e-013
    vertex 28.4248550356196 6.42154333333401 0.875665000000111
  endloop
endfacet
facet normal 1.0 2.53765262771465e-015 -1.60889869175787e-030
  outer loop
    vertex 28.4248550356196 6.42154333333401 1.27603483335292e-013
    vertex 28.4248550356196 -6.42154333333375 0.87566500000011
    vertex 28.4248550356196 -6.42154333333375 1.1879108807733e-013
  endloop
endfacet
facet normal 2.53765262771465e-015 -1.0 3.01691039300339e-016
  outer loop
    vertex 28.4248550356196 -6.42154333333375 1.1879108807733e-013
    vertex 20.835758368953 -6.42154333333377 0.875665000000116
    vertex 20.835758368953 -6.42154333333377 1.3271467258491e-013
  endloop
endfacet
facet normal 2.53765262771465e-015 -1.0 3.01691039300339e-016
  outer loop
    vertex 20.835758368953 -6.42154333333377 0.875665000000116
    vertex 28.4248550356196 -6.42154333333375 1.1879108807733e-013
    vertex 28.4248550356196 -6.42154333333375 0.87566500000011
  endloop
endfacet
facet normal -7.03993954785356e-016 6.10622663543834e-016 1.0
  outer loop
    vertex 9.16022503561959 6.42154333333396 0.875665000000062
    vertex -8.93685163104702 -6.42154333333385 0.875665000000057
    vertex 9.16022503561963 -6.4215433333338 0.87566500000007
  endloop
endfacet
facet normal -7.03993954785356e-016 6.10622663543834e-016 1.0
  outer loop
    vertex -8.93685163104702 -6.42154333333385 0.875665000000057
    vertex 9.16022503561959 6.42154333333396 0.875665000000062
    vertex -8.93685163104705 6.42154333333391 0.875665000000049
  endloop
endfacet
facet normal 2.53765262771465e-015 -1.0 3.01691039300339e-016
  outer loop
    vertex -20.6123849643804 -6.42154333333388 -5.63993296509579e-015
    vertex -28.201481631047 -6.4215433333339 0.87566500000005
    vertex -28.201481631047 -6.4215433333339 0.0
  endloop
endfacet
facet normal 2.53765262771465e-015 -1.0 3.01691039300339e-016
  outer loop
    vertex -28.201481631047 -6.4215433333339 0.87566500000005
    vertex -20.6123849643804 -6.42154333333388 -5.63993296509579e-015
    vertex -20.6123849643804 -6.42154333333388 0.875665000000044
  endloop
endfacet
facet normal -1.0 -2.53765262771465e-015 1.60889869175786e-030
  outer loop
    vertex -28.2014816310471 6.42154333333387 -7.75490782700672e-015
    vertex -28.201481631047 -6.4215433333339 0.87566500000005
    vertex -28.2014816310471 6.42154333333387 0.875665000000042
  endloop
endfacet
facet normal -1.0 -2.53765262771465e-015 1.60889869175786e-030
  outer loop
    vertex -28.201481631047 -6.4215433333339 0.87566500000005
    vertex -28.2014816310471 6.42154333333387 -7.75490782700672e-015
    vertex -28.201481631047 -6.4215433333339 0.0
  endloop
endfacet
facet normal 1.0 2.53765262771465e-015 -1.60889869175787e-030
  outer loop
    vertex -20.6123849643804 -6.42154333333388 0.875665000000044
    vertex -20.6123849643804 6.42154333333388 -5.11118924961806e-015
    vertex -20.6123849643804 6.42154333333388 0.875665000000045
  endloop
endfacet
facet normal 1.0 2.53765262771465e-015 -1.60889869175787e-030
  outer loop
    vertex -20.6123849643804 6.42154333333388 -5.11118924961806e-015
    vertex -20.6123849643804 -6.42154333333388 0.875665000000044
    vertex -20.6123849643804 -6.42154333333388 -5.63993296509579e-015
  endloop
endfacet
facet normal 1.95204048285744e-016 2.87648692743819e-016 1.0
  outer loop
    vertex -20.6123849643804 6.42154333333388 0.875665000000045
    vertex -28.201481631047 -6.4215433333339 0.87566500000005
    vertex -20.6123849643804 -6.42154333333388 0.875665000000044
  endloop
endfacet
facet normal 1.95204048285744e-016 2.87648692743819e-016 1.0
  outer loop
    vertex -28.201481631047 -6.4215433333339 0.87566500000005
    vertex -20.6123849643804 6.42154333333388 0.875665000000045
    vertex -28.2014816310471 6.42154333333387 0.875665000000042
  endloop
endfacet
facet normal -2.53765262771465e-015 1.0 -3.01691039300339e-016
  outer loop
    vertex -20.6123849643804 6.42154333333388 0.875665000000045
    vertex -28.2014816310471 6.42154333333387 -7.75490782700672e-015
    vertex -28.2014816310471 6.42154333333387 0.875665000000042
  endloop
endfacet
facet normal -2.53765262771465e-015 1.0 -3.01691039300339e-016
  outer loop
    vertex -28.2014816310471 6.42154333333387 -7.75490782700672e-015
    vertex -20.6123849643804 6.42154333333388 0.875665000000045
    vertex -20.6123849643804 6.42154333333388 -5.11118924961806e-015
  endloop
endfacet
endsolid Untitled-5f908dd0
