solid OpenSCAD_Model
  facet normal 0 0 -1
    outer loop
      vertex 19.2 0.6 0
      vertex 17.5 9.61154 0
      vertex 19.2 10.2 0
    endloop
  endfacet
  facet normal 0 0 -1
    outer loop
      vertex 11 7.75 0
      vertex 19.2 0.6 0
      vertex 11.7 -2.1 0
    endloop
  endfacet
  facet normal 0 0 -1
    outer loop
      vertex 19.2 0.6 0
      vertex 11 7.75 0
      vertex 17.5 9.61154 0
    endloop
  endfacet
  facet normal -0 0 -1
    outer loop
      vertex 17.5 9.61154 0
      vertex 11 7.75 0
      vertex 17.5 10 0
    endloop
  endfacet
  facet normal 0 0 -1
    outer loop
      vertex 11.7 -2.1 0
      vertex 5.5 7 0
      vertex 11 7.75 0
    endloop
  endfacet
  facet normal 0 0 -1
    outer loop
      vertex 3.6 -3 0
      vertex 5.5 7 0
      vertex 11.7 -2.1 0
    endloop
  endfacet
  facet normal 0 0 -1
    outer loop
      vertex -6.9 -1.2 0
      vertex 5.5 7 0
      vertex 3.6 -3 0
    endloop
  endfacet
  facet normal 0 0 -1
    outer loop
      vertex -14.4 4.2 0
      vertex -2.75 11 0
      vertex -6.9 -1.2 0
    endloop
  endfacet
  facet normal -0 0 -1
    outer loop
      vertex 5.5 7 0
      vertex -6.9 -1.2 0
      vertex -2.75 11 0
    endloop
  endfacet
  facet normal -0 0 -1
    outer loop
      vertex 19.5 43 0
      vertex 15.5 35 0
      vertex 18.38 43.36 0
    endloop
  endfacet
  facet normal 0 0 -1
    outer loop
      vertex 13.375 36 0
      vertex 18.38 43.36 0
      vertex 15.5 35 0
    endloop
  endfacet
  facet normal 0 0 -1
    outer loop
      vertex 11 37 0
      vertex 18.38 43.36 0
      vertex 13.375 36 0
    endloop
  endfacet
  facet normal 0 0 -1
    outer loop
      vertex 8.375 37.75 0
      vertex 18.38 43.36 0
      vertex 11 37 0
    endloop
  endfacet
  facet normal 0 0 -1
    outer loop
      vertex 18.38 43.36 0
      vertex 13.2 52.5 0
      vertex 21.6 49.8 0
    endloop
  endfacet
  facet normal -0 0 -1
    outer loop
      vertex 18.38 43.36 0
      vertex 8.375 37.75 0
      vertex 13.2 52.5 0
    endloop
  endfacet
  facet normal 0 0 -1
    outer loop
      vertex 4.8 53.4 0
      vertex 8.375 37.75 0
      vertex 5.5 38 0
    endloop
  endfacet
  facet normal 0 0 -1
    outer loop
      vertex 8.375 37.75 0
      vertex 4.8 53.4 0
      vertex 13.2 52.5 0
    endloop
  endfacet
  facet normal 0 0 -1
    outer loop
      vertex -2.1 52.65 0
      vertex 5.5 38 0
      vertex 1 37 0
    endloop
  endfacet
  facet normal 0 0 -1
    outer loop
      vertex 5.5 38 0
      vertex -2.1 52.65 0
      vertex 4.8 53.4 0
    endloop
  endfacet
  facet normal 0 0 -1
    outer loop
      vertex -8.4 50.4 0
      vertex 1 37 0
      vertex -2.5 34 0
    endloop
  endfacet
  facet normal 0 0 -1
    outer loop
      vertex -17.4 40.8 0
      vertex -2.5 34 0
      vertex -4.75 29.25 0
    endloop
  endfacet
  facet normal 0 0 -1
    outer loop
      vertex -20.4 25.8 0
      vertex -4.75 29.25 0
      vertex -5.5 23 0
    endloop
  endfacet
  facet normal 0 0 -1
    outer loop
      vertex 1 37 0
      vertex -8.4 50.4 0
      vertex -2.1 52.65 0
    endloop
  endfacet
  facet normal 0 0 -1
    outer loop
      vertex -18.9 13.2 0
      vertex -2.75 11 0
      vertex -14.4 4.2 0
    endloop
  endfacet
  facet normal -0 0 -1
    outer loop
      vertex -4.75 29.25 0
      vertex -20.4 25.8 0
      vertex -19.65 33.75 0
    endloop
  endfacet
  facet normal 0 0 -1
    outer loop
      vertex -2.75 11 0
      vertex -18.9 13.2 0
      vertex -5.5 23 0
    endloop
  endfacet
  facet normal 0 0 -1
    outer loop
      vertex -4.75 29.25 0
      vertex -19.65 33.75 0
      vertex -17.4 40.8 0
    endloop
  endfacet
  facet normal -0 0 -1
    outer loop
      vertex -5.5 23 0
      vertex -18.9 13.2 0
      vertex -20.4 25.8 0
    endloop
  endfacet
  facet normal 0 0 -1
    outer loop
      vertex -2.5 34 0
      vertex -17.4 40.8 0
      vertex -13.65 46.5 0
    endloop
  endfacet
  facet normal 0 0 -1
    outer loop
      vertex -2.5 34 0
      vertex -13.65 46.5 0
      vertex -8.4 50.4 0
    endloop
  endfacet
  facet normal 0 0 1
    outer loop
      vertex 12.5 45.25 3
      vertex 21.6 49.8 3
      vertex 13.2 52.5 3
    endloop
  endfacet
  facet normal 0 0 1
    outer loop
      vertex 21.6 49.8 3
      vertex 12.5 45.25 3
      vertex 18.38 43.36 3
    endloop
  endfacet
  facet normal 0 0 1
    outer loop
      vertex 13.2 52.5 3
      vertex 5.5 46 3
      vertex 12.5 45.25 3
    endloop
  endfacet
  facet normal 0 0 1
    outer loop
      vertex 4.8 53.4 3
      vertex 5.5 46 3
      vertex 13.2 52.5 3
    endloop
  endfacet
  facet normal 0 0 1
    outer loop
      vertex 4.8 53.4 3
      vertex -0.25 45.375 3
      vertex 5.5 46 3
    endloop
  endfacet
  facet normal -0 0 1
    outer loop
      vertex -2.1 52.65 3
      vertex -0.25 45.375 3
      vertex 4.8 53.4 3
    endloop
  endfacet
  facet normal -0 0 1
    outer loop
      vertex -8.4 50.4 3
      vertex -0.25 45.375 3
      vertex -2.1 52.65 3
    endloop
  endfacet
  facet normal 0 0 1
    outer loop
      vertex -0.25 45.375 3
      vertex -8.4 50.4 3
      vertex -5.5 43.5 3
    endloop
  endfacet
  facet normal -0 0 1
    outer loop
      vertex -13.65 46.5 3
      vertex -5.5 43.5 3
      vertex -8.4 50.4 3
    endloop
  endfacet
  facet normal 0 0 1
    outer loop
      vertex -5.5 43.5 3
      vertex -13.65 46.5 3
      vertex -9.875 40.25 3
    endloop
  endfacet
  facet normal -0 0 1
    outer loop
      vertex -17.4 40.8 3
      vertex -9.875 40.25 3
      vertex -13.65 46.5 3
    endloop
  endfacet
  facet normal 0 0 1
    outer loop
      vertex -9.875 40.25 3
      vertex -17.4 40.8 3
      vertex -13 35.5 3
    endloop
  endfacet
  facet normal 0 0 1
    outer loop
      vertex -19.65 33.75 3
      vertex -13 35.5 3
      vertex -17.4 40.8 3
    endloop
  endfacet
  facet normal 0 0 1
    outer loop
      vertex -13 35.5 3
      vertex -19.65 33.75 3
      vertex -14.875 29.625 3
    endloop
  endfacet
  facet normal 0 0 1
    outer loop
      vertex 17.5 2 3
      vertex 19.2 10.2 3
      vertex 17.5 9.61154 3
    endloop
  endfacet
  facet normal 0 0 1
    outer loop
      vertex 19.2 10.2 3
      vertex 17.5 2 3
      vertex 19.2 0.6 3
    endloop
  endfacet
  facet normal 0 0 1
    outer loop
      vertex 17.5 2 3
      vertex 11.7 -2.1 3
      vertex 19.2 0.6 3
    endloop
  endfacet
  facet normal -0 0 1
    outer loop
      vertex 11.25 -0.25 3
      vertex 11.7 -2.1 3
      vertex 17.5 2 3
    endloop
  endfacet
  facet normal -0 0 1
    outer loop
      vertex 4.5 -1 3
      vertex 11.7 -2.1 3
      vertex 11.25 -0.25 3
    endloop
  endfacet
  facet normal 0 0 1
    outer loop
      vertex 4.5 -1 3
      vertex 3.6 -3 3
      vertex 11.7 -2.1 3
    endloop
  endfacet
  facet normal 0 0 1
    outer loop
      vertex -4.25 0.5 3
      vertex 3.6 -3 3
      vertex 4.5 -1 3
    endloop
  endfacet
  facet normal 0 0 1
    outer loop
      vertex -4.25 0.5 3
      vertex -6.9 -1.2 3
      vertex 3.6 -3 3
    endloop
  endfacet
  facet normal 0 0 1
    outer loop
      vertex -10.5 5 3
      vertex -6.9 -1.2 3
      vertex -4.25 0.5 3
    endloop
  endfacet
  facet normal 0 0 1
    outer loop
      vertex -10.5 5 3
      vertex -14.4 4.2 3
      vertex -6.9 -1.2 3
    endloop
  endfacet
  facet normal 0 0 1
    outer loop
      vertex -14.25 12.5 3
      vertex -14.4 4.2 3
      vertex -10.5 5 3
    endloop
  endfacet
  facet normal -0 0 1
    outer loop
      vertex -18.9 13.2 3
      vertex -14.25 12.5 3
      vertex -15.5 23 3
    endloop
  endfacet
  facet normal 0 0 1
    outer loop
      vertex -20.4 25.8 3
      vertex -14.875 29.625 3
      vertex -19.65 33.75 3
    endloop
  endfacet
  facet normal 0 -0 1
    outer loop
      vertex -18.9 13.2 3
      vertex -15.5 23 3
      vertex -20.4 25.8 3
    endloop
  endfacet
  facet normal 0 0 1
    outer loop
      vertex -14.875 29.625 3
      vertex -20.4 25.8 3
      vertex -15.5 23 3
    endloop
  endfacet
  facet normal 0 0 1
    outer loop
      vertex -14.25 12.5 3
      vertex -18.9 13.2 3
      vertex -14.4 4.2 3
    endloop
  endfacet
  facet normal -0.32711 0.944986 0
    outer loop
      vertex 19.2 10.2 0
      vertex 17.5 9.61154 3
      vertex 19.2 10.2 3
    endloop
  endfacet
  facet normal -0.32711 0.944986 0
    outer loop
      vertex 17.5 9.61154 3
      vertex 19.2 10.2 0
      vertex 17.5 9.61154 0
    endloop
  endfacet
  facet normal 1 -0 0
    outer loop
      vertex 19.2 0.6 3
      vertex 19.2 10.2 0
      vertex 19.2 10.2 3
    endloop
  endfacet
  facet normal 1 0 0
    outer loop
      vertex 19.2 10.2 0
      vertex 19.2 0.6 3
      vertex 19.2 0.6 0
    endloop
  endfacet
  facet normal 0.894427 -0.447214 0
    outer loop
      vertex 18.38 43.36 3
      vertex 21.6 49.8 0
      vertex 21.6 49.8 3
    endloop
  endfacet
  facet normal 0.894427 -0.447214 0
    outer loop
      vertex 21.6 49.8 0
      vertex 18.38 43.36 3
      vertex 18.38 43.36 0
    endloop
  endfacet
  facet normal 0.338719 -0.940887 0
    outer loop
      vertex 11.7 -2.1 0
      vertex 19.2 0.6 3
      vertex 11.7 -2.1 3
    endloop
  endfacet
  facet normal 0.338719 -0.940887 0
    outer loop
      vertex 19.2 0.6 3
      vertex 11.7 -2.1 0
      vertex 19.2 0.6 0
    endloop
  endfacet
  facet normal 0.110432 -0.993884 0
    outer loop
      vertex 3.6 -3 0
      vertex 11.7 -2.1 3
      vertex 3.6 -3 3
    endloop
  endfacet
  facet normal 0.110432 -0.993884 0
    outer loop
      vertex 11.7 -2.1 3
      vertex 3.6 -3 0
      vertex 11.7 -2.1 0
    endloop
  endfacet
  facet normal -0.168964 -0.985622 0
    outer loop
      vertex -6.9 -1.2 0
      vertex 3.6 -3 3
      vertex -6.9 -1.2 3
    endloop
  endfacet
  facet normal -0.168964 -0.985622 -0
    outer loop
      vertex 3.6 -3 3
      vertex -6.9 -1.2 0
      vertex 3.6 -3 0
    endloop
  endfacet
  facet normal -0.584305 -0.811534 0
    outer loop
      vertex -14.4 4.2 0
      vertex -6.9 -1.2 3
      vertex -14.4 4.2 3
    endloop
  endfacet
  facet normal -0.584305 -0.811534 -0
    outer loop
      vertex -6.9 -1.2 3
      vertex -14.4 4.2 0
      vertex -6.9 -1.2 0
    endloop
  endfacet
  facet normal -0.894427 -0.447214 0
    outer loop
      vertex -14.4 4.2 0
      vertex -18.9 13.2 3
      vertex -18.9 13.2 0
    endloop
  endfacet
  facet normal -0.894427 -0.447214 0
    outer loop
      vertex -18.9 13.2 3
      vertex -14.4 4.2 0
      vertex -14.4 4.2 3
    endloop
  endfacet
  facet normal -0.992988 -0.118213 0
    outer loop
      vertex -18.9 13.2 0
      vertex -20.4 25.8 3
      vertex -20.4 25.8 0
    endloop
  endfacet
  facet normal -0.992988 -0.118213 0
    outer loop
      vertex -20.4 25.8 3
      vertex -18.9 13.2 0
      vertex -18.9 13.2 3
    endloop
  endfacet
  facet normal -0.99558 0.0939226 0
    outer loop
      vertex -20.4 25.8 0
      vertex -19.65 33.75 3
      vertex -19.65 33.75 0
    endloop
  endfacet
  facet normal -0.99558 0.0939226 0
    outer loop
      vertex -19.65 33.75 3
      vertex -20.4 25.8 0
      vertex -20.4 25.8 3
    endloop
  endfacet
  facet normal -0.952659 0.30404 0
    outer loop
      vertex -19.65 33.75 0
      vertex -17.4 40.8 3
      vertex -17.4 40.8 0
    endloop
  endfacet
  facet normal -0.952659 0.30404 0
    outer loop
      vertex -17.4 40.8 3
      vertex -19.65 33.75 0
      vertex -19.65 33.75 3
    endloop
  endfacet
  facet normal -0.835417 0.549617 0
    outer loop
      vertex -17.4 40.8 0
      vertex -13.65 46.5 3
      vertex -13.65 46.5 0
    endloop
  endfacet
  facet normal -0.835417 0.549617 0
    outer loop
      vertex -13.65 46.5 3
      vertex -17.4 40.8 0
      vertex -17.4 40.8 3
    endloop
  endfacet
  facet normal -0.596324 0.802744 0
    outer loop
      vertex -8.4 50.4 0
      vertex -13.65 46.5 3
      vertex -8.4 50.4 3
    endloop
  endfacet
  facet normal -0.596324 0.802744 0
    outer loop
      vertex -13.65 46.5 3
      vertex -8.4 50.4 0
      vertex -13.65 46.5 0
    endloop
  endfacet
  facet normal -0.336336 0.941742 0
    outer loop
      vertex -2.1 52.65 0
      vertex -8.4 50.4 3
      vertex -2.1 52.65 3
    endloop
  endfacet
  facet normal -0.336336 0.941742 0
    outer loop
      vertex -8.4 50.4 3
      vertex -2.1 52.65 0
      vertex -8.4 50.4 0
    endloop
  endfacet
  facet normal -0.108059 0.994144 0
    outer loop
      vertex 4.8 53.4 0
      vertex -2.1 52.65 3
      vertex 4.8 53.4 3
    endloop
  endfacet
  facet normal -0.108059 0.994144 0
    outer loop
      vertex -2.1 52.65 3
      vertex 4.8 53.4 0
      vertex -2.1 52.65 0
    endloop
  endfacet
  facet normal 0.106533 0.994309 -0
    outer loop
      vertex 13.2 52.5 0
      vertex 4.8 53.4 3
      vertex 13.2 52.5 3
    endloop
  endfacet
  facet normal 0.106533 0.994309 0
    outer loop
      vertex 4.8 53.4 3
      vertex 13.2 52.5 0
      vertex 4.8 53.4 0
    endloop
  endfacet
  facet normal 0.306009 0.952029 -0
    outer loop
      vertex 21.6 49.8 0
      vertex 13.2 52.5 3
      vertex 21.6 49.8 3
    endloop
  endfacet
  facet normal 0.306009 0.952029 0
    outer loop
      vertex 13.2 52.5 3
      vertex 21.6 49.8 0
      vertex 13.2 52.5 0
    endloop
  endfacet
  facet normal 0.21693 -0.976187 0
    outer loop
      vertex 1 37 0
      vertex 5.5 38 5
      vertex 1 37 5
    endloop
  endfacet
  facet normal 0.21693 -0.976187 0
    outer loop
      vertex 5.5 38 5
      vertex 1 37 0
      vertex 5.5 38 0
    endloop
  endfacet
  facet normal 0 0 1
    outer loop
      vertex 19.5 43 5
      vertex 13.375 36 5
      vertex 15.5 35 5
    endloop
  endfacet
  facet normal 0 0 1
    outer loop
      vertex 12.5 45.25 5
      vertex 13.375 36 5
      vertex 19.5 43 5
    endloop
  endfacet
  facet normal 0 0 1
    outer loop
      vertex 12.5 45.25 5
      vertex 11 37 5
      vertex 13.375 36 5
    endloop
  endfacet
  facet normal 0 0 1
    outer loop
      vertex 12.5 45.25 5
      vertex 8.375 37.75 5
      vertex 11 37 5
    endloop
  endfacet
  facet normal 0 0 1
    outer loop
      vertex 5.5 46 5
      vertex 8.375 37.75 5
      vertex 12.5 45.25 5
    endloop
  endfacet
  facet normal 0 0 1
    outer loop
      vertex 5.5 46 5
      vertex 5.5 38 5
      vertex 8.375 37.75 5
    endloop
  endfacet
  facet normal -0 0 1
    outer loop
      vertex -0.25 45.375 5
      vertex 5.5 38 5
      vertex 5.5 46 5
    endloop
  endfacet
  facet normal 0 0 1
    outer loop
      vertex 5.5 38 5
      vertex -0.25 45.375 5
      vertex 1 37 5
    endloop
  endfacet
  facet normal -0 0 1
    outer loop
      vertex -5.5 43.5 5
      vertex 1 37 5
      vertex -0.25 45.375 5
    endloop
  endfacet
  facet normal 0 0 1
    outer loop
      vertex 1 37 5
      vertex -5.5 43.5 5
      vertex -2.5 34 5
    endloop
  endfacet
  facet normal -0 0 1
    outer loop
      vertex -9.875 40.25 5
      vertex -2.5 34 5
      vertex -5.5 43.5 5
    endloop
  endfacet
  facet normal -0 0 1
    outer loop
      vertex -13 35.5 5
      vertex -2.5 34 5
      vertex -9.875 40.25 5
    endloop
  endfacet
  facet normal 0 0 1
    outer loop
      vertex -2.5 34 5
      vertex -13 35.5 5
      vertex -4.75 29.25 5
    endloop
  endfacet
  facet normal -0 0 1
    outer loop
      vertex 11 7.75 5
      vertex 17.5 2 5
      vertex 17.5 10 5
    endloop
  endfacet
  facet normal 0 0 1
    outer loop
      vertex 17.5 2 5
      vertex 11 7.75 5
      vertex 11.25 -0.25 5
    endloop
  endfacet
  facet normal -0 0 1
    outer loop
      vertex 5.5 7 5
      vertex 11.25 -0.25 5
      vertex 11 7.75 5
    endloop
  endfacet
  facet normal 0 0 1
    outer loop
      vertex 5.5 7 5
      vertex 4.5 -1 5
      vertex 11.25 -0.25 5
    endloop
  endfacet
  facet normal 0 0 1
    outer loop
      vertex -4.25 0.5 5
      vertex 5.5 7 5
      vertex -2.75 11 5
    endloop
  endfacet
  facet normal 0 0 1
    outer loop
      vertex 5.5 7 5
      vertex -4.25 0.5 5
      vertex 4.5 -1 5
    endloop
  endfacet
  facet normal -0 0 1
    outer loop
      vertex -14.25 12.5 5
      vertex -2.75 11 5
      vertex -5.5 23 5
    endloop
  endfacet
  facet normal -0 0 1
    outer loop
      vertex -14.875 29.625 5
      vertex -4.75 29.25 5
      vertex -13 35.5 5
    endloop
  endfacet
  facet normal 0 -0 1
    outer loop
      vertex -14.25 12.5 5
      vertex -5.5 23 5
      vertex -15.5 23 5
    endloop
  endfacet
  facet normal 0 0 1
    outer loop
      vertex -4.75 29.25 5
      vertex -14.875 29.625 5
      vertex -5.5 23 5
    endloop
  endfacet
  facet normal 0 0 1
    outer loop
      vertex -2.75 11 5
      vertex -14.25 12.5 5
      vertex -10.5 5 5
    endloop
  endfacet
  facet normal 0 0 1
    outer loop
      vertex -5.5 23 5
      vertex -14.875 29.625 5
      vertex -15.5 23 5
    endloop
  endfacet
  facet normal 0 0 1
    outer loop
      vertex -2.75 11 5
      vertex -10.5 5 5
      vertex -4.25 0.5 5
    endloop
  endfacet
  facet normal 0.650791 -0.759257 0
    outer loop
      vertex -2.5 34 0
      vertex 1 37 5
      vertex -2.5 34 5
    endloop
  endfacet
  facet normal 0.650791 -0.759257 0
    outer loop
      vertex 1 37 5
      vertex -2.5 34 0
      vertex 1 37 0
    endloop
  endfacet
  facet normal 0.903738 -0.428086 0
    outer loop
      vertex -4.75 29.25 5
      vertex -2.5 34 0
      vertex -2.5 34 5
    endloop
  endfacet
  facet normal 0.903738 -0.428086 0
    outer loop
      vertex -2.5 34 0
      vertex -4.75 29.25 5
      vertex -4.75 29.25 0
    endloop
  endfacet
  facet normal 0.992877 -0.119145 0
    outer loop
      vertex -5.5 23 5
      vertex -4.75 29.25 0
      vertex -4.75 29.25 5
    endloop
  endfacet
  facet normal 0.992877 -0.119145 0
    outer loop
      vertex -4.75 29.25 0
      vertex -5.5 23 5
      vertex -5.5 23 0
    endloop
  endfacet
  facet normal 0.974732 0.223376 0
    outer loop
      vertex -2.75 11 5
      vertex -5.5 23 0
      vertex -5.5 23 5
    endloop
  endfacet
  facet normal 0.974732 0.223376 0
    outer loop
      vertex -5.5 23 0
      vertex -2.75 11 5
      vertex -2.75 11 0
    endloop
  endfacet
  facet normal 0.436274 0.899814 -0
    outer loop
      vertex 5.5 7 0
      vertex -2.75 11 5
      vertex 5.5 7 5
    endloop
  endfacet
  facet normal 0.436274 0.899814 0
    outer loop
      vertex -2.75 11 5
      vertex 5.5 7 0
      vertex -2.75 11 0
    endloop
  endfacet
  facet normal -0.135113 0.99083 0
    outer loop
      vertex 11 7.75 0
      vertex 5.5 7 5
      vertex 11 7.75 5
    endloop
  endfacet
  facet normal -0.135113 0.99083 0
    outer loop
      vertex 5.5 7 5
      vertex 11 7.75 0
      vertex 5.5 7 0
    endloop
  endfacet
  facet normal -0.327111 0.944986 0
    outer loop
      vertex 17.5 10 0
      vertex 11 7.75 5
      vertex 17.5 10 5
    endloop
  endfacet
  facet normal -0.327111 0.944986 0
    outer loop
      vertex 11 7.75 5
      vertex 17.5 10 0
      vertex 11 7.75 0
    endloop
  endfacet
  facet normal -0.425797 -0.904819 0
    outer loop
      vertex 13.375 36 0
      vertex 15.5 35 5
      vertex 13.375 36 5
    endloop
  endfacet
  facet normal -0.425797 -0.904819 -0
    outer loop
      vertex 15.5 35 5
      vertex 13.375 36 0
      vertex 15.5 35 0
    endloop
  endfacet
  facet normal -0.388057 -0.921635 0
    outer loop
      vertex 11 37 0
      vertex 13.375 36 5
      vertex 11 37 5
    endloop
  endfacet
  facet normal -0.388057 -0.921635 -0
    outer loop
      vertex 13.375 36 5
      vertex 11 37 0
      vertex 13.375 36 0
    endloop
  endfacet
  facet normal -0.274721 -0.961524 0
    outer loop
      vertex 8.375 37.75 0
      vertex 11 37 5
      vertex 8.375 37.75 5
    endloop
  endfacet
  facet normal -0.274721 -0.961524 -0
    outer loop
      vertex 11 37 5
      vertex 8.375 37.75 0
      vertex 11 37 0
    endloop
  endfacet
  facet normal -0.0866296 -0.996241 0
    outer loop
      vertex 5.5 38 0
      vertex 8.375 37.75 5
      vertex 5.5 38 5
    endloop
  endfacet
  facet normal -0.0866296 -0.996241 -0
    outer loop
      vertex 8.375 37.75 5
      vertex 5.5 38 0
      vertex 8.375 37.75 0
    endloop
  endfacet
  facet normal 1 0 0
    outer loop
      vertex 17.5 10 5
      vertex 17.5 9.61154 3
      vertex 17.5 10 0
    endloop
  endfacet
  facet normal 1 -0 0
    outer loop
      vertex 17.5 2 5
      vertex 17.5 9.61154 3
      vertex 17.5 10 5
    endloop
  endfacet
  facet normal 1 0 0
    outer loop
      vertex 17.5 9.61154 3
      vertex 17.5 2 5
      vertex 17.5 2 3
    endloop
  endfacet
  facet normal 1 0 0
    outer loop
      vertex 17.5 10 0
      vertex 17.5 9.61154 3
      vertex 17.5 9.61154 0
    endloop
  endfacet
  facet normal 0.894427 -0.447214 0
    outer loop
      vertex 15.5 35 5
      vertex 19.5 43 0
      vertex 19.5 43 5
    endloop
  endfacet
  facet normal 0.894427 -0.447214 0
    outer loop
      vertex 19.5 43 0
      vertex 15.5 35 5
      vertex 15.5 35 0
    endloop
  endfacet
  facet normal 0.338719 -0.940887 0
    outer loop
      vertex 11.25 -0.25 3
      vertex 17.5 2 5
      vertex 11.25 -0.25 5
    endloop
  endfacet
  facet normal 0.338719 -0.940887 0
    outer loop
      vertex 17.5 2 5
      vertex 11.25 -0.25 3
      vertex 17.5 2 3
    endloop
  endfacet
  facet normal 0.110432 -0.993884 0
    outer loop
      vertex 4.5 -1 3
      vertex 11.25 -0.25 5
      vertex 4.5 -1 5
    endloop
  endfacet
  facet normal 0.110432 -0.993884 0
    outer loop
      vertex 11.25 -0.25 5
      vertex 4.5 -1 3
      vertex 11.25 -0.25 3
    endloop
  endfacet
  facet normal -0.168964 -0.985622 0
    outer loop
      vertex -4.25 0.5 3
      vertex 4.5 -1 5
      vertex -4.25 0.5 5
    endloop
  endfacet
  facet normal -0.168964 -0.985622 -0
    outer loop
      vertex 4.5 -1 5
      vertex -4.25 0.5 3
      vertex 4.5 -1 3
    endloop
  endfacet
  facet normal -0.584305 -0.811534 0
    outer loop
      vertex -10.5 5 3
      vertex -4.25 0.5 5
      vertex -10.5 5 5
    endloop
  endfacet
  facet normal -0.584305 -0.811534 -0
    outer loop
      vertex -4.25 0.5 5
      vertex -10.5 5 3
      vertex -4.25 0.5 3
    endloop
  endfacet
  facet normal -0.894427 -0.447214 0
    outer loop
      vertex -10.5 5 3
      vertex -14.25 12.5 5
      vertex -14.25 12.5 3
    endloop
  endfacet
  facet normal -0.894427 -0.447214 0
    outer loop
      vertex -14.25 12.5 5
      vertex -10.5 5 3
      vertex -10.5 5 5
    endloop
  endfacet
  facet normal -0.992988 -0.118213 0
    outer loop
      vertex -14.25 12.5 3
      vertex -15.5 23 5
      vertex -15.5 23 3
    endloop
  endfacet
  facet normal -0.992988 -0.118213 0
    outer loop
      vertex -15.5 23 5
      vertex -14.25 12.5 3
      vertex -14.25 12.5 5
    endloop
  endfacet
  facet normal -0.99558 0.0939226 0
    outer loop
      vertex -15.5 23 3
      vertex -14.875 29.625 5
      vertex -14.875 29.625 3
    endloop
  endfacet
  facet normal -0.99558 0.0939226 0
    outer loop
      vertex -14.875 29.625 5
      vertex -15.5 23 3
      vertex -15.5 23 5
    endloop
  endfacet
  facet normal -0.952659 0.30404 0
    outer loop
      vertex -14.875 29.625 3
      vertex -13 35.5 5
      vertex -13 35.5 3
    endloop
  endfacet
  facet normal -0.952659 0.30404 0
    outer loop
      vertex -13 35.5 5
      vertex -14.875 29.625 3
      vertex -14.875 29.625 5
    endloop
  endfacet
  facet normal -0.835417 0.549617 0
    outer loop
      vertex -13 35.5 3
      vertex -9.875 40.25 5
      vertex -9.875 40.25 3
    endloop
  endfacet
  facet normal -0.835417 0.549617 0
    outer loop
      vertex -9.875 40.25 5
      vertex -13 35.5 3
      vertex -13 35.5 5
    endloop
  endfacet
  facet normal -0.596324 0.802744 0
    outer loop
      vertex -5.5 43.5 3
      vertex -9.875 40.25 5
      vertex -5.5 43.5 5
    endloop
  endfacet
  facet normal -0.596324 0.802744 0
    outer loop
      vertex -9.875 40.25 5
      vertex -5.5 43.5 3
      vertex -9.875 40.25 3
    endloop
  endfacet
  facet normal -0.336336 0.941742 0
    outer loop
      vertex -0.25 45.375 3
      vertex -5.5 43.5 5
      vertex -0.25 45.375 5
    endloop
  endfacet
  facet normal -0.336336 0.941742 0
    outer loop
      vertex -5.5 43.5 5
      vertex -0.25 45.375 3
      vertex -5.5 43.5 3
    endloop
  endfacet
  facet normal -0.108059 0.994144 0
    outer loop
      vertex 5.5 46 3
      vertex -0.25 45.375 5
      vertex 5.5 46 5
    endloop
  endfacet
  facet normal -0.108059 0.994144 0
    outer loop
      vertex -0.25 45.375 5
      vertex 5.5 46 3
      vertex -0.25 45.375 3
    endloop
  endfacet
  facet normal 0.106533 0.994309 -0
    outer loop
      vertex 12.5 45.25 3
      vertex 5.5 46 5
      vertex 12.5 45.25 5
    endloop
  endfacet
  facet normal 0.106533 0.994309 0
    outer loop
      vertex 5.5 46 5
      vertex 12.5 45.25 3
      vertex 5.5 46 3
    endloop
  endfacet
  facet normal 0.306009 0.952029 -4.22786e-16
    outer loop
      vertex 19.5 43 5
      vertex 18.38 43.36 3
      vertex 12.5 45.25 5
    endloop
  endfacet
  facet normal 0.306009 0.952029 -0
    outer loop
      vertex 19.5 43 0
      vertex 18.38 43.36 3
      vertex 19.5 43 5
    endloop
  endfacet
  facet normal 0.306009 0.952029 0
    outer loop
      vertex 18.38 43.36 3
      vertex 19.5 43 0
      vertex 18.38 43.36 0
    endloop
  endfacet
  facet normal 0.306009 0.952029 0
    outer loop
      vertex 12.5 45.25 5
      vertex 18.38 43.36 3
      vertex 12.5 45.25 3
    endloop
  endfacet
endsolid OpenSCAD_Model
