solid OpenSCAD_Model
  facet normal 0.986394 -0.164399 0
    outer loop
      vertex 22.65 14.1 3
      vertex 24.6 25.8 0
      vertex 24.6 25.8 3
    endloop
  endfacet
  facet normal 0.986394 -0.164399 0
    outer loop
      vertex 24.6 25.8 0
      vertex 22.65 14.1 3
      vertex 22.65 14.1 0
    endloop
  endfacet
  facet normal 0.829843 -0.557998 0
    outer loop
      vertex 16.8 5.4 3
      vertex 22.65 14.1 0
      vertex 22.65 14.1 3
    endloop
  endfacet
  facet normal 0.829843 -0.557998 0
    outer loop
      vertex 22.65 14.1 0
      vertex 16.8 5.4 3
      vertex 16.8 5.4 0
    endloop
  endfacet
  facet normal 0.496139 -0.868243 0
    outer loop
      vertex 7.35 -1.11022e-16 0
      vertex 16.8 5.4 3
      vertex 7.35 -1.11022e-16 3
    endloop
  endfacet
  facet normal 0.496139 -0.868243 0
    outer loop
      vertex 16.8 5.4 3
      vertex 7.35 -1.11022e-16 0
      vertex 16.8 5.4 0
    endloop
  endfacet
  facet normal 0 -1 0
    outer loop
      vertex -21 -1.8 0
      vertex -5.4 -1.8 3
      vertex -21 -1.8 3
    endloop
  endfacet
  facet normal 0 -1 -0
    outer loop
      vertex -5.4 -1.8 3
      vertex -21 -1.8 0
      vertex -5.4 -1.8 0
    endloop
  endfacet
  facet normal 0.13979 -0.990181 0
    outer loop
      vertex -5.4 -1.8 0
      vertex 7.35 -1.11022e-16 3
      vertex -5.4 -1.8 3
    endloop
  endfacet
  facet normal 0.13979 -0.990181 0
    outer loop
      vertex 7.35 -1.11022e-16 3
      vertex -5.4 -1.8 0
      vertex 7.35 -1.11022e-16 0
    endloop
  endfacet
  facet normal 0.150176 0.988659 -0
    outer loop
      vertex 7.65 51.6 0
      vertex -4.2 53.4 3
      vertex 7.65 51.6 3
    endloop
  endfacet
  facet normal 0.150176 0.988659 0
    outer loop
      vertex -4.2 53.4 3
      vertex 7.65 51.6 0
      vertex -4.2 53.4 0
    endloop
  endfacet
  facet normal 0 1 -0
    outer loop
      vertex -4.2 53.4 0
      vertex -21 53.4 3
      vertex -4.2 53.4 3
    endloop
  endfacet
  facet normal 0 1 0
    outer loop
      vertex -21 53.4 3
      vertex -4.2 53.4 0
      vertex -21 53.4 0
    endloop
  endfacet
  facet normal 0.508254 0.861207 -0
    outer loop
      vertex 16.8 46.2 0
      vertex 7.65 51.6 3
      vertex 16.8 46.2 3
    endloop
  endfacet
  facet normal 0.508254 0.861207 0
    outer loop
      vertex 7.65 51.6 3
      vertex 16.8 46.2 0
      vertex 7.65 51.6 0
    endloop
  endfacet
  facet normal 0.829843 0.557998 0
    outer loop
      vertex 22.65 37.5 3
      vertex 16.8 46.2 0
      vertex 16.8 46.2 3
    endloop
  endfacet
  facet normal 0.829843 0.557998 0
    outer loop
      vertex 16.8 46.2 0
      vertex 22.65 37.5 3
      vertex 22.65 37.5 0
    endloop
  endfacet
  facet normal 0.986394 0.164399 0
    outer loop
      vertex 24.6 25.8 3
      vertex 22.65 37.5 0
      vertex 22.65 37.5 3
    endloop
  endfacet
  facet normal 0.986394 0.164399 0
    outer loop
      vertex 22.65 37.5 0
      vertex 24.6 25.8 3
      vertex 24.6 25.8 0
    endloop
  endfacet
  facet normal -1 0 0
    outer loop
      vertex -21 -1.8 0
      vertex -21 53.4 3
      vertex -21 53.4 0
    endloop
  endfacet
  facet normal -1 -0 0
    outer loop
      vertex -21 53.4 3
      vertex -21 -1.8 0
      vertex -21 -1.8 3
    endloop
  endfacet
  facet normal 0 0 -1
    outer loop
      vertex 11.8695 23.4519 0
      vertex 24.6 25.8 0
      vertex 22.65 14.1 0
    endloop
  endfacet
  facet normal 0 0 -1
    outer loop
      vertex 8.4 12.3 0
      vertex 22.65 14.1 0
      vertex 16.8 5.4 0
    endloop
  endfacet
  facet normal -0 0 -1
    outer loop
      vertex 24.6 25.8 0
      vertex 11.8695 23.4519 0
      vertex 22.65 37.5 0
    endloop
  endfacet
  facet normal 0 0 -1
    outer loop
      vertex 8.75 34.25 0
      vertex 22.65 37.5 0
      vertex 11.8695 23.4519 0
    endloop
  endfacet
  facet normal -0 0 -1
    outer loop
      vertex 22.65 14.1 0
      vertex 8.4 12.3 0
      vertex 11.8695 23.4519 0
    endloop
  endfacet
  facet normal 0 0 -1
    outer loop
      vertex 7.35 -1.11022e-16 0
      vertex 8.4 12.3 0
      vertex 16.8 5.4 0
    endloop
  endfacet
  facet normal 0 0 -1
    outer loop
      vertex 7.35 -1.11022e-16 0
      vertex -3.64 8 0
      vertex 8.4 12.3 0
    endloop
  endfacet
  facet normal 0 0 -1
    outer loop
      vertex -5.4 -1.8 0
      vertex -3.64 8 0
      vertex 7.35 -1.11022e-16 0
    endloop
  endfacet
  facet normal 0 0 -1
    outer loop
      vertex -5.4 -1.8 0
      vertex -7 8 0
      vertex -3.64 8 0
    endloop
  endfacet
  facet normal -0 0 -1
    outer loop
      vertex -7 8 0
      vertex -21 -1.8 0
      vertex -7 38 0
    endloop
  endfacet
  facet normal 0 0 -1
    outer loop
      vertex -21 -1.8 0
      vertex -7 8 0
      vertex -5.4 -1.8 0
    endloop
  endfacet
  facet normal -0 0 -1
    outer loop
      vertex 22.65 37.5 0
      vertex 8.75 34.25 0
      vertex 16.8 46.2 0
    endloop
  endfacet
  facet normal 0 0 -1
    outer loop
      vertex 8.75 34.25 0
      vertex 7.65 51.6 0
      vertex 16.8 46.2 0
    endloop
  endfacet
  facet normal 0 0 -1
    outer loop
      vertex -1 38 0
      vertex 7.65 51.6 0
      vertex 8.75 34.25 0
    endloop
  endfacet
  facet normal 0 0 -1
    outer loop
      vertex -1 38 0
      vertex -4.2 53.4 0
      vertex 7.65 51.6 0
    endloop
  endfacet
  facet normal 0 0 -1
    outer loop
      vertex -7 38 0
      vertex -4.2 53.4 0
      vertex -1 38 0
    endloop
  endfacet
  facet normal 0 0 -1
    outer loop
      vertex -21 53.4 0
      vertex -7 38 0
      vertex -21 -1.8 0
    endloop
  endfacet
  facet normal 0 0 -1
    outer loop
      vertex -7 38 0
      vertex -21 53.4 0
      vertex -4.2 53.4 0
    endloop
  endfacet
  facet normal -0 0 1
    outer loop
      vertex 20.375 32.75 3
      vertex 24.6 25.8 3
      vertex 22.65 37.5 3
    endloop
  endfacet
  facet normal 0 0 1
    outer loop
      vertex 24.6 25.8 3
      vertex 22 23 3
      vertex 22.65 14.1 3
    endloop
  endfacet
  facet normal 0 0 1
    outer loop
      vertex 24.6 25.8 3
      vertex 20.375 32.75 3
      vertex 22 23 3
    endloop
  endfacet
  facet normal -0 0 1
    outer loop
      vertex 15.5 40 3
      vertex 22.65 37.5 3
      vertex 16.8 46.2 3
    endloop
  endfacet
  facet normal 0 0 1
    outer loop
      vertex 22.65 37.5 3
      vertex 15.5 40 3
      vertex 20.375 32.75 3
    endloop
  endfacet
  facet normal 0 0 1
    outer loop
      vertex 16.8 46.2 3
      vertex 7.875 44.5 3
      vertex 15.5 40 3
    endloop
  endfacet
  facet normal 0 0 1
    outer loop
      vertex 7.65 51.6 3
      vertex 7.875 44.5 3
      vertex 16.8 46.2 3
    endloop
  endfacet
  facet normal 0 0 1
    outer loop
      vertex 7.65 51.6 3
      vertex -2 46 3
      vertex 7.875 44.5 3
    endloop
  endfacet
  facet normal 0 0 1
    outer loop
      vertex -4.2 53.4 3
      vertex -2 46 3
      vertex 7.65 51.6 3
    endloop
  endfacet
  facet normal 0 0 1
    outer loop
      vertex -4.2 53.4 3
      vertex -16 46 3
      vertex -2 46 3
    endloop
  endfacet
  facet normal 0 0 1
    outer loop
      vertex -21 -1.8 3
      vertex -16 46 3
      vertex -21 53.4 3
    endloop
  endfacet
  facet normal -0 0 1
    outer loop
      vertex -21 53.4 3
      vertex -16 46 3
      vertex -4.2 53.4 3
    endloop
  endfacet
  facet normal 0 0 1
    outer loop
      vertex 20.375 13.25 3
      vertex 22.65 14.1 3
      vertex 22 23 3
    endloop
  endfacet
  facet normal -0 0 1
    outer loop
      vertex 20.375 13.25 3
      vertex 16.8 5.4 3
      vertex 22.65 14.1 3
    endloop
  endfacet
  facet normal -0 0 1
    outer loop
      vertex 15.5 6 3
      vertex 16.8 5.4 3
      vertex 20.375 13.25 3
    endloop
  endfacet
  facet normal 0 0 1
    outer loop
      vertex 7.625 1.5 3
      vertex 16.8 5.4 3
      vertex 15.5 6 3
    endloop
  endfacet
  facet normal -0 0 1
    outer loop
      vertex 7.625 1.5 3
      vertex 7.35 -1.11022e-16 3
      vertex 16.8 5.4 3
    endloop
  endfacet
  facet normal -0 0 1
    outer loop
      vertex -3 0 3
      vertex 7.35 -1.11022e-16 3
      vertex 7.625 1.5 3
    endloop
  endfacet
  facet normal 0 0 1
    outer loop
      vertex -3 0 3
      vertex -5.4 -1.8 3
      vertex 7.35 -1.11022e-16 3
    endloop
  endfacet
  facet normal -0 0 1
    outer loop
      vertex -16 0 3
      vertex -5.4 -1.8 3
      vertex -3 0 3
    endloop
  endfacet
  facet normal 0 0 1
    outer loop
      vertex -16 0 3
      vertex -21 -1.8 3
      vertex -5.4 -1.8 3
    endloop
  endfacet
  facet normal 0 0 1
    outer loop
      vertex -16 46 3
      vertex -21 -1.8 3
      vertex -16 0 3
    endloop
  endfacet
  facet normal 0 0 1
    outer loop
      vertex 8.4 12.3 3
      vertex 12 23 3
      vertex 11.8695 23.4519 3
    endloop
  endfacet
  facet normal 0 0 1
    outer loop
      vertex 12 23 3
      vertex 8.4 12.3 3
      vertex 8.5 11.75 3
    endloop
  endfacet
  facet normal 0 0 1
    outer loop
      vertex 8.4 12.3 3
      vertex -2 8 3
      vertex 8.5 11.75 3
    endloop
  endfacet
  facet normal 0 -0 1
    outer loop
      vertex -2 8 3
      vertex 8.4 12.3 3
      vertex -3.64 8 3
    endloop
  endfacet
  facet normal -0.336336 0.941742 0
    outer loop
      vertex 8.4 12.3 0
      vertex -3.64 8 3
      vertex 8.4 12.3 3
    endloop
  endfacet
  facet normal -0.336336 0.941742 0
    outer loop
      vertex -3.64 8 3
      vertex 8.4 12.3 0
      vertex -3.64 8 0
    endloop
  endfacet
  facet normal -0.954856 0.297068 0
    outer loop
      vertex 8.4 12.3 0
      vertex 11.8695 23.4519 3
      vertex 11.8695 23.4519 0
    endloop
  endfacet
  facet normal -0.954856 0.297068 0
    outer loop
      vertex 11.8695 23.4519 3
      vertex 8.4 12.3 0
      vertex 8.4 12.3 3
    endloop
  endfacet
  facet normal 0.986394 -0.164399 0
    outer loop
      vertex 20.375 13.25 5
      vertex 22 23 3
      vertex 22 23 5
    endloop
  endfacet
  facet normal 0.986394 -0.164399 0
    outer loop
      vertex 22 23 3
      vertex 20.375 13.25 5
      vertex 20.375 13.25 3
    endloop
  endfacet
  facet normal 0.829843 -0.557998 0
    outer loop
      vertex 15.5 6 5
      vertex 20.375 13.25 3
      vertex 20.375 13.25 5
    endloop
  endfacet
  facet normal 0.829843 -0.557998 0
    outer loop
      vertex 20.375 13.25 3
      vertex 15.5 6 5
      vertex 15.5 6 3
    endloop
  endfacet
  facet normal 0.496139 -0.868243 0
    outer loop
      vertex 7.625 1.5 3
      vertex 15.5 6 5
      vertex 7.625 1.5 5
    endloop
  endfacet
  facet normal 0.496139 -0.868243 0
    outer loop
      vertex 15.5 6 5
      vertex 7.625 1.5 3
      vertex 15.5 6 3
    endloop
  endfacet
  facet normal 0 -1 0
    outer loop
      vertex -16 0 3
      vertex -3 0 5
      vertex -16 0 5
    endloop
  endfacet
  facet normal 0 -1 -0
    outer loop
      vertex -3 0 5
      vertex -16 0 3
      vertex -3 0 3
    endloop
  endfacet
  facet normal 0.13979 -0.990181 0
    outer loop
      vertex -3 0 3
      vertex 7.625 1.5 5
      vertex -3 0 5
    endloop
  endfacet
  facet normal 0.13979 -0.990181 0
    outer loop
      vertex 7.625 1.5 5
      vertex -3 0 3
      vertex 7.625 1.5 3
    endloop
  endfacet
  facet normal 0.150176 0.988659 -0
    outer loop
      vertex 7.875 44.5 3
      vertex -2 46 5
      vertex 7.875 44.5 5
    endloop
  endfacet
  facet normal 0.150176 0.988659 0
    outer loop
      vertex -2 46 5
      vertex 7.875 44.5 3
      vertex -2 46 3
    endloop
  endfacet
  facet normal 0 1 -0
    outer loop
      vertex -2 46 3
      vertex -16 46 5
      vertex -2 46 5
    endloop
  endfacet
  facet normal 0 1 0
    outer loop
      vertex -16 46 5
      vertex -2 46 3
      vertex -16 46 3
    endloop
  endfacet
  facet normal 0.508254 0.861207 -0
    outer loop
      vertex 15.5 40 3
      vertex 7.875 44.5 5
      vertex 15.5 40 5
    endloop
  endfacet
  facet normal 0.508254 0.861207 0
    outer loop
      vertex 7.875 44.5 5
      vertex 15.5 40 3
      vertex 7.875 44.5 3
    endloop
  endfacet
  facet normal 0.829843 0.557998 0
    outer loop
      vertex 20.375 32.75 5
      vertex 15.5 40 3
      vertex 15.5 40 5
    endloop
  endfacet
  facet normal 0.829843 0.557998 0
    outer loop
      vertex 15.5 40 3
      vertex 20.375 32.75 5
      vertex 20.375 32.75 3
    endloop
  endfacet
  facet normal 0.986394 0.164399 0
    outer loop
      vertex 22 23 5
      vertex 20.375 32.75 3
      vertex 20.375 32.75 5
    endloop
  endfacet
  facet normal 0.986394 0.164399 0
    outer loop
      vertex 20.375 32.75 3
      vertex 22 23 5
      vertex 22 23 3
    endloop
  endfacet
  facet normal -1 0 0
    outer loop
      vertex -16 0 3
      vertex -16 46 5
      vertex -16 46 3
    endloop
  endfacet
  facet normal -1 -0 0
    outer loop
      vertex -16 46 5
      vertex -16 0 3
      vertex -16 0 5
    endloop
  endfacet
  facet normal 0 0 1
    outer loop
      vertex 12 23 5
      vertex 22 23 5
      vertex 20.375 32.75 5
    endloop
  endfacet
  facet normal -0 0 1
    outer loop
      vertex 8.75 34.25 5
      vertex 20.375 32.75 5
      vertex 15.5 40 5
    endloop
  endfacet
  facet normal 0 0 1
    outer loop
      vertex 22 23 5
      vertex 12 23 5
      vertex 20.375 13.25 5
    endloop
  endfacet
  facet normal 0 0 1
    outer loop
      vertex 8.5 11.75 5
      vertex 20.375 13.25 5
      vertex 12 23 5
    endloop
  endfacet
  facet normal 0 0 1
    outer loop
      vertex 20.375 32.75 5
      vertex 8.75 34.25 5
      vertex 12 23 5
    endloop
  endfacet
  facet normal 0 0 1
    outer loop
      vertex 7.875 44.5 5
      vertex 8.75 34.25 5
      vertex 15.5 40 5
    endloop
  endfacet
  facet normal 0 0 1
    outer loop
      vertex 7.875 44.5 5
      vertex -1 38 5
      vertex 8.75 34.25 5
    endloop
  endfacet
  facet normal 0 0 1
    outer loop
      vertex -2 46 5
      vertex -1 38 5
      vertex 7.875 44.5 5
    endloop
  endfacet
  facet normal 0 0 1
    outer loop
      vertex -2 46 5
      vertex -7 38 5
      vertex -1 38 5
    endloop
  endfacet
  facet normal 0 0 1
    outer loop
      vertex -7 38 5
      vertex -16 46 5
      vertex -7 8 5
    endloop
  endfacet
  facet normal -0 0 1
    outer loop
      vertex -16 46 5
      vertex -7 38 5
      vertex -2 46 5
    endloop
  endfacet
  facet normal 0 0 1
    outer loop
      vertex 20.375 13.25 5
      vertex 8.5 11.75 5
      vertex 15.5 6 5
    endloop
  endfacet
  facet normal 0 0 1
    outer loop
      vertex 8.5 11.75 5
      vertex 7.625 1.5 5
      vertex 15.5 6 5
    endloop
  endfacet
  facet normal -0 0 1
    outer loop
      vertex -2 8 5
      vertex 7.625 1.5 5
      vertex 8.5 11.75 5
    endloop
  endfacet
  facet normal 0 0 1
    outer loop
      vertex -2 8 5
      vertex -3 0 5
      vertex 7.625 1.5 5
    endloop
  endfacet
  facet normal -0 0 1
    outer loop
      vertex -7 8 5
      vertex -3 0 5
      vertex -2 8 5
    endloop
  endfacet
  facet normal 0 0 1
    outer loop
      vertex -7 8 5
      vertex -16 0 5
      vertex -3 0 5
    endloop
  endfacet
  facet normal 0 0 1
    outer loop
      vertex -16 0 5
      vertex -7 8 5
      vertex -16 46 5
    endloop
  endfacet
  facet normal -0.960713 -0.277544 -0
    outer loop
      vertex 11.8695 23.4519 3
      vertex 8.75 34.25 0
      vertex 11.8695 23.4519 0
    endloop
  endfacet
  facet normal -0.960713 -0.277544 0
    outer loop
      vertex 8.75 34.25 0
      vertex 11.8695 23.4519 3
      vertex 8.75 34.25 5
    endloop
  endfacet
  facet normal -0.960742 -0.277444 -0
    outer loop
      vertex 12 23 5
      vertex 11.8695 23.4519 3
      vertex 12 23 3
    endloop
  endfacet
  facet normal -0.960714 -0.27754 -2.34841e-05
    outer loop
      vertex 11.8695 23.4519 3
      vertex 12 23 5
      vertex 8.75 34.25 5
    endloop
  endfacet
  facet normal -0.358979 -0.933346 0
    outer loop
      vertex -1 38 0
      vertex 8.75 34.25 5
      vertex -1 38 5
    endloop
  endfacet
  facet normal -0.358979 -0.933346 -0
    outer loop
      vertex 8.75 34.25 5
      vertex -1 38 0
      vertex 8.75 34.25 0
    endloop
  endfacet
  facet normal 0 -1 0
    outer loop
      vertex -7 38 0
      vertex -1 38 5
      vertex -7 38 5
    endloop
  endfacet
  facet normal 0 -1 -0
    outer loop
      vertex -1 38 5
      vertex -7 38 0
      vertex -1 38 0
    endloop
  endfacet
  facet normal 0 1 0
    outer loop
      vertex -3.64 8 3
      vertex -2 8 5
      vertex -2 8 3
    endloop
  endfacet
  facet normal 0 1 0
    outer loop
      vertex -2 8 5
      vertex -3.64 8 3
      vertex -7 8 5
    endloop
  endfacet
  facet normal 0 1 0
    outer loop
      vertex -7 8 0
      vertex -3.64 8 3
      vertex -3.64 8 0
    endloop
  endfacet
  facet normal 0 1 0
    outer loop
      vertex -3.64 8 3
      vertex -7 8 0
      vertex -7 8 5
    endloop
  endfacet
  facet normal -0.336336 0.941742 0
    outer loop
      vertex 8.5 11.75 3
      vertex -2 8 5
      vertex 8.5 11.75 5
    endloop
  endfacet
  facet normal -0.336336 0.941742 0
    outer loop
      vertex -2 8 5
      vertex 8.5 11.75 3
      vertex -2 8 3
    endloop
  endfacet
  facet normal -0.954857 0.297067 0
    outer loop
      vertex 8.5 11.75 3
      vertex 12 23 5
      vertex 12 23 3
    endloop
  endfacet
  facet normal -0.954857 0.297067 0
    outer loop
      vertex 12 23 5
      vertex 8.5 11.75 3
      vertex 8.5 11.75 5
    endloop
  endfacet
  facet normal 1 -0 0
    outer loop
      vertex -7 8 5
      vertex -7 38 0
      vertex -7 38 5
    endloop
  endfacet
  facet normal 1 0 0
    outer loop
      vertex -7 38 0
      vertex -7 8 5
      vertex -7 8 0
    endloop
  endfacet
endsolid OpenSCAD_Model
